<svg width="268" height="373" viewBox="0 0 268 373" fill="none" xmlns="http://www.w3.org/2000/svg">
<path d="M81.473 335.004C63.559 332.879 45.35 329.495 29.7523 320.43C14.1527 311.366 1.44177 295.637 0.24646 277.635C-1.38245 253.075 17.4926 232.578 27.2015 209.959C33.3734 195.577 35.9047 179.647 34.4926 164.061C32.975 147.315 27.0121 131.067 26.9828 114.252C26.9496 95.6097 34.2347 77.6937 43.2758 61.391C54.2699 41.5668 68.6117 22.7777 88.3539 11.6351C116.717 -4.37269 152.272 -2.23207 183.118 8.22497C209.469 17.1586 234.44 32.3187 250.7 54.8968C266.957 77.475 273.325 108.118 262.957 133.938C256.758 149.377 245.319 162.002 235.862 175.69C226.405 189.377 218.58 205.69 221.243 222.112C222.633 230.686 226.791 238.563 228.912 246.987C233.395 264.787 228.258 284.202 217.551 299.112C206.844 314.024 191.043 324.733 174.088 331.77C149.504 341.973 121.95 344.891 95.7738 340.061C88.434 338.705 88.2875 338.049 81.473 335.004Z" fill="#C3D7CA"/>
<path d="M222.692 308.959C208.417 325.72 189.846 338.603 168.942 345.609C164.866 346.974 166.59 353.437 170.729 352.093C192.827 344.91 212.725 331.753 227.59 313.855C230.409 310.462 225.6 305.546 222.692 308.959Z" fill="#FCE5EB"/>
<path d="M56.7465 21.0704C26.684 48.4376 3.26604 88.6798 11.9946 130.623C14.5121 142.715 19.6977 154.445 18.5473 167.027C18.2407 170.383 23.4789 170.361 23.7836 167.027C24.7485 156.467 21.4457 146.33 18.7504 136.262C16.0492 126.178 14.8403 116.029 15.6469 105.594C17.2309 85.1329 25.768 65.9317 37.641 49.4044C44.1899 40.2891 51.8461 32.0216 59.9379 24.2618C62.0453 22.2403 58.8871 19.1212 56.7465 21.0704Z" fill="#FCE5EB"/>
<path d="M24.2073 180.564C24.096 179.299 23.2054 178.213 21.8558 178.213C20.6253 178.213 19.4554 179.289 19.5061 180.564C19.5765 182.244 19.1936 183.893 18.5608 185.449C18.139 186.484 18.9339 187.756 19.8792 188.135C20.9241 188.555 22.1331 188.201 22.7229 187.203C23.928 185.164 24.4143 182.924 24.2073 180.564Z" fill="#FCE5EB"/>
<path d="M112.616 236.504C101.485 231.951 88.274 186.832 88.274 186.832C88.274 186.832 60.2681 147.861 60.4654 147.228C60.6627 146.595 75.19 120.168 83.1568 114.984C91.1236 109.798 100.733 109.925 110.217 103.476C110.217 103.476 135.854 100.605 138.842 103.115C141.831 105.627 159.786 114.224 165.856 117.511C171.924 120.8 176.856 128.261 179.133 132.939C181.409 137.619 189.376 152.213 189.376 152.213L179.26 184.498L150.303 216.398L112.616 236.504Z" fill="#2F4D3F"/>
<path d="M134.76 90.9121C136.678 101.705 140.237 103.705 140.522 106.93C140.807 110.154 137.469 120.221 123.11 119.252C107.656 118.207 109.483 106.354 109.471 105.879C109.457 105.404 113.821 96.9473 113.821 96.9473L134.76 90.9121Z" fill="#E69082"/>
<path d="M112.333 99.8613C111.071 102.355 109.463 105.592 109.471 105.879C109.475 106.031 109.667 107.066 110.393 108.479C119.637 115.109 131.756 104.385 131.586 96.9473C131.518 93.8965 130.129 94.6934 128.92 92.5957L116.422 96.1973C115.004 97.4453 113.598 98.7109 112.333 99.8613Z" fill="#1A1A1A"/>
<path d="M140.477 36.4223C139.79 36.0512 139.069 35.7426 138.333 35.5004C135.569 34.5922 132.43 34.5434 129.833 35.8598C127.235 37.1743 125.333 39.9985 125.567 42.9008C124.368 42.1938 122.854 42.0473 121.54 42.5082C120.227 42.9711 119.139 44.0336 118.645 45.3344C117.475 44.2348 115.577 44.3618 114.12 45.0375C111.618 46.1996 109.827 49.0903 110.516 51.7621C111.089 53.9321 112.874 55.1528 114.448 56.561C113.45 56.5512 112.296 57.2231 111.382 57.6118C110.337 58.0551 109.327 58.5903 108.389 59.2328C106.28 60.6782 104.594 62.6684 103.649 65.0532C100.063 74.0981 104.079 79.145 104.079 79.145L105.559 81.6215L123.673 97.9496C123.673 97.9496 138.087 89.2446 139.776 87.0532C141.464 84.8637 144.589 78.5453 144.78 76.434C144.956 74.4868 144.577 72.3969 144.126 70.5121C143.823 69.2407 143.425 67.9828 142.866 66.7993C142.616 66.268 142.055 65.6899 142.372 65.1723C142.706 64.6254 143.985 64.1625 144.52 63.7875C146.997 62.0434 148.811 59.1625 148.68 56.1371C148.548 53.1118 146.102 50.1801 143.077 50.0571C145.68 48.2524 146.448 44.477 145.278 41.5356C144.393 39.311 142.598 37.5688 140.477 36.4223Z" fill="#B04344"/>
<path d="M124.54 69.1856C116.757 67.1016 114.778 58.4922 114.77 58.1133C114.762 57.7481 115.051 57.4473 115.417 57.4395C115.782 57.4317 117.403 60.2969 124.698 64.1231C131.944 67.9258 140.827 64.8477 141.073 65.1153C141.321 65.3848 141.34 65.8613 141.073 66.1094C141.042 66.1367 135.592 72.1445 124.54 69.1856Z" fill="#67B2AC"/>
<path d="M103.309 75.8828C104.633 75.3633 105.444 79.375 108.42 81.7734C111.401 84.1719 122.227 84.5078 124.069 85.3145C125.913 86.1211 129.047 91.5156 129.833 92.2266C130.624 92.9356 132.663 91.2813 133.913 89.2676C135.159 87.2481 136.508 81.9668 139.489 84.3633C141.043 85.6191 140.653 88.332 139.563 90.4102C138.571 92.3066 132.706 95.3633 133.032 95.6465C132.397 100.611 128.924 104.268 123.21 106.922C122.317 107.338 118.872 108.322 117.899 108.32C114.01 108.318 111.022 107.656 106.706 100.783C101.749 92.8945 103.309 75.8828 103.309 75.8828Z" fill="#F49C8A"/>
<path d="M121.53 92.8301C120.209 91.2461 118.991 89.5645 117.639 88.0118C117.03 87.3126 116.016 88.084 116.495 88.8692C117.561 90.6172 118.924 92.2325 120.243 93.795C120.905 94.5801 122.194 93.6309 121.53 92.8301Z" fill="#B04344"/>
<path d="M104.647 88.3199C104.464 88.066 104.11 87.9488 103.811 88.0211C103.417 88.1187 103.186 88.4703 103.206 88.8707C103.239 89.5308 103.548 90.4273 104.327 90.4468C104.739 90.4586 105.124 90.1871 105.268 89.8023C105.387 89.4781 105.342 89.1129 105.216 88.7945C105.106 88.5132 104.887 88.3629 104.647 88.3199Z" fill="#1A1A1A"/>
<path d="M118.438 94.4102C118.373 93.9981 118.049 93.7735 117.647 93.7774C116.666 93.7813 116.215 95.0626 116.746 95.7911C117.055 96.2149 117.608 96.4376 118.116 96.254C118.596 96.0801 118.936 95.545 118.842 95.0333C118.793 94.7676 118.647 94.543 118.438 94.4102Z" fill="#1A1A1A"/>
<path d="M110.022 97.9238C109.823 97.9238 109.612 97.8594 109.456 97.7715C109.176 97.6211 108.915 97.4258 108.649 97.2539C108.337 97.0488 108.214 96.6387 108.411 96.3086C108.536 96.0996 108.78 95.9707 109.02 95.9707C109.139 95.9707 109.255 96.002 109.356 96.0703C109.657 96.2695 109.977 96.4551 110.256 96.6855C110.52 96.9004 110.751 97.3203 110.549 97.6562C110.432 97.8516 110.233 97.9238 110.022 97.9238Z" fill="#DF7B69"/>
<path d="M104.324 84.274C103.789 84.6979 103.223 85.0865 102.619 85.4049C102.237 85.6061 101.996 86.0084 102.166 86.442C102.326 86.8522 102.797 87.0475 103.203 86.8951C103.987 86.6022 104.713 86.1861 105.354 85.651C106.198 84.9479 105.198 83.5826 104.324 84.274Z" fill="#B04344"/>
<path d="M113.159 103.115C111.596 103.115 109.665 102.561 108.85 101.582C108.639 101.332 108.672 100.957 108.924 100.748C109.034 100.656 109.169 100.611 109.303 100.611C109.473 100.611 109.641 100.684 109.758 100.824C110.323 101.498 111.962 101.932 113.19 101.932C113.6 101.932 113.962 101.883 114.225 101.779C114.296 101.752 114.37 101.738 114.442 101.738C114.678 101.738 114.901 101.883 114.993 102.115C115.112 102.42 114.962 102.764 114.657 102.883C114.256 103.041 113.733 103.115 113.159 103.115Z" fill="#DF7B69"/>
<path d="M166.487 167.701C166.167 167.701 165.872 167.492 165.776 167.168C165.733 167.027 161.581 152.932 159.583 146.435C159.461 146.043 159.682 145.627 160.073 145.508C160.463 145.385 160.881 145.605 161.002 145.998C163.002 152.504 167.159 166.607 167.202 166.748C167.317 167.142 167.092 167.555 166.698 167.672C166.627 167.691 166.557 167.701 166.487 167.701Z" fill="#8098A9"/>
<path d="M85.0532 201.467C84.1684 229.295 78.604 271.178 80.1216 277.93C81.6391 284.682 168.333 280.123 171.141 279.367C173.95 278.611 171.114 204.166 171.141 200.418C171.166 196.672 85.0532 201.467 85.0532 201.467Z" fill="#2F4D3F"/>
<path d="M82.651 165.676C82.5944 165.676 82.5377 165.67 82.4791 165.656C82.0787 165.56 81.8327 165.16 81.9284 164.762C81.9577 164.642 84.7955 152.752 86.7428 146.012C86.8561 145.617 87.2662 145.39 87.6627 145.504C88.0573 145.617 88.2838 146.029 88.1705 146.424C86.233 153.131 83.401 164.986 83.3737 165.105C83.2916 165.447 82.987 165.676 82.651 165.676Z" fill="#8098A9"/>
<path d="M95.3599 271.118C96.1821 279.275 96.561 284.144 96.3071 286.357C96.0552 288.57 106.655 306.531 115.075 307.191C123.495 307.853 154.573 280.056 154.586 279.564C154.602 279.07 156.024 270.535 156.073 270.06C156.12 269.585 95.3599 271.118 95.3599 271.118Z" fill="#B6522A"/>
<path d="M88.2739 174.35C81.3872 185.133 81.2915 200.781 81.2915 201.92C81.2915 203.057 84.8052 206.186 85.7505 210.074C86.6978 213.963 92.5767 267.262 94.6646 271.721C96.7505 276.178 122.167 278.549 137.247 277.789C152.327 277.031 154.792 275.609 155.741 273.902C156.688 272.195 159.104 248.863 162.022 241.277C164.938 233.689 166.266 224.691 168.258 218.283C170.25 211.877 170.124 212.1 170.629 210.928C171.42 209.096 173.506 206.377 176.096 202.344C178.67 198.33 170.915 176.439 170.061 175.949C169.208 175.459 154.881 187.443 150.948 190.84C147.014 194.236 144.928 195.943 143.221 195.469C141.514 194.996 141.823 196.514 140.483 197.842C139.143 199.168 120.569 201.678 117.954 198.574C115.338 195.469 114.959 193.121 113.538 194.344C112.114 195.564 112.098 192.17 110.731 192.445C109.364 192.719 107.846 191.258 102.44 186.061C97.0356 180.865 88.2739 174.35 88.2739 174.35Z" fill="#F0E5DC"/>
<path d="M117.616 190.381C117.78 194.904 116.373 203.404 118.5 208.4C120.625 213.395 125.809 217.82 129.582 218.262C133.358 218.705 138.291 212.133 139.428 208.525C140.483 205.176 138.842 190.84 138.842 190.84L117.616 190.381Z" fill="#B6522A"/>
<path d="M145.174 171.002C151.188 168.631 165.129 159.277 173.001 153.947C180.872 148.619 196.141 142.265 200.979 143.972C205.815 145.68 204.866 157.154 196.424 172.045C187.985 186.933 175.233 203.476 175.233 203.476C175.233 203.476 168.733 180.732 168.733 179.517C168.733 178.305 175.233 170.053 175.233 170.053C175.233 170.053 154.506 181.719 152.421 183.805C150.335 185.89 141.387 193.107 138.842 193.672C136.297 194.236 145.174 171.002 145.174 171.002Z" fill="#B6522A"/>
<path d="M168.618 174.306C168.442 174.306 168.274 174.213 168.188 174.047C168.065 173.81 168.157 173.519 168.395 173.396C172.631 171.193 176.33 169.439 179.596 167.89C182.495 166.517 185.231 165.219 187.854 163.84C193.264 160.998 195.996 156.929 196.022 156.888C196.168 156.666 196.469 156.605 196.692 156.752C196.914 156.898 196.975 157.197 196.829 157.42C196.713 157.595 193.944 161.732 188.305 164.695C185.662 166.084 182.916 167.385 180.01 168.763C176.752 170.308 173.061 172.058 168.84 174.254C168.768 174.289 168.692 174.306 168.618 174.306Z" fill="#923B16"/>
<path d="M111.716 168.99C105.704 166.619 91.7624 157.265 83.8913 151.937C76.0183 146.609 60.7507 140.256 55.9128 141.963C51.0769 143.67 52.0241 155.144 60.4655 170.035C68.9069 184.924 81.6589 201.467 81.6589 201.467C81.6589 201.467 88.1589 178.721 88.1589 177.508C88.1589 176.293 81.6589 168.043 81.6589 168.043C81.6589 168.043 102.385 179.707 104.471 181.795C106.557 183.881 115.505 191.096 118.048 191.662C120.592 192.226 111.716 168.99 111.716 168.99Z" fill="#B6522A"/>
<path d="M88.2741 172.297C88.1998 172.297 88.1237 172.279 88.0514 172.242C83.8288 170.049 80.1373 168.297 76.8795 166.752C73.9733 165.375 71.2272 164.072 68.5866 162.685C62.9459 159.72 60.1784 155.586 60.0631 155.41C59.9147 155.187 59.9772 154.888 60.1998 154.742C60.4206 154.595 60.7213 154.656 60.8678 154.879C60.8952 154.92 63.6256 158.988 69.0358 161.83C71.6588 163.209 74.3952 164.506 77.2936 165.881C80.5573 167.428 84.2584 169.183 88.4967 171.385C88.7331 171.508 88.8268 171.801 88.7038 172.037C88.6178 172.201 88.4479 172.297 88.2741 172.297Z" fill="#923B16"/>
<path d="M144.953 176.562C144.953 176.562 148.086 162.566 145.25 157.935C142.414 153.304 123.141 148.582 114.971 156.345C108.045 162.927 111.938 177.654 111.938 177.654L144.953 176.562Z" fill="#4A3333"/>
<path d="M113.254 166.959C113.254 166.959 111.676 166.578 111.663 165.004C111.663 165.004 108.126 165.824 107.7 162.283C107.274 158.742 109.633 158.328 109.633 158.328C109.633 158.328 103.323 157.203 104.848 151.678C106.374 146.151 110.325 147.69 110.325 147.69C110.325 147.69 105.961 144.186 109.858 139.426C113.753 134.664 117.327 138.178 117.327 138.178C117.327 138.178 116.919 136.606 118.895 137.375C118.895 137.375 117.686 134.236 121.219 133.024C124.751 131.809 125.567 134.953 125.567 134.953C125.567 134.953 125.936 132.194 127.915 133.356C129.895 134.52 129.512 135.705 129.512 135.705C129.512 135.705 131.073 134.115 132.268 135.68C132.268 135.68 134.588 130.934 139.725 132.856C144.86 134.779 143.333 139.912 143.333 139.912C143.333 139.912 144.512 139.901 144.528 141.475C144.528 141.475 147.667 140.266 149.28 144.582C150.895 148.901 148.153 150.5 148.153 150.5C148.153 150.5 150.913 150.869 150.948 154.807C150.983 158.742 147.436 158.381 147.436 158.381C147.436 158.381 149.813 159.936 148.653 162.309C147.493 164.682 144.737 164.705 144.737 164.705C144.737 164.705 144.747 165.887 142.389 166.303C140.03 166.717 113.254 166.959 113.254 166.959Z" fill="#4A3333"/>
<path d="M119.114 196.467L138.446 193.672C138.413 193.68 138.295 195.346 138.274 195.498C138.184 196.18 138.067 196.861 137.883 197.525C137.463 199.053 136.661 200.482 135.368 201.422C134.497 202.057 133.514 202.543 132.493 202.889C130.227 203.656 127.674 203.734 125.459 202.754C123.25 201.775 120.077 198.641 119.114 196.467Z" fill="#1A1A1A"/>
<path d="M143.62 168.861C143.559 168.591 143.469 168.33 143.317 168.087C143.081 167.709 142.719 167.421 142.475 167.046C141.833 166.058 142.045 164.544 141.083 163.867C140.405 163.39 139.409 163.56 138.764 163.041C138.397 162.746 138.213 162.275 137.877 161.943C137.323 161.392 136.459 161.31 135.676 161.353C134.895 161.396 134.088 161.527 133.344 161.283C132.122 160.884 131.297 159.548 130.02 159.414C129.065 159.312 128.202 159.919 127.334 160.335C126.206 160.877 124.93 161.113 123.682 161.011C123.12 160.966 122.54 160.857 122.002 161.033C121.182 161.298 120.717 162.13 120.153 162.783C119.504 163.531 118.641 164.091 117.694 164.382C117.008 164.593 116.245 164.683 115.713 165.164C115.272 165.562 115.077 166.156 114.815 166.691C114.338 167.677 113.327 168.363 113.004 169.402C112.624 170.632 112.676 171.752 111.932 172.898C112.415 179.46 114.409 190.093 117.37 194.341C120.583 198.953 125.993 202.314 134.014 199.222C141.848 196.205 144.504 180.236 144.473 176.599C144.459 175.14 144.792 173.173 144.403 171.775C144.237 171.183 143.895 170.72 143.793 170.06C143.731 169.662 143.708 169.252 143.62 168.861Z" fill="#B6522A"/>
<path d="M131.887 189.671C129.313 190.419 126.87 190.111 124.366 189.322C122.809 188.831 123.254 190.531 124.557 191.359C127.469 193.214 129.643 192.347 132.52 191.286C134.022 190.736 133.526 189.195 131.887 189.671Z" fill="#923B16"/>
<path d="M112.151 174.813C112.151 174.813 109.27 173.799 108.1 176.928C106.93 180.055 110.315 186.86 113.432 186.832C116.473 186.805 112.151 174.813 112.151 174.813Z" fill="#B6522A"/>
<path d="M128.741 186.016C128.348 186.016 127.993 185.713 127.936 185.318C127.874 184.883 128.192 184.467 128.624 184.4C129.053 184.336 129.481 184.27 129.909 184.205C129.948 184.199 129.985 184.195 130.022 184.195C130.415 184.195 130.77 184.5 130.827 184.893C130.889 185.33 130.571 185.746 130.139 185.812C129.71 185.877 129.282 185.943 128.854 186.008C128.815 186.014 128.778 186.016 128.741 186.016Z" fill="#A0441E"/>
<path d="M134.54 171.011C134.272 170.808 134.116 170.486 134.163 170.17C134.227 169.73 134.659 169.474 135.127 169.597C135.239 169.627 137.868 170.32 140.122 172.146C140.506 172.457 140.598 172.978 140.325 173.31C140.051 173.644 139.516 173.675 139.131 173.349C137.213 171.81 134.916 171.191 134.893 171.185C134.762 171.152 134.643 171.091 134.54 171.011Z" fill="#4A3333"/>
<path d="M122.385 171.072C122.645 170.86 122.79 170.529 122.731 170.217C122.651 169.779 122.209 169.539 121.747 169.68C121.637 169.713 119.034 170.5 116.848 172.406C116.473 172.731 116.401 173.256 116.686 173.578C116.971 173.901 117.508 173.914 117.879 173.574C119.741 171.967 122.014 171.266 122.038 171.258C122.166 171.219 122.286 171.154 122.385 171.072Z" fill="#4A3333"/>
<path d="M112.309 182.605C112.309 182.605 110.735 181.061 110.731 180.541C110.725 180.021 111.231 178.457 111.751 178.453H111.752C112.27 178.453 112.309 182.605 112.309 182.605Z" fill="#9C421C"/>
<path d="M144.028 174.526C144.028 174.526 146.891 173.461 148.118 176.567C149.344 179.674 146.225 186.034 143.106 186.061C140.067 186.09 144.028 174.526 144.028 174.526Z" fill="#B6522A"/>
<path d="M144.012 182.32C144.012 182.32 143.975 178.162 144.495 178.158H144.497C145.016 178.158 145.547 179.709 145.553 180.227C145.557 180.746 144.012 182.32 144.012 182.32Z" fill="#9C421C"/>
<path d="M138.2 178.902C138.385 178.727 138.536 178.512 138.637 178.277C139.36 176.6 138.065 175.631 136.467 175.817C136.038 175.865 135.604 176.074 135.393 176.451C135.262 176.684 135.227 176.959 135.233 177.227C135.245 177.779 135.424 178.34 135.792 178.752C136.161 179.166 136.723 179.418 137.272 179.352C137.62 179.311 137.942 179.145 138.2 178.902Z" fill="#1A1A1A"/>
<path d="M120.921 179.059C121.106 178.883 121.257 178.669 121.358 178.434C122.081 176.757 120.786 175.788 119.188 175.971C118.759 176.022 118.325 176.231 118.114 176.608C117.983 176.841 117.95 177.116 117.954 177.383C117.966 177.936 118.145 178.495 118.514 178.909C118.882 179.323 119.444 179.573 119.993 179.508C120.341 179.467 120.665 179.301 120.921 179.059Z" fill="#1A1A1A"/>
<path d="M124.424 147.987C132.52 147.711 143.752 149.741 146.053 158.866C146.321 159.926 144.69 160.395 144.416 159.332C142.244 150.953 131.707 149.811 124.44 149.682C123.35 149.662 123.332 148.026 124.424 147.987Z" fill="#2D1F1F"/>
<path d="M112.286 158.716C114.6 154.648 117.672 151.009 122.063 149.15C122.914 148.79 123.559 150.265 122.711 150.648C118.672 152.466 116.106 155.952 113.682 159.515C113.108 160.359 111.768 159.63 112.286 158.716Z" fill="#2D1F1F"/>
<path d="M117.369 194.715C117.252 194.715 117.137 194.658 117.063 194.555C115.957 192.967 114.926 190.451 113.996 187.072C113.828 187.156 113.641 187.201 113.436 187.203H113.414C112.166 187.203 110.828 186.276 109.645 184.584C108.127 182.416 106.948 178.949 107.752 176.797C108.965 173.555 111.885 174.342 112.213 174.444C112.41 174.502 112.522 174.711 112.461 174.906C112.401 175.102 112.196 175.215 111.996 175.153C111.571 175.024 109.403 174.504 108.448 177.057C107.83 178.711 108.623 181.83 110.254 184.158C111.28 185.623 112.43 186.461 113.414 186.461H113.43C113.629 186.459 113.764 186.379 113.881 186.194L114.336 185.465L114.555 186.295C115.491 189.836 116.569 192.547 117.674 194.131C117.791 194.299 117.748 194.531 117.58 194.649C117.516 194.694 117.442 194.715 117.369 194.715Z" fill="#923B16"/>
<path d="M140.01 193.574C139.95 193.574 139.887 193.559 139.831 193.529C139.651 193.43 139.584 193.203 139.684 193.024C140.77 191.045 141.715 188.658 142.491 185.93L142.588 185.584L142.938 185.672C142.991 185.684 143.041 185.69 143.104 185.69C144.135 185.68 145.295 184.83 146.29 183.356C147.766 181.162 148.403 178.303 147.772 176.703C147.022 174.805 145.647 174.6 144.625 174.764C144.42 174.797 144.231 174.656 144.2 174.455C144.168 174.252 144.307 174.063 144.508 174.029C145.36 173.893 147.448 173.856 148.463 176.43C149.286 178.512 148.301 181.699 146.905 183.772C145.758 185.473 144.415 186.418 143.12 186.432C142.346 189.09 141.409 191.428 140.334 193.381C140.268 193.506 140.141 193.574 140.01 193.574Z" fill="#923B16"/>
<path d="M204.375 362.549C204.375 365.957 166.739 368.721 120.311 368.721C73.8833 368.721 36.2466 365.957 36.2466 362.549C36.2466 359.139 73.8833 356.375 120.311 356.375C166.739 356.375 204.375 359.139 204.375 362.549Z" fill="#756880"/>
<path d="M90.1584 351.428C84.5295 350.178 80.5412 349.736 79.3381 349.508C78.135 349.281 60.4807 344.488 53.9709 343.146C47.4592 341.803 35.8869 342.285 33.9123 344.031C31.9357 345.775 35.3185 349.314 35.3185 349.314C35.3185 349.314 34.6096 350.228 34.9514 351.705C35.2932 353.18 36.3537 353.685 36.3537 353.685C36.3537 353.685 36.4182 355.859 37.4846 356.705C38.549 357.553 38.9865 357.678 38.9865 357.678C38.9865 357.678 38.6818 359.281 39.7775 360.303C40.8732 361.326 42.3576 361.668 42.3576 361.668C42.3576 361.668 42.2287 362.502 43.3713 363.588C44.5139 364.676 53.8947 364.752 63.0256 364.789C72.1584 364.828 85.8264 364.107 93.4533 362.125C107.852 358.383 90.1584 351.428 90.1584 351.428Z" fill="#B6522A"/>
<path d="M39.7818 350.027H39.7584C39.6256 350.019 36.4752 349.867 34.9674 349.511C34.7076 349.451 34.5475 349.191 34.608 348.931C34.6686 348.672 34.9244 348.51 35.1881 348.572C36.61 348.906 39.7721 349.06 39.8053 349.06C40.0709 349.074 40.276 349.301 40.2643 349.566C40.2525 349.826 40.0377 350.027 39.7818 350.027Z" fill="#923B16"/>
<path d="M39.3793 354.355C38.477 354.355 37.2329 354.32 35.9848 354.173C35.7192 354.142 35.5297 353.902 35.561 353.638C35.5922 353.373 35.8325 353.183 36.0961 353.214C38.352 353.478 40.6665 353.363 40.6899 353.361C40.9633 353.347 41.1821 353.552 41.1958 353.818C41.2094 354.083 41.0063 354.312 40.7387 354.326C40.6938 354.328 40.1665 354.355 39.3793 354.355Z" fill="#923B16"/>
<path d="M40.477 358.34C39.8539 358.34 39.1039 358.297 38.2563 358.168C37.9926 358.127 37.811 357.881 37.852 357.615C37.893 357.353 38.1391 357.172 38.4028 357.213C40.6625 357.56 42.1938 357.236 42.2094 357.232C42.4672 357.178 42.727 357.342 42.7836 357.6C42.8403 357.861 42.6762 358.117 42.4164 358.176C42.3715 358.185 41.6547 358.34 40.477 358.34Z" fill="#923B16"/>
<path d="M42.1684 362.264C41.9203 362.264 41.7094 362.074 41.6879 361.822C41.6645 361.557 41.8618 361.322 42.1274 361.301C43.6879 361.168 44.6469 360.76 44.6567 360.756C44.8989 360.648 45.184 360.76 45.2914 361.004C45.3969 361.248 45.2875 361.531 45.0434 361.639C44.9985 361.658 43.9418 362.115 42.2094 362.262L42.1684 362.264Z" fill="#923B16"/>
<path d="M95.8521 285.488C95.5982 291.818 87.485 311.984 87.485 311.984C87.485 311.984 75.4088 309.133 59.5416 306.094C43.6744 303.057 29.1568 305.336 24.5143 313.945C19.8717 322.553 23.5865 332.146 43.8424 345.314C64.0982 358.48 67.8131 359.156 91.108 361.857C114.403 364.557 130.046 365.346 130.046 365.346L134.772 353.191L180.913 353.416C180.913 353.416 197.454 347.115 204.995 331.246C212.534 315.379 201.055 303.9 190.477 302.1C179.899 300.299 170.559 303.816 170.559 303.816C170.559 303.816 162.399 291.971 159.557 287.695C156.715 283.418 154.803 279.367 154.803 279.367C154.803 279.367 145.401 288.385 126.719 290.973C108.038 293.561 95.8521 285.488 95.8521 285.488Z" fill="#FCB655"/>
<path d="M115.752 330.051C115.59 330.051 115.428 329.99 115.299 329.871C115.174 329.754 102.604 318.07 84.6389 311.611C84.2951 311.488 84.1155 311.109 84.2405 310.766C84.3635 310.422 84.7405 310.244 85.0862 310.367C103.319 316.922 116.078 328.789 116.205 328.908C116.471 329.158 116.485 329.576 116.235 329.842C116.104 329.98 115.928 330.051 115.752 330.051Z" fill="#E68C23"/>
<path d="M117.526 340.939C117.329 340.939 117.131 340.849 117.002 340.681C116.78 340.392 116.833 339.976 117.122 339.753C142.448 320.201 162.18 314.622 171.688 313.038C177.608 312.052 181.629 310.396 181.67 310.378C182.006 310.24 182.395 310.398 182.536 310.736C182.674 311.072 182.516 311.46 182.178 311.599C182.01 311.669 177.987 313.329 171.905 314.343C162.52 315.906 143.026 321.425 117.93 340.8C117.809 340.892 117.667 340.939 117.526 340.939Z" fill="#E68C23"/>
<path d="M164.715 315.904C164.442 315.904 164.186 315.734 164.09 315.463C163.971 315.117 164.151 314.74 164.495 314.619C164.575 314.592 172.413 311.789 177.137 306.74C177.387 306.473 177.805 306.459 178.071 306.709C178.339 306.959 178.352 307.377 178.102 307.643C173.153 312.934 165.268 315.748 164.934 315.865C164.862 315.891 164.788 315.904 164.715 315.904Z" fill="#E68C23"/>
<path d="M159.559 311.879C159.354 311.879 159.153 311.783 159.024 311.608C158.809 311.313 158.874 310.899 159.167 310.684C159.215 310.649 164.126 307.082 172.36 303.217C172.69 303.065 173.083 303.203 173.239 303.535C173.393 303.865 173.251 304.26 172.92 304.414C164.801 308.225 159.997 311.717 159.948 311.75C159.831 311.838 159.694 311.879 159.559 311.879Z" fill="#E68C23"/>
<path d="M133.171 353.29C133.036 353.29 132.899 353.249 132.782 353.163C132.483 352.946 102.942 331.428 96.0865 327.78L95.856 327.657C89.1178 324.069 85.0494 321.905 56.983 315.889C56.6256 315.813 56.399 315.461 56.4752 315.104C56.5514 314.747 56.9029 314.522 57.2603 314.596C85.5084 320.649 89.6373 322.848 96.4771 326.491L96.7076 326.612C103.645 330.305 132.342 351.206 133.561 352.094C133.856 352.309 133.921 352.723 133.706 353.018C133.577 353.196 133.374 353.29 133.171 353.29Z" fill="#E68C23"/>
<path d="M85.8264 323.111C85.635 323.111 85.4436 323.027 85.3128 322.869C85.2796 322.826 81.7718 318.638 72.6077 314.549C72.2737 314.398 72.1233 314.008 72.2737 313.676C72.4221 313.342 72.8128 313.193 73.1468 313.34C82.6331 317.576 86.1897 321.851 86.3382 322.031C86.5686 322.314 86.5257 322.73 86.2444 322.961C86.1214 323.06 85.9729 323.111 85.8264 323.111Z" fill="#E68C23"/>
<path d="M134.772 353.191C140.524 352.81 144.534 352.98 145.758 352.937C146.981 352.894 168.194 352.967 174.834 352.629C181.475 352.291 189.801 352.404 191.491 354.43C193.178 356.455 189.295 359.437 189.295 359.437C189.295 359.437 189.858 360.449 189.295 361.857C188.733 363.264 187.608 363.6 187.608 363.6C187.608 363.6 187.213 365.738 186.032 366.414C184.85 367.09 184.399 367.144 184.399 367.144C184.399 367.144 184.458 368.777 183.219 369.621C181.981 370.465 180.461 370.578 180.461 370.578C180.461 370.578 180.461 371.422 179.167 372.322C177.874 373.223 168.588 371.871 159.557 370.521C150.526 369.172 143.774 368.047 138.26 367.707C132.747 367.371 130.045 365.346 130.045 365.346L134.772 353.191Z" fill="#B6522A"/>
<path d="M188.796 359.715C187.167 359.715 184.913 359.479 184.799 359.467C184.534 359.44 184.342 359.201 184.37 358.936C184.397 358.672 184.639 358.483 184.901 358.508C184.932 358.51 188.083 358.836 189.538 358.725C189.803 358.701 190.036 358.903 190.057 359.168C190.079 359.434 189.88 359.666 189.614 359.688C189.374 359.705 189.096 359.715 188.796 359.715Z" fill="#923B16"/>
<path d="M187.917 364.139H187.899C185.549 364.055 183.272 363.586 183.176 363.568C182.915 363.514 182.749 363.258 182.803 362.996C182.856 362.736 183.112 362.568 183.374 362.621C183.395 362.627 185.669 363.092 187.934 363.174C188.202 363.184 188.409 363.408 188.399 363.674C188.391 363.934 188.176 364.139 187.917 364.139Z" fill="#923B16"/>
<path d="M185.048 367.74C182.565 367.74 180.999 367.143 180.934 367.117C180.686 367.022 180.563 366.742 180.659 366.492C180.755 366.244 181.036 366.121 181.284 366.217C181.298 366.223 182.76 366.776 185.048 366.776C185.313 366.776 185.53 366.992 185.53 367.258C185.53 367.526 185.313 367.74 185.048 367.74Z" fill="#923B16"/>
<path d="M180.629 371.201L180.516 371.188C178.827 370.782 177.852 370.168 177.811 370.141C177.586 369.998 177.52 369.701 177.663 369.477C177.805 369.252 178.104 369.184 178.329 369.326C178.336 369.332 179.221 369.883 180.743 370.248C181.002 370.311 181.163 370.573 181.1 370.832C181.045 371.053 180.848 371.201 180.629 371.201Z" fill="#923B16"/>
<path d="M92.8599 220.748C92.7856 220.748 92.7095 220.733 92.6392 220.699C92.3774 220.576 92.2681 220.266 92.3911 220.006C95.6587 213.108 89.7954 200.768 89.7368 200.645C89.6118 200.385 89.7212 200.074 89.979 199.949C90.2388 199.826 90.5493 199.934 90.6724 200.193C90.9263 200.717 96.811 213.104 93.3306 220.451C93.2427 220.639 93.0552 220.748 92.8599 220.748Z" fill="#DAD0C7"/>
<path d="M165.034 218.997C164.838 218.997 164.643 218.917 164.5 218.758C155.364 208.491 159.59 200.417 159.776 200.079C159.963 199.733 160.395 199.606 160.743 199.794C161.086 199.981 161.215 200.415 161.026 200.76C160.866 201.061 157.127 208.329 165.567 217.811C165.828 218.106 165.801 218.555 165.508 218.817C165.371 218.938 165.203 218.997 165.034 218.997Z" fill="#DAD0C7"/>
<path d="M146.438 203.996C146.174 203.996 145.948 203.796 145.92 203.529C145.916 203.492 145.522 199.898 142.823 196.656C142.637 196.435 142.666 196.107 142.889 195.923C143.11 195.74 143.436 195.769 143.621 195.99C146.534 199.486 146.94 203.265 146.955 203.425C146.985 203.71 146.776 203.964 146.491 203.994L146.438 203.996Z" fill="#DAD0C7"/>
<path d="M107.864 203.996L107.766 203.989C107.485 203.934 107.299 203.662 107.352 203.381C107.395 203.155 108.413 197.821 110.266 194.112C110.393 193.854 110.708 193.748 110.964 193.877C111.219 194.006 111.325 194.319 111.196 194.575C109.409 198.155 108.385 203.52 108.374 203.573C108.327 203.823 108.108 203.996 107.864 203.996Z" fill="#DAD0C7"/>
<path d="M51.6703 141.412C53.4398 131.422 52.3344 125.764 52.7758 124.563C53.2191 123.361 56.348 115.695 56.4906 112.518C56.6332 109.34 54.5941 109.531 53.7406 110.811C52.8871 112.092 52.2699 113.656 51.2269 116.453C50.184 119.252 49.141 122.191 48.7133 122.002C48.3832 121.856 48.3832 121.053 49.0453 119.109C49.7094 117.164 49.7582 115.695 50.7523 113.277C51.7484 110.857 53.0297 108.582 52.8871 106.637C52.7445 104.693 50.8949 104.598 49.7582 105.879C48.6195 107.16 46.5804 111.379 46.5804 111.379C46.5804 111.379 48.5726 105.832 48.809 103.982C49.0453 102.133 46.3441 101.848 45.3949 103.082C44.4476 104.314 42.4086 109.15 41.6957 111.143C40.9847 113.135 39.9418 119.109 39.4672 119.584C38.9926 120.057 39.5629 114.035 40.1312 112.471C40.7015 110.906 43.1664 107.633 43.4984 105.168C43.8304 102.701 41.7445 102.133 40.0375 104.219C38.3304 106.307 37.0492 108.818 35.9594 111.238C34.8676 113.656 34.4887 116.502 34.2992 119.014C34.1097 121.527 33.682 125.273 33.682 125.273C33.682 125.273 32.1644 121.67 30.6469 120.106C29.1293 118.539 24.5297 116.311 23.4867 118.113C22.4437 119.914 25.4789 121.385 26.2855 122.285C27.0902 123.188 28.514 126.791 30.6 129.731C32.6859 132.672 35.5316 134.236 36.4808 136.701C37.4281 139.168 38.848 159.494 39.8851 169.484C40.9222 179.473 47.4965 192.484 52.3031 194.262C57.1078 196.039 65.9594 187.613 66.8441 185.883C67.7289 184.152 57.7406 162.531 55.9691 156.523C54.1996 150.516 51.6703 141.412 51.6703 141.412Z" fill="#F49C8A"/>
<path d="M197.708 145.322C194.616 135.66 194.954 129.904 194.352 128.773C193.753 127.642 189.624 120.465 189.057 117.336C188.491 114.207 190.538 114.121 191.555 115.275C192.573 116.429 193.393 117.898 194.801 120.531C196.21 123.162 197.639 125.937 198.036 125.691C198.344 125.502 198.237 124.707 197.319 122.869C196.401 121.031 196.157 119.582 194.846 117.318C193.534 115.054 191.96 112.97 191.84 111.025C191.721 109.08 193.542 108.738 194.84 109.855C196.139 110.97 198.727 114.879 198.727 114.879C198.727 114.879 196.008 109.648 195.526 107.847C195.044 106.047 197.684 105.402 198.79 106.496C199.893 107.592 202.563 112.111 203.534 113.99C204.507 115.867 206.34 121.648 206.874 122.054C207.409 122.461 206.038 116.57 205.264 115.095C204.489 113.621 201.608 110.709 200.948 108.31C200.288 105.912 202.28 105.068 204.251 106.906C206.223 108.744 207.829 111.064 209.233 113.314C210.639 115.564 211.395 118.334 211.921 120.799C212.446 123.263 213.372 126.918 213.372 126.918C213.372 126.918 214.391 123.144 215.686 121.39C216.979 119.634 221.239 116.81 222.514 118.457C223.79 120.101 220.979 121.965 220.299 122.967C219.624 123.967 218.696 127.73 217.022 130.922C215.35 134.115 212.739 136.049 212.13 138.619C211.52 141.189 211.893 161.121 211.032 171.129C209.987 183.222 206.071 194.259 201.548 196.664C197.024 199.072 189.743 193.021 188.633 191.425C187.524 189.83 194.524 167.064 195.475 160.875C196.423 154.683 197.708 145.322 197.708 145.322Z" fill="#F49C8A"/>
</svg>
