<svg width="414" height="367" viewBox="0 0 414 367" fill="none" xmlns="http://www.w3.org/2000/svg">
<path d="M365.277 235.558C365.277 235.558 372.259 235.558 372.119 227.613C371.979 219.667 364.812 212.433 355.662 202.997C346.512 193.564 339.987 183.988 337.076 182.002C334.168 180.015 332.181 178.811 332.181 178.811V175.414C332.181 175.414 335.373 174.838 339.062 174.981C342.752 175.124 344.525 174.342 343.957 172.781C343.388 171.221 340.623 171.364 339.701 169.092C338.779 166.822 339.488 165.545 337.006 165.119C334.523 164.693 333.103 165.119 330.621 164.197C328.139 163.276 327.217 161.998 325.301 162.993C323.384 163.987 323.031 171.008 323.953 174.838C323.953 174.838 314.733 179.945 303.949 188.317C293.168 196.688 291.109 204.065 291.109 204.065V223.925L345.587 236.693L365.277 235.558Z" fill="#F9B723"/>
<path d="M328.242 173.454C322.995 172.247 322.294 173.207 322.566 174.339C322.566 174.339 320.829 174.835 320.829 175.97C320.829 177.105 330.852 179.439 333.111 179.39C335.37 179.34 333.111 177.318 333.111 177.318C333.111 177.318 334.313 177.12 334.116 176.032C333.918 174.944 331.537 174.212 328.242 173.454Z" fill="#373644"/>
<path d="M333.114 177.58C333.077 177.58 333.041 177.572 333.007 177.556C326.903 174.778 322.606 174.602 322.562 174.602C322.419 174.596 322.307 174.477 322.31 174.334C322.315 174.191 322.442 174.08 322.577 174.082C322.756 174.088 327.012 174.259 333.22 177.084C333.35 177.144 333.407 177.297 333.35 177.427C333.306 177.523 333.212 177.58 333.114 177.58Z" fill="black"/>
<path d="M325.864 173.267C325.835 173.267 325.807 173.262 325.781 173.254C325.646 173.207 325.573 173.059 325.62 172.924C325.659 172.813 326.609 170.162 331.924 167.547C332.051 167.484 332.21 167.536 332.272 167.666C332.334 167.796 332.282 167.949 332.153 168.014C327.03 170.535 326.118 173.067 326.11 173.093C326.074 173.202 325.973 173.27 325.864 173.27V173.267Z" fill="black"/>
<path d="M330.761 173.431C330.699 173.431 330.634 173.407 330.585 173.361C330.481 173.262 330.473 173.098 330.572 172.994C330.67 172.888 332.999 170.408 335.604 169.866C335.744 169.837 335.882 169.925 335.91 170.066C335.939 170.206 335.85 170.343 335.71 170.372C333.269 170.881 330.977 173.319 330.953 173.345C330.901 173.399 330.834 173.428 330.764 173.428L330.761 173.431Z" fill="black"/>
<path d="M334.451 173.786C334.389 173.786 334.326 173.766 334.277 173.719C334.171 173.623 334.163 173.459 334.256 173.353C334.298 173.309 335.274 172.244 337.375 172.096C337.523 172.086 337.642 172.195 337.653 172.338C337.663 172.48 337.554 172.605 337.411 172.615C335.531 172.748 334.651 173.69 334.641 173.701C334.589 173.758 334.519 173.786 334.449 173.786H334.451Z" fill="black"/>
<path d="M310.721 189.498C310.667 189.498 310.609 189.48 310.563 189.444C310.448 189.355 310.43 189.192 310.519 189.08C316.55 181.355 320.546 179.249 320.713 179.164C320.84 179.099 320.996 179.148 321.063 179.275C321.128 179.403 321.079 179.558 320.951 179.626C320.912 179.647 316.877 181.784 310.929 189.399C310.877 189.464 310.802 189.498 310.724 189.498H310.721Z" fill="black"/>
<path d="M322.569 197.264C322.463 197.264 322.364 197.199 322.325 197.095C318.931 187.984 326.23 181.862 326.306 181.802C326.417 181.711 326.581 181.727 326.672 181.838C326.763 181.95 326.747 182.113 326.635 182.204C326.565 182.264 319.549 188.156 322.813 196.916C322.863 197.051 322.795 197.199 322.66 197.251C322.632 197.262 322.6 197.267 322.569 197.267V197.264Z" fill="black"/>
<path d="M343.892 235.703C343.892 235.703 341.184 229.318 335.438 225.382C335.438 225.382 336.437 221.082 335.3 219.67C331.753 215.271 319.233 213.072 315.19 213.178C311.147 213.285 309.337 216.476 309.337 216.476C309.337 216.476 300.506 214.347 292.099 217.115L290.076 244.565C290.076 244.565 335.643 257.203 343.383 255.845C351.126 254.487 356.683 253.503 356.683 253.503L343.887 235.701L343.892 235.703Z" fill="#FFF4EA"/>
<path d="M326.043 220.887C326.012 220.887 325.981 220.882 325.95 220.869C317.129 217.509 309.389 216.743 309.314 216.736C309.171 216.723 309.067 216.595 309.08 216.453C309.093 216.31 309.218 216.203 309.363 216.219C309.441 216.227 317.251 217 326.137 220.384C326.272 220.436 326.337 220.584 326.287 220.719C326.249 220.823 326.15 220.885 326.046 220.885L326.043 220.887Z" fill="black"/>
<path d="M391.404 245.97C391.404 245.97 378.52 238.118 372.883 234.493C367.246 230.869 365.194 228.251 361.689 228.251C358.184 228.251 340.267 229.259 339.26 230.869C338.253 232.478 344.053 248.206 352.528 255.845C361.003 263.484 391.404 245.967 391.404 245.967V245.97Z" fill="#00CCDD"/>
<path d="M304.552 209.715C304.479 209.715 304.406 209.683 304.354 209.626C301.766 206.64 300.636 203.6 300.994 200.585C301.561 195.818 305.611 192.876 305.782 192.751C305.899 192.668 306.06 192.694 306.143 192.811C306.226 192.928 306.201 193.089 306.084 193.172C306.042 193.201 302.043 196.111 301.509 200.647C301.171 203.509 302.259 206.414 304.746 209.281C304.84 209.39 304.83 209.554 304.72 209.647C304.671 209.689 304.611 209.709 304.549 209.709L304.552 209.715Z" fill="black"/>
<path d="M335.302 254.178C335.302 254.178 344.429 254.383 367.372 249.262C390.315 244.142 394.036 242.015 398.718 242.548C403.399 243.08 404.89 245.1 404.89 245.1C404.89 245.1 406.593 243.397 408.72 244.461C410.849 245.526 413.72 250.527 413.614 252.547C413.508 254.57 411.698 255.206 411.698 255.206C411.698 255.206 413.508 258.078 409.994 262.549C406.484 267.017 384.564 279.787 384.564 279.787C384.564 279.787 350.728 287.341 343.279 280.32C335.832 273.296 335.3 254.178 335.3 254.178H335.302Z" fill="#FF8A8A"/>
<path d="M409.146 251.589C409.044 251.589 408.948 251.529 408.907 251.431C407.149 247.248 404.752 245.324 404.729 245.303C404.617 245.214 404.596 245.051 404.685 244.939C404.773 244.828 404.937 244.807 405.048 244.895C405.15 244.976 407.57 246.913 409.382 251.228C409.436 251.36 409.374 251.514 409.244 251.568C409.211 251.581 409.177 251.589 409.143 251.589H409.146Z" fill="black"/>
<path d="M366.583 264.831C366.464 264.831 366.355 264.748 366.329 264.626C364.989 258.234 361.588 256.091 361.554 256.071C361.432 255.995 361.393 255.837 361.468 255.715C361.543 255.593 361.702 255.554 361.824 255.627C361.972 255.715 365.449 257.888 366.838 264.52C366.866 264.66 366.778 264.798 366.638 264.826C366.62 264.829 366.601 264.831 366.583 264.831Z" fill="black"/>
<path d="M339.255 275.708C339.255 275.708 345.414 278.954 354.265 279.585C363.117 280.216 392.564 273.898 396.22 275.708C399.876 277.521 408.344 285.123 406.612 290.462C404.88 295.8 366.389 321.781 356.574 322.36C346.759 322.939 304.35 302.154 304.35 302.154C304.35 302.154 311.539 272.901 325.589 270.014C339.639 267.127 339.252 275.708 339.252 275.708H339.255Z" fill="#F95454"/>
<path d="M365.087 311.159C364.373 310.928 363.607 311.32 363.376 312.034C363.145 312.748 363.537 313.514 364.251 313.745C367.045 314.648 368.25 315.858 368.185 316.604C368.136 317.172 367.229 317.899 365.645 318.128C363.498 318.434 361.808 316.907 360.016 315.287C359.559 314.874 359.089 314.449 358.614 314.059C357.266 312.958 356.088 312.348 355.233 312.01C355.168 311.081 354.753 310.211 354.566 309.822C352.411 305.34 345.39 298.147 343.289 296.049C340.96 293.72 338.634 291.57 336.741 289.994C333.635 287.406 332.721 287.188 332.109 287.188C331.413 287.188 330.696 287.187 325.513 293.061C322.714 296.234 319.009 300.69 315.08 305.605C307.971 314.5 299.776 325.354 297.497 329.542C296.931 330.583 296.468 331.588 297.024 332.448C297.323 332.91 297.816 333.159 298.494 333.193C298.543 333.193 298.592 333.196 298.647 333.196C302.944 333.196 325.067 325.663 327.606 324.796C334.308 322.5 340.604 320.213 345.338 318.354C350.915 316.162 353.073 315.067 353.995 314.451C354.587 314.661 355.631 315.134 356.89 316.162C357.313 316.508 357.739 316.894 358.191 317.302C359.975 318.917 362.153 320.888 365.074 320.888C365.386 320.888 365.705 320.865 366.032 320.818C368.813 320.415 370.722 318.852 370.893 316.832C370.987 315.721 370.61 312.943 365.085 311.156L365.087 311.159ZM326.038 322.461C312.982 326.912 303.837 329.568 300.192 330.285C302.002 327.231 307.156 320.029 315.044 310.024C324.155 298.472 330.481 291.332 332.215 290.01C333.679 290.791 338.291 294.697 343.533 300.191C350.116 307.09 352.478 311.047 352.525 312.161C351.011 313.301 341.438 317.206 326.035 322.459L326.038 322.461Z" fill="#FFF4EA"/>
<path d="M322.896 294.009C322.896 294.009 317.906 281.06 331.564 276.402C331.564 276.402 341.758 279.31 346.182 277.645C350.609 275.978 353.689 261.16 344.066 255.001C334.443 248.842 332.457 252.498 317.958 242.491C303.459 232.484 285.293 246.147 285.293 246.147L254.942 273.509L322.896 294.006V294.009Z" fill="#9ABF80"/>
<path d="M323.28 255.455C323.228 255.455 323.176 255.44 323.13 255.406C307.249 244.064 290.8 248.66 290.637 248.709C290.496 248.751 290.354 248.67 290.315 248.533C290.276 248.395 290.354 248.252 290.491 248.211C290.533 248.198 294.742 246.998 300.87 247.237C306.525 247.458 315.029 248.982 323.431 254.983C323.548 255.066 323.574 255.229 323.491 255.344C323.439 255.414 323.361 255.453 323.28 255.453V255.455Z" fill="black"/>
<path d="M368.601 293.23C363.654 293.23 359.676 292.323 356.828 291.35C351.835 289.641 349.202 287.419 349.093 287.325C348.984 287.232 348.971 287.068 349.064 286.959C349.158 286.85 349.321 286.837 349.431 286.93C349.534 287.021 360.144 295.849 378.647 291.508C378.787 291.477 378.927 291.563 378.958 291.703C378.992 291.843 378.904 291.983 378.764 292.014C375.035 292.889 371.634 293.23 368.598 293.23H368.601Z" fill="black"/>
<path d="M257.627 268.614C257.627 268.614 267.522 271.167 276.566 270.744C285.61 270.32 291.675 266.275 298.06 267.34C304.445 268.404 319.129 274.999 321.894 279.045C321.894 279.045 317.638 282.555 320.723 287.876C323.808 293.196 330.618 295.219 330.618 295.219C330.618 295.219 334.129 304.369 332.109 307.35C330.086 310.328 295.931 325.793 271.532 329.766C247.129 333.738 227.268 335.156 227.268 335.156L209.807 324.123L212.798 287.772L257.63 268.62L257.627 268.614Z" fill="#373644"/>
<path d="M330.62 295.473C330.605 295.473 330.587 295.473 330.569 295.468C313.834 292.137 309.565 288.551 308.932 286.128C308.654 285.066 309.03 284.056 310.022 283.204C313.019 280.636 321.483 278.858 321.842 278.785C321.982 278.757 322.119 278.845 322.148 278.988C322.177 279.128 322.086 279.265 321.945 279.294C321.86 279.312 313.252 281.119 310.357 283.599C309.778 284.095 309.147 284.913 309.43 285.996C309.918 287.863 313.328 291.506 330.667 294.956C330.807 294.985 330.898 295.12 330.872 295.263C330.849 295.387 330.74 295.47 330.618 295.47L330.62 295.473Z" fill="black"/>
<path d="M331.564 298.319C331.564 298.319 331.553 298.319 331.551 298.319C317.693 297.597 307.699 293.725 304.822 287.961C303.768 285.853 303.861 283.69 305.082 281.875C308.839 276.292 318.591 276.147 319.004 276.142C319.147 276.142 319.264 276.256 319.264 276.399C319.264 276.542 319.15 276.658 319.007 276.661C318.908 276.661 309.114 276.809 305.51 282.166C304.396 283.82 304.316 285.796 305.284 287.73C306.331 289.825 311.321 296.745 331.577 297.802C331.72 297.81 331.831 297.932 331.823 298.075C331.816 298.212 331.701 298.321 331.564 298.321V298.319Z" fill="black"/>
<path d="M256.731 311.953C255.311 311.953 254.532 311.925 254.488 311.922C254.345 311.917 254.233 311.795 254.238 311.652C254.244 311.509 254.379 311.4 254.508 311.403C254.758 311.413 279.807 312.353 310.895 303.047C311.033 303.006 311.178 303.083 311.219 303.221C311.261 303.359 311.183 303.504 311.045 303.546C285.236 311.273 263.568 311.956 256.731 311.956V311.953Z" fill="black"/>
<path d="M260.161 279.826C250.074 279.826 243.144 278.821 243.014 278.803C242.871 278.782 242.775 278.65 242.796 278.507C242.817 278.367 242.946 278.271 243.092 278.289C243.338 278.325 267.972 281.893 292.179 275.456C292.317 275.42 292.46 275.503 292.496 275.641C292.532 275.778 292.449 275.921 292.312 275.957C280.812 279.016 269.216 279.824 260.161 279.824V279.826Z" fill="black"/>
<path d="M285.293 301.414C285.293 301.414 285.288 301.414 285.282 301.414C262.628 300.622 248.103 290.773 247.96 290.675C247.84 290.594 247.812 290.431 247.892 290.314C247.973 290.197 248.136 290.166 248.253 290.246C248.396 290.345 262.804 300.108 285.301 300.895C285.443 300.9 285.555 301.019 285.55 301.162C285.545 301.302 285.43 301.411 285.29 301.411L285.293 301.414Z" fill="black"/>
<path d="M286.854 296.068C277.553 296.024 272.49 294.271 272.44 294.253C272.305 294.206 272.235 294.058 272.282 293.92C272.329 293.785 272.477 293.715 272.614 293.762C272.664 293.78 277.657 295.504 286.859 295.548C287.002 295.548 287.119 295.665 287.119 295.808C287.119 295.951 287.002 296.068 286.859 296.068H286.854Z" fill="black"/>
<path d="M237.083 335.41C237.031 335.41 236.977 335.395 236.933 335.361C228.418 329.262 233.31 321.122 233.362 321.039C233.438 320.917 233.596 320.878 233.721 320.955C233.843 321.031 233.882 321.192 233.806 321.314C233.612 321.631 229.125 329.127 237.239 334.94C237.356 335.023 237.382 335.187 237.299 335.301C237.247 335.371 237.169 335.41 237.088 335.41H237.083Z" fill="black"/>
<path d="M210.598 292.022C210.598 292.022 224.43 296.704 231.524 296.421C238.617 296.138 244.291 295.216 248.689 298.194C248.689 298.194 252.519 297.236 254.223 300.217C255.926 303.195 257.307 312.454 256.565 314.794C255.819 317.136 250.925 317.879 250.925 317.879C250.925 317.879 245.428 324.936 216.061 325.222C216.061 325.222 229.753 332.881 239.755 336.075C239.755 336.075 207.197 341.395 186.554 341.821C165.912 342.247 146.547 341.821 146.547 341.821C146.547 341.821 135.906 292.238 152.293 283.726C168.68 275.215 210.601 292.025 210.601 292.025L210.598 292.022Z" fill="#FF8A8A"/>
<path d="M216.059 325.479H216.056C193.287 325.198 183.781 321.454 183.688 321.415C183.555 321.36 183.49 321.21 183.545 321.077C183.599 320.945 183.75 320.88 183.882 320.935C183.976 320.971 193.412 324.679 216.064 324.959C216.207 324.959 216.321 325.079 216.321 325.222C216.321 325.364 216.204 325.479 216.061 325.479H216.059Z" fill="black"/>
<path d="M250.926 318.138C250.882 318.138 250.838 318.128 250.799 318.104C250.658 318.024 247.376 316.074 246.59 308.648C245.805 301.245 248.384 298.153 248.495 298.023C248.589 297.914 248.752 297.901 248.862 297.994C248.971 298.088 248.984 298.251 248.89 298.36C248.856 298.399 246.351 301.445 247.106 308.591C247.864 315.752 251.024 317.632 251.056 317.65C251.18 317.72 251.224 317.879 251.152 318.003C251.105 318.086 251.017 318.133 250.926 318.133V318.138Z" fill="black"/>
<path d="M254.942 316.796C254.88 316.796 254.818 316.772 254.768 316.728C249.734 312.122 250.43 301.72 251.795 299.15C252.164 298.457 252.541 298.381 252.792 298.444C252.933 298.477 253.018 298.618 252.985 298.758C252.951 298.898 252.811 298.984 252.67 298.95C252.595 298.934 252.432 299.062 252.255 299.394C250.936 301.871 250.266 311.904 255.119 316.344C255.225 316.44 255.233 316.604 255.135 316.71C255.083 316.767 255.012 316.796 254.942 316.796Z" fill="black"/>
<path d="M246.875 303.556C246.74 303.556 246.628 303.452 246.615 303.317C246.605 303.174 246.711 303.05 246.854 303.037L251.13 302.686C251.276 302.676 251.398 302.782 251.411 302.925C251.421 303.068 251.315 303.193 251.172 303.206L246.895 303.556C246.895 303.556 246.88 303.556 246.875 303.556Z" fill="black"/>
<path d="M246.846 308.882C246.719 308.882 246.607 308.788 246.589 308.656C246.571 308.513 246.67 308.383 246.812 308.362L251.117 307.778C251.26 307.76 251.39 307.859 251.411 308.001C251.429 308.144 251.33 308.274 251.188 308.295L246.882 308.879C246.882 308.879 246.859 308.879 246.846 308.879V308.882Z" fill="black"/>
<path d="M248.108 314.223C247.988 314.223 247.882 314.142 247.856 314.02C247.825 313.88 247.911 313.74 248.051 313.709L252.423 312.701C252.564 312.667 252.704 312.756 252.735 312.896C252.766 313.036 252.68 313.176 252.54 313.207L248.168 314.215C248.147 314.22 248.129 314.223 248.108 314.223Z" fill="black"/>
<path d="M254.109 315.916C254.109 315.916 254.083 315.916 254.07 315.913C253.927 315.892 253.831 315.76 253.852 315.617C255.467 305.049 251.476 300.528 251.435 300.484C251.339 300.378 251.346 300.214 251.45 300.118C251.557 300.022 251.72 300.03 251.816 300.134C251.988 300.321 256.02 304.857 254.364 315.695C254.343 315.822 254.234 315.916 254.106 315.916H254.109Z" fill="black"/>
<path d="M169.314 307.604C169.239 307.604 169.166 307.573 169.114 307.511C169.023 307.401 169.039 307.238 169.148 307.144C169.21 307.092 175.66 301.873 188.91 302.829C189.053 302.839 189.162 302.964 189.151 303.107C189.141 303.25 189.016 303.359 188.874 303.346C175.847 302.408 169.542 307.492 169.48 307.542C169.431 307.581 169.374 307.601 169.314 307.601V307.604Z" fill="black"/>
<path d="M148.458 336.498C148.458 336.498 166.971 338.202 203.149 336.498C239.326 334.795 261.031 324.157 264.012 325.219C266.761 326.2 284.187 332.437 295.892 334.231C297.208 334.434 297.65 336.104 296.608 336.934C293.737 339.219 287.045 342.759 271.674 345.648C246.776 350.33 220.813 350.543 220.813 350.543C220.813 350.543 219.748 358.203 230.176 363.097C230.176 363.097 218.897 368.63 204.995 364.801C191.09 360.971 177.329 360.407 160.449 359.693C145.28 359.052 141.837 359.065 139.617 356.715C135.195 352.033 137.464 344.636 137.464 344.636L148.458 336.498Z" fill="#85A98F"/>
<path d="M206.055 351.296C201.158 351.296 194.908 351.19 187.108 350.875C162.622 349.891 157.245 346.022 157.027 345.856C156.913 345.771 156.889 345.607 156.978 345.493C157.063 345.379 157.227 345.355 157.341 345.441C157.419 345.498 162.947 349.382 187.129 350.353C211.5 351.335 220.691 350.294 220.782 350.283C220.925 350.265 221.052 350.369 221.07 350.512C221.086 350.655 220.985 350.784 220.842 350.8C220.78 350.808 216.488 351.293 206.055 351.293V351.296Z" fill="black"/>
<path d="M78.375 314.791C78.375 314.791 84.4041 319.26 81.213 329.688C78.0218 340.115 67.8071 339.902 63.5513 341.606C59.2956 343.309 58.0181 350.117 65.0417 353.524C72.0654 356.928 88.0782 359.27 95.1798 356.076C102.281 352.885 110.795 348.416 120.584 349.478C130.373 350.543 145.908 347.775 153.994 340.115C162.08 332.455 157.185 313.514 145.482 307.344C133.777 301.172 119.307 299.259 106.007 301.705C92.7079 304.153 78.3776 314.791 78.3776 314.791H78.375Z" fill="#F9B723"/>
<path d="M121.319 344.885C113.156 344.885 107.215 342.091 107.134 342.052C107.004 341.99 106.95 341.834 107.012 341.707C107.074 341.577 107.23 341.523 107.357 341.585C107.467 341.637 118.343 346.744 130.861 342.99C130.999 342.951 131.144 343.026 131.186 343.164C131.227 343.301 131.15 343.447 131.012 343.488C127.6 344.511 124.31 344.888 121.319 344.888V344.885Z" fill="black"/>
<path d="M108.246 346.97C100.583 346.97 96.6338 344.285 96.4573 344.161C96.3404 344.078 96.3118 343.917 96.3923 343.8C96.4754 343.683 96.6364 343.654 96.7533 343.735C96.8 343.766 101.482 346.939 110.351 346.383C110.497 346.373 110.619 346.482 110.627 346.627C110.634 346.77 110.528 346.895 110.382 346.903C109.64 346.949 108.928 346.97 108.246 346.97Z" fill="black"/>
<path d="M94.6191 332.572C94.497 332.572 94.3906 332.487 94.3646 332.365C94.3361 332.225 94.4269 332.087 94.5671 332.058C94.6658 332.038 104.452 329.994 108.804 323.376C108.882 323.256 109.043 323.222 109.162 323.3C109.282 323.378 109.315 323.539 109.238 323.661C104.764 330.464 94.7697 332.549 94.6684 332.57C94.6502 332.572 94.6347 332.575 94.6165 332.575L94.6191 332.572Z" fill="black"/>
<path d="M30.2119 287.554C30.2119 287.554 42.413 328.361 48.3721 329.132C54.3312 329.903 90.7917 317.276 90.7917 317.276C90.7917 317.276 71.6397 302.471 54.757 293.7C37.8743 284.929 30.2145 287.554 30.2145 287.554H30.2119Z" fill="#F95454"/>
<path d="M41.5538 319.486C41.4474 319.486 41.3487 319.421 41.3097 319.314C41.2604 319.179 41.3305 319.031 41.4655 318.982C41.5928 318.935 54.321 314.358 70.1988 311.912C70.3416 311.888 70.4741 311.987 70.4948 312.13C70.5156 312.273 70.4195 312.405 70.2767 312.426C54.4508 314.864 41.7667 319.426 41.6395 319.47C41.6109 319.481 41.5798 319.486 41.5512 319.486H41.5538Z" fill="black"/>
<path d="M36.028 305.475C35.9164 305.475 35.8125 305.402 35.7788 305.291C35.7372 305.153 35.8151 305.008 35.9527 304.966C36.028 304.943 43.6073 302.66 54.2765 300.417C54.4167 300.388 54.5543 300.477 54.5829 300.617C54.6114 300.757 54.5232 300.895 54.3829 300.923C43.7345 303.161 36.1786 305.439 36.1033 305.462C36.0774 305.47 36.054 305.472 36.028 305.472V305.475Z" fill="black"/>
<path d="M60.0668 327.195C59.9759 327.195 59.8851 327.146 59.8383 327.06C52.5369 313.6 45.0173 296.553 44.942 296.384C44.8849 296.252 44.942 296.099 45.0744 296.042C45.2042 295.985 45.36 296.042 45.4172 296.174C45.4925 296.346 53.0042 313.371 60.2953 326.813C60.3628 326.941 60.3161 327.096 60.1915 327.166C60.1525 327.187 60.111 327.198 60.0668 327.198V327.195Z" fill="black"/>
<path d="M72.3325 323.591C72.2312 323.591 72.1326 323.531 72.091 323.43C69.5568 317.227 65.9087 310.089 65.8723 310.019C65.8074 309.892 65.8567 309.736 65.984 309.668C66.1112 309.603 66.267 309.653 66.3345 309.78C66.3708 309.853 70.0294 317.006 72.5714 323.233C72.6259 323.365 72.561 323.516 72.4286 323.57C72.3974 323.583 72.3637 323.588 72.3299 323.588L72.3325 323.591Z" fill="black"/>
<path d="M163.993 289.044C163.993 289.044 156.616 295.855 159.311 301.811C162.007 307.77 175.272 319.26 176.443 321.815C177.614 324.37 173.252 326.284 170.91 325.538C168.568 324.793 158.992 313.833 152.929 310.429C146.864 307.025 125.478 312.878 123.243 315.856C121.007 318.834 122.711 335.185 122.285 337.207C121.859 339.23 117.177 340.009 115.793 338.199C114.409 336.389 115.474 324.048 113.345 316.173C111.216 308.3 106.002 301.702 106.002 301.702C106.002 301.702 99.8299 289.042 104.086 284.147C108.341 279.253 129.942 273.826 138.879 275.529C147.816 277.232 163.99 289.042 163.99 289.042L163.993 289.044Z" fill="#FFF4EA"/>
<path d="M24.3956 255.136C24.3956 255.136 12.4074 260.1 5.52658 269.323C-1.35424 278.544 0.13617 286.985 0.13617 286.985C0.13617 286.985 2.19263 292.162 8.72032 292.162C8.72032 292.162 20.5008 289.361 33.9742 293.297C48.2448 297.467 57.1691 309.045 60.0071 310.323C62.8451 311.6 80.473 318.515 85.5259 319.153C90.5788 319.792 97.3895 316.014 104.839 310.481C112.286 304.948 115.692 297.766 115.692 296.595C115.692 295.424 113.034 291.062 105.904 290.103C105.904 290.103 107.534 286.131 116.331 285.367C124.913 284.622 132.788 285.279 140.484 277.76L95.6887 246.476L55.1854 242.221L24.4008 255.131L24.3956 255.136Z" fill="#00CCDD"/>
<path d="M87.9512 317.536C87.9175 317.536 87.8863 317.531 87.8526 317.515C87.7202 317.461 87.6552 317.31 87.7098 317.177C91.9188 306.913 98.8879 301.863 103.993 299.433C109.528 296.797 114.14 296.59 114.184 296.587C114.324 296.582 114.449 296.693 114.454 296.836C114.459 296.979 114.348 297.101 114.205 297.106C114.161 297.106 109.638 297.317 104.195 299.911C99.1787 302.302 92.3316 307.274 88.1901 317.375C88.1486 317.476 88.0525 317.536 87.9486 317.536H87.9512Z" fill="black"/>
<path d="M68.7994 305.475C68.7578 305.475 68.7163 305.465 68.6774 305.444C68.5501 305.376 68.5034 305.218 68.5709 305.093C68.6228 304.995 74.0366 295.164 87.8969 292.194C88.0371 292.162 88.1747 292.253 88.2059 292.394C88.2371 292.534 88.1462 292.671 88.006 292.703C74.3923 295.621 69.0798 305.244 69.0279 305.34C68.9811 305.428 68.8903 305.478 68.7994 305.478V305.475Z" fill="black"/>
<path d="M60.0043 262.349C59.8979 262.349 59.7992 262.284 59.7603 262.18C59.7109 262.045 59.7784 261.897 59.9135 261.845C60.1186 261.77 80.5923 254.37 108.292 260.274C108.432 260.303 108.521 260.443 108.492 260.583C108.464 260.724 108.326 260.814 108.183 260.783C80.626 254.91 60.2951 262.258 60.0926 262.333C60.0641 262.344 60.0329 262.349 60.0017 262.349H60.0043Z" fill="black"/>
<path d="M58.2965 309.354C58.2446 309.354 58.1926 309.339 58.1459 309.305C58.029 309.222 58.0031 309.058 58.0862 308.944C58.1355 308.874 63.043 301.832 61.2747 291.643C60.5269 287.328 57.6006 283.441 53.2462 280.984C48.4426 278.274 42.886 277.809 38.0046 279.71C28.1325 283.555 25.8709 291.586 25.8502 291.667C25.8138 291.804 25.671 291.887 25.5308 291.851C25.3932 291.815 25.3101 291.672 25.3464 291.532C25.3698 291.448 27.6989 283.166 37.815 279.227C42.8419 277.269 48.5595 277.744 53.5007 280.533C57.9901 283.067 61.0099 287.084 61.7862 291.555C63.5934 301.967 58.5613 309.175 58.5094 309.248C58.4575 309.318 58.3796 309.357 58.2991 309.357L58.2965 309.354Z" fill="black"/>
<path d="M54.7334 306.14C54.6867 306.14 54.6426 306.127 54.5984 306.103C54.4764 306.028 54.4374 305.87 54.5101 305.748C54.5465 305.69 58.0103 299.828 56.6263 292.5C56.0421 289.4 54.157 286.666 51.319 284.801C47.9721 282.602 43.628 281.818 39.7021 282.703C32.6862 284.285 29.4509 292.173 29.4198 292.251C29.3653 292.383 29.2147 292.448 29.0822 292.396C28.9498 292.342 28.8849 292.191 28.9368 292.059C28.9706 291.976 32.3045 283.841 39.5878 282.197C43.6488 281.28 48.1408 282.093 51.6046 284.368C54.5595 286.31 56.525 289.164 57.1378 292.404C58.5581 299.934 54.9905 305.958 54.9541 306.018C54.9048 306.098 54.8191 306.142 54.7308 306.142L54.7334 306.14Z" fill="black"/>
<path d="M2.95595 290.656C2.81314 290.656 2.6963 290.54 2.6963 290.397C2.68851 276.555 10.1535 267.713 16.4164 262.733C23.1934 257.345 30.0664 255.193 30.1365 255.172C30.2741 255.131 30.4195 255.206 30.4611 255.344C30.5026 255.481 30.4273 255.627 30.2897 255.668C30.2222 255.689 23.4271 257.818 16.728 263.149C10.5612 268.056 3.21041 276.768 3.2182 290.397C3.2182 290.54 3.10135 290.656 2.95854 290.656H2.95595Z" fill="black"/>
<path d="M95.1797 191.295V226.901C84.4586 227.683 63.907 224.774 58.7996 221.3C53.6897 217.824 52.8276 216.19 52.838 212.856C52.838 212.553 52.8536 212.244 52.8821 211.935C53.2379 207.939 55.7877 203.818 60.0044 203.423C62.2504 203.21 63.9927 203.711 65.7999 204.236C67.6434 204.773 69.5545 205.339 72.1355 205.197C76.3886 204.96 78.9695 202.018 79.4629 199.731C79.5667 199.271 79.5823 198.84 79.5122 198.459C79.089 196.189 79.089 192.925 84.0536 191.009C89.0181 189.095 95.1797 191.295 95.1797 191.295Z" fill="#F95454"/>
<path d="M95.1797 222.5V226.901C84.4586 227.683 63.907 224.775 58.7996 221.301C53.6897 217.824 52.8276 216.191 52.838 212.857C52.838 212.553 52.8536 212.244 52.8821 211.935C57.5767 216.056 69.5805 223.355 95.1797 222.498V222.5Z" fill="#373644"/>
<path d="M94.0349 193.016C94.0349 193.016 89.6727 190.674 85.2041 192.378C80.32 194.239 79.619 200.57 94.0349 199.773V193.016Z" fill="#373644"/>
<path d="M83.5006 203.39C83.5006 203.39 81.535 209.188 75.6799 210.837C69.8273 212.485 65.0392 210.837 65.0392 210.837C65.0392 210.837 64.442 207.407 65.7974 204.236C67.641 204.774 69.552 205.34 72.133 205.197C76.3861 204.961 78.9671 202.019 79.4604 199.731C80.1381 200.824 81.3455 202.149 83.498 203.39H83.5006Z" fill="#FFF4EA"/>
<path d="M67.8405 213.173C67.7367 213.173 67.638 213.111 67.599 213.007C65.8594 208.487 67.5341 204.838 67.6068 204.685C67.6691 204.555 67.8223 204.501 67.9522 204.561C68.082 204.62 68.1365 204.776 68.0768 204.906C68.0612 204.942 66.428 208.513 68.0846 212.82C68.1365 212.955 68.069 213.103 67.9366 213.155C67.9054 213.166 67.8743 213.173 67.8431 213.173H67.8405Z" fill="black"/>
<path d="M77.3282 212.197C77.2659 212.197 77.2036 212.176 77.1543 212.13C73.4179 208.754 74.08 204.911 74.1111 204.748C74.1371 204.607 74.2721 204.511 74.4123 204.54C74.5525 204.566 74.646 204.701 74.6201 204.841C74.6123 204.878 73.9891 208.57 77.5022 211.743C77.6087 211.839 77.6165 212.002 77.5204 212.109C77.4685 212.166 77.3983 212.195 77.3282 212.195V212.197Z" fill="black"/>
<path d="M84.0328 206.627C84.012 206.627 83.9886 206.627 83.9679 206.62C79.9666 205.591 78.1828 202.307 78.1075 202.167C78.04 202.039 78.0893 201.884 78.2139 201.816C78.3412 201.749 78.497 201.798 78.5645 201.923C78.5827 201.954 80.3223 205.147 84.0951 206.116C84.2353 206.152 84.3184 206.293 84.2821 206.433C84.2509 206.55 84.147 206.627 84.0302 206.627H84.0328Z" fill="black"/>
<path d="M94.7257 252.121C94.7257 252.121 84.5109 246.482 57.8029 246.482C57.8029 246.482 50.2132 252.085 42.2678 254.141C34.3224 256.198 24.5672 257.312 22.973 256.271C19.2833 253.858 18.5043 243.431 18.86 240.523C19.2158 237.615 22.1239 236.054 25.032 234.847C27.9401 233.642 36.8073 231.443 36.8073 231.443C36.8073 231.443 36.5243 227.966 38.1549 227.044C39.7855 226.122 42.0575 226.192 42.6236 224.702C43.1896 223.212 44.8929 220.446 46.6664 219.737C48.4398 219.029 56.7773 218.922 56.7773 218.922C56.7773 218.922 59.0804 216.263 68.7629 216.899C78.4454 217.538 95.1775 221.155 95.1775 221.155L94.7257 252.119V252.121Z" fill="#FFF4EA"/>
<path d="M28.2308 256.818C28.1452 256.818 28.0595 256.774 28.0101 256.696C20.584 244.739 24.4269 234.987 24.4659 234.888C24.5204 234.756 24.671 234.691 24.8034 234.745C24.9358 234.8 25.0007 234.95 24.9462 235.083C24.9073 235.179 21.1709 244.698 28.4515 256.421C28.5268 256.543 28.4905 256.704 28.3685 256.78C28.3269 256.805 28.2776 256.818 28.2308 256.818Z" fill="black"/>
<path d="M18.8055 241.491C18.7042 241.491 18.6055 241.431 18.5666 241.33C18.5121 241.198 18.5744 241.047 18.7068 240.99L23.7025 238.926C23.835 238.871 23.9882 238.934 24.0427 239.066C24.0972 239.198 24.0349 239.349 23.9025 239.406L18.9067 241.47C18.8756 241.483 18.8418 241.491 18.8081 241.491H18.8055Z" fill="black"/>
<path d="M19.0524 246.549C18.9382 246.549 18.8317 246.471 18.8005 246.357C18.7642 246.219 18.8473 246.077 18.9849 246.04L23.8456 244.752C23.9832 244.716 24.126 244.799 24.1624 244.937C24.1987 245.074 24.1156 245.217 23.978 245.253L19.1173 246.541C19.0939 246.547 19.0732 246.549 19.0498 246.549H19.0524Z" fill="black"/>
<path d="M20.4986 252.892C20.3818 252.892 20.2779 252.815 20.2468 252.695C20.213 252.555 20.2961 252.415 20.4363 252.381L25.5359 251.098C25.6735 251.064 25.8163 251.148 25.8501 251.288C25.8838 251.428 25.8008 251.568 25.6605 251.602L20.5609 252.885C20.5402 252.89 20.5194 252.892 20.496 252.892H20.4986Z" fill="black"/>
<path d="M36.8072 231.705C36.6981 231.705 36.5968 231.635 36.5605 231.526C36.5164 231.388 36.5917 231.243 36.7267 231.198C36.8357 231.162 47.7256 227.716 61.1835 230.113C61.3237 230.139 61.4197 230.274 61.3938 230.414C61.3678 230.554 61.2354 230.651 61.0926 230.625C47.762 228.251 36.9941 231.658 36.8877 231.694C36.8617 231.702 36.8331 231.707 36.8072 231.707V231.705Z" fill="black"/>
<path d="M57.8055 246.741C57.7354 246.741 57.6653 246.713 57.6133 246.656C57.5173 246.549 57.5251 246.386 57.6289 246.29C57.7224 246.204 59.9918 244.16 64.5409 242.67C68.7239 241.299 75.7008 240.177 85.1782 242.613C85.3184 242.649 85.4015 242.789 85.3651 242.93C85.3288 243.067 85.1886 243.153 85.0484 243.117C67.1816 238.528 58.0677 246.593 57.9769 246.674C57.9275 246.718 57.8652 246.741 57.8029 246.741H57.8055Z" fill="black"/>
<path d="M65.0397 219.929C65.0111 219.929 64.9852 219.924 64.9566 219.916C60.8852 218.535 56.8606 219.176 56.8216 219.182C56.6814 219.205 56.5464 219.109 56.523 218.969C56.4997 218.828 56.5957 218.693 56.736 218.67C56.9047 218.642 60.9242 218.003 65.1228 219.426C65.2578 219.472 65.3305 219.62 65.2863 219.755C65.25 219.865 65.1487 219.932 65.0397 219.932V219.929Z" fill="black"/>
<path d="M95.1767 139.245L64.2598 105.038L167.932 48.3632L193.64 81.6949L213.805 60.5124L312.813 112.983L292.101 139.245H95.1767Z" fill="#E26A38"/>
<path d="M95.1768 139.245L193.64 81.6949L292.101 139.245L192.404 200.731L95.1768 139.245Z" fill="#AF502E"/>
<path d="M184.565 98.0167C184.565 98.0167 155.269 114.544 154.703 116.034C154.186 117.392 157.042 152.819 158.265 159.295L146.547 174.243L171.557 187.748L173.694 177.331C175.405 179.335 176.552 180.685 176.552 180.685L184.568 98.0141L184.565 98.0167Z" fill="#00CCDD"/>
<path d="M164.419 151.762C164.284 151.762 164.169 151.656 164.159 151.518C163.951 148.265 162.144 119.695 162.464 118.418C162.793 117.104 177.095 108.392 179.959 106.661C180.081 106.585 180.242 106.627 180.315 106.749C180.39 106.871 180.348 107.032 180.226 107.105C173.735 111.033 163.307 117.613 162.965 118.548C162.739 119.451 163.863 138.741 164.676 151.487C164.686 151.63 164.577 151.755 164.434 151.762C164.429 151.762 164.424 151.762 164.419 151.762Z" fill="black"/>
<path d="M162.718 118.74C162.692 118.74 162.666 118.737 162.643 118.729L154.627 116.281C154.489 116.239 154.412 116.094 154.456 115.956C154.497 115.819 154.643 115.741 154.78 115.785L162.796 118.233C162.933 118.275 163.011 118.42 162.967 118.558C162.933 118.67 162.83 118.742 162.718 118.742V118.74Z" fill="black"/>
<path d="M167.47 142.893C167.332 142.893 167.215 142.784 167.21 142.643C167.176 141.75 166.361 120.747 166.647 119.384C166.94 117.995 177.791 111.553 179.964 110.275C180.089 110.202 180.247 110.244 180.32 110.366C180.393 110.491 180.351 110.649 180.229 110.722C173.935 114.422 167.324 118.714 167.158 119.49C166.94 120.531 167.436 135.077 167.732 142.623C167.737 142.765 167.625 142.888 167.483 142.893C167.48 142.893 167.475 142.893 167.472 142.893H167.47Z" fill="black"/>
<path d="M284.867 144.443C284.867 144.443 271.78 138.113 269.438 137.206C267.096 136.303 265.777 136.36 263.905 136.674C260.823 137.193 253.441 138.448 250.606 140.504C248.199 142.249 246.173 145.611 240.552 169.728L284.869 144.44L284.867 144.443Z" fill="#9ABF80"/>
<path d="M279.76 149.704C279.721 149.704 279.684 149.696 279.645 149.678C279.432 149.574 258.281 139.362 251.587 140.185C251.442 140.203 251.315 140.102 251.299 139.959C251.281 139.816 251.382 139.686 251.525 139.67C258.38 138.832 278.999 148.787 279.871 149.21C280.001 149.272 280.053 149.428 279.991 149.558C279.947 149.652 279.853 149.704 279.757 149.704H279.76Z" fill="black"/>
<path d="M246.207 166.16C246.183 166.16 246.163 166.158 246.139 166.152C246.002 166.116 245.918 165.973 245.955 165.836C246.165 165.052 251.125 146.627 253.892 145.243C256.632 143.874 269.879 151.152 271.38 151.986C271.505 152.056 271.551 152.214 271.481 152.339C271.411 152.464 271.253 152.51 271.128 152.44C267.114 150.21 256.235 144.653 254.124 145.707C251.997 146.769 247.868 160.695 246.456 165.971C246.425 166.088 246.321 166.163 246.207 166.163V166.16Z" fill="black"/>
<path d="M170.734 143.591C170.734 143.591 164.848 132.631 158.463 125.717C154.991 121.957 153.888 121.248 147.077 123.8C140.266 126.353 123.776 137.313 117.071 153.061L148.461 171.504L170.734 143.591Z" fill="#F9B723"/>
<path d="M147.077 156.621C147.02 156.621 146.963 156.602 146.916 156.563C146.804 156.475 146.786 156.312 146.874 156.197C158.294 141.815 165.663 140.307 165.969 140.249C166.109 140.223 166.244 140.317 166.27 140.457C166.296 140.597 166.203 140.732 166.063 140.761C165.99 140.774 158.553 142.324 147.279 156.522C147.227 156.587 147.152 156.621 147.077 156.621Z" fill="black"/>
<path d="M170.734 143.591C165.271 140.081 137.584 170.206 143.566 176.666C148.993 182.526 174.899 146.268 170.734 143.591Z" fill="#373644"/>
<path d="M180.097 188.883C180.097 188.883 172.06 172.589 169.243 173.763C166.971 174.708 162.149 180.301 162.149 180.301L180.097 188.885V188.883Z" fill="#373644"/>
<path d="M173.569 171.504C173.569 171.504 172.222 174.482 170.731 177.39C170.731 177.39 170.802 181.007 174.917 187.322L187.212 192.588L173.569 171.504Z" fill="#FFAD95"/>
<path d="M189.119 193.878C189.119 193.878 177.045 187.039 171.655 169.873C171.655 169.873 170.663 151.573 174.919 124.05C174.919 124.05 177.295 119.651 192.936 120.503C208.578 121.354 212.621 129.227 212.621 129.227C212.621 129.227 212.514 132.525 211.662 137.845C211.662 137.845 213.436 134.335 215.209 131.639C215.209 131.639 221.558 128.908 234.115 132.631C246.669 136.355 249.011 144.124 249.011 144.124C249.011 144.124 245.5 157.849 241.987 169.767L192.936 196.971L189.119 193.878Z" fill="#FFF4EA"/>
<path d="M192.405 192.157C192.405 192.157 192.387 192.157 192.376 192.157C192.233 192.141 192.13 192.014 192.145 191.871C193.625 178.239 198.065 171.359 198.109 171.291C208.176 153.676 211.375 137.952 211.406 137.796C211.435 137.656 211.57 137.565 211.713 137.591C211.853 137.619 211.944 137.754 211.918 137.897C211.887 138.055 208.672 153.855 198.553 171.564C198.501 171.644 194.126 178.434 192.662 191.928C192.646 192.061 192.535 192.159 192.405 192.159V192.157Z" fill="black"/>
<path d="M189.211 188.646C189.195 188.646 189.182 188.646 189.167 188.644C189.026 188.62 188.93 188.485 188.954 188.345C189 188.062 190.138 181.376 190.992 179.351C191.885 177.227 195.655 176.445 195.816 176.414C195.957 176.385 196.094 176.476 196.123 176.616C196.151 176.757 196.06 176.894 195.92 176.923C195.884 176.931 192.262 177.681 191.472 179.553C190.641 181.524 189.478 188.366 189.468 188.433C189.447 188.561 189.335 188.649 189.213 188.649L189.211 188.646Z" fill="black"/>
<path d="M238.049 165.132C238.026 165.132 238 165.129 237.977 165.122C237.839 165.083 237.761 164.937 237.8 164.8C240.534 155.439 242.778 147.328 242.801 147.247C242.84 147.11 242.983 147.029 243.12 147.065C243.258 147.104 243.338 147.247 243.302 147.385C243.279 147.465 241.035 155.582 238.301 164.945C238.267 165.059 238.164 165.132 238.052 165.132H238.049Z" fill="black"/>
<path d="M263.905 55.2778C263.905 55.2778 255.5 62.9376 242.73 67.832C229.963 72.7265 218.79 73.6846 218.79 73.6846C218.79 73.6846 217.819 86.1662 215.599 99.4345C212.748 116.47 210.668 127.667 210.668 127.667C210.668 127.667 204.426 132.704 192.082 131.922C179.741 131.141 176.547 125.823 176.547 125.823C177.611 117.239 181.441 89.6455 184.207 80.0695C186.972 70.4935 189.101 61.982 192.648 58.4352C196.195 54.8883 200.593 54.1093 208.04 51.6972C215.487 49.285 216.269 48.3632 228.257 44.0374C240.245 39.7115 252.623 37.1384 252.623 37.1384H257.411C257.411 37.1384 261.667 40.597 263.476 44.5333C265.286 48.4697 264.754 52.1931 264.754 52.1931L263.902 55.2778H263.905Z" fill="#FFAD95"/>
<path d="M296.074 84.4679C277.135 96.7392 262.378 97.9466 262.378 97.9466C258.974 109.935 247.552 142.991 247.552 142.991C247.552 142.991 240.175 148.382 228.187 146.042C217.232 143.903 215.703 135.97 215.703 135.97C215.703 135.97 217.3 128.7 222.514 114.655C227.728 100.611 232.16 88.0901 236.275 82.627C240.388 77.1639 244.86 76.6679 259.826 72.555C274.793 68.4421 287.243 65.3185 287.243 65.3185L293.485 65.9209C293.485 65.9209 297.634 69.2185 298.699 73.4742C299.763 77.7299 298.699 81.6663 298.699 81.6663L296.074 84.4679Z" fill="#FFAD95"/>
<path d="M341.1 41.6122C340.874 42.2016 340.62 42.7988 340.339 43.3986C339.576 45.0292 338.997 46.6806 338.54 48.319C337.605 51.6893 337.205 54.9999 336.852 57.9444V57.9496C336.675 59.4218 336.512 60.8032 336.296 62.0495C336.06 63.4309 335.624 64.7577 335.021 65.9807C333.456 69.1563 330.773 71.6385 327.572 72.5473C326.533 72.8407 325.406 72.9005 324.233 72.8511C322.646 72.7914 320.982 72.5421 319.341 72.4357C318.108 72.3604 316.89 72.3604 315.74 72.5889C315.495 72.6356 315.254 72.6927 315.015 72.7628C313.584 73.1783 310.627 74.8868 307.462 76.8732C304.912 78.4752 302.23 80.259 300.108 81.6923C297.797 83.258 296.154 84.4109 296.079 84.4628C296.136 84.2941 298.135 78.3999 296.076 73.3289C293.453 66.8817 287.245 65.3134 287.245 65.3134C287.245 65.3134 289.252 64.8901 292.264 64.1034H292.267C294.611 63.4906 297.564 62.6623 300.656 61.6445C303.17 60.8214 305.771 59.8736 308.215 58.8194C310.848 57.6848 313.294 56.4254 315.246 55.0648C315.656 54.7766 316.059 54.4702 316.448 54.1431C318.084 52.7773 319.541 51.0895 320.844 49.2382C322.202 47.3168 323.391 45.2162 324.456 43.126C325.682 40.719 326.738 38.3224 327.676 36.201C328.063 35.3312 328.426 34.5081 328.777 33.7499C329.499 32.1894 330.327 30.8885 331.21 29.8473C334.323 26.168 338.127 25.6487 340.339 27.8583C341.63 29.1488 342.396 31.1066 342.544 33.485C342.697 35.8557 342.242 38.6443 341.1 41.6096V41.6122Z" fill="#F95454"/>
<path d="M306.021 8.84905C305.826 10.6303 305.315 12.6426 304.549 14.899C304.489 15.0755 304.43 15.2495 304.367 15.4209C303.248 18.5939 301.96 21.0086 300.805 23.8752C300.265 25.2124 299.751 26.6483 299.299 28.3075C298.855 29.9225 298.47 31.7479 298.164 33.8927C298.148 34.0147 298.128 34.1367 298.112 34.2588C297.52 38.2133 296.362 42.3911 293.109 43.6816C292.145 44.0633 290.73 44.1594 289.071 44.1542C287.331 44.149 285.324 44.0347 283.307 44.0269C282.268 44.0191 281.224 44.0425 280.212 44.1256H280.209C278.846 44.2321 277.542 44.445 276.374 44.8293C276.109 44.9175 275.852 45.011 275.605 45.1175C274.26 45.6939 272.627 46.8831 271.017 48.2463C269.335 49.6796 267.67 51.305 266.377 52.6319C264.897 54.1482 263.9 55.2777 263.9 55.2777C263.9 55.2777 264.007 49.3213 260.761 44.0529C257.614 38.9507 252.925 37.2422 252.634 37.1409C252.8 37.1513 254.521 36.7826 257.043 36.1412C258.845 35.6817 261.062 35.0845 263.412 34.3912C264.926 33.942 266.499 33.4538 268.052 32.9371C268.631 32.745 269.187 32.545 269.722 32.3425C271.869 31.5272 273.671 30.6314 275.182 29.72C277.207 28.497 278.713 27.2403 279.843 26.0978C280.37 25.5656 280.817 25.054 281.193 24.5841C281.808 23.8181 282.39 23.0651 282.943 22.3225C284.208 20.6295 285.322 18.9937 286.324 17.402H286.326C287.768 15.1093 288.978 12.9074 290.058 10.7497C290.805 9.2593 291.491 7.79485 292.151 6.3356C292.343 5.90977 292.55 5.50211 292.768 5.11782C294.456 2.11103 296.765 0.454441 299.008 0.0831364C300.641 -0.192097 302.241 0.218157 303.536 1.28274C304.087 1.73453 304.539 2.23567 304.907 2.78354C305.969 4.38041 306.291 6.39532 306.019 8.85164L306.021 8.84905Z" fill="#F95454"/>
<path d="M304.419 65.4795C301.587 66.77 298.954 67.6918 296.718 68.3435C295.298 66.4403 293.67 65.0615 292.268 64.1034C294.612 63.4906 297.564 62.6623 300.657 61.6444C302.249 62.6597 303.474 63.9891 304.419 65.4795ZM316.449 54.1431C316.06 54.4702 315.657 54.7766 315.247 55.0648C313.294 56.428 310.848 57.6873 308.216 58.8194C309.249 59.3205 310.635 60.1281 311.944 61.3303C314.297 59.7801 316.67 57.9574 318.97 55.8074C318.217 55.2388 317.379 54.6805 316.449 54.1431ZM324.457 43.1259C323.395 45.2161 322.203 47.3168 320.845 49.2382C321.614 49.4303 322.717 49.7679 323.966 50.3261C325.656 48.0879 327.098 45.7069 328.318 43.3285C327.149 43.1831 325.864 43.1104 324.457 43.1233V43.1259ZM331.21 29.8472C330.328 30.8885 329.497 32.1893 328.777 33.7498C328.427 34.5054 328.063 35.3285 327.677 36.201C328.505 36.1283 329.855 36.0686 331.416 36.2166C332.272 33.8719 332.919 31.7116 333.397 29.9018C332.711 29.855 331.982 29.8343 331.21 29.8472ZM328.318 43.3285C331.039 43.6634 333.137 44.3697 334.75 45.2213C335.895 42.7417 336.816 40.3399 337.559 38.0938C335.57 36.8994 333.334 36.4009 331.416 36.214C330.59 38.4729 329.569 40.8981 328.318 43.3285ZM323.784 61.3744C324.935 60.2994 325.978 59.1855 326.895 58.0327C327.897 56.7707 328.829 55.4958 329.689 54.2209C327.804 52.3307 325.734 51.1077 323.969 50.3235C323.148 51.4115 322.265 52.4631 321.323 53.468C320.552 54.2885 319.765 55.0674 318.97 55.8074C321.328 57.5912 322.847 59.4945 323.787 61.377L323.784 61.3744ZM323.784 61.3744C321.422 63.5841 318.62 65.6327 315.592 67.5048C314.974 64.7759 313.512 62.7661 311.944 61.3277C309.371 63.018 306.824 64.3812 304.419 65.4769C305.733 67.5412 306.502 69.9118 306.943 72.1916C309.903 70.7739 312.84 69.2133 315.592 67.51C315.925 68.9849 316.01 70.67 315.74 72.5888C316.891 72.3604 318.106 72.3604 319.342 72.4357C319.342 72.4357 321.634 71.8618 324.8 70.0287C325.301 67.6606 325.373 64.55 323.787 61.3744H323.784ZM300.109 81.6923C302.23 80.259 304.91 78.4752 307.463 76.8731C307.411 75.471 307.265 73.8586 306.943 72.1916C304.557 73.3315 302.153 74.3779 299.816 75.323C300.197 77.1977 300.33 79.3087 300.109 81.6923ZM334.191 61.821C335.11 60.6552 336.001 59.3673 336.85 57.9496V57.9444C337.203 54.9999 337.603 51.6867 338.538 48.319C337.756 47.3193 336.559 46.1769 334.747 45.2213C333.397 48.1528 331.732 51.196 329.686 54.2209C331.517 56.0593 333.166 58.5234 334.189 61.821H334.191ZM342.544 33.485C341.843 32.7839 340.831 32.0024 339.415 31.3454C338.974 33.3448 338.377 35.6271 337.559 38.0938C338.917 38.9066 340.158 40.0387 341.103 41.6096C342.246 38.6417 342.7 35.8556 342.547 33.485H342.544ZM324.797 70.0313C324.797 70.0313 324.605 71.3581 324.231 72.8537C325.405 72.903 326.531 72.8433 327.57 72.5499C330.774 71.6411 333.454 69.1588 335.02 65.9833C334.929 64.9057 334.692 63.5295 334.191 61.8236C334.191 61.8236 333.584 64.9628 324.797 70.0339V70.0313Z" fill="#373644"/>
<path d="M267.862 38.0678C265.702 38.9533 263.627 39.6881 261.761 40.2905C260.161 38.2652 258.442 36.9565 257.048 36.1412C258.85 35.6816 261.067 35.0844 263.417 34.3912C265.333 35.422 266.777 36.6943 267.862 38.0704V38.0678ZM275.185 29.7174C273.673 30.6288 271.872 31.522 269.724 32.3399C270.835 33.0877 272.123 34.1445 273.263 35.5778C275.211 34.5729 277.148 33.4408 279.002 32.1685C277.976 31.2467 276.719 30.4081 275.185 29.7174ZM288.009 23.5532C286.537 23.0261 284.859 22.6055 282.948 22.3198C282.393 23.0625 281.811 23.8155 281.198 24.5814C280.819 25.0514 280.375 25.5629 279.848 26.0952C281.149 26.3912 282.722 26.9391 284.231 27.931C284.496 27.6791 284.753 27.4169 285.01 27.152C286.064 26.0563 287.066 24.8437 288.012 23.5506L288.009 23.5532ZM290.063 10.7471C288.983 12.9022 287.773 15.1067 286.332 17.3994C287.871 17.2618 289.798 17.2306 291.779 17.563C292.997 15.3404 294.08 13.0684 295.022 10.8977C293.576 10.7237 291.93 10.6614 290.063 10.7471ZM292.774 5.11519C293.989 5.02172 295.591 4.98277 297.31 5.14895C298.055 3.09509 298.629 1.33723 299.016 0.0805054C296.772 0.45181 294.464 2.1084 292.776 5.11519H292.774ZM295.022 10.8951C297.964 11.243 300.091 12.0479 301.617 12.9749C302.508 10.8172 303.212 8.79189 303.754 7.03663C301.776 5.87857 299.452 5.35148 297.31 5.14635C296.674 6.89122 295.91 8.84901 295.022 10.8951ZM288.009 23.5532C290.369 24.3945 292.197 25.5032 293.612 26.734C295.3 24.6515 296.765 22.4679 298.026 20.2868C296.172 18.721 293.942 17.9239 291.777 17.5604C290.639 19.6402 289.38 21.6811 288.009 23.5532ZM282.206 36.6683C284.33 35.2922 286.342 33.8381 288.149 32.3139C287.116 30.2964 285.706 28.8995 284.228 27.931C282.624 29.4915 280.856 30.9014 279.002 32.1685C280.526 33.5447 281.541 35.1104 282.206 36.6683ZM267.862 38.0678C269.15 39.6985 269.934 41.4745 270.399 43.1649C272.173 42.321 273.982 41.4148 275.784 40.4437C275.216 38.4833 274.299 36.876 273.266 35.5804C271.448 36.5177 269.628 37.346 267.862 38.0704V38.0678ZM266.382 52.6318C267.673 51.305 269.337 49.6796 271.022 48.2463C271.043 46.8883 270.926 45.0811 270.399 43.1649C268.457 44.0918 266.562 44.9409 264.775 45.6991C265.52 47.6517 266.092 49.9444 266.382 52.6318ZM275.782 40.4411C276.158 41.7445 276.376 43.1986 276.376 44.8266C277.542 44.4398 278.848 44.2294 280.212 44.123H280.214C281.11 43.7439 282.193 43.2453 283.405 42.6014C283.385 41.0019 283.133 38.8442 282.203 36.6683C280.136 38.0055 277.966 39.2675 275.779 40.4437L275.782 40.4411ZM288.149 32.3139C288.98 33.942 289.567 35.9776 289.73 38.5119C292.158 36.6346 294.695 34.2743 297.068 31.3376C296.357 29.7849 295.266 28.175 293.61 26.734C292.618 27.9543 291.551 29.141 290.398 30.2704C289.692 30.9637 288.939 31.644 288.147 32.3113L288.149 32.3139ZM300.807 23.8726C301.963 21.006 303.248 18.5912 304.37 15.4183C303.801 14.6575 302.931 13.7694 301.615 12.9749C300.654 15.3014 299.473 17.7915 298.026 20.2868C299.112 21.1981 300.065 22.3718 300.807 23.8726ZM304.91 2.77831C304.655 3.87405 304.276 5.3307 303.752 7.03663C304.583 7.52218 305.354 8.11939 306.021 8.84642C306.294 6.3875 305.972 4.37258 304.91 2.77831ZM283.408 42.6014C283.4 43.1259 283.364 43.6011 283.309 44.0269C285.327 44.0347 287.334 44.1489 289.074 44.1541C289.79 41.1629 289.73 38.5119 289.73 38.5119C287.29 41.111 283.405 42.6014 283.405 42.6014H283.408ZM298.167 33.8926C298.47 31.7479 298.857 29.9225 299.301 28.3101C298.154 29.9693 297.071 31.3402 297.071 31.3402C297.071 31.3402 297.653 32.6307 298.115 34.2613C298.13 34.1393 298.151 34.0173 298.167 33.8952V33.8926Z" fill="#373644"/>
<path d="M218.791 73.9442C218.791 73.9442 218.783 73.9442 218.78 73.9442C218.637 73.939 218.526 73.817 218.531 73.6742C218.648 70.6492 216.963 69.0264 216.945 69.0082C216.841 68.9096 216.835 68.746 216.934 68.6421C217.033 68.5382 217.196 68.5331 217.3 68.6291C217.376 68.7018 219.175 70.4207 219.05 73.6924C219.045 73.8326 218.931 73.9416 218.791 73.9416V73.9442Z" fill="black"/>
<path d="M262.381 98.2037C262.381 98.2037 262.355 98.2037 262.342 98.2011C262.199 98.1804 262.103 98.0479 262.124 97.9077C262.594 94.6776 260.667 92.9068 260.646 92.8886C260.54 92.7926 260.53 92.629 260.626 92.5225C260.722 92.4161 260.885 92.4083 260.992 92.5017C261.08 92.5796 263.147 94.4803 262.635 97.9804C262.617 98.1103 262.505 98.2037 262.378 98.2037H262.381Z" fill="black"/>
<path d="M192.934 194.984V307.344L93.1309 254.357V166.043L192.934 194.984Z" fill="#FA8E46"/>
<path d="M192.934 194.984V307.344L293.165 252.654V174.243L192.934 194.984Z" fill="#E26A38"/>
<path d="M95.177 139.245L192.934 194.984L159.737 209.242L60.3574 149.444L95.177 139.245Z" fill="#FCBC7C"/>
<path d="M192.934 194.984L292.101 139.245L335.302 154.125L239.965 211.581L192.934 194.984Z" fill="#FA8E46"/>
</svg>
