<svg width="550" height="592" viewBox="0 0 550 592" fill="none" xmlns="http://www.w3.org/2000/svg">
<path d="M546.741 579.742C546.741 590.264 441.407 591.137 275.398 591.137C109.387 591.137 0 590.264 0 579.742C0 569.213 106.744 566.471 272.755 566.471C438.764 566.471 546.741 569.213 546.741 579.742Z" fill="#847895"/>
<path d="M155.657 286.035C155.657 286.035 90.1834 450.43 84.4287 465.229C78.6766 480.02 161.138 515.861 167.176 505.507C175.79 490.742 216.49 399.448 216.49 399.448C216.49 399.448 254.3 278.622 253.479 248.201C252.658 217.791 210.736 213.681 193.474 224.369C176.212 235.052 155.657 286.035 155.657 286.035Z" fill="#B4AB78"/>
<path d="M441.467 574.537C441.467 574.537 424.38 568.754 393.368 576.638C366.312 583.519 342.777 571.483 327.102 546.462C314.988 527.139 264.783 422.558 264.05 404.231C263.318 385.903 303.64 349.98 309.507 347.778C315.371 345.584 390.884 460.683 390.884 460.683L441.467 574.537Z" fill="#B4AB78"/>
<path d="M530.186 558.926C530.186 558.926 524.322 573.956 477.03 578.353C429.744 582.758 392.351 551.967 368.157 505.775C343.965 459.583 317.91 401.502 317.91 401.502C317.91 401.502 289.459 510.751 287.591 516.617C281.93 534.392 191.764 495.994 194.738 482.509C195.867 477.398 204.215 454.084 208.004 439.4C211.794 424.714 242.113 302.968 244.48 283.071C246.849 263.175 246.377 243.752 258.692 232.384C271.009 221.012 307.487 209.169 342.07 224.805C376.651 240.437 415.498 313.39 442.027 354.604C468.554 395.818 504.558 435.611 515.927 470.665C527.298 505.72 537.332 548.649 530.186 558.926Z" fill="#B4AB78"/>
<path d="M244.902 273.344C243.416 272.935 241.503 273.845 241.185 275.458C236.306 300.038 231.472 324.605 225.936 349.058C220.403 373.505 214.286 397.798 207.903 422.032C204.285 435.777 200.642 449.533 196.735 463.198C195.932 465.995 200.23 467.162 201.082 464.395C208.466 440.435 215.396 416.386 221.628 392.093C227.854 367.82 233.57 343.42 238.733 318.908C241.66 305.003 244.571 291.065 247.013 277.058C247.294 275.458 246.583 273.803 244.902 273.344Z" fill="white"/>
<path d="M380.834 523.055C363.33 494.151 347.692 464.126 334.082 433.202C330.24 424.469 326.625 415.646 322.916 406.866C322.778 406.54 322.575 406.292 322.338 406.12C323.469 401.689 324.6 397.264 325.757 392.854C329.881 377.141 333.98 361.417 338.012 345.677C340.324 336.662 342.863 327.647 344.783 318.54C345.378 315.731 341.34 314.589 340.47 317.352C337.991 325.205 336.076 333.253 333.884 341.192C331.687 349.133 329.604 357.111 327.488 365.079C323.313 380.779 319.169 396.49 315.071 412.216C312.723 421.224 294.383 490.797 292.399 499.895C291.745 502.905 296.116 504.141 297.031 501.17C299.822 492.115 318.142 422.378 320.519 413.186C326.073 427.544 332.435 441.634 339.023 455.533C346.238 470.751 353.942 485.73 362.126 500.443C366.817 508.884 371.67 517.23 376.669 525.492C378.274 528.14 382.447 525.718 380.834 523.055Z" fill="#988C54"/>
<path d="M93.7568 480.593C93.7568 480.593 82.5862 472.454 84.2177 465.696C85.8493 458.943 97.8748 460.311 97.8748 460.311C97.8748 460.311 148.664 482.155 150.256 483.244C154.604 486.213 171.141 499.356 167.177 505.507C161.25 514.71 115.186 494.753 115.186 494.753L93.7568 480.593Z" fill="#1A1A1A"/>
<path d="M97.8746 460.311C97.4029 461.726 87.7387 486.11 79.2421 501.217C70.743 516.331 37.2232 552.206 28.2549 555.983C19.284 559.759 9.84133 562.121 7.00827 565.423C4.17521 568.733 5.59304 578.647 13.1461 577.701C20.7018 576.76 21.6453 576.286 30.6136 577.227C39.5845 578.173 42.8893 575.812 47.6094 576.286C52.332 576.76 61.3003 578.647 67.4382 578.647C73.576 578.647 79.7139 579.588 88.2104 573.925C96.7096 568.259 132.116 557.396 132.116 557.396C132.116 557.396 134.949 521.994 137.311 510.19C139.669 498.389 144.436 497.294 150.1 483.129C123.424 463.425 97.8746 460.311 97.8746 460.311Z" fill="#A54B22"/>
<path d="M267.227 496.366C267.227 496.366 289.222 510.052 287.267 518.118C285.313 526.177 255.741 517.623 255.741 517.623L267.227 496.366Z" fill="#1A1A1A"/>
<path d="M199.38 484.896C199.38 484.896 192.379 505.595 182.848 520.253C173.317 534.919 116.687 553.794 96.8921 560.393C77.0972 566.992 87.3609 579.455 106.423 579.455C125.486 579.455 169.475 577.988 184.871 580.188C200.266 582.39 254.519 580.188 258.919 577.988C263.318 575.791 257.451 533.269 259.651 522.268C261.851 511.272 265.94 498.256 267.319 496.421C202.114 458.301 199.38 484.896 199.38 484.896Z" fill="#A54B22"/>
<path d="M130.889 546.327C125.515 548.363 119.893 549.256 114.412 550.958C108.777 552.712 103.272 554.928 97.9842 557.55C93.444 559.807 87.6944 562.275 85.7397 567.352C84.03 571.788 86.9543 578.054 92.3936 576.719C94.4291 576.227 93.8584 573.344 91.9193 573.216C89.8473 573.083 88.8438 571.129 89.3573 569.247C89.9489 567.086 91.8385 565.637 93.642 564.503C97.5958 562.014 101.875 559.94 106.163 558.092C110.588 556.184 115.152 554.649 119.783 553.333C123.909 552.16 128.793 551.331 132.077 548.37C132.953 547.575 132.038 545.887 130.889 546.327Z" fill="#953B16"/>
<path d="M69.9821 562.681C67.7667 558.579 62.7131 558.05 58.5847 558.798C55.8585 559.285 53.0697 560.432 50.2627 560.098C47.732 559.791 45.561 558.263 42.9599 558.011C37.7785 557.502 32.7145 559.473 27.5696 559.739C23.3135 559.952 18.7551 559.885 15.4659 563.036C13.9334 564.503 16.1905 566.664 17.7673 565.329C20.8636 562.715 25.3986 563.322 29.1673 562.955C33.6527 562.522 38.1147 560.82 42.6523 561.193C44.9459 561.381 46.8068 562.647 49.0143 563.083C51.1802 563.507 53.3669 563.101 55.4728 562.566C59.7992 561.474 65.3168 559.564 68.6007 563.75C69.2367 564.563 70.4382 563.528 69.9821 562.681Z" fill="#953B16"/>
<path d="M543.277 223.489C542.85 203.399 540.382 183.344 535.917 163.76C533.949 155.12 531.515 146.472 525.617 139.62C520.165 133.295 512.619 129.179 504.965 126.109C496.319 122.64 487.192 120.571 478.511 117.188C470.705 114.146 463.571 109.71 457.532 103.877C451.728 98.2737 446.93 91.5207 443.662 84.1214C442.58 78.7368 442.139 73.2062 441.446 67.7746C440.471 60.1095 438.764 52.7753 435.082 45.9312C431.451 39.1912 426.554 33.1316 421.484 27.442C416.413 21.7498 411.369 15.9586 405.383 11.1891C396.167 3.84187 383.615 -0.83646 372.129 3.12774C363.533 -0.00244087 354.354 -0.729602 345.315 0.706475C335.81 2.22074 327.306 6.30483 319.575 11.9475C311.139 18.1062 303.215 25.0338 295.125 31.6303C287.783 37.6301 280.309 43.5021 275.737 52.0012C271.562 59.7602 269.709 68.4809 268.572 77.1417C267.394 86.1361 266.764 95.2165 266.096 104.258C264.723 122.781 263.98 141.447 265.781 159.97C267.501 177.638 271.609 195.179 279.813 211.02C287.651 226.144 299.181 239.056 313.231 248.676C327.139 258.205 343.321 264.356 360.075 266.284C364.696 266.818 369.655 266.524 374.091 268.085C378.246 269.547 380.909 272.995 383.049 276.673C385.124 280.236 386.862 283.965 389.161 287.401C391.429 290.791 394.024 293.974 396.894 296.877C408.432 308.54 424.393 315.846 440.834 316.419C457.681 317.006 474.541 310.547 487.01 299.264C487.197 299.098 487.377 298.91 487.565 298.738C499.233 300.406 510.87 295.073 519.164 286.84C529.865 276.225 534.022 261.366 535.023 246.682C535.565 238.689 535.232 230.669 534.684 222.688C534.077 213.84 533.282 204.999 532.328 196.18C531.413 187.686 530.499 179.153 529.052 170.732C527.778 163.306 525.737 155.881 521.598 149.509C514.152 138.038 502.324 131.541 490.088 125.775C490.862 126.015 491.633 126.255 492.407 126.497C500.589 129.026 508.762 131.819 515.835 136.771C523.128 141.882 527.345 149.042 529.779 157.489C532.448 166.77 534.184 176.411 535.638 185.945C537.132 195.76 538.112 205.648 538.607 215.555C539.154 226.585 539.06 237.641 538.414 248.663C537.778 259.479 536.9 270.668 533.042 280.895C532.302 282.853 535.357 283.606 536.131 281.75C539.928 272.696 541.482 263.188 542.336 253.453C543.21 243.492 543.483 233.484 543.277 223.489Z" fill="#1A1A1A"/>
<path d="M285.313 179.16C285.313 179.16 303.924 171.534 317.733 165.162C331.543 158.789 410.861 144.27 421.485 150.997C432.105 157.721 347.124 186.406 319.15 191.718C291.177 197.027 276.305 188.533 276.305 188.533C276.305 188.533 269.18 186.424 285.313 179.16Z" fill="#5F7AB3"/>
<path d="M400.592 105.318C400.947 106.734 407.319 125.147 418.649 134.71C429.978 144.27 438.478 147.452 438.478 147.452C438.478 147.452 394.217 165.162 386.781 164.807C379.346 164.453 372.971 156.308 369.783 150.997C366.598 145.685 400.592 105.318 400.592 105.318Z" fill="#A54B22"/>
<path d="M405.831 145.492C405.745 139.88 404.984 134.269 403.569 128.845C402.094 123.2 399.592 118.05 396.831 112.931C396.503 112.319 396.159 111.717 395.818 111.109C386.581 122.465 367.351 146.938 369.786 150.996C372.971 156.308 379.346 164.453 386.782 164.807C389.323 164.927 396.172 162.938 404.082 160.264C405.471 155.487 405.912 150.449 405.831 145.492Z" fill="#8F2F08"/>
<path d="M293.778 82.1407C296.979 79.1982 299.916 75.969 302.559 72.5912C305.741 68.5228 314.068 51.8737 319.106 50.3802C322.067 49.5071 326.779 49.627 331.598 49.7469C337.29 49.8877 343.131 50.0336 346.405 48.5324C352.201 45.8765 367.758 66.0807 373.145 69.2682C377.685 71.9579 377.5 76.3026 383.552 73.7927C386.391 72.6199 387.35 70.3368 390.381 66.9199C391.973 65.132 394.017 63.5838 396.391 63.258C398.215 63.0052 400.066 63.4978 401.773 64.1859C404.736 65.3717 407.092 67.1466 408.899 69.7686C414.064 77.2357 414.359 86.9363 410.535 95.0315C409.227 97.7994 407.52 100.382 405.523 102.705C405.292 102.978 402.842 105.139 402.894 105.433C409.761 141.63 384.063 176.877 353.567 174.209C296.223 169.191 297.38 95.9724 294.602 85.8104C294.278 84.5959 294.02 83.3683 293.778 82.1407Z" fill="#A54B22"/>
<path d="M315.765 113.059C315.379 112.457 314.553 111.998 313.828 112.272C312.963 112.598 312.285 113.304 311.404 113.565C308.243 114.493 304.883 114.352 304.709 114.339C303.166 114.266 302.457 114.48 302.037 115.019C301.581 115.608 301.962 116.729 302.637 117.094C305.347 118.59 309.017 117.928 310.036 117.769C311.021 117.61 311.96 117.234 312.851 116.802C313.761 116.353 314.756 115.835 315.499 115.139C316.028 114.638 316.169 113.679 315.765 113.059Z" fill="#1A1A1A"/>
<path d="M363.562 95.0833C359.173 99.8997 353.022 102.962 346.402 102.389C345.529 102.311 344.781 103.184 344.781 104.01C344.781 104.972 345.529 105.519 346.402 105.631C353.866 106.559 361.899 103.423 366.134 97.064C367.161 95.5237 364.813 93.7097 363.562 95.0833Z" fill="#1A1A1A"/>
<path d="M369.846 82.5994C364.836 81.2858 359.457 81.0513 354.317 81.5465C351.735 81.7941 349.191 82.2319 346.663 82.8079C345.466 83.0738 344.262 83.3735 343.04 83.4803C341.838 83.5872 340.655 83.3474 339.467 83.4152C338.182 83.4934 337.084 85.2761 338.294 86.2508C340.22 87.812 342.829 87.7052 345.169 87.3976C347.77 87.051 350.314 86.4489 352.933 86.2352C358.219 85.7895 363.369 86.3108 368.571 87.2178C371.553 87.7364 372.88 83.3943 369.846 82.5994Z" fill="#1A1A1A"/>
<path d="M338.135 130.467C337.621 129.992 337.03 129.753 336.329 129.719C335.836 129.732 335.346 129.698 334.856 129.651C334.244 129.539 333.641 129.398 333.016 129.372L332.344 129.466C332.015 129.539 331.731 129.693 331.486 129.912C331.296 130.026 331.147 130.18 331.033 130.365C330.811 130.613 330.66 130.899 330.582 131.228C330.48 131.668 330.48 132.122 330.582 132.567C330.636 132.802 330.756 133.034 330.902 133.255C331.009 133.516 331.15 133.769 331.343 133.97C331.658 134.316 332.07 134.53 332.516 134.663C332.82 134.757 333.154 134.762 333.472 134.77C333.793 134.783 334.111 134.817 334.431 134.804C335.062 134.77 335.698 134.775 336.329 134.83C337.011 134.783 337.64 134.569 338.135 134.076C338.578 133.636 338.911 132.909 338.883 132.273C338.854 131.606 338.635 130.925 338.135 130.467Z" fill="#953B16"/>
<path d="M334.34 152.532C334.34 152.532 332.544 143.042 337.931 141.249C343.319 139.453 351.529 145.351 352.297 146.892C353.066 148.427 334.34 152.532 334.34 152.532Z" fill="white"/>
<path d="M392.943 147.6C392.19 147.6 391.465 147.207 391.332 146.347C389.956 137.451 385.145 129.364 377.55 124.415C375.692 123.2 373.708 122.16 371.618 121.404C369.179 120.523 366.619 120.158 364.138 119.429C358.519 117.776 350.379 112.256 348.179 109.689C347.413 108.795 347.523 108.315 348.054 108.315C348.438 108.315 349.04 108.568 349.691 109.087C354.32 112.803 361.336 114.954 367.664 116.366C372.481 117.443 376.974 119.15 380.972 122.098C388.598 127.717 394.03 136.344 394.791 145.872C394.879 146.972 393.889 147.6 392.943 147.6Z" fill="#D2BBB2"/>
<path d="M321.65 162.952C321.269 162.952 320.884 162.839 320.563 162.587C317.779 160.371 315.924 156.775 314.668 153.511C314.55 153.212 314.441 152.904 314.337 152.604C316.914 156.073 319.857 159.29 323.234 162.131C322.93 162.626 322.294 162.952 321.65 162.952Z" fill="#A8ACAF"/>
<path d="M323.235 162.131C319.857 159.29 316.914 156.074 314.337 152.605C313.234 149.355 312.822 145.907 312.929 142.482C313.179 134.275 317.641 125.835 317.204 117.568C317.159 116.734 317.404 116.328 317.696 116.328C318.009 116.328 318.374 116.789 318.499 117.683C319.562 125.416 317.193 132.867 316.614 140.535C316.325 144.338 316.586 148.101 317.837 151.724C319.012 155.125 321.118 157.703 323.12 160.611C323.511 161.185 323.487 161.719 323.235 162.131Z" fill="#D2BBB2"/>
<path d="M313.127 184.157C313.127 184.157 313.534 180.495 324.514 179.272C335.497 178.053 363.968 171.547 389.591 162.193C415.219 152.837 451.822 136.977 473.379 141.856C494.938 146.74 510.023 176.958 511.123 224.244C511.892 257.43 503.224 332.68 519.917 380.404C553.645 476.816 561.712 535.466 530.186 558.926C530.186 558.926 529.453 512.739 497.928 468.75C466.402 424.761 369.624 265.672 365.96 262.734C362.293 259.805 333.816 263.944 333.816 263.944C333.816 263.944 313.08 182.556 313.127 184.157Z" fill="#5F7AB3"/>
<path d="M473.387 238.748C458.729 234.412 443.294 239.536 429.645 244.899C422.551 247.683 415.511 250.552 408.218 252.773C400.955 254.988 393.555 256.737 386.093 258.145C377.6 259.74 369.027 260.912 360.434 261.801C357.575 262.093 357.505 266.579 360.434 266.331C375.348 265.083 390.211 263.042 404.689 259.151C412.042 257.17 419.181 254.595 426.267 251.798C432.887 249.189 439.512 246.507 446.398 244.654C450.266 245.267 453.91 246.849 457.139 249.223C461.536 252.46 464.653 256.836 467.963 261.087C468.609 261.921 469.845 260.86 469.375 259.992C465.633 253.013 458.94 246.049 451.087 243.552C458.028 242.171 465.132 241.892 472.117 243.346C475.102 243.971 476.35 239.629 473.387 238.748Z" fill="#464C7B"/>
<path d="M345.487 184.978C349.344 189.747 352.157 195.299 354.242 201.051C356.405 207.022 357.867 213.227 359.113 219.446C360.343 225.584 361.289 231.795 361.367 238.06C361.406 241.438 361.203 244.821 360.593 248.136C359.963 251.572 358.826 254.822 357.784 258.137C357.429 259.258 359.03 259.86 359.629 258.919C362.949 253.68 363.843 246.943 364.023 240.857C364.216 234.372 363.374 227.88 362.186 221.508C359.796 208.711 356.473 195.372 348.458 184.824C346.152 181.788 343.368 178.811 340.189 176.463C339.123 176.697 338.085 176.916 337.082 177.125C340.173 179.387 342.99 181.889 345.487 184.978Z" fill="#464C7B"/>
<path d="M532.362 501.738C524.861 486.525 515.108 472.326 503.685 459.604C504.011 456.068 504.052 452.484 504.006 448.994C503.933 443.318 503.411 437.659 502.603 432.048C500.896 420.265 497.834 408.729 494.409 397.345C490.906 385.695 487.051 374.159 483.635 362.483C480.166 350.606 477.471 338.523 475.701 326.281C473.66 312.134 472.826 297.836 473.139 283.559C473.16 282.631 471.724 282.631 471.706 283.559C471.103 308.386 474.041 333.227 480.332 357.247C486.376 380.326 495.204 402.69 499.507 426.223C500.716 432.788 501.53 439.426 501.777 446.106C501.91 449.849 501.756 453.537 501.496 457.228C492.929 448.001 483.494 439.572 473.392 432.173C474.7 434.188 475.988 436.171 477.249 438.1C485.842 444.965 493.87 452.536 501.23 460.691C501.081 462.479 500.93 464.275 500.782 466.081C500.696 467.142 502.403 467.363 502.642 466.329C502.898 465.229 503.099 464.1 503.271 462.972C507.594 467.911 511.684 473.048 515.486 478.391C521.02 486.171 526.057 494.373 530.54 502.799C531.181 504.006 532.956 502.945 532.362 501.738Z" fill="#464C7B"/>
<path d="M424.119 147.934C420.536 148.408 417.012 150.136 413.611 151.335C410.04 152.591 406.464 153.819 402.875 155.02C395.802 157.382 388.702 159.649 381.579 161.852C367.216 166.288 352.688 170.059 338.08 173.596C334.103 174.555 330.115 175.47 326.143 176.457C322.249 177.416 318.129 178.292 314.696 180.461C313.912 180.953 314.404 182.228 315.335 181.975C318.848 181.021 322.288 179.905 325.864 179.186C329.419 178.459 332.985 177.797 336.532 177.031C343.819 175.456 351.062 173.695 358.282 171.826C372.713 168.091 387.05 163.999 401.22 159.363C405.143 158.083 409.047 156.741 412.944 155.372C414.997 154.653 417.054 153.926 419.102 153.186C421.057 152.477 423.132 151.895 424.886 150.757C426.006 150.022 425.728 147.72 424.119 147.934Z" fill="#464C7B"/>
<path d="M386.826 57.5863C386.187 60.8755 385.752 64.1308 385.444 67.4668C385.228 69.8099 385.025 73.5578 381.889 73.5395C378.96 73.5187 376.072 70.816 374.253 68.8091C372.178 66.5129 370.922 63.6903 369.231 61.1361C366.087 56.3926 361.393 52.6291 356.848 49.2722C352.853 46.3297 346.699 43.494 341.966 46.5225C341.161 47.036 341.661 48.3574 342.625 48.0915C349.798 46.1108 354.927 50.9064 359.963 55.3162C362.462 57.5055 364.904 59.7939 366.718 62.6113C368.41 65.2332 369.7 68.0689 371.717 70.4823C374.686 74.04 381.287 79.2448 385.854 75.2336C387.741 73.5734 388.199 71.0297 388.46 68.6553C388.854 65.0664 388.999 61.4828 388.953 57.873C388.937 56.6924 387.066 56.3509 386.826 57.5863Z" fill="#1A1A1A"/>
<path d="M282.545 133.623C282.545 133.623 277.674 138.525 272.795 140.694C267.913 142.862 231.036 201.971 227.784 212.821C224.528 223.663 220.734 229.626 220.734 229.626C220.734 229.626 204.462 224.75 189.82 236.14C175.178 247.529 155.657 286.035 155.657 286.035C155.657 286.035 131.796 270.848 152.943 228.005C174.094 185.165 238.086 120.625 247.847 108.154C257.61 95.683 277.747 67.5348 285.221 60.8887C292.696 54.2426 305.431 52.3009 315.952 49.2594C326.471 46.2178 332.286 45.9363 333.394 48.1517C334.502 50.3671 328.134 56.1791 325.643 57.8394C323.151 59.5022 321.212 61.7149 321.212 61.7149C321.212 61.7149 339.873 60.7298 344.108 62.33C348.344 63.9303 342.805 69.7502 342.805 69.7502C342.805 69.7502 341.421 74.1731 337.822 76.6673C334.223 79.1564 322.872 80.8192 316.229 83.8686C309.585 86.9101 305.71 91.3409 305.71 91.3409C305.71 91.3409 305.71 93.5562 311.801 91.3409C317.889 89.1255 329.239 84.4211 330.626 86.0839C332.01 87.7441 331.178 91.8934 327.855 95.4901C324.535 99.0946 308.199 104.904 303.494 107.675C298.787 110.442 282.545 133.623 282.545 133.623Z" fill="#A54B22"/>
<path d="M343.717 60.2472C340.767 59.7208 337.59 59.8667 334.603 59.7546C331.554 59.64 328.504 59.5201 325.455 59.408C327.921 58.1205 330.186 56.4655 332.083 54.4039C333.295 53.0877 334.512 51.5083 334.585 49.6448C334.663 47.7448 333.548 46.1419 331.825 45.4356C328.228 43.9604 323.529 45.9568 320 46.7778C315.228 47.8855 310.44 48.9463 305.697 50.1738C297.153 52.3814 288.735 55.4568 282.094 61.4748C278.622 64.618 275.685 68.3138 272.722 71.9313C269.474 75.8877 266.289 79.904 263.162 83.9542C256.278 92.8808 249.682 102.021 243.455 111.417C242.137 113.406 245.314 115.227 246.64 113.278C256.557 98.719 267.05 84.5485 278.377 71.0556C280.926 68.0219 283.574 65.0064 286.707 62.5486C289.793 60.1404 293.345 58.3134 296.979 56.8851C304.479 53.9426 312.481 52.3553 320.287 50.4475C322.687 49.8585 325.085 49.1782 327.509 48.6909C328.994 48.399 331.705 48.0914 330.772 50.3928C330.034 52.2146 327.634 53.9556 326.096 55.0763C324.347 56.3508 320.842 58.3003 319.328 59.2125C314.86 59.1526 310.445 59.4132 306.14 60.9744C300.575 62.9891 295.657 66.2861 290.859 69.6899C288.935 71.0504 290.726 74.2327 292.733 72.8904C296.702 70.2424 300.687 67.5214 305.058 65.5511C309.676 63.4765 314.454 62.9109 319.474 63.0099C324.754 63.1116 330.034 63.3227 335.312 63.4895C337.757 63.5651 340.295 63.4374 342.724 63.7162C343.921 63.8518 344.971 64.2323 344.726 65.6188C344.533 66.7265 343.686 67.842 342.98 68.6891C341.168 67.5944 338.015 68.0349 336.141 68.1417C328.815 68.5483 321.402 69.4684 314.162 70.6699C306.377 71.9652 298.404 73.9981 291.753 78.4028C289.853 79.6564 291.518 82.5651 293.546 81.473C304.951 75.3065 317.675 73.8053 330.381 72.4839C331.96 72.3171 335.773 71.7306 337.358 71.6238C337.955 71.5847 342.816 70.5031 339.112 74.0919C338.038 75.1397 335.852 75.9685 334.46 76.5002C331.278 77.7147 327.848 78.1239 324.569 78.9892C321.778 79.7242 319.064 80.7172 316.45 81.9395C310.896 84.5354 305.845 88.2103 301.568 92.602C299.567 93.2614 297.56 93.9025 295.558 94.5697C293.173 95.3646 294.195 99.1542 296.601 98.3515C304.175 95.8364 311.764 93.376 319.375 90.973C321.165 90.4048 323.881 89.3727 325.635 88.7055C331.012 86.657 331.958 89.3441 323.294 95.9902C318.329 99.7928 311.962 101.096 306.314 103.663C300.745 106.191 296.283 109.83 292.84 114.899C289.014 120.531 286.233 126.99 280.726 131.259C279.391 132.293 281.184 134.655 282.545 133.623C287.929 129.539 291.036 123.646 294.797 118.196C296.726 115.394 298.837 112.665 301.581 110.617C304.37 108.534 307.599 107.119 310.821 105.858C317.149 103.376 324.134 101.294 329.036 96.3238C331.27 94.0615 333.31 90.7671 332.917 87.4441C332.742 85.9898 331.971 84.6293 330.514 84.1341C328.598 83.4877 326.18 84.7335 324.379 85.2965C319.515 86.8107 314.66 88.3511 309.812 89.9122C312.814 87.7907 316.054 86.0158 319.492 84.6684C322.817 83.36 326.206 82.4869 329.696 81.7597C333.047 81.0638 336.514 80.2298 339.394 78.2907C341.567 76.8208 344.361 74.2327 344.359 71.3631C345.816 70.1825 348.32 67.0732 348.151 64.592C347.981 62.1498 345.969 60.6486 343.717 60.2472Z" fill="#953B16"/>
<path d="M318.499 244.086C318.499 244.086 326.44 262.807 333.816 263.943C341.189 265.077 346.441 245.061 346.441 245.061L318.499 244.086Z" fill="#1A1A1A"/>
<path d="M318.548 183.07C318.548 183.07 329.302 185.512 337.611 200.662C345.92 215.815 346.931 243.599 346.441 245.061C345.954 246.528 295.123 260.699 256.998 260.211C218.875 259.726 215.419 229.501 215.907 218.745C216.397 207.996 232.22 192.317 244.745 186.979C284.58 169.991 285.313 179.16 285.313 179.16L278.959 186.979C278.959 186.979 315.126 183.07 318.548 183.07Z" fill="#A54B22"/>
<path d="M291.901 182.976C287.974 182.801 283.952 183.656 280.144 184.558C276.245 185.47 272.419 186.651 268.687 188.108C261.342 190.97 254.073 194.652 248.048 199.789C246.466 201.137 248.509 203.707 250.25 202.646C256.768 198.661 263.235 194.746 270.392 191.983C273.835 190.649 277.363 189.515 280.942 188.6C284.705 187.639 288.584 187.138 292.324 186.106C294.091 185.619 293.676 183.057 291.901 182.976Z" fill="#953B16"/>
<path d="M233.439 247.901C232.319 246.742 231.641 245.929 230.851 244.526C230.684 244.227 230.528 243.927 230.385 243.612C230.359 243.559 230.187 243.132 230.085 242.837C229.837 242.11 229.652 241.37 229.527 240.617C229.379 239.702 229.415 237.781 229.564 236.799C229.746 235.587 230.27 233.963 230.922 232.709C231.73 231.156 229.676 229.347 228.394 230.762C225.735 233.684 224.927 237.648 225.49 241.49C226.027 245.173 227.904 248.889 231.198 250.805C233.022 251.866 234.907 249.411 233.439 247.901Z" fill="#953B16"/>
<path d="M253.849 177.404C249.307 178.845 244.931 181.235 240.75 183.497C236.59 185.752 232.621 188.306 228.92 191.261C222.373 196.487 216.986 203.24 214.366 211.273C213.433 214.121 217.695 215.135 218.768 212.479C221.614 205.455 226.864 199.516 232.855 194.965C236.291 192.356 240.023 190.135 243.825 188.108C247.758 186.004 252.009 184.383 255.801 182.043C258.176 180.573 256.672 176.517 253.849 177.404Z" fill="#FEE6D6"/>
</svg>
