<svg width="515" height="305" viewBox="0 0 515 305" fill="none" xmlns="http://www.w3.org/2000/svg">
<path fill-rule="evenodd" clip-rule="evenodd" d="M353.162 98.9818H399.143V116.298H353.162V98.9818Z" fill="#331A26"/>
<path fill-rule="evenodd" clip-rule="evenodd" d="M312.25 112.975L264.675 301.207H375.412H486.14L438.565 112.975H375.412H312.25Z" fill="#331A26"/>
<path d="M370.147 249.589V241.579C362.324 240.791 356.722 238.418 353.348 234.468C350.484 231.112 348.839 226.45 348.407 220.5C348.288 218.822 348.907 217.347 350.246 216.118C351.577 214.897 353.255 214.27 355.205 214.27H363.494C366.901 214.27 369.749 216.398 370.232 219.313C370.842 222.983 372.792 224.822 376.081 224.822C377.827 224.822 379.106 224.365 379.912 223.424C380.751 222.483 381.149 221.398 381.149 220.135C381.149 217.915 379.835 215.652 377.208 213.355L359.281 197.81C352.713 192.131 349.407 185.978 349.407 179.35C349.407 175.747 350.365 172.586 352.263 169.848C354.162 167.094 356.679 164.848 359.815 163.101C362.968 161.381 366.401 160.22 370.156 159.635V153.329H380.963V159.491C388.082 160.279 393.498 162.796 397.211 167.077C399.592 169.831 401.211 173.179 402.059 177.095C402.44 178.875 401.94 180.536 400.601 181.918C399.262 183.308 397.457 184.037 395.372 184.037H387.014C383.7 184.037 380.929 182.045 380.318 179.231C380.123 178.307 379.691 177.561 379.022 176.976C378.064 176.154 376.801 175.73 375.207 175.73C373.453 175.73 372.156 176.12 371.283 176.875C370.41 177.621 369.961 178.638 369.961 179.884C369.961 181.689 372.029 184.333 376.148 187.859L393.651 202.701C396.228 204.887 398.448 207.557 400.304 210.676C402.161 213.795 403.076 217.33 403.076 221.28C403.076 227.196 400.966 231.934 396.762 235.46C392.558 238.994 387.294 241.071 380.963 241.672V249.597H370.156L370.147 249.589Z" fill="#EFDC01"/>
<path fill-rule="evenodd" clip-rule="evenodd" d="M101.956 29.0647C101.956 29.0647 99.1332 33.0653 99.9384 39.9561C100.744 46.847 104.719 53.1106 104.083 54.8651C103.447 56.6111 100.422 64.4004 101.99 66.2397C103.558 68.0704 109.609 67.884 109.609 67.884C109.609 67.884 116.763 85.7002 127.824 79.2585C138.893 72.8169 141.199 68.9774 141.199 68.9774L150.785 92.9046L174.916 69.3757L161.193 48.5252C155.887 42.7023 150.497 36.0827 147.098 30.0055C138.385 14.4099 123.137 6.18839 101.956 29.0731V29.0647Z" fill="#EC5C01"/>
<path d="M103.828 41.0155C103.845 41.007 109.066 37.1251 115.83 42.4734L114.245 44.4821C109.015 40.3544 105.345 43.0836 105.337 43.0921L103.828 41.024V41.0155Z" fill="#331A26"/>
<path fill-rule="evenodd" clip-rule="evenodd" d="M100.058 34.3366C100.058 34.3366 111.492 28.5307 120.544 33.1161L130.342 38.2864C130.342 38.2864 131.054 31.1413 138.835 35.8877C146.599 40.6342 142.776 49.6525 142.776 49.6525C142.776 49.6525 148.752 55.5601 161.203 48.5252C159.186 31.7769 165.704 -0.210848 138.844 0.00104751C111.984 0.221419 81.1487 14.4693 100.126 41.2105C99.8379 38.2101 99.8125 36.8285 100.067 34.3451L100.058 34.3366Z" fill="#331A26"/>
<path d="M137.333 38.1508C137.325 38.1592 135.435 39.5408 137.181 44.6263L134.748 45.4654C132.392 38.6169 135.757 36.1251 135.765 36.1166L137.333 38.1508Z" fill="#331A26"/>
<path fill-rule="evenodd" clip-rule="evenodd" d="M108.483 47.771C107.864 48.2202 108.127 49.6102 109.059 50.8731C109.983 52.136 111.238 52.7971 111.848 52.3479C112.458 51.8987 112.204 50.5087 111.272 49.2458C110.339 47.9829 109.093 47.3218 108.483 47.771Z" fill="#331A26"/>
<path d="M112.89 69.1045C112.907 69.1045 116.992 67.8501 121.552 69.4012L120.721 71.8337C116.95 70.5454 113.627 71.5625 113.619 71.571L112.89 69.1045Z" fill="#331A26"/>
<path fill-rule="evenodd" clip-rule="evenodd" d="M191.443 114.264C191.443 114.264 179.907 153.702 153.963 185.537L127.857 139.378C137.325 128.164 143.411 112.018 150.191 93.8454C150.191 93.8454 172.449 55.4329 191.443 114.264Z" fill="#0176E2"/>
<path fill-rule="evenodd" clip-rule="evenodd" d="M169.915 61.8323C169.915 61.8323 231.323 70.2742 244.308 129.317C257.301 188.368 242.062 252.928 242.062 252.928L174.925 222.899C174.925 222.899 196.191 212.117 150.794 92.8962L169.915 61.8323Z" fill="#0176E2"/>
<path fill-rule="evenodd" clip-rule="evenodd" d="M242.061 252.928C237.925 272.635 224.804 301.063 207.92 301.257C166.889 301.724 154.218 300.918 132.562 242.02L80.0625 236.739C80.0625 236.739 64.1194 133.385 105.278 117.595C146.445 101.804 193.189 204.057 201.513 234.798L242.061 252.928Z" fill="#FD9EBF"/>
<path fill-rule="evenodd" clip-rule="evenodd" d="M80.0456 229.798L85.7413 272.601C85.7413 272.601 32.8776 274.22 35.9119 301.071L79.7489 301.436L107.584 294.553L112.61 300.902L129.782 301.054L132.477 242.02L80.0456 229.798Z" fill="#331A26"/>
<path fill-rule="evenodd" clip-rule="evenodd" d="M205.242 131.622C205.242 131.622 199.75 163.39 173.56 191.818L132.503 157.296C143.581 145.387 154.108 129.435 162.084 108.068C162.084 108.068 186.248 72.7915 205.242 131.622Z" fill="#0176E2"/>
<path fill-rule="evenodd" clip-rule="evenodd" d="M173.56 191.818C153.108 214.007 120.043 234.171 67.1034 235.595C56.4917 235.527 47.3971 207.956 70.1123 191.979C70.1123 191.979 103.227 188.783 132.503 157.296L173.56 191.818Z" fill="#EC5C01"/>
<path d="M179.323 183.054C179.366 182.994 194.851 165.229 202.403 137.894L204.878 138.572C197.173 166.475 181.307 184.681 181.264 184.732L179.323 183.054Z" fill="#331A26"/>
<path d="M148.37 136.759C148.404 136.708 158.609 119.485 163.745 103.923L166.186 104.728C160.965 120.544 150.616 138.013 150.582 138.064L148.37 136.759Z" fill="#331A26"/>
<path d="M152.463 91.9384L161.549 113.747L159.176 114.73L150.09 92.93L152.463 91.9384Z" fill="#331A26"/>
<path fill-rule="evenodd" clip-rule="evenodd" d="M68.7219 187.037L77.8927 189.987C85.4532 192.411 83.4868 201.751 72.9683 199.709C78.8675 201.319 79.3167 211.287 68.4761 210.269C74.6973 212.295 73.6718 221.237 64.7128 220.991C69.7729 221.814 67.3573 232.578 55.9912 226.958C55.9912 226.958 50.5582 225.475 50.2107 216.118C49.8632 206.76 47.6849 181.104 68.7219 187.037Z" fill="#EC5C01"/>
<path d="M129.96 242.715L128.214 222.949L130.774 222.721L132.528 242.486L129.96 242.715Z" fill="#331A26"/>
<path fill-rule="evenodd" clip-rule="evenodd" d="M59.3477 186.664L77.3249 181.138L77.0537 189.716L59.3477 186.664Z" fill="#EC5C01"/>
<path d="M72.7472 200.971L63.9238 199.412L64.3646 196.878L73.1879 198.437L72.7472 200.971Z" fill="#331A26"/>
<path d="M69.4259 211.677L60.6025 210.117L61.0433 207.574L69.8666 209.142L69.4259 211.677Z" fill="#331A26"/>
<path d="M65.67 222.356L56.8467 220.796L57.2874 218.262L66.1108 219.822L65.67 222.356Z" fill="#331A26"/>
<path d="M69.1116 185.817L78.2825 188.766C81.2321 189.707 82.9696 191.606 83.529 193.64C83.8087 194.632 83.8087 195.649 83.529 196.607C83.2663 197.556 82.7238 198.446 81.9186 199.2C80.8252 200.217 79.2402 200.972 77.1721 201.2C77.5705 201.777 77.8756 202.412 78.0791 203.065C78.3842 204.065 78.4605 205.125 78.274 206.15C78.0791 207.184 77.6129 208.193 76.8501 209.049C75.8669 210.159 74.3921 211.032 72.3579 211.405C72.7986 211.973 73.1376 212.592 73.358 213.236C73.7225 214.279 73.8072 215.397 73.5953 216.482C73.3919 217.567 72.9003 218.61 72.1121 219.508C71.1713 220.593 69.8066 221.466 68.0182 221.924C68.1878 222.271 68.3234 222.653 68.4081 223.043C68.62 224.026 68.5268 225.102 68.1115 226.111C67.7046 227.103 66.9927 228.026 65.9671 228.713C63.8312 230.145 60.3137 230.535 55.4316 228.111L56.5674 225.806C60.4663 227.738 63.0684 227.569 64.5347 226.586C65.111 226.204 65.5094 225.687 65.7298 225.145C65.9417 224.611 65.9925 224.06 65.8908 223.577C65.7467 222.915 65.2805 222.382 64.5092 222.254C63.882 222.153 63.4159 221.602 63.4328 220.949C63.4583 220.246 64.0431 219.686 64.7551 219.703C67.3826 219.779 69.171 218.974 70.1711 217.822C70.6542 217.271 70.9509 216.643 71.078 215.999C71.1967 215.355 71.1543 214.694 70.9339 214.075C70.544 212.965 69.5863 211.982 68.0776 211.482C67.5182 211.304 67.1368 210.753 67.1961 210.151C67.2554 209.439 67.8826 208.922 68.5861 208.981C71.8578 209.295 73.8835 208.532 74.9345 207.345C75.3668 206.854 75.638 206.277 75.7482 205.684C75.8584 205.065 75.816 204.43 75.6211 203.819C75.2312 202.531 74.1971 201.395 72.7054 200.963C72.0188 200.819 71.5781 200.149 71.7052 199.463C71.8408 198.768 72.5104 198.31 73.2139 198.446C76.6127 199.107 78.9351 198.48 80.1726 197.327C80.6133 196.912 80.91 196.42 81.0626 195.895C81.2066 195.386 81.2066 194.844 81.0626 194.318C80.7066 193.064 79.5369 191.86 77.5027 191.207L68.3234 188.258L69.1116 185.817Z" fill="#331A26"/>
<path fill-rule="evenodd" clip-rule="evenodd" d="M256.352 187.207H181.993L196.402 219.551H256.352V187.207Z" fill="#331A26"/>
<path d="M253.622 205.591C252.953 206.405 253.063 207.617 253.885 208.295C254.707 208.973 255.911 208.854 256.589 208.032L267.158 195.216C267.836 194.394 267.718 193.182 266.895 192.513C266.082 191.835 264.87 191.953 264.192 192.767L253.622 205.591Z" fill="#331A26"/>
<path d="M272.336 196.556L275.735 189.554C276.515 187.936 276.574 186.147 276.023 184.571C275.473 182.986 274.328 181.621 272.701 180.833L271.93 180.451C270.311 179.672 268.522 179.612 266.937 180.163C265.361 180.714 263.988 181.867 263.2 183.486L259.809 190.478C259.021 192.097 258.97 193.886 259.513 195.471C260.063 197.047 261.208 198.42 262.835 199.208L263.606 199.581C265.225 200.37 267.014 200.421 268.599 199.878C270.175 199.327 271.548 198.174 272.336 196.556ZM272.277 187.885L268.878 194.877C268.556 195.547 267.997 196.022 267.344 196.242C266.692 196.471 265.954 196.445 265.293 196.123L264.513 195.75C263.844 195.428 263.378 194.86 263.149 194.208C262.92 193.555 262.945 192.818 263.267 192.157L266.658 185.164C266.98 184.494 267.548 184.02 268.2 183.799C268.853 183.571 269.59 183.588 270.251 183.91L271.031 184.291C271.692 184.613 272.167 185.181 272.396 185.825C272.616 186.478 272.599 187.215 272.277 187.885Z" fill="#331A26"/>
<path d="M284.535 171.408L287.934 164.407C288.713 162.788 288.773 160.999 288.222 159.423C287.671 157.838 286.527 156.465 284.899 155.685L284.128 155.304C282.509 154.524 280.721 154.465 279.136 155.016C277.559 155.566 276.186 156.711 275.398 158.338L272.007 165.331C271.219 166.95 271.168 168.738 271.711 170.323C272.262 171.899 273.406 173.273 275.033 174.061L275.805 174.434C277.423 175.222 279.212 175.273 280.797 174.73C282.373 174.179 283.746 173.027 284.535 171.408ZM284.475 162.737L281.077 169.73C280.754 170.399 280.195 170.865 279.542 171.094C278.89 171.323 278.152 171.298 277.483 170.976L276.712 170.603C276.042 170.281 275.576 169.713 275.347 169.06C275.118 168.407 275.144 167.67 275.466 167.009L278.856 160.008C279.178 159.347 279.746 158.872 280.399 158.652C281.051 158.423 281.789 158.44 282.45 158.762L283.229 159.143C283.891 159.465 284.365 160.033 284.594 160.677C284.814 161.33 284.797 162.067 284.475 162.737Z" fill="#331A26"/>
<path d="M268.616 184.198C268.158 185.156 268.556 186.3 269.506 186.766C270.463 187.232 271.608 186.825 272.074 185.876L279.329 170.925C279.795 169.967 279.388 168.823 278.439 168.356C277.481 167.899 276.337 168.297 275.871 169.246L268.616 184.198Z" fill="#331A26"/>
<path d="M280.355 159.838C279.982 160.83 280.474 161.94 281.465 162.322C282.457 162.695 283.567 162.203 283.949 161.211L289.882 145.692C290.255 144.7 289.763 143.59 288.772 143.209C287.78 142.827 286.67 143.327 286.288 144.319L280.355 159.838Z" fill="#331A26"/>
<path d="M294.934 146.184L297.714 138.911C298.358 137.233 298.248 135.445 297.57 133.919C296.883 132.394 295.62 131.122 293.942 130.478L293.137 130.173C291.45 129.529 289.662 129.63 288.136 130.317C286.611 130.995 285.348 132.266 284.703 133.945L281.923 141.208C281.279 142.887 281.381 144.684 282.067 146.209C282.746 147.735 284.017 148.998 285.695 149.642L286.5 149.947C288.179 150.591 289.975 150.489 291.501 149.803C293.027 149.125 294.29 147.862 294.934 146.175V146.184ZM294.12 137.547L291.34 144.811C291.077 145.497 290.56 146.023 289.925 146.302C289.297 146.582 288.56 146.625 287.873 146.362L287.068 146.057C286.373 145.785 285.856 145.268 285.576 144.633C285.288 144.005 285.246 143.268 285.509 142.582L288.289 135.318C288.552 134.623 289.077 134.106 289.704 133.826C290.331 133.538 291.069 133.495 291.764 133.758L292.569 134.072C293.256 134.335 293.773 134.852 294.061 135.487C294.34 136.114 294.383 136.852 294.12 137.538V137.547Z" fill="#331A26"/>
<path d="M304.909 120.07L307.689 112.806C308.334 111.128 308.232 109.331 307.545 107.805C306.859 106.279 305.596 105.017 303.918 104.372L303.112 104.059C301.434 103.415 299.646 103.525 298.112 104.203C296.586 104.889 295.323 106.152 294.679 107.83L291.899 115.103C291.255 116.781 291.357 118.569 292.043 120.095C292.721 121.621 293.993 122.892 295.671 123.528L296.476 123.841C298.154 124.485 299.943 124.384 301.468 123.697C302.994 123.011 304.265 121.748 304.909 120.07ZM304.096 111.433L301.316 118.696C301.053 119.392 300.536 119.909 299.9 120.188C299.273 120.476 298.536 120.519 297.849 120.248L297.044 119.942C296.349 119.68 295.832 119.154 295.552 118.527C295.264 117.9 295.222 117.162 295.484 116.467L298.264 109.204C298.527 108.517 299.053 107.992 299.68 107.712C300.315 107.432 301.044 107.39 301.739 107.652L302.545 107.958C303.231 108.22 303.757 108.746 304.036 109.373C304.316 110.009 304.358 110.738 304.096 111.433Z" fill="#331A26"/>
<path d="M290.162 134.19C289.781 135.182 290.281 136.292 291.273 136.674C292.264 137.047 293.375 136.555 293.748 135.564L299.681 120.036C300.062 119.044 299.562 117.934 298.57 117.561C297.579 117.179 296.468 117.68 296.095 118.671L290.162 134.19Z" fill="#331A26"/>
<path d="M300.883 108.178C299.917 108.61 299.476 109.746 299.908 110.712C300.341 111.687 301.476 112.119 302.443 111.687L317.631 104.949C318.598 104.517 319.03 103.381 318.606 102.406C318.174 101.44 317.038 101.008 316.063 101.431L300.883 108.178Z" fill="#331A26"/>
<path d="M321.199 108.721L328.31 105.559C329.955 104.83 331.15 103.499 331.752 101.94C332.345 100.372 332.353 98.5835 331.624 96.9392L331.277 96.1509C330.548 94.5066 329.209 93.3115 327.649 92.7097C326.09 92.1079 324.293 92.0994 322.649 92.8284L315.546 95.9899C313.901 96.7188 312.706 98.058 312.105 99.6175C311.503 101.177 311.494 102.965 312.223 104.61L312.579 105.398C313.308 107.042 314.639 108.237 316.198 108.839C317.758 109.441 319.555 109.449 321.199 108.721ZM326.742 102.05L319.64 105.203C318.962 105.508 318.224 105.5 317.58 105.254C316.936 105.008 316.385 104.517 316.088 103.838L315.732 103.05C315.436 102.381 315.436 101.643 315.69 100.991C315.936 100.355 316.427 99.804 317.105 99.4989L324.208 96.3458C324.886 96.0407 325.624 96.0492 326.268 96.295C326.912 96.5408 327.463 97.0324 327.759 97.7105L328.115 98.4987C328.412 99.1768 328.412 99.9142 328.166 100.558C327.912 101.202 327.42 101.753 326.751 102.05H326.742Z" fill="#331A26"/>
<path d="M326.252 96.9136C325.286 97.3374 324.845 98.4732 325.278 99.4479C325.71 100.414 326.846 100.855 327.812 100.423L343.001 93.6758C343.967 93.2436 344.399 92.1078 343.975 91.1416C343.543 90.1753 342.407 89.7346 341.441 90.1668L326.252 96.9136Z" fill="#331A26"/>
<path d="M346.212 97.6003L353.323 94.4473C354.967 93.7183 356.162 92.3792 356.764 90.8196C357.366 89.26 357.374 87.4716 356.637 85.8273L356.29 85.0391C355.561 83.3948 354.23 82.1997 352.662 81.5979C351.102 80.9961 349.314 80.9876 347.67 81.7166L340.558 84.878C338.914 85.607 337.719 86.9377 337.117 88.4972C336.515 90.0568 336.515 91.8537 337.244 93.498L337.592 94.2862C338.321 95.9305 339.66 97.1256 341.22 97.7274C342.779 98.3292 344.568 98.3377 346.212 97.6003ZM351.763 90.9383L344.652 94.0913C343.983 94.3964 343.245 94.3879 342.593 94.1421C341.948 93.8963 341.406 93.4047 341.101 92.7267L340.753 91.9384C340.448 91.2603 340.457 90.5229 340.703 89.8788C340.948 89.2346 341.44 88.6837 342.118 88.387L349.229 85.2255C349.899 84.9289 350.636 84.9289 351.28 85.1747C351.925 85.429 352.475 85.9206 352.781 86.5902L353.128 87.3784C353.425 88.0565 353.425 88.7939 353.179 89.438C352.925 90.0822 352.433 90.6331 351.763 90.9298V90.9383Z" fill="#331A26"/>
<path d="M365.105 88.9972L372.411 91.6755C374.097 92.2943 375.886 92.1671 377.403 91.4636C378.92 90.7686 380.175 89.4803 380.793 87.7936L381.09 86.9884C381.709 85.2932 381.59 83.5133 380.887 81.9877C380.183 80.4705 378.903 79.2245 377.208 78.5973L369.91 75.919C368.224 75.3002 366.435 75.4274 364.918 76.1224C363.401 76.8259 362.147 78.1057 361.528 79.8009L361.231 80.6061C360.604 82.3013 360.731 84.0812 361.435 85.5984C362.138 87.1155 363.418 88.37 365.105 88.9972ZM373.733 88.0648L366.435 85.3865C365.74 85.1322 365.215 84.6152 364.927 83.988C364.638 83.3607 364.579 82.6318 364.842 81.9368L365.138 81.1231C365.393 80.4281 365.91 79.9026 366.529 79.6144C367.156 79.3262 367.893 79.2754 368.588 79.5297L375.886 82.208C376.581 82.4623 377.106 82.9793 377.395 83.6065C377.683 84.2338 377.742 84.9712 377.488 85.6577L377.183 86.4714C376.928 87.1664 376.42 87.6919 375.793 87.9801C375.165 88.2682 374.428 88.3191 373.733 88.0648Z" fill="#331A26"/>
<path d="M377.047 85.5562C376.971 84.4967 376.064 83.7 375.004 83.7678C373.945 83.8356 373.14 84.751 373.216 85.8105L374.301 102.389C374.377 103.449 375.284 104.254 376.344 104.178C377.403 104.11 378.208 103.194 378.132 102.135L377.047 85.5562Z" fill="#331A26"/>
<path d="M350.247 85.9291C349.247 86.2936 348.739 87.4039 349.112 88.3956C349.476 89.3872 350.578 89.9043 351.57 89.5313L367.165 83.7932C368.165 83.4287 368.674 82.3269 368.309 81.3352C367.936 80.335 366.835 79.8265 365.843 80.191L350.247 85.9291Z" fill="#331A26"/>
<path fill-rule="evenodd" clip-rule="evenodd" d="M248.071 195.547H258.7V211.558H248.071V195.547Z" fill="#331A26"/>
<path d="M515 304.402H0V300.537H515V304.402Z" fill="#331A26"/>
</svg>
