<svg width="288" height="686" viewBox="0 0 288 686" fill="none" xmlns="http://www.w3.org/2000/svg">
<path d="M287.962 679.32C287.962 681.286 282.367 685.029 183.521 685.029C76.7839 685.029 72.5977 683.432 72.5977 681.467C72.5977 679.495 77.3875 675.721 183.77 675.721C293.113 675.721 287.962 677.354 287.962 679.32Z" fill="#887799"/>
<path d="M153.128 63.1294C153.128 63.1294 158.368 64.2258 170.098 63.135C181.83 62.0478 148.753 207.547 143.541 210.157C138.326 212.765 127.427 179.035 118.702 141.399C109.975 103.763 112.633 89.5871 112.633 89.5871L153.128 63.1294Z" fill="white"/>
<path d="M130.458 99.4861C130.458 99.4861 131.335 101.561 133.446 102.452C135.558 103.346 129.827 175.265 130.458 178.837C131.091 182.409 136.258 209.376 139.593 210.297C142.928 211.223 151.192 190.451 152.979 182.409C154.765 174.372 140.054 102.676 139.593 101.11C139.131 99.5526 141.282 97.3173 141.769 93.5186C141.769 93.5186 137.173 87.7062 135.558 88.4944C133.941 89.2844 130.458 99.4861 130.458 99.4861Z" fill="#F05654"/>
<path d="M165.933 70.2172C162.518 75.103 159.057 79.9519 155.593 84.799C152.702 88.8395 149.867 93.1494 145.906 96.2393C144.097 94.1794 142.174 92.2228 140.123 90.4029C139.167 89.5575 138.087 88.3485 136.878 87.8797C135.549 87.3702 134.61 88.2211 133.941 89.2843C132.253 91.9829 130.661 94.746 129.137 97.5387C128.374 98.9378 127.632 100.346 126.909 101.764C126.56 102.449 126.215 103.139 125.875 103.827C125.729 104.121 125.591 104.424 125.442 104.717C125.264 105.062 125.346 105.16 125.039 105.075C124.705 104.987 124.343 104.566 124.083 104.353C123.684 104.021 123.284 103.687 122.885 103.355L120.753 101.588L116.36 97.9448C115.332 97.0939 113.848 98.565 114.884 99.4196L122.606 105.826C123.537 106.598 124.64 107.598 125.944 107.107C127.186 106.644 127.653 104.924 128.192 103.848C129.619 101.003 131.125 98.1958 132.708 95.4308C133.5 94.052 134.311 92.6806 135.141 91.3202C135.341 90.9898 135.542 90.6631 135.745 90.3383C135.8 90.2534 135.994 89.8362 136.097 89.8085C136.424 89.7144 137.439 90.8385 137.696 91.0563C140.332 93.3045 142.781 95.7668 145.035 98.3989C145.312 98.72 145.95 98.8142 146.301 98.5595C150.751 95.3607 153.847 90.8145 156.995 86.4159C160.595 81.3788 164.189 76.3416 167.736 71.2712C168.508 70.1711 166.699 69.1208 165.933 70.2172Z" fill="#E4E9EB"/>
<path d="M75.3682 675.337C75.3682 675.337 79.1447 667.479 81.4685 666.577C83.7942 665.674 95.9359 664.186 100.15 661.955C104.362 659.725 129.888 644.983 133.605 642.072C137.322 639.155 135.587 625.773 135.587 625.773C135.587 625.773 163.983 616.31 165.966 616.806C167.948 617.301 167.309 635.442 168.548 637.177C169.788 638.91 173.24 661.997 174 665.177C174.761 668.358 155.91 678.063 150.704 678.063C145.501 678.063 103.867 681.21 96.4324 680.38C88.9975 679.553 75.3682 675.337 75.3682 675.337Z" fill="#EA8A6F"/>
<path d="M170.019 642.832C166.613 644.15 163.184 645.403 159.729 646.579C156.26 647.761 152.777 648.853 149.342 650.123C146.524 651.162 143.122 652.41 140.11 651.484C139.373 651.258 139.052 650.572 139.181 649.85C139.515 648.002 140.285 646.254 140.589 644.392C140.82 642.993 140.455 641.981 139.133 641.348C137.736 640.673 136.198 640.636 134.644 640.748C134.356 641.293 134.017 641.751 133.605 642.072C129.888 644.983 104.362 659.725 100.15 661.955C95.9359 664.186 83.7942 665.674 81.4685 666.577C79.1447 667.479 75.3682 675.337 75.3682 675.337C75.3682 675.337 88.9975 679.553 96.4324 680.38C103.867 681.21 145.501 678.063 150.704 678.063C155.91 678.063 174.761 668.358 174 665.178C173.456 662.896 171.523 650.369 170.019 642.832Z" fill="#4766A8"/>
<path d="M75.368 675.337C75.368 675.337 74.8715 679.798 79.3328 681.782C83.7941 683.767 142.031 682.279 150.457 681.782C158.883 681.286 174.497 678.816 175.239 678.192C175.983 677.568 174.744 665.92 174 665.178C173.256 664.436 158.527 668.003 155.306 668.494C152.083 668.991 147.375 670.986 144.65 673.334C141.924 675.682 79.0855 675.091 75.368 675.337Z" fill="white"/>
<path d="M188.271 675.337C188.271 675.337 190.004 668.897 191.986 667.409C193.97 665.92 205.121 664.435 207.849 663.444C210.573 662.451 232.843 641.883 234.596 640.645C236.348 639.406 232.876 625.325 232.876 625.325L268.566 624.286L270.73 639.155C270.73 639.155 278.639 661.545 279.466 665.177C280.293 668.812 267.077 679.798 244.278 679.307C221.478 678.811 188.271 675.337 188.271 675.337Z" fill="#EA8A6F"/>
<path d="M273.323 646.575C272.077 647.076 270.824 647.563 269.563 648.035C267.18 648.933 264.781 649.787 262.4 650.681C260.074 651.555 257.687 652.246 255.194 651.886C254.433 651.777 253.931 650.762 254.164 650.071C254.636 648.678 255.41 647.43 255.987 646.083C256.421 645.082 256.833 643.929 256.087 642.984C254.957 641.551 252.613 641.184 250.926 640.994C248.946 640.776 246.943 640.8 244.959 640.933C241.987 641.13 239.065 641.344 236.136 641.915C234.748 642.19 233.363 642.517 231.988 642.88C225.622 648.508 210.095 662.627 207.847 663.444C205.121 664.435 193.97 665.919 191.986 667.409C190.004 668.897 188.271 675.337 188.271 675.337C188.271 675.337 221.478 678.811 244.278 679.307C267.077 679.798 280.293 668.812 279.466 665.177C278.956 662.924 275.71 653.44 273.323 646.575Z" fill="#4766A8"/>
<path d="M188.27 675.337C188.27 675.337 187.774 679.798 192.235 681.782C196.695 683.767 251.71 682.279 260.135 681.782C268.566 681.286 279.962 678.816 280.71 678.192C281.452 677.568 280.213 665.92 279.466 665.178C278.726 664.436 257.905 668.646 254.688 669.142C251.465 669.639 246.755 671.632 244.032 673.982C241.306 676.33 191.986 675.091 188.27 675.337Z" fill="white"/>
<path d="M227.12 661.224C219.531 660.646 211.894 661.17 204.449 662.745C203.134 663.018 203.692 665.032 205.002 664.757C212.271 663.221 219.715 662.745 227.12 663.311C228.457 663.415 228.453 661.327 227.12 661.224Z" fill="#2B4F9B"/>
<path d="M249.579 321.674C249.579 321.674 249.763 436.812 249.579 443.209C249.391 449.603 271.424 626.578 270.711 631.907C270.003 637.238 207.69 635.783 204.732 631.889C201.771 627.996 183.691 475.904 179.228 448.185C174.765 420.461 164.746 358.134 164.746 358.134C164.746 358.134 154.157 460.986 155.576 475.909C156.995 490.825 174.713 624.337 174.383 627.944C174.052 631.549 107.105 630.353 106.109 627.4C105.114 624.443 88.376 467.374 87.5048 446.05C86.6335 424.729 100.669 288.59 100.669 288.59C100.669 288.59 232.71 264.816 249.579 321.674Z" fill="#5F7AB3"/>
<path d="M192.04 302.709C192.04 302.709 229.526 304.866 238.465 310.289C247.41 315.71 249.579 321.674 249.579 321.674C249.579 321.674 250.118 279.313 246.325 247.886C242.53 216.46 220.821 118.83 220.821 118.83L206.54 63.3951C206.54 63.3951 170.883 61.1063 167.193 63.1349C161.172 67.8509 143.445 193.149 142.275 204.802C141.105 216.46 119.06 119.917 115.71 88.4611C115.71 88.4611 89.5811 106.513 86.3269 120.807C83.0728 135.104 80.3613 179.271 80.3613 196.235C80.3613 213.204 64.9766 292.014 64.9766 292.014L192.04 302.709Z" fill="#6C4E4E"/>
<path d="M101.92 146.838C101.911 145.496 99.8233 145.491 99.8325 146.838C99.9691 169.617 99.7901 192.404 99.2954 215.179C99.157 221.54 98.9945 227.898 98.8062 234.255C98.7656 235.601 100.855 235.597 100.894 234.255C101.564 211.484 101.922 188.703 101.961 165.918C101.972 159.558 101.957 153.197 101.92 146.838Z" fill="#4B3333"/>
<path d="M34.1289 339.708C34.1289 339.708 35.1939 348.414 38.4813 351.613C41.7687 354.812 45.056 352.324 47.1879 351.168C49.3198 350.013 44.5226 338.552 44.5226 338.552L34.1289 339.708Z" fill="#EA8A6F"/>
<path d="M21.2769 274.58C21.2769 274.58 1.19644 299.331 0.0372738 301.291C-1.12189 303.253 25.1401 293.219 25.1401 293.219L21.2769 274.58Z" fill="#CF944B"/>
<path d="M16.709 337.448C16.9932 337.987 70.6248 353.077 90.8953 358.134C90.8953 358.134 170.35 342.517 190.214 336.031C190.214 336.031 195.687 236.306 195.89 231.239C196.093 226.169 113.8 246.441 113.191 246.644C112.583 246.847 112.785 212.995 112.38 212.386C111.974 211.781 22.586 243.804 21.3714 246.238C20.1551 248.671 14.8853 334.004 16.709 337.448Z" fill="#EFB44B"/>
<path d="M110.706 307.139C98.4147 309.429 86.2952 312.541 74.3067 316.078C62.3478 319.605 50.5181 323.546 38.6976 327.505C32.025 329.74 25.3543 331.981 18.6632 334.161C17.3896 334.574 17.9342 336.592 19.217 336.173C31.1279 332.295 42.9724 328.218 54.8797 324.334C66.7186 320.473 78.6259 316.798 90.6937 313.719C97.501 311.982 104.356 310.439 111.261 309.15C112.581 308.905 112.022 306.893 110.706 307.139Z" fill="#CF944B"/>
<path d="M189.033 333.692C180.192 329.619 170.872 326.756 161.623 323.782C151.93 320.666 142.238 317.549 132.546 314.433C127.038 312.663 121.532 310.893 116.024 309.121C114.743 308.709 114.193 310.725 115.469 311.135C125.105 314.234 134.744 317.331 144.381 320.43C153.876 323.483 163.409 326.44 172.862 329.63C177.986 331.359 183.065 333.231 187.981 335.496C189.192 336.055 190.253 334.255 189.033 333.692Z" fill="#CF944B"/>
<path d="M114.983 246.19L114.608 262.858L117.244 263.67L188.594 285.257C188.594 285.257 191.019 245.524 192.04 230.455C177.382 231.097 125.305 243.643 114.983 246.19Z" fill="#CF944B"/>
<path d="M106.108 222.725C106.908 222.928 149.271 229.818 150.284 235.898C151.297 241.98 147.244 275.426 147.244 275.426L108.124 265.291L106.108 222.725Z" fill="white"/>
<path d="M133.411 251.019C133.806 249.252 133.481 247.108 132.498 245.424C131.506 243.724 129.867 242.547 127.826 242.395C125.155 242.198 122.732 243.564 121.576 245.993C121.035 247.132 120.792 248.45 120.854 249.707C120.888 250.367 121.017 250.973 121.2 251.562C124.963 251.521 128.708 252.193 132.265 253.461C132.835 252.772 133.197 251.988 133.411 251.019Z" fill="#EA8A6F"/>
<path d="M147.814 267.482C142.205 260.573 134.332 255.039 125.395 253.633C119.812 252.752 112.674 253.389 107.72 256.765L108.124 265.291L147.244 275.426C147.244 275.426 147.619 272.332 148.111 267.862C148.01 267.736 147.916 267.607 147.814 267.482Z" fill="#808080"/>
<path d="M153.322 233.268C152.646 230.554 122.495 223.59 112.633 221.383C112.659 223.882 112.681 226.68 112.705 229.482C121.02 231.272 142.967 236.158 144.608 238.13C146.634 240.562 144.608 273.198 144.608 273.198L153.322 274.584C153.322 274.584 154.132 236.509 153.322 233.268Z" fill="#812B2E"/>
<path d="M112.553 215.831C112.553 215.831 113.997 247.045 114.608 258.804C115.217 270.56 115.959 288.59 115.959 288.59L101.434 278.263C101.434 278.263 98.9404 230.394 98.9404 225.329C98.9404 220.259 112.553 215.831 112.553 215.831Z" fill="#EFB44B"/>
<path d="M114.608 262.858L189.574 285.257V310.289L115.827 281.912L114.608 262.858Z" fill="#EFB44B"/>
<path d="M115.315 256.375C115.226 251.982 115.138 247.589 115.051 243.195C115.023 241.858 112.935 241.853 112.963 243.195C113.275 258.804 113.587 274.411 113.901 290.019C113.988 294.412 114.076 298.805 114.165 303.198C114.191 304.54 116.278 304.545 116.252 303.198C115.983 289.749 115.713 276.303 115.444 262.854C115.4 260.695 115.357 258.535 115.315 256.375Z" fill="#CF944B"/>
<path d="M135.684 269.156C135.684 269.156 132.405 258.138 139.442 250.849C146.478 243.564 156.358 247.623 159.123 255.414C159.123 255.414 163.603 267.96 157.748 275.747L135.684 269.156Z" fill="#B3AB75"/>
<path d="M140.748 252.972C139.816 252.139 138.794 251.412 137.703 250.803C137.71 250.727 137.71 250.646 137.684 250.567C137.57 250.216 137.201 249.97 136.828 250.085C136.391 250.212 136.058 250.618 136.082 251.085C136.095 251.325 136.204 251.574 136.427 251.689C137.046 252.003 137.646 252.353 138.218 252.745C138.354 252.837 138.491 252.933 138.626 253.031C138.692 253.079 138.759 253.129 138.825 253.178C138.86 253.204 138.893 253.23 138.928 253.256C138.936 253.262 138.94 253.265 138.954 253.276C139.231 253.496 139.501 253.721 139.763 253.956C140.034 254.199 140.483 254.244 140.748 253.956C140.99 253.692 141.036 253.232 140.748 252.972Z" fill="#A39958"/>
<path d="M147.495 243.719C147.116 243.719 146.799 244.036 146.799 244.415V249.295C146.799 249.673 147.118 249.994 147.495 249.994C147.873 249.994 148.191 249.673 148.191 249.295V244.415C148.191 244.04 147.871 243.719 147.495 243.719Z" fill="#A39958"/>
<path d="M157.945 248.459C157.659 248.195 157.246 248.195 156.962 248.459C155.71 249.616 154.457 250.779 153.205 251.938C152.938 252.185 152.936 252.675 153.205 252.922C153.491 253.186 153.903 253.186 154.189 252.922C155.442 251.763 156.692 250.604 157.945 249.441C158.213 249.195 158.215 248.704 157.945 248.459Z" fill="#A39958"/>
<path d="M158.339 261.961C156.842 262.158 155.332 262.223 153.822 262.156C153.459 262.14 153.112 262.487 153.126 262.852C153.145 263.242 153.433 263.53 153.822 263.548C155.332 263.615 156.842 263.55 158.339 263.352C158.699 263.304 159.053 263.065 159.035 262.655C159.02 262.319 158.727 261.909 158.339 261.961Z" fill="#A39958"/>
<path d="M143.484 261.804C143.006 261.376 142.528 260.949 142.051 260.521C141.913 260.399 141.749 260.318 141.559 260.318C141.389 260.318 141.184 260.394 141.068 260.521C140.946 260.654 140.855 260.827 140.863 261.014C140.872 261.193 140.929 261.383 141.068 261.507C141.544 261.933 142.022 262.359 142.5 262.788C142.637 262.909 142.803 262.991 142.991 262.991C143.163 262.991 143.366 262.915 143.484 262.788C143.606 262.655 143.696 262.479 143.687 262.295C143.679 262.116 143.62 261.926 143.484 261.804Z" fill="#A39958"/>
<path d="M156.851 256.586C156.718 256.464 156.545 256.373 156.359 256.381C156.163 256.39 156.021 256.466 155.868 256.584C155.88 256.575 155.884 256.571 155.906 256.554C155.884 256.571 155.862 256.588 155.838 256.606C155.794 256.639 155.748 256.674 155.701 256.707C155.611 256.774 155.519 256.84 155.425 256.905C155.24 257.036 155.05 257.162 154.856 257.282C154.472 257.523 154.073 257.743 153.667 257.944C153.339 258.107 153.223 258.596 153.416 258.897C153.632 259.233 154.02 259.321 154.369 259.146C155.253 258.708 156.074 258.175 156.851 257.569C156.981 257.468 157.054 257.234 157.054 257.077C157.054 256.907 156.979 256.702 156.851 256.586Z" fill="#A39958"/>
<path d="M39.6133 349.206C39.6133 349.206 40.0175 353.056 42.8564 353.259C45.6933 353.462 47.9231 351.233 47.9231 351.233C47.9231 351.233 47.1128 355.692 49.5455 356.706C51.9783 357.719 56.2329 354.88 56.2329 354.88C56.2329 354.88 56.842 358.123 59.4778 358.123C62.1117 358.123 65.3548 356.706 65.3548 356.706C65.3548 356.706 65.9621 357.922 68.1918 358.123C70.4234 358.326 71.0306 355.286 71.8409 352.449C72.6513 349.61 69.8143 348.597 68.8009 349.206C67.7876 349.813 69.6112 343.733 66.3681 343.327C63.1251 342.921 60.085 346.57 59.4778 345.354C58.8687 344.138 58.4035 342.111 55.7991 342.517C53.1928 342.921 49.7486 345.76 49.7486 345.76C49.7486 345.76 50.1528 342.412 46.9097 342.463C43.6667 342.517 39.6133 349.206 39.6133 349.206Z" fill="#EA8A6F"/>
<path d="M68.9785 345.003C68.3527 343.139 66.3076 342.393 64.4969 342.829C62.9501 343.2 61.6433 344.339 60.5173 345.498C60.353 344.667 59.9599 343.885 59.3268 343.296C58.127 342.174 56.5452 341.919 54.9855 342.314C53.3205 342.735 51.7885 343.543 50.4614 344.612C50.3027 344.075 50.0073 343.576 49.5754 343.189C48.6839 342.386 47.2534 342.072 46.0795 342.135C44.8059 342.203 43.7575 342.875 42.8346 343.709C41.8987 344.555 41.0792 345.516 40.3335 346.53C39.9994 346.984 40.2578 347.696 40.7082 347.958C41.2379 348.268 41.8009 348.04 42.1368 347.584C42.6629 346.869 43.2554 346.203 43.8885 345.583C44.4386 345.048 45.0477 344.462 45.8063 344.269C46.4283 344.11 47.3512 344.263 47.8902 344.542C48.1745 344.689 48.3332 344.789 48.4347 345.103C48.743 346.055 48.1209 347.034 47.9179 347.327C47.5949 347.79 47.833 348.488 48.2926 348.756C48.8113 349.06 49.3982 348.846 49.7194 348.381C50.9284 346.644 52.7114 345.271 54.7141 344.577C55.685 344.239 56.726 343.966 57.636 344.599C58.4334 345.155 58.6863 346.142 58.4168 347.047C58.33 347.34 56.8479 350 56.1631 351.185C55.4894 352.351 57.2927 353.403 57.9646 352.239C58.7712 350.841 59.6941 349.52 60.7573 348.307C61.7688 347.15 62.9058 345.873 64.2754 345.138C65.1558 344.665 66.6565 344.536 67.0182 345.723C67.236 346.441 67.0773 347.31 66.9998 348.041C66.9075 348.909 66.7617 349.767 66.5826 350.62C66.3094 351.931 68.3214 352.492 68.5964 351.176C68.8253 350.072 68.9969 348.957 69.1077 347.837C69.2 346.901 69.2849 345.911 68.9785 345.003Z" fill="#DA765D"/>
<path d="M115.444 262.854L140.863 279.551C140.863 279.551 210.603 301.782 213.914 301.284C217.225 300.783 193.077 283.658 193.077 283.658L115.444 262.854Z" fill="#CF944B"/>
<path d="M169.775 270.204C169.775 270.204 166.922 269.253 170.409 254.197C173.895 239.145 181.819 200.791 181.819 200.791C181.819 200.791 182.135 161.808 181.819 152.139C181.502 142.471 179.759 105.208 181.184 97.6901C182.611 90.1777 202.896 65.2945 206.54 63.3951C211.372 63.8806 226.984 70.3649 233.324 83.0474C239.661 95.7243 238.843 127.317 237.601 129.794C236.359 132.269 232.37 189.539 232.37 195.56C232.37 201.585 232.734 218.898 226.742 236.503C220.751 254.107 204.408 287.859 200.165 291.63C195.923 295.401 169.775 270.204 169.775 270.204Z" fill="#6C4E4E"/>
<path d="M182.512 265.088C182.512 265.088 195.641 275.481 199.977 287.621C204.311 299.759 183.328 287.448 180.553 282.765C177.777 278.082 182.512 265.088 182.512 265.088Z" fill="black"/>
<path d="M169.281 266.636C169.281 266.636 166.702 278.466 164.473 281.506C162.243 284.546 152.715 287.992 150.69 291.844C148.661 295.695 141.771 302.587 139.338 303.6C136.906 304.613 140.149 310.086 144.405 309.073C148.661 308.058 152.715 300.964 154.642 302.384C156.567 303.801 145.418 316.572 142.986 317.586C140.555 318.599 135.082 320.019 134.676 321.842C134.272 323.666 134.879 327.112 138.528 326.909C142.175 326.706 144.001 325.711 144.001 326.918C144.001 328.125 138.528 329.748 139.541 332.585C140.555 335.422 142.581 336.437 146.229 336.232C149.878 336.031 149.271 339.475 154.134 339.274C159 339.071 163.459 337.247 163.459 337.247C163.459 337.247 162.243 341.098 167.107 340.693C171.972 340.287 179.472 334.814 180.889 332.585C182.309 330.355 185.35 300.357 186.362 294.681C187.377 289.005 193.913 281.517 194.925 278.274C190.569 272.129 187.058 268.569 182.512 265.088C178.048 261.669 172.055 259.353 169.281 266.636Z" fill="#EA8A6F"/>
<path d="M180.358 282.499C182.87 285.618 184.979 289.044 186.96 292.542C188.887 287.248 194.035 281.124 194.925 278.274C190.569 272.129 187.058 268.569 182.512 265.088C178.049 261.669 172.055 259.353 169.281 266.636C169.281 266.636 168.384 270.745 167.193 274.743C172.541 274.372 177.255 278.649 180.358 282.499Z" fill="white"/>
<path d="M182.938 174.763C182.712 164.816 182.487 154.86 182.264 144.909C182.009 133.687 181.756 122.461 181.503 111.238C181.472 109.895 179.384 109.891 179.416 111.238C179.864 131.14 180.313 151.043 180.763 170.946C180.985 180.779 181.398 190.65 180.662 200.47C179.929 210.203 177.529 219.629 175.242 229.094C172.621 239.935 170 250.773 167.381 261.612C167.065 262.917 169.079 263.474 169.395 262.166C171.743 252.451 174.092 242.737 176.44 233.017C178.742 223.494 181.341 213.974 182.406 204.211C183.473 194.434 183.159 184.577 182.938 174.763Z" fill="#4B3333"/>
<path d="M240.161 123.697C240.289 122.361 238.201 122.37 238.074 123.697C237.014 134.65 234.912 147.257 233.854 158.21C232.804 169.069 231.528 179.937 231.216 190.848C231.065 196.184 231.322 201.518 231.216 206.853C231.119 211.965 230.517 217.03 229.474 222.04C227.381 232.062 223.728 241.683 219.772 251.1C215.147 262.112 210.154 272.971 204.849 283.671C204.255 284.871 206.055 285.93 206.653 284.725C211.461 275.025 216.002 265.196 220.263 255.244C224.295 245.841 228.154 236.306 230.626 226.353C231.864 221.379 232.743 216.309 233.112 211.19C233.494 205.904 233.245 200.601 233.245 195.303C233.239 184.289 234.482 173.313 235.541 162.365C236.732 150.028 238.971 136.035 240.161 123.697Z" fill="#FCEFDD"/>
<path d="M157.868 318.448C157.347 320.598 155.535 322.042 153.648 323.012C151.29 324.225 148.681 324.858 146.376 326.189C145.213 326.861 146.263 328.666 147.43 327.992C149.887 326.575 152.703 325.951 155.173 324.561C157.336 323.345 159.28 321.484 159.882 319.001C160.197 317.697 158.184 317.141 157.868 318.448Z" fill="#DA765D"/>
<path d="M173.972 325.417C173.435 325.417 172.891 325.894 172.928 326.46C173.048 328.297 171.698 329.716 170.36 330.852C168.568 332.372 166.582 333.692 164.69 335.086C164.236 335.42 164.009 335.99 164.315 336.514C164.577 336.961 165.286 337.225 165.744 336.889C167.854 335.335 170.087 333.868 172.058 332.138C173.701 330.696 175.167 328.758 175.015 326.46C174.978 325.897 174.563 325.417 173.972 325.417Z" fill="#DA765D"/>
<path d="M198.544 62.9448C192.137 71.3045 186.552 80.2916 181.941 89.7661C179.049 95.7059 176.538 101.83 174.423 108.091C174.135 108.94 175.479 109.304 175.765 108.459C179.501 97.4022 184.505 86.7889 190.629 76.8566C193.575 72.0797 196.783 67.4633 200.224 63.0297C199.688 63.002 199.125 62.9744 198.544 62.9448Z" fill="#4B3333"/>
<path d="M87.5039 117.385C91.4262 122.337 95.1068 127.478 98.492 132.817C100.724 136.328 102.83 139.92 104.816 143.582C105.244 144.367 106.446 143.667 106.017 142.877C100.875 133.408 94.8926 124.406 88.1776 115.982C87.9358 116.449 87.7106 116.918 87.5039 117.385Z" fill="#4B3333"/>
<path d="M145.286 36.4613C145.436 27.0292 135.915 22.6104 135.915 22.6104C135.915 22.6104 137.625 6.69591 124.51 4.63046C112.987 2.81604 107.508 7.37701 106.347 8.50664C106.49 7.80155 106.741 7.11122 106.942 6.56855C107.601 4.78182 108.538 3.10952 109.653 1.56828C109.986 1.11606 109.733 0.407273 109.28 0.141478C108.753 -0.164925 108.184 0.0565709 107.852 0.516175C106.519 2.35275 105.473 4.39051 104.742 6.54086C104.564 7.05953 104.422 7.59297 104.328 8.12825C99.5807 6.86203 90.0841 6.65346 82.5126 9.34648C73.8189 12.4419 72.0506 20.1056 72.0506 20.1056C55.8408 23.0497 53.4837 32.6276 58.1979 44.4185C62.9139 56.2076 80.1611 53.6328 80.1611 53.6328C80.1611 53.6328 88.2604 60.9237 102.287 66.8155C116.313 72.7128 137.008 65.3167 141.226 59.7423C145.443 54.1699 142.425 47.6597 142.425 47.6597C142.425 47.6597 145.141 45.8915 145.286 36.4613Z" fill="#5B2B2E"/>
<path d="M118.702 87.2853C118.702 87.2853 123.75 90.4269 134.672 85.8862C145.595 81.3455 153.128 63.1293 153.128 63.1293C153.128 63.1293 136.165 58.9947 131.625 52.7098C127.084 46.4212 118.702 87.2853 118.702 87.2853Z" fill="#EA8A6F"/>
<path d="M135.17 85.6555C138.022 80.4909 138.484 74.2669 137.616 68.4877C136.933 63.9286 135.421 59.6094 133.982 55.2718C133.081 54.4633 132.274 53.6087 131.625 52.7098C127.084 46.4212 118.702 87.2853 118.702 87.2853C118.702 87.2853 123.75 90.4269 134.672 85.8862C134.844 85.8161 135.004 85.7348 135.17 85.6555Z" fill="#1A1A1A"/>
<path d="M76.7695 46.7147C76.7695 46.7147 93.6291 81.2367 97.7673 88.4815C101.906 95.7299 107.668 95.4974 111.768 94.1462C115.869 92.7988 125.668 88.0126 130.113 82.6543C134.56 77.2959 134.681 57.8135 134.681 57.8135C134.681 57.8135 137.834 56.2833 138.831 52.3942C139.831 48.4996 140.4 44.8191 136.896 40.0754C133.393 35.3354 130.892 35.6861 128.05 38.2185C125.207 40.7509 125.013 43.6765 125.013 43.6765C125.013 43.6765 121.375 40.2507 117.18 40.188C112.984 40.1326 109.734 38.9181 107.569 37.0889C105.403 35.2597 97.9944 28.6259 95.8791 30.3222C93.762 32.0148 91.248 40.0846 86.6076 43.1043C81.9655 46.1185 76.7695 46.7147 76.7695 46.7147Z" fill="#EA8A6F"/>
<path d="M91.5887 65.9978C91.513 65.5861 91.3321 65.1708 91.0811 64.8404C90.7008 64.3347 90.208 63.8677 89.5546 63.781C88.9935 63.7053 88.5099 63.9858 88.2053 64.4473C88.0576 64.6706 87.9524 64.9401 87.8657 65.1948C87.8435 65.2613 87.8306 65.3314 87.814 65.3979C87.5999 65.6489 87.4947 65.9885 87.6073 66.3245C87.6497 66.4555 87.7069 66.5792 87.7586 66.7029C87.7697 66.773 87.7752 66.8394 87.7918 66.9059C87.945 67.539 88.3567 68.0761 88.8919 68.4176C89.1836 68.6723 89.5269 68.8514 89.9533 68.8569C90.1563 68.8606 90.3446 68.8237 90.5126 68.748C90.5845 68.7388 90.6547 68.7388 90.723 68.7148C91.1881 68.593 91.5333 68.1057 91.4908 67.6276C91.5038 67.5907 91.5204 67.5575 91.5314 67.5242C91.6939 67.0277 91.6828 66.5035 91.5887 65.9978Z" fill="#1A1A1A"/>
<path d="M112.055 54.6719C112.066 54.5814 112.077 54.4873 112.079 54.3969C112.131 53.8117 112.073 53.2119 111.894 52.6729C111.586 51.7555 110.96 50.8197 110.054 50.4044C109.331 50.0777 108.505 50.098 107.911 50.6831C107.525 51.0615 107.313 51.6245 107.23 52.1524C107.088 53.0734 107.239 54.0332 107.704 54.8454C107.941 55.4508 108.277 56.0082 108.757 56.4771C109.31 57.0197 110.117 57.2948 110.828 56.8536C111.363 56.5232 111.658 55.9566 111.872 55.3899C111.887 55.3511 111.891 55.3087 111.904 55.2755C111.972 55.102 112.018 54.9211 112.048 54.742C112.051 54.718 112.051 54.6959 112.055 54.6719Z" fill="#1A1A1A"/>
<path d="M107.311 71.0256C107.228 70.7709 107.071 70.5291 106.831 70.4017C106.569 70.2652 106.318 70.2467 106.027 70.2928C105.035 70.4627 104.044 70.6288 103.053 70.7931C102.811 70.8374 102.549 71.0736 102.429 71.2767C102.3 71.4982 102.245 71.8286 102.324 72.0796C102.407 72.3288 102.564 72.5761 102.804 72.7035C103.066 72.84 103.317 72.8585 103.609 72.8068C104.6 72.6407 105.591 72.4764 106.582 72.3066C106.824 72.2679 107.086 72.0316 107.206 71.8286C107.337 71.6071 107.392 71.2767 107.311 71.0256Z" fill="#DA765D"/>
<path d="M115.2 79.6972C112.051 79.3613 108.821 81.0705 107.256 83.8078C106.975 84.2988 107.14 84.9504 107.631 85.2383C108.114 85.5226 108.777 85.3528 109.057 84.8618C109.144 84.7141 109.233 84.5628 109.329 84.4225C109.367 84.3653 109.408 84.308 109.447 84.2508C109.463 84.2287 109.473 84.2139 109.484 84.1991C109.489 84.1899 109.491 84.1899 109.5 84.1752C109.703 83.9204 109.927 83.6805 110.163 83.4571C110.288 83.339 110.42 83.2264 110.551 83.1175C110.571 83.099 110.589 83.0843 110.608 83.0695C110.615 83.0658 110.613 83.0658 110.624 83.0566C110.695 83.0086 110.765 82.9569 110.835 82.9089C111.104 82.7207 111.387 82.5545 111.678 82.4087C111.806 82.3423 111.935 82.2814 112.066 82.2241C112.094 82.2094 112.155 82.1872 112.184 82.178C112.265 82.1485 112.347 82.1152 112.428 82.0876C112.736 81.9842 113.053 81.8974 113.375 81.8365C113.46 81.8181 113.543 81.8033 113.628 81.7904C113.64 81.7904 113.65 81.7904 113.661 81.7848C113.831 81.7701 114 81.7516 114.17 81.7479C114.515 81.7332 114.859 81.7479 115.2 81.7848C115.763 81.8458 116.245 81.2606 116.245 80.7401C116.245 80.1255 115.763 79.7582 115.2 79.6972Z" fill="#D2665D"/>
<path d="M111.369 40.6271C107.225 40.3724 103.09 39.9848 98.9705 39.4569C98.4094 39.3849 97.9258 39.9903 97.9258 40.4998C97.9258 41.1237 98.4094 41.4744 98.9705 41.5445C103.09 42.0743 107.225 42.4619 111.369 42.7166C112.712 42.796 112.707 40.7084 111.369 40.6271Z" fill="#5B2B2E"/>
<path d="M85.7365 52.0546C85.275 51.8128 84.5515 51.9032 84.3078 52.4311C83.2908 54.6294 82.2738 56.8259 81.2567 59.028C81.0279 59.5245 81.0998 60.1761 81.6314 60.4548C82.091 60.7003 82.8146 60.6117 83.0601 60.0819C84.0771 57.8799 85.0942 55.6834 86.1112 53.485C86.3382 52.9885 86.2662 52.337 85.7365 52.0546Z" fill="#5B2B2E"/>
<path d="M169.19 389.003C167.679 374.914 166.169 360.825 164.657 346.736C164.515 345.415 162.426 345.4 162.57 346.736C164.081 360.825 165.591 374.914 167.103 389.003C167.243 390.325 169.333 390.34 169.19 389.003Z" fill="#EBD1C3"/>
<path d="M156.233 361.632C154.385 375.173 152.539 388.715 150.692 402.256C148.853 415.742 147.015 429.227 145.175 442.709C144.136 450.339 143.095 457.972 142.053 465.608C141.934 466.481 143.275 466.859 143.395 465.975C145.241 452.432 147.089 438.89 148.935 425.349C150.775 411.867 152.613 398.382 154.454 384.896C155.493 377.264 156.534 369.634 157.575 362.001C157.695 361.126 156.353 360.746 156.233 361.632Z" fill="#4766A8"/>
<path d="M152.246 567.644C150.387 548.639 148.529 529.635 146.67 510.629C145.623 499.918 144.575 489.205 143.528 478.493C143.442 477.609 142.05 477.6 142.137 478.493C143.994 497.498 145.854 516.502 147.711 535.508C149.57 554.513 151.428 573.517 153.285 592.523C154.334 603.234 155.382 613.947 156.429 624.659C156.515 625.543 157.907 625.552 157.82 624.659C155.962 605.654 154.105 586.65 152.246 567.644Z" fill="#4766A8"/>
<path d="M243.498 338.209C232.417 337.112 224.062 328.448 219.436 318.889C218.028 315.978 216.913 312.94 215.977 309.848C215.589 308.565 213.572 309.114 213.963 310.404C217.324 321.499 223.524 332.52 234.378 337.722C237.261 339.104 240.312 339.983 243.498 340.296C244.834 340.429 244.825 338.34 243.498 338.209Z" fill="#4766A8"/>
</svg>
