<svg width="357" height="486" viewBox="0 0 357 486" fill="none" xmlns="http://www.w3.org/2000/svg">
<path d="M119.048 38.8629C117.568 26.7608 123.028 14.0506 132.822 6.79216C142.618 -0.466283 156.366 -1.98622 167.505 2.61376C177.149 1.75628 187.098 6.21859 192.874 13.9875C196.395 18.728 198.357 24.4436 199.725 30.1878C201.093 35.932 201.919 41.7996 203.45 47.5037C204.368 50.9192 205.558 54.309 207.534 57.2399C209.51 60.1708 212.34 62.6371 215.733 63.6265C219.126 64.6159 223.095 63.942 225.618 61.4671C226.834 60.274 227.698 58.6279 227.6 56.9273C227.503 55.2267 226.264 53.5576 224.58 53.2995C222.897 53.0414 221.079 54.57 221.07 56.2419C219.808 54.6589 220.293 52.1323 221.801 50.7816C223.31 49.4308 225.544 49.1326 227.523 49.5656C231.483 50.4288 234.534 53.9534 235.535 57.8823C236.536 61.8112 235.727 66.0298 234.411 69.7579C236.883 73.1964 237.253 78.0316 235.329 81.8056C233.405 85.5797 229.278 88.1234 225.039 88.1435L119.045 38.8629H119.048Z" fill="#3D3D3D"/>
<path d="M121.683 38.4099C119.831 37.3574 117.39 37.8421 115.687 39.1268C113.986 40.4116 112.902 42.3503 112.076 44.3147C110.011 49.2273 109.257 54.6819 109.911 59.9701C110.542 65.0691 112.638 71.1116 113.126 76.2249C113.857 83.859 111.216 90.2371 108.993 97.5758C105.541 108.972 101.772 120.232 101.224 132.127C100.895 139.282 102.363 147.255 106.452 153.137C110.35 158.743 117.018 162.099 123.814 162.753C130.611 163.406 137.491 161.545 143.657 157.863C134.772 128.835 147.74 96.2509 137.846 67.5498C134.571 58.0487 133.232 44.9829 121.678 38.4128L121.683 38.4099Z" fill="#FFAD95"/>
<path d="M256.517 155.884C253.571 136.607 247.971 117.453 237.466 101.02C226.961 84.5905 213.399 71.7169 191.908 65.6543C181.598 69.9474 171.956 76.0157 164.196 83.8621C159.002 109.718 156.668 136.145 157.738 161.838C171.626 172.853 189.487 178.749 207.205 178.17C224.922 177.591 242.358 170.539 256.517 155.882V155.884Z" fill="#A9C46C"/>
<path d="M182.765 166.865C182.731 166.865 182.693 166.859 182.659 166.845C182.513 166.785 182.441 166.619 182.498 166.472C185.008 160.203 188.131 152.403 194.371 147.854C196.688 146.165 198.985 145.291 201.196 145.262C203.886 145.225 206.416 146.618 207.477 148.729C208.214 150.195 208.283 151.912 208.349 153.573C208.435 155.692 208.515 157.694 209.929 159.022C210.723 159.767 211.873 160.2 213.548 160.393C214.153 160.461 214.764 160.496 215.372 160.496C221.518 160.496 227.612 157.046 230.646 151.677C233.981 145.778 233.425 137.906 229.295 132.535C228.951 132.087 228.578 131.646 228.214 131.215C227.222 130.042 226.195 128.829 225.642 127.355C224.563 124.476 225.45 120.84 228.074 117.378C228.885 116.306 229.8 115.288 230.683 114.304C232.086 112.741 233.537 111.126 234.578 109.285C236.889 105.201 237.107 101.574 235.252 98.1925C235.174 98.0549 235.226 97.8799 235.366 97.8025C235.507 97.7251 235.679 97.7767 235.756 97.9172C237.718 101.488 237.497 105.299 235.08 109.569C234.007 111.465 232.536 113.102 231.113 114.688C230.239 115.663 229.333 116.673 228.535 117.725C227.351 119.288 224.753 123.335 226.184 127.155C226.7 128.534 227.695 129.71 228.656 130.845C229.023 131.279 229.401 131.729 229.754 132.185C234.021 137.734 234.595 145.867 231.151 151.961C227.707 158.055 220.442 161.758 213.488 160.966C212.352 160.837 210.706 160.539 209.539 159.443C207.953 157.958 207.864 155.741 207.775 153.599C207.709 151.998 207.643 150.344 206.964 148.99C205.997 147.072 203.683 145.801 201.205 145.838C199.114 145.867 196.929 146.702 194.709 148.322C188.604 152.773 185.512 160.49 183.032 166.69C182.986 166.802 182.88 166.871 182.765 166.871V166.865Z" fill="#0F0000"/>
<path d="M144.429 86.678C133.571 84.3349 124.07 76.4312 119.791 66.1788C115.512 55.9264 116.573 43.6148 122.544 34.2486C125.974 31.9285 129.112 28.7739 131.38 25.083C132.722 28.533 135.231 31.418 138.415 32.9552C141.598 34.4923 145.418 34.6644 148.727 33.4169C150.824 35.1949 153.798 36.7063 156.654 37.7329C162.2 42.4046 168.151 46.5916 174.578 49.9756C179.393 56.0095 184.587 62.3245 191.905 65.654C190.747 71.9288 187.406 77.7791 182.591 81.969C177.776 86.156 171.518 88.6539 164.796 88.7715C157.993 88.9923 151.211 88.1434 144.423 86.678H144.429Z" fill="#FFAD95"/>
<path d="M132.28 37.2656C132.191 37.2656 132.105 37.2255 132.048 37.1481C131.208 36.0124 129.934 35.1893 128.555 34.894C127.175 34.5957 125.676 34.8223 124.442 35.5134C124.305 35.5908 124.13 35.5421 124.052 35.4044C123.975 35.2668 124.024 35.0918 124.161 35.0144C125.515 34.2573 127.158 34.0107 128.675 34.3347C130.19 34.6617 131.589 35.5622 132.51 36.8097C132.604 36.9358 132.576 37.1165 132.449 37.2112C132.398 37.2484 132.338 37.2685 132.28 37.2685V37.2656Z" fill="#0F0000"/>
<path d="M136.745 37.6956C136.668 37.6956 136.59 37.6641 136.536 37.6039C136.427 37.4863 136.436 37.3056 136.55 37.1995C137.938 35.9119 139.745 35.1404 141.635 35.0286C143.525 34.9139 145.412 35.4645 146.943 36.5743C147.072 36.6661 147.101 36.8468 147.006 36.9758C146.915 37.1049 146.734 37.1335 146.605 37.0389C145.2 36.0208 143.401 35.496 141.666 35.6021C139.934 35.7054 138.211 36.4424 136.937 37.6211C136.883 37.6727 136.811 37.6985 136.742 37.6985L136.745 37.6956Z" fill="#0F0000"/>
<path d="M120.886 55.3099C120.691 55.3099 120.496 55.2956 120.298 55.2612C119.584 55.135 119.016 54.7278 118.781 54.1743C118.245 52.9067 119.544 51.7338 120.129 51.2893C122.897 49.1728 126.146 47.8335 129.286 46.5373C129.432 46.4771 129.599 46.5459 129.662 46.6922C129.725 46.8384 129.653 47.0076 129.507 47.0678C126.401 48.3497 123.189 49.6747 120.479 51.7452C120.106 52.0292 118.922 53.03 119.312 53.9535C119.498 54.3951 119.997 54.6274 120.399 54.6991C120.866 54.7823 121.351 54.7192 121.861 54.6561L121.965 54.6417C124.546 54.3148 127.167 54.2804 129.756 54.5356L130.049 54.5643C131.153 54.6762 132.294 54.7937 133.29 54.4037C133.892 54.1686 134.431 53.638 134.663 53.053C134.781 52.7604 134.875 52.3131 134.663 51.86C134.597 51.7166 134.658 51.5445 134.801 51.4785C134.944 51.4126 135.116 51.4728 135.182 51.6162C135.417 52.1209 135.42 52.6916 135.194 53.2652C134.901 53.9993 134.25 54.6417 133.496 54.9371C132.372 55.3788 131.159 55.2554 129.986 55.135L129.693 55.1063C127.147 54.854 124.569 54.8912 122.031 55.2096L121.927 55.2239C121.583 55.2669 121.233 55.3128 120.881 55.3128L120.886 55.3099Z" fill="#0F0000"/>
<path d="M140.729 46.2418C141.899 46.2418 142.848 45.0772 142.848 43.6407C142.848 42.2041 141.899 41.0396 140.729 41.0396C139.558 41.0396 138.609 42.2041 138.609 43.6407C138.609 45.0772 139.558 46.2418 140.729 46.2418Z" fill="black"/>
<path d="M126.175 45.8575C127.345 45.8575 128.294 44.6929 128.294 43.2564C128.294 41.8198 127.345 40.6553 126.175 40.6553C125.005 40.6553 124.056 41.8198 124.056 43.2564C124.056 44.6929 125.005 45.8575 126.175 45.8575Z" fill="black"/>
<path d="M138.107 66.7264C138.075 66.7264 138.041 66.7207 138.01 66.7092C134.74 65.5133 131.075 65.3069 127.694 66.1299C127.539 66.1672 127.384 66.0726 127.347 65.9177C127.31 65.7628 127.404 65.608 127.559 65.5707C131.052 64.7218 134.832 64.934 138.207 66.1701C138.357 66.2246 138.434 66.388 138.379 66.5371C138.336 66.6547 138.227 66.7264 138.11 66.7264H138.107Z" fill="#0F0000"/>
<path d="M148.73 33.7038C148.676 33.7038 148.621 33.6895 148.573 33.658C146.287 32.1581 144.776 29.5312 144.626 26.8039C144.618 26.6461 144.738 26.5114 144.896 26.5028C145.051 26.4941 145.188 26.6146 145.197 26.7723C145.338 29.3218 146.749 31.7767 148.885 33.179C149.017 33.2651 149.054 33.4429 148.968 33.5748C148.914 33.658 148.822 33.7038 148.727 33.7038H148.73Z" fill="#0F0000"/>
<path d="M142.946 158.459C137.557 157.654 133.126 153.432 130.829 148.491C128.532 143.55 128.07 137.96 128.09 132.511C128.171 112.878 134.096 93.6554 142.318 75.8262C141.652 69.6231 142.427 63.4487 144.575 57.7905C147.345 50.4833 152.318 44.1311 154.741 36.7035C155.14 35.4789 155.475 34.2199 156.129 33.1101C156.783 32.0002 157.83 31.0424 159.103 30.8531C160.376 30.6638 161.822 31.4668 162.028 32.7373C163.253 31.4209 164.687 30.7843 166.069 30.9248C167.451 31.0653 168.73 31.9744 169.315 33.2334C171.512 32.3415 174.171 33.3825 175.008 35.4101C177.454 35.5793 179.278 37.5007 179.978 39.6372C181.429 44.0709 180.445 48.9433 179.912 53.0271C183.089 57.4263 181.982 63.7441 179.378 68.5018C176.774 73.2595 172.891 77.2658 170.632 82.1985C167.784 88.4073 167.758 95.4879 167.787 102.316C178.748 107.837 188.512 115.706 195.24 126.039C190.23 133.383 184.584 140.269 178.943 147.14C175.441 151.407 171.779 155.804 166.815 158.219C159.763 161.648 151.564 159.75 142.949 158.465L142.946 158.459Z" fill="#FFAD95"/>
<path d="M163.496 137.224C163.462 137.224 163.427 137.218 163.396 137.206C163.247 137.149 163.172 136.986 163.229 136.836C167.012 126.845 168.529 114.591 167.499 102.337C167.485 102.179 167.603 102.041 167.76 102.027C167.918 102.015 168.056 102.13 168.07 102.288C169.105 114.628 167.577 126.968 163.763 137.04C163.72 137.155 163.611 137.226 163.493 137.226L163.496 137.224Z" fill="#0F0000"/>
<path d="M177.869 60.6502C177.832 60.6502 177.795 60.6416 177.757 60.6272C177.611 60.567 177.542 60.3978 177.605 60.2515C178.583 57.9257 179.266 55.4795 179.63 52.9816C179.653 52.8239 179.799 52.7149 179.954 52.7407C180.112 52.7637 180.218 52.9099 180.198 53.0648C179.825 55.6114 179.131 58.1035 178.136 60.4752C178.09 60.5842 177.984 60.6502 177.872 60.6502H177.869Z" fill="#0F0000"/>
<path d="M172.533 58.083C172.496 58.083 172.461 58.0772 172.424 58.0629C172.278 58.0027 172.206 57.8364 172.266 57.6901C175.131 50.6467 175.983 42.9581 174.727 35.4588C174.701 35.3039 174.807 35.1548 174.962 35.129C175.12 35.1032 175.266 35.2093 175.292 35.3642C176.565 42.9696 175.702 50.7643 172.797 57.9081C172.751 58.0199 172.645 58.0859 172.53 58.0859L172.533 58.083Z" fill="#0F0000"/>
<path d="M165.564 55.6397C165.53 55.6397 165.492 55.634 165.458 55.6196C165.312 55.5623 165.237 55.3959 165.297 55.2468C168.045 48.3067 169.335 40.6984 169.031 33.2421C169.025 33.0843 169.149 32.9495 169.307 32.9438C169.461 32.9381 169.599 33.0614 169.605 33.2191C169.912 40.7557 168.604 48.4443 165.831 55.459C165.785 55.5709 165.679 55.6397 165.564 55.6397Z" fill="#0F0000"/>
<path d="M156.929 54.7939C156.886 54.7939 156.843 54.7853 156.803 54.7652C156.659 54.6964 156.602 54.5243 156.671 54.3809C159.96 47.6817 161.712 40.1967 161.741 32.7347C161.741 32.5769 161.87 32.4479 162.028 32.4479C162.185 32.4479 162.314 32.5769 162.314 32.7347C162.286 40.2827 160.511 47.8566 157.184 54.6333C157.135 54.7337 157.032 54.7939 156.926 54.7939H156.929Z" fill="#0F0000"/>
<path d="M203.967 172.371C192.143 168.715 186.135 164.791 172.203 160.481C164.752 158.178 153.662 155.376 145.521 155.376C137.379 155.376 129.412 156.409 122.854 163.98C142.392 171.938 164.053 178.468 185.269 183.776C191.859 181.158 198.154 178.738 203.967 172.371Z" fill="#3D3D3D"/>
<path d="M224.925 77.131C223.591 77.131 222.255 76.8614 221.016 76.3251C220.87 76.2621 220.804 76.0929 220.867 75.9466C220.93 75.8003 221.099 75.7344 221.245 75.7975C223.491 76.7725 226.184 76.7955 228.449 75.8634C230.712 74.9285 232.605 73.0128 233.511 70.7358C233.568 70.5895 233.737 70.5178 233.884 70.5752C234.03 70.6325 234.102 70.8017 234.044 70.948C233.069 73.4 231.111 75.3845 228.67 76.3911C227.477 76.8844 226.204 77.1281 224.928 77.1281L224.925 77.131Z" fill="#0F0000"/>
<path d="M135.085 154.734C135.013 154.734 134.945 154.708 134.887 154.657C133.608 153.447 132.484 152.036 131.546 150.458C131.191 149.862 130.861 149.239 130.571 148.614C128.082 143.26 127.786 137.197 127.807 132.511C127.878 114.949 132.53 96.3913 142.028 75.7832C141.377 69.6002 142.166 63.3455 144.308 57.6902C145.604 54.2746 147.402 51.0254 149.14 47.8794C151.128 44.2831 153.184 40.5636 154.474 36.6146C154.54 36.4081 154.606 36.2016 154.672 35.9923C154.993 34.9685 155.329 33.9102 155.888 32.9639C156.68 31.6246 157.838 30.7528 159.066 30.5692C160.25 30.3914 161.684 31.008 162.174 32.1896C163.379 31.051 164.758 30.5033 166.103 30.6409C167.497 30.7786 168.788 31.6475 169.462 32.8778C171.681 32.1236 174.271 33.1388 175.209 35.1405C177.48 35.3757 179.45 37.0878 180.256 39.5484C181.544 43.4916 180.944 47.7503 180.417 51.5072C180.348 51.9976 180.279 52.4822 180.216 52.9554C183.534 57.6672 182.1 64.137 179.637 68.6395C178.475 70.7617 177.044 72.7577 175.659 74.6906C173.933 77.1024 172.146 79.5945 170.895 82.319C170.219 83.793 169.668 85.4047 169.258 87.1082C169.06 87.9083 168.885 88.7716 168.736 89.6721C168.71 89.8269 168.561 89.933 168.406 89.9072C168.249 89.8814 168.145 89.7351 168.171 89.5774C168.323 88.6626 168.501 87.785 168.702 86.9706C169.12 85.2327 169.682 83.5865 170.374 82.0781C171.644 79.3049 173.448 76.7898 175.191 74.355C176.565 72.4365 177.988 70.4519 179.132 68.3613C181.529 63.9822 182.932 57.6959 179.685 53.1963C179.642 53.1361 179.625 53.0644 179.634 52.9927C179.7 52.4822 179.774 51.9603 179.849 51.4269C180.368 47.7331 180.959 43.5461 179.711 39.729C179.138 37.9797 177.56 35.8776 174.994 35.6998C174.885 35.6912 174.79 35.6252 174.747 35.522C173.958 33.6149 171.472 32.6713 169.427 33.5001C169.287 33.5575 169.123 33.4944 169.06 33.3539C168.515 32.1781 167.331 31.3378 166.046 31.2088C164.753 31.0768 163.399 31.6877 162.243 32.9323C162.169 33.0126 162.054 33.0442 161.951 33.0126C161.845 32.9811 161.767 32.8922 161.75 32.7832C161.564 31.6447 160.227 30.9736 159.152 31.1371C158.094 31.2948 157.084 32.0662 156.381 33.2564C155.854 34.1483 155.533 35.1721 155.22 36.1644C155.154 36.3737 155.088 36.5831 155.019 36.7924C153.712 40.793 151.644 44.5384 149.642 48.1576C147.913 51.2835 146.126 54.5155 144.844 57.8938C142.725 63.4889 141.951 69.6805 142.607 75.8004C142.613 75.8521 142.605 75.9037 142.582 75.9524C133.098 96.5146 128.452 115.018 128.38 132.517C128.36 137.143 128.653 143.128 131.093 148.376C131.374 148.984 131.692 149.589 132.039 150.169C132.951 151.7 134.044 153.074 135.283 154.247C135.398 154.356 135.403 154.536 135.294 154.651C135.237 154.711 135.163 154.74 135.085 154.74V154.734Z" fill="#0F0000"/>
<path d="M138.446 85.0639C138.409 85.0639 138.371 85.0553 138.334 85.041C136.806 84.3928 135.3 83.6243 133.863 82.7553C127.425 78.8608 122.332 73.0162 119.524 66.2941C116.467 58.9697 116.057 50.6214 118.365 42.7894C118.738 41.5161 119.191 40.2486 119.713 39.0154C119.776 38.8691 119.943 38.8003 120.089 38.8634C120.235 38.9265 120.304 39.0928 120.241 39.2391C119.728 40.4493 119.283 41.6997 118.916 42.95C116.642 50.6559 117.046 58.8664 120.052 66.0704C122.813 72.6807 127.821 78.4306 134.156 82.262C135.569 83.1167 137.049 83.8738 138.552 84.5104C138.698 84.5735 138.767 84.7398 138.704 84.8861C138.658 84.9951 138.552 85.061 138.44 85.061L138.446 85.0639Z" fill="#0F0000"/>
<path d="M199.141 134.258C195.977 134.258 192.376 132.319 191.26 131.668C191.122 131.588 191.076 131.413 191.157 131.275C191.237 131.138 191.412 131.092 191.55 131.172C193.981 132.586 197.446 133.959 199.967 133.63C200.463 132.904 200.965 132.173 201.472 131.436C205.774 125.184 210.222 118.717 212.998 111.895C215.438 105.889 217.856 96.8127 215.493 87.6758C215.453 87.5238 215.545 87.3661 215.699 87.326C215.854 87.2858 216.009 87.3776 216.049 87.5324C218.453 96.8213 216.006 106.027 213.531 112.112C210.732 118.995 206.267 125.485 201.948 131.763C201.418 132.534 200.89 133.3 200.371 134.06C200.325 134.126 200.256 134.169 200.179 134.18C199.843 134.232 199.496 134.258 199.146 134.258H199.141Z" fill="#0F0000"/>
<path d="M200.13 134.183C200.015 134.183 199.906 134.115 199.863 134.003C199.063 131.964 197.294 129.125 195.014 126.208C194.916 126.082 194.939 125.904 195.062 125.807C195.186 125.709 195.366 125.732 195.464 125.855C197.778 128.812 199.574 131.706 200.394 133.793C200.451 133.94 200.379 134.106 200.233 134.166C200.199 134.181 200.164 134.186 200.127 134.186L200.13 134.183Z" fill="#0F0000"/>
<path d="M181.727 111.522C181.598 111.522 181.477 111.433 181.448 111.301C181.414 111.146 181.509 110.991 181.664 110.957C184.612 110.274 188.498 107.604 190.508 104.883C191.305 103.802 192.045 102.646 192.762 101.528C193.774 99.9474 194.818 98.3127 196.054 96.8501C198.412 94.0569 201.403 92.3591 204.474 92.0724C210.545 91.5045 214.219 93.75 216.76 99.5774C216.823 99.7237 216.757 99.8929 216.611 99.956C216.464 100.019 216.295 99.9531 216.232 99.8069C213.806 94.2462 210.304 92.1039 204.526 92.6431C201.603 92.9155 198.75 94.5416 196.49 97.2201C195.28 98.654 194.245 100.274 193.241 101.837C192.521 102.964 191.775 104.129 190.964 105.224C188.882 108.04 184.853 110.805 181.787 111.516C181.764 111.522 181.744 111.525 181.721 111.525L181.727 111.522Z" fill="#0F0000"/>
<path d="M192.774 83.7728C189.686 83.7728 186.382 82.7862 184.125 80.5293C184.013 80.4174 184.013 80.2367 184.125 80.1249C184.237 80.013 184.417 80.013 184.529 80.1249C187.885 83.4802 194.033 83.9133 197.672 82.2127C200.122 81.0684 202.143 79.6202 203.683 77.9081C205.975 75.3586 207.974 73.6436 212.858 74.7678C213.012 74.8022 213.107 74.9571 213.073 75.112C213.038 75.2668 212.883 75.3643 212.728 75.327C208.143 74.2717 206.339 75.8146 204.111 78.2924C202.519 80.0618 200.434 81.5559 197.916 82.7317C196.474 83.4057 194.664 83.7756 192.774 83.7756V83.7728Z" fill="#0F0000"/>
<path d="M47.7891 268.423C55.2941 260.201 63.2236 252.369 72.0766 245.38C74.1099 252.728 75.8506 260.155 77.8839 267.273C69.5271 273.318 57.5654 273.878 47.7891 268.423Z" fill="#3D3D3D"/>
<path d="M38.8438 275.182C41.7489 285.5 43.7306 295.845 45.0756 306.24C45.4341 308.985 45.7467 311.735 46.0162 314.491C34.697 320.594 21.9409 323.7 9.15046 323.834C7.35234 323.852 5.46532 323.789 3.91957 322.879C2.10137 321.81 1.08903 319.759 0.552753 317.717C0.547017 317.697 0.541282 317.671 0.535547 317.651C-0.800855 312.452 0.403628 306.662 3.70448 302.429C7.85708 297.103 14.5792 294.654 20.4755 291.362C27.6565 287.359 33.9628 281.801 38.841 275.185L38.8438 275.182Z" fill="#FFD65A"/>
<path d="M45.0756 306.241C45.434 308.985 45.7466 311.736 46.0162 314.492C34.6969 320.594 21.9409 323.7 9.15044 323.835C7.35232 323.852 5.4653 323.789 3.91955 322.88C2.10136 321.81 1.08902 319.76 0.552734 317.718C12.913 317.118 31.3215 312.478 45.0756 306.241Z" fill="#3D3D3D"/>
<path d="M31.3675 311.018C31.2356 311.018 31.1152 310.926 31.0865 310.791C29.621 303.848 26.3288 297.399 21.5625 292.139C21.4564 292.022 21.465 291.841 21.5825 291.735C21.7001 291.629 21.8808 291.637 21.9869 291.755C26.8192 297.089 30.1602 303.631 31.6457 310.674C31.6773 310.829 31.5798 310.981 31.4249 311.015C31.4048 311.018 31.3847 311.021 31.3647 311.021L31.3675 311.018Z" fill="#0F0000"/>
<path d="M27.6909 298.308C27.5676 298.308 27.4529 298.228 27.4156 298.102C27.3726 297.95 27.4586 297.792 27.6106 297.746C28.2674 297.554 28.8151 296.938 29.0015 296.172C29.208 295.32 28.9757 294.468 28.7434 293.903C28.4366 293.158 27.9662 292.467 27.5103 291.801L26.0534 289.668C25.9645 289.536 25.9989 289.358 26.128 289.269C26.2599 289.18 26.4377 289.215 26.5266 289.344L27.9834 291.477C28.4566 292.168 28.9442 292.882 29.274 293.685C29.6525 294.609 29.75 295.515 29.5579 296.307C29.3227 297.267 28.6201 298.05 27.7684 298.297C27.7426 298.306 27.7139 298.308 27.6881 298.308H27.6909Z" fill="#0F0000"/>
<path d="M30.5818 294.847C30.467 294.847 30.3581 294.778 30.3151 294.666C30.2577 294.52 30.3294 294.353 30.4757 294.293C31.2041 294.006 31.7088 293.143 31.7059 292.197C31.7031 291.428 31.4278 290.628 30.8169 289.607C30.6649 289.355 30.5072 289.108 30.3495 288.859C29.9824 288.285 29.6038 287.694 29.3257 287.052C29.2626 286.906 29.3285 286.736 29.4748 286.676C29.621 286.613 29.7902 286.679 29.8505 286.825C30.1114 287.428 30.4785 287.998 30.8313 288.552C30.9919 288.804 31.1553 289.057 31.3102 289.315C31.7232 290.006 32.2738 291.058 32.2795 292.197C32.2852 293.373 31.6314 294.457 30.6879 294.829C30.6535 294.844 30.6162 294.85 30.5818 294.85V294.847Z" fill="#0F0000"/>
<path d="M64.9898 265.412C59.2886 274.488 52.9478 282.9 46.1396 290.869C44.3444 292.977 42.5147 295.054 40.6535 297.104C28.5341 292.805 17.6737 285.429 8.99284 276.034C7.77402 274.712 6.5552 273.273 6.19099 271.515C5.76368 269.45 6.60682 267.322 7.75968 265.555C7.77115 265.535 7.78549 265.518 7.79696 265.498C10.7565 261.018 15.8555 258.027 21.2126 257.634C27.9462 257.141 34.2726 260.482 40.6736 262.647C48.4597 265.286 56.8137 266.235 64.9927 265.415L64.9898 265.412Z" fill="#FFD65A"/>
<path d="M46.1367 290.87C44.3415 292.978 42.5118 295.054 40.6506 297.104C28.5312 292.806 17.6708 285.43 8.98991 276.035C7.77109 274.712 6.55227 273.273 6.18806 271.515C5.76075 269.45 6.60389 267.322 7.75675 265.556C16.495 274.32 32.2852 284.856 46.1367 290.873V290.87Z" fill="#3D3D3D"/>
<path d="M33.6124 284.004C33.555 284.004 33.4948 283.987 33.4432 283.95C33.3141 283.858 33.2854 283.677 33.3801 283.548C37.5441 277.804 40.1194 271.033 40.822 263.973C40.8364 263.815 40.9798 263.7 41.1346 263.715C41.2924 263.729 41.4071 263.869 41.3927 264.027C40.6787 271.188 38.0689 278.057 33.8418 283.884C33.7844 283.961 33.6984 284.002 33.6095 284.002L33.6124 284.004Z" fill="#0F0000"/>
<path d="M41.7031 273.055C41.2414 273.055 40.794 272.94 40.4183 272.708C40.2835 272.625 40.2405 272.447 40.3237 272.312C40.4068 272.177 40.5847 272.134 40.7194 272.217C41.3016 272.576 42.1275 272.567 42.8216 272.192C43.593 271.776 44.0662 271.03 44.33 270.48C44.677 269.751 44.872 268.94 45.0613 268.157L45.6664 265.644C45.7037 265.49 45.8586 265.395 46.0134 265.432C46.1683 265.469 46.2629 265.624 46.2257 265.779L45.6205 268.291C45.4255 269.106 45.2219 269.946 44.8491 270.729C44.4189 271.63 43.8109 272.312 43.094 272.699C42.6552 272.937 42.1734 273.055 41.7031 273.055Z" fill="#0F0000"/>
<path d="M45.9532 272.768C45.5976 272.768 45.2534 272.696 44.9494 272.544C44.8089 272.475 44.7487 272.303 44.8204 272.16C44.8892 272.019 45.0613 271.959 45.2047 272.031C45.9073 272.378 46.8852 272.174 47.5821 271.537C48.1499 271.018 48.56 270.279 48.907 269.14C48.9931 268.859 49.0705 268.575 49.1479 268.291C49.3257 267.634 49.5121 266.958 49.8018 266.318C49.8678 266.175 50.0369 266.112 50.1803 266.175C50.3237 266.241 50.3868 266.41 50.3237 266.553C50.0513 267.15 49.8735 267.806 49.7014 268.44C49.624 268.73 49.5437 269.02 49.4577 269.306C49.2225 270.078 48.8124 271.193 47.9721 271.959C47.3957 272.484 46.6558 272.768 45.9561 272.768H45.9532Z" fill="#0F0000"/>
<path d="M50.2945 273.599C49.5804 273.599 48.8893 273.384 48.3559 272.963C48.2326 272.865 48.2096 272.685 48.31 272.561C48.4104 272.438 48.5882 272.415 48.7115 272.515C49.4915 273.132 50.7419 273.195 51.7514 272.667C52.8813 272.077 53.5294 270.978 53.8735 270.164C54.3209 269.1 54.5217 267.927 54.7167 266.794C54.7425 266.639 54.8916 266.533 55.0465 266.559C55.2013 266.585 55.3075 266.734 55.2816 266.889C55.0838 268.053 54.8773 269.258 54.4041 270.385C54.0227 271.288 53.3 272.504 52.0181 273.175C51.4732 273.462 50.8767 273.602 50.2974 273.602L50.2945 273.599Z" fill="#0F0000"/>
<path d="M195.357 357.792C197.164 362.114 200.39 365.842 204.299 368.42C216.998 376.8 225.045 383.944 232.002 400.001C236.7 400.184 244.11 399.654 248.498 399.258C251.578 387.91 251.182 372.659 243.697 361.882C236.826 352.105 223.445 344.15 211.744 341.73C208.753 341.11 205.644 340.783 202.653 341.394C199.662 342.005 196.78 343.651 195.208 346.269C193.637 348.888 193.215 352.676 195.354 357.792H195.357Z" fill="#F9E6CF"/>
<path d="M276.735 465.246C285.665 469.801 296.503 470.449 305.582 467.174C306.884 463.156 307.217 458.825 306.938 454.805C304.036 449.511 298.108 446.643 292.318 444.919C289.476 444.073 286.405 443.425 283.583 444.334C280.259 445.407 277.905 448.504 276.818 451.825C275.731 455.143 275.714 458.705 276.735 465.249V465.246Z" fill="#605678"/>
<path d="M109.229 400.551C112.842 386.101 121.649 373.009 133.195 364.575C139.062 363.009 145.131 362.192 151.985 361.882C158.093 373.072 175.647 376.427 178.564 398.917C161.331 401.81 128.781 402.585 109.229 400.551Z" fill="#3D3D3D"/>
<path d="M107.39 395.883H276.204C278.708 395.883 280.741 397.916 280.741 400.42V481.112C280.741 483.615 278.708 485.648 276.204 485.648H107.39C97.4936 485.648 89.458 477.613 89.458 467.716V413.815C89.458 403.919 97.4936 395.883 107.39 395.883Z" fill="#F5F5F7"/>
<path d="M151.873 485.935C141.764 485.935 133.539 477.71 133.539 467.601V395.883C133.539 395.725 133.668 395.596 133.826 395.596C133.984 395.596 134.113 395.725 134.113 395.883V467.601C134.113 477.395 142.079 485.361 151.873 485.361C152.031 485.361 152.16 485.49 152.16 485.648C152.16 485.806 152.031 485.935 151.873 485.935Z" fill="#0F0000"/>
<path d="M218.326 485.935C218.168 485.935 218.039 485.806 218.039 485.648C218.039 485.49 218.168 485.361 218.326 485.361C228.119 485.361 236.086 477.395 236.086 467.601V395.883C236.086 395.725 236.215 395.596 236.373 395.596C236.531 395.596 236.66 395.725 236.66 395.883V467.601C236.66 477.71 228.435 485.935 218.326 485.935Z" fill="#0F0000"/>
<path d="M185.099 485.935C184.942 485.935 184.812 485.806 184.812 485.648V395.883C184.812 395.725 184.942 395.596 185.099 395.596C185.257 395.596 185.386 395.725 185.386 395.883V485.648C185.386 485.806 185.257 485.935 185.099 485.935Z" fill="#0F0000"/>
<path d="M280.741 425.117H89.4577C89.3 425.117 89.1709 424.988 89.1709 424.831C89.1709 424.673 89.3 424.544 89.4577 424.544H280.741C280.899 424.544 281.028 424.673 281.028 424.831C281.028 424.988 280.899 425.117 280.741 425.117Z" fill="#0F0000"/>
<path d="M280.741 458.484H89.4577C89.3 458.484 89.1709 458.355 89.1709 458.198C89.1709 458.04 89.3 457.911 89.4577 457.911H280.741C280.899 457.911 281.028 458.04 281.028 458.198C281.028 458.355 280.899 458.484 280.741 458.484Z" fill="#0F0000"/>
<path d="M56.2912 352.338C56.8045 357.09 55.2158 361.824 53.1509 366.135C51.0861 370.445 48.5165 374.526 46.8561 379.006C45.1956 383.488 44.5045 388.573 46.1707 393.431C45.2358 395.209 44.2865 397.325 45.144 399.14C45.6946 400.302 46.8618 401.025 47.9889 401.641C49.7526 402.602 51.5708 403.462 53.432 404.214C54.5619 404.67 55.7922 405.094 56.9795 404.816C58.0205 404.572 58.878 403.812 59.4659 402.92C60.0538 402.028 60.4065 401.005 61.0231 400.167C64.387 399.413 67.2061 397.027 69.1877 394.205C71.1694 391.383 72.4226 388.128 73.7361 386.003C76.9653 389.074 81.571 390.156 85.9702 390.864C90.3723 391.572 94.9551 392.077 98.7951 394.343C101.568 395.98 104.204 398.584 107.407 398.251C109.693 398.013 111.517 396.304 113.131 394.667C121.789 385.885 129.854 376.516 137.436 366.459C126.948 362.731 116.303 359.453 105.534 356.631C93.4208 353.459 81.1121 350.861 68.6285 349.869C64.9491 349.576 61.0059 349.484 56.2883 352.335L56.2912 352.338Z" fill="#605678"/>
<path d="M71.7232 384.621C71.6544 384.621 71.5856 384.595 71.5311 384.546C66.9368 380.35 64.1235 374.382 63.808 368.171C63.7994 368.013 63.9227 367.878 64.0805 367.87C64.2353 367.858 64.373 367.984 64.3816 368.142C64.6885 374.205 67.4358 380.029 71.9182 384.124C72.0358 384.23 72.0444 384.411 71.9354 384.529C71.8781 384.592 71.8006 384.623 71.7232 384.623V384.621Z" fill="#0F0000"/>
<path d="M59.2075 400.526C59.2075 400.526 59.1845 400.526 59.1702 400.526C54.6677 399.961 50.4119 397.89 47.1885 394.695C47.0766 394.584 47.0738 394.403 47.1885 394.291C47.3003 394.179 47.481 394.176 47.5928 394.291C50.7274 397.397 54.8628 399.41 59.2419 399.958C59.3996 399.978 59.5115 400.121 59.4914 400.279C59.4742 400.425 59.3509 400.532 59.2075 400.532V400.526Z" fill="#0F0000"/>
<path d="M47.7021 400.081C47.6705 400.081 47.6361 400.075 47.6046 400.064C47.4554 400.009 47.378 399.846 47.4325 399.697C47.7365 398.845 48.2412 398.068 48.8951 397.443C49.0098 397.334 49.1905 397.337 49.2994 397.451C49.4084 397.566 49.4056 397.747 49.2908 397.856C48.7029 398.418 48.247 399.12 47.9716 399.889C47.9286 400.007 47.8196 400.078 47.7021 400.078V400.081Z" fill="#0F0000"/>
<path d="M51.1631 401.96C51.1201 401.96 51.0771 401.951 51.0369 401.931C50.8935 401.862 50.8362 401.69 50.905 401.547C51.2692 400.804 51.7424 400.124 52.3074 399.522C52.4163 399.408 52.597 399.402 52.7117 399.511C52.8264 399.62 52.8322 399.8 52.7232 399.915C52.1955 400.474 51.7567 401.108 51.4183 401.799C51.3696 401.9 51.2664 401.96 51.1602 401.96H51.1631Z" fill="#0F0000"/>
<path d="M54.8453 403.09C54.7823 403.09 54.7192 403.069 54.6647 403.026C54.5414 402.926 54.5213 402.745 54.6217 402.622L56.1645 400.703C56.2649 400.58 56.4456 400.56 56.5689 400.66C56.6922 400.761 56.7123 400.942 56.6119 401.065L55.069 402.983C55.0117 403.055 54.9285 403.09 54.8453 403.09Z" fill="#0F0000"/>
<path d="M231.339 396.305C228.199 398.369 225.561 398.094 221.987 397.779C214.694 400.319 207.402 402.858 200.393 405.439C195.793 414.142 192.457 423.511 190.522 433.165C190.221 434.67 189.868 436.325 188.652 437.263C186.92 438.596 184.436 437.802 182.417 436.959C179.429 435.711 176.444 434.461 173.455 433.213C170.326 431.906 167.201 430.598 164.072 429.293C163.074 428.877 162.016 428.407 161.445 427.492C160.645 426.21 161.078 424.544 161.577 423.116C163.111 418.722 165.053 414.469 167.37 410.431C169.443 406.818 171.841 403.325 173.06 399.342C174.278 395.358 174.112 390.652 171.129 387.641C168.322 380.976 166.53 373.887 165.83 366.689C165.566 363.979 165.477 361.142 166.544 358.636C168.087 355.008 171.78 352.74 175.52 351.495C184.597 348.475 188.182 352.826 195.753 358.673C209.18 369.049 225.913 380.251 231.339 396.299V396.305Z" fill="#88C273"/>
<path d="M200.031 405.313C199.939 405.313 199.848 405.267 199.793 405.184C197.476 401.696 197.281 396.893 199.311 393.23C201.339 389.568 205.512 387.185 209.699 387.3C214.379 387.429 219.048 390.503 222.185 395.53C222.268 395.665 222.228 395.843 222.093 395.926C221.959 396.009 221.781 395.969 221.698 395.834C218.663 390.971 214.172 387.997 209.681 387.873C205.698 387.764 201.738 390.03 199.81 393.509C197.883 396.987 198.067 401.553 200.269 404.865C200.358 404.997 200.321 405.175 200.189 405.264C200.14 405.295 200.086 405.313 200.031 405.313Z" fill="#0F0000"/>
<path d="M202.3 402.677C202.185 402.677 202.077 402.608 202.033 402.494C200.855 399.465 201.658 395.769 203.989 393.506C206.318 391.24 210.038 390.543 213.029 391.805C215.486 392.843 217.259 394.968 218.73 396.878C218.827 397.005 218.802 397.185 218.678 397.28C218.552 397.377 218.374 397.352 218.277 397.228C216.851 395.376 215.137 393.317 212.808 392.333C210.02 391.157 206.559 391.808 204.391 393.916C202.223 396.024 201.474 399.465 202.57 402.284C202.627 402.431 202.555 402.597 202.406 402.654C202.372 402.669 202.337 402.674 202.303 402.674L202.3 402.677Z" fill="#0F0000"/>
<path d="M336.611 325.647C338.352 331.804 342.737 337.164 348.424 340.092C350.012 340.91 351.868 341.724 352.453 343.413C352.981 344.939 352.249 346.582 351.535 348.031C349.333 352.493 347.09 357.018 343.772 360.729C340.457 364.44 335.874 367.302 331.429 367.099C323.663 359.502 319.419 349.106 315.378 339.023C314.305 336.347 313.213 333.496 313.723 330.66C314.472 326.502 318.584 323.62 322.751 322.931C326.921 322.246 331.157 323.284 336.608 325.647H336.611Z" fill="#FFD65A"/>
<path d="M334.09 362.003C333.998 362.003 333.907 361.957 333.852 361.877C333.763 361.745 333.801 361.567 333.932 361.478C338.524 358.412 342.565 354.366 345.625 349.772C345.713 349.64 345.891 349.605 346.023 349.691C346.155 349.78 346.19 349.958 346.103 350.09C343.003 354.747 338.905 358.851 334.254 361.957C334.205 361.988 334.15 362.006 334.096 362.006L334.09 362.003Z" fill="#0F0000"/>
<path d="M346.915 347.566C346.866 347.566 346.818 347.554 346.772 347.528C346.634 347.448 346.588 347.273 346.668 347.136C347.598 345.53 348.251 343.795 348.613 341.973C348.644 341.819 348.793 341.715 348.948 341.747C349.103 341.778 349.204 341.928 349.175 342.082C348.805 343.964 348.128 345.759 347.165 347.419C347.11 347.511 347.015 347.563 346.915 347.563V347.566Z" fill="#0F0000"/>
<path d="M314.423 330.296C322.656 335.352 328.882 343.577 331.515 352.874C334.148 362.169 333.155 372.441 328.707 380.939C316.069 373.049 303.428 365.16 291.928 356.634C295.249 343.998 305.492 333.416 314.426 330.296H314.423Z" fill="#F9E6CF"/>
<path d="M329.275 372.651C329.198 372.651 329.12 372.619 329.063 372.559C325.036 368.171 321.156 363.551 317.534 358.828C316.275 357.187 315.059 355.415 315.223 353.385C315.317 352.192 315.911 351.108 316.932 350.25C318.243 349.152 320.133 348.572 321.868 348.736C324.87 349.02 327.517 350.924 329.645 352.453C329.774 352.544 329.803 352.725 329.711 352.854C329.619 352.983 329.439 353.012 329.31 352.92C327.13 351.354 324.658 349.579 321.813 349.309C320.224 349.157 318.498 349.688 317.302 350.692C316.401 351.449 315.88 352.395 315.796 353.433C315.65 355.26 316.8 356.929 317.99 358.481C321.604 363.19 325.472 367.798 329.487 372.172C329.593 372.289 329.588 372.47 329.47 372.576C329.416 372.628 329.347 372.651 329.275 372.651Z" fill="#0F0000"/>
<path d="M330.634 370.033C330.551 370.033 330.471 369.998 330.414 369.929L320.448 357.994C319.851 357.279 319.175 356.468 318.873 355.481C318.584 354.532 318.696 353.259 319.599 352.545C320.431 351.888 321.627 351.891 323.253 352.556C326.201 353.761 328.974 355.565 331.268 357.776C331.383 357.885 331.386 358.068 331.277 358.18C331.168 358.295 330.984 358.298 330.872 358.189C328.63 356.029 325.92 354.265 323.038 353.09C321.621 352.51 320.611 352.479 319.955 352.998C319.269 353.54 319.198 354.578 319.421 355.315C319.688 356.19 320.325 356.953 320.887 357.627L330.852 369.562C330.953 369.683 330.938 369.863 330.815 369.967C330.761 370.013 330.697 370.033 330.632 370.033H330.634Z" fill="#0F0000"/>
<path d="M313.738 403.451C318.263 402.003 322.852 400.383 326.537 397.386C330.222 394.389 332.886 389.726 332.284 385.014C331.742 380.784 329.147 375.378 326.081 372.41C316.921 363.54 305.395 358.653 292.82 354.354C275.352 351.813 257.119 354.833 241.346 363.677C242.92 366.095 243.849 370.156 246.445 377.168C270.064 379.327 290.979 389.697 313.738 403.451Z" fill="#8EB486"/>
<path d="M246.442 377.168C261.022 375.582 277.747 376.938 292.006 380.359C318.892 386.812 318.161 406.201 319.382 419.302C320.53 431.584 323.569 444.751 329.672 453.896C321.642 457.851 303.188 462.436 289.414 460.816C284.92 458.364 281.625 453.635 280.741 447.942C280.28 440.139 280.119 434.997 280.194 428.516C280.268 422.035 280.675 411.424 277.449 405.803C272.367 396.944 258.665 396.181 249.293 395.883C249.293 390.253 248.886 383.285 246.445 377.168H246.442Z" fill="#F95454"/>
<path d="M277.206 402.508C277.114 402.508 277.025 402.465 276.971 402.384C273.048 396.741 266.968 392.579 260.286 390.965C260.131 390.928 260.036 390.773 260.074 390.618C260.111 390.463 260.266 390.368 260.421 390.406C267.237 392.052 273.44 396.296 277.441 402.055C277.53 402.184 277.498 402.364 277.369 402.453C277.321 402.488 277.263 402.505 277.206 402.505V402.508Z" fill="#0F0000"/>
<path d="M284.579 414.437C284.433 414.437 284.309 414.328 284.295 414.179C283.515 406.459 280.134 399.118 274.774 393.505C274.665 393.391 274.668 393.21 274.783 393.101C274.897 392.992 275.078 392.995 275.187 393.109C280.633 398.814 284.071 406.276 284.863 414.122C284.88 414.28 284.763 414.42 284.608 414.437C284.599 414.437 284.588 414.437 284.579 414.437Z" fill="#0F0000"/>
<path d="M289.626 459.674C289.526 459.674 289.426 459.62 289.374 459.525C289.296 459.388 289.348 459.213 289.489 459.135C300.791 452.964 314.046 450.509 326.808 452.23C326.965 452.25 327.074 452.396 327.054 452.551C327.034 452.709 326.885 452.818 326.733 452.797C314.089 451.097 300.96 453.526 289.764 459.64C289.721 459.663 289.672 459.674 289.626 459.674Z" fill="#0F0000"/>
<path d="M313.99 331.73C321.665 332.02 329.25 334.431 336.311 338.108C337.443 328.217 341.157 318.65 346.878 310.505C350.458 305.409 354.934 300.588 356.207 294.491C357.128 290.078 356.222 285.432 354.415 281.299C352.606 277.17 349.938 273.479 346.944 269.906C339.233 267.944 331.111 267.844 323.248 269.062C317.065 270.02 310.936 271.821 305.588 275.07C300.239 278.32 295.699 283.106 293.44 288.942C289.898 298.09 292.384 308.716 297.658 316.989C301.937 323.7 307.506 331.486 313.99 331.73Z" fill="#605678"/>
<path d="M333.385 331.661C331.065 331.661 328.742 330.634 326.539 329.473L326.198 329.292C323.723 327.984 321.165 326.634 318.452 326.826C318.292 326.837 318.157 326.717 318.145 326.559C318.134 326.401 318.254 326.264 318.412 326.252C321.288 326.049 323.921 327.439 326.465 328.784L326.806 328.965C329.453 330.359 332.272 331.558 334.965 330.901C335.12 330.864 335.275 330.958 335.312 331.11C335.349 331.265 335.255 331.42 335.103 331.457C334.532 331.598 333.958 331.658 333.385 331.661Z" fill="#0F0000"/>
<path d="M324.361 326.768C324.321 326.768 324.278 326.76 324.238 326.74C324.094 326.671 324.034 326.502 324.1 326.358C326.156 322.022 328.949 318.021 331.651 314.153C332.276 313.258 332.901 312.36 333.521 311.46C336.741 306.762 339.927 301.629 341.399 295.934C343.01 289.708 342.21 283.628 339.205 279.246C339.116 279.114 339.147 278.936 339.279 278.847C339.411 278.758 339.589 278.79 339.678 278.922C342.775 283.439 343.604 289.693 341.952 296.077C340.458 301.856 337.243 307.041 333.991 311.784C333.374 312.684 332.746 313.582 332.118 314.48C329.431 318.328 326.649 322.309 324.616 326.602C324.567 326.705 324.464 326.765 324.358 326.765L324.361 326.768Z" fill="#0F0000"/>
<path d="M319.486 300.909C319.417 300.909 319.345 300.883 319.291 300.832C319.173 300.723 319.167 300.542 319.276 300.427C322.009 297.476 323.71 293.642 324.065 289.636C324.418 285.627 323.414 281.557 321.241 278.173C321.155 278.041 321.195 277.863 321.327 277.777C321.459 277.691 321.636 277.732 321.722 277.863C323.965 281.354 325 285.555 324.636 289.687C324.272 293.823 322.517 297.775 319.698 300.82C319.64 300.881 319.566 300.912 319.488 300.912L319.486 300.909Z" fill="#0F0000"/>
<path d="M307.142 292.708C307.07 292.708 306.996 292.679 306.941 292.624C306.83 292.513 306.827 292.332 306.941 292.22C308.917 290.215 309.393 286.837 308.048 284.365C307.974 284.225 308.025 284.053 308.163 283.975C308.304 283.901 308.476 283.952 308.553 284.09C310.016 286.777 309.497 290.442 307.352 292.622C307.294 292.679 307.222 292.708 307.148 292.708H307.142Z" fill="#0F0000"/>
<path d="M307.296 258.062C317.17 255.062 327.299 252.894 337.434 251.514C338.92 249.645 341.701 249.63 344.085 249.782C346.075 249.908 348.226 250.101 349.717 251.428C351.392 252.92 351.722 255.389 351.736 257.629C351.767 262.65 350.749 267.674 348.771 272.289C348.079 273.898 347.205 275.538 345.716 276.461C344.426 277.262 342.843 277.419 341.323 277.425C339.708 277.431 338.016 277.264 336.674 276.37C335.332 275.475 334.635 274.213 334.483 272.447C327.62 270.591 320.247 273.794 314.417 277.864C307.253 282.865 302.47 286.562 295.587 285.492C296.943 276.109 301.397 265.048 307.296 258.064V258.062Z" fill="#8EB486"/>
<path d="M334.484 272.73C334.337 272.73 334.214 272.618 334.2 272.472C333.537 265.77 334.727 254.852 337.202 251.347C337.294 251.218 337.472 251.187 337.601 251.279C337.73 251.37 337.761 251.548 337.67 251.677C335.264 255.084 334.114 265.807 334.767 272.414C334.782 272.572 334.667 272.713 334.509 272.727C334.501 272.727 334.489 272.727 334.481 272.727L334.484 272.73Z" fill="#0F0000"/>
<path d="M345.057 274.81C344.914 274.81 344.79 274.703 344.773 274.557C343.878 267.072 345.017 259.475 348.068 252.581C348.131 252.435 348.301 252.372 348.447 252.435C348.59 252.498 348.656 252.667 348.593 252.813C345.585 259.613 344.461 267.107 345.344 274.488C345.364 274.646 345.249 274.79 345.094 274.807C345.083 274.807 345.071 274.807 345.06 274.807L345.057 274.81Z" fill="#0F0000"/>
<path d="M230.064 359.726C241.042 366.958 255.657 368.326 267.788 363.259C278.172 366.307 289.916 363.049 296.583 355.094C300.756 353.345 304.295 351.567 307.897 349.103C311.499 346.64 314.593 342.986 315.763 338.785C316.796 335.08 316.655 330.953 316.842 327.11C317.028 323.256 318.141 320.018 319.73 316.502C320.636 314.5 321.783 312.453 321.594 310.264C321.422 308.297 320.191 306.599 318.941 305.071C315.924 301.383 312.483 297.984 308.442 295.461C304.401 292.934 299.718 291.311 294.708 292.048C279.463 297.485 265.514 306.516 254.312 318.197C243.11 329.88 234.673 344.196 230.064 359.729V359.726Z" fill="#37AFE1"/>
<path d="M309.084 334.452C308.989 334.452 308.895 334.403 308.84 334.317C302.31 323.812 297.4 312.421 294.243 300.462C294.203 300.31 294.294 300.153 294.446 300.112C294.598 300.072 294.756 300.164 294.796 300.316C297.939 312.22 302.826 323.557 309.325 334.016C309.408 334.151 309.368 334.328 309.233 334.412C309.187 334.44 309.133 334.455 309.081 334.455L309.084 334.452Z" fill="#0F0000"/>
<path d="M313.321 339.45C313.234 339.45 313.148 339.41 313.091 339.336L310.501 335.92C310.407 335.794 310.43 335.613 310.556 335.519C310.682 335.424 310.863 335.447 310.957 335.573L313.547 338.989C313.642 339.115 313.619 339.295 313.493 339.39C313.441 339.43 313.381 339.447 313.321 339.447V339.45Z" fill="#0F0000"/>
<path d="M267.785 363.546C267.679 363.546 267.578 363.488 267.527 363.385C265.066 358.404 267.458 351.406 271.083 347.781C274.785 344.079 280.472 342.464 285.568 343.669C291.244 345.011 295.571 349.364 296.856 355.028C296.89 355.183 296.796 355.335 296.641 355.372C296.486 355.407 296.334 355.312 296.297 355.157C294.817 348.642 289.715 345.24 285.436 344.228C280.529 343.07 275.055 344.624 271.487 348.189C268.003 351.673 265.691 358.378 268.04 363.133C268.109 363.276 268.052 363.448 267.911 363.517C267.871 363.537 267.828 363.546 267.785 363.546Z" fill="#0F0000"/>
<path d="M273.349 364.575C273.231 364.575 273.12 364.501 273.079 364.383C272.454 362.579 272.876 360.159 273.573 358.558C274.043 357.477 274.662 356.462 275.262 355.481C275.58 354.962 275.907 354.423 276.205 353.887C277.261 351.991 277.725 350.434 277.668 348.986C277.662 348.854 277.748 348.736 277.874 348.699C278.001 348.662 278.135 348.716 278.201 348.828C279.274 350.652 281.795 351.088 283.2 351.185C283.771 351.225 284.359 351.237 284.926 351.248C286.38 351.277 287.883 351.306 289.288 351.799C291.565 352.593 293.252 354.65 294.169 357.744C294.215 357.896 294.126 358.057 293.974 358.1C293.822 358.145 293.662 358.057 293.619 357.905C292.758 354.997 291.195 353.072 289.099 352.338C287.777 351.876 286.323 351.848 284.915 351.819C284.338 351.808 283.742 351.796 283.16 351.756C281.829 351.664 279.572 351.28 278.221 349.812C278.11 351.125 277.619 352.533 276.707 354.168C276.403 354.716 276.071 355.258 275.752 355.782C275.164 356.749 274.553 357.747 274.1 358.791C273.449 360.288 273.048 362.542 273.621 364.199C273.673 364.349 273.593 364.512 273.444 364.564C273.412 364.575 273.381 364.581 273.349 364.581V364.575Z" fill="#0F0000"/>
<path d="M277.951 349.258C277.836 349.258 277.727 349.186 277.681 349.072C273.084 336.918 268.582 324.537 264.3 312.275C264.249 312.125 264.326 311.962 264.475 311.91C264.624 311.859 264.788 311.936 264.839 312.085C269.121 324.342 273.621 336.717 278.215 348.868C278.272 349.017 278.195 349.181 278.048 349.238C278.014 349.249 277.98 349.255 277.948 349.255L277.951 349.258Z" fill="#0F0000"/>
<path d="M275.777 359.052C275.118 359.052 274.461 359.02 273.804 358.957C273.646 358.943 273.532 358.802 273.546 358.645C273.56 358.487 273.701 358.369 273.859 358.386C277.931 358.782 282.138 357.899 285.706 355.891C285.843 355.814 286.018 355.863 286.096 356C286.173 356.138 286.124 356.313 285.987 356.39C282.892 358.131 279.33 359.052 275.777 359.052Z" fill="#0F0000"/>
<path d="M194.233 345.934C201.385 349.378 210.284 348.897 216.398 345.183C225.022 328.745 236.112 313.6 249.18 300.416C251.759 297.815 254.443 295.254 256.356 292.131C258.268 289.008 259.35 285.18 258.4 281.644C257.245 277.339 253.207 274.219 248.862 273.221C244.517 272.223 239.94 273.057 235.739 274.546C226.556 277.801 218.761 284.024 211.38 290.379C203.602 297.075 195.853 304.322 191.652 313.686C187.448 323.049 187.603 335.082 194.236 345.931L194.233 345.934Z" fill="#2B4A77"/>
<path d="M302.418 179.796C306.815 183.877 311.237 187.983 314.865 192.761C318.492 197.539 321.32 203.071 322.094 209.019C322.786 214.316 321.831 219.69 322.077 225.027C322.281 229.369 323.27 233.794 322.166 237.998C320.537 244.207 314.833 248.336 309.961 251.738C300.276 230.008 297.377 205.316 302.415 179.796H302.418Z" fill="#F4EDD3"/>
<path d="M293.566 168.456C296.015 166.171 302.712 149.85 294.495 142.683C291.126 139.744 282.792 139.586 278.321 139.704C268.78 139.953 261.289 144.395 254.099 150.673C245.694 149.755 236.68 145.287 228.963 147.579C221.082 149.916 215.45 156.509 208.925 161.508C200.055 168.302 194.17 173.656 186.275 180.22C192.645 186.681 200.024 192.147 208.381 195.758C237.813 187.453 264.022 179.655 293.569 168.459L293.566 168.456Z" fill="#2B4A77"/>
<path d="M250.626 168.276C250.505 168.276 250.394 168.198 250.353 168.078C248.432 162.136 249.817 155.23 253.881 150.487C253.984 150.366 254.165 150.352 254.285 150.455C254.406 150.558 254.42 150.739 254.317 150.86C250.379 155.454 249.04 162.144 250.901 167.903C250.95 168.055 250.867 168.216 250.718 168.264C250.689 168.273 250.657 168.279 250.629 168.279L250.626 168.276Z" fill="#0F0000"/>
<path d="M260.515 160.309C260.466 160.309 260.417 160.298 260.374 160.272C260.237 160.195 260.188 160.02 260.265 159.882C261.57 157.579 263.064 155.193 265.146 153.346C267.429 151.322 270.191 150.272 272.726 150.464C275.711 150.691 278.31 152.767 278.903 155.397C278.938 155.552 278.84 155.704 278.685 155.741C278.53 155.775 278.378 155.678 278.341 155.523C277.802 153.131 275.422 151.244 272.68 151.035C270.303 150.854 267.693 151.852 265.525 153.774C263.506 155.563 262.043 157.903 260.764 160.163C260.713 160.255 260.615 160.309 260.515 160.309Z" fill="#0F0000"/>
<path d="M287.762 165.336C287.719 165.336 287.673 165.325 287.63 165.305C287.49 165.233 287.435 165.058 287.507 164.917C289.316 161.43 289.686 157.28 288.522 153.529C287.358 149.778 284.705 146.566 281.241 144.714C281.1 144.639 281.048 144.464 281.123 144.326C281.198 144.186 281.372 144.134 281.51 144.209C285.106 146.13 287.859 149.466 289.067 153.36C290.274 157.255 289.89 161.562 288.011 165.181C287.96 165.279 287.859 165.336 287.756 165.336H287.762Z" fill="#0F0000"/>
<path d="M234.667 160.146C234.59 160.146 234.512 160.114 234.458 160.054C234.349 159.939 234.357 159.756 234.472 159.649C238.367 156.033 243.414 153.65 248.682 152.945C248.84 152.924 248.983 153.033 249.003 153.191C249.023 153.349 248.914 153.492 248.757 153.512C243.606 154.203 238.671 156.532 234.859 160.068C234.805 160.12 234.733 160.146 234.664 160.146H234.667Z" fill="#0F0000"/>
<path d="M222.828 178.196C222.725 178.196 222.628 178.141 222.576 178.044C222.502 177.903 222.553 177.731 222.694 177.657C230.896 173.238 238.114 167.396 244.145 160.292C244.248 160.172 244.429 160.157 244.549 160.261C244.67 160.364 244.684 160.545 244.581 160.665C238.504 167.82 231.231 173.708 222.966 178.162C222.923 178.184 222.877 178.196 222.831 178.196H222.828Z" fill="#0F0000"/>
<path d="M309.279 232.054C312.201 227.712 312.301 222.022 311.249 216.894C310.196 211.767 308.117 206.897 306.993 201.787C304.908 192.326 306.101 182.148 302.419 173.189C302.972 169.937 303.104 166.61 301.12 164.405C299.755 162.888 297.678 162.262 295.697 161.766C283.474 158.704 270.663 158.001 258.18 159.707C255.934 160.014 253.632 160.424 251.713 161.629C249.794 162.833 248.326 165.021 248.613 167.27C242.737 170.671 237.414 174.832 233.927 179.487C237.689 196.054 247.913 211.061 261.954 220.623C275.995 230.184 293.706 234.204 309.279 232.054Z" fill="#FFD65A"/>
<path d="M298.003 170.24C297.968 170.24 297.937 170.235 297.902 170.223C282.706 164.614 265.639 163.501 249.843 167.097C249.689 167.132 249.537 167.037 249.499 166.882C249.465 166.727 249.559 166.575 249.714 166.538C265.616 162.922 282.8 164.037 298.1 169.687C298.249 169.741 298.324 169.908 298.269 170.054C298.226 170.169 298.117 170.24 298 170.24H298.003Z" fill="#0F0000"/>
<path d="M246.121 198.987C246.026 198.987 245.932 198.939 245.877 198.853C245.794 198.718 245.834 198.54 245.969 198.457C251.504 195.027 253.976 188.113 255.355 183.211C255.645 182.185 255.923 181.127 256.196 180.103C257.503 175.156 258.854 170.042 261.891 165.864C261.986 165.735 262.164 165.706 262.293 165.801C262.422 165.893 262.45 166.073 262.356 166.202C259.382 170.295 258.045 175.357 256.752 180.252C256.482 181.276 256.201 182.337 255.912 183.369C254.507 188.365 251.98 195.414 246.276 198.947C246.23 198.976 246.175 198.99 246.124 198.99L246.121 198.987Z" fill="#0F0000"/>
<path d="M260.698 213.045C260.64 213.045 260.583 213.028 260.534 212.994C260.405 212.902 260.374 212.724 260.463 212.595C267.876 201.996 271.759 189.039 271.395 176.111C271.389 175.953 271.515 175.821 271.673 175.815C271.833 175.81 271.962 175.936 271.968 176.094C272.338 189.145 268.418 202.225 260.933 212.922C260.878 213.002 260.789 213.045 260.698 213.045Z" fill="#0F0000"/>
<path d="M269.568 208.641C269.522 208.641 269.473 208.629 269.43 208.604C269.292 208.526 269.241 208.351 269.318 208.214C271.248 204.741 272.513 200.984 273.075 197.049C273.098 196.891 273.242 196.782 273.399 196.805C273.557 196.828 273.666 196.972 273.643 197.129C273.072 201.133 271.785 204.956 269.82 208.489C269.769 208.584 269.671 208.635 269.568 208.635V208.641Z" fill="#0F0000"/>
<path d="M281.799 219.771C281.687 219.771 281.578 219.705 281.532 219.593C279.556 214.792 280.428 209.292 281.254 205.575C281.524 204.356 281.836 203.123 282.134 201.93C282.96 198.647 283.812 195.254 283.924 191.841C284.024 188.738 283.514 185.552 283.021 182.472C282.272 177.798 281.498 172.962 282.866 168.365C282.912 168.213 283.072 168.127 283.221 168.173C283.373 168.219 283.459 168.377 283.413 168.529C282.083 173.003 282.811 177.56 283.583 182.383C284.079 185.489 284.595 188.704 284.492 191.861C284.38 195.337 283.52 198.761 282.685 202.074C282.387 203.264 282.077 204.491 281.808 205.701C280.999 209.344 280.144 214.724 282.057 219.375C282.117 219.521 282.048 219.691 281.902 219.751C281.868 219.765 281.83 219.774 281.793 219.774L281.799 219.771Z" fill="#0F0000"/>
<path d="M249.903 201.095C258.49 208.847 269.253 214.158 280.626 216.26C286.594 217.361 292.728 217.602 298.562 219.274C304.395 220.946 310.125 224.382 312.62 229.914C315.347 235.962 313.672 242.985 311.401 251.339C306.68 251.652 301.994 253.513 298.668 256.88C295.341 260.246 293.514 265.168 294.294 269.834C295.074 274.499 298.628 278.704 302.64 279.808C301.472 288.142 295.763 295.222 289.086 300.344C282.41 305.466 274.69 309.019 267.457 313.318C260.225 317.617 254.578 322.157 250.589 329.567C247.308 335.664 244.971 343.453 243.29 350.17C242.734 352.395 242.054 354.678 240.551 356.41C239.049 358.142 236.499 359.172 234.497 358.647C234.538 361.46 231.767 363.671 228.974 364.03C226.181 364.388 223.416 363.384 220.778 362.398C218.679 361.612 216.402 360.677 215.338 358.704C214.394 356.952 214.652 354.824 214.512 353.086C212.866 350.514 212.324 347.348 212.527 344.299C212.731 341.251 213.737 338.331 214.687 335.426C219.542 320.565 223.671 313.786 238.647 301.162C246.169 294.821 252.998 290.29 254.893 285.142C248.696 282.71 243.614 279.696 239.066 274.844C233.284 273.883 228.931 268.629 227.434 262.962C225.937 257.295 226.789 251.287 228.033 245.56C231.222 230.909 236.949 216.842 249.903 201.095Z" fill="#EFB6C8"/>
<path d="M246.459 268.151C246.459 268.151 246.453 268.151 246.447 268.151C246.29 268.145 246.166 268.013 246.172 267.852C246.789 250.878 256.815 234.646 271.719 226.496C271.856 226.421 272.031 226.47 272.109 226.61C272.186 226.748 272.134 226.923 271.994 227C257.265 235.053 247.354 251.099 246.746 267.872C246.74 268.027 246.614 268.148 246.459 268.148V268.151Z" fill="#0F0000"/>
<path d="M260.548 228.635C260.465 228.635 260.382 228.597 260.325 228.528C260.224 228.405 260.244 228.224 260.368 228.124C265.057 224.347 270.686 221.887 276.643 221.009C276.8 220.986 276.944 221.095 276.97 221.25C276.995 221.405 276.884 221.551 276.729 221.577C270.873 222.44 265.341 224.858 260.729 228.571C260.678 228.614 260.612 228.635 260.548 228.635Z" fill="#0F0000"/>
<path d="M232 358.538C226.462 358.538 220.947 357.171 216.052 354.584C215.911 354.509 215.86 354.337 215.932 354.197C216.003 354.056 216.178 354.002 216.319 354.076C221.134 356.62 226.554 357.965 232 357.965C232.026 357.965 232.06 357.962 232.075 357.965C232.232 357.965 232.361 358.094 232.361 358.252C232.361 358.409 232.232 358.538 232.075 358.538C232.049 358.538 232.026 358.538 232 358.538Z" fill="#0F0000"/>
<path d="M277.658 290.76C277.575 290.76 277.492 290.723 277.434 290.651C273.56 285.79 267.296 282.982 261.085 283.326C260.927 283.335 260.792 283.215 260.784 283.057C260.775 282.899 260.895 282.764 261.053 282.756C267.443 282.403 273.892 285.291 277.882 290.295C277.979 290.419 277.959 290.599 277.836 290.7C277.784 290.743 277.721 290.763 277.658 290.763V290.76Z" fill="#0F0000"/>
<path d="M311.398 252.529C310.331 261.856 307.377 270.961 302.568 279.338C297.994 278.119 294.478 273.898 293.732 269.223C292.987 264.548 294.871 259.624 298.283 256.344C301.696 253.063 306.5 251.391 311.398 252.529Z" fill="#8174A0"/>
<path d="M308.917 249.536C303.38 250.385 298.914 252.065 295.421 255.931C291.928 259.797 290.268 265.332 291.364 270.422C292.462 275.512 296.411 279.966 301.427 281.369C302.098 281.555 302.806 281.693 303.489 281.558C304.171 281.423 304.828 280.961 305.017 280.29C305.249 279.47 304.722 278.598 304.025 278.105C303.328 277.612 302.482 277.394 301.691 277.073C298.252 275.676 295.855 272.18 295.47 268.486C295.086 264.793 296.6 261.019 299.198 258.369C301.797 255.716 305.396 254.153 309.084 253.714C310.142 253.588 311.252 253.536 312.178 253.009C313.104 252.481 313.755 251.274 313.265 250.327C312.717 249.272 310.913 249.235 308.92 249.539L308.917 249.536Z" fill="#F9E6CF"/>
<path d="M199.162 180.995C162.885 212.825 116.495 232.948 68.4646 237.697C66.0184 236.149 63.77 234.115 62.5168 231.695C61.2636 229.274 60.8707 226.504 60.7158 223.785C60.3401 217.195 61.3238 210.341 64.768 204.709C68.2123 199.076 74.4211 194.886 81.0228 195.033C80.9568 192.429 83.0045 190.103 85.0836 188.442C87.1628 186.782 89.5632 185.179 90.4006 182.652C90.7676 181.537 90.7906 180.338 91.0716 179.197C91.6796 176.736 93.4347 174.743 95.1325 172.862C96.7814 171.029 98.4706 169.168 100.607 167.94C102.744 166.713 105.442 166.2 107.691 167.215C110.252 163.263 114.367 161.104 118.519 160.513C122.672 159.922 126.894 160.696 130.969 161.694C138.804 163.616 146.432 166.38 153.679 169.928C160.608 172.38 168.227 172.474 175.394 170.702C182.168 172.5 188.073 175.962 189.911 179.741C192.478 179.538 194.772 180.017 199.165 180.998L199.162 180.995Z" fill="#F4EDD3"/>
<path d="M172.426 184.02C172.366 184.02 172.305 184 172.254 183.963C170.195 182.397 168.31 181.669 166.314 180.897C165.067 180.416 163.774 179.917 162.446 179.197C159.248 177.465 156.386 174.568 153.441 170.083C153.355 169.951 153.392 169.773 153.524 169.687C153.656 169.601 153.834 169.638 153.923 169.77C156.816 174.172 159.612 177.009 162.724 178.695C164.02 179.397 165.294 179.888 166.524 180.364C168.471 181.115 170.481 181.892 172.606 183.507C172.733 183.602 172.756 183.782 172.661 183.909C172.604 183.983 172.518 184.02 172.432 184.02H172.426Z" fill="#0F0000"/>
<path d="M163.275 184.602C163.255 184.602 163.234 184.602 163.212 184.596C158.68 183.601 154.68 181.08 150.808 178.643C147.57 176.604 144.224 174.493 140.584 173.291C136.114 171.814 131.264 171.723 126.575 171.631C125.898 171.617 125.222 171.605 124.548 171.588C119.294 171.456 114.533 170.042 107.587 167.481C107.438 167.427 107.364 167.26 107.418 167.114C107.473 166.968 107.639 166.89 107.785 166.945C114.829 169.54 119.357 170.882 124.562 171.014C125.236 171.031 125.91 171.043 126.587 171.057C131.319 171.149 136.211 171.244 140.765 172.746C144.47 173.971 147.849 176.099 151.115 178.158C154.944 180.57 158.901 183.065 163.335 184.037C163.49 184.071 163.587 184.223 163.553 184.378C163.524 184.513 163.404 184.605 163.272 184.605L163.275 184.602Z" fill="#0F0000"/>
<path d="M144.281 192.268C141.365 192.268 138.213 191.747 134.743 190.694C132.294 189.951 129.652 188.592 127.097 187.276C125.101 186.249 123.217 185.277 121.425 184.583C110.286 180.261 100.085 178.543 91.1033 179.484C90.9456 179.498 90.805 179.386 90.7878 179.229C90.7706 179.071 90.8854 178.93 91.0431 178.913C100.117 177.967 110.407 179.693 121.631 184.049C123.452 184.755 125.348 185.733 127.358 186.768C129.89 188.073 132.509 189.421 134.909 190.146C139.868 191.649 144.152 192.053 148.009 191.385C148.167 191.359 148.313 191.463 148.342 191.617C148.368 191.772 148.265 191.921 148.11 191.95C146.879 192.165 145.606 192.271 144.284 192.271L144.281 192.268Z" fill="#0F0000"/>
<path d="M134.195 199.274C134.195 199.274 134.183 199.274 134.178 199.274C130.484 199.036 127.097 197.602 123.822 196.214C122.156 195.508 120.435 194.777 118.677 194.206C113.291 192.451 107.166 192.127 100.475 193.249C93.8159 194.364 87.8222 195.004 81.0398 195.322C80.885 195.328 80.7473 195.207 80.7387 195.05C80.7301 194.892 80.8534 194.757 81.0112 194.749C87.7677 194.433 93.7414 193.794 100.378 192.684C107.163 191.548 113.377 191.878 118.852 193.662C120.633 194.241 122.365 194.978 124.043 195.686C127.421 197.117 130.613 198.471 134.209 198.703C134.367 198.715 134.487 198.849 134.476 199.007C134.467 199.159 134.341 199.277 134.189 199.277L134.195 199.274Z" fill="#0F0000"/>
<path d="M149.796 197.654C140.656 197.654 131.68 195.282 123.719 190.745C123.581 190.668 123.533 190.493 123.613 190.355C123.69 190.217 123.865 190.169 124.003 190.249C132.411 195.038 141.967 197.393 151.634 197.048C151.795 197.043 151.927 197.166 151.93 197.324C151.933 197.482 151.812 197.616 151.655 197.619C151.035 197.642 150.413 197.651 149.796 197.651V197.654Z" fill="#0F0000"/>
<path d="M233.552 179.013C241.41 182.729 248.639 193.779 249.643 202.575C246.159 204.958 242.302 206.894 238.155 207.671C234.008 208.445 229.54 207.983 225.901 205.844C222.264 203.705 219.594 199.77 219.505 195.551C219.425 191.774 221.344 188.175 223.956 185.445C226.569 182.718 229.841 180.728 233.552 179.013Z" fill="#C84C05"/>
<path d="M123.092 203.579C128.807 205.489 135.131 203.461 140.322 200.401C145.512 197.344 149.699 193.653 155.074 190.929C166.545 185.113 180.68 185.675 192.206 181.614C191.337 180.843 190.468 180.068 189.912 179.741C196.339 174.376 204.592 171.238 212.961 170.983C220.976 170.739 229.046 173.14 235.576 178.545C236.001 178.898 235.96 179.564 235.49 179.85C232.915 181.419 230.36 183.051 228.177 185.127C225.728 187.456 223.749 190.421 223.199 193.756C222.648 197.092 223.729 200.8 226.408 202.862C228.533 204.496 231.349 204.938 234.027 204.915C239.551 204.869 245.043 203.039 249.709 200.12C250.156 199.839 250.747 200.068 250.896 200.573C254.151 211.692 257.369 223.011 254.77 234.27C251.168 249.894 241.338 258.102 231.885 267.72C217.245 267.273 203.187 262.283 189.158 258.073C173.106 253.255 156.766 249.398 140.236 247.072C134.618 232.979 128.999 218.887 123.095 203.581L123.092 203.579Z" fill="#DF6D2D"/>
<path d="M192.206 181.901C192.092 181.901 191.986 181.832 191.94 181.721C191.882 181.574 191.954 181.408 192.1 181.348C194.776 180.284 197.205 178.758 199.324 176.811C199.442 176.705 199.623 176.71 199.729 176.828C199.835 176.946 199.829 177.126 199.711 177.232C197.541 179.228 195.051 180.794 192.312 181.881C192.278 181.895 192.241 181.901 192.206 181.901Z" fill="#0F0000"/>
<path d="M212.757 239.908C212.68 239.908 212.603 239.876 212.545 239.813C212.439 239.696 212.448 239.515 212.562 239.409C216.81 235.526 223.348 231.97 228.837 230.559C228.992 230.519 229.147 230.613 229.187 230.765C229.227 230.917 229.136 231.075 228.981 231.115C223.578 232.506 217.134 236.008 212.95 239.833C212.895 239.885 212.826 239.908 212.757 239.908Z" fill="#0F0000"/>
<path d="M210.856 225.617C210.856 225.617 210.85 225.617 210.847 225.617C190.162 224.966 169.534 219.558 151.194 209.968C151.053 209.893 150.999 209.721 151.073 209.581C151.148 209.44 151.32 209.386 151.461 209.46C169.726 219.007 190.268 224.396 210.867 225.044C211.025 225.05 211.151 225.181 211.146 225.339C211.14 225.494 211.014 225.617 210.859 225.617H210.856Z" fill="#0F0000"/>
<path d="M212.857 221.31C212.857 221.31 212.84 221.31 212.832 221.31C206.987 220.771 201.208 219.535 195.653 217.634C195.504 217.582 195.424 217.419 195.476 217.27C195.527 217.12 195.691 217.04 195.84 217.092C201.352 218.976 207.085 220.203 212.883 220.74C213.041 220.754 213.156 220.894 213.141 221.052C213.127 221.201 213.004 221.313 212.857 221.313V221.31Z" fill="#0F0000"/>
<path d="M233.832 211.649C230.213 211.649 226.798 210.794 223.984 209.157C219.904 206.782 217.105 202.644 216.68 198.359C216.287 194.396 217.87 190.014 221.019 186.337C223.893 182.985 227.615 180.544 231.183 178.33C231.317 178.247 231.495 178.287 231.578 178.422C231.662 178.557 231.621 178.735 231.487 178.818C227.956 181.009 224.274 183.424 221.455 186.713C218.407 190.269 216.875 194.496 217.251 198.305C217.658 202.409 220.348 206.378 224.271 208.663C227.784 210.708 232.275 211.491 236.918 210.869C240.798 210.347 244.822 208.899 249.224 206.441C249.362 206.363 249.537 206.412 249.614 206.553C249.692 206.69 249.643 206.865 249.502 206.943C245.037 209.438 240.948 210.909 236.993 211.439C235.929 211.583 234.871 211.652 233.83 211.652L233.832 211.649Z" fill="#0F0000"/>
<path d="M166.728 360.488C173.396 359.66 180.387 361.968 185.065 366.921C189.716 366.132 194.041 363.551 197.356 359.677C196.315 349.462 200.345 338.856 207.881 332.192C204.411 325.24 198.228 319.688 190.915 317.658C181.506 319.688 171.339 322.169 165.308 329.668C158.569 338.048 159.257 350.686 166.728 360.488Z" fill="#605678"/>
<path d="M187.09 364.514C187.015 364.514 186.944 364.486 186.886 364.431C181.787 359.306 174.434 356.539 167.225 357.032C167.07 357.041 166.929 356.923 166.918 356.765C166.906 356.608 167.027 356.47 167.184 356.459C174.563 355.957 182.077 358.784 187.294 364.027C187.405 364.139 187.405 364.319 187.294 364.431C187.236 364.486 187.165 364.514 187.09 364.514Z" fill="#0F0000"/>
<path d="M193.37 360.417C193.218 360.417 193.092 360.296 193.083 360.144C192.794 354.388 193.875 348.558 196.209 343.29C196.272 343.147 196.441 343.081 196.588 343.144C196.731 343.207 196.797 343.376 196.734 343.522C194.437 348.71 193.37 354.449 193.654 360.115C193.662 360.273 193.539 360.408 193.381 360.417C193.376 360.417 193.373 360.417 193.367 360.417H193.37Z" fill="#0F0000"/>
<path d="M197.776 340.551C197.73 340.551 197.681 340.539 197.638 340.516C197.501 340.439 197.449 340.267 197.526 340.126C199.445 336.642 201.739 333.35 204.346 330.341C204.449 330.221 204.63 330.209 204.75 330.313C204.871 330.416 204.882 330.596 204.779 330.717C202.201 333.694 199.93 336.952 198.028 340.402C197.977 340.496 197.879 340.551 197.776 340.551Z" fill="#0F0000"/>
<path d="M193.637 342.57C193.591 342.57 193.543 342.558 193.5 342.535C186.878 338.879 181.733 332.653 179.39 325.461C179.341 325.309 179.424 325.148 179.573 325.099C179.725 325.05 179.886 325.134 179.935 325.283C182.235 332.34 187.279 338.446 193.778 342.034C193.915 342.111 193.967 342.286 193.89 342.424C193.838 342.518 193.74 342.573 193.637 342.573V342.57Z" fill="#0F0000"/>
<path d="M175.329 355.725C175.329 355.725 175.306 355.725 175.295 355.725C175.137 355.705 175.025 355.561 175.045 355.406C175.906 348.394 174.05 341.07 169.949 335.317C169.857 335.188 169.886 335.01 170.015 334.919C170.144 334.827 170.322 334.856 170.414 334.985C174.595 340.855 176.488 348.323 175.61 355.478C175.593 355.624 175.47 355.73 175.326 355.73L175.329 355.725Z" fill="#0F0000"/>
<path d="M167.554 331.188C167.85 343.021 168.156 354.162 170.591 365.748C171.899 371.969 173.439 378.166 173.241 384.518C173.166 386.87 173.083 390.179 171.343 391.759C170.132 392.861 168.483 393.325 166.877 393.646C161.426 394.739 155.722 394.541 150.356 393.081C149.12 392.743 147.806 392.273 147.095 391.203C146.109 389.717 146.869 387.79 147.147 386.029C148.455 377.764 149.229 372.138 147.738 364.948C139.576 369.746 131.144 369.889 123.152 368.329C115.156 366.769 107.25 363.97 99.1138 364.406C93.3294 364.719 87.7744 366.657 82.3141 368.587C80.493 369.23 78.6318 369.884 76.7018 369.932C74.7689 369.984 72.7184 369.333 72.5865 367.185C70.3754 358.625 73.8827 349.347 79.7818 342.763C85.6809 336.178 93.6821 331.874 101.752 328.272C112.154 323.629 123.158 319.886 134.537 319.407C145.917 318.928 157.778 322.008 167.551 331.191L167.554 331.188Z" fill="#F95454"/>
<path d="M147.741 365.232C147.603 365.232 147.48 365.132 147.457 364.991C146.909 361.596 146.433 358.298 146.625 355.298C146.637 355.141 146.772 355.023 146.929 355.032C147.087 355.043 147.208 355.178 147.196 355.336C147.007 358.275 147.477 361.536 148.019 364.9C148.045 365.057 147.939 365.204 147.781 365.23C147.767 365.23 147.75 365.232 147.735 365.232H147.741Z" fill="#0F0000"/>
<path d="M144.417 337.767C140.19 337.767 136.011 336.313 132.705 333.646C132.581 333.546 132.561 333.365 132.662 333.242C132.762 333.118 132.943 333.098 133.066 333.199C136.777 336.193 141.624 337.609 146.361 337.085C151.099 336.56 155.521 334.119 158.489 330.388C158.587 330.265 158.767 330.245 158.894 330.342C159.02 330.44 159.037 330.621 158.939 330.747C155.877 334.598 151.317 337.116 146.427 337.655C145.759 337.73 145.088 337.764 144.42 337.764L144.417 337.767Z" fill="#0F0000"/>
<path d="M73.2289 362.502C73.1372 362.502 73.0483 362.459 72.9909 362.376C72.902 362.244 72.9364 362.066 73.0655 361.977C83.0168 355.177 96.1198 355.926 101.293 356.565C101.451 356.585 101.563 356.729 101.543 356.887C101.523 357.044 101.379 357.156 101.222 357.136C96.1141 356.505 83.1774 355.762 73.3867 362.453C73.3379 362.487 73.2806 362.502 73.2261 362.502H73.2289Z" fill="#0F0000"/>
<path d="M58.6313 324.233C51.0344 329.166 44.9977 336.461 41.5735 344.844C40.607 347.21 39.8356 349.702 39.7955 352.257C39.7553 354.813 40.5095 357.457 42.9099 359.61C42.2761 360.485 42.7206 361.833 43.6355 362.407C44.5503 362.98 45.749 362.906 46.7556 362.516C47.7622 362.123 48.6283 361.455 49.5231 360.847C51.4675 359.53 53.6499 358.472 55.9814 358.205C58.3129 357.939 60.8223 358.544 62.5114 360.178C63.7704 361.394 64.4816 363.055 65.1699 364.661C65.8582 366.267 66.5952 367.921 67.8828 369.109C69.1705 370.293 71.1693 370.89 72.7094 370.055C74.2465 369.221 74.6824 366.683 73.8335 365.839C77.3839 355.613 84.8804 346.814 93.9771 341.489C98.1727 337.847 101.783 333.531 104.622 328.756C105.873 326.654 107.011 324.253 106.558 321.85C106.174 319.805 104.66 318.107 102.859 317.069C101.058 316.031 98.9843 315.572 96.9281 315.257C83.8422 313.232 70.1455 316.762 58.6313 324.239V324.233Z" fill="#BC7C7C"/>
<path d="M73.8336 366.124C73.759 366.124 73.6873 366.095 73.63 366.04C71.9408 364.351 70.9371 362.47 69.9678 360.649C69.3856 359.553 68.8321 358.518 68.161 357.577C66.7673 355.63 64.4071 353.089 61.0833 352.06C58.1036 351.136 54.5246 351.561 51.261 353.224C48.3731 354.698 45.4824 357.033 43.125 359.797C43.0218 359.918 42.8411 359.932 42.7207 359.829C42.6002 359.725 42.5859 359.545 42.6891 359.424C45.0952 356.602 48.0491 354.219 51.0029 352.711C54.3984 350.979 58.1352 350.54 61.2553 351.509C64.7311 352.587 67.1831 355.22 68.6285 357.239C69.3254 358.211 69.8846 359.261 70.4754 360.374C71.4246 362.157 72.4083 364.001 74.0343 365.63C74.1462 365.742 74.1462 365.923 74.0343 366.035C73.977 366.092 73.9053 366.118 73.8307 366.118L73.8336 366.124Z" fill="#0F0000"/>
<path d="M48.1946 360.367C48.1172 360.367 48.0397 360.336 47.9824 360.273C47.2597 359.472 46.732 358.497 46.4567 357.456C46.4166 357.304 46.5083 357.147 46.6603 357.106C46.8152 357.066 46.97 357.158 47.0102 357.31C47.2626 358.265 47.7443 359.157 48.4068 359.888C48.5129 360.006 48.5043 360.187 48.3867 360.293C48.3322 360.341 48.2634 360.367 48.1946 360.367Z" fill="#0F0000"/>
<path d="M53.2135 357.193C53.0988 357.193 52.9898 357.121 52.9468 357.01C52.5224 355.897 52.3445 354.678 52.4335 353.488C52.4449 353.33 52.5797 353.21 52.7403 353.224C52.898 353.236 53.0156 353.373 53.0041 353.531C52.921 354.635 53.0873 355.768 53.4831 356.803C53.5404 356.952 53.4659 357.116 53.3167 357.173C53.2823 357.185 53.2479 357.193 53.2135 357.193Z" fill="#0F0000"/>
<path d="M59.2653 357.428H59.2596C59.1019 357.425 58.9757 357.293 58.9786 357.135C59.013 355.601 59.5493 354.087 60.4842 352.871C60.5817 352.745 60.7623 352.722 60.8857 352.819C61.0118 352.917 61.0348 353.097 60.9373 353.221C60.0741 354.339 59.5808 355.736 59.5493 357.15C59.5464 357.305 59.4173 357.431 59.2625 357.431L59.2653 357.428Z" fill="#0F0000"/>
<path d="M64.5816 361.265C64.5472 361.265 64.5099 361.259 64.4755 361.245C64.3292 361.188 64.2547 361.021 64.3149 360.872C64.8569 359.498 65.8377 358.303 67.0795 357.502C67.2143 357.416 67.3892 357.457 67.4752 357.589C67.5613 357.72 67.5211 357.898 67.3892 357.984C66.2478 358.718 65.3444 359.82 64.8483 361.082C64.8053 361.193 64.6963 361.262 64.5816 361.262V361.265Z" fill="#0F0000"/>
<path d="M68.0752 367.675C68.0494 367.675 68.0236 367.672 67.9978 367.664C67.8458 367.621 67.7569 367.463 67.7999 367.311C68.21 365.857 69.1707 364.555 70.4383 363.735C70.5702 363.649 70.748 363.686 70.8341 363.821C70.9201 363.953 70.8828 364.13 70.748 364.216C69.5952 364.959 68.7205 366.144 68.3505 367.466C68.3161 367.592 68.1985 367.675 68.0752 367.675Z" fill="#0F0000"/>
<path d="M106.196 318.446C101.496 322.966 96.7984 327.488 92.0981 332.008C90.7789 333.278 89.3679 334.732 89.2675 336.562C89.1958 337.852 89.8009 339.074 90.3917 340.224C91.5073 342.404 92.6229 344.583 93.7413 346.763C94.2633 347.781 94.8282 348.848 95.8061 349.438C97.4551 350.436 99.5486 349.719 101.421 349.266C105.135 348.366 109.124 348.633 112.686 350.021C114.923 350.892 117.131 352.217 119.523 352.017C121.006 351.893 122.371 351.185 123.687 350.491C126.024 349.261 128.364 348.03 130.702 346.797C131.625 346.312 132.583 345.796 133.185 344.945C134.014 343.777 134.005 342.237 134.069 340.806C134.447 332.47 138.617 324.379 144.975 319.263C150.3 314.755 154.634 309.082 157.587 302.762C158.52 300.769 159.328 298.552 158.826 296.412C157.98 292.819 153.928 291.058 150.303 290.356C140.825 288.526 130.687 290.367 122.46 295.414C114.232 300.462 107.997 308.667 106.196 318.446Z" fill="#EFB6C8"/>
<path d="M123.005 351.13C122.936 351.13 122.87 351.107 122.815 351.058C116.259 345.268 105.084 342.288 94.8971 348.687C94.7623 348.77 94.5874 348.73 94.5014 348.598C94.4182 348.463 94.4584 348.288 94.5903 348.202C105.029 341.649 116.477 344.7 123.194 350.631C123.311 350.737 123.323 350.918 123.22 351.035C123.162 351.098 123.085 351.133 123.005 351.133V351.13Z" fill="#0F0000"/>
<path d="M130.705 347.084C130.573 347.084 130.455 346.992 130.426 346.86C127.983 335.959 132.351 322.426 140.584 315.383C140.705 315.28 140.885 315.294 140.989 315.414C141.092 315.535 141.078 315.716 140.957 315.819C132.873 322.733 128.588 336.025 130.986 346.734C131.02 346.889 130.923 347.041 130.768 347.075C130.748 347.081 130.725 347.081 130.705 347.081V347.084Z" fill="#0F0000"/>
<path d="M90.3919 340.511C90.326 340.511 90.26 340.488 90.2055 340.442C90.0851 340.339 90.0707 340.158 90.1711 340.038C95.3332 333.949 104.344 325.323 110.481 321.42C110.616 321.334 110.791 321.374 110.877 321.509C110.963 321.644 110.923 321.819 110.788 321.905C104.694 325.776 95.7404 334.354 90.607 340.408C90.5497 340.474 90.4694 340.508 90.3891 340.508L90.3919 340.511Z" fill="#0F0000"/>
<path d="M125.462 311.454C125.367 311.454 125.276 311.408 125.221 311.325C125.135 311.193 125.172 311.015 125.304 310.929C130.945 307.25 138.192 306.108 144.691 307.878C144.843 307.921 144.934 308.076 144.891 308.231C144.851 308.383 144.694 308.474 144.539 308.431C138.195 306.705 131.123 307.818 125.617 311.408C125.568 311.44 125.514 311.454 125.459 311.454H125.462Z" fill="#0F0000"/>
<path d="M124.805 308.09C124.71 308.09 124.619 308.045 124.564 307.959C124.478 307.827 124.518 307.649 124.65 307.563C131.754 302.994 140.845 301.658 148.963 303.989C149.115 304.032 149.204 304.193 149.161 304.345C149.118 304.497 148.958 304.586 148.806 304.543C140.845 302.257 131.929 303.565 124.963 308.047C124.914 308.079 124.862 308.093 124.808 308.093L124.805 308.09Z" fill="#0F0000"/>
<path d="M142.291 242.042C161.706 239.791 181.597 241.735 200.783 247.548C204.442 244.411 208.423 241.649 212.753 239.621C219.016 249.057 226.289 257.818 234.408 265.707C237.976 269.174 241.968 273.003 242.246 277.97C242.461 281.807 240.327 285.4 237.763 288.262C229.481 297.505 216.822 301.294 206.633 308.38C200.054 312.957 196.384 318.277 187.562 322.989C180.413 326.806 172.383 329.092 166.131 334.5C159.509 335.346 153.335 332.421 148.267 328.2C143.203 323.978 137.504 316.941 137.82 310.895C141.803 305.55 148.267 301.497 154.789 298.882C153.653 297.07 151.608 296.112 149.595 295.395C143.903 293.367 132.847 295.813 125.138 298.836C123.928 278.793 130.017 258.388 142.288 242.036L142.291 242.042Z" fill="#F9E6CF"/>
<path d="M220.464 257.895C220.407 257.895 220.353 257.878 220.301 257.844C214.236 253.654 207.637 250.279 200.688 247.815C200.539 247.763 200.461 247.597 200.513 247.448C200.565 247.299 200.731 247.221 200.88 247.273C207.875 249.754 214.519 253.152 220.628 257.371C220.757 257.46 220.791 257.64 220.7 257.769C220.645 257.85 220.553 257.893 220.464 257.893V257.895Z" fill="#0F0000"/>
<path d="M166.137 334.789C166.025 334.789 165.922 334.724 165.873 334.617C161.055 323.516 148.451 313.003 137.78 311.182C137.625 311.156 137.519 311.007 137.545 310.852C137.571 310.697 137.72 310.591 137.875 310.617C148.718 312.466 161.514 323.132 166.398 334.391C166.461 334.537 166.395 334.706 166.249 334.769C166.212 334.787 166.174 334.792 166.134 334.792L166.137 334.789Z" fill="#0F0000"/>
<path d="M218.124 279.332C218.939 283.037 219.231 286.857 218.956 291.156C215.236 288.753 211.155 286.912 207.45 285.922C205.208 291.632 202.968 297.342 200.725 303.054C200.464 303.72 200.197 304.408 200.215 305.125C200.238 306.089 200.771 306.972 201.425 307.68C203.14 309.533 205.709 310.428 208.23 310.537C210.751 310.646 213.252 310.043 215.658 309.283C221.167 307.548 226.601 304.821 230.112 300.235C232.853 296.653 234.132 291.744 233.154 287.428C232.684 285.357 231.161 283.685 229.185 282.911C225.75 281.566 222.142 280.433 218.121 279.332H218.124Z" fill="#FFD65A"/>
<path d="M212.018 307.001C211.924 307.001 211.829 306.986 211.732 306.958C211.482 306.877 211.293 306.708 211.187 306.464C210.974 305.977 211.138 305.297 211.359 304.827C213.392 300.519 215.858 295.512 218.712 291.004C218.778 290.898 218.907 290.849 219.03 290.881C221.319 291.503 223.432 292.2 225.474 292.877C227.072 293.404 228.583 293.906 230.097 294.342C230.332 294.411 230.725 294.523 230.906 294.875C231.127 295.308 230.92 295.81 230.324 296.284C224.955 300.557 219.039 304.098 212.738 306.811C212.509 306.909 212.271 307.001 212.021 307.001H212.018ZM219.085 291.489C216.294 295.922 213.88 300.838 211.878 305.071C211.671 305.506 211.603 305.985 211.712 306.235C211.752 306.327 211.812 306.381 211.904 306.41C212.067 306.461 212.282 306.381 212.509 306.284C218.763 303.591 224.637 300.075 229.965 295.833C230.235 295.618 230.49 295.323 230.392 295.134C230.329 295.013 230.126 294.944 229.936 294.89C228.411 294.448 226.897 293.949 225.293 293.419C223.32 292.765 221.281 292.091 219.085 291.489Z" fill="#0F0000"/>
<path d="M218.956 291.442C218.864 291.442 218.775 291.399 218.721 291.319C210.284 279.056 202.251 270.774 186.142 264.72C172.91 259.747 157.086 256.596 142.724 256.068C142.566 256.062 142.443 255.93 142.448 255.77C142.454 255.612 142.583 255.492 142.747 255.494C157.169 256.022 173.059 259.188 186.346 264.181C202.595 270.287 210.694 278.635 219.194 290.992C219.283 291.124 219.251 291.302 219.119 291.391C219.071 291.425 219.013 291.442 218.956 291.442Z" fill="#0F0000"/>
<path d="M71.4932 220.45C73.9222 212.005 80.0249 204.683 88.1437 200.783C88.9897 204.491 89.3711 208.377 88.5567 212.091C87.7422 215.805 85.6172 219.343 82.3364 221.268C79.0556 223.192 74.5818 223.212 71.4932 220.453V220.45Z" fill="#2B4A77"/>
<path d="M139.111 258.171C145.319 248.641 146.575 233.582 144.109 225.644C140.734 214.784 135.167 206.381 124.901 201.488C114.634 196.596 100.134 195.013 89.5117 200.347C90.1111 204.173 90.1942 208.142 89.1245 211.864C88.0549 215.587 85.7405 219.048 82.3708 220.955C79.0012 222.862 74.5417 222.988 71.7743 220.777C68.5279 228.194 65.2615 235.673 63.5637 243.591C61.8688 251.506 61.8344 259.992 64.9403 267.468L139.108 258.171H139.111Z" fill="#608BC1"/>
<path d="M86.0353 201.113C88.1001 205.231 88.2664 210.255 86.4769 214.503C85.7341 216.264 84.6558 217.913 83.1703 219.114C81.6848 220.319 79.772 221.047 77.8677 220.901C75.9635 220.757 74.2342 219.785 72.5651 218.856C71.8912 218.48 71.1169 218.096 70.3799 218.328C69.3618 218.65 69.0349 220.009 69.3675 221.024C69.7346 222.143 70.6666 223.014 71.7277 223.525C72.7888 224.035 73.9761 224.222 75.149 224.313C78.8399 224.595 82.7516 223.886 85.6395 221.569C87.5179 220.061 88.8486 217.97 89.8552 215.782C91.6504 211.873 92.4965 207.5 92.0778 203.218C91.963 202.036 91.7422 200.832 91.1113 199.828C90.4804 198.824 89.3648 198.053 88.1833 198.125C87.0017 198.196 85.2237 199.501 86.0324 201.116L86.0353 201.113Z" fill="#FFD65A"/>
<path d="M129.147 256.564C129.093 256.564 129.035 256.547 128.987 256.516C128.855 256.427 128.823 256.249 128.912 256.117C136.546 244.967 137.418 229.458 131.08 217.522C128.416 212.503 124.797 208.563 120.613 206.122C116.902 203.96 112.308 202.707 106.953 202.397L106.672 202.38C102.061 202.113 99.2791 201.953 93.3398 202.856C93.1849 202.879 93.0358 202.773 93.0129 202.615C92.9899 202.457 93.096 202.311 93.2538 202.288C99.2504 201.376 102.055 201.537 106.704 201.806L106.985 201.824C112.428 202.136 117.111 203.415 120.9 205.626C125.175 208.121 128.872 212.139 131.585 217.252C138.02 229.372 137.134 245.119 129.383 256.441C129.328 256.521 129.236 256.567 129.144 256.567L129.147 256.564Z" fill="#0F0000"/>
<path d="M111.316 257.944C111.186 257.944 111.066 257.855 111.037 257.723C109.919 252.931 111.961 247.973 113.593 244.66C114.028 243.777 114.493 242.885 114.94 242.025C116.523 238.988 118.161 235.845 118.818 232.469C119.592 228.492 118.927 224.17 116.994 220.611C115.061 217.049 111.797 214.138 108.043 212.621C107.897 212.561 107.825 212.395 107.886 212.248C107.946 212.102 108.112 212.03 108.258 212.091C112.136 213.657 115.503 216.665 117.499 220.339C119.495 224.015 120.18 228.477 119.38 232.581C118.706 236.04 117.051 239.217 115.448 242.292C115.001 243.149 114.539 244.038 114.106 244.916C112.511 248.151 110.518 252.983 111.597 257.594C111.634 257.749 111.536 257.904 111.381 257.938C111.359 257.944 111.338 257.947 111.316 257.947V257.944Z" fill="#0F0000"/>
<path d="M117.246 220.757C117.186 220.757 117.123 220.737 117.071 220.697C109.457 214.764 101.35 210.792 92.973 208.887C92.8182 208.853 92.7207 208.698 92.758 208.543C92.7924 208.388 92.9472 208.291 93.1021 208.328C101.562 210.253 109.744 214.262 117.424 220.244C117.55 220.342 117.57 220.522 117.473 220.646C117.415 220.717 117.332 220.757 117.246 220.757Z" fill="#0F0000"/>
<path d="M111.433 251.511C111.433 251.511 111.425 251.511 111.422 251.511C111.264 251.506 111.141 251.371 111.146 251.213C111.502 243.014 109.83 235.366 106.174 228.48C102.744 222.022 99.1589 217.201 91.8919 213.111C91.7542 213.034 91.7055 212.859 91.7829 212.721C91.8603 212.584 92.0353 212.535 92.1729 212.612C99.5633 216.768 103.203 221.663 106.681 228.21C110.386 235.185 112.081 242.934 111.72 251.236C111.714 251.391 111.585 251.511 111.433 251.511Z" fill="#0F0000"/>
<path d="M103.687 257.904C103.63 257.904 103.575 257.887 103.524 257.853C100.759 255.949 99.5861 252.539 99.09 250.015C98.8204 248.641 98.6684 247.23 98.5193 245.865C98.3472 244.291 98.1723 242.662 97.8167 241.102C96.1963 234.01 93.2396 229.114 86.5175 222.392C86.4056 222.28 86.4056 222.1 86.5175 221.988C86.6293 221.876 86.81 221.876 86.9218 221.988C93.73 228.796 96.7269 233.763 98.373 240.976C98.7372 242.567 98.915 244.214 99.0871 245.805C99.2334 247.159 99.3854 248.555 99.6492 249.906C100.125 252.327 101.238 255.587 103.845 257.383C103.977 257.471 104.008 257.652 103.919 257.781C103.865 257.861 103.773 257.904 103.684 257.904H103.687Z" fill="#0F0000"/>
<path d="M88.4589 259.753C88.4389 259.753 88.4159 259.753 88.3958 259.748C88.241 259.713 88.1435 259.558 88.1808 259.404C89.6118 253.1 89.1587 246.292 86.8988 240.232C84.4813 233.748 81.0514 229.036 76.1044 225.406C75.9753 225.311 75.9495 225.133 76.0442 225.004C76.1388 224.875 76.3166 224.849 76.4457 224.944C81.4873 228.646 84.9774 233.441 87.438 240.034C89.7351 246.194 90.1997 253.12 88.7428 259.533C88.7113 259.665 88.5937 259.756 88.4647 259.756L88.4589 259.753Z" fill="#0F0000"/>
<path d="M82.8148 260.104C82.8148 260.104 82.8005 260.104 82.7948 260.104C82.637 260.092 82.5194 259.955 82.5309 259.797C83.0041 253.399 81.2834 246.949 77.6929 241.632C77.604 241.5 77.6384 241.322 77.7703 241.233C77.9023 241.145 78.0801 241.179 78.169 241.311C81.834 246.734 83.5863 253.313 83.1045 259.84C83.093 259.992 82.9668 260.107 82.8177 260.107L82.8148 260.104Z" fill="#0F0000"/>
<path d="M126.925 314.655C124.657 294.127 131.107 272.851 142.733 255.782C122.216 255.782 85.4824 256.791 70.4063 260.841C55.5109 269.077 37.415 289.539 30.7129 308.188C35.0834 316.829 46.3539 323.098 55.7002 325.627C68.1838 329.009 72.4023 327.609 82.7207 327.033C96.7357 328.412 120.22 321.357 126.922 314.655H126.925Z" fill="#8EB486"/>
<path d="M82.1215 327.356C81.9809 327.356 81.8605 327.253 81.8375 327.112C79.1705 309.252 84.1375 290.307 95.127 276.432C95.2245 276.309 95.4052 276.286 95.5285 276.387C95.6518 276.484 95.6748 276.665 95.5744 276.788C84.6824 290.539 79.7584 309.321 82.4025 327.026C82.4255 327.184 82.3165 327.33 82.1616 327.353C82.1473 327.353 82.1329 327.356 82.1186 327.356H82.1215Z" fill="#0F0000"/>
<path d="M82.1218 327.356C82.1046 327.356 82.0874 327.356 82.0702 327.35C76.389 326.301 67.6995 322.822 59.3915 318.276C51.7803 314.112 41.6426 309.234 30.6932 308.474C30.5355 308.463 30.4151 308.325 30.4265 308.167C30.438 308.01 30.5757 307.892 30.7334 307.901C41.7917 308.666 52.004 313.579 59.6668 317.772C67.8773 322.266 76.4492 325.707 82.0759 326.768C95.4055 319.753 116.587 313.106 126.96 314.37C127.118 314.391 127.23 314.534 127.21 314.689C127.189 314.847 127.046 314.956 126.891 314.938C116.602 313.685 95.503 320.33 82.2566 327.322C82.2164 327.344 82.1677 327.356 82.1218 327.356Z" fill="#0F0000"/>
<path d="M84.7109 322.716C84.556 322.716 84.427 322.59 84.4241 322.435C84.1517 306.722 88.9295 290.955 97.877 278.036C97.966 277.907 98.1466 277.872 98.2757 277.964C98.4047 278.053 98.4391 278.233 98.3474 278.363C89.4686 291.185 84.7253 306.831 84.9948 322.424C84.9948 322.581 84.8715 322.713 84.7138 322.716H84.708H84.7109Z" fill="#0F0000"/>
<path d="M121.396 314.899C121.238 314.899 121.109 314.769 121.109 314.612C121.109 290.445 126.845 268.948 136.848 255.635C136.943 255.509 137.123 255.483 137.249 255.578C137.376 255.672 137.401 255.853 137.307 255.979C127.378 269.197 121.686 290.568 121.686 314.612C121.686 314.769 121.557 314.899 121.399 314.899H121.396Z" fill="#0F0000"/>
<path d="M36.6951 309.289C36.6693 309.289 36.6464 309.286 36.6205 309.278C36.4685 309.238 36.3768 309.08 36.4198 308.925C38.5649 301.016 44.4755 290.861 52.6402 281.059C60.7676 271.302 69.9646 263.275 77.8741 259.042C78.0146 258.968 78.1867 259.019 78.2612 259.16C78.3358 259.3 78.2842 259.473 78.1436 259.547C70.2973 263.746 61.1633 271.721 53.0789 281.423C44.9659 291.162 39.0955 301.239 36.9704 309.071C36.936 309.2 36.8213 309.284 36.6951 309.284V309.289Z" fill="#0F0000"/>
<path d="M102.039 273.57C101.988 273.57 101.936 273.556 101.89 273.527C101.755 273.444 101.712 273.269 101.795 273.132C103.857 269.774 106.321 266.659 109.114 263.874C109.226 263.763 109.407 263.763 109.518 263.874C109.63 263.986 109.63 264.167 109.518 264.279C106.757 267.029 104.325 270.109 102.286 273.43C102.231 273.519 102.137 273.568 102.042 273.568L102.039 273.57Z" fill="#0F0000"/>
</svg>
