<svg width="417" height="684" viewBox="0 0 417 684" fill="none" xmlns="http://www.w3.org/2000/svg">
<path d="M138.018 678.204C138.018 680.922 200.471 683.123 277.511 683.123C354.551 683.123 417 680.922 417 678.204C417 675.487 354.551 673.286 277.511 673.286C200.471 673.286 138.018 675.487 138.018 678.204Z" fill="#B1D5DE"/>
<path d="M396.022 574.796C397.862 571.262 401.664 570.29 403.125 570.379C404.896 570.488 405.274 565.935 404.499 562.55C403.724 559.161 401.48 557.705 399.01 553.986C397.481 551.69 397.301 549.783 397.384 548.659C399.038 548.792 400.531 548.82 401.527 548.643C405.318 547.972 410.673 550.373 410.714 553.525C410.758 556.676 406.249 582.653 402.065 587.208C399.535 589.967 397.813 582.079 396.022 574.796Z" fill="#434A59"/>
<path d="M399.01 553.986C401.48 557.705 403.725 559.161 404.499 562.55C405.274 565.935 404.896 570.488 403.126 570.379C401.664 570.29 397.862 571.262 396.023 574.796C394.851 570.037 393.655 565.536 392.177 564.44C388.451 561.663 382.192 559.704 381.515 557.599C380.831 555.492 383.634 546.483 386.899 547.086C386.899 547.086 392.775 548.29 397.384 548.659C397.301 549.783 397.481 551.69 399.01 553.986Z" fill="#FF867A"/>
<path d="M263.434 243.952C264.177 242.86 266.707 239.805 266.707 239.805C266.707 239.805 265.984 232.736 270.46 231.84C274.941 230.945 279.863 234.663 281.209 240.107C281.209 240.107 285.059 240.375 286.102 250.231C287.234 260.94 292.863 258.606 290.443 266.861C286.259 281.122 265.338 268.676 261.254 265.006C258.052 262.131 260.312 248.566 263.434 243.952Z" fill="#CE4949"/>
<path d="M242.045 669.424C245.988 670.013 248.139 673.297 248.528 674.707C248.999 676.417 253.426 675.297 256.377 673.467C259.332 671.635 259.978 669.038 262.696 665.497C264.376 663.304 266.121 662.519 267.209 662.233C267.619 663.839 268.08 665.257 268.571 666.148C270.429 669.512 269.899 675.358 266.932 676.417C263.965 677.482 237.93 681.645 232.26 679.163C228.835 677.667 235.737 673.479 242.045 669.424Z" fill="#434A59"/>
<path d="M262.696 665.497C259.978 669.038 259.332 671.635 256.377 673.467C253.426 675.297 248.999 676.417 248.528 674.707C248.139 673.297 245.988 670.013 242.045 669.424C246.168 666.77 250.034 664.176 250.592 662.426C252.01 657.997 251.833 651.445 253.603 650.117C255.374 648.788 264.808 648.514 265.295 651.799C265.295 651.799 266.062 657.748 267.209 662.233C266.121 662.519 264.376 663.304 262.696 665.497Z" fill="#FF867A"/>
<path d="M257.862 267.876C249.809 260.67 207.075 291.576 191.072 288.781C172.455 285.533 155.958 219.953 137.334 231.853C122.937 241.054 150.769 315.086 193.072 319.126C235.6 323.184 268.462 277.356 257.862 267.876Z" fill="#F27C79"/>
<path d="M306.477 386.642C301.832 372.217 288.246 356.567 288.246 356.567C288.246 356.567 229.55 365.255 222.431 364.094C205.695 443.7 226.595 650.979 226.595 650.979C226.595 650.979 232.275 655.982 246.067 655.982C264.45 655.982 273.215 652.268 273.215 652.268C265.659 627.626 265.379 512.991 263.294 454.335C266.715 479.391 266.133 500.726 278.79 532.913C286.315 552.051 305.205 562.077 326.19 567.448C361.435 576.466 361.039 583.338 386.497 584.491C386.497 584.491 394.437 555.388 390.53 545.616C389.23 542.364 321.452 512.598 321.452 512.598C321.452 512.598 317.325 420.319 306.477 386.642Z" fill="#FF8A50"/>
<path d="M288.246 356.567C288.246 356.567 274.565 358.591 259.613 360.558L224.491 370.314C224.491 370.314 229.502 376.834 258.184 374.614C274.375 373.361 288.207 370.631 297.184 368.495C292.575 361.554 288.246 356.567 288.246 356.567Z" fill="#E25344"/>
<path d="M290.935 356.567C286.235 344.082 288.282 337.177 290.935 321.88C296.002 292.664 290.194 276.721 283.657 272.446C274.163 266.239 256.971 259.686 244.806 271.072C221.737 292.659 229.903 292.978 228.811 306.752C227.439 324.128 222.472 352.039 221.376 368.773C234.347 377.69 289.185 368.446 290.935 356.567Z" fill="#F2C3A7"/>
<path d="M273.07 253.7L274.668 268.627C275.11 271.02 270.292 278.206 265.981 275.838C264.716 275.148 265.595 271.599 266.201 268.928L267.037 256.647L273.07 253.7Z" fill="#FF867A"/>
<path d="M275.512 245.205L275.123 250.931C274.809 255.471 271.018 259.18 266.474 258.963C262.278 258.763 258.91 255.556 259.473 250.324C259.975 245.675 264.077 242.495 265.707 240.712C269.42 236.645 275.479 238.588 275.512 245.205Z" fill="#FF867A"/>
<path d="M267.506 248.983C267.506 248.983 264.68 248.73 261.275 247.245C261.275 247.245 261.039 249.693 262.103 250.823C263.167 251.945 265.427 251.086 267.506 248.983Z" fill="white"/>
<path d="M274.147 250.484C274.431 250.067 274.649 249.613 274.841 249.143C275.198 248.257 275.942 247.019 276.997 248.204C278.531 249.922 276.351 254.552 274.006 254.022C272.267 253.628 273.432 251.533 274.147 250.484Z" fill="#FF867A"/>
<path d="M166.295 47.0109C166.295 47.0109 176.655 -2.50271 185.706 0.099058C194.758 2.70396 209.489 56.7954 199.599 59.4442C189.711 62.0993 164.115 56.4174 166.295 47.0109Z" fill="#FF9D8A"/>
<path d="M108.337 258.165L117.732 274.919C120.01 278.981 125.075 280.659 129.424 278.788L141.519 273.586C145.107 272.044 147.318 268.447 147.031 264.625L144.848 235.654L108.337 258.165Z" fill="#F9897A"/>
<path d="M224.637 208.128L234.031 224.886C236.308 228.95 241.373 230.623 245.722 228.757L257.818 223.553C261.403 222.007 263.616 218.411 263.331 214.589L250.483 161.602L224.637 208.128Z" fill="#F9897A"/>
<path d="M269.657 73.027C268.529 70.4692 264.43 70.0191 257.87 71.2439C245.573 73.5414 236.962 77.2551 227.419 69.3855C199.66 46.4965 154.994 28.1335 91.8567 55.4184C26.1303 83.823 -7.80879 150.628 16.1639 204.889C24.9823 224.85 40.4032 240.315 59.6475 250.484L92.5703 302.946C94.9776 306.703 99.8314 308.157 103.994 306.366L115.276 301.517C119.44 299.726 121.663 295.225 120.509 290.925L111.452 261.385C132.823 262.296 155.115 259.434 176.992 250.023C182.983 247.446 189.27 243.921 194.709 240.745L200.615 251.801C202.895 255.865 209.492 260.991 213.84 259.12L225.937 253.921C229.522 252.375 231.734 248.777 231.449 244.956L228.132 217.848C245.079 200.09 254.887 185.778 262.865 164.299C266.956 153.274 269.883 144.374 280.836 139.66L283.765 138.404C286.375 137.279 296.757 129.319 295.629 126.761L269.657 73.027Z" fill="#FF9D8A"/>
<path d="M113.816 54.7033C97.8634 57.0996 82.005 64.9849 70.3606 76.1338C68.601 77.8213 68.1038 80.4983 69.7317 82.4853C71.187 84.2637 74.3158 84.8111 76.0848 83.1158C86.6299 73.0192 100.68 65.8036 115.154 63.6284C120.905 62.7658 119.561 53.8407 113.816 54.7033Z" fill="#434A59"/>
<path d="M272.537 73.8175C272.537 73.8175 265.853 67.0363 257.276 72.7574C250.797 77.0827 227.648 126.676 259.962 139.74C277.988 147.028 299.85 129.952 301.837 115.777C304.498 96.7708 272.537 73.8175 272.537 73.8175Z" fill="#F9897A"/>
<path d="M200.242 64.1819C194.003 59.6292 185.861 57.1968 178.087 57.385C176.727 57.418 175.803 58.9753 175.963 60.1719C176.156 61.6162 177.447 62.2718 178.789 62.2389C185.226 62.082 192.164 64.4188 197.29 68.1575C199.864 70.0363 202.823 66.0654 200.242 64.1819Z" fill="white"/>
<path d="M208.22 69.3573C207.894 69.2334 207.569 69.108 207.24 68.9841C206.646 68.7598 205.915 68.7755 205.33 69.028C204.767 69.2695 204.206 69.8074 204 70.3845C203.788 70.9868 203.74 71.6784 204.033 72.2649C204.326 72.8467 204.78 73.3203 205.41 73.5603C205.735 73.6858 206.061 73.8097 206.389 73.9335C206.983 74.1594 207.714 74.1437 208.3 73.8896C208.862 73.645 209.428 73.1118 209.629 72.5331C209.842 71.9309 209.891 71.2408 209.597 70.6543C209.309 70.0724 208.851 69.5988 208.22 69.3573Z" fill="white"/>
<path d="M19.9732 166.17C19.3224 176.05 20.1175 186.296 26.4392 194.402C28.3902 196.899 32.2858 193.8 30.3317 191.299C24.871 184.296 24.3785 175.232 24.9384 166.724C25.1454 163.581 20.1803 163.015 19.9732 166.17Z" fill="white"/>
<path d="M225.443 203.873C225.062 213.038 226.025 222.143 226.724 231.266C226.969 234.422 231.918 233.683 231.678 230.548C231.007 221.855 230.044 213.167 230.41 204.431C230.538 201.287 225.576 200.718 225.443 203.873Z" fill="#EF7D70"/>
<path d="M200.126 244.816C197.03 240.001 194.578 234.826 192.241 229.624C191.049 226.961 186.813 228.785 188.01 231.451C190.519 237.039 193.213 242.515 196.536 247.683C198.111 250.131 201.691 247.253 200.126 244.816Z" fill="#EF7D70"/>
<path d="M118.039 261.967C114.802 262 112.033 260.574 109.506 258.714C107.136 256.972 104.404 260.638 106.78 262.384C109.862 264.653 113.54 266.504 117.49 266.468C118.735 266.455 119.894 265.793 120.056 264.473C120.189 263.372 119.291 261.954 118.039 261.967Z" fill="#EF7D70"/>
<path d="M208.148 53.4581C198.276 47.9754 187.386 45.209 176.521 42.2575C173.685 41.4874 171.968 45.7061 174.828 46.4808C185.253 49.3116 195.942 51.8647 205.421 57.1279C207.971 58.5409 210.733 54.8915 208.148 53.4581Z" fill="#F9897A"/>
<path d="M188.345 103.732C190.234 108.004 189.531 112.428 186.776 113.613C184.022 114.797 180.259 112.292 178.371 108.02C176.484 103.748 177.187 99.3271 179.941 98.143C182.696 96.959 186.459 99.4604 188.345 103.732Z" fill="#434A59"/>
<path d="M259.581 120.486C260.641 126.025 264.041 130.037 267.168 129.443C270.3 128.848 271.975 123.874 270.915 118.335C269.85 112.789 266.455 108.779 263.326 109.377C260.196 109.971 258.521 114.945 259.581 120.486Z" fill="#434A59"/>
<path d="M292.35 106.855C295.742 111.392 296.409 116.58 293.835 118.435C291.265 120.293 286.428 118.121 283.039 113.579C279.647 109.039 278.981 103.856 281.55 101.998C284.123 100.143 288.957 102.315 292.35 106.855Z" fill="#434A59"/>
<path d="M19.8888 152.327C19.8888 152.327 13.9795 145.165 5.93583 149.131C-2.10629 153.102 -2.07963 168.43 6.64626 170.538C15.3737 172.645 22.0765 170.803 19.8888 152.327Z" fill="#FF9D8A"/>
<path d="M144.233 64.3309C144.233 64.3309 100.417 38.1219 96.1904 46.4322C91.9623 54.7472 122.098 102.214 130.798 96.8711C139.498 91.5264 152.702 69.1612 144.233 64.3309Z" fill="#F9897A"/>
<path d="M128.345 200.962L124.437 192.161C119.042 194.39 112.803 195.213 108.603 194.434L108.227 187.637C112.482 188.292 118.019 187.87 123.192 185.637C129.75 182.803 132.597 177.311 130.392 172.344C128.263 167.552 123.345 166.147 115.35 166.484C104.38 167.069 96.7818 165.571 93.4163 157.992C90.2045 150.757 93.2156 142.913 101.134 137.93L97.2256 129.129L102.951 126.653L106.704 135.107C112.323 132.888 116.729 132.647 120.066 132.968L120.311 139.721C117.907 139.513 113.269 139.23 107.357 141.783C100.246 144.859 99.3459 150.026 100.894 153.511C102.906 158.043 107.33 158.835 116.759 158.498C127.896 158.048 134.712 160.506 138.156 168.262C141.213 175.147 138.995 183.791 130.141 189.387L134.165 198.448L128.345 200.962Z" fill="white"/>
<path d="M286.766 282.655C279.321 274.819 238.242 302.568 222.517 298.486C204.229 293.735 167.113 234.779 156.787 245.181C146.463 255.587 172.178 323.115 214.014 330.579C256.072 338.08 296.557 292.961 286.766 282.655Z" fill="#FF867A"/>
<path d="M165.433 245.699C165.433 245.699 165.223 234.843 162.537 234.113C159.852 233.377 153.685 230.96 153.718 232.201C153.751 233.446 158.469 234.73 158.469 234.73C158.469 234.73 151.923 233.686 151.469 234.313C151.016 234.936 151.93 235.569 151.93 235.569C151.93 235.569 151.073 236.112 150.999 236.879C150.924 237.646 156.085 239.664 156.085 239.664C156.085 239.664 154.319 250.581 161.335 250.576C168.352 250.568 165.433 245.699 165.433 245.699Z" fill="#FF867A"/>
<path d="M279.679 272.349C279.182 271.55 278.459 270.92 277.643 270.442C275.142 268.977 268.792 265.48 266.234 266.17C263.01 267.037 253.945 276.36 256.98 278.528C259.826 280.559 283.369 278.227 279.679 272.349Z" fill="#FF867A"/>
<path d="M269.244 259.39C270.279 259.089 270.709 258.598 270.781 258.502C270.974 258.261 270.93 257.908 270.689 257.72C270.452 257.527 270.107 257.563 269.911 257.8C269.875 257.836 268.863 258.891 265.724 258.33C265.418 258.277 265.125 258.477 265.073 258.783C265.016 259.089 265.222 259.377 265.526 259.429C267.224 259.735 268.426 259.622 269.244 259.39Z" fill="#C96C67"/>
<path d="M222.356 300.441C229.92 300.441 234.219 298.9 234.448 298.818C235.03 298.602 235.328 297.959 235.114 297.382C234.903 296.8 234.26 296.502 233.678 296.715C233.609 296.739 226.691 299.188 215.061 297.734C214.443 297.654 213.889 298.092 213.813 298.707C213.736 299.32 214.17 299.878 214.783 299.955C217.578 300.308 220.112 300.441 222.356 300.441Z" fill="#C96C67"/>
<path d="M190.519 319.908C190.895 319.908 191.265 319.715 191.474 319.366C191.795 318.84 191.626 318.15 191.096 317.829C175.303 308.253 163.995 282.903 163.882 282.651C163.632 282.085 162.971 281.827 162.406 282.077C161.841 282.326 161.584 282.988 161.834 283.551C162.304 284.619 173.534 309.799 189.937 319.744C190.117 319.856 190.318 319.908 190.519 319.908Z" fill="#C96C67"/>
<path d="M244.514 406.813C246.621 410.835 249.653 415.54 253.426 418.612C253.017 414.918 252.705 411.157 252.527 407.271C252.435 405.179 255.688 405.182 255.783 407.271C256.815 430.447 262.649 449.445 266.764 472.164C267.138 474.208 264.001 475.088 263.628 473.028C260.356 454.97 256.04 439.199 253.82 421.904C248.927 418.796 244.992 412.974 242.411 408.045C241.68 406.651 243.787 405.419 244.514 406.813Z" fill="#E25344"/>
<path d="M325.508 527.802C326.234 527.802 326.901 527.321 327.101 526.585C329.165 519.042 322.963 511.815 322.698 511.509C322.099 510.819 321.051 510.752 320.364 511.349C319.674 511.952 319.605 512.996 320.204 513.681C320.256 513.743 325.503 519.889 323.913 525.715C323.673 526.593 324.191 527.504 325.074 527.746C325.218 527.786 325.362 527.802 325.508 527.802Z" fill="#E25344"/>
</svg>
