<svg width="100" height="101" viewBox="0 0 100 101" fill="none" xmlns="http://www.w3.org/2000/svg">
<path d="M53.8674 15.5693L0 24.7836V97.2014C0 98.8814 1.36191 100.243 3.04199 100.243H50L80.9641 45.4383L53.8674 15.5693Z" fill="#F8F9F2"/>
<path d="M50 15.5693V100.243H97.118C98.7096 100.243 100 98.9531 100 97.3613V24.7836L50 15.5693Z" fill="#E4EBEF"/>
<path d="M57.3312 12.5221L57.2767 24.7834H100V3.1252C100 1.5334 98.7095 0.243164 97.1179 0.243164H70.1867L57.3312 12.5221Z" fill="#444444"/>
<path d="M55.4721 11.9174L50 0.243164H2.88203C1.29023 0.243164 0 1.5334 0 3.1252V24.7834H50L55.4721 11.9174Z" fill="#748591"/>
<path d="M50 24.7834H57.2768L70.1867 0.243164H50V24.7834Z" fill="#4F5F6A"/>
<path d="M35.9725 15.4517C37.5905 15.4517 38.9022 14.14 38.9022 12.522C38.9022 10.904 37.5905 9.59229 35.9725 9.59229C34.3545 9.59229 33.0428 10.904 33.0428 12.522C33.0428 14.14 34.3545 15.4517 35.9725 15.4517Z" fill="#C1E086"/>
<path d="M23.5383 15.4517C25.1563 15.4517 26.468 14.14 26.468 12.522C26.468 10.904 25.1563 9.59229 23.5383 9.59229C21.9202 9.59229 20.6086 10.904 20.6086 12.522C20.6086 14.14 21.9202 15.4517 23.5383 15.4517Z" fill="#FFE28F"/>
<path d="M11.1041 15.4517C12.7221 15.4517 14.0338 14.14 14.0338 12.522C14.0338 10.904 12.7221 9.59229 11.1041 9.59229C9.4861 9.59229 8.17444 10.904 8.17444 12.522C8.17444 14.14 9.4861 15.4517 11.1041 15.4517Z" fill="#FF837F"/>
<path d="M23.0428 61.7539V78.8732C23.0428 80.4912 24.3545 81.8029 25.9725 81.8029C27.5904 81.8029 28.9022 80.4912 28.9022 78.8732V61.7539H23.0428Z" fill="#FF5A6F"/>
<path d="M35.0566 61.7539V73.4809C35.0566 75.0988 36.3684 76.4105 37.9863 76.4105C39.6043 76.4105 40.916 75.0988 40.916 73.4809V61.7539H35.0566Z" fill="#FF837F"/>
<path d="M62.0139 47.6973C60.3959 47.6973 59.0842 49.009 59.0842 50.627V61.7539H64.9435V50.627C64.9435 49.009 63.6318 47.6973 62.0139 47.6973Z" fill="#7CDCA6"/>
<path d="M74.0275 41.7051C72.4096 41.7051 71.0978 43.0168 71.0978 44.6348V61.7541H76.9572V44.6348C76.9572 43.0166 75.6455 41.7051 74.0275 41.7051Z" fill="#43C6B1"/>
<path d="M50 50.2646C48.382 50.2646 47.0703 51.5764 47.0703 53.1943V61.7541H52.1762L50 50.2646Z" fill="#C1E086"/>
<path d="M47.0703 61.7539V70.3137C47.0703 71.9316 48.382 73.2434 50 73.2434L52.1762 61.7539H47.0703Z" fill="#FFA05F"/>
<path d="M52.9297 61.7541V53.1943C52.9297 51.5764 51.618 50.2646 50 50.2646V61.7541H52.9297Z" fill="#7CDCA6"/>
<path d="M52.9297 70.3137V61.7539H50V73.2434C51.618 73.2434 52.9297 71.9316 52.9297 70.3137Z" fill="#FF837F"/>
<path d="M16.8885 58.8241V39.2349C16.8885 37.6169 15.5768 36.3052 13.9588 36.3052C12.3408 36.3052 11.0291 37.6169 11.0291 39.2349V86.0737C11.0291 87.6917 12.3408 89.0034 13.9588 89.0034C15.5768 89.0034 16.8885 87.6917 16.8885 86.0737V64.6835H50L52.9297 61.7538L50 58.8241H16.8885Z" fill="#E4EBEF"/>
<path d="M83.1117 86.0893C83.1117 87.7072 84.4234 89.0189 86.0414 89.0189C87.6594 89.0189 88.9711 87.7072 88.9711 86.0893V39.25C88.9711 37.632 87.6594 36.3203 86.0414 36.3203C84.4234 36.3203 83.1117 37.632 83.1117 39.25V58.8244H50V64.6838H83.1117V86.0893Z" fill="#BCD1D6"/>
</svg>
