<svg width="339" height="483" viewBox="0 0 339 483" fill="none" xmlns="http://www.w3.org/2000/svg">
<path d="M158.822 155.453L158.894 155.398C158.961 155.321 158.991 155.22 159.013 155.121C159.464 153.186 158.656 151.137 157.381 149.666C157.304 149.577 157.22 149.483 157.19 149.369C157.143 149.178 157.249 148.99 157.333 148.814C157.708 148.024 157.641 147.077 157.301 146.272C156.964 145.469 156.375 144.793 155.723 144.211C155.537 144.045 155.342 143.882 155.196 143.678C155.064 143.498 154.975 143.289 154.888 143.084C154.499 142.175 154.113 141.263 153.722 140.354C153.422 139.65 153.048 139.291 152.587 138.716C151.428 137.267 150.412 135.788 149.052 134.505C147.858 133.376 146.491 132.31 144.925 131.758C140.986 130.368 131.654 129.39 131.654 129.39C131.654 129.39 136.879 144.32 137.275 144.937C137.672 145.554 142.242 151.321 142.245 151.323L142.448 151.375C142.643 151.425 142.837 151.472 143.032 151.521C143.904 151.739 144.776 151.957 145.648 152.175C146.875 152.483 148.098 152.79 149.325 153.097C150.633 153.424 151.94 153.751 153.248 154.078C154.368 154.36 155.49 154.64 156.61 154.92C157.016 155.022 157.423 155.123 157.829 155.225C157.978 155.262 158.129 155.299 158.277 155.339C158.448 155.381 158.664 155.53 158.822 155.453Z" fill="#61B7B0"/>
<path d="M152.823 151.006C152.823 151.006 160.18 154.179 158.838 155.478C157.493 156.776 152.543 155.163 152.543 155.163L152.823 151.006Z" fill="#1A1A1A"/>
<path d="M157.161 170.173C157.161 170.173 159.554 166.769 158.018 161.661C156.479 156.553 154.835 151.952 154.835 151.952C154.835 151.952 145.77 147.32 143.811 149.014C141.849 150.706 142.897 160.482 142.897 160.482L157.161 170.173Z" fill="#F99978"/>
<path d="M153.135 129.989C153.135 129.989 150.534 133.17 148.545 133.883L140.132 129.122L147.464 125.664L153.135 129.989Z" fill="#1A1A1A"/>
<path d="M158.694 124.623C158.694 124.623 164.399 120.704 164.481 114.685C164.481 114.685 171.216 116.758 169.812 113.894C168.41 111.028 164.855 111.556 164.855 111.556C164.855 111.556 168.167 109.49 166.557 107.951C165.417 106.864 164.116 108.454 164.116 108.454C164.116 108.454 163.118 94.2127 153.843 88.188C144.566 82.1608 142.943 89.107 142.943 89.107C142.943 89.107 136.634 86.1319 133.872 91.9906C131.11 97.8493 133.304 106.044 133.304 106.044L149.146 126.182L158.694 124.623Z" fill="#1A1A1A"/>
<path d="M124.028 123.219C124.028 123.219 123.233 117.865 128.856 109.455C134.482 101.042 137.12 98.969 137.12 98.969C137.12 98.969 139.169 100.488 144.071 99.4793C148.971 98.4711 148.887 104.516 151.867 107.58C154.847 110.647 154.622 112.227 154.458 114.915C154.297 117.605 151.776 123.026 152.92 124.121C154.065 125.213 158.675 121.301 160.751 123.94C162.827 126.578 158.506 133.39 154.699 133.254C150.891 133.118 149.96 131.575 149.96 131.575C149.96 131.575 146.747 132.157 144.361 132.912C129.475 137.619 124.028 123.219 124.028 123.219Z" fill="#F99978"/>
<path d="M132.738 115.475C133.587 115.695 140.932 117.878 140.811 119.282C140.779 119.661 136.188 121.311 135.854 121.373C133.369 121.817 132.411 115.391 132.738 115.475Z" fill="white"/>
<path d="M146.766 111.853C147.117 111.781 147.442 111.828 147.697 112.041L147.791 112.103L147.828 112.123L147.856 112.15C148.747 112.871 148.153 114.348 147.216 114.774C147.041 114.91 146.845 115.009 146.624 115.007C146.404 115.007 146.188 114.925 146.01 114.794L145.946 114.781C145.445 114.576 145.302 114.117 145.381 113.624C145.324 112.829 145.941 112.022 146.766 111.853Z" fill="#1A1A1A"/>
<path d="M133.748 104.525C134.486 104.26 135.301 104.672 135.509 105.432C135.526 105.499 135.539 105.571 135.541 105.638C135.569 105.868 135.517 106.099 135.375 106.299L135.326 106.369L135.308 106.388C135.021 106.708 134.721 107.025 134.31 107.184C133.52 107.491 132.762 106.852 132.692 106.064C132.633 105.378 133.116 104.753 133.748 104.525Z" fill="#1A1A1A"/>
<path d="M135.601 112.715C135.864 112.423 136.339 112.393 136.629 112.661C136.916 112.923 137.201 113.186 137.489 113.449C137.776 113.714 137.806 114.182 137.541 114.477C137.281 114.766 136.805 114.796 136.513 114.531C136.228 114.269 135.94 114.006 135.655 113.743C135.366 113.478 135.336 113.008 135.601 112.715Z" fill="#D35C48"/>
<path d="M148.616 105.167C149.221 105.985 149.946 106.701 150.504 107.553C151.073 108.417 151.529 109.351 152.064 110.236C152.545 111.036 151.341 111.853 150.855 111.048C150.323 110.164 149.867 109.227 149.297 108.365C148.735 107.516 148.012 106.797 147.407 105.98C146.852 105.227 148.059 104.412 148.616 105.167Z" fill="#1A1A1A"/>
<path d="M133.803 101.528C134.689 101.327 135.433 101.538 136.272 101.82C137.154 102.118 136.793 103.527 135.903 103.225C135.346 103.039 134.801 102.791 134.206 102.925C133.295 103.131 132.888 101.736 133.803 101.528Z" fill="#1A1A1A"/>
<path d="M0.00104268 477.973C-0.209524 481.1 31.4993 481.389 70.895 481.389C110.288 481.389 142.413 481.845 142.663 477.973C142.854 474.981 110.581 474.555 71.1848 474.555C31.7916 474.555 0.293358 473.643 0.00104268 477.973Z" fill="#887799"/>
<path d="M28.207 478.954L35.4109 479.48C35.4109 479.48 37.5463 479.48 40.0409 479.358C43.4223 479.195 47.4602 478.811 47.76 477.897C47.9656 477.27 48.4858 475.989 48.6047 474.21C48.7831 471.49 48.0003 467.596 43.6428 463.13C40.514 459.922 45.7014 438.865 44.158 435.699C42.9194 433.16 34.8956 431.48 34.8956 431.48L28.207 478.954Z" fill="#B25A3C"/>
<path d="M53.4155 407.211C53.4155 407.211 43.6428 435.174 41.5842 443.086C39.5256 450.999 39.0128 464.713 39.0128 464.713L19.9727 461.547C19.9727 461.547 29.7875 402.715 30.8181 397.966C31.8461 393.219 53.4155 407.211 53.4155 407.211Z" fill="#E9946B"/>
<path d="M13.2842 477.369C15.3428 479.48 41.0715 480.007 42.6148 478.954C43.4472 478.382 43.083 473.995 42.2532 469.732C41.5397 466.078 42.4068 450.815 41.4555 449.839C39.3969 447.729 41.6884 444.617 36.0278 441.454C36.0278 441.454 27.2262 438.446 24.6548 442.137C22.0809 445.831 20.5475 453.327 18.4914 457.546C17.6045 459.362 16.5046 464.009 15.1867 467.329C13.4428 471.716 12.11 476.167 13.2842 477.369Z" fill="#B25A3C"/>
<path d="M15.1867 467.329C17.6714 467.443 20.8795 467.495 25.118 467.876C25.8736 458.584 27.459 454.88 30.241 445.995C30.4193 445.42 31.3013 445.663 31.1254 446.242C28.4128 455.086 27.6969 459.01 26.9685 468.243C33.6571 468.85 40.3828 469.808 42.0996 469.987C42.927 474.248 43.4472 478.382 42.6149 478.954C41.0715 480.007 15.3428 479.48 13.2842 477.369C12.11 476.167 13.4428 471.716 15.1867 467.329Z" fill="#923B16"/>
<path d="M21.9847 435.9C22.2126 434.748 24.0681 433.715 26.1935 433.702C28.319 433.688 30.831 441.208 30.831 441.208L29.243 443.262C29.243 443.262 21.7543 437.052 21.9847 435.9Z" fill="#B25A3C"/>
<path d="M40.041 479.358C43.4225 479.195 47.4604 478.811 47.7601 477.897C47.9657 477.27 48.486 475.989 48.6049 474.21C48.0946 474.285 45.1417 474.686 44.6735 474.205C44.1582 473.678 44.1582 470.514 42.0996 469.987C40.1748 469.491 40.0509 478.224 40.041 479.358Z" fill="#923B16"/>
<path d="M89.0362 278.035C89.0362 278.035 82.0727 322.922 80.465 332.807C78.8572 342.691 60.6445 419.909 60.6445 419.909L21.5361 408.375C21.5361 408.375 41.7505 331.647 42.1171 319.382C43.1452 284.968 39.3798 264.704 40.0635 235.148C40.6159 211.24 49.8214 197.341 49.8214 196.112C49.8214 193.367 86.8934 211.587 86.8934 211.587L89.0362 278.035Z" fill="#7199C9"/>
<path d="M62.2489 415.515C62.2489 415.515 20.4652 401.786 19.3925 403.433C18.3223 405.08 16.1795 418.809 17.7873 420.457C19.3925 422.104 50.4647 424.851 54.7503 426.499C59.0359 428.146 59.571 428.696 60.6437 426.499C61.7139 424.301 62.2489 415.515 62.2489 415.515Z" fill="#B0C1D3"/>
<path d="M88.3425 407.966C88.3425 407.966 92.0484 441.057 89.3705 449.842C86.6926 458.629 84.1683 473.804 85.776 476.551C87.3813 479.296 132.874 476.215 136.624 473.47C140.375 470.725 135.797 471.557 130.973 469.36C127.691 467.864 118.25 457.752 115.565 453.951C109.939 445.99 111.413 418.844 112.483 409.507C113.556 400.173 88.3425 407.966 88.3425 407.966Z" fill="#E9946B"/>
<path d="M83.7574 478.127C84.7458 479.646 112.414 480.661 121.308 480.661C130.201 480.661 141.566 480.153 143.048 478.635C143.122 478.558 143.187 478.481 143.251 478.397C144.797 476.381 143.34 472.375 142.198 470.566C139.55 466.382 134.796 466.031 130.394 464.294C126.304 462.674 120.656 458.876 118.342 454.828C114.024 447.273 113.403 436.596 113.403 436.596C113.403 436.596 113.294 436.586 113.095 436.566C111.768 436.455 106.417 436.16 104.262 438.37C102.374 440.304 100.774 443.418 99.4706 445.009C99.2526 445.266 99.0445 445.489 98.8463 445.653C98.668 445.804 98.497 445.91 98.3335 445.967C97.033 446.413 94.2114 443.349 91.204 443.616C90.9711 443.631 90.7333 443.678 90.498 443.738C90.3097 443.792 90.1215 443.859 89.9332 443.941C89.6508 444.067 89.351 445.085 89.0389 446.584C88.4567 449.359 87.8201 453.781 87.1165 457.281C87.0521 457.6 86.9902 457.915 86.9233 458.212C86.6979 459.25 86.465 460.172 86.2272 460.908C85.6104 462.808 84.9093 465.85 84.3693 468.865C83.6137 473.083 83.1802 477.24 83.7574 478.127Z" fill="#B25A3C"/>
<path d="M84.3693 468.865C85.3106 468.904 86.527 468.959 87.8771 469.033C88.5583 462.587 91.4369 456.535 92.0587 450.013C92.1107 449.453 92.9678 449.445 92.9183 450.013C92.346 456.535 89.4972 462.637 88.8432 469.09C93.3964 469.365 99.0618 469.868 101.296 470.784C106.238 472.811 105.25 473.821 109.204 474.329C112.895 474.8 139.827 474.414 143.655 474.29C143.937 475.954 143.972 477.686 143.048 478.635C141.566 480.153 130.201 480.661 121.308 480.661C112.414 480.661 84.7458 479.646 83.7574 478.127C83.1802 477.24 83.6137 473.083 84.3693 468.865Z" fill="#923B16"/>
<path d="M99.9486 445.028C104.987 446.849 108.748 451.321 112.305 455.193C114.408 457.479 116.544 460.053 119.412 461.316C122.633 462.736 126.158 464.435 129.567 464.309C130.642 464.267 130.481 465.121 129.46 465.24C126.425 465.597 123.312 464.485 120.326 463.672C117.544 462.914 115.342 461.155 113.318 459.119C108.763 454.539 105.567 449.549 99.8148 446.473C98.8933 445.98 98.9453 444.667 99.9486 445.028Z" fill="#923B16"/>
<path d="M82.6373 442.873C82.9594 441.972 83.3805 440.52 84.2971 440.054C85.1022 439.643 85.9444 440.223 86.6306 440.621C88.7958 441.887 90.6933 443.654 92.0806 445.779C92.2763 446.079 92.2317 446.406 92.0682 446.663C92.0335 447.025 91.8031 447.36 91.3102 447.644C90.9311 447.865 90.4307 447.808 90.1211 447.488C89.9799 447.345 89.8412 447.194 89.7 447.047C89.1773 446.688 88.662 446.319 88.1566 445.935C86.6851 445.152 85.2087 444.347 83.5811 444.147C83.0089 444.075 82.3921 443.552 82.6373 442.873Z" fill="#B25A3C"/>
<path d="M120.187 197.653C120.145 195.002 128.248 413.23 127.136 415.514C126.063 417.712 90.708 422.654 89.1003 419.359C88.0276 417.159 85.6173 363.23 83.1797 325.025C81.9658 306.022 80.7445 290.909 79.6793 287.991C76.4638 279.204 68.4276 268.7 66.8199 251.127C65.2146 233.553 66.8199 198.408 66.8199 198.408L120.187 197.653Z" fill="#7199C9"/>
<path d="M87.7601 416.887C87.7601 416.887 85.6173 424.576 86.1549 426.224C86.69 427.871 107.046 426.771 111.331 428.968C115.617 431.166 127.404 435.56 129.011 431.166C130.617 426.771 131.154 415.242 129.011 414.142C126.868 413.045 105.975 415.242 102.225 416.339C98.4743 417.437 88.8328 415.242 87.7601 416.887Z" fill="#B0C1D3"/>
<path d="M94.3169 247.99C94.0692 247.99 93.8264 247.872 93.6778 247.651C93.4424 247.297 93.5365 246.816 93.8883 246.581C100.75 241.983 108.071 236.414 108.445 235.052C109.091 232.698 109.071 219.807 108.452 217.855C107.226 217.555 101.35 216.7 94.5274 215.969C88.208 215.293 84.2419 215.053 82.0768 215.053C81.0537 215.053 80.4319 215.107 80.1569 215.192C79.9216 215.647 79.4633 217.327 79.1016 221.172C78.7895 224.474 78.787 226.877 78.891 227.241C79.3122 228.096 86.085 236.687 90.2542 241.904C90.5217 242.236 90.4672 242.719 90.1353 242.986C89.9916 243.098 89.8231 243.155 89.6547 243.155C89.4293 243.155 89.2038 243.056 89.0527 242.865C86.4467 239.607 77.9101 228.896 77.4741 227.845C76.9414 226.565 77.7069 215.821 78.9926 214.159C79.2032 213.889 79.493 213.515 82.2874 213.515C84.4525 213.515 88.1188 213.74 94.4184 214.409C98.7388 214.867 108.502 216.044 109.356 216.549C109.755 216.784 110.419 217.178 110.459 225.522C110.478 229.314 110.32 234.041 109.931 235.46C109.795 235.951 109.438 237.252 101.957 242.778C98.3523 245.444 94.7826 247.837 94.7454 247.862C94.629 247.941 94.4952 247.983 94.3639 247.99C94.3491 247.99 94.3342 247.99 94.3169 247.99Z" fill="#5281AD"/>
<path d="M40.8187 240.655C40.6131 240.655 40.4075 240.574 40.2564 240.41C39.9641 240.1 39.9814 239.612 40.2936 239.323C41.3687 238.317 44.7551 236.59 48.0275 234.92C50.3884 233.719 53.3264 232.22 53.7029 231.802C54.4659 230.57 56.0513 217.808 55.7045 215.883C54.56 215.1 51.5725 214.84 48.7856 214.84C47.542 214.84 46.3381 214.892 45.3546 214.971L45.3372 214.974C45.3224 214.974 45.3075 214.974 45.2927 214.974C44.8963 214.974 44.5569 214.669 44.5247 214.265C44.49 213.842 44.8071 213.47 45.2307 213.435C45.5949 213.406 47.0787 213.297 48.8946 213.297C51.7211 213.297 55.3552 213.562 56.8317 214.81C57.1562 215.083 57.6987 215.541 56.7152 223.731C56.4279 226.136 55.6723 231.831 54.9093 232.758C54.4164 233.357 52.6476 234.296 48.7286 236.295C45.8476 237.764 42.263 239.593 41.3439 240.447C41.2077 240.576 41.0367 240.643 40.8633 240.655C40.8485 240.655 40.8336 240.655 40.8187 240.655Z" fill="#5281AD"/>
<path d="M81.399 318.156C81.4907 318.166 81.5848 318.166 81.6814 318.154C82.2438 318.074 82.6352 317.557 82.5559 316.994C80.4973 302.376 79.1175 284.646 78.3322 272.181L78.3248 272.111C78.2108 271.249 77.1431 263.632 74.812 260.763C74.3736 260.149 64.9674 246.796 64.9551 232.369C64.9526 230.511 65.0517 228.556 65.2523 226.562C65.3068 225.997 64.903 225.495 64.3308 225.438C63.766 225.381 63.2631 225.794 63.2061 226.359C63.003 228.423 62.8989 230.444 62.9014 232.371C62.9138 247.748 72.7485 261.42 73.1647 261.992L73.2043 262.041C74.869 264.063 75.9862 270.13 76.2835 272.347C77.0738 284.864 78.4585 302.621 80.5196 317.279C80.5865 317.745 80.9556 318.094 81.399 318.156Z" fill="#346A91"/>
<path d="M52.8432 407.374C52.5385 407.374 52.2239 407.126 52.3279 406.743C59.2295 381.688 65.1477 356.378 70.9544 331.053C71.7397 327.627 72.3069 324.049 73.4192 320.713C73.8949 319.283 74.6405 318.092 75.4952 316.863C76.3473 315.634 77.5042 313.36 75.6017 312.416C75.1607 312.198 75.4332 311.601 75.8445 311.601C75.9089 311.601 75.9782 311.616 76.0501 311.651C77.913 312.562 77.7396 314.891 76.8576 316.447C76.1368 317.718 75.1756 318.778 74.6232 320.15C74.0088 321.669 73.6992 323.299 73.3375 324.889C71.8437 331.471 70.3474 338.053 68.8314 344.633C65.762 357.951 62.6085 371.251 59.2518 384.502C57.3444 392.025 55.37 399.531 53.3114 407.015C53.242 407.265 53.0438 407.374 52.8432 407.374Z" fill="#5281AD"/>
<path d="M56.5317 84.5242C55.9842 84.6555 42.1165 91.8469 36.9812 101.605C31.8434 111.365 31.8434 126.258 27.2208 138.585C22.5983 150.914 19.0038 152.455 20.5447 158.616C22.0855 164.782 24.1391 163.241 22.5983 169.917C21.0574 176.594 28.2489 188.408 41.6038 192.005C54.9561 195.599 56.5317 84.5242 56.5317 84.5242Z" fill="#AFA366"/>
<path d="M37.4775 120.251C37.2942 120.251 37.1183 120.147 37.0688 119.912C36.125 115.539 36.1299 108.026 36.0605 103.572L37.0539 101.471C36.9771 106.542 36.94 114.682 37.9779 119.659C38.0523 120.018 37.755 120.251 37.4775 120.251Z" fill="#A4985C"/>
<path d="M37.5563 185.594C40.0212 197.425 44.8271 199.848 44.8271 199.848C44.8271 199.848 44.8766 199.962 44.9757 200.162C45.0971 200.415 45.4266 200.752 45.5331 201.297C46.2267 204.844 50.8492 211.52 59.5791 215.115C65.0885 217.384 76.0057 214.676 85.3722 208.27C94.7387 201.862 112.483 199.89 112.483 199.89L100.159 84.5415C100.159 84.5415 99.6659 77.6424 97.6965 75.1775C95.7246 72.7126 72.5549 68.7689 70.0901 69.7548C67.6277 70.7408 65.6533 75.1775 62.6979 77.1494C59.7401 79.1188 55.7963 85.5275 55.7963 85.5275C55.7963 85.5275 51.3596 87.4994 47.4158 92.4291C43.472 97.3588 43.472 105.739 39.0352 127.921C34.5985 150.102 35.0915 173.765 37.5563 185.594Z" fill="#AFA366"/>
<path d="M35.3569 149.554C36.3825 136.11 39.1645 122.874 40.1826 109.428C40.2619 108.373 41.8969 108.35 41.8473 109.428C41.2255 122.741 38.3965 135.813 37.3437 149.084C36.8358 155.512 36.7491 161.973 37.0786 168.411C37.4254 175.201 38.6616 181.806 39.4122 188.539C39.5261 189.574 37.8738 189.755 37.6186 188.782C36.0208 182.712 35.5675 176.071 35.1934 169.823C34.7896 163.073 34.8416 156.298 35.3569 149.554Z" fill="#918346"/>
<path d="M44.9756 200.162C45.097 200.415 45.2852 200.799 45.533 201.297C48.248 201.953 53.8491 204.413 56.2545 205.909C57.7037 206.816 59.1826 207.998 60.9117 208.285C62.6433 208.58 64.2833 207.728 65.782 206.972C72.9487 203.35 84.2227 194.816 92.8014 195.133C93.3687 195.153 93.386 194.289 92.8261 194.261C84.7156 193.806 73.4763 201.547 66.8571 205.283C65.0983 206.274 62.7672 207.802 60.6764 207.235C58.7441 206.707 56.9977 205.179 55.2884 204.173C53.0366 202.847 47.5321 200.633 44.9756 200.162Z" fill="#918346"/>
<path d="M90.8369 77.7415C93.8022 77.8034 96.5073 78.7968 99.2249 79.8991C100.25 80.3153 99.2571 81.497 98.1869 81.0907C95.613 80.1147 93.6164 79.6638 90.8369 79.5573C89.6726 79.5152 89.6627 77.7167 90.8369 77.7415Z" fill="#9A8E53"/>
<path d="M89.4328 201.5C89.4849 202.652 89.6062 206.088 90.1413 207.155C91.1694 209.209 129.433 211.52 132.515 209.979C133.399 209.539 133.989 207.869 134.375 205.711C135.346 200.36 135.084 192.002 135.084 192.002C135.084 192.002 135.084 190.474 135.046 188.469C134.992 185.68 134.868 181.982 134.571 180.191C134.323 178.717 129.398 178.258 128.38 178.08C123.901 177.272 119.36 176.799 114.837 176.415C110.507 176.046 106.167 175.779 101.827 175.675C97.9372 175.583 93.3717 174.78 91.0158 178.598C89.5047 181.038 89.8168 183.183 89.6583 185.901C89.4997 188.66 89.4056 191.422 89.3709 194.187C89.3337 196.62 89.3288 199.06 89.4328 201.5Z" fill="#B25A3C"/>
<path d="M93.735 179.42C93.735 179.42 74.732 147.062 64.4589 121.381C54.1857 95.699 54.701 89.0203 53.6729 86.4539C52.6473 83.885 54.5771 81.5514 55.6646 81.435C56.7546 81.3161 55.2138 90.5636 63.4308 109.054C71.6503 127.544 92.7094 173.257 96.8167 177.364C100.926 181.474 93.735 179.42 93.735 179.42Z" fill="#B25A3C"/>
<path d="M97.8945 206.288C98.0555 206.117 98.1917 205.917 98.2784 205.652C98.4296 205.171 98.4444 204.656 98.4593 204.151C98.5138 202.065 98.5856 199.979 98.6451 197.891C98.7615 193.612 98.7293 189.322 98.8978 185.046C98.9498 183.765 99.0563 182.271 99.3362 181.03C99.6335 179.71 99.4105 178.372 98.328 177.428C98.0307 177.168 97.6715 176.938 97.5427 176.564C97.8796 176.43 98.2561 176.581 98.5782 176.75C99.579 177.282 100.674 177.807 100.944 178.969C101.244 180.275 100.954 181.63 100.914 182.948C100.808 186.495 100.686 190.045 100.565 193.595C100.451 196.974 100.335 200.355 100.218 203.737C100.178 204.958 100.29 206.271 99.2322 207.121C98.65 207.591 97.8796 207.797 97.1315 207.765C96.9903 207.757 96.8169 207.72 96.7772 207.584C96.7525 207.507 96.7847 207.423 96.8243 207.354C97.0993 206.885 97.5526 206.653 97.8945 206.288Z" fill="#923B16"/>
<path d="M110.942 186.354L134.375 205.711C135.346 200.36 135.083 192.002 135.083 192.002C135.083 192.002 135.083 190.474 135.046 188.47L110.942 186.354Z" fill="#1A1A1A"/>
<path d="M91.9693 176.398C92.6951 177.131 93.5275 179.098 94.5753 179.413C95.264 179.618 97.278 179.958 97.7784 179.336C98.0782 178.964 98.6876 179.445 98.4374 179.844C97.8106 180.835 95.8908 180.649 94.9048 180.498C93.3095 180.255 92.6778 179.049 91.9395 177.622C91.7116 177.181 91.6002 176.024 91.9693 176.398Z" fill="#923B16"/>
<path d="M151.242 156.132C150.241 153.241 145.356 145.777 142.787 143.21C140.218 140.641 133.542 132.937 130.973 123.177C128.404 113.419 125.838 103.146 122.243 97.495C118.646 91.8469 101.697 82.6018 98.6154 81.5737C95.5337 80.5481 97.0746 125.233 97.0746 125.233C97.0746 125.233 97.5873 130.883 95.5337 137.044C93.4801 143.21 94.5057 145.777 95.5337 147.833C96.5618 149.886 98.6154 147.833 98.1026 152.455C97.5873 157.078 96.0465 172.999 107.861 184.298C119.675 195.599 132.829 196.226 137.652 194.058C146.847 189.924 155.771 169.229 151.242 156.132Z" fill="#AFA366"/>
<path d="M93.5769 142.531C94.1517 137.143 95.6256 131.74 96.6983 126.434C96.9163 125.362 98.5265 125.822 98.3333 126.883C97.4192 131.892 96.3515 136.923 95.6628 141.964C95.42 143.738 95.477 145.472 96.6884 146.899C97.1962 147.493 97.8081 148.004 98.2589 148.65C99.3886 150.275 99.4753 152.096 99.2821 154.018C98.6132 160.677 98.8634 167.222 101.138 173.237C101.343 173.777 101.043 174.371 100.496 174.552L100.476 174.557C99.9658 174.728 99.4034 174.471 99.2102 173.97C96.8965 167.955 96.3861 161.321 97.1516 154.826C97.3003 153.555 97.4662 152.378 97.112 151.127C96.6933 149.649 95.6826 148.962 94.8007 147.805C93.5992 146.225 93.3713 144.476 93.5769 142.531Z" fill="#918346"/>
<path d="M125.684 104.902C125.682 104.902 125.682 104.902 125.682 104.902C125.667 104.862 125.652 104.823 125.64 104.783L125.684 104.902Z" fill="#CCC6A9"/>
<path d="M101.108 123.655C100.766 123.655 100.422 123.296 100.65 122.912C103.937 117.308 108.163 112.252 113.11 108.036C115.815 105.734 119.445 103.428 122.999 103.428C123.757 103.428 124.515 103.535 125.259 103.767L125.64 104.783C125.653 104.823 125.667 104.862 125.682 104.902C124.8 104.503 123.896 104.327 122.987 104.327C118.999 104.327 114.894 107.686 112.149 110.218C107.97 114.08 104.43 118.534 101.512 123.414C101.413 123.583 101.262 123.655 101.108 123.655Z" fill="#A4985C"/>
<path d="M91.8651 19.9174C91.8651 19.9174 104.261 19.9174 107.474 30.0172C110.687 40.1169 104.031 50.447 104.031 52.7435C104.031 55.0399 111.378 64.6788 107.705 72.0264C105.131 77.1716 98.2589 83.5332 98.2589 83.5332C98.2589 83.5332 101.001 91.178 97.7882 94.391C94.5728 97.604 90.7182 95.9244 91.1789 100.056C91.6372 104.189 92.5934 114.219 82.2237 119.084C71.7325 124.007 63.8598 114.494 63.8598 114.494C63.8598 114.494 51.0054 115.41 49.1672 103.933C47.3316 92.4563 49.628 89.7015 47.7899 84.1921C45.9543 78.6827 42.7413 71.3377 46.8733 64.4509C51.0054 57.5642 59.7278 53.8904 59.7278 53.8904C59.7278 53.8904 55.1374 49.3001 57.4313 43.7907C59.7278 38.2813 67.9919 32.7719 67.9919 32.3136C67.9919 31.8553 72.5822 21.2948 77.1726 18.9984C81.7654 16.7044 91.8651 19.9174 91.8651 19.9174Z" fill="#1A1A1A"/>
<path d="M111.376 34.1691L111.478 34.1617C111.864 34.1072 112.134 33.748 112.08 33.3615C111.426 28.7959 109.454 25.2584 106.216 22.8481C99.8695 18.1239 90.9861 19.3898 90.612 19.4468C90.2256 19.5038 89.9605 19.8655 90.0175 20.2519C90.0744 20.6384 90.4312 20.9059 90.8226 20.8464C90.9068 20.8341 99.5103 19.6153 105.376 23.9901C108.297 26.1676 110.081 29.3855 110.678 33.5597C110.727 33.9139 111.03 34.1691 111.376 34.1691Z" fill="#1A1A1A"/>
<path d="M42.1812 81.1526C42.2679 81.1526 42.3546 81.1378 42.4388 81.1031C42.8029 80.9619 42.9838 80.5507 42.8401 80.1865C41.604 77.0231 40.6155 72.1726 42.9268 67.0373C46.9276 58.1489 60.7828 54.6758 61.1569 54.5965C61.5235 54.5693 61.8134 54.2646 61.8134 53.8905C61.8134 53.4991 61.4963 53.182 61.1049 53.182C60.2205 53.182 45.8599 57.0663 41.6362 66.4551C39.1218 72.0388 40.187 77.2856 41.5222 80.7018C41.6312 80.9817 41.8988 81.1526 42.1812 81.1526Z" fill="#1A1A1A"/>
<path d="M154.748 174.206C154.748 174.206 161.293 166.09 156.893 161.946C152.496 157.804 142.656 156.716 139.097 151.167C135.537 145.616 132.418 138.043 131.12 136.698C129.824 135.355 128.259 137.664 128.323 139.799C126.869 138.516 124.942 137.5 123.21 136.628C122.707 136.375 122.167 136.135 121.605 136.165C121.04 136.195 120.455 136.579 120.391 137.138C120.322 137.718 120.795 138.204 121.199 138.625C122.125 139.591 122.895 140.847 123.403 142.088C123.443 142.182 123.48 142.294 123.433 142.385C123.361 142.522 123.163 142.512 123.009 142.479C122.13 142.304 121.255 142.09 120.406 141.803C119.608 141.533 118.872 141.072 118.003 141.127C117.5 141.159 116.878 141.441 116.645 141.92C116.432 142.356 116.682 142.787 116.616 143.267C116.482 144.243 115.746 145.172 116.016 146.193C116.323 147.342 117.901 147.971 117.844 149.158C117.827 149.542 117.629 149.904 117.634 150.288C117.641 150.818 118.03 151.256 118.417 151.616C120.042 153.132 122.011 154.023 124.077 154.784C125.615 155.354 127.146 155.971 128.514 156.904C130.491 158.255 132.242 159.904 133.86 161.663C137.127 165.211 139.874 169.204 143.231 172.672C145.015 174.515 147.277 176.306 149.831 176.083C151.822 175.91 153.229 175.506 154.748 174.206Z" fill="#F99978"/>
<path d="M128.62 139.053C129.769 139.851 130.505 141.142 131.533 142.091C132.393 142.883 131.508 143.792 130.634 143.012C129.653 142.14 128.625 141.323 127.594 140.51C126.804 139.891 127.78 138.469 128.62 139.053Z" fill="#D35C48"/>
<path d="M145.428 155.141C148.527 155.958 151.359 158.267 154.188 159.766C155.248 160.326 154.569 160.871 153.496 160.335C150.754 158.968 147.95 157.876 145.034 156.937C143.932 156.58 144.266 154.836 145.428 155.141Z" fill="#D35C48"/>
<path d="M112.183 217.325L118.602 232.225C118.602 232.225 120.666 231.903 124.017 226.27C125.241 224.211 126.475 222.609 127.877 221.07C130.31 218.402 133.26 215.903 137.588 211.471C144.42 204.478 152.268 191.608 148.024 184.318C143.783 177.03 134.848 176.668 129.49 186.634C124.55 195.822 122.665 203.422 121.518 204.78C121.421 204.891 121.329 204.961 121.24 204.983C120.118 205.268 115.481 200.673 112.991 201.921C110.501 203.17 112.183 217.325 112.183 217.325Z" fill="#F99978"/>
<path d="M112.183 217.325L118.602 232.225C118.602 232.225 120.666 231.903 124.017 226.27C125.241 224.211 126.475 222.609 127.877 221.07C127.508 220.818 126.353 220.419 126.512 217.27C126.75 212.501 129.415 205.664 126.943 204.374C124.324 203.006 121.329 204.961 121.24 204.983C120.118 205.268 115.481 200.673 112.991 201.921C110.501 203.17 112.183 217.325 112.183 217.325Z" fill="#ED414C"/>
<path d="M120.38 230.781C119.652 231.683 117.581 233.88 114.371 231.589C111.158 229.297 103.845 211.79 109.773 204.071C115.701 196.35 122.382 209.474 122.749 217.51C123.115 225.544 121.408 229.505 120.38 230.781Z" fill="#F1E6DC"/>
<path d="M132.869 181.04C136.149 177.604 140.674 178.796 144.641 180.396C145.555 180.768 145.465 182.167 144.586 181.689C140.59 179.514 137.328 179.874 134.04 182.435C133.21 183.082 132.158 181.783 132.869 181.04Z" fill="#D35C48"/>
<path d="M233.752 30.3615C236.229 29.5812 245.266 38.5563 245.519 39.7602C245.769 40.9617 246.512 43.2135 245.053 44.2218C243.592 45.23 236.955 42.6115 234.919 40.4043C232.882 38.1996 233.752 30.3615 233.752 30.3615Z" fill="#93AABC"/>
<path d="M245.068 41.9055C255.384 44.8039 280.057 62.6946 282.559 65.375C285.063 68.0554 289.039 73.9438 289.312 74.2757C289.587 74.6102 283.171 82.3689 280.981 82.4333C278.791 82.4977 252.252 61.072 251.886 60.8713C251.517 60.6707 243.542 75.6135 240.034 82.8891C236.524 90.1648 227.405 99.4842 226.828 99.0383C226.249 98.5899 219.275 77.9569 219.951 73.8843C220.628 69.8117 245.068 41.9055 245.068 41.9055Z" fill="#B0C1D3"/>
<path d="M170.005 480.28C170.002 475.954 208.965 476.071 255.349 476.071C301.735 476.071 325.948 475.788 325.383 479.658C325.026 482.098 300.477 482.673 254.093 482.673C207.706 482.673 170.007 483.037 170.005 480.28Z" fill="#847895"/>
<path d="M242.66 407.624C242.66 407.624 239.477 447.399 242.13 455.886C244.781 464.371 247.434 476.039 244.781 477.099C242.13 478.159 187.507 478.689 185.384 477.099C183.263 475.508 214.023 462.78 217.204 455.356C220.388 447.932 217.204 412.928 217.204 412.928L242.66 407.624Z" fill="#EA8A6F"/>
<path d="M247.169 479.485C244.516 481.075 184.058 482.138 182.998 480.545C182.25 479.428 182.966 476.923 183.719 475.221C184.036 474.5 184.366 473.923 184.589 473.651C189.892 467.287 203.681 466.226 210.575 458.272C212.886 455.604 214.648 451.95 215.604 449.703C216.129 448.472 217.412 447.746 218.737 447.932C221.839 448.365 226.04 448.281 227.547 449.787C229.667 451.908 230.547 460.553 233.38 460.922C239.477 461.72 241.6 455.886 242.66 456.416C243.302 456.733 245.784 464.515 247.062 470.973C247.895 475.194 248.217 478.853 247.169 479.485Z" fill="#6C4E4E"/>
<path d="M247.169 479.484C244.516 481.075 184.058 482.138 182.998 480.545C182.25 479.428 182.966 476.923 183.719 475.221C186.313 475.253 223.94 475.734 227.016 474.713C229.774 473.789 242.108 471.275 247.062 470.973C247.895 475.194 248.217 478.853 247.169 479.484Z" fill="#F1E6DC"/>
<path d="M276.522 461.153L277.005 449.064L275.541 408.155L299.937 413.988C299.937 413.988 296.754 454.826 298.874 461.19C300.997 467.552 276.522 461.153 276.522 461.153Z" fill="#EA8A6F"/>
<path d="M315.315 479.219C314.255 481.34 277.661 482.403 275.54 480.28C274.713 479.452 274.857 475.868 275.332 471.817C276.088 465.491 276.601 458.007 276.601 458.007C278.724 457.477 279.784 462.25 281.374 461.72C282.965 461.19 287.208 452.703 288.798 451.113C290.389 449.52 295.693 450.052 298.873 450.052C302.057 450.052 304.707 460.657 305.768 462.78C306.83 464.901 312.132 468.084 313.194 469.675C313.725 470.47 314.515 472.315 315.045 474.228C315.58 476.155 315.845 478.154 315.315 479.219Z" fill="#6C4E4E"/>
<path d="M315.315 479.219C314.255 481.34 277.661 482.403 275.54 480.28C274.713 479.452 274.857 475.868 275.332 471.817C276.628 471.879 279.023 472.097 279.784 472.855C280.844 473.916 281.904 475.508 282.434 476.039C282.885 476.489 307.361 475.508 315.045 474.228C315.58 476.155 315.845 478.154 315.315 479.219Z" fill="#F1E6DC"/>
<path d="M309.365 466.348C303.449 464.031 298.071 463.474 291.962 465.077C290.739 465.396 291.256 467.284 292.483 466.969C298.416 465.456 304.2 465.899 309.997 467.757C311.208 468.144 310.502 466.794 309.365 466.348Z" fill="#4A3333"/>
<path d="M212.963 205.037C212.963 205.037 200.232 433.611 203.415 435.731C206.596 437.854 241.069 444.748 243.19 441.565C245.311 438.384 249.024 357.775 249.024 353.001C249.024 348.227 254.858 292.011 254.858 292.011C254.858 292.011 261.143 327.589 262.282 339.213C264.935 366.259 267.586 442.625 270.237 443.688C272.89 444.748 307.361 444.748 310.011 436.794C312.664 428.837 301.527 264.437 297.283 242.161C293.042 219.889 212.963 205.037 212.963 205.037Z" fill="#6168A7"/>
<path d="M244.845 282.236C243.034 302.832 241.52 331.944 239.893 352.555C239.437 358.367 238.981 364.181 238.533 369.995C238.486 370.637 239.482 370.632 239.531 369.995C241.193 349.387 242.784 320.289 244.397 299.676C244.85 293.864 245.306 288.053 245.709 282.236C245.749 281.679 244.892 281.689 244.845 282.236Z" fill="#93AABC"/>
<path d="M237.052 377.182C236.338 387.004 235.776 396.839 235.399 406.681C235.023 416.503 234.599 426.387 234.862 436.214C234.874 436.767 235.699 436.767 235.719 436.214C236.061 426.375 236.038 416.523 236.405 406.681C236.774 396.839 237.294 387.004 237.988 377.182C238.03 376.58 237.094 376.585 237.052 377.182Z" fill="#93AABC"/>
<path d="M253.798 282.996C252.574 273.65 247.768 252.826 247.298 243.358C247.236 242.105 245.291 242.095 245.341 243.358C245.705 252.519 250.241 275.592 251.675 284.587C252.213 287.949 253.236 300.922 255.388 313.226C255.552 314.158 257.556 316.234 257.509 315.347C256.979 305.272 254.93 291.674 253.798 282.996Z" fill="white"/>
<path d="M289.919 82.5993C291.46 85.0914 303.217 93.7767 309.972 98.6048C316.73 103.431 328.135 114.221 331.294 130.368C334.452 146.512 333.751 155.564 334.804 158.321C335.857 161.076 338.488 163.358 338.314 164.411C338.139 165.463 336.382 166.429 336.558 168.446C336.734 170.465 337.804 171.168 338.322 173.975C338.84 176.782 335.944 177.134 336.734 178.362C337.524 179.591 339.684 180.907 338.384 182.925C337.086 184.942 336.033 185.556 336.821 186.698C337.611 187.838 338.225 191.172 336.382 192.664C334.542 194.155 335.243 195.297 334.366 196.875C333.486 198.455 323.795 209.422 322.5 210.564C321.204 211.704 311.112 207.054 311.112 207.054C311.112 207.054 294.522 223.471 284.784 228.405C275.043 233.34 253.377 234.43 240.218 230.219C227.056 226.007 211.479 215.39 211.625 213.515C211.774 211.639 208.764 169.412 208.499 169.018C208.234 168.622 206.384 172.729 204.858 173.554C203.329 174.381 196.916 158.094 196.522 156.382C196.128 154.672 194.282 155.329 194.282 152.433C194.282 149.54 198.1 143.351 197.312 141.905C196.522 140.458 197.574 137.562 198.362 135.719C199.152 133.876 196.784 132.033 200.47 129.796C204.154 127.559 203.366 121.636 205.076 119.927C206.787 118.215 216.922 96.2341 223.898 90.0484C230.874 83.8627 267.435 79.914 275.083 80.0453C282.727 80.1791 289.919 82.5993 289.919 82.5993Z" fill="#F1E6DC"/>
<path d="M289.921 82.5993C289.921 82.5993 282.727 80.179 275.082 80.0477C272.251 79.9982 265.446 80.5085 257.652 81.487C259.302 87.8139 262.748 102.554 264.445 103.539C266.144 104.525 293.964 90.6107 296.245 88.3539C293.072 85.8346 290.573 83.6571 289.921 82.5993Z" fill="#E9946B"/>
<path d="M259.337 44.4968C259.337 44.4968 249.916 36.0072 256.647 24.929C263.841 13.0902 276.395 24.322 276.395 24.322C274.969 22.6598 274.773 17.0736 280.166 18.9291C286.106 20.9728 291.935 31.5209 291.935 31.5209C291.935 31.5209 290.62 27.9314 293.701 28.2336C296.783 28.5334 295.032 37.0105 295.032 37.0105C295.032 37.0105 297.819 41.5885 297.883 46.263C297.943 50.9401 293.645 68.8085 287.922 69.3733C281.734 69.9852 267.591 57.6733 267.591 57.6733L259.337 44.4968Z" fill="#842A2E"/>
<path d="M268.273 80.9594L266.836 88.8222L264.445 103.54C264.445 103.54 274.738 95.4736 278.281 92.87C280.83 90.9948 287.058 85.2426 290.224 83.3599C286.451 74.3972 289.352 63.6112 289.352 63.6112L285.418 63.1282L281.65 63.6311L271.922 76.2353L268.587 80.5507L268.273 80.9594Z" fill="#E9946B"/>
<path d="M291.854 39.6611C292.208 39.7478 292.583 39.5719 292.739 39.2301C292.746 39.2127 293.556 37.4985 295.119 37.065C296.103 36.7949 297.23 37.0823 298.463 37.9221C299.323 38.5092 300.024 39.2226 300.547 40.0451C300.775 40.4068 301.253 40.5133 301.615 40.2854C301.976 40.055 302.083 39.5769 301.855 39.2152C301.218 38.2144 300.371 37.3498 299.335 36.6438C297.703 35.5291 296.14 35.1723 294.691 35.5761C292.429 36.2103 291.371 38.4918 291.329 38.5885C291.151 38.9774 291.324 39.4382 291.713 39.614L291.854 39.6611Z" fill="#842A2E"/>
<path d="M257.982 42.2623C257.033 47.9203 254.097 67.3469 257.571 72.7275C259.726 76.0668 266.714 77.4392 270.115 77.5333C280.589 77.8257 287.315 75.0363 289.22 64.1909C289.22 64.1909 298.349 61.9614 296.491 53.8211C295.019 47.3654 288.363 52.2134 288.363 52.2134C288.363 52.2134 285.232 53.2588 284.659 45.9955C279.048 45.9806 269.456 39.8246 263.89 35.9577C260.432 33.5572 258.143 41.311 257.982 42.2623Z" fill="#E9946B"/>
<path d="M274.327 51.9632C274.647 51.7279 274.996 51.6238 275.353 51.7204L275.476 51.7378L275.521 51.7402L275.561 51.7551C276.794 52.0648 276.884 53.8261 276.14 54.6907C276.031 54.9087 275.88 55.0994 275.655 55.201C275.434 55.3025 275.179 55.3199 274.939 55.2728L274.87 55.2901C274.268 55.3149 273.913 54.9235 273.762 54.3909C273.331 53.618 273.579 52.5181 274.327 51.9632Z" fill="#1A1A1A"/>
<path d="M258.193 49.1812C258.813 48.5693 259.823 48.6015 260.388 49.2704C260.438 49.3298 260.48 49.3943 260.517 49.4611C260.651 49.6791 260.705 49.9368 260.656 50.2018L260.638 50.296L260.633 50.3232C260.492 50.779 260.339 51.2373 259.999 51.5891C259.348 52.2654 258.287 51.978 257.851 51.2175C257.47 50.5561 257.666 49.7014 258.193 49.1812Z" fill="#1A1A1A"/>
<path d="M263.657 59.7764C263.786 59.3627 264.249 59.1101 264.665 59.2414C265.077 59.3727 265.485 59.5039 265.897 59.6352C266.31 59.7665 266.558 60.2223 266.429 60.6435C266.303 61.0572 265.837 61.3099 265.421 61.1761C265.012 61.0448 264.601 60.916 264.192 60.7847C263.776 60.6534 263.528 60.1951 263.657 59.7764Z" fill="#D45C48"/>
<path d="M273.509 45.8667C274.41 46.543 275.409 47.0706 276.273 47.7965C277.153 48.5322 277.936 49.3769 278.785 50.1449C279.551 50.8385 278.538 52.092 277.765 51.3934C276.915 50.6255 276.135 49.7758 275.253 49.0425C274.386 48.3216 273.39 47.7915 272.488 47.1152C271.656 46.4934 272.676 45.2449 273.509 45.8667Z" fill="#842A2E"/>
<path d="M261.926 45.2349C262.169 45.0838 262.32 44.8014 262.288 44.4942C262.24 44.0682 261.859 43.761 261.433 43.808C261.331 43.818 258.946 44.083 256.865 45.4752C256.511 45.7106 256.411 46.1912 256.649 46.5479C256.887 46.9046 257.368 47.0161 257.724 46.7634C259.493 45.5917 261.579 45.3489 261.601 45.3464C261.72 45.334 261.829 45.2944 261.926 45.2349Z" fill="#842A2E"/>
<path d="M268.485 79.862C268.195 81.1898 267.531 85.1881 267.11 87.6455C281.662 86.9271 285.217 68.1273 285.217 68.1273L271.597 72.5863C271.433 73.2676 268.882 79.2675 268.485 79.862Z" fill="#1A1A1A"/>
<path d="M282.666 44.3555C282.666 44.3555 281.762 48.8666 285.032 51.0912C285.032 51.0912 281.935 61.3197 276.549 64.015C271.166 66.7102 268.724 63.7202 264.75 62.5955C260.948 61.5204 258.352 61.8053 256.92 62.3205C256.318 62.5361 255.864 63.0266 255.688 63.6384C254.71 67.0347 251.973 79.7951 265.268 82.3095C272.806 83.7364 279.572 79.8 283.847 72.0611C285.804 68.5236 286.882 64.5699 287.189 60.5369C287.259 59.6327 287.333 58.6567 287.405 57.7129C287.524 56.1671 288.519 53.3752 289.146 49.2184C289.8 44.8906 285.965 42.4703 285.965 42.4703L282.666 44.3555Z" fill="#842A2E"/>
<path d="M261.478 66.5021C259.169 66.5096 264.723 70.6466 265.738 70.8274C266.754 71.0083 268.803 68.6128 269.236 67.6764L261.478 66.5021Z" fill="white"/>
<path d="M306.9 194.673C306.709 194.673 306.516 194.606 306.363 194.472C305.771 193.959 305.441 193.243 305.379 192.344C305.183 189.342 308.206 184.89 309.268 183.693C310.22 182.626 308.258 180.446 307.371 179.559C305.951 178.142 306.454 175.543 306.987 172.794L307.143 171.981C307.376 170.735 306.581 169.509 305.659 168.092C304.871 166.878 303.977 165.501 303.638 163.878C303.301 162.283 302.169 153.55 312.898 138.486C313.163 138.117 313.678 138.03 314.047 138.293C314.419 138.558 314.505 139.073 314.243 139.445C306.229 150.692 304.391 159.454 305.253 163.539C305.528 164.859 306.298 166.045 307.044 167.192C308.065 168.766 309.12 170.391 308.766 172.286L308.607 173.108C308.178 175.313 307.74 177.594 308.538 178.395C311.884 181.739 311.453 183.718 310.5 184.788C309.249 186.198 306.888 190.105 307.027 192.237C307.056 192.686 307.193 193.008 307.44 193.223C307.785 193.523 307.824 194.043 307.524 194.388C307.361 194.576 307.133 194.673 306.9 194.673Z" fill="#EED7BB"/>
<path d="M304.242 163.083C304.054 163.083 303.873 162.981 303.784 162.803C303.697 162.629 295.129 145.417 303.083 132.293C303.229 132.05 303.546 131.971 303.792 132.12C304.034 132.268 304.111 132.585 303.965 132.828C296.31 145.457 304.619 162.169 304.703 162.335C304.832 162.59 304.731 162.899 304.475 163.028C304.401 163.065 304.322 163.083 304.242 163.083Z" fill="#EED7BB"/>
<path d="M308.007 172.038C307.854 172.038 307.703 171.969 307.601 171.84C307.425 171.617 307.465 171.292 307.688 171.116C308.005 170.869 315.563 165.015 325.621 164.75C325.906 164.747 326.143 164.968 326.151 165.253C326.158 165.538 325.933 165.775 325.648 165.783C315.942 166.038 308.401 171.867 308.325 171.926C308.23 172.001 308.119 172.038 308.007 172.038Z" fill="#EED7BB"/>
<path d="M312.93 179.797C311.02 179.797 309.251 179.71 307.871 179.485C307.589 179.44 307.4 179.175 307.445 178.893C307.49 178.613 307.752 178.422 308.037 178.466C313.797 179.41 327.147 177.8 327.283 177.785C327.558 177.751 327.823 177.951 327.855 178.234C327.89 178.516 327.689 178.774 327.407 178.808C326.983 178.86 319.2 179.797 312.93 179.797Z" fill="#EED7BB"/>
<path d="M331.623 190.459C331.561 190.459 331.502 190.449 331.443 190.427C331.284 190.367 315.608 184.496 309.593 185.18C309.306 185.214 309.053 185.009 309.021 184.726C308.989 184.442 309.192 184.186 309.474 184.154C315.762 183.433 331.153 189.215 331.804 189.46C332.072 189.562 332.206 189.859 332.106 190.127C332.027 190.332 331.831 190.459 331.623 190.459Z" fill="#EED7BB"/>
<path d="M306.367 194.779C305.453 191.13 306.33 190.865 308.349 190.954C310.366 191.041 313.323 192.559 315.102 194.103C316.881 195.649 322.195 204.517 322.328 206.056C322.606 209.246 323.265 210.443 321.226 210.7C319.185 210.958 306.367 194.779 306.367 194.779Z" fill="#6C4E4E"/>
<path d="M307.604 192.708C304.519 197.422 297.732 212.581 292.468 219.163C287.203 225.742 282.727 230.219 282.07 232.718C281.412 235.22 287.466 248.248 288.519 250.356C289.572 252.462 294.836 240.878 299.969 234.824C305.101 228.769 322.212 211.265 322.474 208.369C322.737 205.473 320.765 199.156 316.551 195.341C312.342 191.524 309.11 190.404 307.604 192.708Z" fill="#E9946B"/>
<path d="M266.578 26.4995C266.578 26.4995 273.739 25.8604 277.314 17.6756C280.894 9.4932 272.119 11.1232 271.837 9.57C271.554 8.01924 272.407 5.37601 266.451 1.98218C260.499 -1.41165 253.634 1.91034 253.634 1.91034C253.634 1.91034 249.836 -2.82864 244.124 5.34381C238.409 13.5138 238.169 26.7596 238.392 29.4252C238.612 32.0907 266.578 26.4995 266.578 26.4995Z" fill="#85282C"/>
<path d="M245.378 49.4042C245.589 48.3241 245.39 47.7395 245.048 45.0739C245.009 44.7618 245.009 44.4769 245.053 44.2218C245.487 41.7445 247.129 40.3721 247.129 40.3721L244.008 30.473L242.544 21.7283C242.544 21.7283 236.742 31.1518 232.754 33.52C232.078 33.9214 231.248 34.0204 230.804 34.5357C223.271 43.3176 244.61 53.3455 245.378 49.4042Z" fill="#F79F7C"/>
<path d="M252.042 5.1085L252.151 5.15061C252.438 5.23236 252.735 5.06886 252.817 4.78398C252.839 4.71214 253.322 2.99541 252.398 1.61062C251.806 0.723769 250.798 0.196115 249.406 0.0425251C248.521 -0.0565649 247.664 0.0177525 246.859 0.263C246.574 0.352181 246.413 0.654406 246.5 0.93929C246.587 1.22417 246.889 1.38519 247.176 1.29601C247.838 1.09536 248.549 1.03342 249.287 1.11517C250.345 1.23408 251.088 1.60071 251.494 2.20516C252.143 3.16634 251.784 4.47185 251.779 4.48423C251.71 4.73196 251.824 4.98959 252.042 5.1085Z" fill="#85282C"/>
<path d="M245.048 45.0739C245.008 44.7618 245.008 44.4769 245.053 44.2218C245.486 41.7445 247.129 40.3721 247.129 40.3721L244.007 30.473L240.888 29.326C240.888 29.326 235.317 38.8511 245.048 45.0739Z" fill="#1A1A1A"/>
<path d="M266.34 28.8777C265.307 30.3467 258.933 42.6462 253.806 44.1697C251.095 44.9748 246.691 42.4802 244.811 40.9567C240.47 37.4415 238.352 32.9552 239.247 28.0899C239.546 26.4698 240.054 25.6176 241.053 23.9331C241.053 23.9331 236.992 17.4873 242.819 14.797C247.03 12.8523 246.891 19.4666 246.891 19.4666C246.891 19.4666 249.428 18.981 253.097 15.3246C256.392 18.1363 264.48 23.3534 268.605 21.6911C268.605 21.6911 268.04 26.4698 266.34 28.8777Z" fill="#F79F7C"/>
<path d="M254.98 24.4781C254.903 24.1461 254.732 23.8835 254.447 23.7473L254.358 23.6903L254.326 23.6655L254.291 23.6531C253.315 23.1651 252.275 24.2625 252.275 25.241C252.225 25.4442 252.218 25.6548 252.307 25.8455C252.394 26.0338 252.55 26.1874 252.733 26.2939L252.768 26.3434C253.147 26.6952 253.597 26.6382 253.991 26.3732C254.705 26.1106 255.158 25.2584 254.98 24.4781Z" fill="#1A1A1A"/>
<path d="M264.524 31.4664C264.462 30.691 263.754 30.1237 262.984 30.2501C262.914 30.2625 262.85 30.2798 262.783 30.3046C262.567 30.3739 262.379 30.5176 262.258 30.7282L262.218 30.8L262.203 30.8223C262.035 31.2137 261.871 31.615 261.898 32.0485C261.948 32.8883 262.832 33.3095 263.573 33.0469C264.215 32.819 264.579 32.1278 264.524 31.4664Z" fill="#1A1A1A"/>
<path d="M256.514 34.3623C256.638 34.0799 256.504 33.7281 256.216 33.6067C255.934 33.4878 255.654 33.3689 255.372 33.25C255.087 33.1286 254.74 33.2599 254.616 33.5473C254.495 33.8297 254.628 34.1815 254.916 34.3004C255.196 34.4217 255.478 34.5407 255.761 34.6596C256.043 34.7809 256.39 34.6472 256.514 34.3623Z" fill="#D65B43"/>
<path d="M257.865 20.7399C257.072 20.6285 254.764 20.3089 253.951 20.2693C253.218 20.2321 253.099 21.3741 253.837 21.4088C254.652 21.4509 256.961 21.768 257.754 21.8819C258.484 21.986 258.598 20.844 257.865 20.7399Z" fill="#85282C"/>
<path d="M266.888 28.6572C266.864 27.9413 266.556 27.4161 266.175 26.834C265.771 26.2196 264.768 26.777 265.174 27.3963C265.427 27.7827 265.727 28.1494 265.739 28.63C265.764 29.3657 266.911 29.3979 266.888 28.6572Z" fill="#85282C"/>
<path d="M248.204 36.3243C248.351 35.8635 248.529 35.4126 248.737 34.9766C248.839 34.7686 249 34.5307 249.233 34.553C249.354 34.5679 249.455 34.6546 249.547 34.7363C250.543 35.643 251.541 36.5522 252.54 37.4588C252.678 37.5852 252.829 37.7313 252.847 37.9196C252.864 38.1128 252.74 38.2887 252.609 38.4324C251.697 39.4431 249.725 40.1838 248.447 39.4852C247.555 38.9972 247.796 37.9915 247.982 37.1591C248.043 36.8767 248.118 36.5992 248.204 36.3243Z" fill="#1A1A1A"/>
<path d="M248.546 84.4424C254.091 89.1046 267.386 98.2779 271.426 100.48C275.467 102.682 277.159 102.692 278.194 103.978C279.225 105.266 282.809 107.387 283.619 107.714C284.427 108.041 293.186 106.767 293.682 106.252C293.682 106.252 293.444 107.089 294.373 107.674C295.305 108.256 295.741 108.34 296.038 108.214C296.335 108.085 296.523 108.058 296.523 108.058C296.523 108.058 296.652 108.801 297.492 109.059C298.334 109.316 298.993 109.051 299.115 109.014C299.236 108.975 299.362 109.274 300.024 109.453C300.683 109.631 301.664 109.975 302.568 109.21C302.568 109.21 303.172 109.587 304.086 109.475C304.998 109.364 306.504 106.037 306.722 105.075C306.943 104.112 304.649 97.4901 303.081 95.4365C301.513 93.3804 300.673 90.6479 300.509 89.5307C300.348 88.4135 299.263 87.4919 298.141 86.3227C297.019 85.1534 289.54 72.8365 288.289 72.5095C288.289 72.5095 287.855 81.0585 290.457 83.62C293.011 86.1369 292.493 86.8082 292.505 88.2004C292.518 89.5951 290.293 96.4695 290.293 96.4695C290.293 96.4695 283.964 97.6437 283.359 97.6363C282.755 97.6288 264.034 79.8645 261.693 78.175C259.357 76.4855 246.802 82.9734 248.546 84.4424Z" fill="#F79F7C"/>
<path d="M293.385 106.98C293.276 106.98 293.169 106.933 293.097 106.842C292.225 105.757 289.379 102.142 289.28 101.233C289.166 100.17 289.273 98.0574 289.919 95.3101C289.966 95.1119 290.164 94.9881 290.365 95.0351C290.563 95.0822 290.685 95.2804 290.64 95.4786C289.83 98.9071 289.979 100.807 290.016 101.154C290.068 101.635 291.916 104.189 293.672 106.381C293.799 106.539 293.774 106.772 293.615 106.899C293.546 106.953 293.467 106.98 293.385 106.98Z" fill="white"/>
<path d="M293.162 107.268L293.008 107.233C292.822 107.149 292.74 106.931 292.825 106.745C293.33 105.64 293.875 104.374 293.915 104.169C293.949 103.733 293.231 99.2365 292.337 96.8881C292.265 96.6974 292.359 96.4843 292.55 96.4125C292.743 96.3382 292.953 96.4348 293.028 96.6255C293.917 98.9665 294.74 103.8 294.638 104.312C294.561 104.706 293.674 106.663 293.498 107.05C293.434 107.186 293.3 107.268 293.162 107.268Z" fill="#D65B43"/>
<path d="M296.399 108.593C296.308 108.593 296.216 108.561 296.144 108.492C295.996 108.35 295.991 108.117 296.132 107.969C296.459 107.627 297.358 106.658 297.616 106.274C297.695 106.156 297.945 105.4 297.866 100.797C297.863 100.594 298.025 100.426 298.23 100.423H298.235C298.436 100.423 298.602 100.582 298.604 100.785C298.693 105.992 298.366 106.478 298.228 106.686C297.883 107.198 296.717 108.427 296.667 108.479C296.593 108.556 296.496 108.593 296.399 108.593Z" fill="#D65B43"/>
<path d="M299.157 109.525C299.055 109.525 298.956 109.482 298.882 109.403C298.746 109.252 298.758 109.019 298.909 108.883C299.885 108.001 300.997 106.871 301.091 106.584C301.119 106.203 301.062 103.998 300.953 101.372C300.943 101.169 301.101 100.998 301.305 100.988C301.51 100.998 301.681 101.139 301.688 101.342C301.785 103.619 301.864 106.151 301.822 106.673C301.78 107.184 300.485 108.454 299.402 109.428C299.333 109.492 299.243 109.525 299.157 109.525Z" fill="#D65B43"/>
<path d="M302.617 109.782C302.553 109.782 302.489 109.765 302.429 109.73C302.253 109.624 302.196 109.396 302.303 109.222C302.84 108.331 304.272 105.94 304.441 105.598C304.579 105.271 304.131 103.428 303.697 101.647L303.645 101.434C303.598 101.238 303.72 101.038 303.915 100.99C304.116 100.941 304.314 101.062 304.361 101.26L304.413 101.474C305.092 104.253 305.357 105.402 305.102 105.923C304.886 106.364 303.014 109.47 302.934 109.604C302.865 109.718 302.744 109.782 302.617 109.782Z" fill="#D65B43"/>
<path d="M240.58 185.314C240.917 191.675 244.632 196.246 248.38 200.821C252.129 205.399 257.65 211.03 263.009 212.397C268.364 213.767 264.096 219.889 259.575 219.386C255.057 218.885 246.337 214.832 240.664 214.352C234.991 213.871 230.25 212.261 227.383 209.749C224.512 207.24 222.31 190.243 223.662 187.276C225.015 184.31 240.58 185.314 240.58 185.314Z" fill="white"/>
<path d="M234.998 86.34L234.832 86.2978C234.651 86.2062 234.577 85.9832 234.668 85.8024C239.377 76.54 245.769 59.4742 246.955 54.4305C247 54.2348 247.201 54.1109 247.399 54.158C247.597 54.2051 247.718 54.4033 247.674 54.6014C246.477 59.6773 240.056 76.8348 235.327 86.1368C235.263 86.2656 235.131 86.34 234.998 86.34Z" fill="#93AABC"/>
<path d="M188.394 95.3002C186.868 102.244 190.264 111.645 191.845 115.537C193.425 119.429 205.898 131.949 206.034 136.368C206.171 140.79 204.716 142.777 207.226 144.441C209.733 146.106 214.402 146.822 213.862 150.959C213.322 155.099 219.013 188.264 219.674 189.691C220.335 191.118 230.926 188.056 230.926 188.056C230.926 188.056 230.111 189.431 231.169 189.726C232.226 190.023 243.753 185.556 243.572 184.315C243.391 183.072 240.525 157.241 240.954 151.467C241.382 145.692 242.049 141.536 240.156 137.245C238.263 132.954 234.899 124.648 232.68 119.855C230.46 115.061 229.645 107.696 228.149 106.138C226.655 104.578 225.887 102.412 226.828 99.0384C227.77 95.6644 221.698 90.5439 211.903 87.7397C202.108 84.9354 188.394 95.3002 188.394 95.3002Z" fill="#AA6449"/>
<path d="M233.752 30.3616C233.417 32.165 234.539 38.1079 236.888 40.3028C239.236 42.5001 244.451 44.254 245.053 44.2218C245.655 44.1871 246.633 48.0194 246.839 48.8369C247.042 49.6519 245.377 49.4042 245.377 49.4042C245.377 49.4042 244.059 54.7352 244.726 56.4148C245.392 58.0944 247.03 61.0274 249.45 63.1282C251.87 65.2289 254.068 67.7408 254.248 68.9844C254.429 70.2255 254.823 71.7762 256.753 72.8464C258.685 73.9191 257.372 75.5491 259.577 76.0743C261.782 76.5994 262.404 77.0998 261.693 78.175C260.984 79.2526 254.912 85.1955 251.035 86.4416C247.156 87.6876 246.485 86.0947 246.344 84.762C246.2 83.4292 245.335 82.4557 244.406 82.5919C243.477 82.7257 241.518 80.3054 241.206 78.7423C240.894 77.1816 239.472 75.5293 239.472 75.5293C239.472 75.5293 228.951 100.312 226.238 99.1003C223.526 97.8889 223.414 95.9591 214.496 92.7734C205.575 89.5877 191.5 92.818 188.393 95.3002C185.287 97.7799 188.22 91.7726 189.87 89.1665C191.519 86.558 194.591 79.1783 196.823 77.6696C199.058 76.161 201.602 76.213 202.486 74.7316C203.371 73.2502 202.491 71.8555 205.087 68.7738C207.681 65.6896 210.52 64.8548 211.734 62.7318C212.948 60.6113 213.812 57.2422 214.191 54.6238C214.573 52.0028 216.019 53.2315 216.109 50.9351C216.198 48.6387 217 45.8369 218.893 42.7503C222.312 37.179 228.976 35.3507 228.582 34.6918C227.08 32.1724 233.91 29.5044 233.752 30.3616Z" fill="#B0C1D3"/>
<path d="M240.059 76.7976C239.888 76.7976 239.725 76.7084 239.633 76.5524C236.418 71.0157 233.376 67.6912 230.931 65.0208C230.433 64.4758 229.962 63.9605 229.521 63.4626C226.737 60.3115 225.119 54.5717 225.634 51.9235C225.686 51.656 225.946 51.4826 226.211 51.5346C226.476 51.5866 226.652 51.8443 226.6 52.1093C226.13 54.5296 227.725 59.9424 230.259 62.8135C230.695 63.3065 231.161 63.8168 231.656 64.3569C234.131 67.062 237.215 70.4311 240.483 76.0594C240.619 76.2922 240.54 76.5945 240.304 76.7307C240.228 76.7753 240.143 76.7976 240.059 76.7976Z" fill="#93AABC"/>
<path d="M243.227 49.1763L243.18 49.1738C243.034 49.1589 239.531 48.7923 235.902 46.3101C232.164 43.7511 228.208 38.7198 227.881 34.0526C227.864 33.7826 228.067 33.5473 228.339 33.5275C228.609 33.4977 228.845 33.7133 228.862 33.9833C229.167 38.3408 232.915 43.0723 236.457 45.4975C239.868 47.8311 243.242 48.1903 243.275 48.1953C243.547 48.22 243.743 48.4628 243.718 48.7328C243.693 48.9855 243.478 49.1763 243.227 49.1763Z" fill="#93AABC"/>
<path d="M244.88 57.2992C244.711 57.2992 244.548 57.21 244.456 57.0539C242.405 53.5486 238.109 47.7419 234.985 48.1804C234.718 48.2151 234.47 48.0318 234.431 47.7617C234.393 47.4942 234.579 47.244 234.847 47.2068C239.231 46.5751 244.327 54.8888 245.306 56.5585C245.442 56.7938 245.363 57.0935 245.127 57.2298C245.05 57.2769 244.964 57.2992 244.88 57.2992Z" fill="#93AABC"/>
<path d="M246.545 83.1938C246.337 83.1938 246.144 83.0625 246.077 82.8544C245.995 82.5943 246.136 82.3194 246.394 82.2351C253.348 79.9932 257.921 75.2864 257.965 75.2394C258.153 75.0437 258.466 75.0362 258.661 75.2245C258.857 75.4128 258.864 75.7249 258.676 75.9181C258.485 76.1188 253.895 80.8503 246.696 83.1715L246.545 83.1938Z" fill="#93AABC"/>
<path d="M230.925 188.546C230.719 188.546 230.529 188.42 230.459 188.214C230.264 187.647 225.673 174.26 225.391 170.559C225.064 166.276 221.722 148.038 220.26 147.008C219.165 146.235 219.091 145.261 219.034 144.479C218.98 143.773 218.938 143.215 218.274 142.722C216.777 141.605 216.557 140.463 216.195 138.573C216.099 138.07 215.987 137.5 215.839 136.844C215.373 134.795 213.758 133.712 212.046 132.566C211.35 132.1 210.631 131.617 209.962 131.054C209.361 130.547 208.645 129.781 207.738 128.812C205.095 125.981 201.101 121.705 194.963 118.596C194.72 118.475 194.623 118.18 194.745 117.937C194.866 117.695 195.163 117.598 195.406 117.719C201.701 120.908 205.769 125.26 208.456 128.141C209.341 129.085 210.037 129.833 210.597 130.304C211.223 130.829 211.92 131.297 212.593 131.748C214.389 132.952 216.245 134.196 216.797 136.626C216.951 137.295 217.06 137.874 217.161 138.39C217.511 140.213 217.672 141.045 218.863 141.932C219.886 142.695 219.956 143.644 220.013 144.404C220.067 145.128 220.109 145.7 220.828 146.205C222.911 147.674 226.132 167.349 226.369 170.485C226.644 174.062 231.341 187.756 231.388 187.895C231.477 188.153 231.341 188.432 231.084 188.519L230.925 188.546Z" fill="#8D4B39"/>
<path d="M230.115 140.976L230.098 140.973C229.897 140.966 229.739 140.795 229.746 140.589C229.86 138.006 225.203 120.434 222.468 116.473C221.931 115.695 221.128 114.628 220.199 113.394C216.466 108.435 210.216 100.133 209.049 94.2177C209.007 94.0195 209.138 93.8238 209.339 93.7866C209.537 93.747 209.733 93.8758 209.772 94.0765C210.907 99.8237 217.093 108.041 220.789 112.951C221.722 114.192 222.53 115.262 223.075 116.055C225.86 120.088 230.598 137.988 230.485 140.622C230.475 140.82 230.314 140.976 230.115 140.976Z" fill="#8D4B39"/>
<path d="M236.888 187.05C236.727 187.05 236.583 186.946 236.534 186.785C236.507 186.693 233.814 177.567 233.271 172.095C233.073 170.108 232.645 167.524 232.149 164.534C231.297 159.404 230.239 153.02 229.969 147.06C229.959 146.857 230.118 146.683 230.321 146.676C230.532 146.673 230.698 146.825 230.705 147.028C230.972 152.941 232.028 159.302 232.877 164.413C233.375 167.418 233.806 170.012 234.005 172.023C234.542 177.426 237.215 186.485 237.242 186.575C237.299 186.77 237.188 186.976 236.992 187.035L236.888 187.05Z" fill="#8D4B39"/>
<path d="M214.47 158.099C204.922 160.526 203.342 171.064 204.858 173.554C206.376 176.046 210.276 179.891 210.273 181.853C210.268 183.815 211.804 184.429 212.141 185.797C212.475 187.162 212.455 196.972 212.574 199.625C212.696 202.278 214.036 211.221 214.779 211.887C215.525 212.556 216.169 212.174 216.332 212.591C216.496 213.007 216.664 214.181 217.088 214.818C217.517 215.452 220.633 216.185 222.129 216.316C223.623 216.45 224.426 215.95 224.881 216.002C225.335 216.054 228.337 218.365 229.157 218.709C229.975 219.051 231.679 219.103 232.405 218.927C233.131 218.751 234.58 220.855 235.665 221.194C236.75 221.533 238.135 220.305 237.986 218.727C237.835 217.149 236.482 215.831 235.613 213.715C234.741 211.597 233.564 208.511 233.468 205.498C233.371 202.483 233.69 199.798 234.027 199.692C234.367 199.587 235.447 202.379 237.476 204.733C239.502 207.086 241.945 209.011 243.429 208.835C244.91 208.657 245.143 206.965 243.808 205.243C242.472 203.524 240.595 200.516 239.794 198.299C238.994 196.08 235.085 192.19 232.759 187.93C230.433 183.666 228.545 180.842 224.983 175.91C221.423 170.978 219.06 167.257 217.581 164.492C216.104 161.728 214.47 158.099 214.47 158.099Z" fill="#E9946B"/>
<path d="M232.767 219.775C232.648 219.775 232.531 219.718 232.454 219.616C232.35 219.475 229.883 216.148 229.556 215.633C229.142 214.986 228.045 210.626 227.002 205.488C226.962 205.278 227.096 205.075 227.307 205.033C227.512 204.988 227.718 205.124 227.76 205.335C228.934 211.122 229.935 214.793 230.208 215.216C230.458 215.61 232.194 217.966 233.076 219.155C233.203 219.329 233.168 219.569 232.995 219.698C232.925 219.747 232.846 219.775 232.767 219.775Z" fill="#D45C48"/>
<path d="M224.785 216.661C224.624 216.661 224.475 216.562 224.418 216.401C224.406 216.363 223.145 212.692 222.166 208.919C222.114 208.711 222.238 208.501 222.446 208.446C222.652 208.392 222.862 208.518 222.917 208.724C223.885 212.467 225.139 216.113 225.149 216.148C225.221 216.351 225.112 216.571 224.908 216.641L224.785 216.661Z" fill="#D45C48"/>
<path d="M234.077 200.482C233.864 200.482 233.69 200.308 233.69 200.095C233.695 197.405 233.207 192.971 233.054 192.307C233.007 192.099 233.135 191.891 233.343 191.844C233.552 191.794 233.76 191.925 233.809 192.136C233.97 192.839 234.468 197.301 234.466 200.095C234.463 200.308 234.29 200.482 234.077 200.482Z" fill="#D45C48"/>
<path d="M294.849 260.704C294.648 260.704 294.447 260.627 294.294 260.473C293.937 260.119 285.549 251.573 279.785 232.022C279.661 231.606 279.901 231.167 280.317 231.046C280.733 230.925 281.169 231.16 281.293 231.579C286.934 250.703 295.322 259.277 295.406 259.361C295.713 259.668 295.711 260.166 295.404 260.473C295.25 260.627 295.049 260.704 294.849 260.704Z" fill="#93AABC"/>
</svg>
