<svg width="525" height="573" viewBox="0 0 525 573" fill="none" xmlns="http://www.w3.org/2000/svg">
<path d="M220.34 37.1761C211.268 28.8345 196.734 28.9983 188.117 37.8925C184.026 42.1147 181.554 47.7984 181.45 53.6892C181.333 60.3722 183.863 66.7314 185.764 73.0272C187.694 79.4158 188.973 86.1173 186.435 92.5337C184.217 98.1393 179.835 102.547 175.646 106.734C171.416 110.96 167.039 115.18 164.115 120.463C160.856 126.353 159.924 133.094 159.737 139.788C159.313 154.955 165.47 169.319 171.08 183.092C176.228 195.731 182.116 208.536 192.951 217.337C203.884 226.22 217.73 230.939 230.684 236.02C245.438 241.805 260.452 247.241 276.054 250.253C283.572 251.704 291.217 252.581 298.88 252.594C306.66 252.606 314.24 251.5 321.853 249.995C329.686 248.446 337.589 246.92 345.596 247.915C353.124 248.853 360.498 251.454 368.155 251.188C374.091 250.982 379.549 248.695 383.902 244.67C388.097 240.793 391.092 235.765 393.492 230.633C396.191 224.853 398.193 218.775 400.219 212.738C402.742 205.214 405.094 197.605 406.549 189.793C409.289 175.082 408.075 160.09 401.64 146.465C398.581 139.987 394.027 134.412 390.812 128.033C389.124 124.684 388.06 121.183 387.683 117.448C387.333 113.959 387.399 110.446 387.056 106.957C386.474 101.063 383.786 96.024 379.049 92.3359C374.714 88.9607 369.498 87.0015 364.75 84.3088C362.328 82.9377 359.991 81.3711 358.061 79.3485C356.03 77.2239 354.614 74.6356 353.589 71.8973C351.6 66.5969 350.932 60.9063 348.965 55.6005C347.086 50.5274 343.874 46.4629 338.803 44.3267C333.176 41.9578 326.902 41.8991 321.204 39.7544C308.799 35.0847 309.226 20.2255 301.867 11.016C294.937 2.34126 283.165 -0.758727 272.467 0.153261C259.584 1.25306 248.396 8.40211 238.94 16.8009C233.796 21.3717 229.055 26.369 224.336 31.3726C223.976 31.7567 224.554 32.3364 224.916 31.9507C234.21 22.0958 243.823 11.9318 256.086 5.76817C266.432 0.566747 278.861 -1.01377 289.82 3.30503C295.113 5.39023 299.771 8.95162 302.839 13.7759C305.957 18.6767 307.528 24.341 310.106 29.5131C312.578 34.4734 315.541 38.4444 320.803 40.4739C326.366 42.621 332.494 42.706 338.043 44.8963C349.907 49.5752 349.068 63.2751 353.269 73.2962C355.283 78.1042 358.682 81.61 363.102 84.2934C367.646 87.0533 372.688 88.9345 377.098 91.9262C379.359 93.4596 381.963 95.3215 383.429 97.6486C385.276 100.581 385.977 103.999 386.279 107.407C386.573 110.748 386.53 114.11 386.866 117.448C387.185 120.629 387.951 123.674 389.237 126.604C391.993 132.888 396.442 138.232 399.634 144.279C403.047 150.742 405.354 157.783 406.464 165.006C408.846 180.523 404.92 195.895 400.085 210.55C398.06 216.686 396.059 222.881 393.433 228.795C391.098 234.056 388.217 239.243 384.108 243.337C379.662 247.769 373.97 250.266 367.67 250.382C360.184 250.521 352.967 248.012 345.596 247.098C338.216 246.182 330.899 247.387 323.665 248.804C315.943 250.317 308.296 251.661 300.401 251.765C285.054 251.972 269.9 248.647 255.336 244.041C248.067 241.742 240.906 239.112 233.8 236.36C226.869 233.675 219.916 230.99 213.102 228.015C206.988 225.346 200.979 222.319 195.592 218.354C189.899 214.163 185.252 208.875 181.531 202.881C177.938 197.094 175.154 190.852 172.562 184.566C169.714 177.661 166.844 170.728 164.547 163.615C160.207 150.169 158.146 134.712 164.933 121.67C170.352 111.259 180.974 105.315 186.271 94.8662C188.92 89.6447 189.175 83.9788 187.998 78.3137C186.649 71.8301 183.875 65.7228 182.736 59.1874C181.621 52.8004 182.678 46.4853 186.469 41.1448C190.23 35.8483 196.694 32.3302 203.201 31.8672C209.422 31.4259 215.161 33.5258 219.76 37.7557C220.148 38.1097 220.728 37.5339 220.34 37.1761Z" fill="#0B2E4E"/>
<path d="M254.988 4.4071C260.565 2.48188 266.451 1.49879 272.373 1.64873C286.836 2.01507 300.779 9.13011 310.217 19.9866C314.408 24.8062 315.699 32.9794 320.056 37.091C325.733 42.447 332.974 41.7383 337.374 49.8998C341.106 56.8193 342.362 64.868 346.169 71.7473C352.768 83.6781 365.787 90.2251 376.615 98.5126C398.161 115.006 412.915 140.741 415.406 167.762C416.317 177.619 415.385 188.489 408.711 195.802C403.04 202.021 393.625 205.255 390.922 213.227C389.873 216.321 390.052 219.677 389.725 222.928C388.18 238.373 375.012 250.655 360.404 255.902C343.864 261.844 327.8 259.729 310.929 259.045C302.217 258.692 293.613 259.964 285.038 261.234C277.018 262.426 269.022 263.615 260.987 263.474C244.934 263.195 228.115 259.777 212.089 258.099C206.699 257.535 200.356 256.874 195.753 253.726C190.768 250.315 191.092 246.008 188.01 241.748C182.262 233.804 167.609 231.453 169.109 218.628C169.852 212.261 175.373 207.632 178.161 201.86C185.736 186.171 169.048 174.412 166.165 159.988C162.396 141.127 175.755 124.301 176.507 105.436C176.914 95.2263 176.166 84.9696 177.207 74.8079C178.279 64.3378 181.499 53.0833 189.315 45.5849C196.739 38.4636 205.063 38.7056 214.113 35.8127C222.545 33.1162 225.388 27.7045 230.889 21.1397C237.266 13.5247 245.581 7.65625 254.988 4.4071Z" fill="#0B2E4E"/>
<path d="M297.506 274.457C297.452 274.457 297.399 274.443 297.35 274.419C297.284 274.386 297.203 274.317 297.195 274.181C297.05 271.416 297.205 268.641 297.654 265.93C298.028 263.68 298.562 261.509 299.233 259.406C299.445 259.386 299.654 259.369 299.866 259.351C298.187 264.416 297.486 269.353 297.741 274.22C297.747 274.309 297.717 274.376 297.656 274.416C297.615 274.443 297.561 274.457 297.506 274.457Z" fill="#E5EDF7"/>
<path d="M299.233 259.406C303.24 246.847 312.127 236.738 320.764 226.917C325.983 220.979 331.383 214.84 335.605 208.257C340.025 201.365 345.098 190.676 344.158 178.893C343.759 173.884 342.087 169.04 339.19 164.497C337.848 162.397 336.329 160.376 334.859 158.422C333.462 156.565 332.02 154.648 330.736 152.668C327.834 148.19 326.308 143.863 326.068 139.437C325.806 134.538 326.888 129.645 327.936 124.912L328.096 124.183C329.323 118.627 329.768 113.608 329.351 108.443C328.967 103.687 327.538 98.8495 325.222 94.455C322.92 90.0945 319.747 86.1629 316.043 83.0845C312.666 80.2767 308.578 78.108 303.183 76.2639C302.837 76.1472 302.488 76.029 302.138 75.91C298.096 74.5451 293.915 73.1323 290.894 70.0988C287.807 66.9988 287.202 62.7959 286.618 58.7298C286.529 58.1069 286.436 57.4639 286.335 56.8324C285.546 51.8706 283.385 47.1754 280.087 43.2601C276.755 39.303 272.477 36.4062 267.717 34.879C265.163 34.0598 262.496 33.6656 259.819 33.6656C252.421 33.6656 244.972 36.6891 239.75 42.144C239.701 42.1974 239.645 42.2229 239.588 42.2229C239.573 42.2229 239.556 42.2213 239.541 42.2175C239.443 42.1958 239.357 42.1046 239.325 41.998C239.305 41.9307 239.301 41.8272 239.394 41.7305C241.011 40.0426 242.815 38.5765 244.762 37.3739C249.331 34.5506 254.526 33.12 259.676 33.12C263.895 33.12 268.081 34.0791 271.866 36.0144C275.993 38.122 279.606 41.3132 282.315 45.2386C284.904 48.9955 286.411 53.2455 287.194 59.015L287.206 59.1078C287.566 61.7471 287.936 64.4777 289.199 66.8836C290.342 69.0662 292.263 70.9141 294.905 72.378C297.378 73.7475 300.088 74.6595 302.71 75.5436C304.791 76.2446 306.942 76.9688 308.956 77.9163C317.241 81.8139 323.993 89.1686 327.487 98.0975C329.219 102.525 330.063 107.068 329.998 111.599C329.937 116.005 329.498 120.388 328.555 124.626C328.361 125.5 328.167 126.373 327.982 127.246C326.89 132.368 325.845 138.304 327.291 143.96C328.639 149.235 332.081 153.823 334.85 157.511L335.304 158.116C338.088 161.821 340.967 165.651 342.687 170.036C344.366 174.315 345.057 179.028 344.738 184.045C344.149 193.321 340.298 202.93 333.29 212.608C329.626 217.669 325.425 222.429 321.365 227.033C317.612 231.287 313.733 235.686 310.279 240.313C305.355 246.916 301.894 253.227 299.866 259.351C299.655 259.369 299.445 259.386 299.233 259.406Z" fill="#214669"/>
<path d="M297.506 274.73C297.411 274.73 297.315 274.707 297.226 274.663C297.046 274.57 296.934 274.4 296.924 274.194C296.778 271.411 296.933 268.615 297.386 265.886C297.756 263.66 298.28 261.513 298.939 259.434C299.036 259.424 299.135 259.417 299.234 259.407C298.563 261.51 298.029 263.681 297.655 265.93C297.206 268.641 297.051 271.416 297.196 274.181C297.203 274.317 297.285 274.386 297.35 274.42C297.4 274.444 297.453 274.457 297.506 274.457C297.562 274.457 297.615 274.444 297.657 274.416C297.718 274.376 297.747 274.309 297.742 274.22C297.486 269.353 298.187 264.416 299.867 259.351C299.964 259.343 300.065 259.335 300.162 259.325C298.468 264.399 297.76 269.337 298.015 274.204C298.025 274.394 297.95 274.55 297.805 274.645C297.718 274.701 297.613 274.73 297.506 274.73Z" fill="#FBFCFE"/>
<path d="M298.939 259.434C302.944 246.772 311.879 236.61 320.559 226.736C325.772 220.807 331.163 214.676 335.376 208.11C339.774 201.253 344.822 190.622 343.888 178.915C343.492 173.951 341.834 169.149 338.959 164.644C337.625 162.553 336.108 160.536 334.642 158.585C333.243 156.726 331.796 154.805 330.507 152.816C327.579 148.297 326.037 143.926 325.796 139.451C325.531 134.514 326.617 129.604 327.669 124.854L327.832 124.125C329.053 118.591 329.494 113.591 329.081 108.465C328.698 103.746 327.282 98.9438 324.981 94.5817C322.697 90.2521 319.546 86.3506 315.869 83.2939C312.518 80.5077 308.458 78.3553 303.094 76.5236C302.748 76.4046 302.4 76.2879 302.049 76.1688C297.977 74.7924 293.767 73.3695 290.701 70.2912C287.55 67.127 286.939 62.877 286.348 58.77C286.258 58.1486 286.165 57.5056 286.066 56.8765C284.456 46.7464 277.223 38.2124 267.634 35.1402C265.106 34.3287 262.465 33.9369 259.817 33.9369C252.493 33.9369 245.118 36.9302 239.949 42.3341C239.846 42.4408 239.721 42.4964 239.591 42.4964C239.553 42.4964 239.513 42.4926 239.476 42.4825C239.284 42.4369 239.122 42.2769 239.064 42.0744C239.007 41.8828 239.057 41.6888 239.197 41.5404C240.829 39.837 242.654 38.3569 244.618 37.142C248.67 34.6371 253.345 33.1733 258.141 32.9097C258.664 32.8804 259.184 32.8665 259.705 32.8665C264.036 32.8665 268.253 33.8596 271.991 35.7709C276.158 37.9002 279.805 41.1207 282.539 45.084C285.157 48.8772 286.676 53.1628 287.465 58.9794L287.477 59.0706C287.833 61.6883 288.2 64.3949 289.44 66.7568C290.56 68.8923 292.443 70.7023 295.037 72.1391C297.489 73.4963 300.188 74.4044 302.798 75.2847C304.884 75.9872 307.045 76.7153 309.073 77.669C317.419 81.5959 324.223 89.0062 327.74 97.9986C329.486 102.458 330.336 107.037 330.272 111.603C330.208 116.037 329.768 120.433 328.823 124.685C328.629 125.56 328.435 126.432 328.249 127.303C327.163 132.394 326.124 138.294 327.555 143.893C328.89 149.114 332.315 153.678 335.067 157.347L335.522 157.952C338.318 161.672 341.207 165.518 342.94 169.934C344.635 174.252 345.33 179.006 345.009 184.063C344.418 193.39 340.55 203.047 333.512 212.768C329.84 217.839 325.636 222.605 321.57 227.213C317.821 231.463 313.945 235.858 310.5 240.476C305.621 247.017 302.188 253.267 300.162 259.325C300.065 259.335 299.964 259.343 299.867 259.351C301.895 253.227 305.356 246.916 310.28 240.313C313.733 235.685 317.613 231.287 321.366 227.033C325.426 222.429 329.626 217.669 333.29 212.608C340.299 202.93 344.149 193.321 344.738 184.045C345.057 179.028 344.366 174.315 342.687 170.036C340.967 165.651 338.088 161.821 335.305 158.116L334.85 157.511C332.082 153.823 328.639 149.235 327.291 143.96C325.845 138.304 326.89 132.368 327.982 127.246C328.168 126.373 328.362 125.5 328.556 124.626C329.498 120.388 329.937 116.005 329.998 111.599C330.064 107.068 329.219 102.525 327.488 98.0975C323.994 89.1685 317.241 81.8139 308.957 77.9163C306.942 76.9688 304.792 76.2446 302.71 75.5436C300.089 74.6594 297.378 73.7474 294.905 72.3779C292.263 70.9141 290.342 69.0662 289.199 66.8836C287.936 64.4776 287.567 61.7471 287.206 59.1077L287.194 59.015C286.411 53.2455 284.905 48.9955 282.315 45.2386C279.607 41.3132 275.994 38.122 271.867 36.0144C268.082 34.0791 263.895 33.12 259.677 33.12C254.526 33.12 249.331 34.5505 244.763 37.3738C242.816 38.5764 241.011 40.0426 239.394 41.7305C239.302 41.8271 239.305 41.9307 239.326 41.9979C239.357 42.1046 239.444 42.1958 239.541 42.2174C239.557 42.2213 239.573 42.2228 239.588 42.2228C239.646 42.2228 239.701 42.1973 239.751 42.144C244.972 36.6891 252.421 33.6656 259.819 33.6656C262.496 33.6656 265.163 34.0598 267.718 34.879C272.478 36.4062 276.756 39.3029 280.088 43.26C283.385 47.1754 285.546 51.8706 286.335 56.8324C286.437 57.4638 286.529 58.1069 286.618 58.7298C287.203 62.7959 287.808 66.9987 290.895 70.0987C293.916 73.1322 298.096 74.545 302.138 75.9099C302.488 76.029 302.837 76.1472 303.183 76.2639C308.579 78.108 312.666 80.2767 316.044 83.0845C319.747 86.1628 322.921 90.0944 325.222 94.455C327.539 98.8495 328.968 103.687 329.351 108.443C329.768 113.607 329.323 118.626 328.097 124.183L327.937 124.912C326.888 129.645 325.806 134.538 326.069 139.437C326.308 143.863 327.834 148.19 330.736 152.668C332.021 154.648 333.463 156.565 334.859 158.422C336.329 160.376 337.849 162.396 339.191 164.497C342.087 169.04 343.759 173.884 344.159 178.893C345.098 190.676 340.025 201.365 335.605 208.257C331.383 214.84 325.984 220.979 320.764 226.916C312.128 236.738 303.24 246.846 299.234 259.406C299.135 259.416 299.036 259.424 298.939 259.434Z" fill="#385470"/>
<path d="M301.702 217.764C302.454 211.451 302.855 207.699 306.462 203.54C309.321 200.246 312.125 198.439 311.668 193.149C311.217 187.916 308.19 183.409 305.75 178.834C303.311 174.258 301.362 168.728 303.204 163.846C304.383 160.72 306.917 158.445 308.995 155.899C311.075 153.352 312.828 149.975 311.951 146.738C310.562 141.604 303.696 140.21 301.785 135.269C300.26 131.323 302.519 126.927 302.518 122.663C302.513 116.678 297.345 111.583 292.072 109.44C287.302 107.503 282.737 107.776 278.051 108.05C276.339 108.15 274.61 108.249 272.851 108.241C265.354 108.21 257.867 105.63 250.36 105.63C242.583 104.812 241.901 103.748 238.513 96.2295C235.753 90.1037 233.488 83.7391 231.6 77.2555C230.736 74.2854 225.935 62.1351 227.354 59.5096C216.765 79.0973 210.932 100.652 209.8 123.339C209.377 131.861 209.706 140.606 212.58 148.578C213.961 152.413 215.938 156.105 216.312 160.192C217.251 170.453 204.286 173.913 203.495 183.6C202.796 192.138 212.742 197.5 214.621 205.835C215.809 211.116 213.536 216.524 213.191 221.941C212.494 232.95 220.439 243.309 230.336 246.73C240.234 250.153 251.372 247.48 260.188 241.611C265.21 238.27 270.334 233.729 276.224 234.459C279.752 234.896 282.896 237.229 286.433 237.564C290.889 237.985 295.177 235.049 297.713 231.143C300.367 227.055 301.148 222.424 301.702 217.764Z" fill="#061F33"/>
<path d="M323.981 197.848C322.982 194.1 319.237 192.375 315.916 191.238C307.531 188.363 298.986 186.095 290.347 184.431C288.931 182.92 287.552 181.353 286.412 179.534C282.067 172.609 281.529 162.73 280.19 153.734C278.848 144.736 275.586 134.81 269.163 132.629C267.46 132.051 265.06 132.21 262.63 132.886C260.199 132.21 257.798 132.051 256.095 132.629C249.673 134.81 246.41 144.736 245.068 153.734C243.729 162.73 243.191 172.609 238.846 179.534C238.015 180.86 237.057 182.053 236.048 183.187C228.249 186.293 220.718 190.197 212.958 193.424C211.174 194.166 209.212 195.09 208.446 197.053C207.769 198.788 208.285 200.889 209.344 202.363C210.403 203.837 211.918 204.792 213.435 205.612C218.665 208.431 224.268 209.988 230.016 210.845C231.351 212.748 232.972 214.302 234.709 215.296C239.983 218.32 245.933 217.562 251.61 216.753C255.284 216.229 258.956 215.704 262.63 215.182C266.302 215.704 269.975 216.229 273.649 216.753C279.325 217.562 285.274 218.32 290.549 215.296C292.417 214.226 294.152 212.511 295.544 210.406C300.608 210.095 305.67 209.735 310.729 209.324C313.942 209.064 317.277 208.742 320.064 206.922C322.851 205.101 324.909 201.324 323.981 197.848Z" fill="#FF917B"/>
<path d="M284.998 150.459C290.771 145.256 294.994 138.351 297.608 130.846C301.007 121.086 302.862 109.106 294.266 101.295C288.652 96.1978 280.582 94.6466 273.93 91.6572C266.301 88.2287 258.127 86.3228 250.484 82.8998C239.39 77.9318 232.632 70.6057 227.604 59.4006C224.189 69.9843 222.205 81.9229 221.331 93.121C220.347 105.758 222.481 118.643 226.738 130.506C230.287 140.403 235.912 149.932 244.501 155.337C256.968 163.186 273.954 160.414 284.998 150.459Z" fill="#FEA587"/>
<path d="M267.175 112.246C263.4 110.083 259.261 108.556 254.987 107.743C255.072 106.983 255.118 106.207 255.118 105.422V105.408C256.773 105.135 258.218 104.999 259.662 104.999C261.368 104.999 263.073 105.19 265.131 105.571C265.369 107.955 266.085 110.206 267.175 112.246Z" fill="#D68F78"/>
<path d="M283.941 119.319C275.297 119.319 268.289 112.309 268.289 103.665C268.289 95.0208 275.297 88.0108 283.941 88.0108C292.585 88.0108 299.595 95.0208 299.595 103.665C299.595 112.309 292.585 119.319 283.941 119.319ZM236.438 121.332C227.652 121.332 219.99 114.206 219.99 105.422C219.99 96.6353 227.115 89.5102 235.902 89.5102C244.686 89.5102 251.812 96.6353 251.812 105.422C251.812 114.206 245.223 121.332 236.438 121.332ZM283.941 84.7578C273.904 84.7578 265.697 92.5831 265.078 102.464C261.722 101.724 258.238 101.677 254.867 102.331C253.388 93.1883 245.462 86.2046 235.902 86.2046C225.289 86.2046 216.685 94.809 216.685 105.422C216.685 116.033 225.825 124.638 236.438 124.638C247.049 124.638 255.118 116.033 255.118 105.422V105.408C258.73 104.812 261.333 104.868 265.131 105.57C266.086 115.117 274.679 122.572 284.477 122.572C294.918 122.572 302.848 114.106 302.848 103.665C302.848 93.2246 294.382 84.7578 283.941 84.7578Z" fill="#303243"/>
<path d="M232.497 117.958C231.241 117.958 230.2 116.629 230.873 115.194C231.546 113.756 232.221 112.319 232.893 110.881C231.92 112.516 230.992 114.179 230.07 115.843C229.72 116.476 229.146 116.745 228.566 116.745C227.442 116.745 226.289 115.736 226.671 114.411C227.557 111.336 228.59 108.311 229.749 105.337C228.366 106.977 226.985 108.619 225.604 110.26C225.236 110.699 224.807 110.881 224.388 110.881C223.048 110.881 221.807 109.017 222.975 107.63C227.361 102.419 231.745 97.2073 236.132 91.9958C236.49 91.5723 236.917 91.3945 237.341 91.3945C238.585 91.3945 239.789 92.9279 239.052 94.2495C237.992 96.1562 237.005 98.0938 236.073 100.056C237.199 98.8079 238.405 97.6285 239.725 96.5504C240.145 96.2057 240.599 96.0557 241.027 96.0557C242.287 96.0557 243.326 97.3495 242.645 98.804C241.463 101.327 240.279 103.851 239.098 106.374C240.018 105.143 240.892 103.871 241.705 102.549C242.092 101.928 242.658 101.671 243.223 101.671C244.509 101.671 245.792 103.005 244.919 104.425C242.501 108.319 240.085 112.21 237.669 116.102C237.284 116.721 236.72 116.979 236.154 116.979C235.685 116.977 235.216 116.8 234.852 116.508C234.501 116.824 234.154 117.141 233.793 117.448C233.376 117.804 232.925 117.958 232.497 117.958Z" fill="#FAC0AC"/>
<path d="M291.171 98.954C289.903 98.151 288.565 97.4523 287.186 96.8232C287.736 96.3007 288.308 95.7945 288.902 95.3099C289.321 94.9652 289.776 94.8153 290.203 94.8153C291.464 94.8153 292.503 96.1114 291.822 97.5636C291.604 98.0266 291.387 98.491 291.171 98.954ZM286.395 96.4731C284.945 95.8416 283.455 95.2782 281.963 94.7318C283.079 93.4063 284.193 92.0824 285.309 90.7569C285.666 90.3319 286.094 90.1533 286.517 90.1533C287.762 90.1533 288.965 91.6867 288.229 93.0106C287.593 94.1545 286.982 95.3076 286.395 96.4731Z" fill="#5C7287"/>
<path d="M281.673 116.718C280.417 116.718 279.376 115.388 280.049 113.954C280.722 112.517 281.397 111.079 282.069 109.642C281.095 111.274 280.168 112.938 279.246 114.602C278.896 115.236 278.321 115.505 277.742 115.505C276.618 115.505 275.465 114.496 275.847 113.17C276.733 110.096 277.766 107.07 278.925 104.097C277.542 105.739 276.161 107.379 274.78 109.021C274.412 109.458 273.982 109.64 273.564 109.64C272.223 109.64 270.983 107.776 272.151 106.391C275.421 102.505 278.692 98.6177 281.962 94.7317C283.454 95.2781 284.944 95.8415 286.394 96.473C286.002 97.2489 285.62 98.0303 285.249 98.8155C285.868 98.1292 286.511 97.4646 287.185 96.8231C288.564 97.4522 289.902 98.1509 291.17 98.9539C290.205 101.014 289.239 103.073 288.274 105.135C289.194 103.903 290.068 102.63 290.881 101.309C291.267 100.689 291.833 100.432 292.399 100.432C293.685 100.432 294.967 101.766 294.093 103.186C291.677 107.078 289.261 110.97 286.845 114.862C286.46 115.481 285.893 115.738 285.33 115.738C284.861 115.738 284.391 115.562 284.027 115.269C283.677 115.584 283.33 115.902 282.969 116.207C282.552 116.563 282.098 116.718 281.673 116.718Z" fill="#FAC0AC"/>
<path d="M82.484 443.694C93.5345 443.121 104.583 442.549 115.632 441.975C151.276 440.125 186.922 438.277 222.565 436.427C240.386 435.501 258.208 434.578 276.032 433.653C290.645 432.896 309.985 428.41 323.281 436.341C329.258 439.904 334.337 440.281 341.442 440.998C356.596 442.521 371.807 443.471 387.032 443.845C393.925 444.015 401.104 444.133 407.246 447.267C413.388 450.404 418.079 457.59 415.962 464.153C413.944 470.415 407.025 473.46 400.811 475.62C299.892 510.736 186.658 509.208 86.7239 471.384C81.2296 469.305 75.5096 466.928 71.8825 462.304C68.2585 457.681 67.7121 450.113 72.2782 446.417C75.0644 444.164 78.9048 443.881 82.484 443.694Z" fill="#061F33"/>
<path d="M87.0527 534.17C79.5636 538.746 72.6882 544.492 67.7542 551.735C65.2609 555.391 60.3733 562.613 61.5364 567.229C62.7838 572.183 68.2187 572.816 72.4494 572.49C74.9102 572.299 77.3656 572.045 79.8109 571.728C95.1076 569.754 110.079 565.344 124.022 558.757C130.977 555.472 137.769 551.678 144.081 547.274C146.295 545.728 148.182 543.797 150.388 542.258C153.316 540.214 156.252 538.873 158.231 535.723C160.552 532.029 161.094 527.273 159.665 523.149C157.319 516.377 150.101 512.16 142.957 511.597C135.812 511.032 128.765 513.509 122.334 516.677C116.972 519.321 112.061 523.646 106.405 525.373C100.263 527.245 93.8393 530.157 88.3048 533.418C87.8859 533.665 87.4686 533.915 87.0527 534.17Z" fill="#303243"/>
<path d="M208.6 513.102C178.257 516.024 148.246 522.401 119.334 532.068C114.851 533.568 110.243 535.238 106.84 538.52C103.436 541.805 101.567 547.155 103.668 551.391C106.596 557.295 114.72 557.76 121.283 557.174C149.39 554.673 177.133 548.14 203.402 537.838C207.316 536.304 211.293 534.625 214.338 531.726C217.381 528.828 219.336 524.423 218.228 520.369C216.679 514.707 208.638 512.124 204.081 515.824L208.6 513.102Z" fill="#FDA486"/>
<path d="M429.562 430.315C443.978 429.063 459.165 431.368 471.094 439.553C483.024 447.74 490.952 462.548 488.398 476.789C486.234 488.855 477.095 498.759 466.424 504.794C455.754 510.828 443.584 513.571 431.598 516.139C365.91 530.21 299.449 541.367 232.39 545.368C223.249 545.914 213.883 546.3 205.128 543.615C196.373 540.932 188.207 534.565 185.851 525.717C183.122 515.478 188.872 504.488 197.193 497.928C205.517 491.367 215.986 488.301 226.171 485.375C251.903 477.984 277.633 470.595 303.363 463.207C329.093 455.817 354.824 448.427 380.555 441.037C385.844 439.52 390.828 437.694 396.208 436.596C407.258 434.344 418.31 431.291 429.562 430.315Z" fill="#0B2E4E"/>
<path d="M221.872 545.762C216.188 545.762 210.543 545.275 205.128 543.615C202.435 542.79 199.798 541.617 197.368 540.129C191.9 536.781 187.483 531.845 185.851 525.717C185.384 523.968 185.164 522.196 185.164 520.427C185.163 511.852 190.294 503.368 197.194 497.928C205.518 491.367 215.986 488.301 226.172 485.375C251.903 477.984 277.633 470.595 303.363 463.207C329.093 455.817 354.825 448.427 380.556 441.037C385.845 439.52 390.829 437.694 396.208 436.596C407.258 434.344 418.311 431.291 429.563 430.315C431.969 430.106 434.396 429.997 436.825 429.997C448.956 429.997 461.156 432.734 471.095 439.553C481.51 446.702 488.875 458.896 488.877 471.352C488.877 473.165 488.723 474.981 488.398 476.79C486.234 488.855 477.095 498.759 466.425 504.794C455.755 510.828 443.584 513.571 431.598 516.139C365.911 530.21 299.449 541.367 232.39 545.368C228.902 545.576 225.38 545.762 221.872 545.762Z" fill="#0A2C4A"/>
<path d="M438.692 534.302C446.209 538.833 453.12 544.536 458.1 551.749C460.615 555.39 465.545 562.581 464.412 567.205C463.195 572.168 457.764 572.833 453.53 572.532C451.068 572.356 448.613 572.118 446.164 571.817C430.858 569.936 415.858 565.616 401.876 559.115C394.902 555.874 388.085 552.121 381.746 547.755C379.524 546.223 377.625 544.304 375.409 542.778C372.467 540.752 369.524 539.428 367.526 536.291C365.183 532.611 364.612 527.858 366.015 523.727C368.32 516.94 375.512 512.679 382.652 512.071C389.793 511.464 396.856 513.9 403.304 517.028C408.684 519.637 413.621 523.932 419.289 525.624C425.44 527.458 431.883 530.333 437.437 533.558C437.855 533.802 438.275 534.051 438.692 534.302Z" fill="#303243"/>
<path d="M317.019 513.978C347.382 516.714 377.43 522.907 406.4 532.399C410.894 533.871 415.512 535.511 418.934 538.774C422.359 542.036 424.261 547.376 422.185 551.624C419.293 557.546 411.173 558.061 404.606 557.517C376.485 555.186 348.7 548.822 322.367 538.682C318.446 537.173 314.459 535.517 311.396 532.638C308.335 529.757 306.353 525.365 307.437 521.305C308.953 515.632 316.975 513.001 321.556 516.675L317.019 513.978Z" fill="#FDA486"/>
<path d="M299.279 486.36C288.983 483.471 278.686 480.583 268.392 477.694C242.651 470.472 216.912 463.25 191.171 456.029C178.302 452.418 165.432 448.809 152.562 445.196C142.111 442.26 131.595 438.256 120.705 437.037C112.278 436.093 104.121 433.238 95.5534 432.546C81.1317 431.382 65.9587 433.78 54.0789 442.038C42.1999 450.299 34.3622 465.154 37.0046 479.379C39.2421 491.433 48.4423 501.28 59.1497 507.249C69.8563 513.219 82.0421 515.886 94.044 518.381C159.817 532.048 226.344 542.8 293.426 546.391C302.571 546.88 311.939 547.208 320.679 544.472C329.416 541.734 337.542 535.318 339.847 526.455C342.512 516.198 336.695 505.245 328.332 498.736C319.97 492.226 309.482 489.223 299.279 486.36Z" fill="#0B2E4E"/>
<path d="M51.4277 430.913C48.548 435.86 40.1043 431.596 37.0175 429.597C35.842 428.84 34.5691 427.88 34.4454 426.487C34.3511 425.421 34.9895 424.41 35.7515 423.655C38.3043 421.133 42.6007 420.599 45.693 422.421C48.0526 423.804 53.2455 427.773 51.4277 430.913ZM110.841 415.251C108.666 412.457 106.26 409.84 103.662 407.431C101.895 405.795 99.5389 402.35 97.1113 401.844C92.733 400.942 89.694 407.105 87.1536 409.638C82.8951 413.896 78.1628 417.679 73.0796 420.899C68.8358 423.58 63.8013 425.941 58.9531 424.643C55.4327 423.705 52.7184 421.018 49.8356 418.789C46.9589 416.569 43.304 414.662 39.8037 415.659C37.0237 416.452 35.0428 418.898 32.4877 420.259C27.5267 422.888 21.2015 420.953 16.8889 417.358C12.5762 413.763 9.70194 408.789 6.37319 404.27C5.49907 403.081 4.08163 401.789 2.76234 402.435C0.65781 403.456 2.41609 406.771 2.45396 408.415C2.47096 409.26 1.50256 409.747 1.40131 410.57C1.29697 411.398 1.9601 412.342 1.39049 413.136C1.12772 413.506 0.622258 413.662 0.382668 414.062C0.020192 414.681 0.531832 415.444 0.57975 416.165C0.618394 416.767 0.330113 417.334 0.170902 417.918C-0.550959 420.619 1.15863 422.839 2.59462 424.906C4.26016 427.303 6.35077 429.368 8.4553 431.374C14.3569 436.979 20.6326 442.303 27.8196 446.14C34.9972 449.982 43.1788 452.282 51.2893 451.53C59.9339 450.721 67.8628 446.575 75.5296 442.506C86.6721 436.592 97.8154 430.679 108.959 424.766C110.534 423.933 112.243 422.937 112.815 421.249C113.518 419.167 112.186 416.984 110.841 415.251Z" fill="#FDA486"/>
<path d="M479.307 422.421C482.4 420.599 486.695 421.133 489.249 423.655C490.011 424.41 490.65 425.421 490.555 426.487C490.431 427.88 489.158 428.84 487.983 429.597C484.896 431.596 476.452 435.86 473.571 430.913C471.755 427.773 476.946 423.804 479.307 422.421ZM412.184 421.249C412.756 422.937 414.466 423.933 416.041 424.766C427.184 430.679 438.327 436.592 449.47 442.506C457.137 446.575 465.065 450.721 473.71 451.53C481.822 452.282 490.003 449.982 497.181 446.14C504.367 442.303 510.643 436.979 516.545 431.374C518.648 429.368 520.739 427.303 522.406 424.906C523.84 422.839 525.55 420.619 524.829 417.918C524.669 417.334 524.382 416.767 524.42 416.165C524.467 415.444 524.979 414.681 524.618 414.062C524.378 413.662 523.872 413.506 523.611 413.136C523.04 412.342 523.702 411.398 523.598 410.57C523.496 409.747 522.528 409.26 522.546 408.415C522.584 406.771 524.343 403.456 522.237 402.435C520.918 401.789 519.501 403.081 518.626 404.27C515.297 408.789 512.424 413.763 508.111 417.358C503.799 420.953 497.472 422.888 492.512 420.259C489.958 418.898 487.975 416.452 485.195 415.659C481.697 414.662 478.041 416.569 475.164 418.789C472.281 421.018 469.566 423.705 466.046 424.643C461.199 425.941 456.164 423.58 451.92 420.899C446.837 417.679 442.105 413.896 437.846 409.638C435.306 407.105 432.267 400.942 427.891 401.844C425.461 402.35 423.104 405.795 421.337 407.431C418.74 409.84 416.334 412.457 414.159 415.251C412.812 416.984 411.482 419.167 412.184 421.249Z" fill="#FDA486"/>
<path d="M444.058 413.733C441.97 403.807 433.101 400.331 425.993 394.563C419.761 389.504 414.046 383.8 408.96 377.582C398.802 365.158 391.155 350.647 386.957 335.133C381.512 314.998 381.641 293.845 380.172 273.027C378.693 252.22 375.293 230.771 363.859 213.313C356.432 201.983 345.024 192.765 331.944 188.929C316.236 184.307 301.573 190.538 286.508 195.133C285.186 195.539 283.859 195.937 282.527 196.326C267.876 200.61 252.305 200.61 237.654 196.326C236.322 195.937 234.995 195.539 233.671 195.133C218.608 190.538 203.943 184.307 188.235 188.929C175.155 192.765 163.749 201.983 156.32 213.313C144.887 230.771 141.488 252.22 140.008 273.027C138.54 293.845 138.669 314.998 133.222 335.133C129.026 350.647 121.378 365.158 111.22 377.582C106.134 383.8 100.418 389.504 94.187 394.563C87.0804 400.331 78.2086 403.807 76.1234 413.733C74.7833 420.094 76.8059 427.059 81.3364 431.706C91.1225 441.724 105.079 436.639 116.357 432.672C126.335 429.172 135.707 423.931 143.831 417.158C164.534 399.894 185.416 367.269 184.13 305.471C196.374 317.817 197.248 343.129 198.201 359.248C198.227 359.695 198.245 360.143 198.269 360.589C198.801 370.609 198.795 380.743 197.674 390.727C196.013 405.532 194.802 420.094 192.537 434.862C188.623 460.417 331.558 460.417 327.644 434.862C325.379 420.094 324.168 405.532 322.508 390.727C321.418 381.028 321.382 371.187 321.867 361.446C321.904 360.714 321.936 359.98 321.98 359.248C322.931 343.129 323.808 317.817 336.051 305.471C334.763 367.269 355.647 399.894 376.348 417.158C384.472 423.931 393.847 429.172 403.824 432.672C415.102 436.639 429.059 441.724 438.842 431.706C443.375 427.059 445.396 420.094 444.058 413.733Z" fill="#89C0FF"/>
</svg>
