<svg width="406" height="412" viewBox="0 0 406 412" fill="none" xmlns="http://www.w3.org/2000/svg">
<path d="M386.525 371.505C386.525 382.681 304.357 391.742 203.001 391.742C101.641 391.742 19.4751 382.681 19.4751 371.505C19.4751 360.326 101.641 351.268 203.001 351.268C304.357 351.268 386.525 360.326 386.525 371.505Z" fill="#E5F6F1"/>
<path d="M203.001 350.51C101.44 350.51 19.1094 360.546 19.1094 372.926C19.1094 382.501 68.3352 390.672 137.606 393.886C126.192 395.435 118.424 398.484 118.424 401.992C118.424 407.071 134.695 411.188 154.765 411.188C174.837 411.188 191.109 407.071 191.109 401.992C191.109 399.28 186.46 396.84 179.073 395.158C186.905 395.282 194.89 395.345 203.001 395.345C227.246 395.345 250.39 394.772 271.584 393.734C265.335 395.639 261.58 398.083 261.58 400.748C261.58 406.83 281.14 411.762 305.262 411.762C329.391 411.762 348.948 406.83 348.948 400.748C348.948 395.89 336.469 391.771 319.155 390.307C360.489 386.197 386.888 379.939 386.888 372.926C386.888 360.546 304.558 350.51 203.001 350.51Z" fill="#613E32"/>
<path d="M367.022 392.796C362.664 392.796 359.126 393.938 359.126 395.345C359.126 396.755 362.664 397.897 367.022 397.897C371.383 397.897 374.92 396.755 374.92 395.345C374.92 393.938 371.383 392.796 367.022 392.796Z" fill="#B5895A"/>
<path d="M104.06 398.346C101.664 398.346 99.7207 399.422 99.7207 400.748C99.7207 402.073 101.664 403.146 104.06 403.146C106.456 403.146 108.399 402.073 108.399 400.748C108.399 399.422 106.456 398.346 104.06 398.346Z" fill="#B5895A"/>
<path d="M33.5268 369.655H371.743C377.145 361.518 384.729 351.37 388.385 343.659C399.061 321.126 404.4 295.998 405.165 270.867C405.926 218.008 368.555 198.943 351.013 155.618C332.707 108.823 350.251 44.696 302.201 15.2343C257.963 -11.6309 202.287 -2.96327 169.492 41.2297C138.222 82.8253 145.087 146.95 90.171 164.28C44.4106 178.145 3.98831 183.345 0.936564 249.204C0.175015 275.199 3.22676 302.931 10.8506 327.195C14.2466 339.533 21.2698 362.839 33.5268 369.655Z" fill="#6E9980"/>
<path d="M107.716 309.564C117.096 304.35 123.444 297.77 128.555 288.333C138.384 269.066 136.419 246.261 130.913 226.209C124.229 202.618 116.76 180.6 113.221 156.222C110.467 138.919 111.255 112.182 93.5597 102.352C71.5414 89.7681 53.4566 112.576 47.9491 131.448C40.874 155.039 39.3018 178.631 34.5817 202.618C27.5048 241.938 6.66626 310.744 65.2509 318.215C71.5414 319.002 87.0296 321.065 107.716 309.564Z" fill="#9ABBA7"/>
<path d="M73.4552 335.003C73.4552 335.003 73.2776 334.328 72.9407 333.07C72.6076 331.824 72.1625 329.832 71.636 327.361C71.3825 326.125 71.0568 324.729 70.7819 323.249C70.5395 321.776 70.2767 320.184 69.9973 318.481C69.4985 315.076 68.7046 311.225 68.3215 307.022C67.8671 302.82 67.3564 298.267 66.9159 293.442C66.6485 291.033 66.493 288.554 66.3737 286.023C66.221 283.493 66.1127 280.904 66.0017 278.271C65.8888 275.64 65.7759 272.965 65.6556 270.255C65.5492 267.548 65.3697 264.805 65.4567 262.045C65.5122 256.528 65.5677 250.918 65.626 245.312C65.7315 239.709 65.7759 234.104 66.2145 228.609C66.53 223.106 66.9918 217.7 67.3795 212.47C67.7626 207.242 68.1781 202.191 68.6611 197.411C69.2607 192.643 69.8862 188.139 70.4914 183.989C71.6573 175.684 72.7742 168.788 73.5848 163.968C74.4037 159.149 74.9274 156.409 74.9274 156.409C75.0598 155.727 75.7167 155.281 76.3978 155.411C76.9771 155.525 77.3879 156.02 77.4138 156.588L77.4157 156.636C77.4184 156.636 77.5434 159.435 77.6627 164.314C77.7765 169.193 77.8987 176.148 77.8663 184.467C77.8728 188.627 77.8524 193.13 77.7645 197.885C77.8524 202.644 78.0208 207.661 78.0597 212.844C78.1226 218.025 78.2448 223.376 78.2216 228.808C78.118 234.242 78.4918 239.75 78.6667 245.254C78.8286 250.76 78.9906 256.262 79.1497 261.68C79.2876 267.095 79.7262 272.394 79.9853 277.539C80.1352 280.11 80.2897 282.635 80.3888 285.11C80.4841 287.588 80.6108 290.009 80.8486 292.345C81.278 297.029 81.5917 301.465 81.8989 305.563C82.0136 307.619 82.2542 309.561 82.4476 311.412C82.6419 313.265 82.8224 315.022 82.9926 316.673C83.161 318.326 83.3137 319.876 83.4562 321.307C83.6024 322.723 83.7958 323.974 83.9393 325.132C84.2696 327.446 84.3964 329.233 84.6203 330.531C84.8211 331.819 84.9266 332.507 84.9266 332.507L84.9386 332.585C85.4392 335.79 83.2462 338.794 80.0381 339.293C77.0492 339.76 74.2279 337.855 73.4552 335.003Z" fill="#2E7562"/>
<path d="M74.3601 214.069C74.3601 214.069 74.4962 214.163 74.7497 214.341C74.8793 214.429 75.0338 214.54 75.2188 214.668C75.4196 214.806 75.3734 214.746 75.4678 214.819L75.5603 214.905L75.7935 215.009C75.9573 215.092 76.1368 215.185 76.3561 215.237C76.7669 215.405 77.3147 215.466 77.9541 215.525C79.2533 215.58 81.054 215.253 82.9926 214.446C83.9595 214.038 84.9571 213.529 85.9361 212.935L86.3025 212.707L86.395 212.65L86.4413 212.622L86.4644 212.607C86.5079 212.572 86.1202 212.898 86.2914 212.754L86.3025 212.745L86.4987 212.595L87.2833 211.992L88.8601 210.78C89.2876 210.39 89.543 210.039 89.915 209.672C90.2564 209.305 90.6534 208.988 90.9236 208.486C91.2327 208.024 91.538 207.564 91.8406 207.111C92.1404 206.652 92.3088 206.114 92.5531 205.626C93.0657 204.662 93.3147 203.57 93.6358 202.573C93.9476 201.566 94.0836 200.526 94.2964 199.602C94.6148 197.7 94.8387 196.08 94.9775 194.924C95.1228 193.775 95.2033 193.119 95.2033 193.119C95.2976 192.37 95.9787 191.842 96.7264 191.934C97.3982 192.019 97.8951 192.584 97.9136 193.24C97.9136 193.24 97.9385 193.905 97.9756 195.068C98.0218 196.224 98.0607 197.911 98.0468 199.96C97.9756 201 98.0052 202.12 97.8414 203.338C97.6637 204.553 97.5647 205.851 97.1326 207.192C96.9318 207.86 96.805 208.566 96.5209 209.236C96.2193 209.909 95.9121 210.589 95.6049 211.274C95.3393 211.975 94.8433 212.633 94.3834 213.308C93.9198 213.963 93.4211 214.708 92.9455 215.279L91.5797 216.722L90.9005 217.44L90.7302 217.619L90.3443 217.958L89.927 218.316C88.8138 219.271 87.6396 220.135 86.42 220.903C83.9781 222.421 81.2826 223.508 78.6185 223.885C77.2823 224.039 75.9915 224.091 74.8237 223.918C74.2371 223.866 73.6948 223.748 73.1914 223.622C72.9379 223.558 72.6955 223.497 72.4623 223.438C72.2041 223.343 71.9571 223.25 71.7192 223.165C71.2853 222.999 70.7449 222.775 70.5579 222.679C70.3553 222.582 70.1823 222.5 70.0407 222.431C69.7622 222.298 69.6123 222.225 69.6123 222.225C67.2554 221.095 66.2598 218.266 67.3887 215.909C68.5222 213.553 71.3473 212.557 73.7069 213.69C73.9262 213.794 74.1593 213.934 74.3601 214.069Z" fill="#2E7562"/>
<path d="M74.4796 263.436C74.4796 263.436 74.3186 263.523 74.0179 263.684C73.7763 263.808 73.4802 263.956 73.1342 264.132C72.7899 264.291 72.4485 264.435 72.0423 264.589C70.4405 265.208 68.2317 265.743 65.6788 265.949C63.123 266.16 60.2174 266.084 57.1148 265.504C55.5658 265.208 53.964 264.788 52.3234 264.116C51.5082 263.777 50.6773 263.376 49.8445 262.848C49.02 262.358 48.0873 261.517 47.6884 261.091C47.2036 260.643 46.5438 259.906 45.9571 259.247C45.401 258.563 44.8949 257.909 44.4387 257.196C43.5013 255.796 42.8295 254.271 42.2965 252.802C41.2925 249.822 41.0408 247.034 40.9733 244.75C40.9039 242.455 40.9807 240.602 41.0196 239.311C41.0658 238.028 41.0917 237.293 41.0917 237.293C41.1139 236.54 41.7441 235.952 42.4973 235.978C43.1737 235.999 43.7206 236.519 43.8011 237.17C43.8011 237.17 43.8909 237.899 44.05 239.174C44.2101 240.444 44.4313 242.254 44.8264 244.328C45.2141 246.404 45.8461 248.723 46.9611 250.826C47.5478 251.859 48.1937 252.868 49.0292 253.749C49.4262 254.197 49.9 254.628 50.3266 255.014C50.7855 255.369 51.1371 255.697 51.8108 256.151C52.5261 256.668 52.7176 256.777 53.1821 256.988C53.6161 257.184 54.1278 257.36 54.6682 257.5C55.749 257.784 56.9418 257.947 58.1123 258.011C60.4599 258.148 62.7214 257.914 64.5156 257.523C66.3182 257.135 67.6386 256.585 68.3817 256.171C68.5639 256.071 68.737 255.962 68.836 255.898C68.9239 255.825 68.9239 255.829 69.0599 255.735C69.3394 255.533 69.4893 255.427 69.4893 255.427C71.6129 253.906 74.5656 254.396 76.0869 256.519C77.6054 258.643 77.1186 261.595 74.9922 263.116C74.8358 263.227 74.6443 263.346 74.4796 263.436Z" fill="#2E7562"/>
<path d="M77.0304 284.845C77.0304 284.845 77.8817 284.992 79.3734 285.248C80.1025 285.364 81.0676 285.563 82.0133 285.677C82.9905 285.804 84.0935 285.982 85.3029 286.117C86.503 286.2 87.8466 286.395 89.2041 286.418C89.887 286.435 90.5884 286.456 91.3064 286.475C92.0227 286.487 92.7167 286.411 93.4486 286.385C93.8113 286.366 94.1778 286.345 94.5479 286.324L95.6092 286.158C96.3199 286.037 97.0824 285.982 97.744 285.745C99.1616 285.411 100.477 284.864 101.73 284.189C102.306 283.784 102.95 283.452 103.501 283C104.034 282.509 104.563 282.022 105.087 281.539C105.546 280.963 106.001 280.389 106.449 279.826C106.887 279.24 107.208 278.561 107.593 277.945C107.998 277.334 108.286 276.658 108.563 275.986C108.84 275.318 109.147 274.675 109.394 274.024C109.798 272.674 110.257 271.414 110.557 270.201C110.837 268.976 111.091 267.848 111.317 266.854C111.516 265.847 111.626 264.949 111.751 264.217C111.981 262.749 112.113 261.908 112.113 261.908L112.127 261.829C112.242 261.091 112.937 260.584 113.675 260.702C114.361 260.808 114.846 261.41 114.821 262.085C114.821 262.085 114.793 262.966 114.74 264.501C114.703 265.274 114.701 266.21 114.625 267.288C114.511 268.367 114.392 269.585 114.256 270.914C114.091 272.246 113.768 273.69 113.493 275.228C113.309 275.99 113.055 276.772 112.829 277.575C112.6 278.38 112.361 279.2 111.97 280.013C111.603 280.825 111.298 281.683 110.841 282.497C110.347 283.303 109.845 284.12 109.338 284.945C108.734 285.712 108.072 286.463 107.414 287.226C106.723 287.953 105.897 288.562 105.124 289.227C103.483 290.419 101.69 291.421 99.8537 292.106C98.9451 292.534 98.0308 292.731 97.1212 293.004C96.666 293.129 96.2116 293.254 95.7638 293.38C95.3187 293.465 94.8727 293.546 94.4341 293.629C93.5569 293.773 92.6778 293.965 91.8404 294.057C91.0002 294.136 90.1775 294.217 89.3818 294.292C87.7726 294.454 86.3115 294.428 84.9216 294.496C83.5466 294.51 82.2863 294.463 81.1592 294.454C80.0081 294.446 79.1559 294.37 78.3805 294.344C76.8685 294.268 76.0051 294.226 76.0051 294.226H75.9987C73.3883 294.098 71.3794 291.881 71.5062 289.273C71.6339 286.665 73.8491 284.653 76.4604 284.784C76.6445 284.793 76.8527 284.819 77.0304 284.845Z" fill="#2E7562"/>
<path d="M286.709 293.262C262.748 291.379 240.77 281.211 231.697 259.65C227.921 250.668 228.264 235.009 234.197 226.617C240.649 217.489 251.2 212.197 258.45 203.968C269.127 191.858 269.757 174.796 265.986 160.483C258.45 129.11 241.497 94.9815 257.196 63.0547C269.757 35.5335 307.432 31.1298 333.181 47.6451C364.575 68.0099 352.644 101.586 344.48 129.11C340.084 143.423 335.692 161.037 348.251 173.144C360.809 185.806 375.25 194.061 379.646 212.778C385.497 237.686 369.408 270.152 344.315 282.562C327.932 290.663 306.631 294.827 286.709 293.262Z" fill="#9ABBA7"/>
<path d="M299.913 331.49C299.913 331.49 299.808 330.505 299.607 328.658C299.416 326.793 299.105 324.076 298.809 320.622C298.487 317.164 298.127 312.973 297.762 308.155C297.43 303.341 296.988 297.907 296.684 291.976C296.336 286.044 295.964 279.62 295.72 272.817C295.421 266.018 295.17 258.842 295.005 251.421C294.848 243.997 294.699 236.324 294.642 228.525C294.68 220.728 294.619 212.809 294.735 204.882C294.879 196.961 295.009 189.042 295.306 181.241C295.533 173.448 295.881 165.78 296.329 158.358C296.542 154.649 296.748 151.003 296.952 147.433C297.163 143.866 297.501 140.376 297.76 136.98C298.317 130.188 298.764 123.773 299.468 117.86C300.086 111.946 300.707 106.53 301.27 101.735C301.858 96.9413 302.511 92.7745 302.997 89.3415C303.485 85.9067 303.928 83.2177 304.205 81.3818C304.492 79.5487 304.641 78.5706 304.641 78.5706C304.746 77.9026 305.369 77.4454 306.037 77.5491C306.643 77.6444 307.077 78.1681 307.069 78.7622V78.7927C307.069 78.7927 307.065 79.781 307.053 81.6353C307.036 83.4879 307.045 86.2074 306.981 89.6617C306.925 93.1132 306.854 97.3012 306.773 102.109C306.773 106.918 306.754 112.341 306.671 118.246C306.626 121.198 306.609 124.277 306.655 127.463C306.652 130.649 306.652 133.94 306.65 137.325C306.605 144.088 306.735 151.228 306.757 158.605C306.747 165.981 306.969 173.609 307.027 181.353C307.057 189.096 307.335 196.966 307.464 204.832C307.564 212.698 307.835 220.567 308.012 228.308C308.232 236.049 308.455 243.668 308.666 251.042C309.156 265.788 309.608 279.553 310.002 291.35C310.805 314.928 311.342 330.642 311.342 330.642V330.68C311.452 333.842 308.974 336.498 305.809 336.604C302.793 336.709 300.239 334.442 299.913 331.49Z" fill="#2E7562"/>
<path d="M304.649 168.305C304.649 168.305 304.781 168.395 305.032 168.568C305.157 168.655 305.309 168.762 305.491 168.888C305.612 168.976 305.612 168.964 305.645 168.98L305.73 169.037L305.823 169.122L306.05 169.224C306.21 169.302 306.387 169.392 306.597 169.442C307.001 169.608 307.534 169.67 308.158 169.724C308.8 169.726 309.547 169.703 310.386 169.515C311.219 169.336 312.136 169.063 313.081 168.669C314.024 168.271 314.996 167.776 315.952 167.192L316.312 166.971L316.4 166.914L316.445 166.886L316.469 166.874C316.32 166.995 316.431 166.903 316.402 166.929L316.417 166.92L316.613 166.779L317.4 166.223L317.796 165.943L318.08 165.706L318.667 165.237C319.454 164.529 320.23 163.74 320.844 162.866C321.498 162.013 321.995 161.051 322.447 160.085C322.862 159.095 323.229 158.097 323.481 157.089C323.756 156.093 323.952 155.106 324.118 154.187C324.442 152.339 324.634 150.74 324.778 149.62C324.918 148.494 324.997 147.852 324.997 147.852C325.086 147.123 325.75 146.607 326.48 146.698C327.136 146.777 327.621 147.328 327.642 147.973C327.642 147.973 327.666 148.62 327.704 149.75C327.739 150.892 327.804 152.519 327.775 154.53C327.756 155.537 327.716 156.641 327.588 157.83C327.481 159.012 327.247 160.284 326.925 161.599C326.56 162.906 326.105 164.278 325.414 165.588C324.762 166.921 323.905 168.156 322.945 169.342L322.147 170.23L321.744 170.674L321.396 171.012L320.707 171.688L320.534 171.853L320.256 172.095L319.849 172.446C318.766 173.377 317.618 174.222 316.426 174.971C315.232 175.715 313.981 176.345 312.704 176.849C311.43 177.358 310.094 177.683 308.81 177.885C307.505 178.038 306.247 178.086 305.106 177.918C304.535 177.868 304.004 177.752 303.511 177.628C303.265 177.567 303.028 177.505 302.801 177.449C302.547 177.356 302.306 177.267 302.073 177.183C301.846 177.091 301.63 177.006 301.424 176.922C301.253 176.847 301.092 176.776 300.941 176.71C300.742 176.615 300.573 176.535 300.436 176.468C300.163 176.336 300.014 176.265 300.014 176.265C297.717 175.161 296.743 172.403 297.847 170.103C298.951 167.8 301.713 166.832 304.013 167.933C304.228 168.037 304.456 168.172 304.649 168.305Z" fill="#2E7562"/>
<path d="M304.771 216.492C304.771 216.492 304.612 216.578 304.316 216.734C304.082 216.854 303.791 216.999 303.454 217.172C303.118 217.326 302.786 217.468 302.388 217.619C300.822 218.219 298.667 218.743 296.177 218.946C293.685 219.15 290.847 219.074 287.818 218.508C286.306 218.219 284.744 217.812 283.141 217.153C282.343 216.824 281.533 216.43 280.717 215.914C279.917 215.437 279.007 214.616 278.619 214.201C278.145 213.765 277.498 213.047 276.925 212.401C276.383 211.735 275.89 211.096 275.447 210.399C274.528 209.032 273.875 207.543 273.353 206.112C272.375 203.203 272.129 200.481 272.06 198.249C271.998 196.011 272.067 194.204 272.107 192.945C272.15 191.69 272.174 190.973 272.174 190.973C272.2 190.241 272.813 189.665 273.547 189.691C274.211 189.712 274.739 190.217 274.822 190.854C274.822 190.854 274.912 191.565 275.066 192.808C275.222 194.049 275.438 195.812 275.822 197.84C276.201 199.865 276.821 202.129 277.904 204.181C278.479 205.19 279.109 206.176 279.926 207.035C280.313 207.471 280.772 207.893 281.191 208.27C281.639 208.616 281.981 208.935 282.639 209.378C283.34 209.883 283.528 209.989 283.98 210.195C284.401 210.39 284.904 210.558 285.432 210.695C286.483 210.975 287.649 211.134 288.791 211.198C291.081 211.328 293.292 211.1 295.04 210.719C296.803 210.34 298.091 209.805 298.816 209.4C298.994 209.303 299.164 209.196 299.259 209.132C299.346 209.061 299.346 209.066 299.479 208.973C299.752 208.777 299.899 208.672 299.899 208.672C301.969 207.19 304.852 207.666 306.334 209.741C307.82 211.814 307.341 214.696 305.268 216.18C305.117 216.288 304.93 216.404 304.771 216.492Z" fill="#2E7562"/>
<path d="M303.497 139.074C303.497 139.074 303.338 139.159 303.044 139.317C302.807 139.435 302.523 139.582 302.183 139.756C301.846 139.909 301.516 140.052 301.119 140.201C299.553 140.803 297.395 141.326 294.908 141.529C292.413 141.736 289.575 141.658 286.548 141.092C285.032 140.805 283.471 140.395 281.872 139.737C281.071 139.408 280.261 139.014 279.448 138.498C278.645 138.021 277.738 137.2 277.35 136.782C276.874 136.349 276.227 135.631 275.658 134.985C275.113 134.316 274.621 133.68 274.176 132.98C273.259 131.616 272.603 130.127 272.084 128.695C271.105 125.787 270.859 123.064 270.79 120.833C270.729 118.595 270.8 116.785 270.84 115.527C270.881 114.274 270.906 113.556 270.906 113.556C270.931 112.824 271.544 112.248 272.278 112.272C272.941 112.293 273.474 112.801 273.555 113.435C273.555 113.435 273.643 114.148 273.796 115.392C273.953 116.631 274.168 118.398 274.552 120.423C274.931 122.449 275.552 124.711 276.639 126.762C277.21 127.772 277.84 128.759 278.657 129.619C279.044 130.052 279.503 130.474 279.922 130.851C280.37 131.199 280.711 131.521 281.369 131.962C282.069 132.469 282.258 132.573 282.71 132.781C283.132 132.974 283.634 133.141 284.16 133.279C285.214 133.559 286.38 133.718 287.519 133.782C289.812 133.914 292.02 133.684 293.771 133.305C295.531 132.924 296.821 132.388 297.544 131.984C297.72 131.886 297.89 131.779 297.987 131.718C298.072 131.645 298.075 131.65 298.205 131.557C298.478 131.36 298.624 131.256 298.624 131.256C300.697 129.773 303.58 130.25 305.065 132.322C306.548 134.395 306.07 137.277 303.997 138.763C303.846 138.872 303.66 138.986 303.497 139.074Z" fill="#2E7562"/>
<path d="M307.259 237.387C307.259 237.387 308.09 237.533 309.547 237.783C310.258 237.894 311.198 238.089 312.121 238.2C313.076 238.324 314.154 238.499 315.334 238.629C316.502 238.71 317.814 238.901 319.138 238.922C319.809 238.942 320.491 238.96 321.194 238.982C321.893 238.992 322.566 238.918 323.284 238.892C323.639 238.873 323.994 238.854 324.357 238.833C324.7 238.781 325.047 238.723 325.392 238.669C326.084 238.55 326.83 238.499 327.476 238.266C328.858 237.942 330.144 237.409 331.368 236.748C331.93 236.353 332.557 236.028 333.098 235.588C333.614 235.111 334.131 234.635 334.645 234.162C335.09 233.6 335.533 233.041 335.974 232.489C336.4 231.918 336.715 231.255 337.092 230.653C337.485 230.059 337.769 229.398 338.037 228.741C338.309 228.09 338.608 227.465 338.85 226.825C339.243 225.508 339.691 224.278 339.984 223.096C340.256 221.898 340.505 220.801 340.725 219.827C340.92 218.845 341.029 217.968 341.147 217.255C341.372 215.82 341.503 215 341.503 215L341.512 214.924C341.629 214.201 342.306 213.706 343.03 213.82C343.697 213.926 344.17 214.514 344.144 215.175C344.144 215.175 344.118 216.032 344.069 217.532C344.033 218.286 344.028 219.2 343.952 220.249C343.846 221.303 343.727 222.495 343.592 223.793C343.431 225.091 343.118 226.501 342.853 228.003C342.67 228.747 342.422 229.506 342.201 230.293C341.979 231.079 341.744 231.882 341.363 232.671C341.003 233.465 340.707 234.301 340.262 235.097C339.776 235.885 339.287 236.684 338.795 237.487C338.203 238.236 337.556 238.968 336.914 239.712C336.239 240.422 335.436 241.016 334.678 241.668C333.079 242.831 331.324 243.807 329.537 244.475C328.649 244.895 327.756 245.086 326.868 245.352C326.425 245.475 325.982 245.598 325.542 245.721C325.108 245.802 324.675 245.883 324.248 245.961C323.39 246.105 322.533 246.29 321.711 246.38C320.894 246.46 320.093 246.536 319.311 246.612C317.743 246.768 316.317 246.74 314.962 246.809C313.619 246.823 312.385 246.778 311.291 246.766C310.163 246.759 309.332 246.688 308.576 246.659C307.1 246.586 306.257 246.548 306.257 246.548L306.247 246.543C303.703 246.42 301.739 244.255 301.865 241.71C301.99 239.164 304.155 237.203 306.7 237.328C306.879 237.335 307.083 237.361 307.259 237.387Z" fill="#2E7562"/>
<path d="M123.708 363.981C127.417 356.548 121.919 345.872 113.73 351.891C115.98 344.86 114.854 333.613 108.106 328.833C100.515 323.768 90.3908 331.078 87.5796 338.109C90.9515 327.144 78.0163 316.458 67.6128 318.426C52.4271 320.959 51.5841 340.08 60.3008 349.923C56.6439 347.954 49.616 350.764 52.4271 355.825C46.2385 351.957 43.1062 358.735 44.5951 363.981H123.708Z" fill="#9ABBA7"/>
<path d="M105.196 363.981C107.15 360.063 104.251 354.435 99.9371 357.607C101.123 353.9 100.53 347.97 96.9715 345.452C92.9685 342.785 87.6321 346.637 86.1506 350.344C87.93 344.564 81.1112 338.929 75.6268 339.969C67.6199 341.302 67.1767 351.384 71.7719 356.569C69.8444 355.532 66.1375 357.014 67.6199 359.682C64.3581 357.643 62.7073 361.214 63.4929 363.981H105.196Z" fill="#2E7562"/>
<path d="M362.611 363.981C366.913 355.363 360.539 342.982 351.042 349.96C353.652 341.809 352.347 328.764 344.52 323.223C335.716 317.351 323.978 325.829 320.719 333.983C324.629 321.264 309.63 308.875 297.56 311.156C279.958 314.091 278.977 336.264 289.087 347.677C284.844 345.396 276.696 348.658 279.958 354.525C272.777 350.038 269.151 357.896 270.873 363.981H362.611Z" fill="#9ABBA7"/>
<path d="M341.143 363.981C343.414 359.438 340.051 352.91 335.048 356.591C336.423 352.293 335.734 345.417 331.608 342.496C326.968 339.4 320.78 343.87 319.061 348.167C321.123 341.463 313.216 334.932 306.858 336.138C297.572 337.682 297.061 349.37 302.386 355.389C300.154 354.184 295.855 355.901 297.572 358.997C293.79 356.631 291.88 360.774 292.785 363.981H341.143Z" fill="#2E7562"/>
<path d="M118.297 363.981C112.868 353.101 120.913 337.474 132.897 346.286C129.605 335.996 131.251 319.53 141.13 312.537C152.24 305.13 167.056 315.829 171.172 326.12C166.234 310.067 185.164 294.432 200.398 297.31C222.615 301.015 223.854 329.001 211.093 343.405C216.447 340.523 226.732 344.637 222.615 352.045C231.678 346.386 236.257 356.302 234.08 363.981H118.297Z" fill="#9ABBA7"/>
<path d="M145.391 363.981C142.527 358.249 146.769 350.009 153.086 354.653C151.349 349.229 152.217 340.549 157.426 336.862C163.283 332.957 171.093 338.599 173.263 344.022C170.659 335.562 180.638 327.318 188.666 328.837C200.383 330.791 201.033 345.54 194.307 353.137C197.124 351.616 202.551 353.784 200.383 357.69C205.157 354.707 207.57 359.931 206.422 363.981H145.391Z" fill="#2E7562"/>
<path d="M212.737 363.981C208.259 355.011 214.892 342.129 224.773 349.39C222.061 340.909 223.415 327.335 231.559 321.568C240.722 315.46 252.936 324.282 256.33 332.765C252.259 319.53 267.866 306.638 280.424 309.015C298.745 312.065 299.761 335.139 289.243 347.016C293.656 344.643 302.137 348.032 298.745 354.141C306.214 349.475 309.989 357.652 308.196 363.981H212.737Z" fill="#9ABBA7"/>
<path d="M235.073 363.981C232.713 359.254 236.212 352.462 241.419 356.29C239.985 351.818 240.701 344.664 244.996 341.624C249.823 338.402 256.265 343.055 258.055 347.525C255.907 340.549 264.134 333.753 270.753 335.005C280.412 336.616 280.948 348.778 275.404 355.039C277.726 353.786 282.201 355.575 280.412 358.794C284.349 356.332 286.339 360.644 285.39 363.981H235.073Z" fill="#2E7562"/>
<path d="M295.753 376.759C295.753 383.286 254.227 388.578 203.001 388.578C151.773 388.578 110.247 383.286 110.247 376.759C110.247 370.233 151.773 364.941 203.001 364.941C254.227 364.941 295.753 370.233 295.753 376.759Z" fill="#39181F"/>
<path d="M152.407 357.162C152.407 357.162 162.975 343.844 168.949 341.342L203.479 373.408C203.479 373.408 181.333 385.853 165.598 383.949L152.407 357.162Z" fill="#1F2B4D"/>
<path d="M255.04 353.111C255.04 353.111 243.667 343.844 237.693 341.342L203.159 373.408C203.159 373.408 229.89 385.855 245.626 383.951L255.04 353.111Z" fill="#1F2B4D"/>
<path d="M168.861 338.95C168.861 357.981 184.289 373.407 203.321 373.407C222.352 373.407 237.781 357.981 237.781 338.95C237.781 319.919 222.352 304.49 203.321 304.49C184.289 304.49 168.861 319.919 168.861 338.95Z" fill="#1F2B4D"/>
<path d="M165.567 353.8C164.205 354.101 163.07 353.362 162.006 352.639C160.995 351.957 160.078 351.168 158.966 350.64C157.85 350.109 156.586 349.804 155.609 349.018C154.6 348.21 154.181 346.952 154.232 345.686C154.281 344.377 154.794 343.015 155.834 342.178C156.881 341.337 158.288 341.21 159.554 341.558C160.875 341.925 161.985 342.761 162.984 343.668C163.889 344.493 165.459 345.829 166.499 346.48C168.302 347.613 167.406 348.122 167.649 349.38C167.887 350.609 167.325 351.64 166.452 352.466C166.242 352.665 165.908 352.858 165.785 353.125L165.567 353.8Z" fill="#1F2B4D"/>
<path d="M166.355 347.238L164.963 353.405L172.088 355.016L173.484 348.849L166.355 347.238Z" fill="#F5875A"/>
<path d="M166.183 353.736C164.819 354.039 163.682 353.298 162.62 352.578C161.607 351.895 160.692 351.104 159.58 350.576C158.464 350.047 157.198 349.742 156.222 348.956C155.212 348.148 154.795 346.893 154.844 345.627C154.895 344.318 155.406 342.956 156.447 342.119C157.495 341.276 158.902 341.143 160.167 341.496C161.488 341.864 162.599 342.698 163.598 343.607C164.502 344.432 166.072 345.768 167.112 346.419C168.915 347.549 168.02 348.063 168.263 349.318C168.5 350.548 167.938 351.578 167.065 352.405C166.854 352.604 166.522 352.796 166.399 353.063L166.183 353.736Z" fill="#F2546F"/>
<path d="M164.903 351.744C165.929 351.197 166.48 350.138 166.817 349.23L166.819 349.226C166.939 348.873 167.197 347.999 167.205 347.232C167.204 347.027 167.187 346.826 167.114 346.615C167.047 346.412 166.877 346.149 166.576 346.035C166.279 345.921 165.944 346.07 165.831 346.369C165.716 346.667 165.866 347.001 166.165 347.115L166.267 346.848L166.046 347.033L166.164 347.115L166.267 346.848L166.046 347.033L166.158 346.94L166.022 346.997L166.046 347.033L166.158 346.94L166.022 346.997C166.025 346.999 166.05 347.094 166.047 347.232C166.055 347.717 165.817 348.605 165.728 348.84L165.729 348.837C165.454 349.617 164.952 350.432 164.37 350.718C164.086 350.866 163.975 351.213 164.123 351.498C164.269 351.782 164.619 351.894 164.903 351.744Z" fill="white"/>
<path d="M163.343 350.976C164.377 350.427 164.924 349.365 165.26 348.46V348.456C165.381 348.101 165.641 347.226 165.649 346.456C165.646 346.253 165.631 346.054 165.558 345.843C165.491 345.639 165.322 345.376 165.02 345.263C164.721 345.152 164.387 345.3 164.274 345.599C164.161 345.9 164.312 346.234 164.611 346.345L164.712 346.075L164.489 346.263L164.61 346.345L164.712 346.075L164.489 346.263L164.604 346.166L164.466 346.227L164.489 346.263L164.604 346.166L164.466 346.227C164.469 346.227 164.493 346.319 164.491 346.456C164.499 346.942 164.259 347.833 164.17 348.07L164.171 348.067C163.897 348.849 163.4 349.66 162.814 349.946C162.529 350.093 162.417 350.441 162.564 350.726C162.71 351.01 163.059 351.121 163.343 350.976Z" fill="white"/>
<path d="M161.661 349.873C162.688 349.323 163.24 348.266 163.575 347.357C163.696 346.997 163.956 346.125 163.965 345.355C163.964 345.152 163.947 344.953 163.874 344.739C163.806 344.535 163.637 344.275 163.335 344.162C163.038 344.048 162.703 344.2 162.59 344.498C162.477 344.796 162.627 345.13 162.926 345.244L163.028 344.974L162.807 345.161L162.926 345.244L163.028 344.974L162.807 345.161L162.921 345.064L162.783 345.126L162.807 345.161L162.921 345.064L162.783 345.126L162.797 345.185L162.807 345.355C162.815 345.838 162.574 346.731 162.486 346.966C162.212 347.748 161.712 348.556 161.128 348.845C160.844 348.994 160.733 349.343 160.881 349.627C161.028 349.911 161.377 350.022 161.661 349.873Z" fill="white"/>
<path d="M171.91 346.926L247.926 349.806L240.822 383.811L170.01 356.015L171.91 346.926Z" fill="#1F2B4D"/>
<path d="M261.736 366.931C261.669 376.52 253.843 384.24 244.252 384.171C234.66 384.105 226.94 376.276 227.009 366.687C227.075 357.098 234.904 349.38 244.493 349.442C254.083 349.51 261.803 357.339 261.736 366.931Z" fill="#1F2B4D"/>
<path d="M245.718 353.104C247.08 353.395 248.212 352.649 249.271 351.921C250.281 351.235 251.193 350.439 252.302 349.903C253.412 349.366 254.675 349.056 255.646 348.264C256.652 347.449 257.062 346.189 257.006 344.922C256.949 343.616 256.428 342.257 255.381 341.425C254.329 340.589 252.92 340.468 251.657 340.826C250.34 341.2 249.236 342.043 248.241 342.956C247.338 343.785 245.78 345.132 244.744 345.786C242.946 346.933 243.844 347.437 243.61 348.696C243.378 349.927 243.944 350.955 244.825 351.775C245.036 351.974 245.37 352.161 245.496 352.428L245.718 353.104Z" fill="#1F2B4D"/>
<path d="M244.892 346.547L246.322 352.706L239.204 354.359L237.773 348.2L244.892 346.547Z" fill="#F5875A"/>
<path d="M245.102 353.045C246.469 353.338 247.599 352.592 248.66 351.865C249.667 351.176 250.577 350.382 251.688 349.844C252.801 349.309 254.063 348.996 255.035 348.205C256.039 347.39 256.449 346.13 256.392 344.865C256.338 343.557 255.814 342.2 254.767 341.366C253.715 340.532 252.308 340.409 251.043 340.769C249.726 341.141 248.622 341.984 247.628 342.899C246.727 343.728 245.166 345.073 244.131 345.732C242.333 346.874 243.233 347.381 242.996 348.638C242.764 349.868 243.335 350.896 244.211 351.718C244.425 351.915 244.756 352.105 244.882 352.372L245.102 353.045Z" fill="#F2546F"/>
<path d="M246.896 350.012C246.313 349.733 245.806 348.922 245.531 348.143C245.436 347.909 245.19 347.009 245.197 346.528C245.197 346.407 245.213 346.319 245.221 346.307L245.19 346.295L245.218 346.31L245.221 346.307L245.19 346.295L245.218 346.31L244.986 346.184L245.078 346.426L245.218 346.31L244.986 346.184L245.078 346.426C245.377 346.31 245.526 345.973 245.412 345.677C245.297 345.376 244.963 345.229 244.664 345.343C244.368 345.457 244.197 345.715 244.131 345.919C244.058 346.13 244.041 346.327 244.041 346.528C244.048 347.302 244.316 348.181 244.444 348.541C244.782 349.449 245.339 350.506 246.375 351.045C246.659 351.188 247.007 351.074 247.151 350.791C247.295 350.506 247.183 350.157 246.896 350.012Z" fill="white"/>
<path d="M248.449 349.231C247.862 348.946 247.357 348.143 247.078 347.361C246.988 347.127 246.741 346.227 246.749 345.744C246.749 345.623 246.768 345.536 246.773 345.524L246.739 345.512L246.77 345.528L246.773 345.524L246.739 345.512L246.77 345.528L246.536 345.402L246.627 345.642L246.77 345.528L246.536 345.402L246.627 345.642C246.926 345.528 247.075 345.194 246.961 344.895C246.848 344.597 246.512 344.448 246.216 344.564C245.917 344.675 245.749 344.933 245.683 345.138C245.609 345.346 245.593 345.545 245.593 345.744C245.602 346.516 245.868 347.397 245.993 347.757C246.334 348.667 246.891 349.721 247.924 350.263C248.208 350.409 248.556 350.295 248.703 350.01C248.847 349.726 248.733 349.378 248.449 349.231Z" fill="white"/>
<path d="M250.127 348.12C249.539 347.838 249.034 347.03 248.757 346.251V346.253C248.668 346.016 248.419 345.111 248.426 344.63C248.426 344.512 248.442 344.424 248.449 344.415L248.411 344.4L248.445 344.419L248.449 344.415L248.411 344.4L248.445 344.419L248.211 344.292L248.302 344.535L248.445 344.419L248.211 344.292L248.302 344.535C248.601 344.421 248.753 344.087 248.639 343.789C248.528 343.49 248.194 343.34 247.895 343.453C247.597 343.564 247.426 343.823 247.357 344.026C247.286 344.234 247.27 344.432 247.27 344.63C247.277 345.405 247.544 346.289 247.67 346.646V346.649C248.012 347.555 248.568 348.61 249.6 349.153C249.887 349.297 250.235 349.183 250.381 348.896C250.525 348.615 250.411 348.264 250.129 348.12H250.127Z" fill="white"/>
<path d="M241.288 355.347L170.649 383.562L163.339 349.605L239.337 346.268L241.288 355.347Z" fill="#1F2B4D"/>
<path d="M149.629 366.81C149.753 376.399 157.628 384.072 167.218 383.949C176.807 383.825 184.481 375.948 184.355 366.36C184.232 356.771 176.356 349.098 166.768 349.221C157.178 349.344 149.505 357.221 149.629 366.81Z" fill="#1F2B4D"/>
<path d="M226.542 237.112C225.711 235.293 223.936 234.012 223.3 232.095C222.511 229.717 223.56 227.114 223.892 224.755C224.503 220.419 217.311 219.882 218.029 215.225C218.384 212.934 220.151 211.058 220.417 208.694C220.722 205.96 219.1 204.589 217.548 202.646C215.051 199.519 217.437 194.339 213.094 192.212C210.628 191.006 207.822 190.463 205.087 190.774C202.676 191.048 200.772 192.124 198.356 192.131C195.996 192.14 193.34 192.332 191.63 194.175C189.447 196.532 191.211 200.263 189.075 202.869C187.44 204.865 184.876 206.489 185.936 209.438C186.518 211.058 188.021 212.635 187.582 214.471C187.126 216.39 184.939 217.319 183.576 218.489C179.905 221.628 182.388 226.109 182.221 230.172C182.109 232.868 180.906 234.732 179.187 236.696C175.994 240.348 179.576 242.992 179.744 246.802C179.807 248.249 179.315 249.796 179.964 251.167C182.272 256.054 191.126 254.424 194.982 253.131C197.109 252.42 199.187 252.387 201.411 252.408C201.724 252.408 202.032 252.399 202.345 252.399C205.099 252.359 207.772 252.034 210.428 251.324C212.744 250.703 215.006 249.878 217.244 249.028C218.725 248.457 220.222 247.95 221.672 247.323C226.161 245.382 228.606 242.243 226.644 237.352L226.542 237.112Z" fill="#BC560A"/>
<path d="M215.569 241.232C215.569 241.232 215.92 241.344 216.574 241.548L216.834 241.63C216.957 241.671 217.088 241.716 217.223 241.761C217.607 241.908 218.022 242.066 218.474 242.239C218.902 242.417 219.443 242.626 219.859 242.839C220.267 243.054 220.703 243.282 221.16 243.523C222.951 244.53 225.024 245.975 226.893 247.872C228.776 249.76 230.489 252.039 231.929 254.508C234.807 259.451 236.676 265.101 238.161 270.736C238.907 273.555 239.564 276.388 240.23 279.058C240.862 281.668 241.665 284.298 242.179 285.335L242.987 286.998C243.155 287.391 243.452 287.868 243.707 288.325C244.257 289.195 244.815 290.047 245.443 290.744C246.68 292.187 248.075 293.245 249.71 294.027C251.351 294.78 253.254 295.219 255.241 295.375C257.233 295.52 259.278 295.408 261.206 295.174C265.078 294.678 268.457 293.736 270.8 293.054C273.152 292.355 274.505 291.886 274.505 291.886L278.098 300.212C278.098 300.212 276.769 300.935 274.343 302.114C271.906 303.273 268.398 304.942 263.674 306.371C261.305 307.068 258.621 307.7 255.57 307.999C252.524 308.281 249.067 308.193 245.455 307.285C241.859 306.369 238.209 304.561 235.179 302.1C233.63 300.892 232.294 299.523 231.022 298.111C230.415 297.391 229.814 296.706 229.207 295.856L228.35 294.674L227.717 293.769C227.146 292.975 226.575 291.741 226.189 290.888C225.775 289.959 225.441 289.1 225.145 288.28C224.553 286.636 224.079 285.123 223.636 283.666C222.767 280.769 222.006 278.092 221.224 275.631C219.689 270.706 217.97 266.638 216.259 264.054C215.407 262.766 214.594 261.858 213.911 261.256C213.229 260.638 212.666 260.359 212.218 260.131C212.101 260.086 211.998 260.039 211.9 259.987L211.803 259.972L211.77 259.94L211.58 259.882L211.318 259.814C210.652 259.641 210.297 259.548 210.297 259.548L215.569 241.232Z" fill="#0B1823"/>
<path d="M276.677 289.548C279.685 288.351 283.094 289.815 284.288 292.824C285.487 295.832 284.018 299.239 281.012 300.437L279.169 301.172C276.163 302.365 272.756 300.9 271.56 297.89C270.364 294.885 271.83 291.476 274.836 290.28L276.677 289.548Z" fill="#F5875A"/>
<path d="M271.541 290.545C272.725 289.945 274.087 290.251 274.58 291.232C275.077 292.21 274.519 293.489 273.334 294.091C272.15 294.69 270.788 294.382 270.293 293.401C269.798 292.423 270.354 291.146 271.541 290.545Z" fill="#F5875A"/>
<path d="M195.703 259.548C195.703 259.548 195.349 259.641 194.681 259.814L194.419 259.882L194.233 259.94L194.198 259.972L194.101 259.987C194.004 260.039 193.899 260.086 193.784 260.131C193.334 260.359 192.77 260.638 192.088 261.256C191.406 261.858 190.595 262.766 189.745 264.054C188.032 266.641 186.311 270.706 184.778 275.631C183.992 278.094 183.236 280.769 182.367 283.666C181.923 285.123 181.451 286.638 180.856 288.28C180.56 289.1 180.225 289.959 179.814 290.888C179.425 291.741 178.856 292.975 178.284 293.769L177.652 294.674L176.795 295.858C176.189 296.709 175.587 297.391 174.981 298.113C173.709 299.523 172.37 300.892 170.823 302.105C167.793 304.561 164.143 306.369 160.546 307.285C156.932 308.193 153.477 308.281 150.43 307.999C147.38 307.7 144.696 307.068 142.327 306.371C137.605 304.942 134.095 303.273 131.656 302.114C129.232 300.935 127.903 300.212 127.903 300.212L131.498 291.886C131.498 291.886 132.849 292.355 135.202 293.054C137.546 293.736 140.922 294.678 144.796 295.174C146.723 295.408 148.767 295.52 150.759 295.375C152.749 295.219 154.65 294.78 156.292 294.027C157.927 293.245 159.323 292.187 160.558 290.744C161.187 290.05 161.744 289.195 162.295 288.328C162.548 287.868 162.847 287.394 163.015 286.998L163.821 285.338C164.336 284.298 165.138 281.668 165.773 279.061C166.438 276.388 167.093 273.558 167.841 270.736C169.328 265.101 171.195 259.454 174.07 254.508C175.513 252.042 177.224 249.763 179.108 247.877C180.975 245.975 183.047 244.53 184.839 243.523C185.298 243.282 185.732 243.054 186.14 242.839C186.559 242.626 187.096 242.417 187.526 242.239C187.977 242.066 188.396 241.908 188.776 241.761C188.911 241.716 189.041 241.671 189.164 241.63L189.423 241.548C190.082 241.344 190.432 241.232 190.432 241.232L195.703 259.548Z" fill="#0B1823"/>
<path d="M129.326 289.548C126.316 288.351 122.908 289.815 121.712 292.824C120.516 295.832 121.984 299.239 124.99 300.437L126.832 301.172C129.838 302.365 133.245 300.9 134.441 297.89C135.639 294.885 134.172 291.476 131.165 290.28L129.326 289.548Z" fill="#F5875A"/>
<path d="M134.461 290.545C133.278 289.945 131.915 290.251 131.42 291.232C130.923 292.21 131.483 293.489 132.669 294.091C133.853 294.69 135.212 294.382 135.71 293.401C136.205 292.423 135.646 291.146 134.461 290.545Z" fill="#F5875A"/>
<path d="M240.061 341.868C240.187 339.137 229.689 282.593 229.667 282.486C245.32 271.494 215.009 234.398 206 234.398C205.045 234.398 200.959 234.398 200.005 234.398C190.996 234.398 160.681 271.494 176.336 282.486C176.313 282.593 165.816 339.137 165.94 341.868C165.94 341.868 200.208 353.357 240.061 341.868Z" fill="#132636"/>
<path d="M197.003 223.71L196.247 236.857C196.247 239.692 199.274 241.993 202.998 241.993C206.732 241.993 209.755 239.692 209.755 236.857L208.999 223.71H197.003Z" fill="#F5875A"/>
<path d="M202.274 230.16C203.737 230.601 205.275 230.854 206.798 230.743C207.573 230.681 208.669 230.461 209.373 230.182L208.999 223.71H197.003L196.851 226.29C198.272 228.109 200.146 229.518 202.274 230.16Z" fill="#1E0C0E"/>
<path d="M213.322 212.299C213.39 211.869 213.518 211.465 213.893 211.158C214.43 210.717 215.197 210.721 215.716 211.184C216.872 212.204 216.6 214.713 216.105 215.971C215.666 217.096 213.71 218.752 212.689 217.284L212.64 217.127C212.767 216.294 212.89 215.457 213.013 214.621C213.099 214.05 213.189 213.479 213.249 212.908C213.276 212.702 213.288 212.496 213.322 212.299Z" fill="#F5875A"/>
<path d="M192.68 212.299C192.613 211.869 192.484 211.465 192.109 211.158C191.576 210.717 190.801 210.721 190.285 211.184C189.129 212.204 189.406 214.713 189.896 215.971C190.337 217.096 192.291 218.752 193.31 217.284L193.365 217.127C193.239 216.294 193.108 215.457 192.988 214.621C192.907 214.05 192.81 213.479 192.751 212.908C192.73 212.702 192.713 212.496 192.68 212.299Z" fill="#F5875A"/>
<path d="M202.998 196.219C197.121 196.219 192.359 201.338 192.359 207.652V215.758C192.359 222.073 197.121 228.58 202.998 228.58C208.88 228.58 213.641 222.073 213.641 215.758V207.652C213.641 201.338 208.88 196.219 202.998 196.219Z" fill="#F5875A"/>
<path d="M192.3 214.348C192.3 214.348 194.049 212.716 193.923 204.989L192.3 202.872C192.3 202.872 190.846 207.455 192.3 214.348Z" fill="#382750"/>
<path d="M213.703 214.348C213.703 214.348 211.955 212.716 212.075 204.989L213.703 202.872C213.703 202.872 215.158 207.455 213.703 214.348Z" fill="#382750"/>
<path d="M193.864 208.09C193.864 208.09 194.862 206.443 196.25 204.778C197.633 203.115 201.681 202.246 202.998 199.996C202.998 199.996 205.408 201.592 208.212 202.03C211.017 202.474 211.152 205.664 212.109 207.533L213.703 202.872C214.409 201.756 213.703 199.631 213.137 198.634C212.033 196.679 210.844 194.611 208.686 193.68C206.784 192.856 204.505 191.854 202.498 192.107C199.921 192.429 196.69 193.665 194.845 195.658C191.076 199.721 191.654 207.362 191.654 207.362L193.864 208.09Z" fill="#382750"/>
<path d="M198.116 213.036C198.116 212.365 197.574 211.818 196.896 211.816C196.223 211.818 195.674 212.361 195.674 213.036C195.674 213.223 195.826 213.375 196.012 213.375C196.199 213.375 196.351 213.223 196.351 213.036C196.351 212.74 196.595 212.496 196.896 212.496C197.2 212.496 197.438 212.735 197.438 213.036C197.438 213.223 197.59 213.375 197.777 213.375C197.964 213.375 198.116 213.223 198.116 213.036Z" fill="#1E0C0E"/>
<path d="M194.956 209.302L195.02 209.151L195.057 209.073L195.138 208.955L195.356 208.703C195.441 208.618 195.536 208.537 195.65 208.464C195.759 208.384 195.885 208.326 196.012 208.262C196.152 208.215 196.292 208.163 196.439 208.135C196.591 208.101 196.744 208.097 196.896 208.089C197.201 208.092 197.511 208.149 197.777 208.258C197.91 208.322 198.04 208.376 198.149 208.457C198.258 208.53 198.357 208.611 198.438 208.696L198.642 208.935L198.77 209.139C198.829 209.26 198.852 209.328 198.852 209.328C198.94 209.556 198.829 209.81 198.602 209.897C198.474 209.945 198.331 209.93 198.22 209.866L198.109 209.8L198.005 209.726C197.943 209.679 197.848 209.624 197.742 209.57L197.564 209.492L197.361 209.428L197.135 209.386L196.896 209.366C196.735 209.366 196.576 209.388 196.43 209.421L196.221 209.485L196.048 209.565L195.911 209.634L195.856 209.661L195.792 209.714L195.666 209.823C195.477 209.987 195.191 209.961 195.027 209.772C194.913 209.637 194.895 209.456 194.956 209.302Z" fill="#382750"/>
<path d="M207.156 209.302L207.218 209.151L207.257 209.073L207.338 208.955L207.556 208.703C207.639 208.618 207.734 208.537 207.848 208.464C207.956 208.384 208.082 208.326 208.215 208.262C208.347 208.215 208.489 208.163 208.639 208.135C208.788 208.101 208.94 208.097 209.093 208.089C209.4 208.092 209.707 208.149 209.977 208.258C210.107 208.322 210.238 208.376 210.342 208.457C210.458 208.53 210.555 208.611 210.633 208.696L210.839 208.935L210.967 209.139C211.022 209.26 211.05 209.328 211.05 209.328C211.14 209.556 211.026 209.81 210.799 209.897C210.669 209.945 210.531 209.93 210.42 209.866L210.309 209.8L210.202 209.726C210.145 209.679 210.051 209.624 209.942 209.57L209.764 209.492L209.558 209.428L209.333 209.386L209.093 209.366C208.935 209.366 208.776 209.388 208.627 209.421L208.421 209.485L208.243 209.565L208.111 209.634L208.053 209.661L207.988 209.714L207.862 209.823C207.672 209.987 207.388 209.961 207.227 209.772C207.111 209.637 207.092 209.456 207.156 209.302Z" fill="#382750"/>
<path d="M210.315 213.036C210.315 212.361 209.768 211.818 209.093 211.816C208.418 211.816 207.873 212.361 207.871 213.036C207.871 213.223 208.025 213.375 208.212 213.375C208.399 213.375 208.551 213.223 208.551 213.036C208.551 212.737 208.792 212.496 209.093 212.496C209.394 212.496 209.638 212.737 209.638 213.036C209.638 213.223 209.79 213.375 209.977 213.375C210.164 213.375 210.315 213.223 210.315 213.036Z" fill="#1E0C0E"/>
<path d="M203.081 218.172L202.955 218.129L201.752 217.229L201.69 216.973L203.14 214.097L203.415 214.007L203.505 214.282L202.134 217.001L203.2 217.8L203.245 218.087L203.081 218.172Z" fill="#1E0C0E"/>
<path d="M202.998 222.577C201.982 222.577 201.065 222.094 200.556 221.282L200.623 221L200.904 221.064C201.34 221.756 202.125 222.168 202.998 222.168C203.88 222.168 204.662 221.756 205.1 221.064L205.382 221L205.443 221.282C204.931 222.094 204.02 222.577 202.998 222.577Z" fill="#1E0C0E"/>
</svg>
