<svg width="496" height="461" viewBox="0 0 496 461" fill="none" xmlns="http://www.w3.org/2000/svg">
<path d="M111.014 451.891C111.014 451.891 65.2441 448.478 16.2772 288.354C-32.6896 128.23 41.7549 125.228 70.0294 132.499C98.3013 139.773 75.8155 28.2682 149.093 14.1968C222.374 0.122766 243.098 83.4268 243.098 83.4268C243.098 83.4268 276.584 40.3855 330.268 45.0681C383.949 49.7507 373.578 129.207 373.578 129.207C373.578 129.207 424.343 120.216 454.351 161.732C484.358 203.249 428.96 274.999 428.96 274.999C428.96 274.999 467.556 265.439 463.263 317.442C458.967 369.443 384.202 445.362 384.202 445.362L111.014 451.891Z" fill="#C9E9CA"/>
<path d="M428.96 274.999C428.96 274.999 452.165 244.933 460.401 212.469C455.897 210.278 449.613 213.83 446.308 216.593C440.311 221.605 436.292 228.455 430.841 233.983C429.548 235.294 427.267 233.956 427.76 232.189C428.953 227.918 430.538 223.764 431.731 219.49C432.998 214.952 434.528 209.685 433.688 204.937C432.534 198.395 425.524 201.013 422.024 203.825C415.964 208.692 411.529 215.661 407.483 222.189C402.882 229.616 398.774 237.333 394.652 245.033C391.982 250.022 389.519 255.597 385.819 259.94C384.716 261.235 382.793 260.087 382.701 258.647C381.845 245.568 384.508 232.497 386.617 219.656C387.937 211.631 388.969 203.604 390.436 195.603C391.792 188.221 393.059 180.802 393.723 173.32C394.047 169.709 394.247 166.067 394.073 162.443C393.949 159.873 393.728 157.036 392.561 154.695C388.008 145.572 374.363 164.932 372.037 168.256C364.853 178.532 358.796 189.614 353.16 200.799C348.856 209.34 345.035 218.042 341.601 226.969C337.105 238.647 332.994 250.477 327.851 261.894C327.076 263.619 324.335 262.708 324.382 260.956C324.73 247.759 327.053 234.715 329.441 221.763C332.847 203.32 335.312 184.753 338.022 166.199C339.225 157.953 340.181 149.575 339.828 141.229C339.56 134.882 340.4 123.468 334.611 122.683C328.822 121.901 325.746 133.392 322.794 139.446C316.679 151.985 313.058 165.519 308.249 178.569C303.827 190.562 298.059 202.774 295.202 215.445C294.775 220.396 294.185 225.342 293.374 230.277C293.034 232.35 289.787 231.778 289.803 229.795C289.837 224.878 290.537 220.019 291.625 215.234C292.858 201.484 292.789 187.615 292.455 173.826C292.152 161.456 291.525 149.085 291.541 136.71C291.551 129.091 292.041 120.245 288.915 113.105C287.817 110.59 285.992 108.42 283.024 108.617C278.436 108.925 274.017 112.784 270.696 115.596C261.03 123.782 251.52 134.88 247.665 147.147C247.099 148.954 244.331 148.64 244.339 146.697C244.378 134.798 245.842 122.976 245.168 111.059C244.789 104.348 244.204 90.6139 235.487 89.0179C232.363 88.4438 229.185 89.8475 226.559 91.4013C222.751 93.6583 219.432 96.6975 216.351 99.8473C203.818 112.657 193.755 128.414 185.106 144.05C184.534 145.08 182.875 145.122 182.314 144.05C180.149 139.902 179.083 135.125 177.747 130.669C176.088 125.12 174.453 119.428 171.777 114.266C170.458 111.72 168.156 107.435 164.677 107.861C162.725 108.101 161.121 110.219 160.079 111.894C155.72 118.907 153.984 127.756 152.336 135.728C148.954 152.085 147.669 168.674 145.317 185.177C145.167 186.233 143.503 186.646 142.847 185.827C137.095 178.637 133.374 169.823 129.816 161.395C127.293 155.419 125.244 149.251 122.723 143.27C120.314 137.555 117.659 131.432 113.511 126.734C111.388 124.332 108.57 122.043 105.302 123.537C102.176 124.964 99.874 128.172 98.0305 130.942C95.2494 135.122 93.0214 139.665 90.9987 144.25C86.3451 154.793 82.7766 165.843 79.7426 176.949C77.6331 184.676 75.1628 192.888 74.7625 200.941C74.7124 201.942 73.3377 202.759 72.5924 201.839C67.6622 195.787 62.3976 189.97 56.8486 184.481C53.8858 181.547 50.8202 178.666 47.494 176.141C45.3318 174.503 42.6692 172.411 39.8907 172.022C37.4625 171.682 36.2458 174.268 35.5979 176.222C34.3865 179.865 34.2653 183.855 34.2759 187.66C34.2969 196.222 35.5005 204.731 36.5961 213.206C37.1728 217.668 37.5995 222.137 38.3079 226.582C39.4825 233.927 40.9995 241.209 42.2689 248.536C42.4374 249.508 41.1522 250.627 40.3727 249.64C31.292 238.099 17.2469 215.097 12.056 215.558C6.86252 216.019 9.38552 231.644 10.2546 239.079C11.1263 246.521 12.6933 253.867 13.5177 261.315C14.6738 271.807 16.6517 282.273 18.6585 292.631C19.2748 295.818 19.9305 298.996 20.6179 302.167C67.9151 448.673 111.014 451.891 111.014 451.891L384.202 445.362C384.202 445.362 458.968 369.443 463.263 317.442C467.559 265.439 428.96 274.999 428.96 274.999Z" fill="#D9EFDA"/>
<path d="M312.127 276.013C308.84 268.388 303.544 261.08 296.27 256.845C289.583 252.955 281.822 251.149 275.425 246.727C272.399 244.636 269.728 241.978 268.08 238.652C265.831 234.117 264.972 228.747 264.282 223.78C262.757 212.822 263.023 201.742 262.528 190.718C261.717 172.598 257.408 153.065 243.553 140.231C236.982 134.142 228.299 130.555 219.305 130.584C210.093 130.613 201.362 134.39 194.064 139.826C186.595 145.388 180.464 152.836 176.106 161.039C174.023 164.964 172.54 169.032 171.284 173.281C170.528 175.838 169.756 178.777 167.607 180.541C165.142 182.564 161.542 182.806 158.516 183.193C153.947 183.781 149.274 184.165 144.911 185.738C135.767 189.035 131.039 199.324 131.024 208.574C131.005 217.826 135.05 226.64 139.477 234.554C143.715 242.131 148.695 249.268 152.883 256.872C153.536 256.948 154.186 257.03 154.837 257.116C159.393 257.741 163.559 259.239 166.991 262.4C170.896 265.994 173.722 271.048 175.903 275.842C180.514 285.986 182.55 297.066 183.754 308.077C184.976 319.294 185.215 330.581 185.671 341.845C186.193 354.763 187.209 367.642 187.515 380.573C187.868 395.561 187.789 410.556 187.654 425.547C187.58 433.719 187.491 441.891 187.438 450.063L236.11 448.902C236.118 447.588 236.126 446.274 236.126 444.959C236.118 418.12 234.404 391.326 232.294 364.581C230.137 337.231 226.648 310.034 220.416 283.292C217.675 271.514 214.412 259.89 210.82 248.347C209.555 244.283 208.291 240.219 207.072 236.14C205.136 235.526 203.272 234.51 201.439 233.648C199.632 232.798 197.836 231.929 196.034 231.065C189.677 228.012 183.317 224.957 177.178 221.478C170.854 217.897 164.887 213.846 159.301 209.193C158.239 208.308 159.746 206.875 160.799 207.694C164.039 210.214 167.436 212.485 170.873 214.726C176.696 218.523 182.8 221.863 188.971 225.055C192.071 226.656 195.178 228.239 198.289 229.822C199.872 230.628 201.449 231.439 203.016 232.274C204.164 232.885 205.376 233.485 206.495 234.188C204.762 228.299 203.135 222.384 201.757 216.398C199.287 205.64 197.507 194.594 197.773 183.523C198.015 173.47 199.937 162.907 205.834 154.553C206.163 154.087 206.837 154.482 206.595 154.998C205.479 157.387 204.462 159.87 203.622 162.369C196.582 183.286 201.96 206.443 207.912 226.946C210.827 236.99 214.175 246.898 217.219 256.903C221.109 269.681 224.335 282.663 226.993 295.754C232.381 322.28 235.136 349.159 237.135 376.122C238.928 400.304 240.213 424.551 240.066 448.807L273.581 448.006C274.095 447.272 274.606 446.537 275.122 445.805C281.466 436.769 287.863 427.746 293.352 418.154C298.622 408.942 304.347 398.547 303.61 387.589C303.42 384.784 302.78 382.026 301.916 379.359C301.15 376.991 299.978 374.779 299.241 372.406C297.726 367.541 299.08 362.651 301.387 358.271C303.849 353.602 307.113 349.427 309.491 344.7C311.945 339.823 313.486 334.516 314.618 329.191C318.274 311.977 319.238 292.51 312.127 276.013Z" fill="#B3E0B4"/>
<path d="M433.885 274.359C429.968 276.816 426.289 279.695 422.342 282.086C421.13 282.821 419.811 281.849 419.708 280.574C419.118 273.313 421.004 266.092 422.989 259.171C426.434 247.167 431.725 233.161 424.946 221.326C421.875 215.966 416.858 212.424 410.561 212.49C404.678 212.55 398.984 215.332 394.499 218.992C393.693 219.653 392.661 219.727 391.865 218.992C391.228 218.405 390.635 217.776 390.069 217.117C386.954 213.48 384.52 209.266 382.137 205.129C379.269 200.151 376.524 195.105 373.548 190.191C370.657 185.416 367.586 180.678 363.809 176.546C360.825 173.281 357.225 170.17 352.961 169.096C348.682 168.016 344.313 169.586 340.605 172.311C335.237 176.259 330.663 182.032 328.716 188.445C324.521 202.282 331.727 216.909 339.117 228.276C346.967 240.348 356.77 251.086 366.841 261.33C367.762 262.27 367.457 263.637 366.451 264.343C364.66 265.602 362.859 266.845 361.065 268.104C354.997 272.365 348.761 276.992 345.271 283.719C342.148 289.734 341.31 297.34 342.472 303.976C343.704 311.011 345.948 317.856 347.763 324.753C349.501 331.361 351.508 338.514 351.042 345.416C350.87 347.939 350.336 350.757 348.598 352.714C346.391 355.206 341.856 355.408 338.837 356.222C329.915 358.627 324.121 366.638 321.498 375.113C318.606 384.46 318.432 394.46 318.403 404.162C318.377 413.817 317.99 423.408 316.591 432.976C315.899 437.712 314.966 442.413 313.763 447.045L337.21 446.484C343.844 433.066 350.944 419.871 357.133 406.237C364.012 391.075 368.953 375.19 373.322 359.146C375.237 352.119 376.954 345.011 378.344 337.842C377.459 334.993 376.414 332.235 374.963 329.588C368.289 317.413 357.42 308.169 347.81 298.388C346.738 297.298 348.371 295.678 349.482 296.716C352.229 299.278 355.055 301.756 357.773 304.348C363.106 309.436 368.231 314.735 372.532 320.745C374.599 323.634 376.472 326.676 377.918 329.928C378.381 330.974 378.818 332.04 379.203 333.123C380.509 325.541 381.42 317.895 381.771 310.213C382.469 294.83 380.917 279.344 377.054 264.435C375.137 257.03 372.674 249.748 369.611 242.737C366.488 235.581 362.724 228.75 358.879 221.963C357.815 220.085 360.475 218.666 361.7 220.314C362.859 221.871 364.038 223.43 365.052 225.084C373.301 238.534 379.087 253.535 382.526 268.912C383.169 271.783 383.727 274.672 384.207 277.574C384.531 275.041 385.139 272.531 385.905 270.127C388.494 262.004 393.024 254.554 397.928 247.641C402.587 241.07 407.87 235.01 413.053 228.858C414.009 227.725 416.002 229.274 415.104 230.441C412.508 233.825 409.903 237.206 407.264 240.556C402.142 247.059 397.172 253.777 393.164 261.035C389.295 268.035 386.669 275.473 385.9 283.455C385.85 283.961 386.635 305.296 385.771 315.767C384.365 332.833 380.578 349.53 375.74 365.922C373.314 374.139 370.854 382.382 367.834 390.401C367.346 391.689 366.833 392.964 366.324 394.244C367.776 392.874 369.358 391.629 370.878 390.383C373.772 388.005 376.482 385.534 379.047 382.801C387.889 373.372 395.131 362.588 401.412 351.324C407.664 340.112 413.116 328.459 418.697 316.905C419.371 315.512 421.372 316.731 420.756 318.108C417.806 324.703 414.875 331.303 411.681 337.782C405.95 349.401 399.621 360.818 391.815 371.189C387.904 376.388 383.369 382.603 378.66 387.099C376.269 389.382 373.254 391.866 370.58 393.809C368.5 395.324 366.493 396.909 364.51 398.534C362.271 403.98 360.62 407.623 358 412.89C352.329 424.296 346.025 435.368 339.706 446.426L384.201 445.362C384.201 445.362 458.967 369.443 463.263 317.442C466.592 277.121 444.143 273.811 433.885 274.359Z" fill="#B3E0B4"/>
<path d="M183.001 361.9C182.712 356.206 182.246 350.523 181.99 344.829C181.753 339.533 181.598 334.231 181.384 328.935C180.931 317.835 180.281 306.673 178.129 295.752C177.089 290.471 175.698 285.238 173.715 280.229C171.832 275.478 169.328 270.566 165.944 266.7C162.867 263.184 159.043 261.475 154.485 260.809C150.018 260.156 145.504 259.998 141.227 258.396C136.444 256.606 133.052 253.561 130.858 248.931C128.68 244.335 127.659 239.337 125.889 234.591C123.029 226.925 116.84 220.288 110.056 215.882C103.577 211.673 95.8498 209.04 88.0569 209.669C80.1376 210.309 73.3982 214.884 69.2318 221.555C62.6925 232.023 60.9464 244.941 62.1368 257.03C63.3773 269.647 67.383 281.796 70.1325 294.121C71.4835 300.173 72.7082 306.37 72.8899 312.583C72.9689 315.322 73.2191 318.87 70.9858 320.9C70.1193 321.688 69.029 322.167 67.9729 322.638C66.3137 323.378 64.6783 324.155 63.1007 325.059C58.7895 327.529 55.4316 331.182 53.3247 335.683C49.1083 344.679 50.1117 355.458 51.9184 364.921C56.1058 386.867 66.6614 406.956 79.6873 424.931C83.9195 430.775 88.4704 436.447 93.3347 441.838C104.327 451.393 111.014 451.891 111.014 451.891L158.619 450.753C158.427 449.597 158.245 448.441 158.043 447.287C154.951 429.529 150.95 411.939 145.973 394.618C142.952 394.475 139.929 393.849 136.982 393.269C134.058 392.695 131.188 391.916 128.378 390.92C118.72 387.496 110.153 381.808 102.671 374.863C95.0281 367.768 88.6284 359.44 82.4842 351.05C81.7546 350.054 83.4402 348.769 84.1881 349.733C87.7698 354.347 91.4411 358.895 95.3072 363.275C101.815 370.649 109.023 377.56 117.424 382.743C121.672 385.361 126.194 387.51 130.932 389.077C135.662 390.641 140.55 391.547 145.401 392.621C140.174 374.721 133.935 357.11 126.771 339.894C119.671 322.828 111.278 306.339 104.272 289.239C100.754 280.65 97.6011 271.909 95.3046 262.916C93.0792 254.214 91.4885 245.149 91.6834 236.142C91.6913 235.784 92.1969 235.797 92.2312 236.142C92.4445 238.376 92.6684 240.617 92.9502 242.845C95.2993 261.391 102.178 279.036 109.916 295.928C117.627 312.77 126.005 329.264 132.971 346.444C133.134 346.846 133.292 347.257 133.455 347.66C134.345 345.403 135.372 343.191 136.326 340.958C137.443 338.34 138.491 335.696 139.46 333.017C146.21 314.361 147.59 294.501 147.166 274.804C147.129 273.063 149.747 273.095 149.849 274.804C150.208 280.677 150.413 286.555 150.255 292.436C149.989 302.262 148.73 312.041 146.22 321.553C144.951 326.362 143.352 331.071 141.448 335.664C139.489 340.389 137.25 345.311 134.148 349.406C140.695 365.856 146.363 382.648 151.079 399.716C155.712 416.485 159.438 433.5 162.27 450.666L183.523 450.158C183.612 435.465 183.884 420.77 183.91 406.082C183.936 391.352 183.752 376.614 183.001 361.9Z" fill="#B3E0B4"/>
<path d="M225.668 66.7058C223.429 65.2837 219.819 66.7664 217.578 67.5723C214.462 68.689 211.549 70.227 208.913 72.2259C204.71 75.4126 201.494 79.5289 199.298 84.2194C196.919 75.2098 193.288 66.5241 188.452 58.5048V58.5021C186.964 47.2223 181.039 37.4885 171.56 31.1441C169.92 30.0459 167.507 31.4865 167.591 33.4195C168.081 44.5677 174.162 54.6307 183.909 60.1139C183.946 60.1323 183.98 60.1402 184.015 60.1587C184.431 60.5564 184.96 60.8092 185.505 60.9251C187.778 64.7464 189.774 68.7179 191.478 72.8079C180.733 70.0927 167.178 73.9009 160.425 82.684C159.575 83.7875 160.236 85.6811 161.371 86.2921C167.046 89.3471 173.156 89.0758 179.308 87.7853C185.521 86.4843 189.772 84.2536 194.107 79.9161C196.754 88.0303 198.313 96.4868 198.734 105.012C191.815 98.5726 181.421 98.3777 172.095 99.2442C170.275 99.4154 168.59 101.412 169.819 103.213C172.706 107.445 176.825 110.01 181.544 111.838C186.701 113.832 193.114 115.483 198.539 113.734C198.623 113.708 198.694 113.671 198.773 113.64C198.563 118.791 197.936 123.929 196.872 128.999C196.659 130.018 197.312 131.014 198.328 131.23C198.46 131.256 198.589 131.269 198.718 131.269C199.59 131.269 200.372 130.661 200.559 129.773C203.153 117.403 203.272 104.619 201.07 92.2493C201.373 92.2994 201.694 92.3073 202.042 92.2414C208.955 90.9325 214.707 86.6713 219.487 81.6753C221.876 79.1787 230.638 69.8662 225.668 66.7058Z" fill="#D9EFDA"/>
<path d="M155.551 92.518C149.491 91.5541 144.427 94.0718 139.209 96.9056C136.997 98.1091 134.961 99.4049 133.186 100.938C135.825 89.1259 139.86 77.6354 145.277 66.8007C145.577 66.7401 145.886 66.619 146.196 66.4109C155.743 60.0481 156.639 48.5576 154.655 38.1627C154.284 36.2165 151.535 35.6213 150.247 36.9987C142.941 44.8258 138.116 54.6702 140.437 65.555C140.55 66.087 140.776 66.4952 141.071 66.7928C138.788 71.5122 136.763 76.3476 134.985 81.2724C132.775 73.5902 127.803 67.0166 120.99 62.6185C119.273 61.5097 117.045 62.9714 117.021 64.8966C116.903 75.2414 122.905 84.9411 132.351 89.2391C130.513 95.3649 129.057 101.604 127.98 107.909C127.927 108.027 127.872 108.141 127.822 108.262C127.598 108.802 127.569 109.286 127.674 109.708C127.161 112.926 126.752 116.163 126.439 119.41C121.472 110.761 113.671 105.365 105.573 99.4681C103.69 98.0986 101.051 100.366 101.699 102.447C105.349 114.129 114.285 123.213 125.881 127.103C124.832 148.914 128.259 170.942 136.268 191.284C136.56 192.024 137.268 192.477 138.022 192.477C138.251 192.477 138.482 192.435 138.709 192.345C139.678 191.966 140.155 190.873 139.773 189.904C130.252 165.722 127.374 139.101 130.937 113.392C136.61 114.222 142.846 111.817 147.532 108.733C152.269 105.615 155.551 101.088 157.392 95.76C157.821 94.5195 156.897 92.7313 155.551 92.518Z" fill="#D9EFDA"/>
<path d="M80.056 153.779C80.1719 153.686 80.2877 153.597 80.3984 153.478C88.0121 145.348 93.6692 134.94 90.5615 123.558C89.9083 121.169 87.0456 121.214 85.742 122.928C80.7987 129.439 75.9897 136.505 74.9336 144.419C73.1348 140.779 71.1254 137.245 68.9237 133.832C68.8157 133.539 68.6366 133.252 68.3812 132.983C65.4104 128.469 62.0921 124.185 58.4603 120.184C65.7028 115.222 67.5647 104.001 67.2197 95.8732C67.1196 93.5056 64.4492 92.5074 62.7189 94.0086C57.2462 98.757 51.131 105.312 51.0256 112.781C48.3867 110.419 45.6241 108.193 42.7402 106.121C42.706 106.049 42.6823 105.981 42.6402 105.905C38.6845 98.412 31.8344 92.3152 23.5438 90.548C20.8944 89.9818 19.2563 92.942 20.976 94.954C25.7165 100.495 30.6862 107.298 38.4448 108.077C38.7213 108.162 38.9952 108.23 39.2691 108.293C47.1358 113.748 54.1096 120.374 60.0247 127.843C57.6307 126.981 55.0893 126.478 52.4504 126.323C46.6011 125.981 38.8109 126.974 33.9097 130.392C31.9266 131.775 32.4165 134.337 34.5392 135.212C45.0605 139.546 55.2973 141.854 66.2874 137.629C66.456 137.563 66.6087 137.484 66.7483 137.397C77.475 154.7 83.0557 175.203 81.8626 195.629C81.8021 196.667 82.5948 197.56 83.6324 197.62C83.6693 197.623 83.7062 197.623 83.743 197.623C84.7333 197.623 85.5629 196.851 85.6235 195.848C86.4451 181.766 84.1539 167.652 79.2685 154.495C79.5714 154.308 79.8453 154.068 80.056 153.779Z" fill="#D9EFDA"/>
<path d="M328.891 93.977C320.964 93.6057 313.448 96.7449 308.107 102.326C309.616 94.8092 310.519 87.1902 310.785 79.5764C313.519 76.8664 315.41 73.5006 316 69.6555C316.471 66.5795 316.64 60.9304 314.662 58.3573C313.743 57.1617 312.307 56.843 311.112 57.8991C305.26 63.061 304.467 70.8565 306.479 78.0463C306.511 78.1595 306.556 78.2569 306.6 78.357C306.632 78.7521 306.785 79.1287 307.019 79.4579C306.972 80.8063 306.906 82.1521 306.819 83.5005C305.918 82.1126 304.815 80.8326 303.532 79.658C300.988 77.3273 296.535 73.922 292.884 73.972C291.931 73.9852 290.925 74.6621 290.706 75.6312C289.858 79.4184 293.767 83.3714 296.021 85.9497C298.815 89.1443 301.831 91.9834 305.789 93.5109C302.882 114.285 295.207 134.572 283.546 151.88C282.964 152.744 283.193 153.913 284.054 154.495C284.378 154.714 284.744 154.816 285.105 154.816C285.71 154.816 286.306 154.524 286.669 153.987C290.749 147.932 294.346 141.524 297.446 134.864C300.156 136.531 303.177 136.939 306.442 136.252C309.866 135.533 314.456 133.903 316.785 131.148C317.941 129.781 317.44 127.998 315.789 127.369C312.379 126.07 308.776 124.975 305.086 125.48C303.451 125.704 302.123 126.265 300.846 126.945C302.755 122.096 304.404 117.142 305.784 112.117C305.797 112.117 305.813 112.12 305.826 112.12C316.516 112.275 324.991 105.839 330.845 97.377C331.875 95.8864 330.477 94.0508 328.891 93.977Z" fill="#D9EFDA"/>
<path d="M492.396 112.747C483.9 114.066 476.633 118.857 471.811 125.928C471.722 126.062 471.653 126.194 471.595 126.323C461.814 131.156 451.949 136.104 442.254 141.43C444.846 136.652 445.757 131.064 444.814 125.48C444.524 123.75 442.149 123.379 441.037 124.482C434.464 131.016 428.486 138.691 430.071 148.417C422.086 153.202 414.301 158.332 406.879 163.976C398.56 170.305 388.31 179.088 382.853 190.926C382.418 191.871 382.829 192.988 383.775 193.425C384.03 193.544 384.299 193.599 384.562 193.599C385.276 193.599 385.955 193.193 386.274 192.503C391.381 181.418 401.188 173.038 409.16 166.976C410.68 165.817 412.223 164.687 413.774 163.57C417.556 169.288 422.168 174.534 428.62 177.247C435.409 180.099 443.674 180.312 450.727 178.287C452.351 177.818 452.939 175.719 451.722 174.508C442.686 165.509 430.6 161.974 418.283 160.415C429.263 152.91 440.885 146.297 452.665 140.121C456.168 149.815 469.575 155.39 478.996 151.848C480.413 151.316 481.045 149.92 480.347 148.53C477.979 143.821 473.75 140.937 469.225 138.493C466.876 137.224 464.492 135.967 462.009 135.317C465.891 133.355 469.778 131.422 473.647 129.512C473.815 129.541 474 129.557 474.197 129.547C478.975 129.331 482.725 129.104 486.61 126.094C490.089 123.397 493.151 120.118 494.948 116.065C495.782 114.177 494.418 112.431 492.396 112.747Z" fill="#D9EFDA"/>
<path d="M440.222 79.5948C432.165 73.9036 418.062 77.1034 412.289 84.7962C412.229 84.8778 412.181 84.9595 412.134 85.0411C406.833 87.0716 401.66 89.4393 396.643 92.115C399.213 86.8715 400.596 81.2593 399.206 75.2362C398.853 73.6955 396.49 72.9028 395.429 74.238C390.17 80.8668 386.48 88.507 388.152 97.0294C384.413 99.3733 380.781 101.891 377.267 104.572C376.88 104.727 376.546 104.993 376.29 105.323C370.362 109.931 364.795 115.004 359.646 120.469C361.35 115.338 362.577 110.108 362.161 104.609C361.724 98.8782 361.271 91.317 357.478 86.7477C356.536 85.61 354.608 86.0419 353.931 87.206C346.631 99.7367 346.338 115.186 353.025 128.014C342.456 140.929 334.145 155.646 328.917 171.445C328.59 172.432 329.128 173.496 330.115 173.823C330.31 173.889 330.51 173.92 330.705 173.92C331.495 173.92 332.233 173.42 332.493 172.627C335.593 163.26 339.804 154.282 344.948 145.851C357.062 155.949 376.298 151.94 389.435 146.046C391.357 145.185 390.549 142.486 388.895 141.917C382.192 139.607 375.748 137.592 368.7 136.631C361.856 135.696 355.909 136.639 349.614 138.712C357.426 127.548 366.923 117.527 377.628 109.06C384.95 113.073 392.819 115.078 401.044 116.442C404.981 117.095 408.987 117.809 412.987 117.774C417.47 117.738 421.892 116.758 426.245 115.786C428.291 115.333 428.268 112.691 426.785 111.656C420.066 106.963 412.239 104.49 404.307 102.726C398.737 101.488 393.28 100.996 387.865 101.683C395.845 96.4631 404.346 92.0729 413.219 88.6571C422.542 93.6557 432.144 88.6624 440.222 83.4978C441.731 82.5313 441.617 80.5798 440.222 79.5948Z" fill="#D9EFDA"/>
<path d="M285.713 33.5223C273.237 37.9415 261.986 44.6783 252.247 53.6484C247.601 57.9281 254.541 64.8387 259.174 60.5722C267.617 52.7951 277.49 46.801 288.317 42.9665C294.216 40.878 291.678 31.4102 285.713 33.5223Z" fill="#C9E9CA"/>
<path d="M310.678 27.7362C307.781 27.9812 304.884 28.2261 301.987 28.4737C299.351 28.6975 297.089 30.5621 297.089 33.3695C297.089 35.8452 299.335 38.4919 301.987 38.2681C304.884 38.0205 307.781 37.7756 310.678 37.528C313.315 37.3068 315.574 35.4396 315.574 32.6321C315.574 30.1565 313.328 27.5097 310.678 27.7362Z" fill="#C9E9CA"/>
<path d="M138.014 0.178029C113.711 6.46184 93.8925 24.5232 84.846 47.8413C82.5653 53.7221 92.0306 56.2688 94.2902 50.4459C102.088 30.3435 119.831 14.9974 140.616 9.62219C146.715 8.04465 144.129 -1.40478 138.014 0.178029Z" fill="#C9E9CA"/>
<path d="M394.465 449.091C394.465 454.646 329.741 459.147 249.898 459.147C170.055 459.147 105.328 454.646 105.328 449.091C105.328 443.537 170.055 439.034 249.898 439.034C329.741 439.034 394.465 443.537 394.465 449.091Z" fill="#847895"/>
<path d="M202.399 364.671C202.399 364.671 201.762 371.034 199.423 379.424C197.087 387.81 293.965 378.932 293.965 378.932C293.965 378.932 292.477 363.525 292.69 359.203C292.901 354.879 202.399 364.671 202.399 364.671Z" fill="#A54B22"/>
<path d="M260.53 234.199C260.53 234.199 281.191 234.525 283.738 240.68C286.287 246.832 280.277 250.567 285.736 252.518C295.71 256.084 302.46 258.007 308.483 262.176C314.506 266.347 326.278 276.763 328.085 280.932C329.889 285.104 327.571 287.969 330.353 289.199C333.134 290.432 335.915 293.213 335.451 295.067C334.988 296.918 349.467 305.981 352.799 318.253C356.13 330.526 318.27 331.211 314.927 331.672C311.585 332.138 297.917 306.881 296.063 308.504C294.614 309.77 298.396 341.664 299.789 356.862C300.182 361.129 300.345 361.208 300.195 361.795C299.861 363.08 297.493 365.935 293.571 365.511C289.308 365.053 283.258 364.118 276.137 363.878C262.468 363.415 245.115 362.448 230.391 364.671C215.666 366.891 202.23 369.901 200.376 369.206C198.522 368.513 192.749 362.996 194.121 360.633C195.49 358.271 201.534 340.71 202.23 337.002C202.922 333.294 201.534 313.602 201.071 310.126C200.607 306.65 190.276 323.929 189.533 330.465C188.79 337.002 149.094 326.668 149.094 326.668C149.094 326.668 154.501 310.758 161.451 301.754C168.401 292.749 172.109 290.869 174.658 284.396C177.205 277.922 176.281 276.3 179.291 273.75C182.304 271.201 180.913 270.277 182.304 267.496C183.694 264.714 198.985 258.101 206.399 255.152C213.812 252.202 221.258 251.973 222.401 251.046C223.544 250.119 221.408 242.674 228.152 240.256C234.897 237.838 249.553 234.731 260.53 234.199Z" fill="#F8AE44"/>
<path d="M300.195 361.795C300.345 361.208 300.182 361.129 299.789 356.862C299.681 355.68 299.557 354.394 299.423 353.03C297.527 353.254 295.631 353.491 293.74 353.741C290.919 354.113 288.112 354.589 285.299 355.019C282.863 355.39 280.39 355.89 277.925 355.98C275.9 356.051 273.795 355.885 271.82 356.414C270.912 356.654 270.158 357.091 269.445 357.694C269.292 357.823 269.142 357.953 268.989 358.079C268.965 358.1 268.949 358.118 268.936 358.134C268.905 358.361 268.965 358.632 269.039 358.887C272.444 359.638 275.96 360.062 279.402 360.62C285.62 361.626 291.857 362.503 298.069 363.541C298.362 363.591 298.651 363.638 298.944 363.686C299.639 363.006 300.066 362.287 300.195 361.795Z" fill="#1A1A1A"/>
<path d="M227.523 357.91C227.334 357.765 227.234 357.56 227.199 357.347C221.692 356.162 215.93 355.896 210.349 355.595C206.978 355.414 203.605 355.229 200.228 355.184C199.041 355.171 197.65 355.308 196.344 355.184C195.364 357.847 194.532 359.925 194.121 360.633C193.37 361.924 194.756 364.157 196.468 366.03C206.876 362.677 217.847 361.463 228.366 358.492C228.079 358.311 227.8 358.121 227.523 357.91Z" fill="#1A1A1A"/>
<path d="M201.908 323.347C201.328 323.347 200.788 322.973 200.609 322.388C198.56 315.786 199.472 308.896 200.354 302.238C200.912 298.019 201.489 293.661 201.286 289.468C201.252 288.717 201.831 288.08 202.582 288.043C203.33 287.993 203.97 288.586 204.007 289.339C204.22 293.774 203.625 298.259 203.053 302.594C202.171 309.257 201.339 315.549 203.209 321.582C203.43 322.301 203.03 323.065 202.311 323.286C202.179 323.328 202.042 323.347 201.908 323.347Z" fill="#D69939"/>
<path d="M268.247 251.267C268.247 251.267 269.708 247.28 269.187 243.63C268.665 239.982 261.876 239.982 248.068 240.504C234.26 241.025 224.307 244.054 231.371 251.836C238.432 259.616 268.247 251.267 268.247 251.267Z" fill="#1A1A1A"/>
<path d="M302.949 259.002C302.541 258.805 302.125 258.612 301.706 258.425C297.518 265.46 294.321 273.087 292.335 280.956C292.243 281.322 292.464 281.691 292.83 281.783C292.886 281.799 292.941 281.804 292.996 281.804C293.302 281.804 293.578 281.599 293.655 281.29C295.619 273.503 298.793 265.958 302.949 259.002Z" fill="#D69939"/>
<path d="M202.215 279.307C202.326 279.56 202.576 279.713 202.837 279.713C202.929 279.713 203.024 279.695 203.113 279.655C203.456 279.502 203.611 279.102 203.461 278.757C200.677 272.457 197.491 266.371 193.927 260.519C193.511 260.711 193.1 260.906 192.689 261.101C196.253 266.94 199.437 273.016 202.215 279.307Z" fill="#D69939"/>
<path d="M262.078 271.001C261.788 271.001 261.501 270.88 261.298 270.643C260.935 270.214 260.985 269.568 261.414 269.202C263.492 267.432 265.767 265.894 267.972 264.404C270.16 262.921 272.425 261.388 274.443 259.658C278.459 256.213 282.688 250.251 282.488 245.302C282.465 244.739 282.902 244.264 283.465 244.241C284.045 244.217 284.503 244.657 284.527 245.218C284.759 250.878 280.297 257.327 275.773 261.207C273.666 263.013 271.353 264.58 269.115 266.095C266.961 267.554 264.73 269.06 262.739 270.759C262.547 270.922 262.312 271.001 262.078 271.001Z" fill="#D69939"/>
<path d="M234.178 262.779C229.034 260.211 224.918 255.8 222.669 250.527C222.608 250.764 222.524 250.943 222.4 251.046C222.16 251.238 221.631 251.404 220.894 251.568C223.353 257.177 227.77 261.862 233.264 264.604C233.411 264.678 233.567 264.712 233.719 264.712C234.096 264.712 234.457 264.504 234.633 264.146C234.886 263.643 234.681 263.029 234.178 262.779Z" fill="#D69939"/>
<path d="M290.892 187.665C290.845 184.821 289.062 181.534 286.892 179.704C286.557 179.422 286.152 179.148 285.712 178.909C286.01 177.057 285.878 175.164 285.214 173.502C284.711 172.238 283.052 170.268 281.201 168.993C282.552 163.349 280.158 157.845 274.29 154.382C268.551 150.992 261.538 150.597 256.326 154.203C253.498 151.024 248.299 151.237 244.851 154.313C240.356 150.521 233.848 149.441 228.402 152.296C225.199 153.976 222.784 156.91 221.454 160.247C220.791 161.914 220.396 163.665 220.28 165.459C220.18 167.049 220.73 168.727 220.87 170.312C219.89 170.623 218.315 170.744 217.633 171.084C216.174 171.814 214.886 172.859 213.896 174.155C212.711 175.701 212.005 177.473 211.771 179.406C211.644 180.454 211.915 181.479 212.134 182.474C210.238 184.184 208.955 187.241 208.268 189.19C206.783 193.412 206.158 199.361 210.001 202.564C210.983 203.38 212.682 202.335 211.889 201.107C209.84 197.934 209.44 195.047 210.383 191.442C210.391 192.682 210.588 193.915 210.999 195.103C212.171 198.484 214.752 200.633 218.11 201.647C219.05 201.932 219.729 201.265 219.856 200.496C220.248 200.728 220.712 200.886 221.252 200.928C222.74 201.047 224.185 201.041 225.623 200.933C225.56 206.272 226.98 211.507 232.084 213.404C233.243 217.973 237.211 221.328 242.105 221.789C246.869 222.234 251.657 220.159 254.922 216.706C260.561 221.212 269.147 220.088 273.023 214.131C273.726 214.383 274.506 214.526 275.362 214.52C279.104 214.507 282.467 211.779 284.503 208.824C287.132 205.016 287.427 200.056 285.462 196.19C288.538 194.355 290.948 190.799 290.892 187.665Z" fill="#4E0C09"/>
<path d="M239.45 257.843C246.324 261.204 254.891 262.244 261.894 258.62C263.405 257.838 264.728 256.84 265.886 255.673C268.085 252.671 268.87 250.027 268.185 249.54C266.208 248.128 263.758 244.101 262.376 237.699C260.993 231.294 262.32 207.504 262.32 207.504L236.793 215.318C236.793 215.318 238.07 245.452 236.263 247.306C234.557 249.06 232.874 250.546 231.37 251.836C233.643 254.33 236.419 256.361 239.45 257.843Z" fill="#A54B22"/>
<path d="M260.527 213.567C260.448 211.734 260.464 209.904 260.438 208.081L236.793 215.318C236.793 215.318 238.07 245.452 236.264 247.306C236.195 247.377 236.124 247.448 236.056 247.517C236.825 247.551 237.594 247.591 238.344 247.546C240.401 247.427 242.342 246.848 244.154 245.871C250.804 242.281 255.394 236.045 257.949 229.039C259.197 225.618 260.596 215.218 260.527 213.567Z" fill="#3A1714"/>
<path d="M267.564 200.325C266.013 195.437 260.943 193.841 258.51 196.73C257.441 197.997 255.479 202.429 255.479 202.429C255.479 202.429 255.473 202.408 255.466 202.366C254.76 203.578 253.185 204.081 251.955 202.922C249.269 200.391 247.638 197.12 247.27 193.559C245.208 193.831 243.109 193.633 241.499 192.14C240.243 190.973 239.727 189.382 239.851 187.81C236.735 187.581 233.454 186.862 232.421 183.615C232.403 183.552 232.39 183.488 232.384 183.425C231.539 183.351 230.709 183.17 229.906 182.896C228.179 183.354 226.896 184.347 225.613 185.701C224.333 187.054 222.977 188.192 221.508 189.335C220.625 190.02 219.577 190.836 218.648 191.763C218.263 193.839 217.568 198.587 218.374 202.569C219.185 206.572 215.169 236.472 235.84 239.258C244.657 240.448 254.915 232.961 259.508 223.209C261.038 219.959 260.888 210.336 260.888 210.336C260.888 210.336 270.733 210.304 267.564 200.325Z" fill="#A54B22"/>
<path d="M226.317 220.654C226.459 220.064 227.052 219.743 227.605 219.972C228.147 220.196 228.69 220.422 229.232 220.646C229.783 220.875 230.133 221.56 229.988 222.155C229.846 222.745 229.254 223.069 228.703 222.84C228.158 222.613 227.615 222.39 227.073 222.163C226.522 221.937 226.175 221.252 226.317 220.654Z" fill="#953B16"/>
<path d="M237.079 203.657C236.616 203.512 236.31 203.051 236.373 202.553C236.445 201.992 236.958 201.597 237.516 201.671C240.24 202.019 242.939 202.635 245.549 203.501C246.084 203.678 246.373 204.257 246.197 204.792C246.018 205.326 245.423 205.624 244.904 205.44C242.423 204.615 239.85 204.028 237.256 203.696C237.195 203.688 237.137 203.675 237.079 203.657Z" fill="#4E0C09"/>
<path d="M217.041 205.85C216.796 205.774 216.58 205.608 216.448 205.366C216.177 204.871 216.359 204.249 216.854 203.981C218.587 203.03 220.543 202.508 222.516 202.469C223.082 202.456 223.546 202.906 223.559 203.47C223.569 204.036 223.122 204.499 222.558 204.513C220.912 204.544 219.279 204.979 217.836 205.771C217.581 205.908 217.296 205.929 217.041 205.85Z" fill="#4E0C09"/>
<path d="M232.541 227.849C229.607 228.673 229.186 228.184 226.347 227.262C224.582 226.69 224.456 228.273 225.973 229.155C228.156 230.422 229.963 230.87 233.244 229.695C234.956 229.082 234.408 227.325 232.541 227.849Z" fill="#953B16"/>
<path d="M243.37 209.822C241.729 208.273 238.795 208.41 237.355 210.133C236.899 210.675 237.312 211.776 238.129 211.465C238.735 211.236 239.411 211.12 240.062 211.16C240.755 211.207 241.205 211.542 241.784 211.876C243.051 212.608 244.468 210.86 243.37 209.822Z" fill="#1A1A1A"/>
<path d="M222.566 210.488C221.305 209.925 219.482 209.669 218.273 210.525C217.813 210.852 217.568 211.4 217.807 211.947C218.021 212.429 218.608 212.801 219.15 212.606C220.12 212.253 220.796 211.874 221.86 212.161C222.827 212.419 223.538 210.923 222.566 210.488Z" fill="#1A1A1A"/>
<path d="M220.869 170.312C220.869 170.312 234.34 162.612 245.986 168.83C257.632 175.048 258.209 181.266 259.078 181.99C259.944 182.712 260.813 178.229 256.763 172.301C252.715 166.37 248.551 162.467 239.426 161.456C230.3 160.442 220.869 170.312 220.869 170.312Z" fill="#F8AE44"/>
<path d="M267.875 325.809C267.875 325.809 315.062 318.698 327.571 314.529C340.084 310.358 354.679 309.894 356.07 329.357C357.46 348.816 340.645 355.769 325.304 356.465C309.965 357.16 284.016 356.465 281.235 357.623C278.454 358.779 277.295 354.842 275.444 356.465C273.59 358.084 268.597 359.203 268.597 359.203L267.875 325.809Z" fill="#F8AE44"/>
<path d="M232.326 324.7C232.326 324.7 199.369 326.049 179.74 319.934C160.112 313.821 150.096 319.409 147.41 331.648C144.727 343.886 150.244 358.084 161.482 357.194C172.722 356.304 172.353 357.9 178.816 358.458C185.279 359.016 208.02 357.623 215.202 357.392C222.384 357.16 228.494 359.203 228.494 359.203L232.326 324.7Z" fill="#F8AE44"/>
<path d="M227.668 345.777C227.668 345.777 226.783 355.261 228.495 359.203C230.21 363.143 233.346 342.238 233.346 342.238L227.668 345.777Z" fill="#1A1A1A"/>
<path d="M270.701 345.972C270.701 345.972 270.14 357.489 268.596 359.203C267.053 360.915 265.684 346.349 265.684 342.922C265.684 339.496 270.061 342.34 270.701 345.972Z" fill="#1A1A1A"/>
<path d="M242.436 300.645C242.436 300.645 245.399 287.577 246.392 283.65C247.382 279.726 247.825 278.894 248.754 279.128C249.681 279.363 250.548 279.934 250.637 280.2C250.637 280.2 251.193 279.228 251.928 279.16C252.663 279.089 252.634 284.024 252.892 285.328C253.147 286.634 253.866 294.538 254.008 296.265C254.153 297.99 255.631 306.01 256.811 311.135C257.99 316.26 258.904 322.098 261.404 323.563C264.282 325.251 266.94 325.135 267.874 325.809C271.954 328.751 270.7 345.972 270.7 345.972C270.7 345.972 259.958 343.655 256.663 342.206C253.221 340.694 249.065 336.138 248.365 332.414C248.336 332.259 248.051 340.434 241.675 342.333C235.299 344.229 227.667 345.777 227.667 345.777C227.667 345.777 227.867 335.851 229.629 329.886C232.323 320.774 235.839 325.707 238.036 319.676C239.66 315.209 242.436 300.645 242.436 300.645Z" fill="#A54B22"/>
<path d="M251.842 293.827C251.771 293.879 251.721 293.945 251.66 294.006C251.555 293.158 251.225 292.339 250.625 291.838C250.42 290.566 250.238 289.31 250.283 287.998C250.312 287.211 250.351 286.373 250.541 285.604C250.701 284.949 251.384 283.932 252.121 284.63C252.679 285.157 252.595 286.121 252.642 286.821C252.695 287.643 252.748 288.462 252.803 289.284C252.856 290.103 252.895 290.924 252.943 291.743C252.972 292.283 252.974 292.876 253.037 293.442C252.663 293.403 252.25 293.513 251.842 293.827ZM254.702 301.717C254.633 299.539 254.652 297.337 254.475 295.164C254.439 294.704 254.273 294.301 254.025 293.998C254.059 293.555 253.996 293.102 253.967 292.663C253.93 292.138 253.891 291.614 253.843 291.088C253.746 290.042 253.664 288.994 253.58 287.946C253.477 286.634 253.669 283.985 251.852 283.727C251.434 283.666 251.099 283.75 250.828 283.924C250.828 283.919 250.83 283.916 250.83 283.911C250.728 283.023 250.733 282.075 250.833 281.185C250.867 280.872 250.933 280.545 251.081 280.261C251.146 280.137 251.228 280.016 251.333 279.921C251.494 279.776 251.628 279.697 251.671 279.468C251.692 279.329 251.578 279.199 251.46 279.149C251.06 278.983 250.651 279.5 250.483 279.805C250.283 280.169 250.18 280.569 250.125 280.98C250.003 281.896 250.111 282.818 250.309 283.719C249.527 282.905 248.329 282.542 247.667 283.816C247.201 284.717 246.991 285.818 246.693 286.784C246.361 287.867 246.035 288.952 245.713 290.039C244.431 294.39 243.027 298.796 242.263 303.273C242.219 303.524 242.614 303.592 242.693 303.36C243.891 299.858 244.742 296.234 245.782 292.681C246.287 290.948 246.809 289.223 247.344 287.501C247.62 286.616 247.894 285.731 248.178 284.846C248.292 284.493 248.452 283.819 248.932 283.795C249.361 283.774 249.798 284.396 250.019 284.698C250.051 284.743 250.09 284.772 250.13 284.796C249.79 285.56 249.706 286.553 249.672 287.221C249.603 288.601 249.651 290.082 249.948 291.469C249.348 291.306 248.808 291.633 248.508 292.178C247.976 293.139 247.702 294.327 247.341 295.362C246.561 297.608 245.808 299.865 245.089 302.133C244.394 304.324 243.517 306.663 243.256 308.954C243.222 309.244 243.614 309.278 243.725 309.049C244.483 307.471 244.9 305.686 245.447 304.027C246.016 302.294 246.561 300.555 247.143 298.83C247.707 297.15 248.289 295.478 248.889 293.808C249.058 293.339 249.124 292.818 249.59 292.602C249.988 292.418 250.017 292.52 250.233 292.857C250.346 293.036 250.42 293.231 250.488 293.429C250.746 294.169 250.809 294.996 250.823 295.783C250.58 296.889 250.391 298.009 250.196 299.123C249.809 301.343 249.466 303.571 249.182 305.804C248.605 310.384 248.315 314.972 248.152 319.583C247.973 324.629 247.594 325.19 247.968 330.228C247.991 330.568 248.589 330.531 248.573 330.186C248.199 321.983 248.803 318.309 249.666 310.142C250.098 306.07 250.67 302.009 251.407 297.98C251.57 297.09 251.647 296.094 251.987 295.251C252.134 294.883 252.421 294.419 252.874 294.39C253.63 294.345 253.564 295.225 253.583 295.741C253.662 297.817 253.727 299.892 253.806 301.967C253.98 306.557 253.967 311.193 254.357 315.77C254.394 316.199 255.105 316.146 255.11 315.72C255.189 311.064 254.847 306.37 254.702 301.717Z" fill="#953B16"/>
<path d="M271.014 325.915C270.545 325.915 270.124 325.593 270.018 325.119C269.894 324.566 270.242 324.021 270.792 323.897C280.405 321.748 290.716 320.002 301.316 318.256C301.874 318.164 302.396 318.543 302.491 319.099C302.58 319.654 302.204 320.179 301.648 320.271C291.079 322.012 280.798 323.752 271.238 325.891C271.161 325.909 271.087 325.915 271.014 325.915Z" fill="#B3E0B4"/>
<path d="M228.604 324.798C228.596 324.798 228.588 324.798 228.58 324.798C226.618 324.756 224.69 324.737 222.728 324.719C217.78 324.672 212.663 324.619 206.184 324.174C204.359 324.047 203.124 323.931 201.696 323.8C200.798 323.716 199.803 323.623 198.502 323.513C197.941 323.465 197.525 322.97 197.572 322.409C197.619 321.846 198.122 321.432 198.676 321.477C199.982 321.59 200.983 321.682 201.883 321.767C203.358 321.904 204.522 322.012 206.326 322.135C212.742 322.578 217.83 322.628 222.747 322.678C224.719 322.696 226.655 322.715 228.625 322.76C229.189 322.77 229.636 323.239 229.623 323.802C229.61 324.358 229.157 324.798 228.604 324.798Z" fill="#B3E0B4"/>
<path d="M306.523 319.217C306.038 319.217 305.609 318.872 305.519 318.38C305.419 317.824 305.788 317.292 306.341 317.192C317.621 315.14 329.069 315.085 340.37 317.026C340.928 317.121 341.3 317.648 341.205 318.203C341.107 318.759 340.583 319.133 340.025 319.035C328.961 317.139 317.752 317.195 306.707 319.201C306.644 319.212 306.583 319.217 306.523 319.217Z" fill="#D69939"/>
<path d="M318.115 316.76C317.91 316.76 317.705 316.668 317.573 316.491C317.344 316.191 317.404 315.765 317.702 315.538C320.833 313.157 324.85 311.503 329.638 310.618C333.865 309.836 338.205 309.72 342.4 309.607C342.774 309.591 343.09 309.892 343.101 310.268C343.111 310.645 342.814 310.958 342.437 310.966C338.292 311.079 334.009 311.195 329.885 311.956C325.308 312.802 321.487 314.371 318.526 316.62C318.403 316.715 318.258 316.76 318.115 316.76Z" fill="#D69939"/>
<path d="M190.47 323.21C187.592 323.21 184.7 322.815 181.945 322.035C178.864 321.163 175.938 319.82 173.107 318.519C170.478 317.313 167.76 316.062 164.982 315.232C164.442 315.072 164.134 314.503 164.295 313.963C164.458 313.421 165.027 313.115 165.567 313.276C168.482 314.147 171.266 315.427 173.96 316.665C176.72 317.932 179.572 319.243 182.501 320.07C186.283 321.14 190.338 321.435 194.236 320.924C194.794 320.853 195.308 321.245 195.382 321.803C195.453 322.362 195.06 322.875 194.502 322.949C193.17 323.123 191.821 323.21 190.47 323.21Z" fill="#D69939"/>
<path d="M183.683 322.649C183.461 322.649 183.243 322.541 183.114 322.343C179.1 316.262 174.054 311.04 168.113 306.818C167.807 306.6 167.736 306.176 167.952 305.87C168.171 305.562 168.595 305.491 168.9 305.709C174.978 310.029 180.143 315.372 184.249 321.593C184.457 321.909 184.37 322.33 184.057 322.538C183.941 322.615 183.812 322.649 183.683 322.649Z" fill="#D69939"/>
<path d="M259.716 449.473C259.716 449.473 237.662 450.893 224.246 450.893C210.833 450.893 187.078 456.018 177.589 455.691C168.1 455.362 171.916 451.765 168.535 449.473C165.156 447.182 165.116 449.919 162.846 442.334C160.576 434.752 173.336 427.225 192.64 428.207C211.944 429.189 221.017 428.821 234.478 426.387C247.935 423.951 256.629 426.387 256.629 426.387L259.716 449.473Z" fill="#A54B22"/>
<path d="M198.529 380.109C199.182 373.565 202.016 378.929 248.689 378.992C288.119 379.045 295.707 368.985 294.919 375.848C294.919 375.848 294.564 382.155 298.085 383.475C311.298 388.431 373.251 343.768 394.52 362.114C415.787 380.457 405.4 421.507 387.976 431.715C369.382 442.608 330.763 448.033 280.977 458.243C272.112 460.061 256.6 430.237 249.676 429.742C244.517 429.374 237.828 430.04 234.478 430.09L225.012 458.241C225.012 458.241 223.788 458.443 220.251 453.85C216.572 449.076 193.488 451.546 166.983 444.675C140.481 437.804 106.587 421.489 101.68 403.024C96.7711 384.56 96.7711 362.114 117.058 354.26C130.092 349.214 158.619 364.076 167.939 371.273C177.262 378.471 187.404 388.289 191.658 388.942C195.911 389.598 198.529 380.109 198.529 380.109Z" fill="#739BC8"/>
<path d="M227.98 429.642C227.98 429.642 221.153 454.709 224.564 457.98C227.974 461.253 238.082 436.966 240.229 429.642C242.372 422.318 227.98 429.642 227.98 429.642Z" fill="#1A1A1A"/>
<path d="M227.981 429.642C227.981 429.642 253.438 432.618 275.013 424.807C296.585 416.996 313.263 413.917 316.985 412.429C320.703 410.941 320.503 405.094 321.62 402.492C322.734 399.888 324.648 398.397 323.079 393.933C321.507 389.472 324.056 389.253 320.566 385.247C318.718 383.13 322.847 381.576 320.764 377.196C319.724 375.008 316.913 374.924 306.871 381.247C296.827 387.57 294.354 388.726 282.079 395.795C269.803 402.861 254.8 406.954 243.704 404.349C232.609 401.744 227.981 429.642 227.981 429.642Z" fill="#A54B22"/>
<path d="M318.367 398.884C316.315 395.763 318.014 393.08 318.467 389.68C318.577 388.858 317.65 388.052 316.881 388.094C315.865 388.149 317.016 383.369 317.068 383.19C317.324 382.342 316.018 381.755 315.612 382.577C314.469 384.884 312.407 389.327 314.94 390.791C313.89 394.354 311.988 400.024 316.779 400.946C317.895 401.162 319.088 399.985 318.367 398.884Z" fill="#953B16"/>
<path d="M233.728 402.779C215.727 398.302 197.281 394.088 180.076 387.025C173.194 384.199 166.515 380.486 161.751 377.61C160.727 374.905 159.299 372.308 157.79 369.885C157.266 369.048 155.947 369.806 156.458 370.665C157.493 372.403 158.346 374.183 159.133 375.998C157.369 374.889 156.057 374.018 155.362 373.544C148.299 368.74 141.114 363.986 132.305 363.839C129.624 363.797 129.819 366.383 132.371 366.659C141.417 367.644 149.784 374.328 157.237 379.019C164.751 383.751 171.806 387.952 180.081 391.155C197.281 397.807 215.103 401.505 233.175 404.789C234.473 405.023 235.047 403.109 233.728 402.779Z" fill="#376B90"/>
<path d="M248.992 432.703C248.992 432.703 254.338 449.56 259.716 457.087C265.091 464.611 271.481 459.713 309.515 452.136C343.855 445.294 349.694 429.842 349.367 420.354C349.041 410.865 373.578 380.109 373.578 380.109C373.578 380.109 358.14 372.48 319.115 396.037C280.087 419.595 248.992 432.703 248.992 432.703Z" fill="#739BC8"/>
<path d="M376.017 378.745C366.562 375.845 356.823 377.628 347.534 380.541C339.325 383.117 331.4 386.577 323.726 390.457C307.822 398.497 292.939 408.386 277.343 416.985C268.346 421.947 253.685 427.804 243.669 430.198C240.122 431.046 241.897 434.596 246.793 433.319C256.319 430.833 270.169 424.651 280.087 419.595C289.845 414.623 299.22 408.942 308.738 403.54C318.343 398.089 329.694 391.552 339.954 387.425C351.521 382.774 362.851 379.598 375.084 382.124C377.236 382.569 378.231 379.424 376.017 378.745Z" fill="#376B90"/>
</svg>
