<svg width="426" height="246" viewBox="0 0 426 246" fill="none" xmlns="http://www.w3.org/2000/svg">
<path d="M420.165 245.135H5.75288C2.5759 245.135 0 242.56 0 239.383C0 236.206 2.5759 233.631 5.75288 233.631H420.165C423.342 233.631 425.918 236.206 425.918 239.383C425.918 242.56 423.342 245.135 420.165 245.135Z" fill="#C8BEB6"/>
<path d="M272.77 182.602H265.404C264.823 182.602 264.351 182.132 264.351 181.55C264.351 180.968 264.823 180.497 265.404 180.497H272.77C273.352 180.497 273.823 180.968 273.823 181.55C273.823 182.132 273.352 182.602 272.77 182.602Z" fill="#3F1C3F"/>
<path d="M281.677 175.888L269.315 182.309L268.596 180.925L280.958 174.506L281.677 175.888Z" fill="#3F1C3F"/>
<path d="M289.224 232.152C289.224 235.28 286.688 237.814 283.56 237.814C280.432 237.814 277.896 235.28 277.896 232.152C277.896 229.024 280.432 226.489 283.56 226.489C286.688 226.489 289.224 229.024 289.224 232.152Z" fill="#3F1C3F"/>
<path d="M251.672 232.152C251.672 235.28 249.137 237.814 246.009 237.814C242.882 237.814 240.346 235.28 240.346 232.152C240.346 229.024 242.882 226.489 246.009 226.489C249.137 226.489 251.672 229.024 251.672 232.152Z" fill="#3F1C3F"/>
<path d="M326.772 232.152C326.772 235.28 324.235 237.814 321.109 237.814C317.982 237.814 315.446 235.28 315.446 232.152C315.446 229.024 317.982 226.489 321.109 226.489C324.235 226.489 326.772 229.024 326.772 232.152Z" fill="#3F1C3F"/>
<path d="M298.14 170.626H268.979C264.303 170.626 260.514 166.836 260.514 162.16H306.606C306.606 166.836 302.815 170.626 298.14 170.626Z" fill="#3F1C3F"/>
<path d="M290.399 170.626H276.719V174.841H290.399V170.626Z" fill="#3F1C3F"/>
<path d="M286.388 190.086H280.695V174.841H286.388V190.086Z" fill="#6E5873"/>
<path d="M289.442 225.054H277.677V190.086H289.442V225.054Z" fill="#3F1C3F"/>
<path d="M331.616 230.843H235.504C235.504 226.034 239.402 222.135 244.211 222.135H322.908C327.717 222.135 331.616 226.034 331.616 230.843Z" fill="#6E5873"/>
<path d="M326.062 162.906C335.433 162.906 342.632 147.886 341.711 130.648C340.347 105.047 342.074 80.0398 347.396 55.7255C349.47 46.2513 345.716 35.9077 340.188 35.9077L275.484 38.8474C273.035 38.9596 270.919 40.8428 270.243 43.5258C262.096 75.8799 264.613 117.241 265.099 162.906H326.062Z" fill="#984651"/>
<path d="M340.866 35.9077C334.347 60.756 332.177 90.8528 332.177 125.307C332.177 143.392 331.339 143.33 323.232 143.33H300.784C298 143.33 295.894 147.796 295.894 153.202C295.894 158.608 298 162.906 300.784 162.906H333.835C339.422 162.906 343.698 153.195 342.797 142.491C340.258 112.417 341.562 83.1316 347.456 54.7916C349.335 45.756 345.885 35.9077 340.866 35.9077Z" fill="#D7757B"/>
<path d="M228.16 143.5H295.894V162.906H228.16C223.475 162.906 223.32 158.471 223.32 153.144C223.32 147.817 223.475 143.5 228.16 143.5Z" fill="#984651"/>
<path d="M216.951 176.077L205.815 203.097L205.364 207.323C208.255 216.529 195.618 216.951 188.047 216.027C191.487 210.426 197.539 182.631 197.539 182.631L216.951 176.077Z" fill="#9E5E51"/>
<path d="M205.364 207.323C210.895 212.277 210.544 223.019 210.544 223.019C187.683 229.162 173.518 237.811 172.304 233.295C171.615 230.733 170.712 226.581 179.878 224.118C186.694 222.287 185.499 209.424 191.454 207.83C194.534 207.002 195.718 206.782 197.415 207.876C200.549 209.897 197.21 214.034 198.735 214.924C199.394 215.309 204.889 208.965 205.364 207.323Z" fill="#CEB080"/>
<path d="M173.23 236.744C175.501 239.499 189.399 233.28 202.346 229.046C202.904 228.863 205.126 228.163 205.678 227.997C207.231 227.531 208.755 227.108 210.224 226.75C211.021 226.555 211.496 225.736 211.283 224.943L210.649 222.589C203.543 224.498 199.145 225.143 192.507 228.135C184.83 231.598 174.969 234.511 172.202 232.917L173.23 236.744Z" fill="white"/>
<path d="M207.795 129.774C199.995 150.083 195.974 187.421 192.045 202.151L209.556 203.355L225.816 170.459L236.22 142.3L301.031 116.259H227.673C218.901 116.259 210.94 121.584 207.795 129.774Z" fill="#292239"/>
<path d="M187.358 97.2287H158.808C158.808 97.2287 160.295 87.8152 173.083 87.8152C184.563 87.8152 187.358 97.2287 187.358 97.2287Z" fill="#BAADA2"/>
<path d="M196.014 86.6582L186.598 85.6637L174.81 80.9208C172.171 80.4706 169.356 81.2368 167.548 82.8956L158.808 90.9122C164.074 91.1289 172.528 90.4982 176.74 89.4289C183.375 90.3124 184.737 96.5864 188.235 94.3781L194.397 94.6825L196.014 86.6582Z" fill="#9E5E51"/>
<path d="M222.841 81.6935C234.857 73.7517 252.675 54.7788 252.675 54.7788L265.694 73.2422L240.63 94.5743L194.397 94.6826L196.014 86.6583L222.841 81.6935Z" fill="#CEB080"/>
<path d="M244.48 63.1037C249.292 58.3815 252.675 54.7788 252.675 54.7788L265.694 73.2422L247.964 88.3312C247.964 88.3312 238.249 69.219 244.48 63.1037Z" fill="#AE7E6A"/>
<path d="M301.031 116.259H252.487C243.503 116.259 236.22 123.541 236.22 132.525L235.778 143.5H303.565C309.392 143.5 311.589 137.574 311.589 131.745V126.815C311.589 120.985 306.863 116.259 301.031 116.259Z" fill="#292239"/>
<path d="M274.571 41.3848L254.771 53.3626C250.575 55.9101 249.114 58.1661 248.427 60.7627C247.252 65.2115 248.378 69.9453 251.045 73.6963C256.876 81.9026 263.55 86.6764 270.162 89.5193C264.566 99.0141 254.771 106.316 252.487 116.259L311.589 123.224C321.849 116.855 328.908 96.1106 323.866 78.8442L314.934 61.7907C313.748 55.3529 308.603 49.9354 301.438 47.571L286.569 41.3848H274.571Z" fill="#CEB080"/>
<path d="M306.939 79.8837C302.769 75.7122 288.676 69.553 293.183 63.1036L306.52 51.999C319.296 64.7753 334.71 72.7906 333.716 90.0467C334.67 93.9034 331.751 95.2862 327.778 95.2862L299.74 91.0089L286.747 87.2825L306.939 79.8837Z" fill="#AE7E6A"/>
<path d="M296.597 85.8702L286.747 87.2826L273.035 84.9956C269.95 84.5906 266.639 85.4045 264.493 87.0968L254.12 95.2721C260.285 95.4011 270.199 94.6285 275.153 93.4869C282.911 94.2596 286.487 95.316 290.621 93.0458L303.938 93.9048L296.597 85.8702Z" fill="#9E5E51"/>
<path d="M317.093 81.6934C312.923 77.5219 285.57 64.3419 290.075 57.8925L306.939 50.2422C319.715 63.0185 337.414 72.7906 336.417 90.0467C337.375 93.9034 334.456 97.6338 330.479 97.6338L296.597 94.827V85.87L317.093 81.6934Z" fill="#CEB080"/>
<path d="M286.126 37.6879C298.476 46.6822 281.371 53.3496 267.417 54.7788C261.778 52.141 280.992 35.2861 286.126 37.6879Z" fill="#735A3E"/>
<path d="M277.3 55.2237L271.104 57.8925L264.262 48.5705L279.948 29.3293L283.371 38.3714L289.792 43.6109C291.875 48.1333 281.981 53.5263 277.3 55.2237Z" fill="#653B35"/>
<path d="M277.3 55.2239L271.104 57.8927L266.071 51.0344C272.688 48.6777 278.415 44.0019 282.544 36.1865C284.061 39.2023 286.872 41.4389 289.791 43.6111C291.875 48.1334 281.981 53.5264 277.3 55.2239Z" fill="#9E5E51"/>
<path d="M268.382 59.7875C278.662 63.3941 291.013 53.9418 295.028 44.9049C290.38 42.7172 289.663 39.2513 286.126 37.688C291.815 40.3503 272.564 56.7086 266.553 53.8954L266.979 58.0294C267.062 58.8382 267.615 59.518 268.382 59.7875Z" fill="#AE7E6A"/>
<path d="M246.371 12.8603C246.055 33.5087 247.828 51.5116 258.126 51.5116C267.341 51.5116 277.752 38.9546 276.495 36.9875L274.608 9.66138H247.828L246.371 12.8603Z" fill="#9E5E51"/>
<path d="M255.763 44.3049C258.663 40.5294 260.805 40.243 262.695 41.1305C262.963 41.2569 263.3 41.2156 262.915 41.3007C260.876 41.7483 257.899 43.0924 255.809 44.5706C255.412 44.8505 255.431 44.7357 255.763 44.3049Z" fill="#653B35"/>
<path d="M255.281 18.9124C256.307 21.1103 252.033 35.8988 254.575 35.8988L260.856 36.7153L253.486 37.6879C247.797 37.6879 255.17 22.2299 249.071 19.1549C249.119 18.5512 252.216 17.7489 255.281 18.9124Z" fill="#653B35"/>
<path d="M257.304 18.4595C257.304 21.2417 259.035 28.4793 262.654 28.4793L264.467 27.2861L267.106 18.6839L257.304 18.4595Z" fill="#653B35"/>
<path d="M249.071 19.1549C250.876 18.5255 252.755 18.5538 254.709 19.2401C255.104 19.3794 255.543 19.1046 255.5 18.737L255.411 17.9553C255.389 17.7606 255.232 17.5967 255.012 17.5516C253.186 17.175 251.16 17.2149 248.639 18.2855C248.425 18.3758 248.297 18.5771 248.321 18.7783C248.357 19.0917 248.727 19.2749 249.071 19.1549Z" fill="#211D1C"/>
<path d="M266.646 18.1887C263.724 17.4238 260.816 17.1826 257.917 17.4689C257.569 17.5038 257.31 17.7437 257.315 18.0171L257.334 18.8749C257.342 19.2025 257.726 19.4502 258.142 19.3844C260.685 18.9781 263.438 18.9742 266.325 19.2296C266.744 19.2658 267.114 19.0104 267.106 18.684C267.101 18.4609 266.918 18.2609 266.646 18.1887Z" fill="#211D1C"/>
<path d="M246.962 32.6509C245.978 24.2473 245.146 23.1174 245.146 17.0485C245.146 0.802408 264.325 -1.06405 270.826 0.406414C277.329 1.87688 283.372 4.94809 283.371 18.1771C283.371 26.0209 281.142 33.5087 272.92 33.5087C272.92 19.0646 269.74 23.6256 269.74 19.0968C269.74 16.2488 274.651 14.9666 272.143 12.4591C268.547 8.86288 259.88 12.7377 254.027 13.2962C250.277 12.263 246.962 10.1553 246.962 13.66V32.6509Z" fill="#211D1C"/>
<path d="M278.691 25.1245C279.948 25.1245 281.238 25.6134 281.094 29.9551C281.094 31.9454 280.034 33.7899 279.093 35.0128C277.728 36.7889 278.812 38.3716 277.331 38.3716C275.485 38.3716 275.756 34.1253 275.756 32.0783C275.756 32.0783 275.181 25.1245 278.691 25.1245Z" fill="#9E5E51"/>
<path d="M277.523 35.3894C277.25 35.3894 277.028 35.1676 277.028 34.8941C277.028 34.1537 277.425 33.7306 277.744 33.3888C278.046 33.0676 278.217 32.8664 278.217 32.4911C278.217 32.2769 278.194 32.2615 277.894 32.1299C277.536 31.9751 276.939 31.7133 276.939 30.7768C276.939 29.0355 277.166 26.1165 278.693 26.1165C280.444 26.1165 280.444 28.1622 280.444 28.8342C280.444 29.1077 280.222 29.3296 279.948 29.3296C279.675 29.3296 279.453 29.1077 279.453 28.8342C279.453 27.1071 278.977 27.1071 278.693 27.1071C278.499 27.1071 277.93 28.01 277.93 30.7768C277.93 31.0644 277.992 31.0928 278.291 31.2218C278.634 31.3714 279.208 31.623 279.208 32.4911C279.208 33.2766 278.798 33.7152 278.468 34.066C278.172 34.382 278.019 34.5613 278.019 34.8941C278.019 35.1676 277.797 35.3894 277.523 35.3894Z" fill="#653B35"/>
<path d="M260.737 28.2536C261.468 35.3892 270.708 33.6246 266.85 28.5941C264.47 27.2165 262.557 27.5622 260.737 28.2536Z" fill="#653B35"/>
<path d="M264.202 28.4085C264.114 29.4598 263.266 30.2788 262.309 30.235C261.352 30.1924 260.649 29.305 260.737 28.2537C260.825 27.2012 261.624 27.2437 262.581 27.2863C263.539 27.3289 264.289 27.356 264.202 28.4085Z" fill="#211D1C"/>
<path d="M266.6 28.1724C264.861 27.3946 263.095 27.0386 261.303 27.1044C261.087 27.1134 260.913 27.2914 260.9 27.5094L260.856 28.1969C260.84 28.46 261.06 28.6793 261.318 28.6497C262.9 28.4691 264.586 28.62 266.338 28.9863C266.592 29.0392 266.834 28.856 266.85 28.5942C266.861 28.4149 266.762 28.2446 266.6 28.1724Z" fill="#211D1C"/>
<path d="M253.288 28.3206C252.704 34.0129 245.332 32.6056 248.411 28.5915C250.31 27.4938 251.837 27.7686 253.288 28.3206Z" fill="#653B35"/>
<path d="M250.524 28.4433C250.594 29.283 251.269 29.9357 252.033 29.9009C252.796 29.8673 253.359 29.1592 253.288 28.3208C253.218 27.481 252.58 27.5146 251.816 27.5494C251.052 27.5829 250.453 27.6036 250.524 28.4433Z" fill="#211D1C"/>
<path d="M248.611 28.255C249.999 27.6358 251.407 27.3508 252.836 27.4037C253.009 27.4101 253.149 27.552 253.159 27.7261L253.194 28.2743C253.207 28.4846 253.031 28.66 252.825 28.6368C251.562 28.4923 250.217 28.6136 248.82 28.9051C248.617 28.9477 248.424 28.8006 248.411 28.5917C248.402 28.4485 248.481 28.313 248.611 28.255Z" fill="#211D1C"/>
<path d="M269.862 173.642L269.242 205.893L266.147 211.226C264.31 220.699 276.915 219.696 284.333 217.926C280.285 212.747 284.829 190.718 286.424 181.403L269.862 173.642Z" fill="#9E5E51"/>
<path d="M266.147 211.226C261.208 216.771 262.768 227.406 262.768 227.406C286.176 230.935 301.224 237.933 301.92 233.309C302.316 230.686 302.746 226.46 293.361 225.046C286.384 223.993 286.123 211.076 280.026 210.163C276.872 209.688 275.67 209.603 274.108 210.882C271.221 213.242 275.004 216.976 273.589 218.033C272.978 218.488 266.803 212.804 266.147 211.226Z" fill="#CEB080"/>
<path d="M301.389 236.841C299.444 239.834 284.934 235.222 271.591 232.47C271.016 232.353 268.729 231.908 268.163 231.805C266.566 231.516 265.005 231.268 263.505 231.077C262.691 230.974 262.127 230.213 262.25 229.402L262.614 226.99C269.889 228.087 274.332 228.232 281.264 230.458C289.283 233.034 299.41 234.818 301.98 232.922L301.389 236.841Z" fill="white"/>
<path d="M302.28 139.403L291.413 167.81L284.497 202.941L260.858 198.287L266.149 162.835L272.808 130.126C274.706 120.795 282.98 114.593 291.334 116.239C300.887 118.12 306.156 129.271 302.28 139.403Z" fill="#3D3356"/>
<path d="M105.757 70.563H48.7989C46.5429 70.563 44.7151 72.392 44.7151 74.6468V91.7674C44.7151 94.0221 46.5429 95.8511 48.7989 95.8511H105.757C108.013 95.8511 109.843 94.0221 109.843 91.7674V74.6468C109.843 72.392 108.013 70.563 105.757 70.563Z" fill="#A79D95"/>
<path d="M105.757 70.563H65.2087C62.9527 70.563 61.1237 72.392 61.1237 74.6468V91.7674C61.1237 94.0221 62.9527 95.8511 65.2087 95.8511H105.757C108.013 95.8511 109.843 94.0221 109.843 91.7674V74.6468C109.843 72.392 108.013 70.563 105.757 70.563Z" fill="#C8BEB6"/>
<path d="M104.829 73.3494H66.1361C64.9842 73.3494 64.0491 74.2832 64.0491 75.4364V90.9782C64.0491 92.1301 64.9842 93.0652 66.1361 93.0652H104.829C105.982 93.0652 106.917 92.1301 106.917 90.9782V75.4364C106.917 74.2832 105.982 73.3494 104.829 73.3494Z" fill="#A79D95"/>
<path d="M100.078 73.3494H66.0149C64.9288 73.3494 64.0491 74.2291 64.0491 75.3139V91.0994C64.0491 92.1855 64.9288 93.0652 66.0149 93.0652H100.078C101.163 93.0652 102.043 92.1855 102.043 91.0994V75.3139C102.043 74.2291 101.163 73.3494 100.078 73.3494Z" fill="#3F1C3F"/>
<path d="M67.6776 82.9433H66.9114V79.3484H67.6776V82.9433Z" fill="white"/>
<path d="M67.6776 87.2812H66.9114V83.9597H67.6776V87.2812Z" fill="white"/>
<path d="M72.979 82.9433H72.2115V79.3484H72.979V82.9433Z" fill="white"/>
<path d="M72.979 87.2812H72.2115V83.9597H72.979V87.2812Z" fill="white"/>
<path d="M71.2943 78.6468H68.583V77.8806H71.2943V78.6468Z" fill="white"/>
<path d="M71.2943 88.5338H68.583V87.7664H71.2943V88.5338Z" fill="white"/>
<path d="M75.471 82.9433H74.7048V79.3484H75.471V82.9433Z" fill="white"/>
<path d="M75.471 87.2812H74.7048V83.9597H75.471V87.2812Z" fill="white"/>
<path d="M80.7712 82.9433H80.005V79.3484H80.7712V82.9433Z" fill="white"/>
<path d="M80.7712 87.2812H80.005V83.9597H80.7712V87.2812Z" fill="white"/>
<path d="M79.0879 78.6468H76.3766V77.8806H79.0879V78.6468Z" fill="white"/>
<path d="M79.0879 83.5897H76.3766V82.8235H79.0879V83.5897Z" fill="white"/>
<path d="M79.0879 88.5338H76.3766V87.7664H79.0879V88.5338Z" fill="white"/>
<path d="M91.3882 82.9433H90.6207V79.3484H91.3882V82.9433Z" fill="white"/>
<path d="M91.3882 87.2812H90.6207V83.9597H91.3882V87.2812Z" fill="white"/>
<path d="M86.0803 82.2442H85.3129V81.1453H86.0803V82.2442Z" fill="white"/>
<path d="M86.0803 85.9966H85.3129V84.9814H86.0803V85.9966Z" fill="white"/>
<path d="M93.8802 82.9433H93.114V79.3484H93.8802V82.9433Z" fill="white"/>
<path d="M99.1817 87.2812H98.4142V83.9597H99.1817V87.2812Z" fill="white"/>
<path d="M97.4971 78.6468H94.7858V77.8806H97.4971V78.6468Z" fill="white"/>
<path d="M97.4971 88.5338H94.7858V87.7664H97.4971V88.5338Z" fill="white"/>
<path d="M97.4971 83.5897H94.7858V82.8235H97.4971V83.5897Z" fill="white"/>
<path d="M76.0747 47.8754H46.1726V41.969H76.0747V47.8754Z" fill="#D7757B"/>
<path d="M72.4746 47.8755H49.7727V70.5774H72.4746V47.8755Z" fill="#D7757B"/>
<path d="M69.2228 41.969H53.0258V16.1494C53.0258 11.6774 56.6516 8.05151 61.1236 8.05151C65.5957 8.05151 69.2228 11.6774 69.2228 16.1494V41.969Z" fill="#BAE278"/>
<path d="M53.7172 12.5789L57.5288 10.5745L56.8013 14.8195L59.8842 17.8249L55.6224 18.444L53.7172 22.3059L51.8108 18.444L47.5503 17.8249L50.6331 14.8195L49.9056 10.5745L53.7172 12.5789Z" fill="#F4677A"/>
<path d="M67.9381 23.6667L70.5282 22.3059L70.0342 25.1901L72.129 27.232L69.2332 27.6538L67.9381 30.2774L66.6431 27.6538L63.7473 27.232L65.8421 25.1901L65.3481 22.3059L67.9381 23.6667Z" fill="#F4677A"/>
<path d="M67.9381 7.95098L70.5282 6.58887L70.0342 9.47304L72.129 11.5162L69.2332 11.9367L67.9381 14.5603L66.6431 11.9367L63.7473 11.5162L65.8421 9.47304L65.3481 6.58887L67.9381 7.95098Z" fill="#F4677A"/>
<path d="M55.4804 36.2251H49.7727V35.0862H55.4804V36.2251Z" fill="#9ED969"/>
<path d="M56.929 29.1888H51.4457V28.5684H56.929V29.1888Z" fill="#9ED969"/>
<path d="M70.8972 40.7088H66.1865V39.9336H70.8972V40.7088Z" fill="#9ED969"/>
<path d="M70.9293 17.8431L66.3489 18.9459L66.1542 18.1346L70.7333 17.0317L70.9293 17.8431Z" fill="#9ED969"/>
<path d="M70.4727 31.4113H66.6095V30.9353H70.4727V31.4113Z" fill="#9ED969"/>
<path d="M57.9751 9.51945L57.4295 9.90641L55.1825 6.73975L55.7268 6.35278L57.9751 9.51945Z" fill="#9ED969"/>
<path d="M72.4746 51.7903H49.7727V47.8755H72.4746V51.7903Z" fill="#984651"/>
<path d="M86.3756 54.6111C87.0799 54.5183 87.5752 53.872 87.4836 53.1677L85.2676 36.3103C85.1747 35.6073 84.5285 35.1107 83.8242 35.2036C83.1212 35.2964 82.6246 35.9414 82.7175 36.6456L84.9335 53.5031C85.0264 54.2074 85.6713 54.7027 86.3756 54.6111Z" fill="#E49C62"/>
<path d="M84.8124 57.387C85.4921 57.1793 85.8739 56.4608 85.6676 55.781L80.7028 39.5208C80.4951 38.841 79.7767 38.4579 79.0982 38.6656C78.4184 38.8733 78.0353 39.5917 78.243 40.2715L83.2077 56.533C83.4141 57.2115 84.1339 57.5946 84.8124 57.387Z" fill="#6EC4DA"/>
<path d="M87.7235 55.0433C88.4135 55.2149 89.1114 54.7943 89.2816 54.1056L93.3809 37.6041C93.5524 36.9153 93.1319 36.2175 92.4431 36.0472C91.7543 35.8756 91.0565 36.2949 90.885 36.9849L86.7857 53.4851C86.6154 54.1752 87.0347 54.8717 87.7235 55.0433Z" fill="#85D16F"/>
<path d="M90.2762 54.2099C90.9212 54.5079 91.6848 54.2267 91.984 53.583L99.1222 38.1522C99.4202 37.5072 99.139 36.7436 98.4954 36.4444C97.8504 36.1464 97.0868 36.4276 96.7889 37.0725L89.6494 52.5034C89.3514 53.1471 89.6326 53.912 90.2762 54.2099Z" fill="#9D4A54"/>
<path d="M83.5083 70.5437H97.1243V49.9224H83.5083V70.5437Z" fill="#DCD2CA"/>
<path d="M80.7518 70.5437H87.6088V49.9224H80.7518V70.5437Z" fill="#C8BEB6"/>
<path d="M132.6 72.3276L212.618 74.8764C213.995 74.8764 216.867 71.5988 217.515 70.5424C218.048 69.6756 218.234 68.5895 217.908 67.5073L200.891 11.1278C200.292 9.13883 198.46 7.7793 196.382 7.7793H114.656C113.541 7.7793 112.565 8.25784 111.89 9.00082C111.049 9.92824 108.211 12.0527 108.211 13.7876L128.09 68.9791C128.692 70.9681 130.523 72.3276 132.6 72.3276Z" fill="#DCD2CA"/>
<path d="M129.897 75.0313H211.623C214.131 75.0313 215.929 72.6115 215.204 70.2097L198.188 13.8302C197.588 11.8425 195.756 10.4817 193.68 10.4817H111.953C109.445 10.4817 107.647 12.9015 108.372 15.3033L125.388 71.6828C125.988 73.6705 127.819 75.0313 129.897 75.0313Z" fill="#C8BEB6"/>
<path d="M129.898 75.0312H211.623C214.131 75.0312 108.372 15.3032 108.372 15.3032L125.388 71.6827C125.988 73.6704 127.82 75.0312 129.898 75.0312Z" fill="#BAADA2"/>
<path d="M161.88 42.0296C162.375 45.7948 160.301 49.173 157.248 49.5742C154.196 49.9753 151.32 47.2485 150.825 43.4833C150.329 39.7182 152.403 36.34 155.457 35.9388C158.51 35.5377 161.386 38.2645 161.88 42.0296Z" fill="#BAADA2"/>
<path d="M165.452 55.483L161.759 74.9022L151.085 75.0312L160.429 55.4043L165.452 55.483Z" fill="#8E827C"/>
<path d="M151.085 59.2418H163.845V52.4841H151.085V59.2418Z" fill="#C8BEB6"/>
<path d="M165.452 55.8636C165.452 57.7288 164.732 59.2418 163.845 59.2418C162.956 59.2418 162.236 57.7288 162.236 55.8636C162.236 53.9972 162.956 52.4841 163.845 52.4841C164.732 52.4841 165.452 53.9972 165.452 55.8636Z" fill="#DCD2CA"/>
<path d="M189.333 95.8537C189.333 94.4336 188.182 93.283 186.762 93.283H162.973C157.834 93.283 153.767 89.7384 152.611 85.2315C151.934 82.5963 152.49 79.7947 153.82 77.4226L162.668 57.5132L162.761 53.2786L149.22 80.9569C147.369 85.9977 153.45 95.8537 159.32 95.8473H183.109C183.131 95.8473 183.15 95.8537 183.172 95.8537H189.333Z" fill="#DCD2CA"/>
<path d="M159.32 95.8475C157.608 95.8488 155.878 95.0117 154.332 93.6999C149.334 89.4587 148.53 82.0213 152.096 76.5199L162.761 53.2788L150.06 53.1924L133.18 75.3577C128.427 79.8581 127.696 87.3898 131.924 92.3855C133.691 94.4751 136.067 95.854 138.82 95.854H183.172C183.15 95.854 183.131 95.8475 183.109 95.8475H159.32Z" fill="#C8BEB6"/>
<path d="M152.692 55.8636C152.692 57.7288 151.973 59.2418 151.085 59.2418C150.198 59.2418 149.478 57.7288 149.478 55.8636C149.478 53.9972 150.198 52.4841 151.085 52.4841C151.973 52.4841 152.692 53.9972 152.692 55.8636Z" fill="#C8BEB6"/>
<path d="M40.5577 100.326H381.518V95.8525H40.5577V100.326Z" fill="#3F1C3F"/>
<path d="M381.507 100.326H302.287V95.8513H381.507V100.326Z" fill="#6E5873"/>
<path d="M67.2467 105.787H361.496V100.326H67.2467V105.787Z" fill="#3F1C3F"/>
<path d="M354.487 119.398L366.516 237.814H369.382L361.857 115.555L354.487 119.398Z" fill="#6E5873"/>
<path d="M361.18 104.555H352.98L354.487 119.398L361.857 115.556L361.18 104.555Z" fill="#3F1C3F"/>
<path d="M312.021 104.555L309.67 142.767L316.714 139.095L320.22 104.555H312.021Z" fill="#3F1C3F"/>
<path d="M303.819 237.814H306.685L316.714 139.094L309.67 142.767L303.819 237.814Z" fill="#6E5873"/>
<path d="M109.774 119.398L121.801 237.814H124.668L117.145 115.555L109.774 119.398Z" fill="#6E5873"/>
<path d="M116.467 104.555H108.266L109.774 119.398L117.145 115.556L116.467 104.555Z" fill="#3F1C3F"/>
<path d="M67.306 104.555L64.9546 142.767L71.9986 139.095L75.5071 104.555H67.306Z" fill="#3F1C3F"/>
<path d="M59.1063 237.814H61.9724L71.9987 139.094L64.9547 142.767L59.1063 237.814Z" fill="#6E5873"/>
<path d="M201.882 91.9263H253.182L279.058 93.6637C280.21 93.7411 281.105 94.6982 281.105 95.8527H197.956C197.956 93.6844 199.714 91.9263 201.882 91.9263Z" fill="#C8BEB6"/>
<path d="M281.105 95.8527H253.182V91.9263L279.058 93.6637C280.21 93.7411 281.105 94.6982 281.105 95.8527Z" fill="#DCD2CA"/>
</svg>
