<svg width="386" height="441" viewBox="0 0 386 441" fill="none" xmlns="http://www.w3.org/2000/svg">
<path d="M385.684 435.32C385.684 438.198 375.533 440.531 203.956 440.531C12.7685 440.531 0 438.198 0 435.32C0 432.442 19.2368 430.104 203.956 430.104C316.599 430.104 385.684 432.442 385.684 435.32Z" fill="#867897"/>
<path d="M223.545 299.082C223.533 299.082 223.52 299.082 223.507 299.082L221.737 299.064C197.437 298.837 185.579 298.244 183.293 297.146C182.321 296.679 180.693 295.898 173.368 271.669C169.831 259.967 166.652 248.309 166.621 248.192L169.334 247.454C174.305 265.707 182.29 292.275 184.599 294.649C186.087 295.243 193.841 295.989 221.763 296.252L223.537 296.269C223.8 296.173 226.583 294.636 229.94 271.773C231.705 259.758 232.738 247.82 232.749 247.702L235.552 247.942C235.54 248.069 234.453 260.611 232.605 272.983C229.184 295.864 226.23 299.082 223.545 299.082Z" fill="#4D4D4D"/>
<path d="M166.213 252.83C166.213 252.83 244.96 253.291 253.72 252.83C262.478 252.369 258.995 238.08 251.75 236.237C244.504 234.394 161.082 233.01 157.855 233.933C154.629 234.855 158.434 252.788 166.213 252.83Z" fill="#E74854"/>
<path d="M251.837 242.661C251.488 241.706 251.095 240.694 250.535 239.84C249.952 238.952 249.13 238.59 248.14 238.306C243.852 237.075 239.246 237.022 234.824 236.684C233.921 236.615 233.926 238.023 234.824 238.092C238.842 238.397 242.984 238.471 246.912 239.435C247.755 239.642 248.795 239.787 249.321 240.551C249.848 241.315 250.205 242.267 250.517 243.135C251.18 244.979 251.539 246.906 251.592 248.865C251.616 249.768 253.022 249.771 252.998 248.865C252.942 246.752 252.565 244.646 251.837 242.661Z" fill="#BA272D"/>
<path d="M124.109 296.899C109.186 295.152 62.5661 165.471 66.874 153.223C71.1836 140.975 152.581 140.139 173.17 155.879C193.758 171.619 221.529 274.563 232.062 275.519C242.596 276.477 257.918 275.04 259.354 283.66C260.791 292.279 261.055 296.595 256.001 296.899C250.945 297.203 139.03 298.646 124.109 296.899Z" fill="#E74854"/>
<path d="M179.343 280.237H133.234C133.059 280.237 132.89 280.189 132.741 280.098C132.425 279.903 124.9 275.093 115.908 254.745C112.13 246.195 107.856 233.953 103.33 220.994C93.6698 193.324 82.7189 161.964 73.219 156.699C72.7658 156.449 72.6025 155.877 72.8523 155.424C73.1037 154.972 73.6739 154.807 74.1271 155.059C84.2531 160.67 95.3289 192.39 105.101 220.376C109.614 233.298 113.875 245.506 117.623 253.986C125.569 271.97 132.292 277.465 133.524 278.362H179.343C179.861 278.362 180.28 278.781 180.28 279.3C180.28 279.818 179.861 280.237 179.343 280.237Z" fill="#BA272D"/>
<path d="M197.827 297.676H147.013C147.013 297.676 144.619 313.101 150.842 315.636C154.87 317.278 165.449 317.385 172.42 317.257C179.391 317.385 189.971 317.278 193.997 315.636C200.221 313.101 197.827 297.676 197.827 297.676Z" fill="#4D4D4D"/>
<path d="M180.112 368.992H163.426V317.295H180.112V368.992Z" fill="#656565"/>
<path d="M168.247 332.288C172.169 331.274 176.131 330.435 180.112 329.689V317.295H163.426V333.648C165.023 333.159 166.629 332.704 168.247 332.288Z" fill="#4D4D4D"/>
<path d="M169.799 368.992C169.799 368.992 164.061 368.103 164.277 372.85C164.493 377.597 164.27 378.891 164.27 378.891L143.695 402.412C143.695 402.412 143.695 418.859 143.695 423.402C143.695 427.944 150.253 427.431 150.346 424.291C150.507 418.872 150.346 407.056 150.346 407.056L178.142 384.504V368.992H169.799Z" fill="#4D4D4D"/>
<path d="M172.087 368.992C172.087 368.992 177.825 368.103 177.609 372.85C177.393 377.597 177.615 378.891 177.615 378.891L210.516 402.412C210.516 402.412 210.516 418.859 210.516 423.402C210.516 427.944 203.958 427.431 203.865 424.291C203.702 418.872 203.865 407.056 203.865 407.056L163.743 384.504V368.992H172.087Z" fill="#656565"/>
<path d="M196.958 422.921C196.958 428.916 201.815 433.77 207.805 433.77C213.796 433.77 218.653 428.916 218.653 422.921C218.653 416.932 213.796 412.075 207.805 412.075C201.815 412.075 196.958 416.932 196.958 422.921Z" fill="#656565"/>
<path d="M213.072 416.404C211.97 414.948 210.494 413.857 208.763 413.271C207.903 412.98 207.534 414.338 208.388 414.628C212.054 415.87 213.972 419.765 213.484 423.484C212.986 427.263 210 430.897 205.897 430.469C204.997 430.375 205.005 431.781 205.897 431.875C209.49 432.249 212.659 429.802 214.044 426.616C215.474 423.328 215.272 419.314 213.072 416.404Z" fill="#4D4D4D"/>
<path d="M136.091 422.921C136.091 428.916 140.947 433.77 146.938 433.77C152.929 433.77 157.786 428.916 157.786 422.921C157.786 416.932 152.929 412.075 146.938 412.075C140.947 412.075 136.091 416.932 136.091 422.921Z" fill="#4D4D4D"/>
<path d="M152.205 416.404C151.103 414.948 149.627 413.857 147.895 413.271C147.035 412.98 146.667 414.338 147.521 414.628C151.186 415.87 153.105 419.765 152.616 423.484C152.118 427.263 149.133 430.897 145.03 430.469C144.132 430.375 144.138 431.781 145.03 431.875C148.622 432.249 151.792 429.802 153.177 426.616C154.607 423.328 154.405 419.314 152.205 416.404Z" fill="#656565"/>
<path d="M114.301 422.921C114.301 428.916 109.444 433.77 103.453 433.77C97.462 433.77 92.6063 428.916 92.6063 422.921C92.6063 416.932 97.462 412.075 103.453 412.075C109.444 412.075 114.301 416.932 114.301 422.921Z" fill="#656565"/>
<path d="M163.426 368.992C163.426 368.992 157.688 368.103 157.904 372.85C158.121 377.597 157.898 378.891 157.898 378.891L98.5718 402.412C98.5718 402.412 98.5718 418.859 98.5718 423.402C98.5718 427.944 105.13 427.431 105.223 424.291C105.384 418.872 105.223 407.056 105.223 407.056L171.768 384.504V368.992H163.426Z" fill="#656565"/>
<path d="M107.612 416.404C106.51 414.948 105.034 413.857 103.303 413.271C102.443 412.98 102.074 414.338 102.928 414.628C106.594 415.87 108.512 419.765 108.024 423.484C107.526 427.263 104.54 430.897 100.438 430.469C99.5391 430.375 99.5455 431.781 100.438 431.875C104.03 432.249 107.199 429.802 108.584 426.616C110.016 423.328 109.813 419.314 107.612 416.404Z" fill="#4D4D4D"/>
<path d="M228.675 422.921C228.675 428.916 233.531 433.77 239.522 433.77C245.513 433.77 250.37 428.916 250.37 422.921C250.37 416.932 245.513 412.075 239.522 412.075C233.531 412.075 228.675 416.932 228.675 422.921Z" fill="#656565"/>
<path d="M179.55 368.992C179.55 368.992 185.286 368.103 185.072 372.85C184.856 377.597 185.077 378.891 185.077 378.891L244.405 402.412C244.405 402.412 244.405 418.859 244.405 423.402C244.405 427.944 237.847 427.431 237.752 424.291C237.59 418.872 237.752 407.056 237.752 407.056L171.206 384.504V368.992H179.55Z" fill="#656565"/>
<path d="M244.789 416.404C243.687 414.948 242.211 413.857 240.479 413.271C239.619 412.98 239.251 414.338 240.105 414.628C243.77 415.87 245.689 419.765 245.201 423.484C244.702 427.263 241.717 430.897 237.614 430.469C236.716 430.375 236.721 431.781 237.614 431.875C241.206 432.249 244.376 429.802 245.761 426.616C247.191 423.328 246.989 419.314 244.789 416.404Z" fill="#4D4D4D"/>
<path d="M126.221 107.878C122.682 106.337 118.338 106.308 115.081 108.544C114.769 108.698 114.458 108.864 114.143 109.06C106.148 114.059 104.348 110.35 97.3304 118.915C96.2078 120.284 95.4295 121.7 94.9074 123.111C93.0449 121.822 90.9166 120.971 88.5496 120.851C86.378 120.741 84.1183 121.293 82.3583 122.6C81.5064 123.233 80.7521 124.033 80.3069 125.007C79.8056 126.106 79.8376 127.118 80.0058 128.288C80.1659 129.403 79.7335 130.302 79.2787 131.29C78.8127 132.307 78.4315 133.352 78.2282 134.454C77.831 136.598 78.0072 138.751 78.8655 140.762C80.4318 144.43 84.1568 147.032 88.0948 147.415C90.0149 147.601 91.9303 147.242 93.6823 146.48C93.3668 149.043 93.7448 151.67 94.8498 154.074C95.074 154.562 95.7674 154.697 96.2046 154.447C96.7059 154.163 96.8036 153.582 96.5778 153.094C95.8667 151.545 95.5176 149.828 95.5256 148.115C96.9701 150.703 98.9928 152.98 101.164 154.996C102.098 155.864 103.51 154.464 102.569 153.592C99.9408 151.151 97.5226 148.345 96.2511 144.981C96.8532 144.531 97.4169 144.029 97.931 143.483C99.7583 146.787 103.293 150.132 107.948 152.863C115.353 157.203 122.403 153.427 122.403 153.427C129.259 149.915 133.783 125.372 131.499 119.421C130.162 115.936 127.18 111.27 123.335 109.002C124.105 109.169 124.858 109.418 125.569 109.753C129.06 111.391 131.511 114.537 133.21 117.909C133.786 119.053 135.513 118.068 134.938 116.929C133.04 113.163 130.17 109.599 126.221 107.878Z" fill="#802C30"/>
<path d="M104.194 143.171C104.8 141.703 106.592 141.334 108.011 141.269C108.77 141.235 109.535 141.281 110.288 141.389C110.839 141.467 111.862 142.301 112.184 141.515C112.343 141.124 112.176 140.686 112.003 140.301C111.598 139.396 111.148 138.508 110.591 137.688C110.197 137.11 109.747 136.56 109.478 135.915C109.069 134.935 109.114 133.818 108.754 132.819C108.496 132.103 108.033 131.463 107.863 130.72C107.561 129.387 108.261 128.031 109.113 126.961C109.965 125.893 111.004 124.943 111.576 123.702C112.7 121.266 112.03 118.661 114.164 116.619C116.444 114.436 120.589 114.357 123.386 115.523C133.535 119.807 146.459 127.03 147.061 138.002C146.553 145.216 139.358 147.94 139.44 147.873L142.335 150.589C142.335 150.589 145.187 152.173 150.134 151.92C155.081 151.665 155.682 178.732 149.881 182.234C142.583 186.379 125.457 156.361 125.457 156.361C123.79 154.764 117.873 149.798 115.864 148.108C115.864 148.108 112.178 153.672 106.957 149.598C105.601 148.533 103.027 145.918 104.194 143.171Z" fill="#E5936F"/>
<path d="M133.87 127.97C133.498 127.666 132.915 127.719 132.613 128.096C132.315 128.468 132.019 128.84 131.721 129.211C131.42 129.587 131.471 130.161 131.847 130.468C132.219 130.773 132.802 130.718 133.103 130.342C133.401 129.97 133.698 129.599 133.996 129.227C134.297 128.851 134.245 128.277 133.87 127.97Z" fill="#CF5D4C"/>
<path d="M113.686 125.946C113.712 127.193 113.656 126.884 113.75 128.13C113.846 129.395 114.099 130.644 114.244 131.905C114.373 133.04 116.157 132.936 116.026 131.789C115.882 130.531 115.622 129.28 115.533 128.016C115.443 126.769 115.494 127.078 115.467 125.83C115.443 124.682 113.661 124.796 113.686 125.946Z" fill="#802C30"/>
<path d="M124.842 119.511C124.567 119.458 124.324 119.272 124.218 119.002C124.058 118.595 124.267 118.148 124.687 118.004C125.183 117.834 125.707 117.652 126.228 117.612C126.883 117.559 127.56 117.602 128.217 117.597C128.492 117.596 128.771 117.594 129.037 117.661C129.304 117.729 129.564 117.874 129.711 118.108C130.347 119.114 128.587 118.947 128.049 118.992C127.11 119.071 126.165 119.178 125.27 119.481C125.129 119.529 124.982 119.537 124.842 119.511Z" fill="#802C30"/>
<path d="M121.413 133.46C121.063 134.117 120.015 134.179 119.679 133.526C119.298 132.784 119.83 131.436 120.308 130.816C121.029 129.882 122.088 129.206 122.72 129.165C123.828 129.091 124.549 130.023 124.008 130.347C121.754 131.692 121.67 132.984 121.413 133.46Z" fill="#1A1A1A"/>
<path d="M134.225 121.609C134.091 120.496 132.414 120.576 131.679 120.726C130.875 120.893 130.166 121.234 129.624 121.886C129.495 122.041 129.386 122.235 129.41 122.437C129.467 122.892 129.732 123.226 130.167 123.386C131.053 123.712 131.32 122.832 131.966 122.48C133.216 121.796 134.289 122.144 134.225 121.609Z" fill="#1A1A1A"/>
<path d="M127.361 150.611C131.99 152.692 136.304 152.538 141.576 149.878L139.443 147.879L139.432 147.866C139.432 147.866 139.393 147.884 139.384 147.887C135.404 149.726 130.547 150.386 127.361 150.611Z" fill="#1A1A1A"/>
<path d="M97.9313 143.483C97.9313 143.483 92.7298 136.94 94.7348 131.679C94.7348 131.679 93.8044 125.423 94.9078 123.111C96.0112 120.798 94.4225 120.523 92.2958 122.919C90.1706 125.316 88.4234 129.637 90.3612 137.097C92.299 144.555 95.1432 145.794 96.2802 145.703C97.4173 145.612 98.3621 145.078 97.9313 143.483Z" fill="white"/>
<path d="M125.368 156.463C125.368 156.463 133.905 161.421 147.476 181.207C149.229 183.763 150.085 151.973 150.085 151.973C150.085 151.973 157.895 173.823 156.745 184.161C155.597 194.498 151.085 204.424 145.343 198.353C139.6 192.282 125.368 156.463 125.368 156.463Z" fill="white"/>
<path d="M156.081 177.383C155.741 177.185 155.269 177.27 155.065 177.591C154.074 179.153 152.213 182.463 151.252 184.044C151.055 184.369 151.182 184.817 151.505 185.006C151.838 185.202 152.269 185.08 152.468 184.753C153.429 183.174 155.341 179.907 156.332 178.346C156.535 178.024 156.399 177.569 156.081 177.383Z" fill="#ABBBCC"/>
<path d="M147.505 185.674C145.712 184.835 142.044 182.855 140.303 182.14C139.952 181.995 139.263 182.14 139.163 182.506C139.062 182.873 139.367 183.256 139.704 183.435C141.308 184.286 144.977 186.169 146.795 186.888C147.147 187.027 147.561 186.97 147.756 186.635C147.945 186.315 147.849 185.836 147.505 185.674Z" fill="#ABBBCC"/>
<path d="M239.597 332.642C239.613 332.642 267.187 331.284 267.959 324.207C268.729 317.129 260.182 315.913 244.272 320.493C228.361 325.073 228.488 333.058 239.597 332.642Z" fill="#352424"/>
<path d="M266.646 260.304C266.646 260.304 221.457 370.424 216.76 381.703C216.76 381.703 213.48 420.417 215.562 424.582C217.644 428.748 217.353 435.258 211.933 434.881C206.514 434.5 177.073 389.017 182.015 385.258L199.413 373.061C199.413 373.061 224.311 263.419 233.953 253.294C243.596 243.171 266.329 250.432 266.646 260.304Z" fill="#E5936F"/>
<path d="M248.314 276.397C248.314 276.397 272.437 393.826 276.852 405.216C276.852 405.216 305.704 425.583 310.329 426.132C314.954 426.682 321.429 431.765 316.938 434.819C315.961 435.488 259.465 438.755 259.039 432.556L257.548 409.421C257.548 409.421 219.91 307.944 219.864 293.963C219.819 279.983 241.253 269.493 248.314 276.397Z" fill="#E5936F"/>
<path d="M240.42 324.976C238.657 328.405 232.887 342.685 231.258 346.179C231.055 346.618 231.135 347.145 231.58 347.406C231.967 347.632 232.6 347.525 232.805 347.084C234.434 343.59 240.204 329.308 241.967 325.881C242.492 324.856 240.948 323.949 240.42 324.976Z" fill="#D97F64"/>
<path d="M316.938 434.819C321.429 431.765 314.954 426.682 310.329 426.133C309.999 426.091 309.544 425.952 308.988 425.726C304.786 425.931 298.894 426.051 294.641 425.465C288.581 424.635 281.377 418.638 277.534 416.199C272.939 413.284 270.052 412.262 257.73 412.262L259.039 432.556C259.465 438.755 315.961 435.488 316.938 434.819Z" fill="#6B4E4E"/>
<path d="M318.389 432.947C309.975 433.289 287.386 433.273 284.552 433.023C281.491 432.758 277.556 426.44 275.515 426.004C273.854 425.649 262.621 424.705 258.51 424.369L259.039 432.556C259.465 438.755 315.961 435.488 316.938 434.819C317.776 434.253 318.231 433.61 318.389 432.947Z" fill="white"/>
<path d="M204.82 403.637C204.211 397.839 202.853 388.504 196.823 374.876L182.015 385.258C177.073 389.017 206.514 434.5 211.933 434.881C217.353 435.258 217.644 428.748 215.562 424.582C215.41 424.28 215.287 423.791 215.187 423.143C213.21 420.246 205.43 409.429 204.82 403.637Z" fill="#6B4E4E"/>
<path d="M194.213 405.892C194.384 403.85 195.207 395.106 194.213 392.92C193.47 391.288 190.251 384.056 188.665 380.494L181.869 385.258C176.927 389.017 206.366 434.5 211.786 434.881C212.343 434.918 212.844 434.881 213.296 434.787C206.866 426.845 194.054 407.778 194.213 405.892Z" fill="white"/>
<path d="M268.865 260.086C266.699 249.992 250.932 246.15 237.938 244.667L195.682 235.271L191.183 231.265C183.85 222.511 180.162 215.541 180.232 213.887C180.709 211.506 181.51 209.14 182.024 206.839C182.57 204.402 182.823 201.948 182.412 199.469C181.947 196.682 180.991 195.787 180.562 192.988C180.291 191.226 180.144 189.445 180.104 187.663C180.138 187.511 180.179 187.444 180.231 187.479C180.969 187.97 185.4 191.908 186.63 191.663C187.862 191.417 196.256 173.386 195.518 169.94C194.782 166.493 184.004 157.447 179.819 154.987C175.634 152.525 159.338 151.479 159.338 151.479C159.338 151.479 153.922 187.415 151.707 191.844C149.492 196.276 122.171 157.879 118.233 159.109C114.295 160.34 105.767 165.592 103.059 167.561C100.351 169.53 89.6981 184.59 89.6981 184.59C89.6981 184.59 104.874 199.192 106.597 200.177C108.318 201.162 116.431 193.1 116.431 193.1C116.431 193.1 118.172 197.619 121.619 204.512C124.871 211.017 133.74 226.944 135.514 234.131C135.518 234.133 135.521 234.133 135.524 234.133C139.271 252.75 140.189 269.331 145.138 275.374C149.702 280.947 158.777 280.479 172.449 280.22C172.395 280.268 172.361 280.298 172.361 280.298C172.361 280.298 198.678 280.285 202.019 283.386C207.172 288.173 206.845 341.107 206.845 341.107C206.845 341.107 260.906 313.743 267.959 324.207C267.959 324.207 273.98 283.908 268.865 260.086Z" fill="#6B4E4E"/>
<path d="M124.85 176.398L115.551 192.296L115.874 193.643C116.225 193.303 116.431 193.1 116.431 193.1C116.431 193.1 117.24 195.198 118.842 198.71C122.342 189.362 124.85 176.398 124.85 176.398Z" fill="#4A3333"/>
<path d="M150.085 151.973L159.338 151.479L158.074 160.095C158.074 160.095 162.791 162.582 162.791 163.763C162.791 164.941 151.183 184.005 151.183 184.005L150.085 151.973Z" fill="white"/>
<path d="M138.034 177.124C138.034 177.124 125.76 156.463 125.368 156.463C124.975 156.463 118.233 159.109 118.233 159.109C118.233 159.109 124.149 165.334 124.541 166.251C124.934 167.167 121.66 171.097 122.576 172.8C123.494 174.504 144.628 184.135 144.628 184.135L138.034 177.124Z" fill="white"/>
<path d="M203.785 288.296C202.712 283.877 201.926 279.393 201.448 274.872C201.396 274.37 201.056 273.936 200.512 273.936C200.046 273.936 199.52 274.366 199.573 274.872C200.068 279.561 200.864 284.212 201.975 288.794C202.26 289.966 204.07 289.47 203.785 288.296Z" fill="#E74854"/>
<path d="M149.937 299.082C149.924 299.082 149.912 299.082 149.899 299.082L148.129 299.064C123.828 298.837 111.973 298.244 109.686 297.146C108.712 296.679 107.085 295.898 99.7616 271.669C96.224 259.967 93.0451 248.309 93.0131 248.192L95.7275 247.454C100.698 265.707 108.682 292.275 110.991 294.649C112.479 295.243 120.233 295.989 148.155 296.252L149.931 296.269C150.192 296.173 152.977 294.636 156.332 271.773C158.097 259.758 159.13 247.82 159.141 247.702L161.943 247.942C161.932 248.069 160.846 260.611 158.997 272.983C155.578 295.864 152.621 299.082 149.937 299.082Z" fill="#6E8BA9"/>
<path d="M92.6063 252.83C92.6063 252.83 171.354 253.291 180.112 252.83C188.87 252.369 185.387 238.08 178.142 236.237C170.896 234.394 87.4736 233.01 84.2467 233.933C81.0213 234.855 84.828 252.788 92.6063 252.83Z" fill="#E74854"/>
<path d="M178.229 242.661C177.879 241.706 177.487 240.694 176.928 239.84C176.345 238.952 175.522 238.59 174.532 238.306C170.245 237.075 165.638 237.022 161.218 236.684C160.315 236.615 160.319 238.023 161.218 238.092C165.234 238.397 169.376 238.471 173.304 239.435C174.148 239.642 175.187 239.787 175.713 240.551C176.239 241.315 176.597 242.267 176.909 243.135C177.574 244.979 177.931 246.906 177.983 248.865C178.008 249.768 179.414 249.771 179.39 248.865C179.334 246.752 178.957 244.646 178.229 242.661Z" fill="#BA272D"/>
<path d="M109.881 166.455C109.881 166.455 111.46 165.824 116.982 167.244C122.504 168.663 125.345 172.135 125.976 173.556C126.607 174.975 105.149 215.999 98.205 220.89C91.2642 225.781 79.1139 221.68 75.1695 217.261C71.2251 212.843 76.7469 199.748 78.3244 196.591C79.9034 193.436 107.314 167.372 109.881 166.455Z" fill="#6B4E4E"/>
<path d="M109.426 167.332C109.426 167.332 109.346 167.653 109.601 167.96C110.178 168.658 112.471 171.775 118.268 173.943C124.077 176.116 125.467 174.936 125.957 173.889C126.445 172.84 125.257 171.512 123.161 169.067L109.426 167.332Z" fill="#1A1A1A"/>
<path d="M122.536 172.92C122.536 172.92 127.003 166.099 126.746 162.949C126.492 159.799 122.49 153.329 116.616 149.497C110.74 145.666 101.459 140.812 100.522 140.897C99.5872 140.984 98.5494 142.443 97.2923 142.197C96.0335 141.952 94.0765 141.325 93.0628 141.952C92.0507 142.582 91.7016 143.664 91.0369 143.596C90.3739 143.525 89.2545 144.049 89.2545 144.049C89.2545 144.049 90.8624 147.369 91.4918 148.347C92.1195 149.326 92.0859 150.932 92.8882 151.875C93.6922 152.82 104.699 158.409 108.333 160.086C111.967 161.764 111.508 162.557 111.508 163.744C111.508 164.932 110.673 166.096 109.486 167.214C108.298 168.333 120.914 174.642 122.536 172.92Z" fill="#E5936F"/>
<path d="M125.629 156.98C124.015 154.098 121.436 151.899 118.763 150.03C115.801 147.958 112.663 146.111 109.48 144.401C107.861 143.53 106.221 142.702 104.558 141.914C103.726 141.52 102.891 141.118 102.039 140.769C101.346 140.485 100.587 140.276 99.834 140.399C99.432 140.466 99.0621 140.634 98.7498 140.895C98.4375 141.156 98.2613 141.507 97.8177 141.517C96.9706 141.536 96.0721 141.163 95.233 141.051C94.3666 140.932 93.489 140.948 92.6898 141.336C92.3103 141.518 91.9948 141.794 91.6921 142.084C91.5416 142.226 91.0195 142.82 90.7633 142.599C90.5167 142.386 90.2044 142.335 89.9113 142.49C89.0897 142.926 88.723 143.836 88.7759 144.737C88.8367 145.748 89.3732 146.532 89.9689 147.312C90.2924 147.735 90.6256 148.161 90.8353 148.654C91.082 149.234 91.2005 149.86 91.4487 150.442C91.8539 151.383 92.5217 152.189 93.2872 152.863C95.0392 154.409 97.1451 155.635 99.1726 156.782C101.32 157.997 103.548 159.062 105.835 159.99C107.015 160.468 108.264 160.819 109.419 161.357C110.219 161.729 111.236 162.286 111.268 163.284C111.297 164.187 111.943 164.368 111.914 163.462C111.853 161.562 110.879 160.404 109.3 159.793C107.135 158.953 104.978 158.169 102.886 157.149C100.756 156.109 98.6921 154.934 96.7111 153.632C94.9303 152.461 93.1334 151.274 92.4768 149.141C92.2959 148.55 92.1085 147.967 91.7818 147.437C91.4695 146.933 91.074 146.488 90.7361 146.002C90.3821 145.493 89.8905 144.492 90.3453 143.929C90.7553 144.074 91.2021 144.049 91.6457 143.856C92.3583 143.549 92.7523 142.798 93.4714 142.521C94.879 141.98 96.3988 142.92 97.8177 142.924C98.6633 142.926 99.022 142.49 99.6194 142C100.225 141.502 101.118 141.893 101.745 142.16C103.365 142.854 104.952 143.643 106.522 144.441C109.734 146.071 112.865 147.863 115.897 149.809C118.6 151.542 121.308 153.428 123.292 155.994C125.417 158.739 126.593 162.417 125.435 165.806C125.142 166.665 126.082 166.767 126.373 165.913C127.419 162.853 127.179 159.751 125.629 156.98Z" fill="#D97F64"/>
<path d="M107.002 168.878C103.482 173.469 99.8642 177.998 95.8798 182.197C93.9036 184.281 91.8345 186.274 89.6613 188.151C87.7731 189.783 85.8258 191.354 84.0658 193.126C82.1072 195.097 80.4352 197.315 79.4231 199.919C79.0756 200.814 79.9115 200.99 80.2559 200.105C82.0719 195.435 86.8955 192.495 90.5677 189.333C94.8276 185.666 98.6631 181.552 102.257 177.234C104.327 174.749 106.32 172.198 108.29 169.63C108.872 168.87 107.578 168.127 107.002 168.878Z" fill="#4A3333"/>
<path d="M135.249 206.213C135.249 206.213 131.556 210.321 130.845 211.874C130.58 212.451 130.126 212.824 130.206 212.974C130.403 213.347 130.827 212.555 131.266 212.353C131.705 212.151 135.354 209.214 136.786 207.885C138.218 206.554 135.249 206.213 135.249 206.213Z" fill="#F4B558"/>
<path d="M163.212 201.959C163.212 201.959 157.48 199.073 155.616 198.438C153.752 197.8 149.437 195.96 147.247 195.68C145.054 195.398 143.424 196.695 142.843 196.942C142.261 197.189 141.441 199.362 141.441 199.362C141.441 199.362 137.007 202.517 135.681 203.186C134.355 203.855 133.586 205.699 134.183 206.2C134.781 206.703 136.222 206.594 136.222 206.594C136.222 206.594 136.153 207.87 137.225 208.38C138.294 208.889 139.13 208.751 139.13 208.751C139.13 208.751 137.936 209.441 138.326 210.385C138.719 211.328 141.867 211.56 141.867 211.56C141.867 211.56 142.085 212.747 143.903 213.24C145.722 213.733 158.22 215.252 160.113 215.282C162.004 215.314 164.249 216.694 165.833 216.541C167.417 216.387 163.212 201.959 163.212 201.959Z" fill="#E5936F"/>
<path d="M148.016 200.201C146.875 200.633 145.653 200.654 144.464 200.854C143.379 201.035 142.385 201.407 141.437 201.956C139.578 203.034 138.455 205.044 136.62 206.157C136.006 206.528 136.288 207.006 136.897 206.636C138.694 205.545 140.167 204.006 141.97 202.928C142.904 202.371 143.9 202.052 144.974 201.902C146.137 201.738 147.311 201.66 148.419 201.239C149.089 200.984 148.687 199.946 148.016 200.201Z" fill="#D97F64"/>
<path d="M141.441 199.362C141.441 199.362 143.824 198.86 145.067 198.72C145.067 198.72 152.519 192.792 152.91 192.041C153.3 191.292 151.681 189.542 150.714 189.658C149.747 189.775 141.441 199.362 141.441 199.362Z" fill="#F4B558"/>
<path d="M150.503 204.546C149.651 204.834 148.741 204.727 147.858 204.725C146.952 204.723 146.089 204.896 145.242 205.215C143.379 205.92 141.424 207.454 139.63 208.314C138.95 208.641 139.545 209.198 140.232 208.868C142.026 208.008 143.807 207.018 145.669 206.315C146.542 205.985 147.396 205.884 148.325 205.902C149.215 205.92 150.073 205.936 150.928 205.646C151.648 205.402 151.22 204.302 150.503 204.546Z" fill="#D97F64"/>
<path d="M152.203 210.04C151.455 210.191 150.688 210.354 149.92 210.33C149.146 210.306 148.384 210.155 147.609 210.141C145.999 210.109 144.414 210.402 142.838 210.7C142.098 210.839 141.898 211.53 142.647 211.387C144.218 211.091 146.145 211.257 147.753 211.315C148.523 211.344 149.284 211.497 150.056 211.504C150.828 211.51 151.582 211.365 152.335 211.212C153.071 211.063 152.95 209.89 152.203 210.04Z" fill="#D97F64"/>
<path d="M180.096 189.018C181.358 189.649 189.534 194.269 190.639 195.848C191.742 197.425 164.16 200.22 162.74 200.694C161.321 201.167 164.73 215.173 166.623 218.171C168.518 221.169 215.197 219.896 222.771 218.003C230.345 216.108 237.53 210.319 231.692 200.379C225.853 190.438 183.736 156.104 179.318 154.684C174.9 153.265 180.096 189.018 180.096 189.018Z" fill="#6B4E4E"/>
<path d="M212.615 191.156C206.45 192.898 200.217 194.405 193.936 195.67C196.543 194.26 199.188 192.916 201.873 191.652C202.739 191.244 201.985 189.958 201.12 190.365C197.26 192.182 193.478 194.154 189.777 196.276C189.658 196.343 189.575 196.428 189.517 196.521C187.334 196.92 185.147 197.285 182.956 197.624C181.278 191.385 180.139 185.013 179.572 178.576C179.489 177.628 177.998 177.62 178.081 178.576C178.654 185.085 179.787 191.534 181.473 197.847C179.476 198.143 177.474 198.419 175.469 198.665C171.898 199.104 168.319 199.463 164.733 199.748C163.782 199.823 163.774 201.314 164.733 201.237C177.471 200.228 190.132 198.252 202.566 195.307C206.067 194.477 209.548 193.571 213.011 192.592C213.932 192.331 213.541 190.893 212.615 191.156Z" fill="#4A3333"/>
<path d="M139.243 136.591C139.238 136.605 139.232 136.619 139.228 136.634C139.107 136.511 139.038 136.374 138.943 136.19C138.937 136.181 138.926 136.155 138.916 136.131C139.043 136.213 139.179 136.238 139.312 136.23C139.31 136.235 139.31 136.242 139.31 136.248C139.294 136.363 139.273 136.479 139.243 136.591ZM140.708 133.822C140.58 133.106 140.385 132.206 139.861 131.666C139.204 130.986 138.229 131.182 137.72 131.921C137.251 132.6 137.1 133.573 137.055 134.377C137.005 135.263 137.154 136.176 137.481 137.001C137.584 137.26 137.785 137.462 138.038 137.524C138.456 138.019 139.059 138.363 139.723 138.134C140.527 137.857 140.713 136.994 140.799 136.25C140.895 135.438 140.852 134.624 140.708 133.822Z" fill="white"/>
<path d="M114.511 217.122L115.422 215.288L114.146 213.093L188.137 213.277L187.403 214.925L189.051 216.573L189.236 217.489L114.511 217.122Z" fill="#F8EFE5"/>
<path d="M365.312 228.023C364.98 300.36 363.987 416.383 362.565 430.031C356.465 430.306 332.379 429.211 326.175 428.375C325.384 414.793 325.331 301.253 325.499 230.315L321.026 230.305C321.022 230.783 320.911 286.522 320.969 333.885C321.002 361.707 321.084 383.913 321.215 399.889C321.289 409.381 321.387 416.756 321.497 421.802C321.555 424.533 321.621 426.64 321.691 428.075C321.805 430.458 321.854 431.441 322.916 432.162C323.457 432.532 324.47 433.216 343.846 434.135C351.443 434.495 356.297 434.614 359.417 434.614C364.234 434.614 364.935 434.332 365.246 434.201C366.726 433.597 366.862 432.064 367.051 429.936C367.177 428.464 367.304 426.296 367.427 423.5C367.653 418.338 367.874 410.803 368.087 401.103C368.439 384.783 368.765 362.098 369.059 333.678C369.556 285.3 369.78 228.532 369.785 228.044L365.312 228.023Z" fill="#333333"/>
<path d="M66.9875 228.023C66.656 300.36 65.6615 416.383 64.2394 430.031C58.1378 430.306 34.0534 429.211 27.8525 428.375C27.063 414.793 27.0069 301.253 27.1735 230.315L22.7006 230.305C22.699 230.783 22.5885 286.522 22.6445 333.885C22.6765 361.707 22.7598 383.913 22.8895 399.889C22.9664 409.381 23.0609 416.756 23.1714 421.802C23.2306 424.533 23.2963 426.64 23.3668 428.075C23.4821 430.458 23.5301 431.441 24.5903 432.162C25.1348 432.532 26.1469 433.216 45.5231 434.135C53.1204 434.495 57.9712 434.614 61.0941 434.614C65.9113 434.614 66.6112 434.332 66.9234 434.201C68.4032 433.597 68.5377 432.064 68.7235 429.936C68.8532 428.464 68.9813 426.296 69.103 423.5C69.3304 418.338 69.5514 410.803 69.7612 401.103C70.1136 384.783 70.4403 362.098 70.7333 333.678C71.2314 285.3 71.4588 228.532 71.4604 228.044L66.9875 228.023Z" fill="#333333"/>
<path d="M377.28 217.176V230.275H3.88196V217.176H377.28Z" fill="#7F2B30"/>
<path d="M119.045 219.202V227.152C119.045 228.11 120.536 228.111 120.536 227.152V219.202C120.536 218.243 119.045 218.241 119.045 219.202Z" fill="#391715"/>
<path d="M200.19 23.6794L200.936 28.7144L199.818 30.9484L200.748 32.6252L200.004 34.1177L198.325 41.2026L250.524 42.6952L248.847 22.9331L200.19 23.6794Z" fill="#F8EFE5"/>
<path d="M304.157 22.0153L249.749 21.7239L195.717 22.7456V24.6097L248.101 24.0524C248.101 24.0524 249.323 32.5674 248.427 39.8413L193.853 40.2721L193.665 43.0682L248.04 42.8664L304.411 43.105C304.411 43.105 306.766 33.7605 304.157 22.0153Z" fill="#B2A978"/>
<path d="M299.035 32.6219C299.216 35.2419 298.074 37.4551 296.481 37.5656C294.889 37.6761 293.451 35.6422 293.268 33.0238C293.088 30.4038 294.231 28.189 295.823 28.0785C297.413 27.968 298.853 30.0019 299.035 32.6219Z" fill="#1A1A1A"/>
<path d="M281.952 39.2424L281.36 25.7468L256.661 25.9054C256.661 25.9054 257.849 34.5116 256.814 39.8205L281.952 39.2424Z" fill="white"/>
<path d="M211.627 5.62113L212.575 8.93296L212.22 10.4752L213.285 12.6019L211.983 17.2222L211.39 20.8927L259.932 20.4171C259.932 20.4171 263.366 9.52711 263.01 5.1455C262.655 0.76709 258.393 0.76709 258.393 0.76709L211.627 5.62113Z" fill="#F8EFE5"/>
<path d="M304.157 22.0154H310.343C310.343 22.0154 311.797 8.73279 309.615 0.728667L259.215 0L203.538 5.27683L203.721 7.0961L258.851 2.36537C258.851 2.36537 262.126 9.09633 259.215 19.2849L203.903 20.3803V22.7456L258.987 21.9337L304.157 22.0154Z" fill="#F3B34E"/>
<path d="M306.022 11.2086C305.91 13.8318 304.802 15.9153 303.545 15.8609C302.289 15.808 301.362 13.6396 301.474 11.0164C301.585 8.39161 302.695 6.30971 303.95 6.36256C305.207 6.41541 306.135 8.58859 306.022 11.2086Z" fill="#1A1A1A"/>
<path d="M266.562 5.38257C266.562 5.38257 267.627 11.3032 266.799 16.0387L294.029 17.2222C294.029 17.2222 295.45 14.2627 294.148 6.44914L266.562 5.38257Z" fill="white"/>
<path d="M305.05 49.1843H268.958C268 49.1843 267.999 50.6769 268.958 50.6769H305.05C306.01 50.6769 306.011 49.1843 305.05 49.1843Z" fill="#E4C8B1"/>
<path d="M203.662 42.9658H311.727L310.712 49.053L313.08 57.7714L311.568 75.1553L313.167 86.1173L310.434 94.4273L312.577 106.506L311.048 159.412L312.063 179.96L310.034 187.823L311.557 194.418L310.034 204.82L312.571 217.25L207.058 217.186L205.772 207.609L203.996 197.717L205.772 190.613L204.251 186.809L206.027 178.437L203.996 173.364L202.475 157.89L205.002 103.876L203.127 94.8021L206.136 84.2244L203.388 69.4813L205.758 60.7949L203.662 42.9658Z" fill="#F8EFE5"/>
<path d="M310.435 94.4273L313.167 86.1173L311.568 75.1553L313.08 57.7714L310.712 49.053L311.727 42.9658H262.519L265.465 55.8816L263.198 62.6847L266.276 66.9942H229.578C228.619 66.9942 228.617 68.4836 229.578 68.4836H266.758L264.842 72.9565H223.946C222.986 72.9565 222.985 74.4474 223.946 74.4474H265.345L267.355 78.1773L266.221 109.544L269.623 122.014L266.977 129.949L267.152 136.889H216.326C215.368 136.889 215.367 138.38 216.326 138.38H267.19L267.294 142.521H212.683C211.725 142.521 211.723 144.01 212.683 144.01H267.331L268.111 174.92L268.489 183.233L267.355 187.013L268.867 192.68L266.221 196.838L206.136 196.46L266.221 200.617L265.843 205.529L218.606 208.553L265.843 210.064L266.767 217.223L312.571 217.25L310.034 204.82L311.557 194.42L310.034 187.823L312.063 179.96L311.048 159.412L312.577 106.506L310.435 94.4273Z" fill="#EED8BE"/>
<path d="M212.353 97.2201C213.346 96.8902 260.715 97.2201 260.715 97.2201C260.715 97.2201 225.933 107.822 223.614 109.146C221.295 110.471 212.353 97.2201 212.353 97.2201Z" fill="#EED8BE"/>
<path d="M213.014 105.503L272.31 105.171L250.778 116.764L213.014 105.503Z" fill="#EED8BE"/>
<path d="M273.634 86.6201H308.417L298.478 93.9084L273.634 86.6201Z" fill="#F8EFE5"/>
<path d="M250.778 61.3633H213.346C212.387 61.3633 212.385 62.8526 213.346 62.8526H250.778C251.736 62.8526 251.738 61.3633 250.778 61.3633Z" fill="#EED8BE"/>
<path d="M242.827 150.802H211.358C210.399 150.802 210.398 152.293 211.358 152.293H242.827C243.787 152.293 243.788 150.802 242.827 150.802Z" fill="#EED8BE"/>
<path d="M245.809 162.397H212.353C211.392 162.397 211.39 163.886 212.353 163.886H245.809C246.768 163.886 246.77 162.397 245.809 162.397Z" fill="#EED8BE"/>
<path d="M310.772 56.0063H269.839C268.881 56.0063 268.879 57.4973 269.839 57.4973H310.772C311.731 57.4973 311.733 56.0063 310.772 56.0063Z" fill="#E4C8B1"/>
<path d="M305.712 102.883H271.16C271.079 102.883 271.007 102.896 270.939 102.917C270.872 102.896 270.8 102.883 270.72 102.883C269.761 102.883 269.759 104.374 270.72 104.374C270.8 104.374 270.872 104.36 270.939 104.34C271.007 104.36 271.079 104.374 271.16 104.374H305.712C306.671 104.374 306.673 102.883 305.712 102.883Z" fill="#E4C8B1"/>
<path d="M309.672 122.029H272.48C271.521 122.029 271.519 123.52 272.48 123.52H309.672C310.632 123.52 310.633 122.029 309.672 122.029Z" fill="#E4C8B1"/>
<path d="M268.489 183.233L312.028 180.112L310.034 187.823L311.557 194.42L310.034 204.819L268.739 203.101L307.252 199.8L309.453 196.719L306.372 192.759L268.867 192.68L267.355 187.013L268.489 183.233Z" fill="#E4C8B1"/>
<path d="M35.1539 311.024C35.1539 310.681 29.6705 292.86 31.7268 291.832C33.783 290.804 75.2498 295.945 75.2498 295.945L62.2267 310.339L35.1539 311.024Z" fill="#D8AA8B"/>
<path d="M81.4569 295.173C80.235 278.083 76.6221 239.177 76.6221 239.177L44.6856 246.566C44.6856 246.566 45.2654 255.208 45.3278 256.994L49.8119 256.22L45.3871 258.816C45.4207 259.883 45.4576 261.109 45.4944 262.479L50.3708 260.728L45.528 263.793C45.5488 264.628 45.5697 265.502 45.5889 266.417C50.8817 265.235 65.431 262.722 65.431 262.722L45.6257 268.197C45.7842 276.394 45.8643 287.154 45.5616 297.575L55.6973 296.05L45.52 298.91C45.5072 299.303 45.4944 299.693 45.48 300.083L67.9373 296.105L45.3919 302.357C45.3647 303.024 45.3342 303.687 45.3022 304.346L49.0128 303.875L45.2253 305.867C45.2077 306.208 45.1885 306.549 45.1693 306.889C44.9483 310.772 44.7129 314.726 44.4726 318.62C46.7323 318.799 50.2123 319.074 50.2123 319.074L44.3766 320.171C44.3301 320.918 44.2837 321.661 44.2356 322.399L65.636 319.38L44.0787 324.893C44.0499 325.344 44.021 325.793 43.9922 326.239L45.7875 325.818L43.9378 327.096C43.6095 332.186 43.2908 336.972 43.0089 341.117C42.9929 341.368 46.2983 340.965 46.2983 340.965C46.2983 340.965 42.9288 342.304 42.9144 342.521C42.7543 344.853 42.6101 346.953 42.4836 348.751C42.4612 349.083 44.2516 349.358 44.2516 349.358C44.2516 349.358 42.3523 350.618 42.3235 351.032C42.1217 353.893 42.0016 355.556 42.0016 355.556L78.8401 343.369C78.8401 343.369 82.6772 312.262 81.4569 295.173Z" fill="#F8EFE5"/>
<path d="M115.443 342.835L117.922 343.692C117.941 342.537 117.962 341.264 117.985 339.884L114.681 337.281L118.009 338.479C118.025 337.48 118.044 336.434 118.062 335.339L115.123 333.885L118.102 333.079C118.159 329.759 118.227 326.074 118.302 322.098L117.303 321.528L118.323 320.958C118.42 315.865 118.531 310.319 118.653 304.469C118.914 292.13 118.678 278.083 118.356 266.529L115.525 265.944L118.292 264.298C118.278 263.861 118.267 263.43 118.252 263.002L115.297 262.322L118.145 259.622C117.998 255.125 117.229 251.193 117.112 248.322L111.67 247.446L117.323 247.433C117.237 245.351 117.512 243.024 117.519 242.931C117.56 242.419 76.6221 239.177 76.6221 239.177C76.6221 239.177 77.9465 274.469 78.8625 293.251C79.7786 312.033 78.2668 343.381 78.2668 343.381C78.1515 344.115 117.804 351.318 117.804 351.318C117.804 351.318 117.834 349.18 117.895 345.388L115.443 342.835Z" fill="#EED8BE"/>
<path d="M78.2668 343.381C78.6175 343.293 117.298 350.478 117.804 351.318C118.31 352.159 81.8685 364.378 79.8986 364.679C77.9304 364.982 41.353 355.791 41.1528 355.432C40.9526 355.074 78.2668 343.381 78.2668 343.381Z" fill="#E4C8B1"/>
<path d="M65.5305 360.578C65.263 359.62 63.5239 359.92 63.5239 359.92C63.5239 359.92 64.0203 359.073 63.3413 358.581C62.6639 358.091 60.5227 358.808 60.5227 358.808C60.5227 358.808 61.1409 358.274 60.353 357.586C59.565 356.901 57.5344 357.947 57.5344 357.947C57.5344 357.947 57.6449 357.181 56.2852 357.012C54.9256 356.842 52.2047 358.421 52.2047 358.421L50.9716 358.083C50.9716 358.083 50.4079 360.472 52.0686 360.789C53.7277 361.108 53.1416 361.811 54.2306 362.24C55.3195 362.67 56.8634 362.075 57.347 362.269C57.8322 362.463 57.97 363.067 59.2944 362.891C60.6188 362.714 61.2738 362.588 61.2738 362.588L61.4003 362.538C61.4003 362.538 61.6117 363.051 62.7536 362.83C63.8938 362.607 65.7979 361.534 65.5305 360.578Z" fill="#E4926F"/>
<path d="M79.399 340.273L75.6708 338.805L80.9316 337.086L79.399 340.273Z" fill="#EED8BE"/>
<path d="M80.3199 329.99L78.7009 327.514L81.3144 326.867L81.0999 324.18L76.5805 323.288L81.3913 321.855L81.2584 319.496L73.5233 321.445L81.7997 318.043L82.3234 314.134L81.5322 313.325L76.904 313.812L82.3634 310.936L84.1875 316.205L81.5114 329.764L80.3199 329.99Z" fill="#EED8BE"/>
<path d="M81.4746 281.719L75.2705 281.868L81.5867 278.951L81.4746 281.719Z" fill="#EED8BE"/>
<path d="M82.4258 272.398C82.0991 272.48 58.761 280.026 58.761 280.026L82.2833 274.201L82.4258 272.398Z" fill="#EED8BE"/>
<path d="M81.3689 266.87L70.7688 268.591L81.3753 264.094L81.3689 266.87Z" fill="#EED8BE"/>
<path d="M75.2768 242.686L85.6415 243.934L77.868 245.026C77.868 245.026 84.4932 246.297 84.1745 246.273C83.8559 246.248 77.9192 247.058 77.9192 247.058L77.7879 251.425L82.6564 253.305L78.0489 254.862L78.1658 257.434L83.0119 258.244L77.8407 260.184L73.7378 255.374L75.2768 242.686Z" fill="#F8EFE5"/>
<path d="M112.564 282.696C104.331 281.299 96.0449 280.189 87.7589 279.145C85.4207 278.852 83.0746 278.585 80.7301 278.338C80.264 278.288 80.2128 278.999 80.674 279.06C88.9552 280.157 97.238 281.245 105.505 282.45C107.838 282.792 110.168 283.152 112.502 283.488C113.012 283.564 113.064 282.78 112.564 282.696Z" fill="#E4C8B1"/>
<path d="M92.4735 286.02C99.8018 286.374 107.116 287.207 114.342 288.486C115.815 288.747 117.282 289.047 118.754 289.324C118.752 289.015 118.75 288.706 118.749 288.395C117.605 288.15 116.454 287.935 115.31 287.729C113.491 287.401 111.665 287.106 109.837 286.84C106.177 286.31 102.499 285.918 98.8121 285.652C96.719 285.501 94.6243 285.399 92.528 285.33C92.0827 285.314 92.0251 285.999 92.4735 286.02Z" fill="#E4C8B1"/>
<path d="M115.984 301.367C113.88 300.988 111.729 300.781 109.609 300.51C107.484 300.24 105.357 299.971 103.23 299.702C99.0057 299.167 94.7811 298.64 90.5548 298.108C88.1526 297.807 85.7488 297.525 83.345 297.23C82.8469 297.17 82.7909 297.94 83.2841 298.006C91.7559 299.133 100.231 300.24 108.707 301.333C111.102 301.641 113.51 302.032 115.917 302.213C116.471 302.256 116.511 301.463 115.984 301.367Z" fill="#E4C8B1"/>
<path d="M117.017 304.735C113.011 303.905 108.94 303.351 104.878 302.869C100.867 302.394 96.8454 302.057 92.8129 301.812C90.494 301.671 88.1718 301.58 85.8497 301.519C85.3997 301.506 85.3388 302.203 85.7937 302.221C93.9163 302.541 102.025 303.311 110.07 304.468C112.368 304.797 114.66 305.169 116.957 305.507C117.459 305.581 117.493 304.833 117.017 304.735Z" fill="#E4C8B1"/>
<path d="M116.921 344.937C112.196 343.958 107.431 343.159 102.691 342.259C98.0066 341.369 93.3255 340.457 88.6492 339.519C85.9892 338.986 83.3275 338.454 80.6579 337.964C80.2815 337.895 80.1374 338.54 80.5138 338.628C85.19 339.727 89.9064 340.659 94.6179 341.594C99.3502 342.534 104.091 343.436 108.834 344.312C111.504 344.805 114.175 345.305 116.861 345.704C117.36 345.779 117.394 345.034 116.921 344.937Z" fill="#E4C8B1"/>
<path d="M94.4959 336.771C92.3035 336.279 90.0855 335.892 87.8771 335.477C85.651 335.059 83.425 334.647 81.191 334.274C80.7217 334.196 80.6881 334.904 81.1333 335C83.3257 335.467 85.5245 335.896 87.7265 336.322C89.9221 336.745 92.1194 337.2 94.3278 337.546C94.7682 337.615 94.9395 336.869 94.4959 336.771Z" fill="#E4C8B1"/>
<path d="M109.514 259.486C106.105 258.887 102.639 258.515 99.2009 258.113C95.7562 257.71 92.305 257.373 88.8506 257.075C88.359 257.034 88.2981 257.793 88.7898 257.841C92.241 258.176 95.6889 258.558 99.1337 258.965C102.575 259.372 106.006 259.907 109.45 260.293C109.976 260.352 110.017 259.575 109.514 259.486Z" fill="#E4C8B1"/>
<path d="M96.1118 253.682C92.9185 253.211 89.7284 252.719 86.5446 252.197C86.077 252.122 86.0226 252.854 86.4854 252.931C92.1145 253.871 97.7501 254.763 103.398 255.568C108.283 256.263 113.175 256.907 118.073 257.501C118.063 257.212 118.053 256.925 118.044 256.641C116.383 256.443 114.721 256.241 113.062 256.031C107.402 255.314 101.754 254.518 96.1118 253.682Z" fill="#E4C8B1"/>
<path d="M89.9414 250.855C98.0913 252.12 106.252 253.302 114.441 254.298C115.618 254.443 116.796 254.579 117.975 254.71C117.964 254.431 117.954 254.159 117.945 253.888C110.935 253.043 103.932 252.156 96.9414 251.153C94.6257 250.822 92.3116 250.479 89.9991 250.117C89.5283 250.043 89.4722 250.783 89.9414 250.855Z" fill="#E4C8B1"/>
<path d="M58.9949 271.037C57.0027 271.424 55.0329 271.955 53.0503 272.382C51.0628 272.81 49.0722 273.212 47.0816 273.622C46.6332 273.715 46.7629 274.4 47.2161 274.32C49.2164 273.971 51.2102 273.569 53.196 273.146C55.1754 272.723 57.1917 272.345 59.139 271.79C59.6051 271.657 59.4882 270.941 58.9949 271.037Z" fill="#E4C8B1"/>
<path d="M75.6919 303.55C72.1254 303.875 68.5622 304.52 65.0565 305.234C61.5109 305.955 57.9989 306.826 54.5269 307.842C52.5939 308.405 50.6738 309.014 48.7664 309.661C48.286 309.824 48.6319 310.535 49.1091 310.374C55.8753 308.074 62.8353 306.344 69.8834 305.175C71.8628 304.849 73.8518 304.595 75.836 304.301C76.3293 304.227 76.1739 303.506 75.6919 303.55Z" fill="#E4C8B1"/>
<path d="M73.5506 306.357C66.6756 307.225 59.8501 308.71 53.14 310.423C52.5843 310.566 52.7508 311.45 53.3097 311.303C60.0343 309.533 66.8421 308.266 73.7012 307.137C74.2072 307.054 74.0535 306.293 73.5506 306.357Z" fill="#E4C8B1"/>
<path d="M126.186 321.648C126.186 324.045 128.585 373.737 127.557 374.765C127.027 375.297 108.858 377.288 82.5699 377.624C57.9393 377.94 34.1159 375.949 33.7828 375.451C33.0974 374.423 33.7828 321.305 33.7828 321.305C33.7828 321.305 15.9617 304.17 17.3325 302.799C18.7034 301.428 62.3978 299.2 65.1395 300.228C67.8812 301.257 80.5616 319.42 81.2471 319.763C81.9325 320.106 82.6179 291.318 83.9888 290.632C85.358 289.947 128.756 296.459 129.956 297.315C129.956 297.315 126.186 319.249 126.186 321.648Z" fill="#F0D3BC"/>
<path d="M123.101 320.963C107.316 320.666 97.0295 319.129 81.2518 319.958L81.247 319.763C80.5616 319.42 67.8812 301.256 65.1395 300.228C62.3978 299.2 18.7034 301.428 17.3325 302.799C15.9617 304.17 33.7828 321.305 33.7828 321.305C33.7828 321.305 33.0974 374.423 33.7828 375.451C34.1159 375.949 57.9393 377.939 82.5699 377.624L81.2951 321.814C97.1096 321.589 107.626 321.917 123.447 322.25C124.735 322.277 124.389 320.985 123.101 320.963Z" fill="#E4BB9C"/>
<path d="M67.593 354.797C62.9391 354.93 58.2837 355.061 53.6282 355.194C52.4063 355.229 52.3999 357.124 53.6282 357.098C58.2837 356.997 62.9391 356.898 67.593 356.797C68.879 356.77 68.8822 354.76 67.593 354.797Z" fill="#D8AA8B"/>
<path d="M67.2454 347.702C60.0164 347.797 52.7649 347.939 45.5503 348.423C44.3957 348.501 44.3716 350.274 45.5503 350.239C52.7825 350.023 60.0084 349.738 67.2454 349.678C68.5169 349.669 68.5201 347.686 67.2454 347.702Z" fill="#D8AA8B"/>
<path d="M48.6909 329.015C48.6909 329.015 47.3184 333.127 49.3763 334.155C51.431 335.184 63.4259 334.841 64.7968 333.813C66.1676 332.785 65.4822 328.672 64.7968 328.672C64.1114 328.672 48.6909 327.987 48.6909 329.015Z" fill="#4F3A3A"/>
<path d="M67.8171 341.338C60.2037 341.908 52.5903 342.116 44.9722 342.539C43.8624 342.602 43.8479 344.245 44.9722 344.275C52.5615 344.475 60.2614 343.945 67.8171 343.274C69.0454 343.164 69.0678 341.244 67.8171 341.338Z" fill="#D8AA8B"/>
<path d="M130.51 433.323C129.917 434.114 90.3786 434.495 65.7497 434.655C54.5698 434.734 46.4648 434.763 46.4648 434.763C46.4648 434.763 33.8004 434.471 31.7858 434.471C29.7711 434.471 30.9226 377.196 32.3623 375.468C32.9196 374.797 47.7572 374.472 65.7497 374.363C94.0219 374.191 132.636 374.951 133.388 375.182C134.308 375.462 134.52 383.027 133.676 391.009C133.591 391.808 131.431 390.895 131.435 391.731C131.503 408.729 131.065 432.577 130.51 433.323Z" fill="#F2CDB1"/>
<path d="M128.232 389.722C117.519 389.682 106.81 389.837 96.0958 389.661C85.9778 389.501 74.1365 388.975 64.0217 388.783V374.364C46.0308 374.472 32.9196 374.798 32.3623 375.469C30.9226 377.197 29.7711 434.471 31.7858 434.471C33.8004 434.471 46.4648 434.763 46.4648 434.763C46.4648 434.763 54.5698 434.734 65.7497 434.656V390.317C75.8293 391.025 86.0002 391.137 96.0958 391.321C106.794 391.518 117.535 391.719 128.232 391.424C129.325 391.39 129.331 389.726 128.232 389.722Z" fill="#EBBB98"/>
<path d="M38.8389 392.018C38.8389 392.018 38.5506 396.336 39.1255 396.914C39.7021 397.487 53.6604 398.496 54.237 397.631C54.8119 396.765 55.6751 392.162 53.9487 391.874C52.2223 391.587 38.8389 391.153 38.8389 392.018Z" fill="#6C4E4E"/>
<path d="M9.79774 216.691H88.3144L85.9891 212.143L88.3144 208.653L85.8225 202.89L87.9829 196.216L86.6537 190.907L86.1556 180.897L87.8164 169.065L85.491 160.572L85.8225 152.988L86.1556 148.134L84.6599 125.079L84.4933 115.523L85.1579 109.002L84.4933 100.356L86.4871 95.199L86.9852 90.7998L8.07136 91.2546L7.07365 95.6538L7.73826 99.294L6.41064 101.72L7.90481 106.422L8.23792 114.766C8.23792 114.766 10.2301 122.349 10.0652 122.803C9.89864 123.258 11.5594 141.613 11.5594 141.613L9.89864 153.443L9.40058 162.696L10.8947 168.915L8.90253 176.952L10.7298 184.839L9.23403 189.694L10.7298 197.429L10.3967 203.649L10.0652 207.439L11.5594 210.625L9.79774 216.691Z" fill="#F8EFE5"/>
<path d="M88.3145 208.653L85.8227 202.89L87.983 196.216L86.6538 190.907L86.1558 180.897L87.8165 169.065L85.4912 160.572L85.8227 152.988L86.1558 148.134L84.66 125.079L84.4934 115.523L85.1581 109.002L84.4934 100.356L86.4873 95.199L86.9853 90.7998L52.7524 90.9968L54.0912 95.3512L52.3472 99.2684H38.4737C37.5833 99.2684 37.5817 100.534 38.4737 100.534H52.1038L53.7581 103.693L53.1624 106.549H12.0591C11.1671 106.549 11.1655 107.814 12.0591 107.814H53.2825L56.0482 121.566H15.7137C14.8217 121.566 14.8201 122.829 15.7137 122.829H56.1427L56.2708 125.206H31.3296C30.4392 125.206 30.4376 126.469 31.3296 126.469H56.3397L57.5792 149.498L57.134 157.358C46.9567 158.009 36.765 158.494 26.5684 158.809C22.8963 158.923 19.2225 159.016 15.5487 159.086C14.6583 159.104 14.6551 160.369 15.5487 160.351C28.559 160.1 41.5645 159.58 54.5492 158.788C55.4749 158.732 56.3973 158.67 57.3214 158.611L59.4065 161.33L58.2438 163.756L59.4065 167.396L58.4104 178.318L58.8508 183.078C48.5261 183.891 38.155 184.197 27.7951 183.983C23.7082 183.898 19.6245 183.731 15.5439 183.486C14.6551 183.433 14.6583 184.699 15.5439 184.751C30.0036 185.616 44.5305 185.482 58.9661 184.337L59.573 190.907L59.3152 191.791H16.3783C15.4863 191.791 15.4847 193.057 16.3783 193.057H58.9453L58.9084 193.183L60.7357 196.519L60.5611 197.555H29.8354C28.9434 197.555 28.9418 198.82 29.8354 198.82H60.3481L59.075 206.378L60.7357 209.563L59.4065 212.143V216.691H88.3145L85.9892 212.143L88.3145 208.653Z" fill="#EED8BE"/>
<path d="M57.5791 139.944L11.5593 141.613C11.5593 141.613 26.1807 145.253 28.6726 146.01C31.1645 146.77 57.5791 139.944 57.5791 139.944Z" fill="white"/>
<path d="M42.9593 95.9565L14.7174 96.5635L27.3434 102.479C27.3434 102.479 37.8089 97.4747 42.9593 95.9565Z" fill="white"/>
<path d="M43.6237 166.158H16.0449C15.1545 166.158 15.1529 167.424 16.0449 167.424H43.6237C44.5157 167.424 44.5173 166.158 43.6237 166.158Z" fill="#EED8BE"/>
<path d="M26.1807 199.224H17.5408C16.6488 199.224 16.6488 200.489 17.5408 200.489H26.1807C27.0712 200.489 27.0728 199.224 26.1807 199.224Z" fill="#EED8BE"/>
<path d="M57.0824 205.641C47.7682 205.892 38.4461 205.896 29.132 205.644C26.4863 205.574 23.8423 205.483 21.1999 205.37C20.3079 205.334 20.3095 206.599 21.1999 206.636C30.5076 207.026 39.8282 207.17 49.1471 207.06C51.7927 207.03 54.4367 206.977 57.0824 206.906C57.9712 206.882 57.976 205.617 57.0824 205.641Z" fill="#EED8BE"/>
<path d="M81.5532 139.324H63.1892C62.2299 139.324 62.2283 140.814 63.1892 140.814H81.5532C82.5125 140.814 82.5141 139.324 81.5532 139.324Z" fill="#E4C8B1"/>
<path d="M82.4389 144.707H61.6518C60.6925 144.707 60.6909 146.196 61.6518 146.196H82.4389C83.3981 146.196 83.3997 144.707 82.4389 144.707Z" fill="#E4C8B1"/>
<path d="M81.9551 173.415H63.9579C62.9986 173.415 62.997 174.906 63.9579 174.906H81.9551C82.9144 174.906 82.916 173.415 81.9551 173.415Z" fill="#E4C8B1"/>
<path d="M83.4061 176.747H67.8031C66.8438 176.747 66.8422 178.237 67.8031 178.237H83.4061C84.3638 178.237 84.367 176.747 83.4061 176.747Z" fill="#E4C8B1"/>
<path d="M84.4647 191.614H65.2407C64.2814 191.614 64.2798 193.103 65.2407 193.103H84.4647C85.4224 193.103 85.424 191.614 84.4647 191.614Z" fill="#E4C8B1"/>
<path d="M81.9007 98.3125H57.5504C56.5911 98.3125 56.5895 99.8019 57.5504 99.8019H81.9007C82.8599 99.8019 82.8615 98.3125 81.9007 98.3125Z" fill="#E4C8B1"/>
<path d="M77.2868 102.67H60.6268C59.6675 102.67 59.6659 104.159 60.6268 104.159H77.2868C78.2461 104.159 78.2477 102.67 77.2868 102.67Z" fill="#E4C8B1"/>
<path d="M374.524 217.304H295.283L293.819 210.135L295.992 206.541L293.733 202.947L293.994 197.557L294.514 189.322L293.994 178.767L295.209 159.229L292.429 154.586L293.907 152.117L292.516 150.169L292.863 148.224L293.211 145.753L292.255 140.812L292.026 131.451L348.61 131.351H369.711L369.007 144.654L370.068 150.341L368.768 152.474L370.773 156.029L370.891 165.068L372.187 179.387L372.306 194.722L373.012 198.276L372.539 201.932L373.601 204.776L373.012 207.111L374.524 217.304Z" fill="#F8EFE5"/>
<path d="M374.524 217.304L373.012 207.111L373.601 204.776L372.539 201.932L373.012 198.276L372.306 194.722L372.187 179.387L370.891 165.068L370.773 156.029L368.768 152.474L370.068 150.341L369.007 144.654L369.711 131.351H348.61L345.289 131.355V136.775H319.685C318.793 136.775 318.791 137.968 319.685 137.968H345.977C346.29 138.429 346.65 138.983 346.934 139.484H296.101C295.209 139.484 295.208 140.678 296.101 140.678H347.412C347.409 140.767 347.38 140.834 347.31 140.855C346.637 141.049 345.736 142.79 345.736 142.79L347.084 146.467L348.658 151.109L292.642 150.347L293.907 152.117L347.31 152.464L346.86 154.593L348.208 155.754V157.301L295.084 159.018L295.209 159.229L295.076 161.359L348.658 160.398L349.954 180.504H304.861C303.969 180.504 303.968 181.697 304.861 181.697H349.864L348.658 185.165L350.229 189.228L349.783 193.678L350.229 197.547L350.004 200.837L293.843 203.122L295.992 206.541L350.004 205.675V210.899L351.352 212.833L350.156 217.304H374.524Z" fill="#EED8BE"/>
<path d="M311.599 136.583H298.573C297.681 136.583 297.679 137.776 298.573 137.776H311.599C312.489 137.776 312.491 136.583 311.599 136.583Z" fill="#EED8BE"/>
<path d="M338.548 184.583L293.854 185.165C293.854 185.165 289.812 185.357 288.464 190.968C287.117 196.58 290.037 197.547 290.037 197.547C290.037 197.547 305.086 191.162 338.548 184.583Z" fill="white"/>
<path d="M322.827 194.785L347.761 194.399C347.761 194.399 343.494 196.719 340.569 200.202C340.569 200.202 330.916 198.655 322.827 194.785Z" fill="white"/>
<path d="M313.396 143.704C314.068 143.317 343.042 143.896 343.042 143.896C343.042 143.896 335.63 146.994 333.834 147.767C332.038 148.541 313.396 143.704 313.396 143.704Z" fill="white"/>
<path d="M364.812 158.326H352.508C351.549 158.326 351.549 159.817 352.508 159.817H364.812C365.772 159.817 365.772 158.326 364.812 158.326Z" fill="#E4C8B1"/>
<path d="M363.787 162.171H352.254C351.294 162.171 351.291 163.66 352.254 163.66H363.787C364.747 163.66 364.747 162.171 363.787 162.171Z" fill="#E4C8B1"/>
<path d="M364.812 139.614H350.458C349.499 139.614 349.499 141.105 350.458 141.105H364.812C365.772 141.105 365.772 139.614 364.812 139.614Z" fill="#E4C8B1"/>
<path d="M370.195 199.338H355.328C354.369 199.338 354.369 200.827 355.328 200.827H370.195C371.154 200.827 371.154 199.338 370.195 199.338Z" fill="#E4C8B1"/>
<path d="M371.478 204.72H355.583C354.629 204.72 354.624 206.21 355.583 206.21H371.478C372.437 206.21 372.437 204.72 371.478 204.72Z" fill="#E4C8B1"/>
<path d="M368.145 177.293H354.303C353.344 177.293 353.344 178.784 354.303 178.784H368.145C369.104 178.784 369.104 177.293 368.145 177.293Z" fill="#E4C8B1"/>
<path d="M372.707 354.052L279.26 353.871L260.923 353.834C260.923 353.834 260.433 288.245 261.45 286.77C262.467 285.295 290.169 275.319 291.17 274.837C291.194 274.823 291.29 274.815 291.444 274.807C297.141 274.586 377.296 284.092 378.73 285.083C379.148 285.372 379.099 293.536 377.992 300.972C377.887 301.692 374.962 300.496 374.943 301.26C374.384 321.67 372.707 354.052 372.707 354.052Z" fill="#F2CDB1"/>
<path d="M373.918 299.002C347.092 295.794 317.932 293.718 291.217 289.708L291.444 274.807C291.29 274.815 291.194 274.823 291.17 274.837C290.169 275.319 262.467 285.295 261.45 286.77C260.433 288.245 260.923 353.834 260.923 353.834L293.214 354.086L293.584 292.226C320.255 296.531 347.052 298.707 373.872 301.958C375.758 302.189 375.79 299.226 373.918 299.002Z" fill="#EDBB98"/>
<path d="M268.034 302.733C268.034 302.733 267.527 308.226 268.797 308.245C270.065 308.266 282.817 304.65 283.259 303.388C283.703 302.125 284.204 297.054 283.357 297.042C282.512 297.029 268.041 302.309 268.034 302.733Z" fill="#6C4E4E"/>
<path d="M264.234 377.807L264.94 380.87L263.761 383.7L265.177 386.294L264.469 388.418L264.234 394.076L322.233 393.366L321.999 375.449L264.234 377.807Z" fill="white"/>
<path d="M262.278 374.753C262.568 374.133 376.369 374.753 376.369 374.753C376.369 374.753 378.833 375.89 379.025 382.712C379.214 389.534 379.214 394.462 378.074 395.408C376.939 396.359 260.952 395.408 260.952 395.408C260.952 395.408 260.209 393.981 260.768 392.383H320.348C320.348 392.383 323.884 386.294 319.404 377.806H261.64C261.64 377.806 261.503 376.413 262.278 374.753Z" fill="#B2A978"/>
<path d="M331.194 384.289C331.194 387.09 329.82 389.361 328.127 389.361C326.435 389.361 325.061 387.09 325.061 384.289C325.061 381.49 326.435 379.221 328.127 379.221C329.82 379.221 331.194 381.49 331.194 384.289Z" fill="#1A1A1A"/>
<path d="M346.048 380.636L373.63 380.399L373.396 387.947H346.519L346.048 380.636Z" fill="white"/>
<path d="M260.225 357.06L260.932 360.123L259.753 362.953L261.169 365.547L260.461 367.668L260.225 373.327L318.226 372.619L317.99 354.701L260.225 357.06Z" fill="white"/>
<path d="M258.27 354.004C258.56 353.386 372.363 354.004 372.363 354.004C372.363 354.004 374.828 355.141 375.017 361.963C375.204 368.787 375.204 373.715 374.069 374.661C372.93 375.609 256.944 374.661 256.944 374.661C256.944 374.661 256.201 373.236 256.76 371.636H316.339C316.339 371.636 319.875 365.547 315.396 357.06H257.631C257.631 357.06 257.495 355.665 258.27 354.004Z" fill="#EB5858"/>
<path d="M327.184 363.542C327.184 366.342 325.81 368.611 324.122 368.611C322.428 368.611 321.055 366.342 321.055 363.542C321.055 360.743 322.428 358.474 324.122 358.474C325.81 358.474 327.184 360.743 327.184 363.542Z" fill="#1A1A1A"/>
<path d="M342.038 359.888L369.625 359.652L369.388 367.197H342.509L342.038 359.888Z" fill="white"/>
<path d="M374.397 413.387L373.692 410.32L374.868 407.49L373.454 404.896L374.163 402.775L374.397 397.114L316.398 397.823L316.634 415.744L374.397 413.387Z" fill="white"/>
<path d="M376.352 416.44C376.066 417.059 262.261 416.44 262.261 416.44C262.261 416.44 259.798 415.3 259.607 408.478C259.418 401.657 259.418 396.728 260.555 395.781C261.692 394.835 377.682 395.781 377.682 395.781C377.682 395.781 378.423 397.208 377.861 398.807H318.285C318.285 398.807 314.749 404.895 319.228 413.386H376.993C376.993 413.386 377.128 414.776 376.352 416.44Z" fill="#BA272D"/>
<path d="M307.44 406.901C307.44 404.1 308.811 401.833 310.503 401.833C312.196 401.833 313.569 404.1 313.569 406.901C313.569 409.7 312.196 411.972 310.503 411.972C308.811 411.972 307.44 409.7 307.44 406.901Z" fill="#1A1A1A"/>
<path d="M292.585 410.553L264.999 410.79L265.235 403.248H292.114L292.585 410.553Z" fill="white"/>
<path d="M378.407 434.13L377.698 431.068L378.878 428.24L377.464 425.644L378.169 423.521L378.407 417.863L320.407 418.572L320.641 436.488L378.407 434.13Z" fill="white"/>
<path d="M380.362 437.184C380.071 437.804 266.269 437.184 266.269 437.184C266.269 437.184 263.806 436.049 263.616 429.228C263.427 422.406 263.427 417.478 264.564 416.53C265.701 415.579 381.687 416.53 381.687 416.53C381.687 416.53 382.433 417.957 381.871 419.557H322.293C322.293 419.557 318.756 425.644 323.237 434.13H381.001C381.001 434.13 381.138 435.525 380.362 437.184Z" fill="#31385A"/>
<path d="M311.447 427.649C311.447 424.85 312.819 422.577 314.512 422.577C316.205 422.577 317.577 424.85 317.577 427.649C317.577 430.448 316.205 432.716 314.512 432.716C312.819 432.716 311.447 430.448 311.447 427.649Z" fill="#1A1A1A"/>
<path d="M296.593 431.302L269.008 431.539L269.243 423.991H296.122L296.593 431.302Z" fill="white"/>
</svg>
