<svg width="124" height="117" viewBox="0 0 124 117" fill="none" xmlns="http://www.w3.org/2000/svg">
<path d="M102.75 84.7192C102.382 85.2409 102.007 85.7693 101.639 86.291C97.2919 92.5849 92.3959 98.404 86.7306 103.561C83.0519 106.905 79.1324 109.922 74.7581 112.31C71.3737 114.156 67.8488 115.674 64.043 116.47C61.6953 116.958 59.3878 116.791 57.0735 116.329C52.7728 115.467 48.8466 113.674 45.0943 111.46C41.5293 109.36 38.272 106.852 35.1551 104.143C27.8445 97.7819 21.8984 90.264 16.7147 82.1106C16.3469 81.5354 15.9188 81.0471 15.3636 80.6391C12.9624 78.86 10.5746 77.0608 8.20019 75.2548C6.52804 73.984 4.90272 72.6463 3.49812 71.0745C2.85602 70.3588 2.28749 69.5629 1.74572 68.7603C1.51162 68.4191 1.37785 67.9777 1.31096 67.5563C1.17719 66.7069 1.55844 66.1718 2.40789 66.0915C2.98311 66.038 3.60514 66.0781 4.1536 66.2387C5.54482 66.6467 6.90929 67.1416 8.28714 67.6031C8.46104 67.6633 8.63494 67.7302 8.88242 67.8239C8.88911 67.3824 8.63494 67.1617 8.38747 66.9343C7.40425 66.0514 6.41434 65.1819 5.45119 64.2789C4.24724 63.1552 3.13025 61.9513 2.21392 60.5734C1.75241 59.8845 1.36447 59.1421 0.976533 58.4064C0.802631 58.0786 0.695614 57.7041 0.615351 57.3429C0.300989 55.9918 1.04342 55.236 2.40789 55.5503C3.04999 55.6975 3.67203 55.9383 4.5081 56.2058C4.22049 55.6841 4.03321 55.3162 3.81917 54.9617C3.25733 54.0454 2.62861 53.1625 2.12028 52.2194C1.85942 51.7379 1.69221 51.1626 1.6387 50.6142C1.525 49.4236 2.0467 48.8685 3.25734 48.7949C3.72553 48.7614 4.22049 48.8818 4.67531 49.0357C5.81237 49.4169 6.80228 50.0657 7.74536 50.7948C8.54799 51.4168 9.33724 52.0656 10.2268 52.6408C10.1198 52.4401 10.0329 52.2395 9.91246 52.0455C9.06301 50.7011 8.30051 49.3099 7.73867 47.8184C7.38418 46.882 7.10995 45.9255 7.1367 44.9088C7.14339 44.5878 7.17015 44.26 7.2571 43.9524C7.46444 43.2567 7.94602 42.9223 8.65501 43.016C9.09645 43.0762 9.57134 43.2032 9.9459 43.4373C10.8555 44.0059 11.7919 44.5744 12.5745 45.2968C14.1263 46.7415 15.5911 48.2866 17.0759 49.8115C17.6578 50.4068 18.2063 51.0422 18.728 51.691C21.6308 55.2962 25.1825 58.1656 29.0551 60.6537C29.5635 60.9815 30.0785 61.3025 30.6938 61.5098C30.5801 61.3159 30.4597 61.1219 30.346 60.9279C29.0016 58.6873 28.005 56.3262 27.7509 53.6909C27.6572 52.7144 27.704 51.7512 27.9983 50.8148C28.5535 49.0424 29.9782 48.4337 31.6035 49.3367C32.2523 49.6978 32.8409 50.1928 33.3893 50.7011C34.5799 51.8047 35.5698 53.0823 36.3992 54.4735C37.3556 56.0654 38.3322 57.6505 39.2084 59.2826C40.6464 61.9513 42.6931 64.0515 45.0609 65.8775C48.8132 68.7736 53.0336 70.7601 57.5083 72.2383C61.8425 73.6697 66.2904 74.5526 70.8319 75.0341C75.126 75.489 79.4267 75.5826 83.7342 75.295C92.951 74.6796 101.807 72.6129 110.154 68.5529C110.997 68.1449 111.873 67.7837 112.736 67.4092C115.358 66.2721 117.725 64.7538 119.765 62.7606C120.341 62.1988 120.809 61.5366 121.297 60.8945C121.471 60.6671 121.585 60.3728 121.678 60.0986C121.899 59.4431 121.712 59.1488 121.036 59.1688C120.448 59.1889 119.852 59.2692 119.284 59.4029C118.321 59.637 117.358 59.918 116.415 60.219C112.93 61.3293 109.452 62.4529 105.967 63.5766C105.612 63.6903 105.265 63.8508 104.91 63.6435C104.79 63.2823 105.044 63.1887 105.258 63.0884C105.773 62.8543 106.295 62.6402 106.81 62.4061C110.141 60.8611 113.358 59.1354 116.247 56.8479C118.026 55.4366 119.665 53.8849 120.996 52.0321C121.979 50.661 122.715 49.1761 123.043 47.504C123.13 47.0625 123.284 46.5475 122.849 46.2265C122.448 45.9322 122.013 46.2131 121.638 46.3937C121.11 46.6545 120.595 46.9488 120.1 47.2699C118.903 48.0458 117.712 48.835 116.535 49.6376C112.896 52.1258 109.017 54.1457 104.903 55.7175C104.569 55.8446 104.235 56.0921 103.833 55.8914C103.693 55.537 103.947 55.3898 104.181 55.2694C104.73 54.9885 105.285 54.7076 105.853 54.4668C108.736 53.2294 111.452 51.7044 113.933 49.7848C115.639 48.4605 117.204 46.9823 118.528 45.2633C119.491 44.0192 120.301 42.6815 120.802 41.19C121.05 40.4542 121.237 39.6851 121.304 38.9159C121.411 37.8056 120.943 37.4377 119.906 37.8256C119.157 38.1066 118.421 38.4744 117.766 38.9292C116.789 39.5981 115.873 40.3539 114.956 41.103C113.157 42.5611 111.398 44.0661 109.585 45.5041C107.318 47.3033 104.823 48.7347 102.134 49.8249C101.412 50.1192 100.663 50.3399 99.9205 50.574C99.7533 50.6275 99.5593 50.5807 99.2182 50.5807C99.4055 50.3266 99.4924 50.1259 99.6396 50.0323C100.001 49.8049 100.389 49.6109 100.783 49.437C105.639 47.2766 108.816 43.5912 110.569 38.6216C110.923 37.625 111.144 36.6016 111.044 35.5315C110.943 34.4145 110.315 33.973 109.278 34.3743C108.709 34.5951 108.147 34.896 107.666 35.2773C106.422 36.2605 105.218 37.2972 104.001 38.3206C102.77 39.364 101.566 40.4476 100.308 41.4575C96.9173 44.1998 93.0915 46.1328 88.9579 47.4705C88.4095 47.6511 87.9346 47.912 87.4864 48.2799C86.9915 48.6879 86.4631 49.0691 85.928 49.4303C85.6739 49.6042 85.3729 49.7246 84.918 49.9654C85.0585 49.651 85.0853 49.5039 85.1722 49.4035C85.6471 48.8885 86.1019 48.3467 86.6236 47.8919C88.1954 46.5007 89.8475 45.1897 91.3725 43.7584C92.5096 42.6949 93.5463 41.5177 94.5496 40.3205C94.991 39.7988 95.2853 39.1366 95.5462 38.4945C95.8405 37.7721 95.7602 37.0096 95.4258 36.294C95.1114 35.6251 94.6967 35.4111 93.9877 35.6251C93.3724 35.8124 92.7504 36.0264 92.1952 36.3341C90.9244 37.0297 89.6402 37.7253 88.4429 38.5413C84.8846 40.9626 81.3597 43.444 77.8282 45.9054C76.9921 46.4873 76.2028 47.1562 75.3066 47.6378C73.6344 48.5474 71.7951 48.9755 69.9357 49.2965C66.2168 49.9319 62.4846 49.8851 58.7457 49.544C50.4719 48.7949 42.4791 46.7682 34.6468 44.0794C26.1389 41.1632 18.0257 37.4109 10.4007 32.6152C7.75205 30.9498 5.2104 29.1439 2.80251 27.144C2.08015 26.542 1.34441 25.9534 0.601975 25.3715C0.0936443 24.9702 -0.0601935 24.502 0.0200693 23.8265C0.48158 19.7063 1.37785 15.7065 3.14363 11.9275C4.54154 8.93772 6.41434 6.29573 8.97606 4.18215C12.2535 1.47328 16.0593 0.162316 20.2797 0.0151677C24.5537 -0.138669 28.6003 0.891372 32.5265 2.48325C37.9242 4.67041 42.6864 7.86755 47.1276 11.5931C51.8899 15.5862 56.1238 20.0942 59.9831 24.9635C60.1637 25.1909 60.3509 25.425 60.5784 25.706C60.7991 25.4384 60.9864 25.2177 61.1736 24.9903C64.6718 20.5959 68.4508 16.469 72.7114 12.8037C77.1794 8.96447 81.9416 5.55999 87.3527 3.14542C90.7438 1.6338 94.2486 0.550255 97.9674 0.242581C103.412 -0.205553 108.301 1.1054 112.528 4.70385C115.351 7.11174 117.231 10.1417 118.615 13.5194C119.953 16.7834 120.682 20.2013 121.063 23.6927C121.511 27.7527 121.478 31.8126 121.09 35.8726C121.063 36.1401 121.056 36.4077 121.043 36.722C122.187 37.1768 122.3 38.14 122.234 39.1901C122.153 40.3338 121.799 41.4107 121.304 42.4341C120.929 43.2099 120.521 43.9724 120.053 44.6881C119.699 45.2299 119.531 45.7917 119.444 46.5676C119.772 46.3736 120.006 46.2198 120.247 46.1061C120.822 45.8252 121.384 45.4707 121.999 45.2968C123.23 44.949 124.026 45.5777 123.999 46.8485C123.986 47.4304 123.872 48.0257 123.712 48.5942C123.25 50.2797 122.387 51.7646 121.317 53.1424C120.006 54.8347 118.461 56.2995 116.756 57.5837C116.12 58.0585 115.819 58.6471 115.665 59.4899C116 59.4029 116.267 59.3227 116.542 59.2558C117.873 58.9347 119.204 58.6003 120.541 58.3127C120.869 58.2391 121.244 58.2793 121.578 58.3462C122.347 58.5 122.775 59.1287 122.628 59.8979C122.561 60.2658 122.454 60.6537 122.247 60.9547C121.745 61.7105 121.25 62.4998 120.622 63.1485C118.401 65.4427 115.752 67.1149 112.823 68.3656C110.301 69.4425 107.813 70.5996 105.265 71.6163C100.141 73.663 94.8104 74.9204 89.3526 75.6695C84.4298 76.3451 79.4869 76.5457 74.5307 76.2715C66.8924 75.8501 59.4814 74.4054 52.4517 71.2885C48.5055 69.5428 44.8937 67.2955 41.8035 64.2455C40.5461 63.0081 39.5227 61.6035 38.6465 60.0718C37.7503 58.5067 36.8272 56.9549 35.9243 55.3898C35.1217 54.0053 34.1318 52.7679 33.0415 51.6108C32.5466 51.0891 31.9914 50.5941 31.3894 50.1995C30.1119 49.3768 29.1622 49.7781 28.7943 51.2496C28.5401 52.2596 28.5869 53.2896 28.7475 54.2996C29.1822 57.0084 30.3327 59.4297 31.871 61.6771C32.0851 61.9914 32.4462 62.2857 32.1185 62.8409C31.8443 62.7874 31.5232 62.7673 31.2423 62.6536C30.6938 62.4329 30.1521 62.1921 29.637 61.9045C27.0084 60.4196 24.5136 58.7341 22.2194 56.7543C20.5807 55.3363 19.2698 53.6173 17.8317 52.0188C16.3535 50.3801 14.8888 48.7213 13.337 47.1562C12.414 46.2265 11.3438 45.4305 10.3004 44.6279C9.88571 44.3069 9.37068 44.0928 8.86904 43.9055C8.36071 43.7183 8.07979 43.9055 8.03297 44.4406C7.99284 44.8888 7.97277 45.377 8.09986 45.7984C8.40084 46.8284 8.68845 47.8852 9.15665 48.835C10.7619 52.0656 12.7885 55.0019 15.357 57.5435C16.1194 58.2993 16.8886 59.0485 17.4572 59.9514C17.3568 60.2792 17.1495 60.2925 16.9488 60.1454C16.4539 59.7775 15.9522 59.4096 15.5041 58.9883C13.6179 57.2225 11.7652 55.4233 9.85895 53.6775C8.92924 52.8214 7.94602 52.0121 6.92936 51.2697C6.17355 50.7212 5.3241 50.2998 4.48803 49.8651C4.18705 49.7112 3.82586 49.6376 3.48475 49.6042C2.72894 49.5373 2.341 49.9453 2.52828 50.6811C2.68881 51.2964 2.92291 51.9251 3.26402 52.4602C3.9797 53.5638 4.7422 54.6474 5.57158 55.6707C6.80896 57.2024 8.23363 58.5401 9.85895 59.6839C11.598 60.9079 13.23 62.2723 14.9088 63.5833C15.0827 63.7238 15.2232 63.911 15.5108 64.2187C15.1563 64.2388 14.9623 64.3124 14.8352 64.2455C14.3804 64.0247 13.9122 63.7973 13.5042 63.503C11.6716 62.1787 9.86564 60.8209 8.03966 59.4899C6.64844 58.4732 5.20371 57.5302 3.61852 56.8412C3.17707 56.6473 2.71556 56.4867 2.24736 56.3797C1.51162 56.2125 1.26414 56.4533 1.51162 57.189C1.7591 57.9248 2.08015 58.6471 2.46808 59.316C3.24396 60.647 4.24724 61.8175 5.33748 62.9078C7.71861 65.2956 10.2736 67.4827 12.9223 69.5629C13.5176 70.0311 14.1263 70.4725 14.7215 70.934C14.9222 71.0946 15.0961 71.2885 15.27 71.4491C15.0426 71.8905 14.8018 71.7367 14.5543 71.6163C13.2835 70.9742 12.006 70.3388 10.7352 69.69C8.8356 68.7268 6.88254 67.8907 4.83584 67.2888C4.22049 67.1082 3.58508 66.961 2.94297 66.9075C2.19385 66.8406 2.00657 67.1282 2.32094 67.8305C2.55504 68.3389 2.83596 68.8472 3.19714 69.2753C3.85262 70.0578 4.54154 70.8203 5.27728 71.5293C6.07322 72.2918 6.9026 73.0276 7.77881 73.6964C11.4776 76.5324 15.1764 79.3616 18.9086 82.1508C20.8683 83.6156 22.8548 85.0536 24.8948 86.398C31.764 90.9128 39.302 93.7153 47.4019 95.0664C52.4183 95.9025 57.4682 96.0764 62.5314 95.655C65.8623 95.3807 69.133 94.7654 72.4037 94.0698C76.3232 93.2337 80.1892 92.1635 84.0285 91.0532C88.0817 89.8761 92.0481 88.4113 96.0344 87.0267C97.6865 86.4515 99.2851 85.7492 100.924 85.1205C101.492 84.8998 102.088 84.7392 102.669 84.552C102.676 84.6255 102.716 84.6723 102.75 84.7192Z" fill="black"/>
</svg>
