<svg width="565" height="383" viewBox="0 0 565 383" fill="none" xmlns="http://www.w3.org/2000/svg">
<path d="M113.226 3.34462C155.044 -4.89314 202.668 3.33447 253.747 14.4892C292.322 22.9136 339.245 22.1651 367.063 20.2177C465.983 13.2924 543.235 60.9298 560.825 157.827C577.356 248.903 537.272 361.996 414.346 380.034C316.927 394.331 265.742 352.31 222.15 323.755C142.818 271.789 72.7348 283.39 19.7502 205.302C-28.6029 134.041 15.3478 22.6235 113.226 3.34462Z" fill="#A8B6B8"/>
<path d="M369.911 350.738C308.653 350.738 272.676 322.617 241.338 302.612C174.733 260.094 97.8417 259.812 49.5534 187.944C9.87124 128.883 48.6819 36.9223 144.521 32.417C147.914 32.2568 151.398 32.1797 154.959 32.1797C165.491 32.1797 176.709 32.8491 188.332 34.0114C187.456 35.1149 186.874 36.6079 186.785 38.5472C186.556 38.9204 186.363 39.3403 186.218 39.8008C185.532 41.9692 182.642 44.3061 181.884 45.0505C181.578 45.3508 181.655 45.8619 182.03 46.0668L183.516 46.8782C183.516 46.8782 181.278 52.6027 181.696 54.2681C182.064 55.7468 186.173 55.83 187.081 55.83C187.194 55.83 187.257 55.828 187.257 55.828L187.134 57.6192L186.783 62.6478L186.974 62.6864L186.625 62.6296L183.816 62.3496C183.816 62.3496 183.777 62.4632 183.706 62.6742C183.686 62.66 183.668 62.6438 183.647 62.6296C183.627 62.6133 183.603 62.6052 183.576 62.6052C182.35 62.6052 174.96 79.032 174.96 82.6894C174.96 86.428 172.376 110.017 172.376 110.017C172.376 110.017 176.699 111.553 182.464 113.667C188.228 115.778 201.103 125.373 201.103 125.373C198.667 119.468 200.614 95.2013 200.025 86.0791C200.006 85.8032 199.978 85.5233 199.939 85.2433C200.27 77.1618 199.719 69.1005 196.962 64.6804L194.891 64.0029L194.057 63.8629C194.163 63.0758 194.467 60.7552 194.769 57.818C195.924 58.392 197.321 58.4833 198.687 58.4833C199.011 58.4833 199.335 58.4792 199.652 58.4732C199.97 58.4691 200.282 58.463 200.584 58.463C201.097 58.463 201.583 58.4792 202.025 58.534C205.351 58.9499 208.888 57.7003 212.632 61.6559C215.35 64.5282 217.085 67.287 221.88 67.287C222.051 67.287 222.227 67.283 222.405 67.2769C227.606 67.0679 228.853 61.6559 223.447 56.8686C218.039 52.0813 213.892 53.481 213.047 50.3591C212.202 47.2373 212.549 43.1884 210.678 41.523C208.906 39.9468 204.494 41.241 200.541 35.3908C223.015 38.2043 246.588 42.5737 269.338 47.3245C289.108 51.4525 311.503 52.7589 331.287 52.7589C343.989 52.7589 355.614 52.2213 364.781 51.5438C370.485 51.1239 376.103 50.9129 381.625 50.9129C456.795 50.9129 514.012 89.8115 527.414 164.211C540.937 239.274 506.658 332.755 403.014 348.186C391.204 349.945 380.2 350.738 369.911 350.738ZM409.21 300.251L409.257 300.271L434.185 245.278L245.538 159.622C244.995 157.704 242.04 154.896 244.231 152.736C247.131 149.88 257.43 143.011 265.983 137.467C267.817 136.276 270.582 134.055 272.654 132.337C273.748 135.094 274.727 137.169 275.459 137.849C276.186 138.526 277.109 138.78 278.082 138.78C281.023 138.78 284.442 136.461 284.442 136.461L282.881 155.294L311.93 163.112C311.93 163.112 312.551 145.21 311.93 127.057C311.312 108.906 306.652 94.5359 306.652 94.5359L306.588 94.546C306.638 92.2295 306.675 89.2009 306.638 85.9675C308.302 83.4907 316.199 70.8815 309.289 64.3254C306.279 61.4693 303.6 60.4733 301.324 60.4733C296.317 60.4733 293.273 65.3031 292.991 65.7656C292.523 66.4817 292.162 67.2972 291.943 68.1978C290.62 73.6707 288.731 73.9263 287.817 75.0176C287.446 75.4578 287.614 76.1313 288.141 76.3565L290.227 77.247C290.227 77.247 289.337 85.1723 290.105 87.3408C290.547 88.5904 292.556 88.8541 294.181 88.8541C295.379 88.8541 296.37 88.71 296.37 88.71L296.757 95.9072L296.23 95.9802C296.23 95.9802 291.887 99.6133 286.449 103.469C282.804 106.056 277.984 110.642 274.166 114.488L270.564 107.011C270.564 107.011 268.62 98.954 265.539 97.0898C265.539 97.0898 259.446 91.8968 257.523 91.8968C257.491 91.8968 257.46 91.8988 257.43 91.9009C255.618 92.0814 264.524 98.954 264.524 98.954C264.524 98.954 253.098 95.8301 250.936 95.8301C248.775 95.8301 252.411 102.782 255.316 104.575C256.017 105.007 260.833 106.847 263.249 108.496C264.323 109.23 266.275 114.571 268.371 120.517C268.03 120.884 267.844 121.089 267.844 121.089L269.076 122.527C269.129 122.677 269.184 122.829 269.236 122.982L267.153 124.728C260.594 130.217 241.535 146.074 238.181 147.843C235.919 149.034 231.216 150.306 227.477 151.423L173.365 126.854C164.542 122.848 155.334 119.746 145.879 117.624C130.426 114.16 106.464 109.458 90.2287 109.458C87.2249 109.458 84.4866 109.618 82.1131 109.977C82.1091 109.971 82.105 109.965 82.101 109.957C77.5121 110.648 74.2874 112.078 73.1787 114.523C67.927 126.11 111.01 158.438 128.695 171.071C129.899 171.931 131.121 172.759 132.365 173.556C135.726 175.721 139.235 177.646 142.869 179.317C143.065 179.409 143.26 179.498 143.457 179.587L345.37 271.265L345.712 283.134H355.072L355.871 276.032L409.21 300.251ZM242.036 158.032L232.726 153.807C236.841 153.513 240.576 153.141 240.576 153.141C240.576 153.141 241.148 155.758 242.036 158.032Z" fill="#E4E9E9"/>
<path d="M344.934 256.232H358.092L355.072 283.134H345.712L344.934 256.232Z" fill="#7A4846"/>
<path d="M357.784 290.222C356.854 291.234 352.032 291.315 350.313 293.401C347.597 296.695 340.061 302.941 336.611 300.614C334.765 299.366 344.962 290.573 345.378 282.682L355.167 280.388C355.167 280.388 359.543 288.311 357.784 290.222Z" fill="#FE6651"/>
<path d="M359.675 291.808C359.675 291.808 353.289 294.879 350.611 296.977C347.934 299.072 340.209 302.876 339.082 303.016C336.839 303.296 336.612 300.614 336.612 300.614C336.612 300.614 338.237 301.523 340.189 300.08C340.998 299.482 347.579 291.338 350.808 290.21C354.035 289.082 357.77 287.009 357.77 287.009C357.77 287.009 360.296 289.92 359.675 291.808Z" fill="#263437"/>
<path d="M344.713 285.11L344.828 285.085C345.996 284.55 348.493 284.886 348.519 284.891C348.677 284.907 348.811 284.803 348.834 284.653C348.854 284.501 348.746 284.359 348.594 284.339C348.485 284.325 345.909 283.978 344.595 284.578C344.456 284.643 344.395 284.807 344.46 284.947C344.506 285.051 344.606 285.11 344.713 285.11Z" fill="white"/>
<path d="M344.251 286.398L344.366 286.373C345.524 285.842 347.761 286.272 347.784 286.276C347.936 286.311 348.08 286.207 348.11 286.057C348.138 285.907 348.041 285.761 347.891 285.73C347.792 285.71 345.457 285.262 344.135 285.866C343.995 285.931 343.935 286.096 343.997 286.236C344.044 286.339 344.145 286.398 344.251 286.398Z" fill="white"/>
<path d="M343.785 287.698L343.9 287.674C345.051 287.146 347.137 287.623 347.157 287.627C347.307 287.661 347.457 287.57 347.492 287.418C347.526 287.27 347.433 287.12 347.283 287.085C347.192 287.063 344.995 286.56 343.669 287.167C343.529 287.229 343.468 287.396 343.531 287.536C343.578 287.637 343.679 287.698 343.785 287.698Z" fill="white"/>
<path d="M353.183 292.019C352.986 292.429 353.019 292.855 353.258 292.969C353.495 293.084 353.85 292.845 354.047 292.435C354.243 292.025 354.211 291.599 353.974 291.484C353.734 291.37 353.382 291.61 353.183 292.019Z" fill="#FE6651"/>
<path d="M409.257 300.271L434.186 245.278L173.365 126.854C164.542 122.848 155.334 119.746 145.879 117.625C122.051 112.281 78.0047 103.999 73.2253 114.541C67.9514 126.177 111.412 158.724 128.958 171.246C133.45 174.451 138.235 177.216 143.258 179.496L409.257 300.271Z" fill="white"/>
<path d="M345.37 271.265L143.456 179.587C143.26 179.498 143.065 179.409 142.869 179.317C142.998 179.378 143.128 179.437 143.258 179.496L345.37 271.263V271.265Z" fill="#EBE7E4"/>
<path d="M355.871 276.032L345.37 271.265V271.263L355.871 276.032Z" fill="#B29998"/>
<path d="M132.365 173.556C131.121 172.759 129.899 171.932 128.695 171.072C111.01 158.438 67.927 126.11 73.1786 114.523C74.2873 112.079 77.5121 110.649 82.1009 109.957C82.105 109.965 82.109 109.971 82.1131 109.977C77.5384 110.671 74.3319 112.101 73.2252 114.541C67.9513 126.177 111.412 158.724 128.958 171.246C130.077 172.043 131.212 172.814 132.365 173.556Z" fill="#EBE7E4"/>
<path d="M409.21 300.251L355.871 276.032L345.37 271.263L143.258 179.496C143.128 179.437 142.999 179.378 142.869 179.317C139.239 177.638 135.73 175.713 132.366 173.556C131.212 172.814 130.077 172.043 128.958 171.246C111.412 158.724 67.9514 126.177 73.2253 114.541C74.332 112.101 77.5385 110.671 82.1132 109.977C91.3294 124.333 120.119 145.977 134.364 156.188C139.484 159.86 144.944 163.014 150.68 165.619L415.674 285.938L434.119 245.248L434.141 245.258L409.21 300.251Z" fill="#F4F4F4"/>
<path d="M421.52 299.338L441.663 254.904C441.922 254.334 441.669 253.66 441.099 253.402L432.341 249.425L411.262 295.926L420.02 299.902C420.589 300.162 421.262 299.908 421.52 299.338Z" fill="#345475"/>
<path d="M362.851 279.327L391.015 336.107C392.938 339.981 396.137 343.072 400.071 344.86L409.271 349.036C409.936 349.338 410.688 348.837 410.665 348.107L409.172 300.358L362.851 279.327Z" fill="#263437"/>
<path d="M384.032 222.431L450.129 207.915C454.085 207.045 458.216 207.481 461.905 209.155L474.216 214.745C474.907 215.06 475.001 216.003 474.385 216.445L434.321 245.264L384.032 222.431Z" fill="#263437"/>
<path d="M195.565 173.246C194.882 172.936 194.078 173.24 193.768 173.924L185.536 192.081C185.226 192.762 185.528 193.57 186.211 193.88C186.894 194.188 187.699 193.886 188.009 193.203L196.24 175.045C196.55 174.362 196.248 173.557 195.565 173.246Z" fill="#263437"/>
<path d="M200.924 175.68C200.241 175.37 199.437 175.672 199.126 176.356L190.895 194.513C190.585 195.197 190.887 196.002 191.57 196.312C192.253 196.623 193.058 196.32 193.368 195.637L201.599 177.48C201.909 176.796 201.607 175.991 200.924 175.68Z" fill="#263437"/>
<path d="M206.283 178.112C205.6 177.802 204.796 178.106 204.486 178.79L196.254 196.947C195.944 197.631 196.246 198.436 196.929 198.746C197.612 199.055 198.417 198.752 198.727 198.069L206.958 179.912C207.268 179.228 206.966 178.423 206.283 178.112Z" fill="#263437"/>
<path d="M211.259 180.374C210.576 180.062 209.772 180.366 209.462 181.05L201.232 199.207C200.922 199.89 201.224 200.696 201.907 201.006C202.59 201.316 203.395 201.012 203.705 200.328L211.936 182.171C212.247 181.488 211.942 180.682 211.259 180.374Z" fill="#263437"/>
<path d="M216.619 182.806C215.936 182.496 215.131 182.798 214.821 183.482L206.592 201.639C206.282 202.323 206.584 203.128 207.267 203.438C207.95 203.749 208.754 203.446 209.064 202.763L217.296 184.606C217.606 183.922 217.302 183.117 216.619 182.806Z" fill="#263437"/>
<path d="M221.978 185.24C221.296 184.93 220.49 185.232 220.18 185.916L211.949 204.073C211.64 204.757 211.942 205.562 212.626 205.872C213.309 206.183 214.113 205.88 214.423 205.195L222.654 187.04C222.965 186.354 222.661 185.549 221.978 185.24Z" fill="#263437"/>
<path d="M109.322 110.811L94.2985 143.95C81.061 132.552 70.4726 120.616 73.2251 114.541C75.9796 108.466 92.071 108.638 109.322 110.811Z" fill="#263437"/>
<path d="M561.702 333.624L440.941 256.496L422.213 297.741L561.702 333.624Z" fill="#FE6651"/>
<path d="M509.099 310.592L436.764 265.711L427.132 286.593L509.099 310.592Z" fill="#FFC45F"/>
<path d="M450.317 284.887C450.964 283.548 450.396 281.935 449.053 281.298L368.8 243.294C366.425 242.041 363.484 243.006 362.314 245.426C361.157 247.816 362.183 250.692 364.591 251.808L446.876 286.191C448.187 286.739 449.697 286.167 450.317 284.887Z" fill="#263437"/>
<path d="M392.43 360.339H303.799C303.799 360.339 311.332 356.187 317.47 356.187C323.607 356.187 323.925 344.192 330.647 344.105C337.366 344.018 338.004 352.223 338.004 352.223C338.004 352.223 346.004 341.137 354.643 341.137C363.283 341.137 356.882 353.304 356.882 353.304C356.882 353.304 366.802 344.523 371.281 347.154C375.761 349.783 373.434 355.548 373.434 355.548C373.434 355.548 379.547 358.428 392.43 360.339Z" fill="white"/>
<path d="M526.812 262.184C526.812 265.636 529.609 268.438 533.06 268.438C536.51 268.438 539.307 265.636 539.307 262.184C539.307 258.729 536.51 255.93 533.06 255.93C529.609 255.93 526.812 258.729 526.812 262.184Z" fill="white"/>
<path d="M551.329 272.905C551.329 275.373 553.327 277.373 555.792 277.373C558.263 277.373 560.259 275.373 560.259 272.905C560.259 270.438 558.263 268.438 555.792 268.438C553.327 268.438 551.329 270.438 551.329 272.905Z" fill="white"/>
<path d="M482.089 361.643C482.089 362.876 483.09 363.877 484.322 363.877C485.555 363.877 486.554 362.876 486.554 361.643C486.554 360.408 485.555 359.408 484.322 359.408C483.09 359.408 482.089 360.408 482.089 361.643Z" fill="white"/>
<path d="M459.288 348.328C459.288 351.229 461.637 353.58 464.536 353.58C467.432 353.58 469.783 351.229 469.783 348.328C469.783 345.427 467.432 343.076 464.536 343.076C461.637 343.076 459.288 345.427 459.288 348.328Z" fill="white"/>
<path d="M437.593 326.24C437.593 327.968 438.991 329.368 440.716 329.368C442.443 329.368 443.841 327.968 443.841 326.24C443.841 324.513 442.443 323.114 440.716 323.114C438.991 323.114 437.593 324.513 437.593 326.24Z" fill="white"/>
<path d="M543.509 241.436C543.509 243.162 544.905 244.562 546.634 244.562C548.355 244.562 549.758 243.162 549.758 241.436C549.758 239.708 548.355 238.308 546.634 238.308C544.905 238.308 543.509 239.708 543.509 241.436Z" fill="white"/>
<path d="M136.587 344.269C141.873 353.716 155.68 351.578 173.245 350.88C192.837 350.103 209.762 363.258 215.398 357.035C227.47 343.707 185.113 315.862 156.293 319.724C139.028 322.037 132.661 337.249 136.587 344.269Z" fill="#C3D7CA"/>
<path d="M119.156 308.43C119.156 312.945 122.815 316.607 127.326 316.607C131.838 316.607 135.497 312.945 135.497 308.43C135.497 303.912 131.838 300.251 127.326 300.251C122.815 300.251 119.156 303.912 119.156 308.43Z" fill="#C3D7CA"/>
<path d="M531.139 123.72L445.175 125.189C445.175 125.189 466.407 119.507 470.357 115.45C474.307 111.395 479.557 107.443 484.748 107.859C495.129 108.689 492.572 115.403 492.572 115.403C492.572 115.403 504.848 99.7331 512.755 101.474C526.761 104.557 519.782 115.403 519.782 115.403C519.782 115.403 539.936 108.738 531.139 123.72Z" fill="white"/>
<path d="M85.8342 254.899H227.351C227.351 254.899 217.707 253.238 213.975 250.362C210.244 247.485 215.36 242.061 207.595 239.663C199.503 237.166 197.365 243.357 195.715 243.402C195.715 243.402 201.354 231.714 195.715 227.811C180.518 217.295 168.715 233.764 165.768 238.894C165.768 238.894 164.747 229.233 156.592 230.687C144.987 232.76 141.616 243.402 141.616 243.402C141.616 243.402 141.928 233.312 129.084 237.803C116.241 242.292 113.219 251.93 85.8342 254.899Z" fill="white"/>
<path d="M130.517 61.7127H41.1538C41.1538 61.7127 52.6401 59.0898 56.0169 57.9619C59.3957 56.8321 63.0258 42.8699 71.1333 43.089C79.2408 43.308 76.9038 53.9212 76.9038 53.9212C76.9038 53.9212 84.8168 36.2204 97.653 36.334C110.491 36.4456 103.322 55.8056 103.322 55.8056C103.322 55.8056 109.393 48.0345 116.823 48.9818C124.256 49.927 115.832 60.4164 130.517 61.7127Z" fill="white"/>
<path d="M399.155 109.435C399.26 109.435 399.36 109.376 399.406 109.277C399.982 108.08 400.653 107.374 401.403 107.176C402.149 106.981 402.712 107.366 402.736 107.38C402.862 107.468 403.034 107.439 403.124 107.313C403.211 107.188 403.182 107.015 403.059 106.926C403.026 106.904 402.27 106.378 401.273 106.634C400.353 106.871 399.556 107.679 398.906 109.036C398.839 109.174 398.897 109.34 399.035 109.407L399.155 109.435Z" fill="#7A4846"/>
<path d="M355.52 290.398C355.137 291.191 355.202 292.015 355.662 292.238C356.124 292.461 356.807 291.999 357.19 291.203C357.571 290.41 357.508 289.587 357.046 289.366C356.586 289.143 355.903 289.605 355.52 290.398Z" fill="#FE6651"/>
<path d="M359.165 142.543L367.714 129.248C367.714 129.248 399.785 136.615 402.536 144.133C405.288 151.651 400.766 155.229 392.45 153.898C384.136 152.57 359.165 142.543 359.165 142.543Z" fill="#397053"/>
<path d="M360.33 140.727C360.33 140.727 353.303 138.81 352.006 133.999C351.089 130.595 353.238 118.505 355.605 107.415C356.586 102.825 355.664 102.896 355.007 96.171C353.376 79.4176 357.166 81.3853 358.058 83.1196C359.517 85.9596 361.412 93.8464 361.516 95.8059C361.619 97.7654 366.475 87.4383 367.673 88.7751C368.871 90.1139 365.369 92.5461 365.04 96.8303C364.663 101.751 362.578 104.786 362.578 104.786L362.837 128.349L366.82 130.637L360.33 140.727Z" fill="#7A4846"/>
<path d="M363.251 144.151L370.219 129.856L367.714 129.248L359.165 142.543L363.251 144.151Z" fill="#54896D"/>
<path d="M404.932 135.952L395.671 135.313L395.168 126.039C395.168 126.039 389.85 126.812 389.106 124.712C388.362 122.615 389.146 115.683 389.146 115.683L387.61 115.054C386.977 114.807 386.641 114.209 387.318 113.505C388.273 112.511 390.123 111.312 391.003 106.776C392.357 99.792 399.554 98.3051 402.807 103.961C406.063 109.616 404.932 135.952 404.932 135.952Z" fill="#7A4846"/>
<path d="M398.877 123.104C398.877 123.104 397.001 126.13 395.168 126.039L395.28 128.108C395.28 128.108 398.79 127.047 398.877 123.104Z" fill="#6B3B3B"/>
<path d="M395.018 202.866L396.405 196.142L371.494 187.953L369.715 193.582L364.333 191.608C364.333 191.608 339.786 181.957 331.457 185.632C325.778 188.139 322.409 230.061 322.409 230.061H339.786L342.504 205.652C344.729 206.029 379.162 222.016 379.162 222.016C395.164 221.878 395.018 202.866 395.018 202.866Z" fill="#345475"/>
<path d="M396.404 196.141L371.494 187.952C371.494 187.952 369.743 186.514 370.902 183.753C372.836 179.141 378.349 170.542 380.461 156.638C382.731 141.688 392.873 133.578 392.873 133.578L405.444 134.617C405.444 134.617 410.444 135.505 409.092 150.908C406.703 178.139 398.549 196.131 396.404 196.141Z" fill="#3E7A60"/>
<path d="M335.554 112.202L322.034 104.64L318.548 134.658L331.597 141.575L335.554 112.202Z" fill="#263437"/>
<path d="M349.227 151.646C348.663 151.373 318.319 136.638 318.319 136.638L318.548 134.658L349.417 150.007L349.227 151.646Z" fill="#263437"/>
<path d="M407.145 135.952L405.641 129.248L394.75 130.82L390.383 136.1L407.145 135.952Z" fill="#54896D"/>
<path d="M394.54 113.216C394.54 113.216 394.724 115.056 395.91 114.425C397.096 113.793 398.833 110.951 400.414 110.951C401.993 110.951 403.415 112.914 402.625 115.062C402.546 115.277 402.457 115.499 402.359 115.724C401.287 118.2 402.552 121.069 405.088 121.988C405.088 121.988 410.236 116.653 411.276 110.772C412.003 106.654 411.501 103.956 410.236 102.48C408.973 101.001 407.001 102.309 407.001 102.309C407.001 102.309 406.575 96.246 403.574 95.7713C400.572 95.2966 400.888 97.3515 400.888 97.3515C400.888 97.3515 396.621 93.5562 393.145 94.6637C389.669 95.7713 391.722 98.7755 391.722 98.7755C391.722 98.7755 389.543 99.4084 389.685 101.622C389.827 103.835 395.059 105.869 395.059 105.869L394.54 113.216Z" fill="#263437"/>
<path d="M396.011 198.053L371.032 189.409L369.579 193.533L395.018 202.866L396.011 198.053Z" fill="#FE6651"/>
<path d="M390.129 195.385L388.668 194.896L387.012 200.746L388.571 201.331L390.129 195.385Z" fill="#345475"/>
<path d="M379.162 191.409L377.7 190.92L376.044 196.771L377.603 197.355L379.162 191.409Z" fill="#345475"/>
<path d="M327.051 230.061H339.786L336.863 256.096H327.805L327.051 230.061Z" fill="#7A4846"/>
<path d="M342.504 205.651L338.146 203.708L341.77 212.236L342.504 205.651Z" fill="#345475"/>
<path d="M336.587 261.747C335.414 262.376 330.983 260.91 328.747 262.267C325.215 264.409 316.337 267.709 313.929 264.482C312.638 262.752 324.761 257.974 327.655 250.897L337.331 251.927C337.331 251.927 338.803 260.563 336.587 261.747Z" fill="#FE6651"/>
<path d="M403.346 149.444C403.346 149.444 398.944 158.211 392.49 164.866C384.087 173.534 373.709 177.887 373.709 177.887L382.149 158.785L403.346 149.444Z" fill="#3E7A60"/>
<path d="M377.046 172.808L369.714 158.803C369.714 158.803 391.949 134.528 399.84 135.844C407.73 137.161 408.606 142.863 403.346 149.443C398.087 156.024 377.046 172.808 377.046 172.808Z" fill="#477F66"/>
<path d="M376.045 170.897C376.045 170.897 370.908 176.068 366.087 174.82C362.677 173.938 352.588 164.461 344.121 156.925C340.617 153.805 335.361 150.397 334.186 149.054C329.364 143.547 320.743 138.835 322.691 138.916C325.879 139.048 335.842 146.813 337.595 147.689C339.348 148.567 332.773 139.242 334.526 138.859C336.279 138.478 336.664 142.727 340.226 145.127C344.316 147.884 345.923 151.198 345.923 151.198L366.524 162.605L370.481 160.268L376.045 170.897Z" fill="#7A4846"/>
<path d="M380.461 170.047L371.48 156.925L368.952 159.612L377.046 172.808L380.461 170.047Z" fill="#54896D"/>
<path d="M375.929 170.99L369.654 160.757L367.923 161.779L373.679 172.808L375.929 170.99Z" fill="#6B3B3B"/>
<path d="M363.504 135.794L358.242 139.958L360.33 140.727L363.504 135.794Z" fill="#7A4846"/>
<path d="M362.838 128.349L360.874 128.037L362.746 120.134L362.838 128.349Z" fill="#6B3B3B"/>
<path d="M337.807 263.8C337.807 263.8 330.995 264.567 327.88 265.628C324.764 266.689 316.495 267.697 315.421 267.466C313.28 267.003 313.929 264.482 313.929 264.482C313.929 264.482 315.123 265.831 317.366 265.135C318.297 264.849 326.907 259.508 330.215 259.508C333.525 259.508 337.597 258.808 337.597 258.808C337.597 258.808 338.977 262.273 337.807 263.8Z" fill="#263437"/>
<path d="M329.943 253.948C330.04 253.948 330.136 253.895 330.182 253.802C330.251 253.668 330.199 253.508 330.067 253.439C329.971 253.39 327.73 252.25 326.335 252.38C326.187 252.394 326.078 252.526 326.092 252.674C326.106 252.822 326.242 252.932 326.386 252.917C327.622 252.804 329.799 253.907 329.822 253.92L329.943 253.948Z" fill="white"/>
<path d="M328.842 254.987C328.934 254.987 329.025 254.94 329.076 254.855C329.149 254.725 329.106 254.561 328.978 254.486C328.895 254.437 326.903 253.285 325.504 253.41C325.356 253.425 325.247 253.557 325.261 253.705C325.275 253.853 325.407 253.952 325.555 253.948C326.785 253.822 328.686 254.94 328.707 254.95L328.842 254.987Z" fill="white"/>
<path d="M327.847 256.025C327.937 256.025 328.024 255.983 328.076 255.901C328.155 255.776 328.119 255.609 327.993 255.528C327.914 255.479 326.066 254.325 324.663 254.449C324.515 254.463 324.408 254.595 324.42 254.743C324.434 254.891 324.568 254.993 324.714 254.987C325.936 254.871 327.687 255.972 327.703 255.985C327.748 256.013 327.799 256.025 327.847 256.025Z" fill="white"/>
<path d="M334.262 261.052C333.64 261.674 333.429 262.474 333.79 262.837C334.153 263.198 334.951 262.987 335.574 262.364C336.196 261.741 336.407 260.942 336.044 260.581C335.683 260.218 334.884 260.429 334.262 261.052Z" fill="#FE6651"/>
<path d="M331.81 261.92C331.5 262.233 331.395 262.632 331.575 262.813C331.755 262.993 332.155 262.888 332.467 262.577C332.777 262.265 332.882 261.865 332.702 261.685C332.522 261.504 332.122 261.61 331.81 261.92Z" fill="#FE6651"/>
<path d="M390.081 120.576C391.096 120.576 391.676 119.884 391.858 119.444C391.915 119.306 391.85 119.15 391.712 119.093C391.575 119.034 391.419 119.099 391.362 119.237C391.341 119.282 390.875 120.335 389.513 119.953C389.371 119.915 389.221 119.996 389.183 120.14C389.142 120.284 389.225 120.432 389.369 120.473C389.627 120.544 389.864 120.576 390.081 120.576Z" fill="#6B3B3B"/>
<path d="M390.942 109.979C390.739 110.736 390.84 111.419 391.165 111.506C391.489 111.594 391.917 111.05 392.119 110.293C392.32 109.535 392.221 108.851 391.896 108.764C391.57 108.679 391.144 109.22 390.942 109.979Z" fill="#263437"/>
<path d="M201.103 125.373C201.103 125.373 188.228 115.779 182.464 113.667C176.699 111.553 172.376 110.018 172.376 110.018C172.376 110.018 174.96 86.4282 174.96 82.6897C174.96 78.9532 182.673 61.8894 183.647 62.6298C186.878 65.0803 199.435 76.9571 200.025 86.0793C200.614 95.2015 198.667 119.469 201.103 125.373Z" fill="#F9B655"/>
<path d="M160.981 168.919C160.981 168.919 161.646 170.497 161.646 172.55C161.646 174.601 161.646 177.441 161.646 177.441H160.022C160.022 177.441 160.022 173.181 158.561 173.181C157.099 173.181 155.297 176.337 153.763 177.441C152.229 178.546 151.067 179.019 148.726 179.019C147.488 179.019 146.134 178.932 145.133 178.849C144.504 178.796 144.21 178.07 144.632 177.615L146.545 175.548L160.981 168.919Z" fill="#FE6651"/>
<path d="M166.218 124.251L179.253 149.411L171.51 152.811L157.261 132.552V112.295L166.218 124.251Z" fill="#344D6C"/>
<path d="M195.744 123.274L196.962 109.529L179.002 101.975L175.53 111.235C175.53 111.235 157.507 104.283 154.096 104.025C150.686 103.77 148.982 106.594 148.739 111.212C148.495 115.831 152.04 158.677 152.04 158.677L160.304 160.199C160.304 160.199 161.891 139.441 161.891 134.822C161.891 130.203 160.215 119.675 160.215 119.675C160.215 119.675 170.986 128.195 176.259 130.972C184.053 135.078 193.551 136.362 195.744 123.274Z" fill="#345475"/>
<path d="M160.304 160.081L152.04 158.677C152.04 158.677 152.91 165.369 152.04 167.974C151.173 170.576 146.545 175.548 146.545 175.548C146.545 175.548 149.776 176.161 150.808 175.885C153.785 175.092 160.981 168.919 160.981 168.919C160.981 168.919 160.758 167.704 160.304 164.422C160.077 162.775 160.304 160.081 160.304 160.081Z" fill="#FE9881"/>
<path d="M184.235 156.355C184.235 156.355 185.597 157.304 186.633 159.024C187.671 160.746 189.106 163.13 189.106 163.13L187.736 164.047C187.736 164.047 185.581 160.471 184.349 161.296C183.114 162.122 183.189 165.789 182.451 167.585C181.716 169.378 180.976 170.431 178.998 171.753C177.954 172.453 176.766 173.145 175.878 173.64C175.321 173.95 174.707 173.508 174.832 172.889L175.402 170.071L184.235 156.355Z" fill="#FE6651"/>
<path d="M179.196 149.32L171.51 152.811C171.51 152.811 175.627 157.935 176.211 160.611C176.795 163.286 175.402 170.072 175.402 170.072C175.402 170.072 178.767 169.376 179.413 167.112C180.806 162.238 184.235 156.355 184.235 156.355C184.235 156.355 183.433 155.46 181.392 152.963C180.366 151.71 179.196 149.32 179.196 149.32Z" fill="#FE9881"/>
<path d="M194.017 64.1529L186.783 62.6477L187.257 55.8279C187.257 55.8279 182.111 55.9314 181.695 54.268C181.278 52.6026 183.515 46.8782 183.515 46.8782L182.03 46.0668C181.655 45.8619 181.578 45.3507 181.884 45.0505C182.642 44.306 185.532 41.9692 186.217 39.8007C187.539 35.6281 192.667 34.8755 194.746 39.4538C196.826 44.0342 194.017 64.1529 194.017 64.1529Z" fill="#FE9881"/>
<path d="M186.783 38.6081C186.783 38.6081 188.64 38.5513 188.64 40.945C188.64 42.0221 188.506 44.2758 189.961 44.4847C190.642 44.5821 191.23 44.361 191.814 44.1419C192.478 43.8904 193.137 43.6368 193.914 43.8599C195.369 44.2758 195.578 47.0853 194.122 48.5336C193.062 49.5864 191.802 50.2071 192.146 53.331C192.724 58.5788 196.465 58.526 199.652 58.4733C200.507 58.4591 201.322 58.4469 202.025 58.5341C205.351 58.95 208.888 57.7004 212.632 61.656C215.447 64.6318 217.206 67.4839 222.405 67.277C227.606 67.0681 228.853 61.656 223.447 56.8687C218.039 52.0815 213.892 53.4811 213.047 50.3593C212.202 47.2374 212.549 43.1885 210.678 41.5231C208.805 39.8577 203.987 41.3973 199.877 34.3321C197.42 30.1087 187.134 29.8775 186.783 38.6081Z" fill="#FE6651"/>
<path d="M185.34 49.8683L182.972 49.5356C182.972 49.5356 183.173 50.9597 183.962 51.0773C184.75 51.195 185.34 49.8683 185.34 49.8683Z" fill="white"/>
<path d="M187.134 57.6191L187.257 55.828C187.349 55.8401 187.44 55.8482 187.533 55.8482C188.893 55.8482 190.563 54.5317 190.563 54.5317C190.207 57.542 187.148 57.6191 187.134 57.6191Z" fill="#FC8F78"/>
<path d="M190.971 46.6025C190.922 46.6025 190.873 46.5883 190.831 46.5558C190.733 46.4787 190.717 46.3367 190.794 46.2394C191.8 44.9655 192.702 44.7058 193.267 44.7058C193.632 44.7058 193.857 44.8133 193.879 44.8255C193.989 44.8803 194.033 45.0121 193.978 45.1237C193.94 45.2028 193.859 45.2494 193.776 45.2494C193.743 45.2494 193.711 45.2434 193.68 45.2271C193.664 45.219 193.516 45.1541 193.267 45.1541C192.823 45.1541 192.055 45.3671 191.147 46.5173C191.102 46.5741 191.037 46.6025 190.971 46.6025Z" fill="#FB765E"/>
<path d="M196.962 64.6804L194.89 64.0028L186.625 62.6295L183.816 62.3496C183.816 62.3496 179.993 73.7518 178.534 77.9772C177.07 82.2026 180.4 87.4016 180.4 87.4016L179.002 101.974L196.962 109.529C196.962 109.529 203.853 75.7296 196.962 64.6804Z" fill="white"/>
<path d="M186.035 43.2069C185.895 43.5842 185.946 43.9494 186.144 44.0224C186.345 44.0975 186.621 43.85 186.758 43.4727C186.898 43.0954 186.848 42.7302 186.647 42.6552C186.448 42.5822 186.173 42.8276 186.035 43.2069Z" fill="#1E1E1E"/>
<path d="M180.135 90.1626L180.4 87.4019C180.4 87.4019 183.149 89.0389 184.452 89.0389C184.513 89.0389 184.568 89.0348 184.62 89.0267C184.693 89.0186 184.74 89.0125 184.766 89.0125C185.188 89.0125 180.135 90.1626 180.135 90.1626Z" fill="#F4F4F4"/>
<path d="M195.383 64.6806V60.0982L186.42 58.9663L185.358 62.9604L195.383 64.6806Z" fill="white"/>
<path d="M161.646 69.3378L165.511 80.9206C167.931 76.3017 170.833 71.1411 172.925 67.4817C174.644 64.4795 177.936 62.3496 181.391 62.3496H184.422C184.422 62.3496 182.062 72.1229 180.135 76.6769C178.207 81.233 176.584 94.0653 176.097 97.8018C175.611 101.54 175.53 111.235 175.53 111.235L169.084 108.776C169.084 108.776 171.492 96.0816 173.418 86.079C173.418 86.079 171.156 89.1238 169.084 91.629C169.084 91.629 168.959 91.7933 168.738 92.0469C168.103 92.7995 167.501 93.4851 167.005 93.9882C165.752 95.2621 163.944 95.3838 162.637 94.5744L162.621 94.5683C162.517 94.5176 162.414 94.4446 162.312 94.3493C161.635 93.8117 161.141 92.9922 161.013 91.9252C158.69 85.3833 157.261 69.3378 157.261 69.3378H161.646Z" fill="#FFC45F"/>
<path d="M212.101 137.181L206.703 135.368C206.703 135.368 206.808 138.556 206.379 139.794C206.024 140.812 198.6 141.766 200.29 142.583C201.98 143.401 207.798 143.068 208.408 143.577C209.78 144.723 216.44 148.738 217.863 149.425C219.286 150.113 220.745 150.598 217.863 147.642C214.172 143.859 213.114 141.342 212.101 137.181Z" fill="#FE9881"/>
<path d="M164.852 77.0645L181.643 70.4759C179.575 69.9099 172.376 55.2012 171.012 43.3406L154.221 49.9271L164.852 77.0645Z" fill="white"/>
<path d="M161.646 69.3378V62.5545C161.646 62.5545 165.46 65.1144 165.543 64.0028C165.582 63.4876 160.979 60.2014 160.979 60.2014C160.979 60.2014 155.417 57.8281 155.409 58.966C155.391 61.4834 157.262 69.3378 157.262 69.3378H161.646Z" fill="#FE9881"/>
<path d="M155.665 61.4836C155.665 61.4836 153.488 58.4388 152.27 58.6477C152.27 58.6477 153.123 60.2016 154.584 62.5546C155.551 64.1105 156.593 66.356 156.593 66.356L155.665 61.4836Z" fill="#FE9881"/>
<path d="M196.962 64.6807C196.962 64.6807 193.307 68.5794 191.846 78.085C190.385 87.5926 190.141 120.01 190.141 120.01L201.103 125.374C201.103 125.374 199.885 115.136 200.128 112.211C200.371 109.285 201.103 96.8548 201.103 96.8548C201.103 96.8548 204.512 105.63 204.755 108.555C204.998 111.48 206.703 135.368 206.703 135.368L212.101 137.043C212.101 137.043 212.096 114.458 212.062 107.634C212.048 104.823 209.895 85.7386 207.575 74.5899C206.356 68.7397 196.962 64.6807 196.962 64.6807Z" fill="#FFC45F"/>
<path d="M192.614 98.7737C192.614 99.2362 192.987 99.6095 193.449 99.6095C193.909 99.6095 194.284 99.2362 194.284 98.7737C194.284 98.3133 193.909 97.938 193.449 97.938C192.987 97.938 192.614 98.3133 192.614 98.7737Z" fill="#263437"/>
<path d="M192.614 111.235C192.614 111.697 192.987 112.07 193.449 112.07C193.909 112.07 194.284 111.697 194.284 111.235C194.284 110.774 193.909 110.401 193.449 110.401C192.987 110.401 192.614 110.774 192.614 111.235Z" fill="#263437"/>
<path d="M201.102 96.8545L197.957 84.8965L200.62 104.822L201.102 96.8545Z" fill="#FFC45F"/>
<path d="M165.511 80.9206L167.169 84.8965L167.57 77.0645L165.511 80.9206Z" fill="#FFC45F"/>
<path d="M173.418 86.0793L174.814 80.0952L169.084 91.6293L173.418 86.0793Z" fill="#FFC45F"/>
<path d="M175.53 111.235L179.253 113.667L177.271 106.587L175.53 111.235Z" fill="#344D6C"/>
<path d="M284.442 136.461C284.442 136.461 278.386 140.569 275.459 137.849C272.534 135.131 265.665 110.147 263.249 108.496C260.833 106.847 256.017 105.007 255.316 104.575C252.411 102.782 248.775 95.8303 250.936 95.8303C253.098 95.8303 264.524 98.9542 264.524 98.9542C264.524 98.9542 255.618 92.0816 257.43 91.9011C259.242 91.7226 265.539 97.09 265.539 97.09C268.62 98.9542 270.564 107.011 270.564 107.011L279.92 126.438L287.616 121.215L284.442 136.461Z" fill="#F49C90"/>
<path d="M306.456 98.9541L296.887 98.2949L296.37 88.7102C296.37 88.7102 290.873 89.5115 290.105 87.341C289.337 85.1725 290.227 77.2471 290.227 77.2471L288.141 76.3566C287.614 76.1315 287.446 75.458 287.817 75.0178C288.731 73.9265 290.62 73.6709 291.943 68.198C293.364 62.3173 300.9 60.0556 304.263 65.8976C307.625 71.7418 306.456 98.9541 306.456 98.9541Z" fill="#FE9881"/>
<path d="M296.483 90.8481L296.37 88.71C296.398 88.7121 296.427 88.7141 296.455 88.7141C298.318 88.7121 300.201 85.6794 300.201 85.6794C300.109 89.7527 296.483 90.8481 296.483 90.8481Z" fill="#FC876F"/>
<path d="M291.749 71.8674C291.635 72.4942 291.799 73.05 292.115 73.1088C292.434 73.1656 292.782 72.7052 292.898 72.0763C293.011 71.4475 292.847 70.8917 292.531 70.8328C292.215 70.776 291.864 71.2385 291.749 71.8674Z" fill="#1E1E1E"/>
<path d="M298.756 75.6526C297.854 77.4032 295.01 77.1334 296.37 72.6768C296.899 70.9383 297.527 69.7517 295.474 67.2728C294.473 66.0639 292.969 65.8022 292.969 65.8022C292.969 65.8022 299.321 54.8665 309.289 64.3254C316.973 71.6179 306.344 86.3955 306.344 86.3955L304.607 85.2535C302.126 84.1115 303.099 81.4744 304.155 79.1335C305.177 76.8697 305.465 73.7275 304.23 72.7863C301.06 70.3704 299.793 73.6383 298.756 75.6526Z" fill="#96584D"/>
<path d="M275.459 129.964L269.37 122.87C269.37 122.87 242.244 145.701 238.18 147.843C234.115 149.985 222.168 152.381 222.089 153.685C222.008 154.991 240.576 153.141 240.576 153.141C240.576 153.141 242.67 162.716 245.056 161.152C247.439 159.586 241.332 155.594 244.231 152.736C247.131 149.88 257.43 143.011 265.983 137.467C269.248 135.349 275.459 129.964 275.459 129.964Z" fill="#FE9881"/>
<path d="M262.268 111.166L268.213 108.823C268.809 108.587 269.066 107.879 268.758 107.316L257.823 87.2252C257.566 86.7506 256.996 86.5437 256.493 86.7425L250.551 89.0854C249.953 89.3207 249.695 90.0286 250.003 90.5926L260.938 110.683C261.196 111.158 261.767 111.364 262.268 111.166Z" fill="#302F2E"/>
<path d="M262.878 109.511L268.079 107.569C268.437 107.435 268.594 107.013 268.411 106.677L258.254 88.0165C258.007 87.5641 257.464 87.3633 256.982 87.5499L251.789 89.55C251.46 89.6758 251.318 90.0612 251.485 90.3695L261.459 108.975C261.733 109.482 262.337 109.711 262.878 109.511Z" fill="#263437"/>
<path d="M250.935 95.8303C250.935 95.8303 259.051 94.5625 261.787 96.7574C264.523 98.9542 255.315 104.575 255.315 104.575C255.315 104.575 250.015 100.033 250.935 95.8303Z" fill="#F49C90"/>
<path d="M289.959 80.2127C289.959 80.2127 292.436 81.087 292.404 81.4744C292.337 82.2452 289.862 81.7807 289.862 81.7807C289.862 81.7807 288.451 87.9717 290.024 89.1888C291.597 90.4079 296.174 90.623 296.534 87.8175C296.893 85.0121 296.66 83.6936 296.66 83.6936C296.66 83.6936 296.569 81.02 295.022 79.8131C292.27 77.6689 290.024 77.9996 290.024 77.9996L289.959 80.2127Z" fill="#96584D"/>
<path d="M237.759 235.562L259.994 228.34L257.182 218.902L248.189 222.464C248.189 222.464 243.185 228.531 241.768 229.511C239.68 230.953 235.367 230.813 237.759 235.562Z" fill="#FFC45F"/>
<path d="M258.978 230.864L240.386 236.903C239.291 237.26 238.116 236.659 237.759 235.562L259.994 228.34L260.099 228.665C260.397 229.582 259.894 230.566 258.978 230.864Z" fill="#263437"/>
<path d="M252.831 230.667C252.831 230.667 254.939 224.875 258.058 221.841L259.994 228.34L252.831 230.667Z" fill="#F9B655"/>
<path d="M310.497 160.237L311.205 153.158L285.046 148.441L282.881 155.294H268.62C268.62 155.294 244.895 155.821 242.433 161.748C239.895 167.856 245.953 217.463 245.953 217.463H257.729L257.277 173.508C259.576 173.897 286.264 181.015 296.23 181.015C309.622 181.015 310.497 160.237 310.497 160.237Z" fill="#3E7A60"/>
<path d="M257.278 173.508L253.2 171.65L257.43 188.332L257.278 173.508Z" fill="#3E7A60"/>
<path d="M310.264 162.663L282.881 155.294C282.881 155.294 299.084 160.586 303.091 163.112C307.098 165.637 309.35 167.477 309.35 167.477C309.35 167.477 309.747 165.771 309.859 165.197C309.978 164.568 310.264 162.663 310.264 162.663Z" fill="#3E7A60"/>
<path d="M311.93 163.112L282.881 155.294L285.358 125.412L276.509 131.187L267.844 121.089C267.844 121.089 279.36 108.496 286.448 103.47C291.887 99.6135 296.23 95.9804 296.23 95.9804L306.652 94.5361C306.652 94.5361 311.312 108.906 311.93 127.057C312.551 145.21 311.93 163.112 311.93 163.112Z" fill="#FE6651"/>
<path d="M285.358 125.412L297.134 116.415L284.442 136.461L285.358 125.412Z" fill="#FE6651"/>
<path d="M274.028 131.187C274.03 131.185 274.03 131.185 274.032 131.183L274.028 131.187Z" fill="#F29386"/>
<path d="M267.153 124.728L269.236 122.982C268.951 123.223 268.215 123.84 267.153 124.728Z" fill="#EAD6CF"/>
<path d="M269.236 122.981L269.37 122.87C269.364 122.874 269.317 122.913 269.236 122.981Z" fill="#F29386"/>
<path d="M274.028 131.187L267.116 124.759L267.153 124.728C268.215 123.84 268.951 123.223 269.236 122.982C269.317 122.913 269.364 122.874 269.37 122.87L275.459 129.964L274.032 131.183C274.03 131.185 274.03 131.185 274.028 131.187Z" fill="#FC8F78"/>
<path d="M280.129 128.824L270.797 117.945L272.273 116.415L282.172 127.491L280.129 128.824Z" fill="#FE6651"/>
<path d="M283.919 126.351L273.626 115.034L275.167 113.486L285.855 125.02L283.919 126.351Z" fill="#FE6651"/>
<path d="M256.848 217.463H247.064L248.189 222.463L257.183 218.901L256.848 217.463Z" fill="#F7CDC6"/>
<path d="M300.132 76.4095L300.047 76.3953C299.901 76.3487 299.82 76.1925 299.868 76.0444C300.395 74.4074 301.074 73.458 301.883 73.2248C302.019 73.1842 302.149 73.168 302.268 73.168C302.763 73.168 303.099 73.4438 303.115 73.458C303.233 73.5554 303.249 73.7319 303.15 73.8495C303.095 73.9165 303.016 73.9489 302.937 73.9489C302.874 73.9489 302.811 73.9287 302.759 73.884C302.757 73.882 302.558 73.7258 302.268 73.7258C302.197 73.7258 302.118 73.7339 302.037 73.7583C301.612 73.882 300.979 74.4074 300.397 76.2168C300.359 76.3345 300.249 76.4095 300.132 76.4095Z" fill="#FC876F"/>
<path d="M474.216 214.745L461.905 209.155C458.216 207.481 454.085 207.045 450.129 207.915L443.542 209.362L468.154 220.926L474.384 216.445C474.999 216.003 474.907 215.06 474.216 214.745Z" fill="#FFC45F"/>
<path d="M388.852 331.745L391.017 336.108C392.938 339.983 396.137 343.074 400.073 344.861L409.273 349.038C409.938 349.34 410.69 348.839 410.668 348.109L410.457 341.403L388.852 331.745Z" fill="#FFC45F"/>
</svg>
