<svg width="573" height="446" viewBox="0 0 573 446" fill="none" xmlns="http://www.w3.org/2000/svg">
<path d="M572.285 406.14C572.285 428.152 444.174 445.996 286.142 445.996C128.11 445.996 0 428.152 0 406.14C0 384.129 128.11 366.285 286.142 366.285C444.174 366.285 572.285 384.129 572.285 406.14Z" fill="#FFDFD9"/>
<path d="M319.988 13.304C319.988 13.304 315.902 7.20827 310.024 4.94579C304.149 2.68331 290.053 3.72888 284.048 13.1279C278.042 22.5269 265.836 50.6822 273.419 54.445C281.003 58.2046 329.211 50.8968 331.999 42.0214C334.782 33.1428 319.988 13.304 319.988 13.304Z" fill="#7F635D"/>
<path d="M155.993 288.563C137.096 292.859 73.0143 319.477 41.1042 306.513C20.4745 209.578 74.3129 144.243 121.359 95.4195C151.285 64.366 190.582 37.6486 269.849 67.3667C306.42 81.0729 270.156 120.448 240.949 171.121C218.92 209.343 215.432 245.522 215.432 245.522C215.432 245.522 181.759 282.709 155.993 288.563Z" fill="#FF5F4A"/>
<path d="M277.259 49.1787L228.002 61.8778C228.002 61.8778 229.414 77.1419 240.369 87.6313C251.325 98.1207 259.982 84.6931 259.982 84.6931L281.555 72.6169L277.259 49.1787Z" fill="#FF867A"/>
<path d="M251.368 197.918C282.834 158.896 327.772 110.013 355.716 109.619C402.272 108.962 479.024 361.989 479.024 361.989C479.024 361.989 457.249 372.392 451.515 368.282C414.057 341.425 356.856 221.377 356.856 221.377C356.856 221.377 349.145 235.087 336.356 254.234C326.358 249.549 310.794 242.058 289.311 231.17C271.165 221.97 259.145 209.271 251.368 197.918Z" fill="#F27C79"/>
<path d="M311.737 90.1643C295.583 101.318 266.586 86.0989 273.058 55.8524C275.658 43.7266 287.95 41.9636 297.959 33.9016C309.736 24.4114 325.181 27.5481 331.986 36.7085C338.894 46.0099 338.549 54.9701 327.399 68.4441C322.558 74.2933 325.612 80.586 311.737 90.1643Z" fill="#FF867A"/>
<path d="M290.749 37.213C290.749 37.213 291.918 27.4009 285.777 27.4906C276.194 27.6299 275.485 44.3784 279.765 47.1692C284.048 49.9617 288.483 48.8873 290.749 37.213Z" fill="#FF867A"/>
<path d="M308.212 69.2801C310.256 70.7772 312.466 71.6947 314.967 72.0838C316.865 72.3784 316.058 75.2477 314.184 74.9579C311.47 74.5352 308.924 73.4784 306.711 71.858C305.179 70.7356 306.667 68.1496 308.212 69.2801Z" fill="#C66C67"/>
<path d="M281.704 73.2767C289.687 85.6731 299.428 91.0948 304.641 93.2564C288.426 96.9535 267.455 82.0368 273.058 55.8526C273.459 53.9824 274.092 52.3588 274.912 50.9209C274.907 50.9865 274.194 61.6233 281.704 73.2767Z" fill="#C66C67"/>
<path d="M318.11 47.4687C317.258 46.1445 315.098 45.1374 313.577 45.0509C312.008 44.9612 309.97 45.2767 308.658 46.2806C308.477 46.3591 308.343 46.4808 308.253 46.6297C308.249 46.6329 308.249 46.6377 308.245 46.6377C307.999 46.8907 308.007 47.1901 308.143 47.4287C308.253 47.8674 308.63 48.2405 309.241 48.194C311.709 48.0019 314.533 48.4198 316.869 49.1259C317.997 49.4702 318.812 48.0804 318.11 47.4687Z" fill="#7F635D"/>
<path d="M329.834 64.1801C329.855 64.0953 329.871 64.004 329.863 63.9063C329.813 63.2018 329.892 62.2795 329.868 61.3861C329.876 61.3156 329.876 61.25 329.871 61.1971C329.868 61.1715 329.863 61.1523 329.858 61.1315C329.789 59.8233 329.445 58.6224 328.071 58.2942C327.895 58.2541 327.732 58.2782 327.596 58.3438C326.986 58.3934 326.384 58.9058 326.589 59.6472C327.054 61.2948 327.506 62.9424 327.801 64.6397C328.018 65.8742 329.871 65.357 329.834 64.1801Z" fill="#7F635D"/>
<path d="M298.137 73.8962C298.271 74.0227 298.44 74.1123 298.629 74.154C304.326 75.4253 309.425 82.1791 309.475 82.2496C309.822 82.7171 310.49 82.8148 310.958 82.4626C311.43 82.1103 311.525 81.4458 311.175 80.9783C310.947 80.6756 305.543 73.5263 299.091 72.0836C298.518 71.9571 297.951 72.3174 297.825 72.8906C297.738 73.2733 297.87 73.6496 298.137 73.8962Z" fill="#C66C67"/>
<path d="M310.671 59.5976C310.561 59.5976 310.445 59.5784 310.34 59.532C309.409 59.1589 306.556 57.0165 306.236 56.7747C305.936 56.549 305.876 56.1231 306.105 55.8268C306.326 55.5274 306.753 55.4666 307.052 55.6923C307.859 56.3024 309.102 57.2039 309.975 57.7707C309.749 56.9461 309.326 55.7372 308.916 54.6964C308.777 54.3473 308.945 53.9534 309.294 53.8141C309.638 53.6748 310.036 53.8478 310.175 54.1952C311.951 58.6465 311.499 59.0981 311.228 59.3687C311.076 59.516 310.881 59.5976 310.671 59.5976Z" fill="#434A59"/>
<path d="M323.12 69.6771C322.85 69.6771 322.595 69.5186 322.489 69.2512L321.213 66.0504C321.119 65.8118 321.168 65.538 321.337 65.3491C321.51 65.157 321.775 65.0785 322.022 65.1441C322.358 65.2386 325.33 66.0632 326.252 66.6156C326.576 66.8078 326.678 67.2273 326.486 67.5459C326.292 67.8694 325.879 67.9718 325.554 67.7797C325.162 67.5427 324.038 67.1616 322.989 66.8366L323.751 68.7516C323.886 69.0959 323.719 69.493 323.37 69.6291C323.288 69.6611 323.202 69.6771 323.12 69.6771Z" fill="#434A59"/>
<path d="M155.993 288.563C181.759 282.709 215.432 245.522 215.432 245.522C215.432 245.522 230.411 223.907 251.368 197.918C259.145 209.271 271.165 221.97 289.311 231.17C310.794 242.058 326.358 249.549 336.356 254.234C308.646 295.716 257.087 362.719 208.405 371.135C137.253 383.432 72.2506 376.406 53.8033 335.997C45.9158 318.72 137.094 292.859 155.993 288.563Z" fill="#404859"/>
<path d="M287.811 80.3635C287.811 80.3635 317.582 59.7786 346.206 67.554C374.829 75.3262 376.243 99.3584 368.115 106.778C359.991 114.201 313.622 104.684 306.945 97.0751C300.268 89.4647 287.811 80.3635 287.811 80.3635Z" fill="#F27C79"/>
<path d="M504.093 384.494C494.682 380.222 488.985 377.3 484.544 371.425C484.245 371.028 480.831 365.042 480.65 364.338C479.875 361.276 472.604 351.266 470.247 358.05C465.599 371.422 450.588 358.268 447.272 362.629C441.759 369.88 455.675 399.434 461.025 402.848C471.256 409.37 536.143 405.202 535.709 399.017C535.451 395.307 516.832 390.272 504.093 384.494Z" fill="#404859"/>
<path d="M236.774 248.742C202.868 234.198 195.321 201.167 195.313 201.132C227.968 154.361 269.828 104.196 296.087 109.616C358.896 122.582 417.943 366.868 417.943 366.868C417.943 366.868 394.57 383.144 390.889 376.938C358.929 323.048 278.165 231.17 278.165 231.17C278.165 231.17 276.468 238.257 273.152 249.457C267.681 253.795 256.868 257.361 236.774 248.742Z" fill="#FF867A"/>
<path d="M308.835 92.0955L315.406 93.2516C315.406 93.2516 341.082 87.5209 364.405 91.2309C387.728 94.9408 398.924 133.613 384.372 143.884C361.323 160.154 331.347 163.406 301.178 161.124C319.841 136.482 311.95 102.614 308.835 92.0955Z" fill="#FF867A"/>
<path d="M201.675 73.2078L308.835 92.0954C311.95 102.614 319.841 136.482 301.178 161.124C288.552 160.168 275.89 158.245 263.692 155.9C222.346 147.948 155.027 141.587 151.847 112.431C148.667 83.2793 166.69 63.6647 201.675 73.2078Z" fill="#FF5F4A"/>
<path d="M147.209 276.852C147.209 276.852 168.055 240.174 195.313 201.132C195.321 201.167 202.868 234.198 236.775 248.742C256.868 257.361 267.681 253.795 273.152 249.457C261.516 288.776 229.915 378.829 181.597 391.313C113.159 408.997 82.4341 395.982 58.7317 365.079C46.0086 348.496 42.1257 324.291 41.1394 306.537C91.095 301.815 147.209 276.852 147.209 276.852Z" fill="#7F635D"/>
<path d="M118.253 299.131C118.487 299.131 118.725 299.081 118.951 298.974C119.695 298.627 137.417 290.174 155.38 269.093C155.97 268.399 155.887 267.359 155.195 266.768C154.501 266.178 153.463 266.263 152.874 266.953C135.369 287.497 117.729 295.908 117.553 295.991C116.728 296.38 116.375 297.36 116.76 298.183C117.041 298.782 117.633 299.131 118.253 299.131Z" fill="#404859"/>
<path d="M290.667 101.265C288.72 103.105 285.486 102.114 284.729 99.5393C282.998 93.6454 278.932 78.5894 281.978 76.7768C285.782 74.5143 289.278 77.0554 291.234 77.1019C293.184 77.1467 297.12 76.4774 299.956 76.9706C302.788 77.4621 306.511 81.9262 308.945 82.1232C311.384 82.3185 319.234 83.6795 322.353 85.119C325.472 86.5585 326.613 98.1287 322.182 101.671C317.75 105.209 315.734 98.2728 315.734 98.2728C315.734 98.2728 313.443 107.585 305.273 102.466C305.245 107.147 297.607 110.504 295.402 103.102C295.144 102.237 292.361 91.6359 292.361 91.6359C292.361 91.6359 293.226 98.4906 290.917 101.011C290.836 101.101 290.754 101.187 290.667 101.265Z" fill="#F27C79"/>
<path d="M278.165 232.76C278.173 232.76 278.181 232.76 278.191 232.758C279.067 232.747 279.768 232.025 279.757 231.148C279.395 204.973 279.752 182.494 279.757 182.27C279.773 181.391 279.072 180.669 278.194 180.652C277.329 180.619 276.591 181.339 276.575 182.217C276.571 182.441 276.21 204.967 276.575 231.191C276.588 232.062 277.297 232.76 278.165 232.76Z" fill="#C66C67"/>
<path d="M440.758 384.494C431.346 380.222 425.649 377.3 421.211 371.425C420.911 371.028 417.496 365.043 417.317 364.338C416.542 361.277 415.557 348.843 409.463 357.858C401.531 369.58 385.615 360.186 383.618 365.284C382.236 368.818 392.34 399.434 397.689 402.848C407.921 409.37 472.809 405.202 472.374 399.017C472.116 395.307 453.499 390.272 440.758 384.494Z" fill="#404859"/>
<path d="M234.166 153.368C235.494 153.368 236.637 152.372 236.792 151.022C236.957 149.57 235.915 148.259 234.464 148.094C233.931 148.033 180.947 141.884 156.814 131.557C155.471 130.982 153.916 131.605 153.341 132.948C152.767 134.292 153.389 135.846 154.733 136.421C179.578 147.053 231.657 153.098 233.862 153.351C233.965 153.362 234.065 153.368 234.166 153.368Z" fill="#CE4949"/>
<path d="M239.402 82.5044C240.686 82.5044 241.813 81.5645 242.014 80.2579C242.235 78.8104 241.243 77.4622 239.799 77.2413C239.471 77.1916 206.77 72.1735 191.419 68.5228C189.997 68.1865 188.571 69.0624 188.233 70.4858C187.895 71.9077 188.774 73.3343 190.194 73.6706C205.756 77.3726 238.669 82.4211 238.999 82.4707C239.135 82.4916 239.269 82.5044 239.402 82.5044Z" fill="#CE4949"/>
<path d="M323.706 164.021C334.659 164.021 347.473 163.156 357.13 159.925C373.797 154.351 378.227 150.846 384.36 145.998C385.258 145.287 386.201 144.542 387.226 143.755C387.999 143.161 388.143 142.054 387.552 141.281C386.958 140.507 385.852 140.363 385.077 140.956C384.036 141.756 383.085 142.511 382.171 143.229C376.101 148.03 372.091 151.202 356.01 156.579C336.393 163.142 301.719 159.409 301.37 159.371C300.403 159.264 299.535 159.962 299.428 160.931C299.317 161.899 300.018 162.77 300.986 162.878C301.748 162.961 311.585 164.021 323.706 164.021Z" fill="#C66C67"/>
<path d="M321.846 35.4053C321.846 35.4053 324.818 47.4158 335.802 52.1137C346.792 56.8148 354.273 52.3395 354.449 50.9208C354.621 49.5021 348.706 47.1084 348.706 47.1084C348.706 47.1084 357.757 49.5021 361.586 41.3249C365.414 33.1428 348.301 27.2248 341.713 24.9607C335.131 22.6982 331.106 12.0823 325.112 11.5619C319.116 11.0415 315.222 9.81983 310.815 14.1719C306.412 18.5223 321.846 35.4053 321.846 35.4053Z" fill="#7F635D"/>
<path d="M315.548 11.8245C315.548 11.8245 310.695 2.68333 313.209 0.944432C315.726 -0.797663 318.37 9.03685 318.37 9.03685C318.37 9.03685 320.075 -0.968991 323.207 0.0765867C326.342 1.11736 320.32 14.1719 318.37 13.7379C316.418 13.304 315.548 11.8245 315.548 11.8245Z" fill="#7F635D"/>
</svg>
