<svg width="409" height="171" viewBox="0 0 409 171" fill="none" xmlns="http://www.w3.org/2000/svg">
<path d="M408.916 168.265C408.916 170.559 400.959 171.032 212.07 170.341C24.5636 169.654 0 170.559 0 168.265C0 165.973 103.353 164.115 212.07 164.115C320.784 164.115 408.916 165.973 408.916 168.265Z" fill="#606073"/>
<path d="M281.604 89.128C280.633 90.3427 157.463 92.2485 86.287 92.1271C80.4784 92.1172 74.9885 92.096 69.906 92.0657C48.6298 91.9336 34.4908 91.6119 34.0758 91.0308C32.3459 88.609 33.2109 1.86197 35.6326 0.824071C35.6326 0.824071 279.53 -1.59769 280.913 1.86197C282.298 5.32162 282.989 87.3982 281.604 89.128Z" fill="#A99852"/>
<path d="M64.5371 92.0057C67.6265 90.4527 68.8442 38.8788 68.8442 38.8788L83.0288 43.3763L86.2874 92.1271C80.4788 92.1173 69.6189 92.0368 64.5371 92.0057Z" fill="#644620"/>
<path d="M81.126 84.3717C81.126 83.6798 82.1639 71.5718 75.5905 56.3493C69.0172 41.1275 66.2494 38.3598 69.7091 35.5921C73.1687 32.8244 107.072 38.0139 115.029 36.976C122.986 35.9381 142.533 35.7651 146.338 37.8409C148.418 38.9759 157.524 52.6468 161.012 65.05C164.501 77.4524 170.381 81.258 168.652 83.3338C166.922 85.4096 81.126 88.5233 81.126 84.3717Z" fill="white"/>
<path d="M88.917 78.5631C87.738 75.7635 86.166 71.6378 85.9945 68.606C85.8299 65.6919 85.8534 62.7542 85.3337 59.8719C84.8367 57.1133 83.7139 54.6468 82.0523 52.3972C80.4371 50.2107 78.5191 48.2745 76.8158 46.1592C75.8075 44.9081 74.9904 43.585 74.1755 42.2056C73.5716 41.1822 72.8197 40.2118 71.552 40.123C71.3835 40.1116 71.2045 40.2854 71.2197 40.4553C71.3168 41.5463 71.7295 42.4742 72.5087 43.2496C72.7773 43.5174 73.1786 43.1115 72.9229 42.8346C72.3971 42.2648 72.0656 41.6116 71.9366 40.8696C73.0754 41.2345 73.6338 42.6783 74.1945 43.629C74.8204 44.6919 75.5548 45.6865 76.328 46.6463C78.0221 48.7494 79.9409 50.6689 81.5364 52.8517C83.1547 55.0671 84.223 57.4858 84.6941 60.1928C85.185 63.0159 85.1463 65.8967 85.314 68.7479C85.4839 71.6438 86.8215 76.262 88.3541 78.8006C88.5263 79.0866 89.0574 78.8954 88.917 78.5631Z" fill="#E4E9EB"/>
<path d="M190.495 66.3018C189.51 64.657 188.799 62.8824 188.494 60.9583C187.809 56.6299 189.316 52.1453 188.434 47.8526C188.123 46.3443 186.725 44.4051 187.725 42.9567C188.304 42.1184 189.267 41.5547 190.268 41.3665C199.686 39.5949 199.841 44.7715 228.746 43.0538C232.574 42.827 242.408 40.3635 246.043 42.0167C249.851 43.7465 252.078 50.2486 253.309 53.0868C264.477 78.8279 274.023 72.7302 275.558 75.7225C276.492 77.5472 278.256 82.8012 276.416 84.3482C275.968 84.7252 275.18 84.839 274.632 84.9741C272.293 85.5507 269.815 85.7017 267.42 85.8838C256.205 86.735 244.899 86.6645 233.662 86.6136C229.769 86.5954 225.879 86.5613 221.988 86.5082C218.813 86.4642 215.342 86.8094 212.198 86.3519C209.585 85.971 208.331 83.1889 206.608 81.4575C204.211 79.0509 201.459 77.0396 198.794 74.9494C195.658 72.489 192.507 69.6659 190.495 66.3018Z" fill="white"/>
<path d="M165.712 164.46H158.446V131.594H165.712V164.46Z" fill="#593D3D"/>
<path d="M280.567 164.46H273.304V131.594H280.567V164.46Z" fill="#3A1714"/>
<path d="M384.494 162.384H41.718V136.155H384.494V162.384ZM34.7676 128.308V168.092H391.445V128.308H34.7676Z" fill="#593D3D"/>
<path d="M33.8569 90.0475C33.8569 90.0475 390.754 87.4854 392.137 90.945C393.521 94.4047 394.213 126.232 392.829 127.962C391.446 129.692 35.806 130.73 34.0762 128.308C32.3463 125.886 33.2037 90.7 33.8569 90.0475Z" fill="#A99852"/>
<path d="M162.344 125.971C162.412 127.248 163.617 127.708 163.576 126.429C162.997 108.346 163.572 112.586 163.324 92.6794C163.309 91.464 162.033 91.4625 162.018 92.6794C161.857 105.58 161.692 113.569 162.344 125.971Z" fill="#7F7340"/>
<path d="M287.548 89.3882C287.548 89.3882 300.693 98.3825 302.424 100.458C304.154 102.534 320.446 122.954 326.329 123.992C332.21 125.029 335.634 117.756 340.824 111.183C346.014 104.61 359.505 92.1559 359.505 92.1559L287.548 89.3882Z" fill="#644620"/>
<path d="M287.721 89.2152C288.066 89.2152 299.889 94.9016 303.146 97.2475C306.401 99.5934 322.662 115.161 330.965 115.854C339.268 116.545 344.994 104.132 358.141 97.9046C371.287 91.6779 376.217 89.9094 376.217 89.9094L287.721 89.2152Z" fill="white"/>
<path d="M53.7656 90.0475C51.573 90.1166 49.375 90.1644 47.1824 90.0832C46.2803 90.0498 45.3752 89.9997 44.4807 89.873C43.9883 89.8032 42.8684 89.7418 42.6287 89.2334C42.3298 88.5969 42.4041 87.8412 42.3427 87.1584C42.2645 86.2965 42.1796 85.4354 42.1219 84.5705C42.0111 82.9052 41.9519 81.236 41.8837 79.5676C41.716 75.4684 41.6432 71.3646 41.6014 67.2616C41.5559 62.8225 41.5544 58.3841 41.5734 53.9457C41.5916 49.9079 41.6287 45.8701 41.675 41.8324C41.7084 38.9326 41.7501 36.0337 41.7797 33.1339C41.782 32.9253 41.7843 32.7166 41.7858 32.5087C41.8313 27.4938 41.889 22.4795 41.917 17.4646C41.9428 12.8502 41.452 7.71227 43.7402 3.5182C44.2819 2.52507 42.7911 1.64877 42.2205 2.63053C39.9004 6.62355 40.0476 11.2827 39.9793 15.7552C39.8974 21.1116 39.8412 26.468 39.7775 31.8252C39.7138 37.1816 39.6493 42.538 39.5985 47.8944C39.5765 50.2167 39.5643 52.5391 39.5583 54.8622C39.5484 58.7399 39.5583 62.6184 39.5969 66.4961C39.6387 70.6416 39.7077 74.7879 39.8579 78.9311C39.9725 82.0751 40.1553 85.2063 40.4975 88.3329C40.5514 88.8215 40.5453 89.3093 40.7077 89.7812C41.367 91.7045 44.0482 91.5255 45.7007 91.6112C48.4972 91.7561 51.3059 91.6992 54.1032 91.6097C55.3452 91.5695 55.0137 90.0081 53.7656 90.0475Z" fill="#7F7340"/>
<path d="M86.1042 89.3882C76.8436 96.0101 69.8143 107.05 66.6786 106.74C63.5429 106.429 62.5497 97.7634 63.5429 94.885C64.5368 92.0057 77.2867 84.943 77.2867 84.943L86.1042 89.3882Z" fill="#644620"/>
<path d="M164.597 90.8995C168.839 96.6755 195.962 114.163 204.458 118.498C212.953 122.833 222.511 103.915 227.043 95.0853C231.574 86.2563 281.937 91.967 282.36 93.8782C282.781 95.7886 287.018 122.249 292.325 126.421C297.634 130.591 308.326 125.615 318.274 114.581C328.225 103.547 293.645 81.6905 293.645 81.6905L212.068 75.8804L164.597 90.8995Z" fill="#644620"/>
<path d="M310.105 71.8851C309.96 70.7736 309.297 65.7442 312.199 62.7959C313.873 61.0934 315.285 61.56 321.397 59.0942C325.645 57.3811 325.37 56.9911 327.895 56.2688C330.005 55.6649 333.746 54.5952 338.144 55.8371C340.354 56.4615 343.958 57.4797 345.495 60.488C346.777 62.9932 345.833 65.3269 348.106 68.3002C348.828 69.2441 349.028 69.1454 349.646 69.9504C352.289 73.3858 351.176 78.4683 351.03 79.1337C349.663 85.3808 343.285 90.1932 336.934 90.9246C333.051 91.3714 330.151 90.181 326.98 88.8799C324.719 87.9528 311.508 82.5319 310.105 71.8851Z" fill="#832A2E"/>
<path d="M194.564 66.8807C178.995 72.2682 157.9 76.0754 155.149 76.1884C152.399 76.3022 144.22 73.819 136.831 72.9776C129.441 72.1362 121.45 71.7887 110.16 72.0315C98.8701 72.2743 94.607 73.1703 91.2922 71.7955C87.9767 70.4208 85.4139 66.5158 81.6045 66.8701C77.795 67.2244 75.9279 70.6583 74.7109 75.2491C73.4948 79.8408 71.0677 84.0197 69.8287 85.4915C68.5905 86.9642 66.6718 88.0832 64.3965 91.3054C62.1204 94.5269 61.5377 99.1443 63.3335 100.508C65.1294 101.871 66.7249 98.2968 69.1922 96.0374C71.6587 93.778 74.5835 92.9647 78.3557 90.5194C82.128 88.0741 85.5846 86.0697 88.8197 85.1585C92.0547 84.2465 98.0204 84.0622 104.145 84.7359C110.269 85.4096 129.479 89.3138 133.064 90.2235C136.649 91.134 156.094 88.3344 162.672 87.9292C169.25 87.5233 204.733 88.8184 204.173 88.4808C203.611 88.1424 199.433 78.1496 197.101 75.2135C194.768 72.2773 194.564 66.8807 194.564 66.8807Z" fill="#DD825C"/>
<path d="M107.971 72.0884C98.3018 72.3851 94.3839 73.077 91.2922 71.7955C87.9775 70.4208 85.4139 66.5158 81.6045 66.8701C77.795 67.2244 75.9279 70.6583 74.7109 75.2491C73.4948 79.8408 71.0677 84.0197 69.8287 85.4915C68.5905 86.9642 66.6718 88.0832 64.3965 91.3054C62.1204 94.5269 61.5377 99.1443 63.3335 100.508C65.1294 101.871 66.7249 98.2968 69.1922 96.0374C71.6587 93.778 74.5842 92.9647 78.3557 90.5194C82.128 88.0741 85.5846 86.0697 88.8197 85.1585C92.0547 84.2465 98.0204 84.0622 104.145 84.7359C104.582 84.7837 105.094 84.8504 105.654 84.9293V84.9286C105.654 84.9286 103.922 75.5253 107.971 72.0884Z" fill="#F0E5DB"/>
<path d="M81.6051 66.8701C77.7956 67.2244 75.9285 70.6582 74.7115 75.2491C74.666 75.4213 74.6159 75.5905 74.5674 75.7612C75.4991 75.9782 76.6075 76.1831 78.5096 75.869C81.9047 75.3098 84.3159 73.6763 85.3636 72.9518C86.8552 71.9184 88.054 71.0877 88.8074 70.3161C86.5495 68.6674 84.4168 66.6091 81.6051 66.8701Z" fill="#EC4450"/>
<path d="M66.7529 98.774C66.1536 98.0252 65.5921 97.1838 65.1119 96.2309C64.8645 95.7423 64.1802 94.3114 63.7978 92.2621C62.0361 95.3796 61.7084 99.274 63.3335 100.508C64.4632 101.366 65.514 100.268 66.7529 98.774Z" fill="#EC4450"/>
<path d="M107.971 72.0884C106.564 72.1317 105.281 72.1833 104.102 72.2356C103.705 73.0641 103.313 74.033 102.996 75.143C101.964 78.7642 102.251 82.0562 102.798 84.6024C103.246 84.6426 103.695 84.6866 104.145 84.7359C104.583 84.7837 105.094 84.8505 105.655 84.9294V84.9286C105.655 84.9286 103.923 75.5253 107.971 72.0884Z" fill="#EC4450"/>
<path d="M197.955 61.6852C196.046 64.591 193.572 66.9005 192.77 67.1083C191.968 67.3162 196.298 75.0496 196.854 75.6695C197.41 76.2893 201.957 66.4286 201.322 65.7594C200.686 65.0895 197.955 61.6852 197.955 61.6852Z" fill="#BD2328"/>
<path d="M316.26 69.9185C313.052 71.4018 301.408 69.046 301.408 69.046C301.408 69.046 304.339 87.6933 304.677 87.9269C305.015 88.1614 313.937 88.5642 313.937 88.5642L316.26 69.9185Z" fill="#DD825C"/>
<path d="M313.938 88.5643L314.276 79.2907L311.78 74.0095C311.721 74.1149 311.665 74.2211 311.609 74.3281C309.171 78.9455 308.455 85.6721 308.381 88.2714C310.963 88.43 313.938 88.5643 313.938 88.5643Z" fill="#1A1A1A"/>
<path d="M239.188 61.4037C223.906 49.5293 215.356 51.8919 209.796 53.3623C204.235 54.8326 199.159 59.8226 197.425 62.4158C195.689 65.0083 196.784 72.253 196.784 72.253C196.784 72.253 216.267 87.6743 218.652 88.9148C221.037 90.1553 230.862 91.093 232.159 90.8806C233.454 90.6681 244.232 79.0305 242.952 74.2712C241.67 69.5126 239.188 61.4037 239.188 61.4037Z" fill="#EC4450"/>
<path d="M341.098 73.6695C337.841 67.2851 333.028 64.7799 329.18 64.9961C325.333 65.2123 322.62 66.3132 322.62 66.3132C322.62 66.3132 323.851 64.1448 322.977 63.0432C322.103 61.9408 319.599 64.3838 318.414 64.9923C317.23 65.6008 315.383 66.449 314.629 67.5074C313.876 68.565 314.807 70.6795 314.807 70.6795C314.807 70.6795 311.993 72.3949 311.698 74.3751C311.403 76.3553 311.792 84.4582 312.337 86.9331C312.883 89.4072 315.47 89.6682 316.776 90.0012C318.08 90.3343 330.012 90.6105 333.918 89.0362C337.823 87.4626 340.486 85.8914 341.58 82.2413C342.675 78.5912 341.098 73.6695 341.098 73.6695Z" fill="#E8936B"/>
<path d="M328.104 76.567C325.298 75.0056 325.061 72.4048 325.302 71.8836C325.545 71.3616 325.816 71.357 326.059 72.687C326.45 74.8318 328.456 76.7627 328.104 76.567Z" fill="#1A1A1A"/>
<path d="M331.569 82.2102C330.74 85.3125 332.446 87.2911 332.987 87.4801C333.531 87.669 333.723 87.477 332.935 86.3777C331.666 84.6061 331.672 81.8209 331.569 82.2102Z" fill="#1A1A1A"/>
<path d="M325.645 85.6372C325.597 85.6372 325.547 85.6281 325.498 85.6091C325.37 85.5568 324.233 85.031 323.952 82.6267C323.927 82.409 324.082 82.2117 324.302 82.1859C324.519 82.1593 324.715 82.3172 324.74 82.5349C324.965 84.465 325.797 84.8724 325.805 84.8762C326.001 84.9673 326.092 85.1994 326.006 85.3967C325.94 85.5462 325.797 85.6372 325.645 85.6372Z" fill="#DD825C"/>
<path d="M318.899 82.7291C323.159 84.8671 322.562 88.9838 322.516 89.0665C322.468 89.1492 321.514 87.2373 320.823 86.0241C320.131 84.811 318.899 82.7291 318.899 82.7291Z" fill="#1A1A1A"/>
<path d="M331.791 75.3015C331.517 75.3015 331.29 75.0868 331.275 74.8114C331.275 74.7818 331.104 71.8312 329.422 70.0179C329.228 69.8093 329.239 69.4823 329.447 69.2888C329.657 69.0946 329.983 69.1068 330.177 69.3154C332.121 71.4079 332.3 74.624 332.306 74.7598C332.319 75.0451 332.102 75.2863 331.816 75.3008C331.809 75.3015 331.799 75.3015 331.791 75.3015Z" fill="#832A2E"/>
<path d="M337.27 86.5719C337.01 86.5719 336.786 86.3754 336.759 86.1106C336.755 86.0947 336.532 84.3277 334.825 82.9734C334.601 82.7966 334.565 82.4719 334.742 82.2481C334.919 82.0243 335.242 81.9871 335.466 82.1647C337.527 83.7974 337.775 85.9103 337.785 85.9999C337.816 86.2829 337.61 86.5378 337.327 86.5681C337.309 86.5704 337.289 86.5719 337.27 86.5719Z" fill="#832A2E"/>
<path d="M317.494 68.4801C318.409 67.9793 319.615 67.3709 320.395 66.8193C321.178 66.267 321.806 65.0637 321.248 64.7147C320.691 64.3649 318.669 66.078 317.984 66.4217C317.296 66.7647 317.045 68.7259 317.494 68.4801Z" fill="#DD825C"/>
<path d="M239.187 61.4037C235.353 67.842 234.973 81.6579 234.446 85.1365C233.918 88.6159 230.253 90.3488 232.912 91.3168C235.571 92.2857 242.78 91.8077 249.602 92.1833C256.425 92.5596 267.985 94.8539 273.898 94.4958C279.812 94.1377 294.645 91.1226 297.558 87.2017C300.472 83.28 306.795 73.5186 305.475 69.9747C304.154 66.4316 298.859 63.3111 296.57 62.1374C294.278 60.9637 290.281 60.3203 286.083 60.9364C281.884 61.5524 271.93 63.0349 266.29 64.0576C260.649 65.0804 258.988 63.5463 257.483 63.7936C255.978 64.041 256.312 65.1615 254.363 65.2169C252.411 65.2723 251.562 65.5917 250.74 65.4749C249.92 65.3588 245.9 63.3596 244.255 64.9719C242.61 66.5841 239.187 61.4037 239.187 61.4037Z" fill="#F0E5DB"/>
<path d="M224.061 78.1679C224.053 78.1679 224.044 78.1671 224.036 78.1664C223.919 78.1535 223.836 78.0488 223.849 77.9319C224.273 74.165 223.393 68.5924 219.656 64.2511C216.21 60.2475 211.145 58.092 204.6 57.8454C204.483 57.8409 204.392 57.7423 204.396 57.6254C204.402 57.5086 204.489 57.4304 204.617 57.4213C211.283 57.6725 216.451 59.8772 219.978 63.9742C223.803 68.4194 224.704 74.124 224.27 77.9797C224.259 78.0875 224.166 78.1679 224.061 78.1679Z" fill="#BD2328"/>
<path d="M306.787 88.1652C306.889 87.2404 310.127 88.2616 312.326 88.2183C316.499 88.1364 320.417 90.0157 323.911 89.631C326.667 89.3275 327.423 88.6918 330.469 87.8875C330.469 87.8875 334.885 86.7214 341.399 86.6941C350.613 86.6539 362.865 90.4094 362.662 92.9503C362.423 95.9419 344.87 97.6671 329.922 96.1664C318.836 95.0542 306.633 89.5506 306.787 88.1652Z" fill="white"/>
<path d="M197.421 69.6697C196.492 66.0628 197.287 64.4665 198.382 63.6995C199.48 62.9325 203.372 60.7429 208.748 61.7785C214.124 62.8141 216.824 64.5068 219.813 67.4862C222.802 70.4656 223.985 72.1893 224.452 75.6361C224.915 79.0828 223.393 82.8589 222.146 83.852C220.899 84.8444 197.421 69.6697 197.421 69.6697Z" fill="#1A1A1A"/>
<path d="M306.971 75.3174C307.576 81.4348 307.184 84.2769 306.194 88.5293C305.203 92.7818 302.744 106.957 302.766 107.317C302.785 107.678 304.429 107.296 309.507 104.985C314.586 102.672 324.737 96.6026 325.473 95.5488C326.211 94.4942 327.45 92.1089 328.884 90.5809C330.317 89.0536 333.238 88.238 334.788 87.4998C336.338 86.7608 340.612 85.5803 342.127 85.4953C343.643 85.4096 345.334 86.8519 345.826 86.9057C346.317 86.9596 348.74 86.6334 349.72 86.6872C350.699 86.7403 351.134 87.6925 350.777 88.1196C350.421 88.5468 350.421 88.5468 350.421 88.5468C350.421 88.5468 351.107 88.1826 351.565 88.6181C352.023 89.0536 351.936 89.9261 351.303 90.2334C350.67 90.5406 349.483 91.1499 349.483 91.1499C349.483 91.1499 350.28 90.8335 350.691 91.4071C351.103 91.9814 349.639 93.9085 348.114 94.781C346.589 95.6543 343.477 98.2164 340.282 99.7801C337.086 101.344 333.38 102.339 331.894 102.929C330.408 103.519 328.297 105.23 326.737 106.439C325.177 107.648 321.029 113.019 308.61 119.903C296.191 126.788 296.113 127.335 294.364 127.108C292.616 126.881 287.476 118.487 286.575 110.181C285.674 101.876 286.876 94.319 287.824 91.8782C288.772 89.4375 288.801 88.0248 288.801 88.0248C288.801 88.0248 283.404 88.5453 282.141 79.6078C280.879 70.6711 280.841 68.0688 282.642 65.3625C284.445 62.6563 286.331 61.4651 286.331 61.4651C286.331 61.4651 292.761 60.0183 298.052 63.4104C303.344 66.8026 304.262 67.6553 305.476 69.9747C306.237 71.4276 306.868 74.2772 306.971 75.3174Z" fill="#E8936B"/>
<path d="M299.039 113.591C298.86 113.591 298.695 113.478 298.638 113.299C298.602 113.185 297.819 110.478 303.337 106.281C303.523 106.14 303.791 106.176 303.931 106.363C304.075 106.549 304.038 106.815 303.851 106.957C298.889 110.73 299.444 113.027 299.45 113.05C299.51 113.273 299.382 113.507 299.161 113.572C299.12 113.585 299.079 113.591 299.039 113.591Z" fill="#DD825C"/>
<path d="M288.342 89.958C288.298 89.958 288.25 89.9504 288.204 89.9345C287.983 89.8578 287.864 89.6166 287.942 89.395C289.397 85.1896 289.498 81.0122 289.5 80.9705C289.504 80.736 289.712 80.5608 289.933 80.5547C290.166 80.56 290.352 80.7535 290.348 80.9879C290.344 81.1639 290.241 85.3421 288.744 89.6727C288.682 89.848 288.519 89.958 288.342 89.958Z" fill="#DD825C"/>
<path d="M342.137 91.1233C342.166 91.2197 342.258 91.2804 342.353 91.2751C342.369 91.2743 342.386 91.2713 342.401 91.2667C342.458 91.2508 347.607 89.7243 350.961 88.4072C350.668 88.4193 350.421 88.5468 350.421 88.5468C350.421 88.5468 350.421 88.5468 350.777 88.1197C350.806 88.084 350.823 88.0408 350.84 87.999C347.506 89.3116 342.338 90.8434 342.282 90.8601C342.169 90.8935 342.105 91.011 342.137 91.1233Z" fill="#DD825C"/>
<path d="M340.612 88.7684C340.63 88.7668 340.647 88.7638 340.665 88.7577C340.69 88.7502 343.09 87.9626 346.216 86.9042C346.043 86.9126 345.904 86.9149 345.826 86.9058C345.728 86.8951 345.581 86.8284 345.4 86.7313C342.616 87.6713 340.556 88.3473 340.533 88.3549C340.422 88.3913 340.361 88.5112 340.399 88.6227C340.427 88.716 340.517 88.7737 340.612 88.7684Z" fill="#DD825C"/>
<path d="M349.483 91.1499C349.483 91.1499 349.652 91.0634 349.895 90.939C346.74 92.1498 343.405 93.7188 343.362 93.7393C343.256 93.7894 343.211 93.9153 343.26 94.0215C343.298 94.102 343.38 94.1475 343.464 94.1429C343.49 94.1414 343.518 94.1346 343.544 94.1232C343.588 94.1012 347.193 92.4055 350.439 91.1863C350.017 90.9443 349.483 91.1499 349.483 91.1499Z" fill="#DD825C"/>
<path d="M153.305 79.4038C151.733 77.4964 151.314 76.1877 149.022 75.303C146.73 74.4192 145.801 75.9183 140.744 76.0587C135.687 76.1983 126.755 75.6141 124.984 76.2931C123.213 76.9722 121.579 77.4987 119.892 78.3894C118.206 79.2801 115.823 81.9462 114.783 84.0311C113.743 86.1152 114.39 91.1962 114.768 91.4747C115.145 91.7523 120.426 91.7447 126.252 91.1272C132.078 90.5104 143.154 90.6105 148.211 90.4709C153.268 90.3313 156.911 90.7774 166.63 93.7758C176.35 96.7741 191.786 104.951 195.514 106.911C199.243 108.872 202.959 110.617 207.999 110.189C213.039 109.76 215.676 109.032 218.983 103.493C222.288 97.9524 224.096 77.7005 224.064 74.5185C224.028 71.3373 218.731 65.594 213.816 63.1207C208.902 60.6473 200.601 62.2724 198.979 64.3171C197.357 66.3618 195.185 84.355 195.185 84.355C195.185 84.355 191.923 82.9469 185.723 82.0661C179.524 81.1845 173.441 81.0927 166.06 81.0737C158.679 81.0547 153.868 80.0874 153.305 79.4038Z" fill="#E8936B"/>
<path d="M200.952 90.8222C200.769 90.8222 200.601 90.7015 200.546 90.5164C200.533 90.4747 199.26 86.3216 194.094 83.9233C193.88 83.8247 193.789 83.5721 193.886 83.3596C193.985 83.1472 194.238 83.0546 194.452 83.1533C199.985 85.7222 201.308 90.0946 201.36 90.2797C201.426 90.505 201.296 90.7395 201.071 90.8047C201.032 90.8161 200.991 90.8222 200.952 90.8222Z" fill="#DD825C"/>
<path d="M153.304 79.4038C151.733 77.4964 151.315 76.1877 149.021 75.303C146.729 74.4191 145.8 75.9183 140.743 76.0587C135.687 76.1983 126.754 75.6141 124.984 76.2931C123.213 76.9721 121.579 77.4987 119.892 78.3894C118.206 79.2801 115.824 81.9462 114.783 84.0311C113.743 86.1152 114.391 91.1962 114.768 91.4746C115.146 91.7523 120.426 91.7447 126.252 91.1271C132.078 90.5103 143.154 90.6105 148.21 90.4709C152.53 90.3518 155.822 90.6613 162.747 92.6225C162.032 89.0938 161.928 85.9187 162.964 83.2739C163.34 82.3141 163.892 81.6063 164.512 81.0547C158.012 80.9166 153.827 80.038 153.304 79.4038Z" fill="#F0E5DB"/>
<path d="M159.364 83.9104C158.294 86.515 158.229 88.9702 158.567 91.5368C159.814 91.8251 161.184 92.1802 162.747 92.6225C162.033 89.0938 161.929 85.9187 162.964 83.2739C163.34 82.3141 163.893 81.6063 164.512 81.0547C163.282 81.0289 162.134 80.9758 161.078 80.903C160.084 82.2443 159.567 83.418 159.364 83.9104Z" fill="#EC4450"/>
<path d="M153.131 79.1875C151.701 77.3978 151.227 76.1535 149.022 75.303C146.789 74.4426 145.839 75.8386 141.12 76.0412C141.778 76.482 142.501 77.1861 143.714 77.7361C146.394 78.9508 148.533 79.5441 151.028 79.4417C151.637 79.4159 152.386 79.3309 153.131 79.1875Z" fill="#EC4450"/>
<path d="M127.241 76.0002C126.195 76.0465 125.395 76.1353 124.984 76.2931C123.213 76.9721 121.579 77.4987 119.892 78.3894C118.206 79.2801 115.824 81.9461 114.783 84.031C113.743 86.1152 114.391 91.1962 114.768 91.4746C114.981 91.6317 116.765 91.6969 119.328 91.6127C119.31 91.0012 119.317 90.3631 119.37 89.6879C119.475 88.3526 119.728 85.4862 121.409 82.5182C123.75 78.3818 126.457 76.9114 127.241 76.0002Z" fill="#EC4450"/>
<path d="M225.285 85.9976C225.168 85.9976 225.052 85.9399 224.983 85.8345C224.875 85.6676 224.921 85.4438 225.088 85.3353C225.158 85.289 232.152 80.6063 233.39 70.1325C233.413 69.9345 233.595 69.7934 233.792 69.8169C233.988 69.8404 234.129 70.0195 234.106 70.2175C232.826 81.0403 225.555 85.8921 225.48 85.9392C225.42 85.9786 225.352 85.9976 225.285 85.9976Z" fill="#BD2328"/>
<path d="M225.163 83.8254C225.112 83.8254 225.06 83.8148 225.011 83.7921C224.831 83.7078 224.751 83.4931 224.836 83.3126C224.873 83.2306 228.664 75.0352 228.314 71.3077C228.295 71.1089 228.441 70.9337 228.639 70.9147C228.841 70.9003 229.014 71.0422 229.034 71.2402C229.4 75.1619 225.65 83.2739 225.489 83.6176C225.428 83.7488 225.299 83.8254 225.163 83.8254Z" fill="#BD2328"/>
</svg>
