<svg width="305" height="41" viewBox="0 0 305 41" fill="none" xmlns="http://www.w3.org/2000/svg">
<circle cx="20" cy="20" r="19.75" fill="#4E7B63" stroke="#4E7B63" stroke-width="0.5"/>
<g filter="url(#filter0_dd_181_1609)">
<circle cx="20" cy="20" r="13.3333" fill="#9ABBA7"/>
<circle cx="20" cy="20" r="13.0833" stroke="#6E9980" stroke-width="0.5"/>
</g>
<g filter="url(#filter1_dd_181_1609)">
<circle cx="20" cy="20" r="6.66667" fill="#FBF5F5"/>
<circle cx="20" cy="20" r="6.41667" stroke="#C3D7CA" stroke-width="0.5"/>
</g>
<mask id="path-6-outside-1_181_1609" maskUnits="userSpaceOnUse" x="56" y="9" width="247" height="20" fill="black">
<rect fill="white" x="56" y="9" width="247" height="20"/>
<path d="M63.0195 13.375H56.7852V11.4062H71.4219V13.375H65.1875V28H63.0195V13.375ZM76.8416 17.3008C77.9978 16.4648 79.3416 16.0469 80.8728 16.0469C84.4353 16.0469 86.2166 18.0039 86.2166 21.918V28H84.0017L83.99 22.0586C83.99 20.707 83.7556 19.7031 83.2869 19.0469C82.7634 18.2969 81.908 17.9219 80.7205 17.9219C79.447 17.9219 78.3806 18.2344 77.5212 18.8594C77.24 19.0547 77.0134 19.2812 76.8416 19.5391V28H74.615V9.69531L76.8416 9.70703V17.3008ZM98.8784 17.3125C99.2925 17.7266 99.6167 18.25 99.8511 18.8828C100.093 19.5078 100.214 20.168 100.214 20.8633C100.214 21.5586 100.136 22.375 99.98 23.3125H91.8237C91.9956 24.2578 92.3784 25.0039 92.9722 25.5508C93.5659 26.0898 94.4058 26.3594 95.4917 26.3594C96.9448 26.3594 98.2769 26.0938 99.4878 25.5625L99.8628 27.2383C99.0581 27.707 97.9097 28.0156 96.4175 28.1641C96.0034 28.2109 95.4644 28.2344 94.8003 28.2344C94.1362 28.2344 93.4409 28.1016 92.7144 27.8359C91.9878 27.5703 91.3862 27.1797 90.9097 26.6641C89.9644 25.6406 89.4917 24.1406 89.4917 22.1641C89.4917 20.4297 90.0581 18.9766 91.1909 17.8047C92.3394 16.6328 93.773 16.0469 95.4917 16.0469C96.9058 16.0469 98.0347 16.4688 98.8784 17.3125ZM98.0933 21.5898L98.1402 20.957C98.1402 19.5273 97.605 18.5781 96.5347 18.1094C96.1753 17.9531 95.7456 17.875 95.2456 17.875C94.7456 17.875 94.2847 17.9727 93.8628 18.168C93.4487 18.3633 93.0894 18.6289 92.7847 18.9648C92.1597 19.6523 91.8081 20.5273 91.73 21.5898H98.0933ZM115.214 20.9219L109.097 11.4062H111.476L116.315 18.9883L121.12 11.4062H123.358L117.382 20.8867V28H115.214V20.9219ZM128.286 25.9023C127.473 25.1602 126.829 24.2773 126.352 23.2539C125.884 22.2305 125.649 21.1992 125.649 20.1602C125.649 19.1211 125.755 18.2227 125.966 17.4648C126.184 16.6992 126.493 15.9961 126.891 15.3555C127.29 14.707 127.766 14.125 128.321 13.6094C128.876 13.0938 129.493 12.6562 130.173 12.2969C131.595 11.5469 133.145 11.1719 134.825 11.1719C136.434 11.1719 137.934 11.5312 139.325 12.25C140.677 12.9531 141.755 13.9297 142.559 15.1797C143.38 16.4844 143.79 17.9336 143.79 19.5273C143.79 22.0508 142.899 24.1406 141.118 25.7969C140.001 26.8359 138.653 27.5508 137.075 27.9414C136.286 28.1367 135.372 28.2344 134.333 28.2344C133.294 28.2344 132.231 28.0312 131.145 27.625C130.059 27.2109 129.106 26.6367 128.286 25.9023ZM129.891 14.9453C129.29 15.5156 128.813 16.1914 128.462 16.9727C128.118 17.7539 127.946 18.6133 127.946 19.5508C127.946 20.4883 128.126 21.3672 128.485 22.1875C128.845 23.0078 129.337 23.7227 129.962 24.332C131.298 25.6367 132.919 26.2891 134.825 26.2891C136.677 26.2891 138.247 25.6797 139.536 24.4609C140.841 23.2266 141.493 21.6992 141.493 19.8789C141.493 18.6445 141.18 17.5 140.555 16.4453C139.97 15.4453 139.145 14.6406 138.083 14.0312C137.036 13.4219 135.966 13.1172 134.872 13.1172C133.778 13.1172 132.825 13.2812 132.012 13.6094C131.208 13.9297 130.501 14.375 129.891 14.9453ZM147.428 11.4062H149.596V19.9961C149.596 23.0117 150.6 24.9609 152.608 25.8438C153.295 26.1406 154.108 26.2891 155.045 26.2891C155.983 26.2891 156.78 26.1523 157.436 25.8789C158.1 25.6055 158.647 25.2109 159.077 24.6953C159.913 23.7031 160.331 22.2539 160.331 20.3477V11.4062H162.499V19.9961C162.499 23.9727 161.065 26.5312 158.198 27.6719C157.245 28.0469 156.143 28.2344 154.893 28.2344C153.643 28.2344 152.553 28.0547 151.624 27.6953C150.702 27.3281 149.932 26.8047 149.315 26.125C148.057 24.75 147.428 22.8242 147.428 20.3477V11.4062ZM186.71 14.8516C185.413 13.6953 183.745 13.1172 181.706 13.1172C179.854 13.1172 178.284 13.7266 176.995 14.9453C175.69 16.1719 175.038 17.6992 175.038 19.5273C175.038 21.418 175.71 23.0195 177.053 24.332C178.389 25.6367 180.01 26.2891 181.917 26.2891C183.299 26.2891 184.678 25.9375 186.053 25.2344C186.46 25.0312 186.811 24.8086 187.108 24.5664L187.952 26.1836C186.803 27.168 185.323 27.8047 183.51 28.0938C182.924 28.1875 182.323 28.2344 181.706 28.2344C180.479 28.2344 179.323 28.0312 178.237 27.625C177.151 27.2109 176.198 26.6367 175.378 25.9023C174.565 25.1602 173.92 24.2773 173.444 23.2539C172.975 22.2305 172.741 21.1992 172.741 20.1602C172.741 19.1211 172.846 18.2227 173.057 17.4648C173.276 16.6992 173.585 15.9961 173.983 15.3555C174.381 14.707 174.858 14.125 175.413 13.6094C175.967 13.0938 176.585 12.6562 177.264 12.2969C178.686 11.5469 180.237 11.1719 181.917 11.1719C184.19 11.1719 186.151 11.8203 187.799 13.1172L186.71 14.8516ZM189.973 22.2461C189.973 21.3555 190.149 20.5312 190.5 19.7734C190.852 19.0156 191.328 18.3594 191.93 17.8047C193.203 16.6328 194.735 16.0469 196.524 16.0469C198.328 16.0469 199.832 16.6055 201.035 17.7227C202.254 18.8555 202.864 20.3125 202.864 22.0938C202.864 23.8359 202.211 25.3008 200.907 26.4883C199.641 27.6523 198.11 28.2344 196.313 28.2344C194.485 28.2344 192.977 27.6797 191.789 26.5703C190.578 25.4453 189.973 24.0039 189.973 22.2461ZM192.2 22.1172C192.2 22.7266 192.309 23.293 192.528 23.8164C192.746 24.332 193.047 24.7812 193.43 25.1641C194.242 25.9609 195.274 26.3594 196.524 26.3594C197.688 26.3594 198.664 25.9609 199.453 25.1641C200.242 24.3828 200.637 23.4023 200.637 22.2227C200.637 20.9883 200.227 19.9609 199.407 19.1406C198.594 18.3281 197.563 17.9219 196.313 17.9219C195.149 17.9219 194.172 18.3242 193.383 19.1289C192.594 19.9258 192.2 20.9219 192.2 22.1172ZM208.412 17.4414C209.639 16.5117 211.045 16.0469 212.631 16.0469C216.193 16.0469 217.975 18.0039 217.975 21.918V28H215.748V22.0586C215.748 20.707 215.514 19.7031 215.045 19.0469C214.522 18.2969 213.666 17.9219 212.479 17.9219C211.205 17.9219 210.139 18.2344 209.279 18.8594C208.998 19.0547 208.772 19.2812 208.6 19.5391V28H206.373V16.2812H208.072L208.412 17.4414ZM222.07 18.0859H220.816V16.6328L223.699 14.4648H224.297V16.2812H227.648V18.0859H224.297V22.8203C224.297 24.1484 224.465 25.0547 224.801 25.5391C225.137 26.0156 225.793 26.3086 226.769 26.418L226.43 28C224.086 28.2969 222.699 27.3711 222.269 25.2227C222.137 24.582 222.07 23.8906 222.07 23.1484V18.0859ZM233.232 11.4648C233.232 11.9023 233.099 12.2539 232.834 12.5195C232.568 12.7852 232.216 12.918 231.779 12.918C231.341 12.918 230.99 12.7852 230.724 12.5195C230.459 12.2539 230.326 11.9023 230.326 11.4648C230.326 11.0273 230.459 10.6797 230.724 10.4219C230.99 10.1562 231.341 10.0234 231.779 10.0234C232.216 10.0234 232.568 10.1562 232.834 10.4219C233.099 10.6797 233.232 11.0273 233.232 11.4648ZM230.666 16.2812H232.892V28H230.666V16.2812ZM239.484 17.4414C240.71 16.5117 242.117 16.0469 243.702 16.0469C247.265 16.0469 249.046 18.0039 249.046 21.918V28H246.82V22.0586C246.82 20.707 246.585 19.7031 246.117 19.0469C245.593 18.2969 244.738 17.9219 243.55 17.9219C242.277 17.9219 241.21 18.2344 240.351 18.8594C240.07 19.0547 239.843 19.2812 239.671 19.5391V28H237.445V16.2812H239.144L239.484 17.4414ZM262.189 26.8633C261.11 27.7773 259.806 28.2344 258.275 28.2344C256.4 28.2344 255.06 27.7383 254.255 26.7461C253.497 25.8242 253.118 24.3633 253.118 22.3633V16.2812H255.345V22.2227C255.345 23.582 255.548 24.582 255.954 25.2227C256.431 25.9805 257.255 26.3594 258.427 26.3594C259.622 26.3594 260.61 26.0312 261.392 25.375C261.634 25.1719 261.837 24.9492 262.001 24.707V16.2812H264.228V28H262.528L262.189 26.8633ZM277.616 26.8633C276.538 27.7773 275.233 28.2344 273.702 28.2344C271.827 28.2344 270.487 27.7383 269.682 26.7461C268.925 25.8242 268.546 24.3633 268.546 22.3633V16.2812H270.772V22.2227C270.772 23.582 270.975 24.582 271.382 25.2227C271.858 25.9805 272.682 26.3594 273.854 26.3594C275.05 26.3594 276.038 26.0312 276.819 25.375C277.061 25.1719 277.265 24.9492 277.429 24.707V16.2812H279.655V28H277.956L277.616 26.8633ZM294.333 19.6094C294.465 20.2734 294.532 21.043 294.532 21.918V28H292.305V22.0586C292.305 20.6602 292.184 19.7266 291.942 19.2578C291.7 18.7812 291.399 18.4414 291.04 18.2383C290.688 18.0273 290.286 17.9219 289.833 17.9219C289.38 17.9219 288.997 17.9609 288.684 18.0391C288.38 18.1172 288.087 18.2266 287.805 18.3672C287.235 18.6719 286.782 19.0781 286.446 19.5859V28H284.219V16.2812H285.919L286.247 17.3945C287.262 16.4961 288.438 16.0469 289.774 16.0469C291.641 16.0469 292.95 16.6484 293.7 17.8516C294.387 17.0547 295.294 16.5078 296.419 16.2109C296.817 16.1016 297.356 16.0469 298.036 16.0469C298.723 16.0469 299.372 16.1797 299.981 16.4453C300.59 16.7109 301.079 17.0938 301.446 17.5938C302.11 18.5234 302.442 19.9648 302.442 21.918V28H300.215V22.0586C300.215 20.6602 300.094 19.7266 299.852 19.2578C299.61 18.7812 299.309 18.4414 298.95 18.2383C298.598 18.0273 298.196 17.9219 297.743 17.9219C297.29 17.9219 296.907 17.9648 296.594 18.0508C296.282 18.1289 295.985 18.2422 295.704 18.3906C295.118 18.6875 294.661 19.0938 294.333 19.6094Z"/>
</mask>
<path d="M63.0195 13.375H56.7852V11.4062H71.4219V13.375H65.1875V28H63.0195V13.375ZM76.8416 17.3008C77.9978 16.4648 79.3416 16.0469 80.8728 16.0469C84.4353 16.0469 86.2166 18.0039 86.2166 21.918V28H84.0017L83.99 22.0586C83.99 20.707 83.7556 19.7031 83.2869 19.0469C82.7634 18.2969 81.908 17.9219 80.7205 17.9219C79.447 17.9219 78.3806 18.2344 77.5212 18.8594C77.24 19.0547 77.0134 19.2812 76.8416 19.5391V28H74.615V9.69531L76.8416 9.70703V17.3008ZM98.8784 17.3125C99.2925 17.7266 99.6167 18.25 99.8511 18.8828C100.093 19.5078 100.214 20.168 100.214 20.8633C100.214 21.5586 100.136 22.375 99.98 23.3125H91.8237C91.9956 24.2578 92.3784 25.0039 92.9722 25.5508C93.5659 26.0898 94.4058 26.3594 95.4917 26.3594C96.9448 26.3594 98.2769 26.0938 99.4878 25.5625L99.8628 27.2383C99.0581 27.707 97.9097 28.0156 96.4175 28.1641C96.0034 28.2109 95.4644 28.2344 94.8003 28.2344C94.1362 28.2344 93.4409 28.1016 92.7144 27.8359C91.9878 27.5703 91.3862 27.1797 90.9097 26.6641C89.9644 25.6406 89.4917 24.1406 89.4917 22.1641C89.4917 20.4297 90.0581 18.9766 91.1909 17.8047C92.3394 16.6328 93.773 16.0469 95.4917 16.0469C96.9058 16.0469 98.0347 16.4688 98.8784 17.3125ZM98.0933 21.5898L98.1402 20.957C98.1402 19.5273 97.605 18.5781 96.5347 18.1094C96.1753 17.9531 95.7456 17.875 95.2456 17.875C94.7456 17.875 94.2847 17.9727 93.8628 18.168C93.4487 18.3633 93.0894 18.6289 92.7847 18.9648C92.1597 19.6523 91.8081 20.5273 91.73 21.5898H98.0933ZM115.214 20.9219L109.097 11.4062H111.476L116.315 18.9883L121.12 11.4062H123.358L117.382 20.8867V28H115.214V20.9219ZM128.286 25.9023C127.473 25.1602 126.829 24.2773 126.352 23.2539C125.884 22.2305 125.649 21.1992 125.649 20.1602C125.649 19.1211 125.755 18.2227 125.966 17.4648C126.184 16.6992 126.493 15.9961 126.891 15.3555C127.29 14.707 127.766 14.125 128.321 13.6094C128.876 13.0938 129.493 12.6562 130.173 12.2969C131.595 11.5469 133.145 11.1719 134.825 11.1719C136.434 11.1719 137.934 11.5312 139.325 12.25C140.677 12.9531 141.755 13.9297 142.559 15.1797C143.38 16.4844 143.79 17.9336 143.79 19.5273C143.79 22.0508 142.899 24.1406 141.118 25.7969C140.001 26.8359 138.653 27.5508 137.075 27.9414C136.286 28.1367 135.372 28.2344 134.333 28.2344C133.294 28.2344 132.231 28.0312 131.145 27.625C130.059 27.2109 129.106 26.6367 128.286 25.9023ZM129.891 14.9453C129.29 15.5156 128.813 16.1914 128.462 16.9727C128.118 17.7539 127.946 18.6133 127.946 19.5508C127.946 20.4883 128.126 21.3672 128.485 22.1875C128.845 23.0078 129.337 23.7227 129.962 24.332C131.298 25.6367 132.919 26.2891 134.825 26.2891C136.677 26.2891 138.247 25.6797 139.536 24.4609C140.841 23.2266 141.493 21.6992 141.493 19.8789C141.493 18.6445 141.18 17.5 140.555 16.4453C139.97 15.4453 139.145 14.6406 138.083 14.0312C137.036 13.4219 135.966 13.1172 134.872 13.1172C133.778 13.1172 132.825 13.2812 132.012 13.6094C131.208 13.9297 130.501 14.375 129.891 14.9453ZM147.428 11.4062H149.596V19.9961C149.596 23.0117 150.6 24.9609 152.608 25.8438C153.295 26.1406 154.108 26.2891 155.045 26.2891C155.983 26.2891 156.78 26.1523 157.436 25.8789C158.1 25.6055 158.647 25.2109 159.077 24.6953C159.913 23.7031 160.331 22.2539 160.331 20.3477V11.4062H162.499V19.9961C162.499 23.9727 161.065 26.5312 158.198 27.6719C157.245 28.0469 156.143 28.2344 154.893 28.2344C153.643 28.2344 152.553 28.0547 151.624 27.6953C150.702 27.3281 149.932 26.8047 149.315 26.125C148.057 24.75 147.428 22.8242 147.428 20.3477V11.4062ZM186.71 14.8516C185.413 13.6953 183.745 13.1172 181.706 13.1172C179.854 13.1172 178.284 13.7266 176.995 14.9453C175.69 16.1719 175.038 17.6992 175.038 19.5273C175.038 21.418 175.71 23.0195 177.053 24.332C178.389 25.6367 180.01 26.2891 181.917 26.2891C183.299 26.2891 184.678 25.9375 186.053 25.2344C186.46 25.0312 186.811 24.8086 187.108 24.5664L187.952 26.1836C186.803 27.168 185.323 27.8047 183.51 28.0938C182.924 28.1875 182.323 28.2344 181.706 28.2344C180.479 28.2344 179.323 28.0312 178.237 27.625C177.151 27.2109 176.198 26.6367 175.378 25.9023C174.565 25.1602 173.92 24.2773 173.444 23.2539C172.975 22.2305 172.741 21.1992 172.741 20.1602C172.741 19.1211 172.846 18.2227 173.057 17.4648C173.276 16.6992 173.585 15.9961 173.983 15.3555C174.381 14.707 174.858 14.125 175.413 13.6094C175.967 13.0938 176.585 12.6562 177.264 12.2969C178.686 11.5469 180.237 11.1719 181.917 11.1719C184.19 11.1719 186.151 11.8203 187.799 13.1172L186.71 14.8516ZM189.973 22.2461C189.973 21.3555 190.149 20.5312 190.5 19.7734C190.852 19.0156 191.328 18.3594 191.93 17.8047C193.203 16.6328 194.735 16.0469 196.524 16.0469C198.328 16.0469 199.832 16.6055 201.035 17.7227C202.254 18.8555 202.864 20.3125 202.864 22.0938C202.864 23.8359 202.211 25.3008 200.907 26.4883C199.641 27.6523 198.11 28.2344 196.313 28.2344C194.485 28.2344 192.977 27.6797 191.789 26.5703C190.578 25.4453 189.973 24.0039 189.973 22.2461ZM192.2 22.1172C192.2 22.7266 192.309 23.293 192.528 23.8164C192.746 24.332 193.047 24.7812 193.43 25.1641C194.242 25.9609 195.274 26.3594 196.524 26.3594C197.688 26.3594 198.664 25.9609 199.453 25.1641C200.242 24.3828 200.637 23.4023 200.637 22.2227C200.637 20.9883 200.227 19.9609 199.407 19.1406C198.594 18.3281 197.563 17.9219 196.313 17.9219C195.149 17.9219 194.172 18.3242 193.383 19.1289C192.594 19.9258 192.2 20.9219 192.2 22.1172ZM208.412 17.4414C209.639 16.5117 211.045 16.0469 212.631 16.0469C216.193 16.0469 217.975 18.0039 217.975 21.918V28H215.748V22.0586C215.748 20.707 215.514 19.7031 215.045 19.0469C214.522 18.2969 213.666 17.9219 212.479 17.9219C211.205 17.9219 210.139 18.2344 209.279 18.8594C208.998 19.0547 208.772 19.2812 208.6 19.5391V28H206.373V16.2812H208.072L208.412 17.4414ZM222.07 18.0859H220.816V16.6328L223.699 14.4648H224.297V16.2812H227.648V18.0859H224.297V22.8203C224.297 24.1484 224.465 25.0547 224.801 25.5391C225.137 26.0156 225.793 26.3086 226.769 26.418L226.43 28C224.086 28.2969 222.699 27.3711 222.269 25.2227C222.137 24.582 222.07 23.8906 222.07 23.1484V18.0859ZM233.232 11.4648C233.232 11.9023 233.099 12.2539 232.834 12.5195C232.568 12.7852 232.216 12.918 231.779 12.918C231.341 12.918 230.99 12.7852 230.724 12.5195C230.459 12.2539 230.326 11.9023 230.326 11.4648C230.326 11.0273 230.459 10.6797 230.724 10.4219C230.99 10.1562 231.341 10.0234 231.779 10.0234C232.216 10.0234 232.568 10.1562 232.834 10.4219C233.099 10.6797 233.232 11.0273 233.232 11.4648ZM230.666 16.2812H232.892V28H230.666V16.2812ZM239.484 17.4414C240.71 16.5117 242.117 16.0469 243.702 16.0469C247.265 16.0469 249.046 18.0039 249.046 21.918V28H246.82V22.0586C246.82 20.707 246.585 19.7031 246.117 19.0469C245.593 18.2969 244.738 17.9219 243.55 17.9219C242.277 17.9219 241.21 18.2344 240.351 18.8594C240.07 19.0547 239.843 19.2812 239.671 19.5391V28H237.445V16.2812H239.144L239.484 17.4414ZM262.189 26.8633C261.11 27.7773 259.806 28.2344 258.275 28.2344C256.4 28.2344 255.06 27.7383 254.255 26.7461C253.497 25.8242 253.118 24.3633 253.118 22.3633V16.2812H255.345V22.2227C255.345 23.582 255.548 24.582 255.954 25.2227C256.431 25.9805 257.255 26.3594 258.427 26.3594C259.622 26.3594 260.61 26.0312 261.392 25.375C261.634 25.1719 261.837 24.9492 262.001 24.707V16.2812H264.228V28H262.528L262.189 26.8633ZM277.616 26.8633C276.538 27.7773 275.233 28.2344 273.702 28.2344C271.827 28.2344 270.487 27.7383 269.682 26.7461C268.925 25.8242 268.546 24.3633 268.546 22.3633V16.2812H270.772V22.2227C270.772 23.582 270.975 24.582 271.382 25.2227C271.858 25.9805 272.682 26.3594 273.854 26.3594C275.05 26.3594 276.038 26.0312 276.819 25.375C277.061 25.1719 277.265 24.9492 277.429 24.707V16.2812H279.655V28H277.956L277.616 26.8633ZM294.333 19.6094C294.465 20.2734 294.532 21.043 294.532 21.918V28H292.305V22.0586C292.305 20.6602 292.184 19.7266 291.942 19.2578C291.7 18.7812 291.399 18.4414 291.04 18.2383C290.688 18.0273 290.286 17.9219 289.833 17.9219C289.38 17.9219 288.997 17.9609 288.684 18.0391C288.38 18.1172 288.087 18.2266 287.805 18.3672C287.235 18.6719 286.782 19.0781 286.446 19.5859V28H284.219V16.2812H285.919L286.247 17.3945C287.262 16.4961 288.438 16.0469 289.774 16.0469C291.641 16.0469 292.95 16.6484 293.7 17.8516C294.387 17.0547 295.294 16.5078 296.419 16.2109C296.817 16.1016 297.356 16.0469 298.036 16.0469C298.723 16.0469 299.372 16.1797 299.981 16.4453C300.59 16.7109 301.079 17.0938 301.446 17.5938C302.11 18.5234 302.442 19.9648 302.442 21.918V28H300.215V22.0586C300.215 20.6602 300.094 19.7266 299.852 19.2578C299.61 18.7812 299.309 18.4414 298.95 18.2383C298.598 18.0273 298.196 17.9219 297.743 17.9219C297.29 17.9219 296.907 17.9648 296.594 18.0508C296.282 18.1289 295.985 18.2422 295.704 18.3906C295.118 18.6875 294.661 19.0938 294.333 19.6094Z" fill="white"/>
<path d="M63.0195 13.375H63.5195V12.875H63.0195V13.375ZM56.7852 13.375H56.2852V13.875H56.7852V13.375ZM56.7852 11.4062V10.9062H56.2852V11.4062H56.7852ZM71.4219 11.4062H71.9219V10.9062H71.4219V11.4062ZM71.4219 13.375V13.875H71.9219V13.375H71.4219ZM65.1875 13.375V12.875H64.6875V13.375H65.1875ZM65.1875 28V28.5H65.6875V28H65.1875ZM63.0195 28H62.5195V28.5H63.0195V28ZM63.0195 12.875H56.7852V13.875H63.0195V12.875ZM57.2852 13.375V11.4062H56.2852V13.375H57.2852ZM56.7852 11.9062H71.4219V10.9062H56.7852V11.9062ZM70.9219 11.4062V13.375H71.9219V11.4062H70.9219ZM71.4219 12.875H65.1875V13.875H71.4219V12.875ZM64.6875 13.375V28H65.6875V13.375H64.6875ZM65.1875 27.5H63.0195V28.5H65.1875V27.5ZM63.5195 28V13.375H62.5195V28H63.5195ZM76.8416 17.3008H76.3416V18.2793L77.1345 17.706L76.8416 17.3008ZM86.2166 28V28.5H86.7166V28H86.2166ZM84.0017 28L83.5017 28.001L83.5027 28.5H84.0017V28ZM83.99 22.0586H83.49L83.49 22.0596L83.99 22.0586ZM83.2869 19.0469L82.8768 19.333L82.88 19.3375L83.2869 19.0469ZM77.5212 18.8594L77.8065 19.2702L77.8153 19.2637L77.5212 18.8594ZM76.8416 19.5391L76.4255 19.2617L76.3416 19.3877V19.5391H76.8416ZM76.8416 28V28.5H77.3416V28H76.8416ZM74.615 28H74.115V28.5H74.615V28ZM74.615 9.69531L74.6176 9.19532L74.115 9.19267V9.69531H74.615ZM76.8416 9.70703H77.3416V9.20966L76.8442 9.20704L76.8416 9.70703ZM77.1345 17.706C78.1991 16.9363 79.4386 16.5469 80.8728 16.5469V15.5469C79.2445 15.5469 77.7965 15.9934 76.5486 16.8956L77.1345 17.706ZM80.8728 16.5469C82.5642 16.5469 83.7446 17.0093 84.5109 17.8512C85.2853 18.702 85.7166 20.027 85.7166 21.918H86.7166C86.7166 19.8949 86.2572 18.2843 85.2504 17.1781C84.2354 16.063 82.7439 15.5469 80.8728 15.5469V16.5469ZM85.7166 21.918V28H86.7166V21.918H85.7166ZM86.2166 27.5H84.0017V28.5H86.2166V27.5ZM84.5017 27.999L84.49 22.0576L83.49 22.0596L83.5017 28.001L84.5017 27.999ZM84.49 22.0586C84.49 20.6664 84.2518 19.5375 83.6937 18.7563L82.88 19.3375C83.2595 19.8688 83.49 20.7476 83.49 22.0586H84.49ZM83.6969 18.7607C83.0528 17.8378 82.0173 17.4219 80.7205 17.4219V18.4219C81.7987 18.4219 82.4741 18.756 82.8769 19.333L83.6969 18.7607ZM80.7205 17.4219C79.3629 17.4219 78.1879 17.7563 77.2272 18.455L77.8153 19.2637C78.5734 18.7124 79.5312 18.4219 80.7205 18.4219V17.4219ZM77.2361 18.4487C76.9086 18.6761 76.6357 18.9464 76.4255 19.2617L77.2576 19.8164C77.3911 19.6161 77.5714 19.4333 77.8064 19.2701L77.2361 18.4487ZM76.3416 19.5391V28H77.3416V19.5391H76.3416ZM76.8416 27.5H74.615V28.5H76.8416V27.5ZM75.115 28V9.69531H74.115V28H75.115ZM74.6124 10.1953L76.8389 10.207L76.8442 9.20704L74.6176 9.19532L74.6124 10.1953ZM76.3416 9.70703V17.3008H77.3416V9.70703H76.3416ZM99.8511 18.8828L99.3822 19.0565L99.3849 19.0635L99.8511 18.8828ZM99.98 23.3125V23.8125H100.404L100.473 23.3947L99.98 23.3125ZM91.8237 23.3125V22.8125H91.2246L91.3318 23.4019L91.8237 23.3125ZM92.9722 25.5508L92.6334 25.9186L92.6361 25.921L92.9722 25.5508ZM99.4878 25.5625L99.9757 25.4533L99.8431 24.8606L99.2869 25.1046L99.4878 25.5625ZM99.8628 27.2383L100.114 27.6703L100.431 27.4862L100.351 27.1291L99.8628 27.2383ZM96.4175 28.1641L96.368 27.6665L96.3613 27.6672L96.4175 28.1641ZM90.9097 26.6641L90.5424 27.0033L90.5425 27.0034L90.9097 26.6641ZM91.1909 17.8047L90.8338 17.4547L90.8314 17.4572L91.1909 17.8047ZM98.0933 21.5898V22.0898H98.5576L98.5919 21.6268L98.0933 21.5898ZM98.1402 20.957L98.6388 20.994L98.6402 20.9755V20.957H98.1402ZM96.5347 18.1094L96.7353 17.6514L96.7341 17.6508L96.5347 18.1094ZM93.8628 18.168L93.6527 17.7142L93.6495 17.7158L93.8628 18.168ZM92.7847 18.9648L93.1547 19.3012L93.155 19.3008L92.7847 18.9648ZM91.73 21.5898L91.2313 21.5532L91.1919 22.0898H91.73V21.5898ZM98.5249 17.6661C98.8808 18.022 99.1691 18.481 99.3822 19.0565L100.32 18.7092C100.064 18.019 99.7042 17.4312 99.232 16.9589L98.5249 17.6661ZM99.3849 19.0635C99.6039 19.6287 99.7144 20.2274 99.7144 20.8633H100.714C100.714 20.1085 100.583 19.3869 100.317 18.7022L99.3849 19.0635ZM99.7144 20.8633C99.7144 21.5231 99.64 22.3108 99.4868 23.2303L100.473 23.3947C100.632 22.4392 100.714 21.5941 100.714 20.8633H99.7144ZM99.98 22.8125H91.8237V23.8125H99.98V22.8125ZM91.3318 23.4019C91.5193 24.4332 91.9453 25.2848 92.6334 25.9186L93.3109 25.183C92.8115 24.723 92.4719 24.0824 92.3157 23.2231L91.3318 23.4019ZM92.6361 25.921C93.3502 26.5693 94.3261 26.8594 95.4917 26.8594V25.8594C94.4855 25.8594 93.7816 25.6104 93.3083 25.1806L92.6361 25.921ZM95.4917 26.8594C97.0071 26.8594 98.4084 26.582 99.6887 26.0204L99.2869 25.1046C98.1453 25.6055 96.8826 25.8594 95.4917 25.8594V26.8594ZM98.9999 25.6717L99.3749 27.3475L100.351 27.1291L99.9757 25.4533L98.9999 25.6717ZM99.6111 26.8062C98.8948 27.2235 97.8274 27.5213 96.368 27.6665L96.467 28.6616C97.992 28.5099 99.2214 28.1905 100.114 27.6703L99.6111 26.8062ZM96.3613 27.6672C95.9735 27.7111 95.4552 27.7344 94.8003 27.7344V28.7344C95.4736 28.7344 96.0334 28.7107 96.4737 28.6609L96.3613 27.6672ZM94.8003 27.7344C94.2036 27.7344 93.5665 27.6151 92.8861 27.3663L92.5427 28.3055C93.3154 28.588 94.0689 28.7344 94.8003 28.7344V27.7344ZM92.8861 27.3663C92.2264 27.1252 91.6942 26.7762 91.2769 26.3247L90.5425 27.0034C91.0783 27.5831 91.7493 28.0155 92.5427 28.3055L92.8861 27.3663ZM91.277 26.3248C90.447 25.4262 89.9917 24.0674 89.9917 22.1641H88.9917C88.9917 24.2138 89.4818 25.8551 90.5424 27.0033L91.277 26.3248ZM89.9917 22.1641C89.9917 20.5502 90.5139 19.2244 91.5504 18.1522L90.8314 17.4572C89.6023 18.7287 88.9917 20.3092 88.9917 22.1641H89.9917ZM91.548 18.1547C92.5976 17.0837 93.9002 16.5469 95.4917 16.5469V15.5469C93.6457 15.5469 92.0812 16.1819 90.8338 17.4547L91.548 18.1547ZM95.4917 16.5469C96.7995 16.5469 97.792 16.9332 98.5249 17.6661L99.232 16.9589C98.2773 16.0043 97.012 15.5469 95.4917 15.5469V16.5469ZM98.5919 21.6268L98.6388 20.994L97.6415 20.9201L97.5946 21.5529L98.5919 21.6268ZM98.6402 20.957C98.6402 20.1822 98.4953 19.4967 98.1743 18.9273C97.8496 18.3513 97.3621 17.9259 96.7353 17.6514L96.3341 18.5674C96.7776 18.7616 97.0928 19.0452 97.3032 19.4184C97.5174 19.7983 97.6402 20.3022 97.6402 20.957H98.6402ZM96.7341 17.6508C96.297 17.4608 95.796 17.375 95.2456 17.375V18.375C95.6952 18.375 96.0536 18.4454 96.3353 18.5679L96.7341 17.6508ZM95.2456 17.375C94.6786 17.375 94.1453 17.4862 93.6528 17.7142L94.0729 18.6217C94.424 18.4591 94.8126 18.375 95.2456 18.375V17.375ZM93.6495 17.7158C93.1765 17.9389 92.7636 18.2438 92.4143 18.6289L93.155 19.3008C93.4151 19.014 93.721 18.7877 94.0761 18.6202L93.6495 17.7158ZM92.4147 18.6285C91.7037 19.4106 91.3164 20.3963 91.2313 21.5532L92.2287 21.6265C92.2998 20.6583 92.6156 19.8941 93.1547 19.3012L92.4147 18.6285ZM91.73 22.0898H98.0933V21.0898H91.73V22.0898ZM115.214 20.9219H115.714V20.775L115.634 20.6515L115.214 20.9219ZM109.097 11.4062V10.9062H108.181L108.676 11.6766L109.097 11.4062ZM111.476 11.4062L111.897 11.1372L111.75 10.9062H111.476V11.4062ZM116.315 18.9883L115.894 19.2573L116.317 19.92L116.738 19.2559L116.315 18.9883ZM121.12 11.4062V10.9062H120.845L120.698 11.1386L121.12 11.4062ZM123.358 11.4062L123.781 11.6729L124.265 10.9062H123.358V11.4062ZM117.382 20.8867L116.959 20.6201L116.882 20.7423V20.8867H117.382ZM117.382 28V28.5H117.882V28H117.382ZM115.214 28H114.714V28.5H115.214V28ZM115.634 20.6515L109.517 11.1359L108.676 11.6766L114.793 21.1923L115.634 20.6515ZM109.097 11.9062H111.476V10.9062H109.097V11.9062ZM111.054 11.6753L115.894 19.2573L116.737 18.7193L111.897 11.1372L111.054 11.6753ZM116.738 19.2559L121.542 11.6739L120.698 11.1386L115.893 18.7206L116.738 19.2559ZM121.12 11.9062H123.358V10.9062H121.12V11.9062ZM122.935 11.1396L116.959 20.6201L117.805 21.1534L123.781 11.6729L122.935 11.1396ZM116.882 20.8867V28H117.882V20.8867H116.882ZM117.382 27.5H115.214V28.5H117.382V27.5ZM115.714 28V20.9219H114.714V28H115.714ZM128.286 25.9023L127.949 26.2715L127.952 26.2749L128.286 25.9023ZM126.352 23.2539L125.898 23.4621L125.899 23.465L126.352 23.2539ZM125.966 17.4648L125.485 17.3275L125.484 17.3308L125.966 17.4648ZM126.891 15.3555L127.316 15.6195L127.317 15.6172L126.891 15.3555ZM130.173 12.2969L129.939 11.8546L129.939 11.8549L130.173 12.2969ZM139.325 12.25L139.556 11.8064L139.555 11.8058L139.325 12.25ZM142.559 15.1797L142.983 14.9135L142.98 14.909L142.559 15.1797ZM141.118 25.7969L140.777 25.4307L140.777 25.4308L141.118 25.7969ZM131.145 27.625L130.967 28.0922L130.97 28.0933L131.145 27.625ZM129.891 14.9453L129.55 14.5802L129.547 14.5825L129.891 14.9453ZM128.462 16.9727L128.006 16.7675L128.004 16.7713L128.462 16.9727ZM129.962 24.332L130.311 23.9743L130.311 23.974L129.962 24.332ZM139.536 24.4609L139.879 24.8243L139.88 24.8241L139.536 24.4609ZM140.555 16.4453L140.124 16.6981L140.125 16.7002L140.555 16.4453ZM138.083 14.0312L137.831 14.4634L137.834 14.465L138.083 14.0312ZM132.012 13.6094L132.197 14.0739L132.2 14.073L132.012 13.6094ZM128.623 25.5332C127.861 24.8367 127.255 24.008 126.806 23.0428L125.899 23.465C126.403 24.5467 127.086 25.4836 127.949 26.2715L128.623 25.5332ZM126.807 23.0457C126.366 22.0821 126.149 21.1215 126.149 20.1602H125.149C125.149 21.2769 125.402 22.3789 125.898 23.4621L126.807 23.0457ZM126.149 20.1602C126.149 19.1528 126.252 18.3017 126.447 17.5989L125.484 17.3308C125.258 18.1436 125.149 19.0894 125.149 20.1602H126.149ZM126.446 17.6022C126.653 16.8787 126.943 16.2186 127.316 15.6195L126.467 15.0914C126.043 15.7736 125.716 16.5197 125.485 17.3275L126.446 17.6022ZM127.317 15.6172C127.692 15.0071 128.14 14.4603 128.662 13.9756L127.981 13.2432C127.393 13.7897 126.887 14.4069 126.465 15.0937L127.317 15.6172ZM128.662 13.9756C129.184 13.4903 129.765 13.0781 130.406 12.7389L129.939 11.8549C129.221 12.2344 128.568 12.6972 127.981 13.2432L128.662 13.9756ZM130.406 12.7391C131.753 12.0288 133.223 11.6719 134.825 11.6719V10.6719C133.068 10.6719 131.436 11.065 129.939 11.8546L130.406 12.7391ZM134.825 11.6719C136.357 11.6719 137.778 12.0132 139.095 12.6942L139.555 11.8058C138.091 11.0493 136.512 10.6719 134.825 10.6719V11.6719ZM139.094 12.6936C140.371 13.3576 141.383 14.2754 142.139 15.4503L142.98 14.909C142.127 13.584 140.983 12.5487 139.556 11.8064L139.094 12.6936ZM142.136 15.4458C142.905 16.668 143.29 18.0244 143.29 19.5273H144.29C144.29 17.8428 143.855 16.3008 142.983 14.9135L142.136 15.4458ZM143.29 19.5273C143.29 21.9177 142.453 23.873 140.777 25.4307L141.458 26.163C143.346 24.4083 144.29 22.1838 144.29 19.5273H143.29ZM140.777 25.4308C139.726 26.4082 138.456 27.0844 136.955 27.4561L137.195 28.4268C138.85 28.0171 140.275 27.2637 141.458 26.163L140.777 25.4308ZM136.955 27.4561C136.214 27.6394 135.342 27.7344 134.333 27.7344V28.7344C135.402 28.7344 136.358 28.6341 137.195 28.4268L136.955 27.4561ZM134.333 27.7344C133.36 27.7344 132.357 27.5444 131.321 27.1567L130.97 28.0933C132.106 28.5181 133.227 28.7344 134.333 28.7344V27.7344ZM131.323 27.1578C130.291 26.7643 129.392 26.2212 128.619 25.5298L127.952 26.2749C128.821 27.0523 129.827 27.6576 130.967 28.0922L131.323 27.1578ZM129.547 14.5825C128.897 15.199 128.383 15.9289 128.006 16.7675L128.918 17.1778C129.243 16.4539 129.683 15.8322 130.235 15.3082L129.547 14.5825ZM128.004 16.7713C127.63 17.622 127.446 18.5508 127.446 19.5508H128.446C128.446 18.6757 128.606 17.8858 128.919 17.174L128.004 16.7713ZM127.446 19.5508C127.446 20.554 127.639 21.5016 128.027 22.3881L128.943 21.9869C128.613 21.2328 128.446 20.4225 128.446 19.5508H127.446ZM128.027 22.3881C128.412 23.2659 128.94 24.0345 129.613 24.69L130.311 23.974C129.733 23.4108 129.277 22.7498 128.943 21.9869L128.027 22.3881ZM129.612 24.6897C131.044 26.0878 132.791 26.7891 134.825 26.7891V25.7891C133.046 25.7891 131.551 25.1857 130.311 23.9743L129.612 24.6897ZM134.825 26.7891C136.798 26.7891 138.493 26.1349 139.879 24.8243L139.192 24.0976C138.001 25.2244 136.555 25.7891 134.825 25.7891V26.7891ZM139.88 24.8241C141.286 23.4939 141.993 21.8345 141.993 19.8789H140.993C140.993 21.5639 140.396 22.9592 139.192 24.0977L139.88 24.8241ZM141.993 19.8789C141.993 18.5555 141.657 17.3228 140.986 16.1904L140.125 16.7002C140.704 17.6772 140.993 18.7336 140.993 19.8789H141.993ZM140.987 16.1925C140.354 15.113 139.465 14.2477 138.332 13.5975L137.834 14.465C138.825 15.0335 139.585 15.7776 140.124 16.6981L140.987 16.1925ZM138.334 13.5991C137.22 12.9502 136.063 12.6172 134.872 12.6172V13.6172C135.868 13.6172 136.852 13.8936 137.831 14.4634L138.334 13.5991ZM134.872 12.6172C133.729 12.6172 132.71 12.7884 131.825 13.1458L132.2 14.073C132.94 13.7741 133.827 13.6172 134.872 13.6172V12.6172ZM131.828 13.1448C130.967 13.4873 130.206 13.9657 129.55 14.5803L130.233 15.3104C130.795 14.7843 131.449 14.372 132.197 14.0739L131.828 13.1448ZM147.428 11.4062V10.9062H146.928V11.4062H147.428ZM149.596 11.4062H150.096V10.9062H149.596V11.4062ZM152.608 25.8438L152.407 26.3015L152.41 26.3028L152.608 25.8438ZM157.436 25.8789L157.246 25.4166L157.244 25.4174L157.436 25.8789ZM159.077 24.6953L158.694 24.3731L158.693 24.3752L159.077 24.6953ZM160.331 11.4062V10.9062H159.831V11.4062H160.331ZM162.499 11.4062H162.999V10.9062H162.499V11.4062ZM158.198 27.6719L158.381 28.1372L158.383 28.1365L158.198 27.6719ZM151.624 27.6953L151.439 28.1598L151.443 28.1617L151.624 27.6953ZM149.315 26.125L149.685 25.7889L149.684 25.7875L149.315 26.125ZM147.428 11.9062H149.596V10.9062H147.428V11.9062ZM149.096 11.4062V19.9961H150.096V11.4062H149.096ZM149.096 19.9961C149.096 23.122 150.149 25.3086 152.407 26.3015L152.809 25.386C151.052 24.6133 150.096 22.9014 150.096 19.9961H149.096ZM152.41 26.3028C153.173 26.6326 154.056 26.7891 155.045 26.7891V25.7891C154.16 25.7891 153.417 25.6487 152.806 25.3847L152.41 26.3028ZM155.045 26.7891C156.029 26.7891 156.895 26.646 157.628 26.3404L157.244 25.4174C156.665 25.6587 155.937 25.7891 155.045 25.7891V26.7891ZM157.626 26.3412C158.36 26.0391 158.975 25.5978 159.461 25.0154L158.693 24.3752C158.319 24.824 157.84 25.1719 157.246 25.4166L157.626 26.3412ZM159.459 25.0175C160.4 23.9011 160.831 22.318 160.831 20.3477H159.831C159.831 22.1898 159.426 23.5051 158.694 24.3732L159.459 25.0175ZM160.831 20.3477V11.4062H159.831V20.3477H160.831ZM160.331 11.9062H162.499V10.9062H160.331V11.9062ZM161.999 11.4062V19.9961H162.999V11.4062H161.999ZM161.999 19.9961C161.999 21.928 161.65 23.4703 160.987 24.6531C160.33 25.8268 159.346 26.677 158.013 27.2073L158.383 28.1365C159.917 27.5261 161.084 26.5267 161.86 25.1419C162.63 23.766 162.999 22.0408 162.999 19.9961H161.999ZM158.015 27.2066C157.131 27.5542 156.094 27.7344 154.893 27.7344V28.7344C156.192 28.7344 157.358 28.5395 158.381 28.1372L158.015 27.2066ZM154.893 27.7344C153.69 27.7344 152.664 27.5612 151.804 27.2289L151.443 28.1617C152.443 28.5481 153.597 28.7344 154.893 28.7344V27.7344ZM151.809 27.2308C150.952 26.8894 150.247 26.4078 149.685 25.7889L148.945 26.4611C149.617 27.2016 150.452 27.7668 151.439 28.1598L151.809 27.2308ZM149.684 25.7875C148.535 24.5316 147.928 22.7412 147.928 20.3477H146.928C146.928 22.9072 147.579 24.9684 148.946 26.4625L149.684 25.7875ZM147.928 20.3477V11.4062H146.928V20.3477H147.928ZM186.71 14.8516L186.377 15.2248L186.818 15.6183L187.133 15.1176L186.71 14.8516ZM176.995 14.9453L177.337 15.3096L177.338 15.3086L176.995 14.9453ZM177.053 24.332L176.704 24.6897L176.704 24.6897L177.053 24.332ZM186.053 25.2344L185.83 24.7871L185.826 24.7892L186.053 25.2344ZM187.108 24.5664L187.551 24.3351L187.267 23.7911L186.792 24.179L187.108 24.5664ZM187.952 26.1836L188.277 26.5632L188.579 26.3046L188.395 25.9523L187.952 26.1836ZM183.51 28.0938L183.432 27.6L183.431 27.6L183.51 28.0938ZM178.237 27.625L178.059 28.0922L178.062 28.0933L178.237 27.625ZM175.378 25.9023L175.04 26.2715L175.044 26.2749L175.378 25.9023ZM173.444 23.2539L172.989 23.4621L172.991 23.465L173.444 23.2539ZM173.057 17.4648L172.576 17.3275L172.576 17.3308L173.057 17.4648ZM173.983 15.3555L174.408 15.6195L174.409 15.6172L173.983 15.3555ZM177.264 12.2969L177.031 11.8546L177.031 11.8549L177.264 12.2969ZM187.799 13.1172L188.223 13.3832L188.462 13.0024L188.109 12.7242L187.799 13.1172ZM187.042 14.4784C185.638 13.2266 183.845 12.6172 181.706 12.6172V13.6172C183.645 13.6172 185.187 14.164 186.377 15.2248L187.042 14.4784ZM181.706 12.6172C179.732 12.6172 178.037 13.2713 176.651 14.582L177.338 15.3086C178.53 14.1818 179.976 13.6172 181.706 13.6172V12.6172ZM176.652 14.581C175.245 15.9043 174.538 17.5645 174.538 19.5273H175.538C175.538 17.8339 176.135 16.4395 177.337 15.3096L176.652 14.581ZM174.538 19.5273C174.538 21.5516 175.263 23.2824 176.704 24.6897L177.403 23.9743C176.156 22.7566 175.538 21.2843 175.538 19.5273H174.538ZM176.704 24.6897C178.135 26.0878 179.883 26.7891 181.917 26.7891V25.7891C180.138 25.7891 178.643 25.1857 177.403 23.9743L176.704 24.6897ZM181.917 26.7891C183.387 26.7891 184.844 26.4144 186.281 25.6795L185.826 24.7892C184.513 25.4606 183.211 25.7891 181.917 25.7891V26.7891ZM186.277 25.6816C186.71 25.4649 187.094 25.2231 187.424 24.9538L186.792 24.179C186.528 24.3941 186.209 24.5976 185.83 24.7872L186.277 25.6816ZM186.665 24.7977L187.508 26.4149L188.395 25.9523L187.551 24.3351L186.665 24.7977ZM187.626 25.804C186.562 26.7166 185.172 27.3224 183.432 27.6L183.589 28.5875C185.473 28.287 187.045 27.6194 188.277 26.5632L187.626 25.804ZM183.431 27.6C182.873 27.6894 182.297 27.7344 181.706 27.7344V28.7344C182.348 28.7344 182.976 28.6856 183.589 28.5875L183.431 27.6ZM181.706 27.7344C180.535 27.7344 179.439 27.5408 178.412 27.1567L178.062 28.0933C179.207 28.5217 180.423 28.7344 181.706 28.7344V27.7344ZM178.415 27.1578C177.383 26.7643 176.483 26.2212 175.711 25.5298L175.044 26.2749C175.912 27.0523 176.919 27.6576 178.059 28.0922L178.415 27.1578ZM175.715 25.5332C174.952 24.8367 174.347 24.008 173.897 23.0428L172.991 23.465C173.494 24.5467 174.178 25.4836 175.04 26.2715L175.715 25.5332ZM173.898 23.0457C173.457 22.0821 173.241 21.1215 173.241 20.1602H172.241C172.241 21.2769 172.493 22.3789 172.989 23.4621L173.898 23.0457ZM173.241 20.1602C173.241 19.1528 173.343 18.3017 173.539 17.5989L172.576 17.3308C172.349 18.1436 172.241 19.0894 172.241 20.1602H173.241ZM173.538 17.6022C173.745 16.8787 174.035 16.2186 174.408 15.6195L173.558 15.0914C173.134 15.7736 172.807 16.5197 172.576 17.3275L173.538 17.6022ZM174.409 15.6172C174.784 15.0071 175.232 14.4603 175.753 13.9756L175.072 13.2432C174.484 13.7897 173.979 14.4069 173.557 15.0937L174.409 15.6172ZM175.753 13.9756C176.275 13.4903 176.856 13.0781 177.498 12.7389L177.031 11.8549C176.313 12.2344 175.66 12.6972 175.072 13.2432L175.753 13.9756ZM177.497 12.7391C178.844 12.0288 180.314 11.6719 181.917 11.6719V10.6719C180.159 10.6719 178.528 11.065 177.031 11.8546L177.497 12.7391ZM181.917 11.6719C184.088 11.6719 185.937 12.2886 187.49 13.5102L188.109 12.7242C186.364 11.3521 184.292 10.6719 181.917 10.6719V11.6719ZM187.376 12.8512L186.286 14.5855L187.133 15.1176L188.223 13.3832L187.376 12.8512ZM191.93 17.8047L191.591 17.4368L191.591 17.4371L191.93 17.8047ZM201.035 17.7227L201.376 17.3564L201.376 17.3563L201.035 17.7227ZM200.907 26.4883L200.57 26.1185L200.568 26.1203L200.907 26.4883ZM191.789 26.5703L192.131 26.2049L192.13 26.204L191.789 26.5703ZM192.528 23.8164L192.066 24.0092L192.067 24.0117L192.528 23.8164ZM193.43 25.1641L193.076 25.5176L193.08 25.521L193.43 25.1641ZM199.453 25.1641L199.102 24.8087L199.098 24.8123L199.453 25.1641ZM193.383 19.1289L193.738 19.4807L193.74 19.479L193.383 19.1289ZM190.473 22.2461C190.473 21.4233 190.635 20.6714 190.954 19.9839L190.047 19.563C189.663 20.3911 189.473 21.2877 189.473 22.2461H190.473ZM190.954 19.9839C191.278 19.2842 191.717 18.6816 192.269 18.1723L191.591 17.4371C190.94 18.0371 190.425 18.7471 190.047 19.563L190.954 19.9839ZM192.269 18.1726C193.446 17.0888 194.855 16.5469 196.524 16.5469V15.5469C194.614 15.5469 192.961 16.1768 191.591 17.4368L192.269 18.1726ZM196.524 16.5469C198.216 16.5469 199.594 17.0666 200.695 18.0891L201.376 17.3563C200.071 16.1444 198.441 15.5469 196.524 15.5469V16.5469ZM200.695 18.0889C201.804 19.1199 202.364 20.4405 202.364 22.0938H203.364C203.364 20.1845 202.704 18.5911 201.376 17.3564L200.695 18.0889ZM202.364 22.0938C202.364 23.6932 201.772 25.0244 200.57 26.1185L201.243 26.8581C202.65 25.5772 203.364 23.9787 203.364 22.0938H202.364ZM200.568 26.1203C199.399 27.1953 197.99 27.7344 196.313 27.7344V28.7344C198.229 28.7344 199.883 28.1093 201.245 26.8563L200.568 26.1203ZM196.313 27.7344C194.594 27.7344 193.214 27.2168 192.131 26.2049L191.448 26.9357C192.74 28.1426 194.375 28.7344 196.313 28.7344V27.7344ZM192.13 26.204C191.028 25.1801 190.473 23.8748 190.473 22.2461H189.473C189.473 24.133 190.129 25.7105 191.449 26.9366L192.13 26.204ZM191.7 22.1172C191.7 22.7878 191.82 23.4203 192.066 24.0092L192.989 23.6236C192.798 23.1657 192.7 22.6653 192.7 22.1172H191.7ZM192.067 24.0117C192.31 24.5843 192.647 25.0878 193.076 25.5176L193.784 24.8105C193.448 24.4747 193.182 24.0797 192.988 23.6211L192.067 24.0117ZM193.08 25.521C193.995 26.419 195.157 26.8594 196.524 26.8594V25.8594C195.391 25.8594 194.49 25.5029 193.78 24.8071L193.08 25.521ZM196.524 26.8594C197.816 26.8594 198.922 26.4115 199.809 25.5159L199.098 24.8123C198.407 25.5103 197.56 25.8594 196.524 25.8594V26.8594ZM199.805 25.5194C200.696 24.6379 201.137 23.5266 201.137 22.2227H200.137C200.137 23.2781 199.789 24.1277 199.102 24.8088L199.805 25.5194ZM201.137 22.2227C201.137 20.8651 200.681 19.7076 199.76 18.7871L199.053 19.4942C199.773 20.2143 200.137 21.1115 200.137 22.2227H201.137ZM199.76 18.7871C198.845 17.8721 197.683 17.4219 196.313 17.4219V18.4219C197.443 18.4219 198.343 18.7842 199.053 19.4942L199.76 18.7871ZM196.313 17.4219C195.019 17.4219 193.913 17.8748 193.026 18.7788L193.74 19.479C194.432 18.7737 195.278 18.4219 196.313 18.4219V17.4219ZM193.028 18.7771C192.14 19.6742 191.7 20.7997 191.7 22.1172H192.7C192.7 21.044 193.049 20.1774 193.738 19.4807L193.028 18.7771ZM208.412 17.4414L207.932 17.582L208.136 18.278L208.714 17.8399L208.412 17.4414ZM217.975 28V28.5H218.475V28H217.975ZM215.748 28H215.248V28.5H215.748V28ZM215.045 19.0469L214.635 19.333L214.638 19.3375L215.045 19.0469ZM209.279 18.8594L209.565 19.2702L209.573 19.2637L209.279 18.8594ZM208.6 19.5391L208.184 19.2617L208.1 19.3877V19.5391H208.6ZM208.6 28V28.5H209.1V28H208.6ZM206.373 28H205.873V28.5H206.373V28ZM206.373 16.2812V15.7812H205.873V16.2812H206.373ZM208.072 16.2812L208.552 16.1407L208.447 15.7812H208.072V16.2812ZM208.714 17.8399C209.851 16.9782 211.15 16.5469 212.631 16.5469V15.5469C210.94 15.5469 209.426 16.0452 208.11 17.0429L208.714 17.8399ZM212.631 16.5469C214.322 16.5469 215.503 17.0093 216.269 17.8512C217.043 18.702 217.475 20.027 217.475 21.918H218.475C218.475 19.8949 218.015 18.2843 217.009 17.1781C215.994 16.063 214.502 15.5469 212.631 15.5469V16.5469ZM217.475 21.918V28H218.475V21.918H217.475ZM217.975 27.5H215.748V28.5H217.975V27.5ZM216.248 28V22.0586H215.248V28H216.248ZM216.248 22.0586C216.248 20.6664 216.01 19.5375 215.452 18.7563L214.638 19.3375C215.018 19.8688 215.248 20.7476 215.248 22.0586H216.248ZM215.455 18.7607C214.811 17.8378 213.775 17.4219 212.479 17.4219V18.4219C213.557 18.4219 214.232 18.756 214.635 19.333L215.455 18.7607ZM212.479 17.4219C211.121 17.4219 209.946 17.7563 208.985 18.455L209.573 19.2637C210.331 18.7124 211.289 18.4219 212.479 18.4219V17.4219ZM208.994 18.4487C208.667 18.6761 208.394 18.9464 208.184 19.2617L209.016 19.8164C209.149 19.6161 209.329 19.4333 209.565 19.2701L208.994 18.4487ZM208.1 19.5391V28H209.1V19.5391H208.1ZM208.6 27.5H206.373V28.5H208.6V27.5ZM206.873 28V16.2812H205.873V28H206.873ZM206.373 16.7812H208.072V15.7812H206.373V16.7812ZM207.593 16.4218L207.932 17.582L208.892 17.3008L208.552 16.1407L207.593 16.4218ZM222.07 18.0859H222.57V17.5859H222.07V18.0859ZM220.816 18.0859H220.316V18.5859H220.816V18.0859ZM220.816 16.6328L220.516 16.2332L220.316 16.3832V16.6328H220.816ZM223.699 14.4648V13.9648H223.532L223.399 14.0652L223.699 14.4648ZM224.297 14.4648H224.797V13.9648H224.297V14.4648ZM224.297 16.2812H223.797V16.7812H224.297V16.2812ZM227.648 16.2812H228.148V15.7812H227.648V16.2812ZM227.648 18.0859V18.5859H228.148V18.0859H227.648ZM224.297 18.0859V17.5859H223.797V18.0859H224.297ZM224.801 25.5391L224.39 25.824L224.392 25.8271L224.801 25.5391ZM226.769 26.418L227.258 26.523L227.374 25.9826L226.825 25.9211L226.769 26.418ZM226.43 28L226.492 28.496L226.844 28.4515L226.918 28.105L226.43 28ZM222.269 25.2227L222.76 25.1246L222.759 25.1212L222.269 25.2227ZM222.07 17.5859H220.816V18.5859H222.07V17.5859ZM221.316 18.0859V16.6328H220.316V18.0859H221.316ZM221.117 17.0324L224 14.8645L223.399 14.0652L220.516 16.2332L221.117 17.0324ZM223.699 14.9648H224.297V13.9648H223.699V14.9648ZM223.797 14.4648V16.2812H224.797V14.4648H223.797ZM224.297 16.7812H227.648V15.7812H224.297V16.7812ZM227.148 16.2812V18.0859H228.148V16.2812H227.148ZM227.648 17.5859H224.297V18.5859H227.648V17.5859ZM223.797 18.0859V22.8203H224.797V18.0859H223.797ZM223.797 22.8203C223.797 23.5028 223.84 24.0941 223.931 24.5872C224.021 25.0748 224.165 25.5001 224.39 25.824L225.211 25.2541C225.1 25.0936 224.992 24.8236 224.914 24.405C224.838 23.9918 224.797 23.4659 224.797 22.8203H223.797ZM224.392 25.8271C224.852 26.4801 225.688 26.8 226.714 26.9149L226.825 25.9211C225.897 25.8172 225.421 25.5512 225.209 25.251L224.392 25.8271ZM226.281 26.313L225.941 27.895L226.918 28.105L227.258 26.523L226.281 26.313ZM226.367 27.504C225.265 27.6435 224.468 27.4853 223.909 27.1125C223.358 26.7441 222.957 26.1113 222.76 25.1246L221.779 25.3207C222.011 26.4825 222.519 27.3868 223.354 27.9442C224.182 28.4971 225.25 28.6534 226.492 28.496L226.367 27.504ZM222.759 25.1212C222.634 24.518 222.57 23.861 222.57 23.1484H221.57C221.57 23.9203 221.639 24.646 221.78 25.3242L222.759 25.1212ZM222.57 23.1484V18.0859H221.57V23.1484H222.57ZM230.724 10.4219L231.072 10.7807L231.078 10.7754L230.724 10.4219ZM232.834 10.4219L232.48 10.7755L232.485 10.7807L232.834 10.4219ZM230.666 16.2812V15.7812H230.166V16.2812H230.666ZM232.892 16.2812H233.392V15.7812H232.892V16.2812ZM232.892 28V28.5H233.392V28H232.892ZM230.666 28H230.166V28.5H230.666V28ZM232.732 11.4648C232.732 11.7933 232.636 12.0096 232.48 12.166L233.187 12.8731C233.562 12.4982 233.732 12.0114 233.732 11.4648H232.732ZM232.48 12.166C232.324 12.3224 232.107 12.418 231.779 12.418V13.418C232.325 13.418 232.812 13.2479 233.187 12.8731L232.48 12.166ZM231.779 12.418C231.45 12.418 231.234 12.3224 231.078 12.166L230.371 12.8731C230.746 13.2479 231.232 13.418 231.779 13.418V12.418ZM231.078 12.166C230.921 12.0096 230.826 11.7933 230.826 11.4648H229.826C229.826 12.0114 229.996 12.4982 230.371 12.8731L231.078 12.166ZM230.826 11.4648C230.826 11.136 230.921 10.9273 231.072 10.7807L230.376 10.0631C229.996 10.4321 229.826 10.9187 229.826 11.4648H230.826ZM231.078 10.7754C231.234 10.619 231.45 10.5234 231.779 10.5234V9.52344C231.232 9.52344 230.746 9.69347 230.371 10.0683L231.078 10.7754ZM231.779 10.5234C232.107 10.5234 232.324 10.619 232.48 10.7754L233.187 10.0683C232.812 9.69347 232.325 9.52344 231.779 9.52344V10.5234ZM232.485 10.7807C232.636 10.9273 232.732 11.136 232.732 11.4648H233.732C233.732 10.9187 233.562 10.4321 233.182 10.0631L232.485 10.7807ZM230.666 16.7812H232.892V15.7812H230.666V16.7812ZM232.392 16.2812V28H233.392V16.2812H232.392ZM232.892 27.5H230.666V28.5H232.892V27.5ZM231.166 28V16.2812H230.166V28H231.166ZM239.484 17.4414L239.004 17.582L239.208 18.278L239.786 17.8399L239.484 17.4414ZM249.046 28V28.5H249.546V28H249.046ZM246.82 28H246.32V28.5H246.82V28ZM246.117 19.0469L245.707 19.333L245.71 19.3375L246.117 19.0469ZM240.351 18.8594L240.636 19.2702L240.645 19.2637L240.351 18.8594ZM239.671 19.5391L239.255 19.2617L239.171 19.3877V19.5391H239.671ZM239.671 28V28.5H240.171V28H239.671ZM237.445 28H236.945V28.5H237.445V28ZM237.445 16.2812V15.7812H236.945V16.2812H237.445ZM239.144 16.2812L239.624 16.1407L239.518 15.7812H239.144V16.2812ZM239.786 17.8399C240.923 16.9782 242.222 16.5469 243.702 16.5469V15.5469C242.011 15.5469 240.498 16.0452 239.182 17.0429L239.786 17.8399ZM243.702 16.5469C245.394 16.5469 246.574 17.0093 247.341 17.8512C248.115 18.702 248.546 20.027 248.546 21.918H249.546C249.546 19.8949 249.087 18.2843 248.08 17.1781C247.065 16.063 245.574 15.5469 243.702 15.5469V16.5469ZM248.546 21.918V28H249.546V21.918H248.546ZM249.046 27.5H246.82V28.5H249.046V27.5ZM247.32 28V22.0586H246.32V28H247.32ZM247.32 22.0586C247.32 20.6664 247.081 19.5375 246.523 18.7563L245.71 19.3375C246.089 19.8688 246.32 20.7476 246.32 22.0586H247.32ZM246.527 18.7607C245.882 17.8378 244.847 17.4219 243.55 17.4219V18.4219C244.628 18.4219 245.304 18.756 245.707 19.333L246.527 18.7607ZM243.55 17.4219C242.193 17.4219 241.018 17.7563 240.057 18.455L240.645 19.2637C241.403 18.7124 242.361 18.4219 243.55 18.4219V17.4219ZM240.066 18.4487C239.738 18.6761 239.465 18.9464 239.255 19.2617L240.087 19.8164C240.221 19.6161 240.401 19.4333 240.636 19.2701L240.066 18.4487ZM239.171 19.5391V28H240.171V19.5391H239.171ZM239.671 27.5H237.445V28.5H239.671V27.5ZM237.945 28V16.2812H236.945V28H237.945ZM237.445 16.7812H239.144V15.7812H237.445V16.7812ZM238.664 16.4218L239.004 17.582L239.964 17.3008L239.624 16.1407L238.664 16.4218ZM262.189 26.8633L262.668 26.7201L262.449 25.9873L261.865 26.4819L262.189 26.8633ZM254.255 26.7461L254.643 26.4311L254.641 26.4286L254.255 26.7461ZM253.118 16.2812V15.7812H252.618V16.2812H253.118ZM255.345 16.2812H255.845V15.7812H255.345V16.2812ZM255.954 25.2227L256.377 24.9565L256.376 24.9549L255.954 25.2227ZM261.392 25.375L261.07 24.9919L261.07 24.9921L261.392 25.375ZM262.001 24.707L262.415 24.9875L262.501 24.8604V24.707H262.001ZM262.001 16.2812V15.7812H261.501V16.2812H262.001ZM264.228 16.2812H264.728V15.7812H264.228V16.2812ZM264.228 28V28.5H264.728V28H264.228ZM262.528 28L262.049 28.1432L262.156 28.5H262.528V28ZM261.865 26.4819C260.885 27.3128 259.698 27.7344 258.275 27.7344V28.7344C259.914 28.7344 261.336 28.2419 262.512 27.2447L261.865 26.4819ZM258.275 27.7344C256.478 27.7344 255.315 27.2596 254.643 26.4311L253.867 27.061C254.804 28.217 256.322 28.7344 258.275 28.7344V27.7344ZM254.641 26.4286C253.992 25.6393 253.618 24.3193 253.618 22.3633H252.618C252.618 24.4072 253.002 26.0092 253.869 27.0636L254.641 26.4286ZM253.618 22.3633V16.2812H252.618V22.3633H253.618ZM253.118 16.7812H255.345V15.7812H253.118V16.7812ZM254.845 16.2812V22.2227H255.845V16.2812H254.845ZM254.845 22.2227C254.845 23.6118 255.049 24.7284 255.532 25.4904L256.376 24.9549C256.047 24.4356 255.845 23.5523 255.845 22.2227H254.845ZM255.531 25.4888C256.127 26.4365 257.143 26.8594 258.427 26.8594V25.8594C257.367 25.8594 256.735 25.5244 256.377 24.9565L255.531 25.4888ZM258.427 26.8594C259.719 26.8594 260.827 26.5024 261.713 25.7579L261.07 24.9921C260.394 25.5601 259.526 25.8594 258.427 25.8594V26.8594ZM261.713 25.7581C261.988 25.5276 262.223 25.2709 262.415 24.9875L261.587 24.4266C261.451 24.6275 261.28 24.8162 261.07 24.9919L261.713 25.7581ZM262.501 24.707V16.2812H261.501V24.707H262.501ZM262.001 16.7812H264.228V15.7812H262.001V16.7812ZM263.728 16.2812V28H264.728V16.2812H263.728ZM264.228 27.5H262.528V28.5H264.228V27.5ZM263.007 27.8568L262.668 26.7201L261.71 27.0065L262.049 28.1432L263.007 27.8568ZM277.616 26.8633L278.095 26.7201L277.876 25.9873L277.293 26.4819L277.616 26.8633ZM269.682 26.7461L270.071 26.4311L270.069 26.4286L269.682 26.7461ZM268.546 16.2812V15.7812H268.046V16.2812H268.546ZM270.772 16.2812H271.272V15.7812H270.772V16.2812ZM271.382 25.2227L271.805 24.9565L271.804 24.9549L271.382 25.2227ZM276.819 25.375L276.498 24.9919L276.498 24.9921L276.819 25.375ZM277.429 24.707L277.843 24.9875L277.929 24.8604V24.707H277.429ZM277.429 16.2812V15.7812H276.929V16.2812H277.429ZM279.655 16.2812H280.155V15.7812H279.655V16.2812ZM279.655 28V28.5H280.155V28H279.655ZM277.956 28L277.477 28.1432L277.584 28.5H277.956V28ZM277.293 26.4819C276.313 27.3128 275.125 27.7344 273.702 27.7344V28.7344C275.341 28.7344 276.763 28.2419 277.939 27.2447L277.293 26.4819ZM273.702 27.7344C271.905 27.7344 270.743 27.2596 270.071 26.4311L269.294 27.061C270.232 28.217 271.749 28.7344 273.702 28.7344V27.7344ZM270.069 26.4286C269.42 25.6393 269.046 24.3193 269.046 22.3633H268.046C268.046 24.4072 268.429 26.0092 269.296 27.0636L270.069 26.4286ZM269.046 22.3633V16.2812H268.046V22.3633H269.046ZM268.546 16.7812H270.772V15.7812H268.546V16.7812ZM270.272 16.2812V22.2227H271.272V16.2812H270.272ZM270.272 22.2227C270.272 23.6118 270.476 24.7284 270.959 25.4904L271.804 24.9549C271.475 24.4356 271.272 23.5523 271.272 22.2227H270.272ZM270.958 25.4888C271.554 26.4365 272.571 26.8594 273.854 26.8594V25.8594C272.794 25.8594 272.162 25.5244 271.805 24.9565L270.958 25.4888ZM273.854 26.8594C275.146 26.8594 276.254 26.5024 277.141 25.7579L276.498 24.9921C275.821 25.5601 274.953 25.8594 273.854 25.8594V26.8594ZM277.141 25.7581C277.415 25.5276 277.651 25.2709 277.843 24.9875L277.015 24.4266C276.879 24.6275 276.707 24.8162 276.498 24.9919L277.141 25.7581ZM277.929 24.707V16.2812H276.929V24.707H277.929ZM277.429 16.7812H279.655V15.7812H277.429V16.7812ZM279.155 16.2812V28H280.155V16.2812H279.155ZM279.655 27.5H277.956V28.5H279.655V27.5ZM278.435 27.8568L278.095 26.7201L277.137 27.0065L277.477 28.1432L278.435 27.8568ZM294.333 19.6094L293.911 19.3409L293.803 19.5104L293.842 19.7074L294.333 19.6094ZM294.532 28V28.5H295.032V28H294.532ZM292.305 28H291.805V28.5H292.305V28ZM291.942 19.2578L291.496 19.4843L291.498 19.4873L291.942 19.2578ZM291.04 18.2383L290.782 18.6672L290.794 18.6736L291.04 18.2383ZM288.684 18.0391L288.563 17.554L288.56 17.5547L288.684 18.0391ZM287.805 18.3672L287.582 17.9198L287.57 17.9262L287.805 18.3672ZM286.446 19.5859L286.029 19.3101L285.946 19.4355V19.5859H286.446ZM286.446 28V28.5H286.946V28H286.446ZM284.219 28H283.719V28.5H284.219V28ZM284.219 16.2812V15.7812H283.719V16.2812H284.219ZM285.919 16.2812L286.398 16.1399L286.292 15.7812H285.919V16.2812ZM286.247 17.3945L285.767 17.5359L285.989 18.2898L286.578 17.769L286.247 17.3945ZM293.7 17.8516L293.276 18.1161L293.635 18.6924L294.078 18.1782L293.7 17.8516ZM296.419 16.2109L296.546 16.6944L296.551 16.6931L296.419 16.2109ZM301.446 17.5938L301.853 17.3031L301.849 17.2978L301.446 17.5938ZM302.442 28V28.5H302.942V28H302.442ZM300.215 28H299.715V28.5H300.215V28ZM299.852 19.2578L299.406 19.4843L299.408 19.4873L299.852 19.2578ZM298.95 18.2383L298.693 18.6672L298.704 18.6736L298.95 18.2383ZM296.594 18.0508L296.716 18.536L296.727 18.5329L296.594 18.0508ZM295.704 18.3906L295.93 18.8367L295.937 18.8328L295.704 18.3906ZM293.842 19.7074C293.967 20.3314 294.032 21.0669 294.032 21.918H295.032C295.032 21.019 294.964 20.2154 294.823 19.5113L293.842 19.7074ZM294.032 21.918V28H295.032V21.918H294.032ZM294.532 27.5H292.305V28.5H294.532V27.5ZM292.805 28V22.0586H291.805V28H292.805ZM292.805 22.0586C292.805 21.3471 292.775 20.7409 292.71 20.2453C292.647 19.7587 292.547 19.3399 292.386 19.0283L291.498 19.4873C291.579 19.6445 291.661 19.9269 291.719 20.3739C291.775 20.8118 291.805 21.3716 291.805 22.0586H292.805ZM292.388 19.0313C292.114 18.4926 291.753 18.067 291.286 17.803L290.794 18.6736C291.045 18.8158 291.286 19.0699 291.496 19.4843L292.388 19.0313ZM291.297 17.8095C290.86 17.5472 290.367 17.4219 289.833 17.4219V18.4219C290.205 18.4219 290.517 18.5075 290.782 18.667L291.297 17.8095ZM289.833 17.4219C289.354 17.4219 288.928 17.4628 288.563 17.554L288.805 18.5241C289.066 18.459 289.405 18.4219 289.833 18.4219V17.4219ZM288.56 17.5547C288.221 17.6417 287.895 17.7635 287.582 17.92L288.029 18.8144C288.278 18.6896 288.538 18.5927 288.808 18.5234L288.56 17.5547ZM287.57 17.9262C286.931 18.2675 286.414 18.7287 286.029 19.3101L286.863 19.8618C287.15 19.4275 287.539 19.0763 288.041 18.8082L287.57 17.9262ZM285.946 19.5859V28H286.946V19.5859H285.946ZM286.446 27.5H284.219V28.5H286.446V27.5ZM284.719 28V16.2812H283.719V28H284.719ZM284.219 16.7812H285.919V15.7812H284.219V16.7812ZM285.439 16.4226L285.767 17.5359L286.726 17.2532L286.398 16.1399L285.439 16.4226ZM286.578 17.769C287.504 16.9501 288.562 16.5469 289.774 16.5469V15.5469C288.314 15.5469 287.021 16.0421 285.915 17.02L286.578 17.769ZM289.774 16.5469C291.53 16.5469 292.645 17.1051 293.276 18.1161L294.124 17.5871C293.254 16.1918 291.752 15.5469 289.774 15.5469V16.5469ZM294.078 18.1782C294.693 17.4657 295.508 16.9683 296.546 16.6944L296.291 15.7275C295.079 16.0473 294.082 16.6437 293.321 17.5249L294.078 18.1782ZM296.551 16.6931C296.888 16.6007 297.376 16.5469 298.036 16.5469V15.5469C297.336 15.5469 296.747 15.6024 296.286 15.7288L296.551 16.6931ZM298.036 16.5469C298.657 16.5469 299.237 16.6665 299.781 16.9037L300.181 15.987C299.506 15.6929 298.79 15.5469 298.036 15.5469V16.5469ZM299.781 16.9037C300.316 17.1366 300.732 17.4659 301.043 17.8897L301.849 17.2978C301.426 16.7216 300.865 16.2852 300.181 15.987L299.781 16.9037ZM301.039 17.8844C301.613 18.6878 301.942 20.0029 301.942 21.918H302.942C302.942 19.9268 302.607 18.359 301.853 17.3031L301.039 17.8844ZM301.942 21.918V28H302.942V21.918H301.942ZM302.442 27.5H300.215V28.5H302.442V27.5ZM300.715 28V22.0586H299.715V28H300.715ZM300.715 22.0586C300.715 21.3471 300.685 20.7409 300.62 20.2453C300.557 19.7587 300.457 19.3399 300.296 19.0283L299.408 19.4873C299.489 19.6445 299.571 19.9269 299.629 20.3739C299.686 20.8118 299.715 21.3716 299.715 22.0586H300.715ZM300.298 19.0313C300.024 18.4926 299.663 18.067 299.196 17.803L298.704 18.6736C298.956 18.8158 299.196 19.0699 299.406 19.4843L300.298 19.0313ZM299.207 17.8095C298.77 17.5472 298.277 17.4219 297.743 17.4219V18.4219C298.115 18.4219 298.427 18.5075 298.693 18.667L299.207 17.8095ZM297.743 17.4219C297.261 17.4219 296.831 17.4672 296.462 17.5687L296.727 18.5329C296.983 18.4625 297.318 18.4219 297.743 18.4219V17.4219ZM296.473 17.5657C296.122 17.6534 295.788 17.781 295.47 17.9484L295.937 18.8328C296.182 18.7034 296.442 18.6044 296.716 18.5359L296.473 17.5657ZM295.478 17.9446C294.818 18.2789 294.291 18.744 293.911 19.3409L294.754 19.8778C295.031 19.4435 295.418 19.0961 295.93 18.8366L295.478 17.9446Z" fill="white" mask="url(#path-6-outside-1_181_1609)"/>
<defs>
<filter id="filter0_dd_181_1609" x="3.66666" y="6.66663" width="32.6667" height="33.6666" filterUnits="userSpaceOnUse" color-interpolation-filters="sRGB">
<feFlood flood-opacity="0" result="BackgroundImageFix"/>
<feColorMatrix in="SourceAlpha" type="matrix" values="0 0 0 0 0 0 0 0 0 0 0 0 0 0 0 0 0 0 127 0" result="hardAlpha"/>
<feMorphology radius="1" operator="erode" in="SourceAlpha" result="effect1_dropShadow_181_1609"/>
<feOffset dy="4"/>
<feGaussianBlur stdDeviation="2"/>
<feComposite in2="hardAlpha" operator="out"/>
<feColorMatrix type="matrix" values="0 0 0 0 0.0470588 0 0 0 0 0.0470588 0 0 0 0 0.0509804 0 0 0 0.05 0"/>
<feBlend mode="normal" in2="BackgroundImageFix" result="effect1_dropShadow_181_1609"/>
<feColorMatrix in="SourceAlpha" type="matrix" values="0 0 0 0 0 0 0 0 0 0 0 0 0 0 0 0 0 0 127 0" result="hardAlpha"/>
<feMorphology radius="1" operator="erode" in="SourceAlpha" result="effect2_dropShadow_181_1609"/>
<feOffset dy="4"/>
<feGaussianBlur stdDeviation="2"/>
<feComposite in2="hardAlpha" operator="out"/>
<feColorMatrix type="matrix" values="0 0 0 0 0.0470588 0 0 0 0 0.0470588 0 0 0 0 0.0509804 0 0 0 0.1 0"/>
<feBlend mode="normal" in2="effect1_dropShadow_181_1609" result="effect2_dropShadow_181_1609"/>
<feBlend mode="normal" in="SourceGraphic" in2="effect2_dropShadow_181_1609" result="shape"/>
</filter>
<filter id="filter1_dd_181_1609" x="9.33331" y="10.3334" width="21.3333" height="21.3334" filterUnits="userSpaceOnUse" color-interpolation-filters="sRGB">
<feFlood flood-opacity="0" result="BackgroundImageFix"/>
<feColorMatrix in="SourceAlpha" type="matrix" values="0 0 0 0 0 0 0 0 0 0 0 0 0 0 0 0 0 0 127 0" result="hardAlpha"/>
<feOffset dy="1"/>
<feGaussianBlur stdDeviation="2"/>
<feComposite in2="hardAlpha" operator="out"/>
<feColorMatrix type="matrix" values="0 0 0 0 0.0470588 0 0 0 0 0.0470588 0 0 0 0 0.0509804 0 0 0 0.05 0"/>
<feBlend mode="normal" in2="BackgroundImageFix" result="effect1_dropShadow_181_1609"/>
<feColorMatrix in="SourceAlpha" type="matrix" values="0 0 0 0 0 0 0 0 0 0 0 0 0 0 0 0 0 0 127 0" result="hardAlpha"/>
<feOffset dy="1"/>
<feGaussianBlur stdDeviation="2"/>
<feComposite in2="hardAlpha" operator="out"/>
<feColorMatrix type="matrix" values="0 0 0 0 0.0470588 0 0 0 0 0.0470588 0 0 0 0 0.0509804 0 0 0 0.1 0"/>
<feBlend mode="normal" in2="effect1_dropShadow_181_1609" result="effect2_dropShadow_181_1609"/>
<feBlend mode="normal" in="SourceGraphic" in2="effect2_dropShadow_181_1609" result="shape"/>
</filter>
</defs>
</svg>
